<?xml version="1.0" encoding="utf-8"?>
<!-- Generator: Adobe Illustrator 16.0.0, SVG Export Plug-In . SVG Version: 6.00 Build 0)  -->
<!DOCTYPE svg PUBLIC "-//W3C//DTD SVG 1.1//EN" "http://www.w3.org/Graphics/SVG/1.1/DTD/svg11.dtd">
<svg version="1.1" id="Layer_1" xmlns="http://www.w3.org/2000/svg" xmlns:xlink="http://www.w3.org/1999/xlink" x="0px" y="0px"
	 width="200px" height="35px" viewBox="-187.883 557.159 200 35" enable-background="new -187.883 557.159 200 35"
	 xml:space="preserve">
<g>
	<path fill="#020102" d="M-150.64,557.159h-35.624l-1.311,35h38.194L-150.64,557.159z M-178.485,583.404l0.656-17.489h18.744
		l0.63,17.489H-178.485z"/>
	<g>
		<path fill="#020102" d="M-136.556,577.011h4.021c2.777,0,3.649,1.34,3.649,2.584c0,1.098-0.727,1.824-1.308,2.26
			c0.694,0.371,1.76,1.228,1.76,2.793c0,1.905-1.518,3.133-3.681,3.133h-4.44V577.011z M-134.053,581.355h2.067
			c0,0,0.5-0.355,0.5-1.114c0-0.613-0.274-1.146-1.292-1.146h-1.275V581.355z M-132.358,585.698c0.936,0,1.324-0.484,1.324-1.194
			c0-0.646-0.404-1.146-1.324-1.146h-1.695v2.341H-132.358z"/>
		<path fill="#020102" d="M-126.497,577.011h7.04v2.083h-4.537v2.18h3.584v2.115h-3.584v2.31h4.747v2.082h-7.25V577.011z"/>
		<path fill="#020102" d="M-117.244,577.011h4.004c2.777,0,4.037,1.47,4.037,3.391c0,1.275-0.582,2.31-1.663,2.906l2.922,4.473
			h-2.971l-2.406-3.794h-1.421v3.794h-2.503L-117.244,577.011L-117.244,577.011z M-113.853,581.921c1.663,0,2.05-0.63,2.05-1.454
			c0-0.823-0.436-1.372-1.824-1.372h-1.114v2.826H-113.853z"/>
		<path fill="#020102" d="M-106.426,577.011h2.503v8.687h4.698v2.083h-7.201V577.011L-106.426,577.011z"/>
		<path fill="#020102" d="M-97.448,577.011h2.502v10.77h-2.502V577.011z"/>
		<path fill="#020102" d="M-92.62,577.011h2.535l4.65,6.895v-6.895h2.454v10.77h-2.567l-4.618-6.895v6.895h-2.454L-92.62,577.011
			L-92.62,577.011z"/>
	</g>
	<g>
		<path fill="#020102" d="M-135.794,561.516h1.906l3.245,8.896l3.293-8.896h1.906l0.388,10.77h-1.292l-0.339-9.155l-3.455,9.155
			h-1.001l-3.455-9.269l-0.291,9.269h-1.292L-135.794,561.516z"/>
		<path fill="#020102" d="M-122.214,561.516h1.324v6.636c0,2.26,1.324,3.181,3.052,3.181c1.727,0,3.035-0.953,3.035-3.084v-6.732
			h1.324v6.668c0,2.81-1.969,4.295-4.375,4.295c-2.406,0-4.359-1.13-4.359-4.069V561.516L-122.214,561.516z"/>
		<path fill="#020102" d="M-110.733,570.332c0,0,1.243,0.969,2.81,0.969c1.163,0,2.147-0.533,2.147-1.566
			c0-2.453-5.118-2.309-5.118-5.603c0-1.566,1.259-2.81,3.504-2.81c1.421,0,2.745,0.484,2.745,0.484l-0.339,1.243
			c0,0-1.195-0.549-2.454-0.549c-1.195,0-2.115,0.5-2.115,1.485c0,2.502,5.118,2.228,5.118,5.651c0,1.872-1.599,2.842-3.536,2.842
			c-1.873,0-3.116-0.904-3.116-0.904L-110.733,570.332z"/>
		<path fill="#020102" d="M-101.69,561.516h6.345v1.113h-5.021v3.601h3.972v1.114h-3.972v3.827h5.005v1.113h-6.329L-101.69,561.516
			L-101.69,561.516z"/>
		<path fill="#020102" d="M-92.615,561.516h1.324v6.636c0,2.26,1.324,3.181,3.052,3.181c1.727,0,3.036-0.953,3.036-3.084v-6.732
			h1.324v6.668c0,2.81-1.97,4.295-4.375,4.295s-4.359-1.13-4.359-4.069V561.516z"/>
		<path fill="#020102" d="M-80.779,561.516h1.905l3.246,8.896l3.293-8.896h1.905l0.388,10.77h-1.292l-0.339-9.155l-3.455,9.155
			h-1.001l-3.456-9.269l-0.29,9.269h-1.292L-80.779,561.516z"/>
		<path fill="#020102" d="M-67.167,570.332c0,0,1.244,0.969,2.81,0.969c1.163,0,2.147-0.533,2.147-1.566
			c0-2.453-5.118-2.309-5.118-5.603c0-1.566,1.26-2.81,3.504-2.81c1.42,0,2.745,0.484,2.745,0.484l-0.339,1.243
			c0,0-1.195-0.549-2.455-0.549c-1.195,0-2.115,0.5-2.115,1.485c0,2.502,5.118,2.228,5.118,5.651c0,1.872-1.598,2.842-3.536,2.842
			c-1.873,0-3.116-0.904-3.116-0.904L-67.167,570.332z"/>
		<path fill="#020102" d="M-58.156,561.516h3.116c2.778,0,3.843,1.469,3.843,3.181c0,2.18-1.582,3.455-3.843,3.455h-1.792v4.134
			h-1.324V561.516z M-55.282,567.038c1.824,0,2.664-0.84,2.664-2.229c0-1.21-0.694-2.18-2.664-2.18h-1.55v4.408H-55.282z"/>
		<path fill="#020102" d="M-43.478,561.322c3.358,0,5.538,2.39,5.538,5.377c0,3.035-2.277,5.78-5.684,5.78
			c-3.31,0-5.538-2.567-5.538-5.555C-49.162,564.067-47.095,561.322-43.478,561.322z M-43.575,571.333
			c2.664,0,4.214-2.293,4.214-4.504c0-2.213-1.501-4.359-4.198-4.359c-2.68,0-4.182,2.195-4.182,4.359
			C-47.741,568.975-46.255,571.333-43.575,571.333z"/>
		<path fill="#020102" d="M-35.355,561.516h2.826c2.777,0,3.843,1.421,3.843,2.938c0,1.566-1.163,2.551-2.229,3.02l3.262,4.812
			h-1.566l-3.084-4.537h-1.728v4.537h-1.324V561.516L-35.355,561.516z M-32.336,566.635c1.034,0,2.229-0.71,2.229-2.051
			c0-1.017-0.694-1.954-2.664-1.954h-1.259v4.005H-32.336z"/>
		<path fill="#020102" d="M-23.034,562.63h-3.811v-1.113h9.009v1.113h-3.875v9.656h-1.324V562.63z"/>
		<path fill="#020102" d="M-13.701,561.435h1.276l4.133,10.851h-1.389l-1.211-3.246h-4.392l-1.21,3.246h-1.341L-13.701,561.435z
			 M-14.864,567.927h3.552l-1.776-4.747L-14.864,567.927z"/>
		<path fill="#020102" d="M-6.096,561.516h1.324v9.655h5.167v1.114h-6.491V561.516z"/>
	</g>
</g>
</svg>
