<svg version="1" xmlns="http://www.w3.org/2000/svg" width="346.667" height="346.667" viewBox="0 0 260.000000 260.000000"><path d="M148.3 46.1c-.1 13.2-.3 24.2-.6 24.5-.4.5-14.4-4.3-23.9-8.1-1.5-.6-1.6.8-1.3 17.8l.4 18.6-4.2 1.4c-2.3.8-5 1.8-5.9 2.2-1.7.7-1.8-1-1.8-27.9 0-15.7-.3-28.6-.7-28.6-.9 0-62.5 31-63.6 32-.4.4-.1 3.8.7 7.6.8 3.8 4.7 23.3 8.6 43.4 11.6 59.4 19 96.3 19.3 96.5.1.1 8.1 4.7 17.7 10.2l17.5 10.1.3-17.4c.1-9.6.4-17.4.6-17.4.6 0 14.1 7.3 15.1 8.1 3 2.8 3.4 1.1 3.9-17.4.1-4 .6-5.2 2.6-6.7 2.8-2 13.6-8 14.4-8 .3 0 .5 7.7.5 17.1 0 9.4.2 17.3.4 17.6.3.2 5.1-2.3 10.7-5.6 5.6-3.4 10.3-6.1 10.5-6.1.2 0 3.5-1.8 7.4-4.1 6.8-3.9 7-4.1 8.1-9.2.5-2.9 1.3-6.3 1.6-7.7.3-1.4.7-3.6 1-5 .7-3.7 4.3-22.1 4.9-25 .3-1.4.7-3.6 1-5 .3-2.2 4.1-21.2 4.9-25 .2-.8 1.3-6.5 2.5-12.5 1.1-6.1 2.3-11.9 2.5-13 4.6-22.7 8.9-44.6 9.1-46.6.4-2.6-.9-3.3-31.5-18.8-17.6-8.9-32.1-16.1-32.3-16.1-.2 0-.4 10.8-.4 24.1z"/></svg>