<?xml version="1.0" standalone="no"?>
<!DOCTYPE svg PUBLIC "-//W3C//DTD SVG 1.1//EN" "http://www.w3.org/Graphics/SVG/1.1/DTD/svg11.dtd" >
<svg>
<metadata>
Created by FontForge 20110222 at Tue Sep 24 13:56:36 2013
 By Orthosie Webhosting
Thomas Helbig 2013
</metadata>
<defs>
<font id="DingRegular" horiz-adv-x="1200" >
  <font-face 
    font-family="DingRegular"
    font-weight="400"
    font-stretch="normal"
    units-per-em="1000"
    panose-1="0 0 5 0 0 0 0 0 0 0"
    ascent="800"
    descent="-200"
    bbox="-400 -200 1600 1400"
    underline-thickness="50"
    underline-position="-50"
    unicode-range="U+0020-1F527"
  />
<missing-glyph horiz-adv-x="500" 
d="M0 0v700h500v-700h-500zM250 395l170 255h-340zM280 350l170 -255v510zM80 50h340l-170 255zM50 605v-510l170 255z" />
    <glyph glyph-name=".notdef" horiz-adv-x="500" 
d="M0 0v700h500v-700h-500zM250 395l170 255h-340zM280 350l170 -255v510zM80 50h340l-170 255zM50 605v-510l170 255z" />
    <glyph glyph-name=".null" horiz-adv-x="0" 
 />
    <glyph glyph-name="nonmarkingreturn" horiz-adv-x="333" 
 />
    <glyph glyph-name="space" unicode=" " horiz-adv-x="600" 
 />
    <glyph glyph-name="plus" unicode="+" 
d="M700 700h250q38 0 44 -6t6 -44v-200q0 -38 -6 -44t-44 -6h-250v-250q0 -38 -6 -44t-44 -6h-200q-38 0 -44 6t-6 44v250h-250q-38 0 -44 6t-6 44v200q0 38 6 44t44 6h250v250q0 38 6 44t44 6h200q38 0 44 -6t6 -44v-250z" />
    <glyph glyph-name="hyphen" unicode="-" horiz-adv-x="600" 
 />
    <glyph glyph-name="copyright" unicode="&#xa9;" 
d="M600 0q163 0 301 80.5t218.5 218.5t80.5 301t-80.5 301t-218.5 218.5t-301 80.5t-301 -80.5t-218.5 -218.5t-80.5 -301t80.5 -301t218.5 -218.5t301 -80.5zM600 125q-206 0 -340.5 134.5t-134.5 340.5t134.5 340.5t340.5 134.5t340.5 -134.5t134.5 -340.5t-134.5 -340.5
t-340.5 -134.5zM600 760q87 0 139 -94l134 62q-96 172 -272 172q-126 0 -212 -86.5t-86 -212.5q0 -125 87 -213t211 -88q174 0 272 168l-135 63q-28 -50 -61 -70.5t-77 -20.5q-62 0 -105.5 47t-43.5 114t43 113t106 46z" />
    <glyph glyph-name="registered" unicode="&#xae;" 
d="M600 1200q163 0 301 -80.5t218.5 -218.5t80.5 -301t-80.5 -301t-218.5 -218.5t-301 -80.5t-301 80.5t-218.5 218.5t-80.5 301t80.5 301t218.5 218.5t301 80.5zM600 125q206 0 340.5 134.5t134.5 340.5t-134.5 340.5t-340.5 134.5t-340.5 -134.5t-134.5 -340.5
t134.5 -340.5t340.5 -134.5zM400 900h200q67 0 120.5 -21.5t84.5 -56.5t46 -79t11 -88.5t-27.5 -86t-63.5 -69.5l79 -199h-150l-61 152q-19 -2 -39 -2h-50v-150h-150v600zM550 600h50q36 0 62 11t38 28t12 36t-12 36t-38 28t-62 11h-50v-150z" />
    <glyph glyph-name="Euro" unicode="&#x20ac;" 
d="M900 600h-406q0 54 6 100h300l100 100h-379q18 60 49.5 105.5t66.5 68.5q65 42 115 42q64 0 142 -49q40 -25 64.5 -69.5t24.5 -97.5h181q-6 105 -66 209q-112 189 -354 189q-87 0 -157.5 -30t-119 -85.5t-81 -125.5t-51.5 -157h-135l-100 -100h218q-5 -58 -5 -100h-113
l-100 -100h217q11 -112 42.5 -199.5t71.5 -137.5q119 -158 324 -158q162 0 266 108t136 287h-174q0 -52 -24.5 -95.5t-64.5 -68.5q-80 -50 -141 -50q-19 0 -46 8q-66 19 -121 83q-30 35 -53.5 93.5t-32.5 129.5h300z" />
    <glyph glyph-name="minus" unicode="&#x2212;" 
d="M100 650v-200q0 -38 6 -44t44 -6h800q38 0 44 6t6 44v200q0 38 -6 44t-44 6h-800q-38 0 -44 -6t-6 -44z" />
    <glyph glyph-name="uni231B" unicode="&#x231b;" 
d="M1000 1200v-175q0 -65 -25.5 -120.5t-79.5 -125.5q-33 -41 -45 -57.5t-27 -52t-15 -69.5t15 -69.5t27 -52t45 -57.5q54 -70 79.5 -125.5t25.5 -120.5v-175h-800v175q0 65 25.5 120.5t79.5 125.5q33 41 45 57.5t27 52t15 69.5t-15 69.5t-27 52t-45 57.5
q-54 70 -79.5 125.5t-25.5 120.5v175h800zM635 662v-262q0 -56 31 -98.5t70 -64t89 -51t75 -56.5v45q0 31 -13 62.5t-28 52.5t-49 64q-37 47 -54 71.5t-36.5 74t-19.5 100.5t19.5 100.5t36.5 74t54 71.5q34 43 49 64t28 52.5t13 62.5v75h-599v-75q0 -45 20 -81.5t69 -97.5
q29 -37 40 -52.5t32 -50.5t29.5 -69.5t8.5 -73.5q0 -51 -19.5 -100.5t-36.5 -74t-54 -71.5q-34 -43 -49 -64t-28 -52.5t-13 -62.5v-45q25 27 75 56.5t89 51t70 64t31 98.5v261q0 55 -21.5 107t-47 83.5t-47 63t-21.5 49.5h344q0 -15 -14 -37t-34 -48t-40 -56.5t-34.5 -73
t-14.5 -87.5z" />
    <glyph glyph-name="uni2601" unicode="&#x2601;" 
d="M900 300h-650q-104 0 -177 73t-73 177q0 76 41.5 138.5t109.5 91.5q12 135 112 227.5t237 92.5q106 0 193 -58t128 -152q39 10 79 10q124 0 212 -88t88 -212t-88 -212t-212 -88zM250 425h650q72 0 123.5 51.5t51.5 123.5t-51.5 123.5t-123.5 51.5q-37 0 -58.5 -5
t-116.5 -35q5 99 -62 169.5t-163 70.5q-55 0 -103.5 -25.5t-78.5 -67.5t-40.5 -97t11.5 -113q-66 15 -115 -23t-49 -99q0 -52 36.5 -88.5t88.5 -36.5z" />
    <glyph glyph-name="uni2602" unicode="&#x2602;" 
d="M1200 650q-93 -68 -238.5 -106t-311.5 -43v-401q0 -90 -60 -145t-140 -55t-140 55t-60 145v50q0 24 25 33.5t50 0t25 -33.5v-50q0 -52 29 -76t71.5 -24t71 24t28.5 76v401q-166 5 -311.5 43t-238.5 106q0 105 29 193.5t79.5 151.5t121.5 108t153.5 68.5t176.5 27.5l15 76
h50l15 -76q94 -4 176.5 -27.5t153.5 -68.5t121.5 -108t79.5 -151.5t29 -193.5z" />
    <glyph glyph-name="uni2638" unicode="&#x2638;" 
d="M1195 675h55q38 0 44 -6.5t6 -43.5v-50q0 -37 -6 -43.5t-44 -6.5h-55q-20 -163 -121 -293l39 -39q26 -26 26 -35t-26 -35l-36 -36q-26 -26 -35 -26t-35 26l-39 39q-130 -101 -293 -121v-55q0 -38 -6.5 -44t-43.5 -6h-50q-38 0 -44 6t-6 44v55q-163 20 -293 121l-39 -39
q-26 -26 -35 -26t-35 26l-36 36q-26 26 -26 35t26 35l39 39q-101 130 -121 293h-55q-38 0 -44 6.5t-6 43.5v50q0 37 6 43.5t44 6.5h55q20 163 121 293l-39 39q-26 26 -26 35t26 35l36 36q26 26 35 26t35 -26l39 -39q130 101 293 121v55q0 38 6 44t44 6h50q37 0 43.5 -6
t6.5 -44v-55q163 -20 293 -121l39 39q26 26 35 26t35 -26l36 -36q26 -26 26 -35t-26 -35l-39 -39q101 -130 121 -293zM525 781v289q-117 -16 -208 -81zM675 781l208 208q-91 65 -208 81v-289zM781 675h289q-16 117 -81 208zM419 675l-208 208q-65 -91 -81 -208h289zM419 525
h-289q16 -117 81 -208zM781 525l208 -208q65 91 81 208h-289zM525 419l-208 -208q91 -65 208 -81v289zM675 419v-289q117 16 208 81z" />
    <glyph glyph-name="heartsuitblack" unicode="&#x2665;" 
d="M600 0l-265 263q-23 22 -68 66.5t-63 62.5t-52 53.5t-47 53t-36 48.5t-31.5 53t-19.5 52.5t-14.5 60.5t-3.5 64q0 131 88.5 227t210.5 96q87 0 165 -47t136 -136q58 89 136 136t165 47q123 0 211 -96t88 -227q0 -34 -3.5 -64t-14.5 -60.5t-19.5 -52.5t-31.5 -53
t-36 -48.5t-47 -53t-52 -53.5t-63 -62.5t-68 -66.5z" />
    <glyph glyph-name="uni2690" unicode="&#x2690;" 
d="M1200 500h-1000v-450q0 -38 -6 -44t-44 -6t-44 6t-6 44v500v600q0 38 6 44t44 6h1050l-200 -350zM200 600h825l-150 250l150 250h-825v-500z" />
    <glyph glyph-name="uni2691" unicode="&#x2691;" 
d="M1200 500h-1000v-450q0 -38 -6 -44t-44 -6t-44 6t-6 44v1100q0 38 6 44t44 6h1050l-200 -350z" />
    <glyph glyph-name="uni2694" unicode="&#x2694;" horiz-adv-x="600" 
 />
    <glyph glyph-name="uni2702" unicode="&#x2702;" horiz-adv-x="600" 
 />
    <glyph glyph-name="uni2708" unicode="&#x2708;" 
d="M700 750v350q0 38 -31 84.5t-69 65.5q-38 -19 -69 -65.5t-31 -84.5v-350l-500 -275v-100l500 100v-375l-75 -75v-100l175 75l175 -75v100l-75 75v375l500 -100v100z" />
    <glyph glyph-name="uni2709" unicode="&#x2709;" 
d="M0 1000h1200l-600 -500zM1200 100h-1200v750l600 -500l600 500v-750z" />
    <glyph glyph-name="uni270F" unicode="&#x270f;" 
d="M1161 878l-725 -725l-336 -53l53 336l725 725zM277 383l-18 -124l124 18l601 601l-106 106z" />
    <glyph glyph-name="uni2747" unicode="&#x2747;" 
d="M650 550q-10 -29 -14 -41.5t-11 -30t-9 -23.5t-8 -12t-8 -6t-8 6t-8 12t-9 23.5t-11 30t-14 41.5q-29 10 -41.5 14t-30 11t-23.5 9t-12 8t-6 8t6 8t12 8t23.5 9t30 11t41.5 14q10 29 14 41.5t11 30t9 23.5t8 12t8 6t8 -6t8 -12t9 -23.5t11 -30t14 -41.5q29 -10 41.5 -14
t30 -11t23.5 -9t12 -8t6 -8t-6 -8t-12 -8t-23.5 -9t-30 -11t-41.5 -14z" />
    <glyph glyph-name="uniE000" unicode="&#xe000;" 
d="M500 250v800q0 38 -6 44t-44 6h-300q-38 0 -44 -6t-6 -44v-800q0 -38 6 -44t44 -6h300q38 0 44 6t6 44zM1000 250v500q0 38 -6 44t-44 6h-300q-38 0 -44 -6t-6 -44v-500q0 -38 6 -44t44 -6h300q38 0 44 6t6 44zM700 700h200v-400h-200v400zM50 0h1000q38 0 44 6t6 44
t-6 44t-44 6h-1000q-38 0 -44 -6t-6 -44t6 -44t44 -6z" />
    <glyph glyph-name="uniE001" unicode="&#xe001;" 
d="M650 500h350q38 0 44 -6t6 -44v-300q0 -38 -6 -44t-44 -6h-350v-50q0 -38 -6 -44t-44 -6t-44 6t-6 44v50h-350q-38 0 -44 6t-6 44v300q0 38 6 44t44 6h350v100h-200q-38 0 -44 6t-6 44v300q0 38 6 44t44 6h200v50q0 38 6 44t44 6t44 -6t6 -44v-50h200q38 0 44 -6t6 -44
v-300q0 -38 -6 -44t-44 -6h-200v-100zM400 700h400v200h-400v-200z" />
    <glyph glyph-name="uniE002" unicode="&#xe002;" 
d="M1000 650h50q38 0 44 -6t6 -44t-6 -44t-44 -6h-50v-200q0 -38 -6 -44t-44 -6h-300q-38 0 -44 6t-6 44v200h-100v-350q0 -38 -6 -44t-44 -6h-300q-38 0 -44 6t-6 44v350h-50q-38 0 -44 6t-6 44t6 44t44 6h50v350q0 38 6 44t44 6h300q38 0 44 -6t6 -44v-350h100v200
q0 38 6 44t44 6h300q38 0 44 -6t6 -44v-200zM900 800h-200v-400h200v400z" />
    <glyph glyph-name="uniE003" unicode="&#xe003;" 
d="M0 1050v-1000q0 -38 6 -44t44 -6t44 6t6 44v1000q0 38 -6 44t-44 6t-44 -6t-6 -44zM750 1000h-500q-38 0 -44 -6t-6 -44v-300q0 -38 6 -44t44 -6h500q38 0 44 6t6 44v300q0 38 -6 44t-44 6zM300 900h400v-200h-400v200zM1050 500h-800q-38 0 -44 -6t-6 -44v-300
q0 -38 6 -44t44 -6h800q38 0 44 6t6 44v300q0 38 -6 44t-44 6z" />
    <glyph glyph-name="uniE004" unicode="&#xe004;" 
d="M1100 50v1000q0 38 -6 44t-44 6t-44 -6t-6 -44v-1000q0 -38 6 -44t44 -6t44 6t6 44zM850 1000h-500q-38 0 -44 -6t-6 -44v-300q0 -38 6 -44t44 -6h500q38 0 44 6t6 44v300q0 38 -6 44t-44 6zM400 700v200h400v-200h-400zM850 500h-800q-38 0 -44 -6t-6 -44v-300
q0 -38 6 -44t44 -6h800q38 0 44 6t6 44v300q0 38 -6 44t-44 6z" />
    <glyph glyph-name="uniE005" unicode="&#xe005;" 
d="M300 1150v-50q0 -38 -6 -44t-44 -6t-44 6t-6 44v50q0 38 6 44t44 6t44 -6t6 -44zM900 1100v50q0 38 6 44t44 6t44 -6t6 -44v-50q0 -38 -6 -44t-44 -6t-44 6t-6 44zM50 1000h50q38 0 44 -6t6 -44t-6 -44t-44 -6h-50q-38 0 -44 6t-6 44t6 44t44 6zM250 1000h700q38 0 44 -6
t6 -44v-700q0 -38 -6 -44t-44 -6h-700q-38 0 -44 6t-6 44v700q0 38 6 44t44 6zM1100 1000h50q38 0 44 -6t6 -44t-6 -44t-44 -6h-50q-38 0 -44 6t-6 44t6 44t44 6zM300 900v-600h600v600h-600zM500 750l100 150l100 -150h-200zM450 500l-150 100l150 100v-200zM900 600
l-150 -100v200zM600 300l-100 150h200zM100 200h-50q-38 0 -44 6t-6 44t6 44t44 6h50q38 0 44 -6t6 -44t-6 -44t-44 -6zM1150 200h-50q-38 0 -44 6t-6 44t6 44t44 6h50q38 0 44 -6t6 -44t-6 -44t-44 -6zM300 100v-50q0 -38 -6 -44t-44 -6t-44 6t-6 44v50q0 38 6 44t44 6
t44 -6t6 -44zM900 50v50q0 38 6 44t44 6t44 -6t6 -44v-50q0 -38 -6 -44t-44 -6t-44 6t-6 44z" />
    <glyph glyph-name="uniE006" unicode="&#xe006;" 
d="M1050 1100h-1000q-38 0 -44 -6t-6 -44t6 -44t44 -6h1000q38 0 44 6t6 44t-6 44t-44 6zM500 50v800q0 38 -6 44t-44 6h-300q-38 0 -44 -6t-6 -44v-800q0 -38 6 -44t44 -6h300q38 0 44 6t6 44zM1000 350v500q0 38 -6 44t-44 6h-300q-38 0 -44 -6t-6 -44v-500q0 -38 6 -44
t44 -6h300q38 0 44 6t6 44zM900 800v-400h-200v400h200z" />
    <glyph glyph-name="uniE007" unicode="&#xe007;" 
d="M1018 157l-97 100q100 90 137 214.5t5 251t-128 221.5q-92 91 -213.5 123.5t-243 0.5t-213.5 -123q-95 -96 -127.5 -222.5t4.5 -251t137 -214.5l-97 -100q-95 86 -145.5 202.5t-52 236t45 238.5t136.5 210q117 116 275.5 157t317 -0.5t275.5 -157.5q91 -91 137 -209.5
t44.5 -238t-52 -236t-145.5 -202.5zM462 457l-105 -93q-65 64 -88 153.5t0 178.5t87 153t154 87t180 0t154 -87t87 -153t0 -178.5t-88 -153.5l-105 94q65 60 66.5 145.5t-59.5 146.5q-59 59 -145 59t-145 -59q-61 -61 -59.5 -146.5t66.5 -146.5zM530 -20v614q0 34 22 53.5
t48 19.5t48 -19.5t22 -53.5v-614h-140z" />
    <glyph glyph-name="uniE008" unicode="&#xe008;" 
d="M1150 0h-1100q-38 0 -44 6t-6 44v1000q0 38 6 44t44 6h1100q38 0 44 -6t6 -44v-1000q0 -38 -6 -44t-44 -6zM100 900h100v100h-100v-100zM300 900h800v100h-800v-100zM100 100h1000v700h-1000v-700z" />
    <glyph glyph-name="uniE009" unicode="&#xe009;" 
d="M1000 1050v-1000q0 -38 -6 -44t-44 -6h-700q-38 0 -44 6t-6 44v1000q0 38 6 44t44 6h200v50q0 38 6 44t44 6h200q38 0 44 -6t6 -44v-50h200q38 0 44 -6t6 -44zM900 100v900h-600v-900h600zM850 450v-300h-500v300h500z" />
    <glyph glyph-name="uniE00A" unicode="&#xe00a;" 
d="M450 550v500q0 38 6 44t44 6h200q38 0 44 -6t6 -44v-500h250l-400 -500l-400 500h250z" />
    <glyph glyph-name="uniE00B" unicode="&#xe00b;" 
d="M950 500l250 -200l-250 -200v100h-50q-61 0 -115.5 16.5t-96 43t-79.5 58.5t-73.5 64t-70.5 58.5t-77.5 43t-87.5 16.5h-250q-38 0 -44 6.5t-6 43.5v100q0 38 6 44t44 6h250q45 0 87.5 16.5t77.5 43t70.5 58.5t73.5 64t79.5 58.5t96 43t115.5 16.5h50v100l250 -200
l-250 -200v100h-70q-43 0 -86 -20.5t-72 -45t-76 -68t-77 -66.5q30 -23 77 -66.5t76 -68t72 -45t86 -20.5h70v100z" />
    <glyph glyph-name="uniE00C" unicode="&#xe00c;" 
d="M900 900l350 -300l-350 -300v200h-600v-200l-350 300l350 300v-200h600v200z" />
    <glyph glyph-name="uniE00D" unicode="&#xe00d;" 
d="M500 700h500q38 0 44 -6t6 -44v-200q0 -38 -6 -44t-44 -6h-500v-250l-500 400l500 400v-250z" />
    <glyph glyph-name="uniE00E" unicode="&#xe00e;" 
d="M200 500v450q0 38 6 44t44 6h800q38 0 44 -6t6 -44v-100q0 -38 -6 -44t-44 -6h-650v-300h200l-300 -325l-300 325h200z" />
    <glyph glyph-name="uniE00F" unicode="&#xe00f;" 
d="M224 649h826q38 0 44 -6.5t6 -44t-6 -43.5t-44 -6h-824l126 -126q27 -27 27 -35.5t-26.5 -35t-35.5 -26.5t-36 26l-206 206l-6 6q-26 27 -26 36t26 35l6 6l206 206q27 27 36 27t35.5 -26.5t26.5 -35.5t-27 -36z" />
    <glyph glyph-name="uniE010" unicode="&#xe010;" 
d="M300 1125l300 -325h-200v-300h650q38 0 44 -6t6 -44v-100q0 -38 -6 -44t-44 -6h-800q-38 0 -44 6t-6 44v450h-200z" />
    <glyph glyph-name="uniE011" unicode="&#xe011;" 
d="M900 350v150h-140q-16 0 -30.5 -3t-30.5 -11t-27.5 -14t-30.5 -22t-29.5 -25t-35.5 -31t-38 -33q-37 -33 -71.5 -57t-82.5 -50t-105 -40t-119 -14h-160v200h160q73 0 127 27t119 84q11 9 30.5 27t37 33.5t34.5 28.5q-17 13 -34.5 28.5t-37 33.5t-30.5 27q-65 57 -119 84
t-127 27h-160v200h160q62 0 119 -14t105 -40t82.5 -50t71.5 -57q13 -11 38 -33t35.5 -31t29.5 -25t30.5 -22t27.5 -14t30.5 -11t30.5 -3h140v150l300 -250z" />
    <glyph glyph-name="uniE012" unicode="&#xe012;" 
d="M700 400h-500q-38 0 -44 6t-6 44v200q0 38 6 44t44 6h500v250l500 -400l-500 -400v250z" />
    <glyph glyph-name="uniE013" unicode="&#xe013;" 
d="M900 175l-300 325h200v300h-650q-38 0 -44 6t-6 44v100q0 38 6 44t44 6h800q38 0 44 -6t6 -44v-450h200z" />
    <glyph glyph-name="uniE014" unicode="&#xe014;" 
d="M1125 641l6 -6q26 -26 26 -35t-26 -36l-6 -6l-206 -206q-27 -26 -35.5 -26t-35 26.5t-26.5 35t26 35.5l126 126h-824q-38 0 -44 6t-6 43.5t6 44t44 6.5h826l-128 127q-26 27 -26 36t26.5 35.5t35 26.5t35.5 -27z" />
    <glyph glyph-name="uniE015" unicode="&#xe015;" 
d="M1000 800v-450q0 -38 -6 -44t-44 -6h-800q-38 0 -44 6t-6 44v100q0 38 6 44t44 6h650v300h-200l300 325l300 -325h-200z" />
    <glyph glyph-name="uniE016" unicode="&#xe016;" 
d="M525 400v650q0 38 6.5 44t43.5 6h50q37 0 43.5 -6t6.5 -44v-650h200l-275 -325l-275 325h200z" />
    <glyph glyph-name="uniE017" unicode="&#xe017;" 
d="M75 600l325 275v-200h650q38 0 44 -6.5t6 -43.5v-50q0 -37 -6 -43.5t-44 -6.5h-650v-200z" />
    <glyph glyph-name="uniE018" unicode="&#xe018;" 
d="M800 525h-650q-38 0 -44 6.5t-6 43.5v50q0 37 6 43.5t44 6.5h650v200l325 -275l-325 -275v200z" />
    <glyph glyph-name="uniE019" unicode="&#xe019;" 
d="M150 600q0 -92 35 -174t97 -144l-106 -106q-83 83 -129.5 192.5t-46.5 231.5t48.5 233t129.5 191.5t191.5 128t230.5 47.5h100v125l200 -200l-200 -200v125h-100q-122 0 -226 -60t-164 -164t-60 -226zM918 918l106 106q83 -82 129.5 -192t46.5 -232q0 -163 -80.5 -301
t-218.5 -218.5t-301 -80.5h-100v-125l-200 200l200 200v-125h100q122 0 225.5 60t164 164t60.5 226q0 91 -35 173.5t-97 144.5z" />
    <glyph glyph-name="uniE01A" unicode="&#xe01a;" 
d="M1325 500l-200 -200l-200 200h125v100q0 123 -60 226.5t-163.5 163.5t-226.5 60q-88 0 -165.5 -32t-159.5 -93l-100 100q79 79 189 127t236 48q120 0 230.5 -48.5t191.5 -129.5t129.5 -191.5t48.5 -230.5v-100h125zM600 150q88 0 165.5 32t159.5 93l100 -100
q-79 -79 -189 -127t-236 -48q-120 0 -230.5 48.5t-191.5 129.5t-129.5 191.5t-48.5 230.5v100h-125l200 200l200 -200h-125v-100q0 -123 60 -226.5t163.5 -163.5t226.5 -60z" />
    <glyph glyph-name="uniE01B" unicode="&#xe01b;" 
d="M600 1125l275 -325h-200v-650q0 -38 -6.5 -44t-43.5 -6h-50q-37 0 -43.5 6t-6.5 44v650h-200z" />
    <glyph glyph-name="uniE01C" unicode="&#xe01c;" 
d="M750 650v-500q0 -38 -6 -44t-44 -6h-200q-38 0 -44 6t-6 44v500h-250l400 500l400 -500h-250z" />
    <glyph glyph-name="uniE01D" unicode="&#xe01d;" 
d="M635 1131l213 -212q26 -26 26 -35t-26.5 -35.5t-35.5 -26.5t-35 26l-128 128v-826q0 -38 -6 -44t-43.5 -6t-44 6t-6.5 44v824l-126 -126q-26 -26 -35 -26t-35.5 26.5t-26.5 35.5t27 35l212 212q26 27 35 27t35 -27z" />
    <glyph glyph-name="uniE01E" unicode="&#xe01e;" 
d="M900 300l-300 -350l-300 350h200v600h-200l300 350l300 -350h-200v-600h200z" />
    <glyph glyph-name="uniE01F" unicode="&#xe01f;" 
d="M1250 900l-350 -300v200h-850q-38 0 -44 6t-6 44v100q0 38 6 44t44 6h850v200zM-50 300l350 300v-200h850q38 0 44 -6t6 -44v-100q0 -38 -6 -44t-44 -6h-850v-200z" />
    <glyph glyph-name="uniE020" unicode="&#xe020;" 
d="M500 950v195q0 41 6 48t44 7h100q38 0 44 -7t6 -48v-195h125l-225 -225l-225 225h125zM250 500h-196q-40 0 -47 6t-7 44v100q0 38 7 44t47 6h196v125l225 -225l-225 -225v125zM950 700h195q41 0 48 -6t7 -44v-100q0 -38 -7 -44t-48 -6h-195v-125l-225 225l225 225v-125z
M700 250v-196q0 -40 -6 -47t-44 -7h-100q-38 0 -44 7t-6 47v196h-125l225 225l225 -225h-125z" />
    <glyph glyph-name="uniE021" unicode="&#xe021;" 
d="M700 1004v-150q0 -40 -6 -47t-44 -7h-100q-38 0 -44 7t-6 47v150h-125l225 210l225 -210h-125zM198 700h150q41 0 48 -6t7 -44v-100q0 -38 -7 -44t-48 -6h-150v-125l-210 225l210 225v-125zM1002 500h-150q-40 0 -47 6t-7 44v100q0 38 7 44t47 6h150v125l210 -225
l-210 -225v125zM500 197v148q0 41 6 48t44 7h100q38 0 44 -7t6 -48v-148h125l-225 -212l-225 212h125z" />
    <glyph glyph-name="uniE022" unicode="&#xe022;" 
d="M400 950h650q38 0 44 -6t6 -44v-50q0 -38 -6 -44t-44 -6h-650v-200l-325 275l325 275v-200zM1125 325l-325 -275v200h-650q-38 0 -44 6t-6 44v50q0 38 6 44t44 6h650v200z" />
    <glyph glyph-name="uniE023" unicode="&#xe023;" 
d="M875 1125l275 -325h-200v-650q0 -38 -6 -44t-44 -6h-50q-38 0 -44 6t-6 44v650h-200zM250 400v650q0 38 6 44t44 6h50q38 0 44 -6t6 -44v-650h200l-275 -325l-275 325h200z" />
    <glyph glyph-name="uniE024" unicode="&#xe024;" 
d="M1000 900v-850q0 -38 -6 -44t-44 -6h-100q-38 0 -44 6t-6 44v850h-200l300 350l300 -350h-200zM200 300v850q0 38 6 44t44 6h100q38 0 44 -6t6 -44v-850h200l-300 -350l-300 350h200z" />
    <glyph glyph-name="uniE025" unicode="&#xe025;" 
d="M1200 0l-500 500v-500l-600 600l600 600v-500l500 500v-1200z" />
    <glyph glyph-name="uniE026" unicode="&#xe026;" 
d="M100 1100h-100q-38 0 -44 -6t-6 -44v-900q0 -38 6 -44t44 -6h100q38 0 44 6t6 44v900q0 38 -6 44t-44 6zM350 150v900q0 38 -6 44t-44 6t-44 -6t-6 -44v-900q0 -38 6 -44t44 -6t44 6t6 44zM550 150v900q0 38 -6 44t-44 6t-44 -6t-6 -44v-900q0 -38 6 -44t44 -6t44 6t6 44
zM900 1100h-200q-38 0 -44 -6t-6 -44v-900q0 -38 6 -44t44 -6h200q38 0 44 6t6 44v900q0 38 -6 44t-44 6zM1200 1100h-100q-38 0 -44 -6t-6 -44v-900q0 -38 6 -44t44 -6h100q38 0 44 6t6 44v900q0 38 -6 44t-44 6z" />
    <glyph glyph-name="uniE027" unicode="&#xe027;" 
d="M1000 1050v-1000q0 -38 -6 -44t-44 -6h-700q-38 0 -44 6t-6 44v1000q0 38 6 44t44 6h200v50q0 38 6 44t44 6h200q38 0 44 -6t6 -44v-50h200q38 0 44 -6t6 -44zM900 100v900h-600v-900h600z" />
    <glyph glyph-name="uniE028" unicode="&#xe028;" 
d="M1000 1050v-1000q0 -38 -6 -44t-44 -6h-700q-38 0 -44 6t-6 44v1000q0 38 6 44t44 6h200v50q0 38 6 44t44 6h200q38 0 44 -6t6 -44v-50h200q38 0 44 -6t6 -44zM900 100v900h-600v-900h600zM850 250v-100h-500v100h500z" />
    <glyph glyph-name="uniE029" unicode="&#xe029;" 
d="M1000 1050v-1000q0 -38 -6 -44t-44 -6h-700q-38 0 -44 6t-6 44v1000q0 38 6 44t44 6h200v50q0 38 6 44t44 6h200q38 0 44 -6t6 -44v-50h200q38 0 44 -6t6 -44zM900 100v900h-600v-900h600zM850 300v-150h-500v150h500z" />
    <glyph glyph-name="uniE02A" unicode="&#xe02a;" 
d="M1000 1050v-1000q0 -38 -6 -44t-44 -6h-700q-38 0 -44 6t-6 44v1000q0 38 6 44t44 6h200v50q0 38 6 44t44 6h200q38 0 44 -6t6 -44v-50h200q38 0 44 -6t6 -44zM900 100v900h-600v-900h600zM850 450v-300h-500v300h500z" />
    <glyph glyph-name="uniE02B" unicode="&#xe02b;" 
d="M1000 1050v-1000q0 -38 -6 -44t-44 -6h-700q-38 0 -44 6t-6 44v1000q0 38 6 44t44 6h200v50q0 38 6 44t44 6h200q38 0 44 -6t6 -44v-50h200q38 0 44 -6t6 -44zM900 100v900h-600v-900h600zM850 550v-400h-500v400h500z" />
    <glyph glyph-name="uniE02C" unicode="&#xe02c;" 
d="M1000 1050v-1000q0 -38 -6 -44t-44 -6h-700q-38 0 -44 6t-6 44v1000q0 38 6 44t44 6h200v50q0 38 6 44t44 6h200q38 0 44 -6t6 -44v-50h200q38 0 44 -6t6 -44zM900 100v900h-600v-900h600zM850 650v-500h-500v500h500z" />
    <glyph glyph-name="uniE02D" unicode="&#xe02d;" 
d="M1000 1050v-1000q0 -38 -6 -44t-44 -6h-700q-38 0 -44 6t-6 44v1000q0 38 6 44t44 6h200v50q0 38 6 44t44 6h200q38 0 44 -6t6 -44v-50h200q38 0 44 -6t6 -44zM900 100v900h-600v-900h600zM850 750v-600h-500v600h500z" />
    <glyph glyph-name="uniE02E" unicode="&#xe02e;" 
d="M1000 1050v-1000q0 -38 -6 -44t-44 -6h-700q-38 0 -44 6t-6 44v1000q0 38 6 44t44 6h200v50q0 38 6 44t44 6h200q38 0 44 -6t6 -44v-50h200q38 0 44 -6t6 -44zM900 100v900h-600v-900h600zM850 850v-700h-500v700h500z" />
    <glyph glyph-name="uniE02F" unicode="&#xe02f;" 
d="M1000 1050v-1000q0 -38 -6 -44t-44 -6h-700q-38 0 -44 6t-6 44v1000q0 38 6 44t44 6h200v50q0 38 6 44t44 6h200q38 0 44 -6t6 -44v-50h200q38 0 44 -6t6 -44zM900 100v900h-600v-900h600zM850 950v-800h-500v800h500z" />
    <glyph glyph-name="uniE030" unicode="&#xe030;" 
d="M750 1100h200q38 0 44 -6t6 -44v-1000q0 -38 -6 -44t-44 -6h-700q-38 0 -44 6t-6 44v1000q0 38 6 44t44 6h200v50q0 38 6 44t44 6h200q38 0 44 -6t6 -44v-50zM900 1000h-600v-900h600v900zM525 200v50q0 51 -19.5 96t-43 73t-43 63t-19.5 68v150h75v150q0 24 18.5 33.5
t37.5 0t19 -33.5v-150h100v150q0 24 19 33.5t37.5 0t18.5 -33.5v-150h75v-150q0 -33 -19.5 -68t-43 -63t-43 -73t-19.5 -96v-50h-150z" />
    <glyph glyph-name="uniE031" unicode="&#xe031;" 
d="M750 1200v-250q0 -52 25 -101l50 -98t25 -101v-650h-500v650q0 52 25 101l50 98t25 101v250h300zM547 900h106q-3 25 -3 200h-100q0 -175 -3 -200z" />
    <glyph glyph-name="uniE032" unicode="&#xe032;" 
d="M660 100h140q38 0 44 -6t6 -44t-6 -44t-44 -6h-400q-38 0 -44 6t-6 44t6 44t44 6h140v362l-469 738h1058l-469 -738v-362zM380 900h440l127 200h-694z" />
    <glyph glyph-name="uniE033" unicode="&#xe033;" 
d="M966 1200l14 -37q40 -95 40 -203q0 -179 -107.5 -314.5t-262.5 -160.5v-385h150q38 0 44 -6t6 -44t-6 -44t-44 -6h-400q-38 0 -44 6t-6 44t6 44t44 6h150v385q-155 25 -262.5 160.5t-107.5 314.5q0 108 40 203l14 37h732zM898 1100h-596q-22 -68 -22 -140q0 -44 7 -80
h626q7 36 7 80q0 72 -22 140z" />
    <glyph glyph-name="uniE034" unicode="&#xe034;" 
d="M1000 100v1000h-775q-43 0 -71.5 -24t-28.5 -76h775v-1000h-900v1000q0 104 72 152t178 48h850v-1000z" />
    <glyph glyph-name="uniE035" unicode="&#xe035;" horiz-adv-x="600" 
d="M1000 100v1000h-775q-43 0 -71.5 -24t-28.5 -76h775v-1000h-900v1000q0 104 72 152t178 48h850v-1000zM700 200v107l-149 49q-15 6 -24 13.5t-11.5 15.5t-3 17t0.5 16q27 21 43 47.5t21 70.5l9 73q10 81 -29 128.5t-107 47.5t-107 -47.5t-29 -128.5l9 -73q5 -44 21 -70.5
t43 -47.5q1 -7 0.5 -16t-3 -17t-11.5 -15.5t-24 -13.5l-149 -49v-107h500z" />
    <glyph glyph-name="uniE036" unicode="&#xe036;" 
d="M600 975q142 106 320 106t280 -81v-900q-102 81 -280 81t-320 -106q-142 106 -320 106t-280 -81v900q102 81 280 81t320 -106zM1100 250v700q-41 21 -90 30.5t-112 7t-140.5 -30.5t-157.5 -82v-675q106 59 202.5 78.5t161 10t136.5 -38.5z" />
    <glyph glyph-name="uniE037" unicode="&#xe037;" 
d="M0 1150v-1100q0 -38 6 -44t44 -6h800q38 0 44 6t6 44v1100q0 38 -6 44t-44 6h-800q-38 0 -44 -6t-6 -44zM800 1100v-1000h-700v1000h700zM200 850v100q0 38 6 44t44 6h400q38 0 44 -6t6 -44v-100q0 -38 -6 -44t-44 -6h-400q-38 0 -44 6t-6 44zM250 700q38 0 44 -6t6 -44
t-6 -44t-44 -6t-44 6t-6 44t6 44t44 6zM450 700q38 0 44 -6t6 -44t-6 -44t-44 -6t-44 6t-6 44t6 44t44 6zM650 700q38 0 44 -6t6 -44t-6 -44t-44 -6t-44 6t-6 44t6 44t44 6zM250 500q38 0 44 -6t6 -44t-6 -44t-44 -6t-44 6t-6 44t6 44t44 6zM450 500q38 0 44 -6t6 -44
t-6 -44t-44 -6t-44 6t-6 44t6 44t44 6zM650 500q38 0 44 -6t6 -44t-6 -44t-44 -6t-44 6t-6 44t6 44t44 6zM250 300q38 0 44 -6t6 -44t-6 -44t-44 -6t-44 6t-6 44t6 44t44 6zM450 300q38 0 44 -6t6 -44t-6 -44t-44 -6t-44 6t-6 44t6 44t44 6zM650 300q38 0 44 -6t6 -44
t-6 -44t-44 -6t-44 6t-6 44t6 44t44 6z" />
    <glyph glyph-name="uniE038" unicode="&#xe038;" 
d="M100 1150v-1100q0 -38 6 -44t44 -6h800q38 0 44 6t6 44v1100q0 38 -6 44t-44 6h-800q-38 0 -44 -6t-6 -44zM200 950v100q0 38 6 44t44 6h600q38 0 44 -6t6 -44v-100q0 -38 -6 -44t-44 -6h-600q-38 0 -44 6t-6 44zM250 800q38 0 44 -6t6 -44t-6 -44t-44 -6t-44 6t-6 44
t6 44t44 6zM450 800q38 0 44 -6t6 -44t-6 -44t-44 -6t-44 6t-6 44t6 44t44 6zM650 800q38 0 44 -6t6 -44t-6 -44t-44 -6t-44 6t-6 44t6 44t44 6zM850 800q38 0 44 -6t6 -44t-6 -44t-44 -6t-44 6t-6 44t6 44t44 6zM250 600q38 0 44 -6t6 -44t-6 -44t-44 -6t-44 6t-6 44t6 44
t44 6zM450 600q38 0 44 -6t6 -44t-6 -44t-44 -6t-44 6t-6 44t6 44t44 6zM650 600q38 0 44 -6t6 -44t-6 -44t-44 -6t-44 6t-6 44t6 44t44 6zM850 600q38 0 44 -6t6 -44t-6 -44t-44 -6t-44 6t-6 44t6 44t44 6zM250 400q38 0 44 -6t6 -44t-6 -44t-44 -6t-44 6t-6 44t6 44t44 6z
M450 400q38 0 44 -6t6 -44t-6 -44t-44 -6t-44 6t-6 44t6 44t44 6zM650 400q38 0 44 -6t6 -44t-6 -44t-44 -6t-44 6t-6 44t6 44t44 6zM800 150v200q0 38 6 44t44 6t44 -6t6 -44v-200q0 -38 -6 -44t-44 -6t-44 6t-6 44zM250 200q38 0 44 -6t6 -44t-6 -44t-44 -6t-44 6t-6 44
t6 44t44 6zM450 200q38 0 44 -6t6 -44t-6 -44t-44 -6t-44 6t-6 44t6 44t44 6zM650 200q38 0 44 -6t6 -44t-6 -44t-44 -6t-44 6t-6 44t6 44t44 6z" />
    <glyph glyph-name="uniE039" unicode="&#xe039;" 
d="M300 1000h850q38 0 44 -6t6 -44v-700q0 -38 -6 -44t-44 -6h-1100q-38 0 -44 6t-6 44v700q0 38 6 44t44 6h150v50q0 38 6 44t44 6t44 -6t6 -44v-50zM600 375q93 0 159 66t66 159t-66 159t-159 66t-159 -66t-66 -159t66 -159t159 -66zM962.5 700q25.5 0 44 18.5t18.5 44
t-18.5 44t-44 18.5t-44 -18.5t-18.5 -44t18.5 -44t44 -18.5zM600 725q52 0 88.5 -36.5t36.5 -88.5t-36.5 -88.5t-88.5 -36.5t-88.5 36.5t-36.5 88.5t36.5 88.5t88.5 36.5z" />
    <glyph glyph-name="uniE03A" unicode="&#xe03a;" 
d="M200 1250v-100q0 -38 -6 -44t-44 -6t-44 6t-6 44v100q0 38 6 44t44 6t44 -6t6 -44zM1100 1250v-100q0 -38 -6 -44t-44 -6t-44 6t-6 44v100q0 38 6 44t44 6t44 -6t6 -44zM-150 1000h100q38 0 44 -6t6 -44t-6 -44t-44 -6h-100q-38 0 -44 6t-6 44t6 44t44 6zM150 1000h900
q38 0 44 -6t6 -44v-700q0 -38 -6 -44t-44 -6h-900q-38 0 -44 6t-6 44v700q0 38 6 44t44 6zM1250 1000h100q38 0 44 -6t6 -44t-6 -44t-44 -6h-100q-38 0 -44 6t-6 44t6 44t44 6zM200 900v-600h800v600h-800zM-150 300h100q38 0 44 -6t6 -44t-6 -44t-44 -6h-100q-38 0 -44 6
t-6 44t6 44t44 6zM1250 300h100q38 0 44 -6t6 -44t-6 -44t-44 -6h-100q-38 0 -44 6t-6 44t6 44t44 6zM200 50v-100q0 -38 -6 -44t-44 -6t-44 6t-6 44v100q0 38 6 44t44 6t44 -6t6 -44zM1100 50v-100q0 -38 -6 -44t-44 -6t-44 6t-6 44v100q0 38 6 44t44 6t44 -6t6 -44z" />
    <glyph glyph-name="uniE03B" unicode="&#xe03b;" 
d="M300 1150v-50q0 -38 -6 -44t-44 -6t-44 6t-6 44v50q0 38 6 44t44 6t44 -6t6 -44zM900 1100v50q0 38 6 44t44 6t44 -6t6 -44v-50q0 -38 -6 -44t-44 -6t-44 6t-6 44zM50 1000h50q38 0 44 -6t6 -44t-6 -44t-44 -6h-50q-38 0 -44 6t-6 44t6 44t44 6zM250 1000h700q38 0 44 -6
t6 -44v-700q0 -38 -6 -44t-44 -6h-700q-38 0 -44 6t-6 44v700q0 38 6 44t44 6zM1100 1000h50q38 0 44 -6t6 -44t-6 -44t-44 -6h-50q-38 0 -44 6t-6 44t6 44t44 6zM300 900v-600h600v600h-600zM100 200h-50q-38 0 -44 6t-6 44t6 44t44 6h50q38 0 44 -6t6 -44t-6 -44t-44 -6z
M1150 200h-50q-38 0 -44 6t-6 44t6 44t44 6h50q38 0 44 -6t6 -44t-6 -44t-44 -6zM300 100v-50q0 -38 -6 -44t-44 -6t-44 6t-6 44v50q0 38 6 44t44 6t44 -6t6 -44zM900 50v50q0 38 6 44t44 6t44 -6t6 -44v-50q0 -38 -6 -44t-44 -6t-44 6t-6 44z" />
    <glyph glyph-name="uniE03C" unicode="&#xe03c;" 
d="M600 0q163 0 301 80.5t218.5 218.5t80.5 301t-80.5 301t-218.5 218.5t-301 80.5t-301 -80.5t-218.5 -218.5t-80.5 -301t80.5 -301t218.5 -218.5t301 -80.5zM600 100q-207 0 -353.5 146.5t-146.5 353.5t146.5 353.5t353.5 146.5t353.5 -146.5t146.5 -353.5t-146.5 -353.5
t-353.5 -146.5zM600 350q-104 0 -177 73t-73 177q0 103 73.5 176.5t176.5 73.5t176.5 -73.5t73.5 -176.5t-73.5 -176.5t-176.5 -73.5zM600 450q62 0 106 44t44 106t-44 106t-106 44t-106 -44t-44 -106t44 -106t106 -44zM600 550q-21 0 -35.5 14.5t-14.5 35.5t14.5 35.5
t35.5 14.5t35.5 -14.5t14.5 -35.5t-14.5 -35.5t-35.5 -14.5z" />
    <glyph glyph-name="uniE03D" unicode="&#xe03d;" 
d="M497 987l-197 133l17 -237l-236 17l133 -196l-214 -104l214 -103l-133 -197l236 17l-17 -236l197 133l103 -214l104 214l196 -133l-17 236l237 -17l-133 197l213 103l-213 104l133 196l-237 -17l17 237l-196 -133l-104 213z" />
    <glyph glyph-name="uniE03E" unicode="&#xe03e;" 
d="M176 600l495 495q26 26 35 26t36 -26l141 -141q26 -27 26 -36t-26 -35l-283 -283l283 -283q26 -26 26 -35t-26 -36l-141 -141q-27 -26 -36 -26t-35 26z" />
    <glyph glyph-name="uniE03F" unicode="&#xe03f;" 
d="M600 0q163 0 301 80.5t218.5 218.5t80.5 301t-80.5 301t-218.5 218.5t-301 80.5t-301 -80.5t-218.5 -218.5t-80.5 -301t80.5 -301t218.5 -218.5t301 -80.5z" />
    <glyph glyph-name="uniE040" unicode="&#xe040;" 
d="M1025 1024q83 -83 129 -192.5t46 -231.5q0 -163 -80 -301t-218.5 -218.5t-301.5 -80.5t-301 80.5t-218.5 218.5t-80.5 301t80.5 301t218.5 218.5t301 80.5q122 0 232 -46.5t193 -129.5zM600 600l341 340q-64 65 -151.5 100t-189.5 35v-475z" />
    <glyph glyph-name="uniE041" unicode="&#xe041;" 
d="M600 1200q163 0 301 -80.5t218.5 -218.5t80.5 -301t-80 -301t-218.5 -218.5t-301.5 -80.5t-301 80.5t-218.5 218.5t-80.5 301t80.5 301t218.5 218.5t301 80.5zM600 600h475q0 206 -134.5 340.5t-340.5 134.5v-475z" />
    <glyph glyph-name="uniE042" unicode="&#xe042;" 
d="M1200 600q0 -144 -64 -269.5t-174 -209.5q-159 -120 -360 -121h-2q-163 0 -301.5 80.5t-218.5 218.5t-80 301t80 301t218.5 218.5t301.5 80.5t301 -80.5t218.5 -218.5t80.5 -301zM1075 600q0 136 -61 244.5t-169.5 169.5t-244.5 61v-475h6l338 -338q62 64 96.5 151
t34.5 187z" />
    <glyph glyph-name="uniE043" unicode="&#xe043;" 
d="M600 1200q163 0 301 -80.5t218.5 -218.5t80.5 -301t-80.5 -301t-218.5 -218.5t-301 -80.5t-301 80.5t-218.5 218.5t-80.5 301t80.5 301t218.5 218.5t301 80.5zM600 1075v-950q206 0 340.5 134.5t134.5 340.5t-134.5 340.5t-340.5 134.5z" />
    <glyph glyph-name="uniE044" unicode="&#xe044;" 
d="M600 1200q122 0 233 -47.5t191.5 -128t128 -191.5t47.5 -233t-47.5 -233t-128 -191.5t-191.5 -128t-233 -47.5t-233 47.5t-191.5 128t-128 191.5t-47.5 233v3v1q1 121 48.5 231t127 189.5t189.5 127t231 48.5h4zM600 125q136 0 244.5 61t169.5 169.5t61 244.5t-61 244.5
t-169.5 169.5t-244.5 61v-475h-4l-339 -339q65 -65 153 -100.5t190 -35.5z" />
    <glyph glyph-name="uniE045" unicode="&#xe045;" 
d="M600 1200q163 0 301 -80.5t218.5 -218.5t80.5 -301t-80.5 -301t-218.5 -218.5t-301 -80.5t-301 80.5t-218.5 218.5t-80.5 301t80.5 301.5t218.5 218.5t301 80zM600 125q206 0 340.5 134.5t134.5 340.5t-134.5 340.5t-340.5 134.5v-475h-475q0 -206 134.5 -340.5
t340.5 -134.5z" />
    <glyph glyph-name="uniE046" unicode="&#xe046;" 
d="M600 1200q122 0 233 -47.5t191.5 -128t128 -191.5t47.5 -233t-47.5 -233t-128 -191.5t-191.5 -128t-233 -47.5t-233 47.5t-191.5 128t-128 191.5t-47.5 233q0 138 59.5 260t162.5 206q77 64 174 99t204 35zM600 125q136 0 244.5 61t169.5 169.5t61 244.5t-61 244.5
t-169.5 169.5t-244.5 61v-475l-341 341q-64 -65 -99 -152t-35 -189q0 -136 61 -244.5t169.5 -169.5t244.5 -61z" />
    <glyph glyph-name="uniE047" unicode="&#xe047;" 
d="M600 0q163 0 301 80.5t218.5 218.5t80.5 301t-80.5 301t-218.5 218.5t-301 80.5t-301 -80.5t-218.5 -218.5t-80.5 -301t80.5 -301t218.5 -218.5t301 -80.5zM600 125q-206 0 -340.5 134.5t-134.5 340.5t134.5 340.5t340.5 134.5t340.5 -134.5t134.5 -340.5t-134.5 -340.5
t-340.5 -134.5z" />
    <glyph glyph-name="uniE048" unicode="&#xe048;" 
d="M1150 1200h-100q-38 0 -44 -6t-6 -44v-1100q0 -38 6 -44t44 -6h100q38 0 44 6t6 44v1100q0 38 -6 44t-44 6zM850 900h-100q-38 0 -44 -6t-6 -44v-800q0 -38 6 -44t44 -6h100q38 0 44 6t6 44v800q0 38 -6 44t-44 6zM550 500h-100q-38 0 -44 -6t-6 -44v-400q0 -38 6 -44
t44 -6h100q38 0 44 6t6 44v400q0 38 -6 44t-44 6zM250 300h-100q-38 0 -44 -6t-6 -44v-200q0 -38 6 -44t44 -6h100q38 0 44 6t6 44v200q0 38 -6 44t-44 6z" />
    <glyph glyph-name="uniE049" unicode="&#xe049;" 
d="M450 1200h800q38 0 44 -6t6 -44v-600q0 -38 -6 -44t-44 -6h-50v-200l-200 200h-50v100h250v500h-700v-150h-100v200q0 38 6 44t44 6zM50 900h800q38 0 44 -6t6 -44v-600q0 -38 -6 -44t-44 -6h-450l-200 -200v200h-150q-38 0 -44 6t-6 44v600q0 38 6 44t44 6zM1100 850
q0 -38 -6 -44t-44 -6t-44 6t-6 44t6 44t44 6t44 -6t6 -44zM800 800h-700v-500h700v500zM250 500q-38 0 -44 6t-6 44t6 44t44 6t44 -6t6 -44t-6 -44t-44 -6zM450 500q-38 0 -44 6t-6 44t6 44t44 6t44 -6t6 -44t-6 -44t-44 -6zM650 500q-38 0 -44 6t-6 44t6 44t44 6t44 -6
t6 -44t-6 -44t-44 -6z" />
    <glyph glyph-name="uniE04A" unicode="&#xe04a;" 
d="M1124 1025l141 -141q26 -27 26 -36t-26 -35l-619 -619l-17 -18l-141 -141q-27 -26 -36 -26t-36 26l-141 141l-17 18l-223 223q-26 26 -26 35t26 36l141 141q27 26 36 26t35 -26l205 -205l601 601q26 26 35 26t36 -26z" />
    <glyph glyph-name="uniE04B" unicode="&#xe04b;" 
d="M600 218l-495 495q-26 26 -26 35t26 36l141 141q27 26 36 26t35 -26l283 -283l283 283q26 26 35 26t36 -26l141 -141q26 -27 26 -36t-26 -35z" />
    <glyph glyph-name="uniE04C" unicode="&#xe04c;" 
d="M1024 600l-495 -495q-26 -26 -35 -26t-36 26l-141 141q-26 27 -26 36t26 35l283 283l-283 283q-26 26 -26 35t26 36l141 141q27 26 36 26t35 -26z" />
    <glyph glyph-name="uniE04D" unicode="&#xe04d;" 
d="M600 990l495 -495q26 -26 26 -35t-26 -36l-141 -141q-27 -26 -36 -26t-35 26l-283 283l-283 -283q-26 -26 -35 -26t-36 26l-141 141q-26 27 -26 36t26 35z" />
    <glyph glyph-name="uniE04E" unicode="&#xe04e;" 
d="M600 1200q163 0 301 -80.5t218.5 -218.5t80.5 -301t-80.5 -301t-218.5 -218.5t-301 -80.5t-301 80.5t-218.5 218.5t-80.5 301t80.5 301t218.5 218.5t301 80.5zM125 600q0 -164 88 -287l674 674q-123 88 -287 88q-206 0 -340.5 -134.5t-134.5 -340.5zM600 125
q136 0 244.5 61t169.5 169.5t61 244.5q0 164 -88 287l-674 -674q123 -88 287 -88z" />
    <glyph glyph-name="uniE04F" unicode="&#xe04f;" 
d="M1200 600q0 120 -48.5 230.5t-129.5 191.5t-191.5 129.5t-230.5 48.5t-230.5 -48.5t-191.5 -129.5t-129.5 -191.5t-48.5 -230.5t48.5 -230.5t129.5 -191.5t191.5 -129.5t230.5 -48.5t230.5 48.5t191.5 129.5t129.5 191.5t48.5 230.5zM523 564l288 289q27 27 35.5 27
t35.5 -27l71 -71q26 -26 26 -35t-26 -36l-394 -394q-27 -26 -36 -26t-35 26l-218 217q-26 27 -26 36t26 35l71 71q27 26 36 26.5t35 -26.5z" />
    <glyph glyph-name="uniE050" unicode="&#xe050;" 
d="M600 0q163 0 301 80.5t218.5 218.5t80.5 301t-80.5 301t-218.5 218.5t-301 80.5t-301 -80.5t-218.5 -218.5t-80.5 -301t80.5 -301t218.5 -218.5t301 -80.5zM600 125q-206 0 -340.5 134.5t-134.5 340.5t134.5 340.5t340.5 134.5t340.5 -134.5t134.5 -340.5t-134.5 -340.5
t-340.5 -134.5zM536 577l-131 132l-124 -124l252 -252l374 372l-121 122z" />
    <glyph glyph-name="uniE051" unicode="&#xe051;" 
d="M600 0q120 0 230.5 48.5t191.5 129.5t129.5 191.5t48.5 230.5t-48.5 230.5t-129.5 191.5t-191.5 129.5t-230.5 48.5t-230.5 -48.5t-191.5 -129.5t-129.5 -191.5t-48.5 -230.5t48.5 -230.5t129.5 -191.5t191.5 -129.5t230.5 -48.5zM500 600v200q0 38 6 44t44 6h100
q38 0 44 -6t6 -44v-200h200l-300 -300l-300 300h200z" />
    <glyph glyph-name="uniE052" unicode="&#xe052;" 
d="M600 0q163 0 301 80.5t218.5 218.5t80.5 301t-80.5 301t-218.5 218.5t-301 80.5t-301 -80.5t-218.5 -218.5t-80.5 -301t80.5 -301t218.5 -218.5t301 -80.5zM600 125q-206 0 -340.5 134.5t-134.5 340.5t134.5 340.5t340.5 134.5t340.5 -134.5t134.5 -340.5t-134.5 -340.5
t-340.5 -134.5zM700 600h200l-300 -300l-300 300h200v200q0 38 6 44t44 6h100q38 0 44 -6t6 -44v-200z" />
    <glyph glyph-name="uniE053" unicode="&#xe053;" 
d="M881 881q141 -42 230 -160.5t89 -270.5q0 -92 -35.5 -175.5t-95.5 -143.5t-143.5 -95.5t-175.5 -35.5q-152 0 -270.5 89t-160.5 230q-141 42 -230 160.5t-89 270.5q0 92 35.5 175.5t95.5 143.5t143.5 95.5t175.5 35.5q152 0 270.5 -89t160.5 -230zM850 788q0 33 -4 58
q-25 4 -58 4q-120 0 -221 -58t-159 -158.5t-58 -220.5q0 -34 4 -59q25 -4 59 -4q120 0 220.5 58t158.5 159t58 221z" />
    <glyph glyph-name="uniE054" unicode="&#xe054;" 
d="M1200 600q0 120 -48.5 230.5t-129.5 191.5t-191.5 129.5t-230.5 48.5t-230.5 -48.5t-191.5 -129.5t-129.5 -191.5t-48.5 -230.5t48.5 -230.5t129.5 -191.5t191.5 -129.5t230.5 -48.5t230.5 48.5t191.5 129.5t129.5 191.5t48.5 230.5zM550 1000h100q38 0 44 -6t6 -44v-100
q0 -38 -6 -44t-44 -6h-100q-38 0 -44 6t-6 44v100q0 38 6 44t44 6zM550 700h100q38 0 44 -6t6 -44v-400q0 -38 -6 -44t-44 -6h-100q-38 0 -44 6t-6 44v400q0 38 6 44t44 6z" />
    <glyph glyph-name="uniE055" unicode="&#xe055;" 
d="M881 881q141 -42 230 -160.5t89 -270.5q0 -92 -35.5 -175.5t-95.5 -143.5t-143.5 -95.5t-175.5 -35.5q-152 0 -270.5 89t-160.5 230q-141 42 -230 160.5t-89 270.5q0 92 35.5 175.5t95.5 143.5t143.5 95.5t175.5 35.5q152 0 270.5 -89t160.5 -230zM100 750
q0 -104 55 -189.5t145 -127.5v17q0 92 35.5 175.5t95.5 143.5t143.5 95.5t175.5 35.5h17q-42 90 -127.5 145t-189.5 55q-96 0 -176.5 -46.5t-127 -127t-46.5 -176.5zM750 100q96 0 176.5 46.5t127 127t46.5 176.5q0 104 -55 189.5t-145 127.5v-17q0 -92 -35.5 -175.5
t-95.5 -143.5t-143.5 -95.5t-175.5 -35.5h-17q42 -90 127.5 -145t189.5 -55z" />
    <glyph glyph-name="uniE056" unicode="&#xe056;" 
d="M0 600q0 -120 48.5 -230.5t129.5 -191.5t191.5 -129.5t230.5 -48.5t230.5 48.5t191.5 129.5t129.5 191.5t48.5 230.5t-48.5 230.5t-129.5 191.5t-191.5 129.5t-230.5 48.5t-230.5 -48.5t-191.5 -129.5t-129.5 -191.5t-48.5 -230.5zM600 700h200q38 0 44 -6t6 -44v-100
q0 -38 -6 -44t-44 -6h-200v-200l-300 300l300 300v-200z" />
    <glyph glyph-name="uniE057" unicode="&#xe057;" 
d="M600 0q163 0 301 80.5t218.5 218.5t80.5 301t-80.5 301t-218.5 218.5t-301 80.5t-301 -80.5t-218.5 -218.5t-80.5 -301t80.5 -301t218.5 -218.5t301 -80.5zM850 500h-500q-38 0 -44 6t-6 44v100q0 38 6 44t44 6h500q38 0 44 -6t6 -44v-100q0 -38 -6 -44t-44 -6z" />
    <glyph glyph-name="uniE058" unicode="&#xe058;" 
d="M1200 600q0 120 -48.5 230.5t-129.5 191.5t-191.5 129.5t-230.5 48.5t-230.5 -48.5t-191.5 -129.5t-129.5 -191.5t-48.5 -230.5t48.5 -230.5t129.5 -191.5t191.5 -129.5t230.5 -48.5t230.5 48.5t191.5 129.5t129.5 191.5t48.5 230.5zM700 700h150q38 0 44 -6t6 -44v-100
q0 -38 -6 -44t-44 -6h-150v-150q0 -38 -6 -44t-44 -6h-100q-38 0 -44 6t-6 44v150h-150q-38 0 -44 6t-6 44v100q0 38 6 44t44 6h150v150q0 38 6 44t44 6h100q38 0 44 -6t6 -44v-150z" />
    <glyph glyph-name="uniE059" unicode="&#xe059;" 
d="M1200 600q0 120 -48.5 230.5t-129.5 191.5t-191.5 129.5t-230.5 48.5t-230.5 -48.5t-191.5 -129.5t-129.5 -191.5t-48.5 -230.5t48.5 -230.5t129.5 -191.5t191.5 -129.5t230.5 -48.5t230.5 48.5t191.5 129.5t129.5 191.5t48.5 230.5zM529 724h-170q-16 119 55.5 207.5
t188.5 88.5q105 0 175 -70t70 -182q0 -58 -16.5 -101.5t-39.5 -69.5t-46 -47.5t-39.5 -48t-16.5 -58.5h-182v22q0 47 16.5 84t40.5 61t48 46t40.5 50t16.5 62q0 76 -67 76q-83 0 -74 -120zM699 269q0 -38 -30 -68.5t-69 -30.5q-40 0 -70.5 30.5t-30.5 68.5q0 41 30.5 71
t70.5 30t69.5 -30t29.5 -71z" />
    <glyph glyph-name="uniE05A" unicode="&#xe05a;" 
d="M1200 600q0 120 -48.5 230.5t-129.5 191.5t-191.5 129.5t-230.5 48.5t-230.5 -48.5t-191.5 -129.5t-129.5 -191.5t-48.5 -230.5t48.5 -230.5t129.5 -191.5t191.5 -129.5t230.5 -48.5t230.5 48.5t191.5 129.5t129.5 191.5t48.5 230.5zM600 741l141 142q27 26 36 26t35 -26
l71 -71q26 -26 26 -35t-26 -36l-142 -141l142 -141q26 -27 26 -36t-26 -35l-71 -71q-26 -26 -35 -26t-36 26l-141 142l-141 -142q-27 -26 -36 -26t-35 26l-71 71q-26 26 -26 35t26 36l142 141l-142 141q-26 27 -26 36t26 35l71 71q26 26 35 26t36 -26z" />
    <glyph glyph-name="uniE05B" unicode="&#xe05b;" 
d="M600 0q163 0 301 80.5t218.5 218.5t80.5 301t-80.5 301t-218.5 218.5t-301 80.5t-301 -80.5t-218.5 -218.5t-80.5 -301t80.5 -301t218.5 -218.5t301 -80.5zM600 125q-206 0 -340.5 134.5t-134.5 340.5t134.5 340.5t340.5 134.5t340.5 -134.5t134.5 -340.5t-134.5 -340.5
t-340.5 -134.5zM721 600l156 -157l-122 -119l-155 155l-155 -155l-122 119l156 157l-156 156l121 121l156 -156l156 156l121 -121z" />
    <glyph glyph-name="uniE05C" unicode="&#xe05c;" 
d="M1200 600q0 120 -48.5 230.5t-129.5 191.5t-191.5 129.5t-230.5 48.5t-230.5 -48.5t-191.5 -129.5t-129.5 -191.5t-48.5 -230.5t48.5 -230.5t129.5 -191.5t191.5 -129.5t230.5 -48.5t230.5 48.5t191.5 129.5t129.5 191.5t48.5 230.5zM600 500h-200q-38 0 -44 6t-6 44v100
q0 38 6 44t44 6h200v200l300 -300l-300 -300v200z" />
    <glyph glyph-name="uniE05D" unicode="&#xe05d;" 
d="M881 881q141 -42 230 -160.5t89 -270.5q0 -92 -35.5 -175.5t-95.5 -143.5t-143.5 -95.5t-175.5 -35.5q-152 0 -270.5 89t-160.5 230q-141 42 -230 160.5t-89 270.5q0 92 35.5 175.5t95.5 143.5t143.5 95.5t175.5 35.5q152 0 270.5 -89t160.5 -230zM750 100
q96 0 176.5 46.5t127 127t46.5 176.5q0 150 -100 250t-250 100q-96 0 -176.5 -46.5t-127 -127t-46.5 -176.5t46.5 -176.5t127 -127t176.5 -46.5zM880 614l47 -14q16 52 21 108l-50 4zM787 450l37 -33q37 41 64 91l-44 24zM635 339l20 -46q49 22 96 56l-30 40zM450 300v-50
q56 0 110 12l-11 49z" />
    <glyph glyph-name="uniE05E" unicode="&#xe05e;" 
d="M897 802l50 6q-3 26 -9 51q118 -53 190 -163.5t72 -245.5q0 -123 -60 -226.5t-163.5 -163.5t-226.5 -60q-135 0 -245.5 72t-163.5 190l31 -6l8 49l-61 14l-16 79l-50 -6q3 -26 9 -51q-118 53 -190 163.5t-72 245.5q0 123 60 226.5t163.5 163.5t226.5 60q135 0 245.5 -72
t163.5 -190l-31 6l-8 -49l61 -14zM750 900v50q-56 0 -110 -12l11 -49zM565 861l-20 46q-49 -22 -96 -56l30 -41zM413 750l-37 33q-37 -41 -64 -91l44 -24zM880 614l47 -14q17 52 21 108l-50 4zM320 586l-47 14q-17 -52 -21 -108l50 -4zM787 450l37 -33q37 41 64 91l-44 24z
M635 339l20 -46q49 22 96 56l-30 40zM450 300v-50q56 0 110 12l-11 49z" />
    <glyph glyph-name="uniE05F" unicode="&#xe05f;" 
d="M600 1200q-120 0 -230.5 -48.5t-191.5 -129.5t-129.5 -191.5t-48.5 -230.5t48.5 -230.5t129.5 -191.5t191.5 -129.5t230.5 -48.5t230.5 48.5t191.5 129.5t129.5 191.5t48.5 230.5t-48.5 230.5t-129.5 191.5t-191.5 129.5t-230.5 48.5zM700 600v-200q0 -38 -6 -44t-44 -6
h-100q-38 0 -44 6t-6 44v200h-200l300 300l300 -300h-200z" />
    <glyph glyph-name="uniE060" unicode="&#xe060;" 
d="M600 0q163 0 301 80.5t218.5 218.5t80.5 301t-80.5 301t-218.5 218.5t-301 80.5t-301 -80.5t-218.5 -218.5t-80.5 -301t80.5 -301t218.5 -218.5t301 -80.5zM600 125q-206 0 -340.5 134.5t-134.5 340.5t134.5 340.5t340.5 134.5t340.5 -134.5t134.5 -340.5t-134.5 -340.5
t-340.5 -134.5zM700 600v-200q0 -38 -6 -44t-44 -6h-100q-38 0 -44 6t-6 44v200h-200l300 300l300 -300h-200z" />
    <glyph glyph-name="uniE061" unicode="&#xe061;" 
d="M1200 600q0 120 -48.5 230.5t-129.5 191.5t-191.5 129.5t-230.5 48.5t-230.5 -48.5t-191.5 -129.5t-129.5 -191.5t-48.5 -230.5t48.5 -230.5t129.5 -191.5t191.5 -129.5t230.5 -48.5t230.5 48.5t191.5 129.5t129.5 191.5t48.5 230.5zM650 500h-100q-38 0 -44 6t-6 44v400
q0 38 6 44t44 6h100q38 0 44 -6t6 -44v-400q0 -38 -6 -44t-44 -6zM650 200h-100q-38 0 -44 6t-6 44v100q0 38 6 44t44 6h100q38 0 44 -6t6 -44v-100q0 -38 -6 -44t-44 -6z" />
    <glyph glyph-name="uniE062" unicode="&#xe062;" 
d="M600 1200q163 0 301 -80.5t218.5 -218.5t80.5 -301t-80.5 -301t-218.5 -218.5t-301 -80.5t-301 80.5t-218.5 218.5t-80.5 301t80.5 301t218.5 218.5t301 80.5zM600 125q206 0 340.5 134.5t134.5 340.5t-134.5 340.5t-340.5 134.5t-340.5 -134.5t-134.5 -340.5
t134.5 -340.5t340.5 -134.5zM650 650h200q38 0 44 -6t6 -44t-6 -44t-44 -6h-250q-38 0 -44 6t-6 44v325q0 37 6 43.5t44 6.5t44 -6.5t6 -43.5v-275z" />
    <glyph glyph-name="uniE063" unicode="&#xe063;" 
d="M450 300h-200q-104 0 -177 73t-73 177q0 76 41.5 138.5t109.5 91.5q12 135 112 227.5t237 92.5q106 0 193 -58t128 -152q39 10 79 10q124 0 212 -88t88 -212t-88 -212t-212 -88h-150v125h150q72 0 123.5 51.5t51.5 123.5t-51.5 123.5t-123.5 51.5q-37 0 -58.5 -5
t-116.5 -35q5 99 -62 169.5t-163 70.5q-55 0 -103.5 -25.5t-78.5 -67.5t-40.5 -97t11.5 -113q-66 15 -115 -23t-49 -99q0 -52 36.5 -88.5t88.5 -36.5h200v-125zM525 200v400q0 37 6.5 43.5t43.5 6.5h50q37 0 43.5 -6.5t6.5 -43.5v-400h137l-212 -250l-212 250h137z" />
    <glyph glyph-name="uniE064" unicode="&#xe064;" 
d="M400 300h-150q-104 0 -177 73t-73 177q0 76 41.5 138.5t109.5 91.5q12 135 112 227.5t237 92.5q106 0 193 -58t128 -152q39 10 79 10q124 0 212 -88t88 -212t-88 -212t-212 -88h-100v125h100q72 0 123.5 51.5t51.5 123.5t-51.5 123.5t-123.5 51.5q-37 0 -58.5 -5
t-116.5 -35q5 99 -62 169.5t-163 70.5q-55 0 -103.5 -25.5t-78.5 -67.5t-40.5 -97t11.5 -113q-66 15 -115 -23t-49 -99q0 -52 36.5 -88.5t88.5 -36.5h150v-125zM600 750l212 -250h-112v-350q0 -38 -6 -44t-44 -6h-100q-38 0 -44 6t-6 44v350h-112z" />
    <glyph glyph-name="uniE065" unicode="&#xe065;" 
d="M300 1150v-100q0 -38 6 -44t44 -6h200q38 0 44 6t6 44v100q0 38 -6 44t-44 6h-200q-38 0 -44 -6t-6 -44zM750 700h300q38 0 44 6t6 44v300q0 38 -6 44t-44 6h-300q-38 0 -44 -6t-6 -44v-300q0 -38 6 -44t44 -6zM0 850v-400q0 -38 6 -44t44 -6h500q38 0 44 6t6 44v400
q0 38 -6 44t-44 6h-500q-38 0 -44 -6t-6 -44zM700 550v-400q0 -38 6 -44t44 -6h400q38 0 44 6t6 44v400q0 38 -6 44t-44 6h-400q-38 0 -44 -6t-6 -44zM250 0h300q38 0 44 6t6 44v200q0 38 -6 44t-44 6h-300q-38 0 -44 -6t-6 -44v-200q0 -38 6 -44t44 -6z" />
    <glyph glyph-name="uniE066" unicode="&#xe066;" 
d="M1200 525l-167 -47q-14 -51 -41 -98l85 -151l-106 -106l-151 85q-47 -27 -98 -41l-47 -167h-150l-47 167q-51 14 -98 41l-151 -85l-106 106l85 151q-27 47 -41 98l-167 47v150l167 47q14 51 41 98l-85 151l106 106l151 -85q47 27 98 41l47 167h150l47 -167q51 -14 98 -41
l151 85l106 -106l-85 -151q27 -47 41 -98l167 -47v-150zM600 400q83 0 141.5 58.5t58.5 141.5t-58.5 141.5t-141.5 58.5t-141.5 -58.5t-58.5 -141.5t58.5 -141.5t141.5 -58.5z" />
    <glyph glyph-name="uniE067" unicode="&#xe067;" 
d="M0 1050v-1000q0 -38 6 -44t44 -6h125q37 0 43.5 6t6.5 44v1000q0 38 -6.5 44t-43.5 6h-125q-38 0 -44 -6t-6 -44zM325 1050v-1000q0 -38 6.5 -44t43.5 -6h125q38 0 44 6t6 44v1000q0 38 -6 44t-44 6h-125q-37 0 -43.5 -6t-6.5 -44zM650 1050v-1000q0 -38 6 -44t44 -6h125
q37 0 43.5 6t6.5 44v1000q0 38 -6.5 44t-43.5 6h-125q-38 0 -44 -6t-6 -44zM975 1050v-1000q0 -38 6.5 -44t43.5 -6h125q38 0 44 6t6 44v1000q0 38 -6 44t-44 6h-125q-37 0 -43.5 -6t-6.5 -44z" />
    <glyph glyph-name="uniE068" unicode="&#xe068;" 
d="M0 1050v-1000q0 -38 6 -44t44 -6h225q37 0 43.5 6t6.5 44v1000q0 38 -6.5 44t-43.5 6h-225q-38 0 -44 -6t-6 -44zM425 1050v-1000q0 -38 6.5 -44t43.5 -6h250q37 0 43.5 6t6.5 44v1000q0 38 -6.5 44t-43.5 6h-250q-37 0 -43.5 -6t-6.5 -44zM875 1050v-1000q0 -38 6.5 -44
t43.5 -6h225q38 0 44 6t6 44v1000q0 38 -6 44t-44 6h-225q-37 0 -43.5 -6t-6.5 -44z" />
    <glyph glyph-name="uniE069" unicode="&#xe069;" 
d="M50 1200h1000q38 0 44 -6t6 -44v-800q0 -38 -6 -44t-44 -6h-550l-300 -300v300h-150q-38 0 -44 6t-6 44v800q0 38 6 44t44 6zM1000 1100h-900v-700h900v700zM350 700q-38 0 -44 6t-6 44t6 44t44 6t44 -6t6 -44t-6 -44t-44 -6zM550 700q-38 0 -44 6t-6 44t6 44t44 6t44 -6
t6 -44t-6 -44t-44 -6zM750 700q-38 0 -44 6t-6 44t6 44t44 6t44 -6t6 -44t-6 -44t-44 -6z" />
    <glyph glyph-name="uniE06A" unicode="&#xe06a;" 
d="M600 0q163 0 301 80.5t218.5 218.5t80.5 301t-80.5 301t-218.5 218.5t-301 80.5t-301 -80.5t-218.5 -218.5t-80.5 -301t80.5 -301t218.5 -218.5t301 -80.5zM600 125q-206 0 -340.5 134.5t-134.5 340.5t134.5 340.5t340.5 134.5t340.5 -134.5t134.5 -340.5t-134.5 -340.5
t-340.5 -134.5zM741 458q-61 -61 -153 -86.5t-257 -40.5q15 165 40.5 257t87.5 154q61 61 153 86.5t257 40.5q-15 -165 -40.5 -257t-87.5 -154zM758 758q-156 -15 -229 -87l142 -142q72 73 87 229z" />
    <glyph glyph-name="uniE06B" unicode="&#xe06b;" 
d="M600 0q163 0 301 80.5t218.5 218.5t80.5 301t-80.5 301t-218.5 218.5t-301 80.5t-301 -80.5t-218.5 -218.5t-80.5 -301t80.5 -301t218.5 -218.5t301 -80.5zM600 125q-206 0 -340.5 134.5t-134.5 340.5t134.5 340.5t340.5 134.5t340.5 -134.5t134.5 -340.5t-134.5 -340.5
t-340.5 -134.5zM950 600q-13 -11 -52 -43.5t-49.5 -41t-41 -32.5t-43 -30.5t-37.5 -21t-41.5 -18.5t-39.5 -8.5t-46 -4.5q-80 0 -140 55t-60 145t60 145t140 55q23 0 46 -4.5t39.5 -8.5t41.5 -18.5t37.5 -21t43 -30.5t41 -32.5t49.5 -41t52 -43.5zM675 600q0 31 -22 53
t-53 22t-53 -22t-22 -53t22 -53t53 -22t53 22t22 53z" />
    <glyph glyph-name="uniE06C" unicode="&#xe06c;" 
d="M600 0q163 0 301 80.5t218.5 218.5t80.5 301t-80.5 301t-218.5 218.5t-301 80.5t-301 -80.5t-218.5 -218.5t-80.5 -301t80.5 -301t218.5 -218.5t301 -80.5zM600 125q-206 0 -340.5 134.5t-134.5 340.5t134.5 340.5t340.5 134.5t340.5 -134.5t134.5 -340.5t-134.5 -340.5
t-340.5 -134.5zM600 950q11 -13 43.5 -52t41 -49.5t32.5 -41t30.5 -43t21 -37.5t18.5 -41.5t8.5 -39.5t4.5 -46q0 -80 -55 -140t-145 -60t-145 60t-55 140q0 23 4.5 46t8.5 39.5t18.5 41.5t21 37.5t30.5 43t32.5 41t41 49.5t43.5 52zM600 675q-31 0 -53 -22t-22 -53t22 -53
t53 -22t53 22t22 53t-22 53t-53 22z" />
    <glyph glyph-name="uniE06D" unicode="&#xe06d;" 
d="M600 0q163 0 301 80.5t218.5 218.5t80.5 301t-80.5 301t-218.5 218.5t-301 80.5t-301 -80.5t-218.5 -218.5t-80.5 -301t80.5 -301t218.5 -218.5t301 -80.5zM600 125q-206 0 -340.5 134.5t-134.5 340.5t134.5 340.5t340.5 134.5t340.5 -134.5t134.5 -340.5t-134.5 -340.5
t-340.5 -134.5zM847 846q-1 -19 -4.5 -60.5t-5 -57.5t-5.5 -49t-7 -47t-8.5 -39.5t-12 -39.5t-16 -33t-21 -33.5t-26.5 -29.5q-36 -36 -84 -51.5t-102 -3t-96.5 55t-54.5 96t3.5 102t51.5 84.5q14 15 29 26.5t34 20.5t33 15.5t39 12t39.5 9t47.5 7t48.5 5t57 5t60.5 5.5z
M653 651.5q-22 21.5 -53 21.5t-53 -21.5t-22 -53t22 -53t53 -21.5t53 21.5t22 53t-22 53z" />
    <glyph glyph-name="uniE06E" unicode="&#xe06e;" 
d="M600 0q163 0 301 80.5t218.5 218.5t80.5 301t-80.5 301t-218.5 218.5t-301 80.5t-301 -80.5t-218.5 -218.5t-80.5 -301t80.5 -301t218.5 -218.5t301 -80.5zM600 125q-206 0 -340.5 134.5t-134.5 340.5t134.5 340.5t340.5 134.5t340.5 -134.5t134.5 -340.5t-134.5 -340.5
t-340.5 -134.5zM353 846q19 -2 60.5 -5.5t57 -5t48.5 -5t47.5 -7t39.5 -9t39 -12t33 -15.5t34 -20.5t29 -26.5q36 -36 51.5 -84.5t3.5 -102t-54.5 -96t-96.5 -55t-102 3t-84 51.5q-15 15 -26.5 29.5t-21 33.5t-16 33t-12 39.5t-8.5 39.5t-7 47t-5.5 49t-5 57.5t-4.5 60.5z
M547 651.5q-22 -21.5 -22 -53t22 -53t53 -21.5t53 21.5t22 53t-22 53t-53 21.5t-53 -21.5z" />
    <glyph glyph-name="uniE06F" unicode="&#xe06f;" 
d="M600 1200q-163 0 -301 -80.5t-218.5 -218.5t-80.5 -301t80.5 -301t218.5 -218.5t301 -80.5t301 80.5t218.5 218.5t80.5 301t-80.5 301t-218.5 218.5t-301 80.5zM600 1075q206 0 340.5 -134.5t134.5 -340.5t-134.5 -340.5t-340.5 -134.5t-340.5 134.5t-134.5 340.5
t134.5 340.5t340.5 134.5zM600 250q-11 13 -43.5 52t-41 49.5t-32.5 41t-30.5 43t-21 37.5t-18.5 41.5t-8.5 39.5t-4.5 46q0 80 55 140t145 60t145 -60t55 -140q0 -23 -4.5 -46t-8.5 -39.5t-18.5 -41.5t-21 -37.5t-30.5 -43t-32.5 -41t-41 -49.5t-43.5 -52zM600 525
q31 0 53 22t22 53t-22 53t-53 22t-53 -22t-22 -53t22 -53t53 -22z" />
    <glyph glyph-name="uniE070" unicode="&#xe070;" 
d="M600 1200q-163 0 -301 -80.5t-218.5 -218.5t-80.5 -301t80.5 -301t218.5 -218.5t301 -80.5t301 80.5t218.5 218.5t80.5 301t-80.5 301t-218.5 218.5t-301 80.5zM600 1075q206 0 340.5 -134.5t134.5 -340.5t-134.5 -340.5t-340.5 -134.5t-340.5 134.5t-134.5 340.5
t134.5 340.5t340.5 134.5zM847 354q-19 2 -60.5 5.5t-57 5t-48.5 5t-47.5 7t-39.5 9t-39 12t-33 15.5t-34 20.5t-29 26.5q-36 36 -51.5 84.5t-3.5 102t54.5 96t96.5 55t102 -3t84 -51.5q15 -15 26.5 -29.5t21 -33.5t16 -33t12 -39.5t8.5 -39.5t7 -47t5.5 -49t5 -57.5
t4.5 -60.5zM653 548.5q22 21.5 22 53t-22 53t-53 21.5t-53 -21.5t-22 -53t22 -53t53 -21.5t53 21.5z" />
    <glyph glyph-name="uniE071" unicode="&#xe071;" 
d="M600 1200q-163 0 -301 -80.5t-218.5 -218.5t-80.5 -301t80.5 -301t218.5 -218.5t301 -80.5t301 80.5t218.5 218.5t80.5 301t-80.5 301t-218.5 218.5t-301 80.5zM600 1075q206 0 340.5 -134.5t134.5 -340.5t-134.5 -340.5t-340.5 -134.5t-340.5 134.5t-134.5 340.5
t134.5 340.5t340.5 134.5zM353 354q1 19 4.5 60.5t5 57.5t5.5 49t7 47t8.5 39.5t12 39.5t16 33t21 33.5t26.5 29.5q36 36 84 51.5t102 3t96.5 -55t54.5 -96t-3.5 -102t-51.5 -84.5q-14 -15 -29 -26.5t-34 -20.5t-33 -15.5t-39 -12t-39.5 -9t-47.5 -7t-48.5 -5t-57 -5
t-60.5 -5.5zM547 548.5q22 -21.5 53 -21.5t53 21.5t22 53t-22 53t-53 21.5t-53 -21.5t-22 -53t22 -53z" />
    <glyph glyph-name="uniE072" unicode="&#xe072;" 
d="M1200 600q0 163 -80.5 301t-218.5 218.5t-301 80.5t-301 -80.5t-218.5 -218.5t-80.5 -301t80.5 -301t218.5 -218.5t301 -80.5t301 80.5t218.5 218.5t80.5 301zM1075 600q0 -206 -134.5 -340.5t-340.5 -134.5t-340.5 134.5t-134.5 340.5t134.5 340.5t340.5 134.5
t340.5 -134.5t134.5 -340.5zM250 600q13 11 52 43.5t49.5 41t41 32.5t43 30.5t37.5 21t41.5 18.5t39.5 8.5t46 4.5q80 0 140 -55t60 -145t-60 -145t-140 -55q-23 0 -46 4.5t-39.5 8.5t-41.5 18.5t-37.5 21t-43 30.5t-41 32.5t-49.5 41t-52 43.5zM525 600q0 -31 22 -53
t53 -22t53 22t22 53t-22 53t-53 22t-53 -22t-22 -53z" />
    <glyph glyph-name="uniE073" unicode="&#xe073;" 
d="M600 1200q163 0 301 -80.5t218.5 -218.5t80.5 -301t-80.5 -301t-218.5 -218.5t-301 -80.5t-301 80.5t-218.5 218.5t-80.5 301t80.5 301t218.5 218.5t301 80.5zM600 1050v-900q186 0 318 132t132 318t-132 318t-318 132z" />
    <glyph glyph-name="uniE074" unicode="&#xe074;" 
d="M1170 410l280 -150q22 -44 34.5 -109t13.5 -108l2 -43h-1800q0 18 1.5 47.5t14 99t34.5 113.5l280 150q40 20 54.5 43t15.5 52q-75 56 -117.5 160t-42.5 215q0 61 20.5 117.5t59 102t98.5 73t132 27.5q139 0 224.5 -88.5t85.5 -231.5q0 -125 -40 -228.5t-120 -154.5
q6 -55 70 -87l130 -70l130 70q49 24 63 60q-40 14 -75 36.5t-57.5 43t-39.5 39t-24 30.5l-7 11q6 7 14 22t22 79.5t14 148.5q0 129 84 224.5t226 95.5q141 0 225.5 -88t84.5 -232q0 -84 12.5 -146.5t25.5 -83.5l12 -20q-2 -5 -7 -12.5t-23 -30t-39 -42t-56.5 -42.5
t-75.5 -38q15 -32 61 -55zM250 560q105 0 157.5 87t52.5 233q0 31 -6 59q-43 -5 -84.5 -3.5t-80 10t-81.5 35.5t-88 73q-38 -31 -59 -77.5t-21 -96.5q0 -127 61 -223.5t149 -96.5zM950 560q105 0 157.5 87t52.5 233q0 31 -6 59q-43 -5 -84.5 -3.5t-80 10t-81.5 35.5t-88 73
q-38 -31 -59 -77.5t-21 -96.5q0 -127 61 -223.5t149 -96.5zM770 851q30 48 72.5 49t57.5 -45q0 -23 -14 -38.5t-36 -15.5q-14 0 -28 7t-23.5 15.5t-28.5 27.5zM1000 855q15 46 57.5 45t72.5 -49q-19 -19 -28.5 -27.5t-23.5 -15.5t-28 -7q-22 0 -36 15.5t-14 38.5zM150 900
q21 0 35.5 -14.5t14.5 -35.5t-15.5 -35.5t-34.5 -14.5q-20 0 -35 15t-15 35q0 21 15 35.5t35 14.5zM350 900q22 0 36 -14t14 -36t-14 -36t-36 -14t-36 14t-14 36t14 36t36 14z" />
    <glyph glyph-name="uniE075" unicode="&#xe075;" 
d="M75 1000h1050q75 0 75 -75v-125h-1200v125q0 75 75 75zM0 600h1200v-425q0 -75 -75 -75h-1050q-75 0 -75 75v425zM350 300h-200q-38 0 -44 -6t-6 -44t6 -44t44 -6h200q38 0 44 6t6 44t-6 44t-44 6z" />
    <glyph glyph-name="uniE076" unicode="&#xe076;" 
d="M1200 525h-156q-24 -141 -126 -243t-243 -126v-156h-150v156q-141 24 -243 126t-126 243h-156v150h156q24 141 126 243t243 126v156h150v-156q141 -24 243 -126t126 -243h156v-150zM675 450v-141q79 21 137 79t79 137h-141v150h141q-21 79 -79 137t-137 79v-141h-150v141
q-79 -21 -137 -79t-79 -137h141v-150h-141q21 -79 79 -137t137 -79v141h150z" />
    <glyph glyph-name="uniE077" unicode="&#xe077;" 
d="M50 1100h450q38 0 44 -6t6 -44v-425h-150v125l-250 -200l250 -200v125h150v-425q0 -38 -6 -44t-44 -6h-450q-38 0 -44 6t-6 44v1000q0 38 6 44t44 6zM700 1100h450q38 0 44 -6t6 -44v-1000q0 -38 -6 -44t-44 -6h-450q-38 0 -44 6t-6 44v425h150v-125l250 200l-250 200
v-125h-150v425q0 38 6 44t44 6z" />
    <glyph glyph-name="uniE078" unicode="&#xe078;" 
d="M1001 833h-233q-4 61 -46.5 103.5t-117.5 42.5q-69 0 -115.5 -35.5t-46.5 -84.5q0 -23 10 -43t30 -35t39.5 -26.5t50 -21.5t49.5 -15.5t49 -12.5q22 -5 32.5 -8t41 -12.5t49.5 -18.5t49.5 -25t51 -33t44 -42.5t37.5 -53t23.5 -64.5t9.5 -78q0 -64 -24.5 -125t-65 -106.5
t-93 -77.5t-109.5 -44v-59q0 -44 -7 -51t-51 -7h-117q-44 0 -51 7t-7 51v59q-58 11 -108 37t-92.5 67.5t-67 105t-24.5 141.5h233q0 -23 11 -47.5t31 -47.5t55 -37.5t79 -14.5q79 0 126.5 38t47.5 108q0 19 -6 36t-14.5 29.5t-26 24t-30 18.5t-37 15t-38 12t-42 11.5
t-39.5 10.5q-38 11 -64 19.5t-64 24t-63.5 32t-54.5 42t-46 55.5t-28.5 71t-11.5 89q0 124 72.5 209t201.5 117v59q0 43 7 50.5t51 7.5h117q44 0 51 -7.5t7 -50.5v-59q52 -6 104.5 -35.5t94.5 -74.5t66.5 -108.5t19.5 -131.5z" />
    <glyph glyph-name="uniE079" unicode="&#xe079;" 
d="M456 200h544q38 0 44 -6t6 -44v-100q0 -38 -6 -44t-44 -6h-800v200q141 102 160 200h-110q-38 0 -44 6t-6 44v100q0 38 6 44t44 6h63q-21 46 -31 70.5t-21 67.5t-11 82q0 90 34 163.5t91 120t129.5 71.5t152.5 25q77 0 146.5 -25.5t125 -73.5t88.5 -126t33 -175h-200
q0 126 -100 179t-200 5.5t-100 -164.5q0 -29 8 -61.5t16 -51t26.5 -56.5t24.5 -51h275q38 0 44 -6t6 -44v-100q0 -38 -6 -44t-44 -6h-246q-18 -91 -98 -200z" />
    <glyph glyph-name="uniE07A" unicode="&#xe07a;" 
d="M525 850v300q0 38 3 44t22 6t22 -6t3 -44v-250q0 -69 -10.5 -117.5t-25 -75t-29 -51t-25 -63t-10.5 -93.5v-450q0 -38 -6.5 -44t-43.5 -6h-50q-37 0 -43.5 6t-6.5 44v450q0 55 -10.5 93.5t-25 63t-29 51t-25 75t-10.5 117.5v250q0 38 3 44t22 6t22 -6t3 -44v-300
q0 -19 25 -19t25 19v300q0 38 3 44t22 6t22 -6t3 -44v-300q0 -19 25 -19t25 19v300q0 38 3 44t22 6t22 -6t3 -44v-300q0 -19 25 -19t25 19zM700 50v1100q0 38 6 44t44 6q80 0 140 -95t60 -255v-350h-100v-450q0 -38 -6 -44t-44 -6h-50q-38 0 -44 6t-6 44z" />
    <glyph glyph-name="uniE07B" unicode="&#xe07b;" 
d="M600 0q163 0 301 80.5t218.5 218.5t80.5 301t-80.5 301t-218.5 218.5t-301 80.5t-301 -80.5t-218.5 -218.5t-80.5 -301t80.5 -301t218.5 -218.5t301 -80.5zM600 125q-206 0 -340.5 134.5t-134.5 340.5t134.5 340.5t340.5 134.5t340.5 -134.5t134.5 -340.5t-134.5 -340.5
t-340.5 -134.5zM475 790q-23 0 -41.5 18.5t-18.5 41.5t18.5 41.5t41.5 18.5t41.5 -18.5t18.5 -41.5t-18.5 -41.5t-41.5 -18.5zM725 790q-23 0 -41.5 18.5t-18.5 41.5t18.5 41.5t41.5 18.5t41.5 -18.5t18.5 -41.5t-18.5 -41.5t-41.5 -18.5zM600 500q-38 0 -69 31t-31 69
q0 23 12 59.5t43 114t45 116.5q14 -38 36 -93t33.5 -85.5t21 -62t9.5 -49.5q0 -38 -31 -69t-69 -31zM325 590q-23 0 -41.5 18.5t-18.5 41.5t18.5 41.5t41.5 18.5t41.5 -18.5t18.5 -41.5t-18.5 -41.5t-41.5 -18.5zM875 590q-23 0 -41.5 18.5t-18.5 41.5t18.5 41.5t41.5 18.5
t41.5 -18.5t18.5 -41.5t-18.5 -41.5t-41.5 -18.5z" />
    <glyph glyph-name="uniE07C" unicode="&#xe07c;" 
d="M0 1150v-850q0 -38 6 -44t44 -6h1100q38 0 44 6t6 44v850q0 38 -6 44t-44 6h-1100q-38 0 -44 -6t-6 -44zM100 1100h1000v-650h-1000v650zM700 200h-200q0 -34 -23.5 -66.5t-51.5 -52.5t-51.5 -42.5t-23.5 -38.5h500q0 16 -23.5 38.5t-51.5 42.5t-51.5 52.5t-23.5 66.5z
" />
    <glyph glyph-name="uniE07D" unicode="&#xe07d;" 
d="M300 1050v-900q0 -38 6 -44t44 -6h500q38 0 44 6t6 44v900q0 38 -6 44t-44 6h-500q-38 0 -44 -6t-6 -44zM800 950v-650h-400v650h400zM600 150q-19 0 -34.5 15.5t-15.5 34.5t15.5 34.5t34.5 15.5t34.5 -15.5t15.5 -34.5t-15.5 -34.5t-34.5 -15.5z" />
    <glyph glyph-name="uniE07E" unicode="&#xe07e;" 
d="M400 325v-175q0 -38 6 -44t44 -6h500q38 0 44 6t6 44v900q0 38 -6 44t-44 6h-500q-38 0 -44 -6t-6 -44v-175l100 -100v175h400v-650h-400v125zM300 500h-250q-38 0 -44 6t-6 44v100q0 38 6 44t44 6h250v150l275 -250l-275 -250v150zM700 150q-19 0 -34.5 15.5t-15.5 34.5
t15.5 34.5t34.5 15.5t34.5 -15.5t15.5 -34.5t-15.5 -34.5t-34.5 -15.5z" />
    <glyph glyph-name="uniE07F" unicode="&#xe07f;" 
d="M400 400v-100h-400v650h400v-150h100v250q0 38 -6 44t-44 6h-500q-38 0 -44 -6t-6 -44v-900q0 -38 6 -44t44 -6h500q38 0 44 6t6 44v250h-100zM700 325v-175q0 -38 6 -44t44 -6h500q38 0 44 6t6 44v900q0 38 -6 44t-44 6h-500q-38 0 -44 -6t-6 -44v-175l100 -100v175h400
v-650h-400v125zM600 500h-250q-38 0 -44 6t-6 44v100q0 38 6 44t44 6h250v150l275 -250l-275 -250v150zM300 150q-19 0 -34.5 15.5t-15.5 34.5t15.5 34.5t34.5 15.5t34.5 -15.5t15.5 -34.5t-15.5 -34.5t-34.5 -15.5zM1000 150q-19 0 -34.5 15.5t-15.5 34.5t15.5 34.5
t34.5 15.5t34.5 -15.5t15.5 -34.5t-15.5 -34.5t-34.5 -15.5z" />
    <glyph glyph-name="uniE080" unicode="&#xe080;" 
d="M700 400v-100h-400v650h400v-150h100v250q0 38 -6 44t-44 6h-500q-38 0 -44 -6t-6 -44v-900q0 -38 6 -44t44 -6h500q38 0 44 6t6 44v250h-100zM900 500h-250q-38 0 -44 6t-6 44v100q0 38 6 44t44 6h250v150l275 -250l-275 -250v150zM500 150q-19 0 -34.5 15.5t-15.5 34.5
t15.5 34.5t34.5 15.5t34.5 -15.5t15.5 -34.5t-15.5 -34.5t-34.5 -15.5z" />
    <glyph glyph-name="uniE081" unicode="&#xe081;" 
d="M300 1050v-900q0 -38 6 -44t44 -6h500q38 0 44 6t6 44v900q0 38 -6 44t-44 6h-500q-38 0 -44 -6t-6 -44zM800 1000v-350h-400v350h400zM600 175q-83 0 -141.5 58.5t-58.5 141.5t58.5 141.5t141.5 58.5t141.5 -58.5t58.5 -141.5t-58.5 -141.5t-141.5 -58.5zM600 275
q-41 0 -70.5 29.5t-29.5 70.5t29.5 70.5t70.5 29.5t70.5 -29.5t29.5 -70.5t-29.5 -70.5t-70.5 -29.5z" />
    <glyph glyph-name="uniE082" unicode="&#xe082;" 
d="M1200 375l125 -275q0 -75 -6.5 -87.5t-43.5 -12.5h-1350q-37 0 -43.5 12.5t-6.5 87.5l125 275v675q0 38 6 44t44 6h1100q38 0 44 -6t6 -44v-675zM100 400h1000v600h-1000v-600zM800 100l-25 100h-350l-25 -100h400z" />
    <glyph glyph-name="uniE083" unicode="&#xe083;" 
d="M200 1150v-1100q0 -38 6 -44t44 -6h700q38 0 44 6t6 44v1100q0 38 -6 44t-44 6h-700q-38 0 -44 -6t-6 -44zM900 1000v-800h-600v800h600zM600 50q-19 0 -34.5 15.5t-15.5 34.5t15.5 34.5t34.5 15.5t34.5 -15.5t15.5 -34.5t-15.5 -34.5t-34.5 -15.5z" />
    <glyph glyph-name="uniE084" unicode="&#xe084;" 
d="M800 0h-650q-38 0 -44 6t-6 44v1100q0 38 6 44t44 6h900q38 0 44 -6t6 -44v-850zM200 100h558l242 250v750h-800v-1000z" />
    <glyph glyph-name="uniE085" unicode="&#xe085;" 
d="M800 0h-650q-38 0 -44 6t-6 44v1100q0 38 6 44t44 6h900q38 0 44 -6t6 -44v-850zM200 100h558l242 250v750h-800v-1000zM500 600h-175l275 -300l275 300h-175v200q0 38 -6 44t-44 6h-100q-38 0 -44 -6t-6 -44v-200z" />
    <glyph glyph-name="uniE086" unicode="&#xe086;" 
d="M800 0h-650q-38 0 -44 6t-6 44v1100q0 38 6 44t44 6h900q38 0 44 -6t6 -44v-850zM200 100h558l242 250v750h-800v-1000zM850 900h-450q-38 0 -44 -6t-6 -44v-500q0 -38 6 -44t44 -6t44 6t6 44v150h400l-150 200z" />
    <glyph glyph-name="uniE087" unicode="&#xe087;" 
d="M1200 300l-300 -300h-850q-38 0 -44 6t-6 44v900q0 38 6 44t44 6h1100q38 0 44 -6t6 -44v-650z" />
    <glyph glyph-name="uniE088" unicode="&#xe088;" 
d="M1200 300l-300 -300h-850q-38 0 -44 6t-6 44v900q0 38 6 44t44 6h1100q38 0 44 -6t6 -44v-650zM500 500h-175l275 -300l275 300h-175v200q0 38 -6 44t-44 6h-100q-38 0 -44 -6t-6 -44v-200z" />
    <glyph glyph-name="uniE089" unicode="&#xe089;" 
d="M1200 300l-300 -300h-850q-38 0 -44 6t-6 44v900q0 38 6 44t44 6h1100q38 0 44 -6t6 -44v-650zM900 800h-550q-38 0 -44 -6t-6 -44v-500q0 -38 6 -44t44 -6t44 6t6 44v150h500l-150 200z" />
    <glyph glyph-name="uniE08A" unicode="&#xe08a;" 
d="M50 1000h1100q38 0 44 -6t6 -44v-650l-300 -300h-850q-38 0 -44 6t-6 44v900q0 38 6 44t44 6zM850 225v350q0 19 -3 22t-22 3h-50v50q0 75 -50 125t-125 50t-125 -50t-50 -125v-50h-50q-19 0 -22 -3t-3 -22v-350q0 -19 3 -22t22 -3h450q19 0 22 3t3 22zM600 725
q75 0 75 -75v-50h-150v50q0 75 75 75z" />
    <glyph glyph-name="uniE08B" unicode="&#xe08b;" 
d="M1200 300l-300 -300h-850q-38 0 -44 6t-6 44v900q0 38 6 44t44 6h1100q38 0 44 -6t6 -44v-650zM850 475v50q0 37 -6 43.5t-44 6.5h-400q-38 0 -44 -6.5t-6 -43.5v-50q0 -37 6 -43.5t44 -6.5h400q38 0 44 6.5t6 43.5z" />
    <glyph glyph-name="uniE08C" unicode="&#xe08c;" 
d="M1200 300l-300 -300h-850q-38 0 -44 6t-6 44v900q0 38 6 44t44 6h1100q38 0 44 -6t6 -44v-650zM675 425h125q38 0 44 6.5t6 43.5v50q0 37 -6 43.5t-44 6.5h-125v125q0 38 -6.5 44t-43.5 6h-50q-37 0 -43.5 -6t-6.5 -44v-125h-125q-38 0 -44 -6.5t-6 -43.5v-50
q0 -37 6 -43.5t44 -6.5h125v-125q0 -38 6.5 -44t43.5 -6h50q37 0 43.5 6t6.5 44v125z" />
    <glyph glyph-name="uniE08D" unicode="&#xe08d;" 
d="M1200 300l-300 -300h-850q-38 0 -44 6t-6 44v900q0 38 6 44t44 6h1100q38 0 44 -6t6 -44v-650zM600 616l-116 118q-23 22 -30.5 22t-28.5 -22l-59 -59q-22 -21 -22 -28.5t22 -30.5l118 -116l-118 -116q-22 -23 -22 -30.5t22 -28.5l59 -59q21 -22 28.5 -22t30.5 22
l116 118l116 -118q23 -22 30.5 -22t28.5 22l59 59q22 21 22 28.5t-22 30.5l-118 116l118 116q22 23 22 30.5t-22 28.5l-59 59q-21 22 -28.5 22t-30.5 -22z" />
    <glyph glyph-name="uniE08E" unicode="&#xe08e;" 
d="M1200 300l-300 -300h-850q-38 0 -44 6t-6 44v900q0 38 6 44t44 6h1100q38 0 44 -6t6 -44v-650zM500 500v-200q0 -38 6 -44t44 -6h100q38 0 44 6t6 44v200h175l-275 300l-275 -300h175z" />
    <glyph glyph-name="uniE08F" unicode="&#xe08f;" 
d="M150 1200h900q38 0 44 -6t6 -44v-850l-300 -300h-650q-38 0 -44 6t-6 44v1100q0 38 6 44t44 6zM1000 1100h-800v-1000h558l242 250v750zM825 300h-450q-19 0 -22 3t-3 22v350q0 19 3 22t22 3h50v50q0 75 50 125t125 50t125 -50t50 -125v-50h50q19 0 22 -3t3 -22v-350
q0 -19 -3 -22t-22 -3zM525 700h150v50q0 75 -75 75t-75 -75v-50z" />
    <glyph glyph-name="uniE090" unicode="&#xe090;" 
d="M800 0h-650q-38 0 -44 6t-6 44v1100q0 38 6 44t44 6h900q38 0 44 -6t6 -44v-850zM200 100h558l242 250v750h-800v-1000zM400 525h400q38 0 44 6.5t6 43.5v50q0 37 -6 43.5t-44 6.5h-400q-38 0 -44 -6.5t-6 -43.5v-50q0 -37 6 -43.5t44 -6.5z" />
    <glyph glyph-name="uniE091" unicode="&#xe091;" 
d="M800 0h-650q-38 0 -44 6t-6 44v1100q0 38 6 44t44 6h900q38 0 44 -6t6 -44v-850zM200 100h558l242 250v750h-800v-1000zM675 525h125q38 0 44 6.5t6 43.5v50q0 37 -6 43.5t-44 6.5h-125v125q0 38 -6.5 44t-43.5 6h-50q-37 0 -43.5 -6t-6.5 -44v-125h-125q-38 0 -44 -6.5
t-6 -43.5v-50q0 -37 6 -43.5t44 -6.5h125v-125q0 -38 6.5 -44t43.5 -6h50q37 0 43.5 6t6.5 44v125z" />
    <glyph glyph-name="uniE092" unicode="&#xe092;" 
d="M800 0h-650q-38 0 -44 6t-6 44v1100q0 38 6 44t44 6h900q38 0 44 -6t6 -44v-850zM200 100h558l242 250v750h-800v-1000zM600 717l-116 117q-22 22 -29.5 22t-29.5 -22l-59 -59q-22 -22 -22 -29t22 -29l118 -117l-118 -116q-22 -23 -22 -30t22 -29l59 -59q22 -22 29 -22
t30 22l116 118l117 -118q22 -22 29 -22t29 22l59 59q22 22 22 29.5t-22 29.5l-117 116l117 117q22 22 22 29t-22 29l-59 59q-22 22 -29 22t-29 -22z" />
    <glyph glyph-name="uniE093" unicode="&#xe093;" 
d="M800 0h-650q-38 0 -44 6t-6 44v1100q0 38 6 44t44 6h900q38 0 44 -6t6 -44v-850zM200 100h550l250 250v750h-800v-1000zM901 779v100h-130v120h-100v-120h-140v120h-100v-120h-130v-100h130v-130h-130v-100h130v-130h-130v-100h130v-120h100v120h140v-120h100v120h130
v100h-130v130h130v100h-130v130h130zM671 649h-140v130h140v-130zM671 419h-140v130h140v-130z" />
    <glyph glyph-name="uniE094" unicode="&#xe094;" 
d="M800 0h-650q-38 0 -44 6t-6 44v1100q0 38 6 44t44 6h900q38 0 44 -6t6 -44v-850zM200 100h558l242 250v750h-800v-1000zM300 900h600v100h-600v-100zM300 700h600v100h-600v-100zM300 500h600v100h-600v-100zM700 300v100h-400v-100h400z" />
    <glyph glyph-name="uniE095" unicode="&#xe095;" 
d="M800 0h-650q-38 0 -44 6t-6 44v1100q0 38 6 44t44 6h900q38 0 44 -6t6 -44v-850zM200 100h558l242 250v750h-800v-1000zM500 600v-200q0 -38 6 -44t44 -6h100q38 0 44 6t6 44v200h175l-275 300l-275 -300h175z" />
    <glyph glyph-name="uniE096" unicode="&#xe096;" 
d="M800 0h-650q-38 0 -44 6t-6 44v1100q0 38 6 44t44 6h900q38 0 44 -6t6 -44v-850z" />
    <glyph glyph-name="uniE097" unicode="&#xe097;" 
d="M800 0h-650q-38 0 -44 6t-6 44v1100q0 38 6 44t44 6h900q38 0 44 -6t6 -44v-850zM500 600h-175l275 -300l275 300h-175v200q0 38 -6 44t-44 6h-100q-38 0 -44 -6t-6 -44v-200z" />
    <glyph glyph-name="uniE098" unicode="&#xe098;" 
d="M800 0h-650q-38 0 -44 6t-6 44v1100q0 38 6 44t44 6h900q38 0 44 -6t6 -44v-850zM850 900h-450q-38 0 -44 -6t-6 -44v-500q0 -38 6 -44t44 -6t44 6t6 44v150h400l-150 200z" />
    <glyph glyph-name="uniE099" unicode="&#xe099;" 
d="M150 1200h900q38 0 44 -6t6 -44v-850l-300 -300h-650q-38 0 -44 6t-6 44v1100q0 38 6 44t44 6zM900 1000h-100v-100h-100v100h-100v-100h-100v100h-100v-100h-100v-100h100v-100h-100v-100h100v-100h-100v-100h100v-100h-100v-100h100v100h100v-100h100v100h100v-100h100
v100h100v100h-100v100h100v100h-100v100h100v100h-100v100h100v100zM500 800h-100v100h100v-100zM600 800v100h100v-100h-100zM600 700h-100v100h100v-100zM700 800h100v-100h-100v100zM500 600h-100v100h100v-100zM600 700h100v-100h-100v100zM600 500h-100v100h100v-100z
M700 600h100v-100h-100v100zM500 400h-100v100h100v-100zM600 500h100v-100h-100v100zM600 400v-100h-100v100h100zM700 400h100v-100h-100v100z" />
    <glyph glyph-name="uniE09A" unicode="&#xe09a;" 
d="M150 1200h900q38 0 44 -6t6 -44v-850l-300 -300h-650q-38 0 -44 6t-6 44v1100q0 38 6 44t44 6zM850 325v350q0 19 -3 22t-22 3h-50v50q0 75 -50 125t-125 50t-125 -50t-50 -125v-50h-50q-19 0 -22 -3t-3 -22v-350q0 -19 3 -22t22 -3h450q19 0 22 3t3 22zM600 825
q75 0 75 -75v-50h-150v50q0 75 75 75z" />
    <glyph glyph-name="uniE09B" unicode="&#xe09b;" 
d="M800 0h-650q-38 0 -44 6t-6 44v1100q0 38 6 44t44 6h900q38 0 44 -6t6 -44v-850zM400 500h400q38 0 44 6t6 44v50q0 38 -6 44t-44 6h-400q-38 0 -44 -6t-6 -44v-50q0 -38 6 -44t44 -6z" />
    <glyph glyph-name="uniE09C" unicode="&#xe09c;" 
d="M800 0h-650q-38 0 -44 6t-6 44v1100q0 38 6 44t44 6h900q38 0 44 -6t6 -44v-850zM675 500h125q38 0 44 6t6 44v50q0 38 -6 44t-44 6h-125v125q0 37 -6.5 43.5t-43.5 6.5h-50q-37 0 -43.5 -6.5t-6.5 -43.5v-125h-125q-38 0 -44 -6t-6 -44v-50q0 -38 6 -44t44 -6h125v-125
q0 -37 6.5 -43.5t43.5 -6.5h50q37 0 43.5 6.5t6.5 43.5v125z" />
    <glyph glyph-name="uniE09D" unicode="&#xe09d;" 
d="M800 0h-650q-38 0 -44 6t-6 44v1100q0 38 6 44t44 6h900q38 0 44 -6t6 -44v-850zM600 717l-116 117q-22 22 -29.5 22t-29.5 -22l-59 -59q-22 -22 -22 -29t22 -29l118 -117l-118 -116q-22 -23 -22 -30t22 -29l59 -59q22 -22 29 -22t30 22l116 118l117 -118q22 -22 29 -22
t29 22l59 59q22 22 22 29.5t-22 29.5l-117 116l117 117q22 22 22 29t-22 29l-59 59q-22 22 -29 22t-29 -22z" />
    <glyph glyph-name="uniE09E" unicode="&#xe09e;" 
d="M800 0h-650q-38 0 -44 6t-6 44v1100q0 38 6 44t44 6h900q38 0 44 -6t6 -44v-850zM901 779v100h-130v120h-100v-120h-140v120h-100v-120h-130v-100h130v-130h-130v-100h130v-130h-130v-100h130v-120h100v120h140v-120h100v120h130v100h-130v130h130v100h-130v130h130z
M531 779v-130h140v130h-140zM531 549v-130h140v130h-140z" />
    <glyph glyph-name="uniE09F" unicode="&#xe09f;" 
d="M800 0h-650q-38 0 -44 6t-6 44v1100q0 38 6 44t44 6h900q38 0 44 -6t6 -44v-850zM300 900h600v100h-600v-100zM300 700h600v100h-600v-100zM300 500h600v100h-600v-100zM700 300v100h-400v-100h400z" />
    <glyph glyph-name="uniE0A0" unicode="&#xe0a0;" 
d="M800 0h-650q-38 0 -44 6t-6 44v1100q0 38 6 44t44 6h900q38 0 44 -6t6 -44v-850zM500 600v-200q0 -38 6 -44t44 -6h100q38 0 44 6t6 44v200h175l-275 300l-275 -300h175z" />
    <glyph glyph-name="uniE0A1" unicode="&#xe0a1;" 
d="M500 600v446q0 40 6 47t44 7h100q38 0 44 -7t6 -47v-446h150l-250 -270l-250 270h150zM100 250v-100q0 -38 6 -44t44 -6h900q38 0 44 6t6 44v100q0 38 -6 44t-44 6h-900q-38 0 -44 -6t-6 -44z" />
    <glyph glyph-name="uniE0A2" unicode="&#xe0a2;" 
d="M150 100h100q38 0 44 6t6 44v900q0 38 -6 44t-44 6h-100q-38 0 -44 -6t-6 -44v-900q0 -38 6 -44t44 -6zM330 600l270 250v-150h446q40 0 47 -6t7 -44v-100q0 -38 -7 -44t-47 -6h-446v-150z" />
    <glyph glyph-name="uniE0A3" unicode="&#xe0a3;" 
d="M950 100h100q38 0 44 6t6 44v900q0 38 -6 44t-44 6h-100q-38 0 -44 -6t-6 -44v-900q0 -38 6 -44t44 -6zM600 500h-446q-40 0 -47 6t-7 44v100q0 38 7 44t47 6h446v150l270 -250l-270 -250v150z" />
    <glyph glyph-name="uniE0A4" unicode="&#xe0a4;" 
d="M100 1050v-100q0 -38 6 -44t44 -6h900q38 0 44 6t6 44v100q0 38 -6 44t-44 6h-900q-38 0 -44 -6t-6 -44zM600 870l250 -270h-150v-446q0 -40 -6 -47t-44 -7h-100q-38 0 -44 7t-6 47v446h-150z" />
    <glyph glyph-name="uniE0A5" unicode="&#xe0a5;" 
d="M600 1100l-550 -600h1100zM1200 150v200q0 38 -6 44t-44 6h-1100q-38 0 -44 -6t-6 -44v-200q0 -38 6 -44t44 -6h1100q38 0 44 6t6 44z" />
    <glyph glyph-name="uniE0A6" unicode="&#xe0a6;" 
d="M600 800q-41 0 -70.5 29.5t-29.5 70.5t29.5 70.5t70.5 29.5t70.5 -29.5t29.5 -70.5t-29.5 -70.5t-70.5 -29.5zM600 500q-41 0 -70.5 29.5t-29.5 70.5t29.5 70.5t70.5 29.5t70.5 -29.5t29.5 -70.5t-29.5 -70.5t-70.5 -29.5zM600 200q-41 0 -70.5 29.5t-29.5 70.5
t29.5 70.5t70.5 29.5t70.5 -29.5t29.5 -70.5t-29.5 -70.5t-70.5 -29.5z" />
    <glyph glyph-name="uniE0A7" unicode="&#xe0a7;" 
d="M300 500q-41 0 -70.5 29.5t-29.5 70.5t29.5 70.5t70.5 29.5t70.5 -29.5t29.5 -70.5t-29.5 -70.5t-70.5 -29.5zM600 500q-41 0 -70.5 29.5t-29.5 70.5t29.5 70.5t70.5 29.5t70.5 -29.5t29.5 -70.5t-29.5 -70.5t-70.5 -29.5zM900 500q-41 0 -70.5 29.5t-29.5 70.5
t29.5 70.5t70.5 29.5t70.5 -29.5t29.5 -70.5t-29.5 -70.5t-70.5 -29.5z" />
    <glyph glyph-name="uniE0A8" unicode="&#xe0a8;" 
d="M754 1200l-23 -111q-68 13 -131 13q-101 0 -191 -31t-155 -77.5t-125.5 -117t-99.5 -134t-79 -142.5q43 -90 98.5 -168.5t126.5 -149t161.5 -117t189.5 -60.5l-22 -105h175l250 1200h-175zM1016 930l-160 -768q132 69 231 185.5t163 252.5q-94 201 -234 330zM693 907
l-42 -202q-26 12 -51 12q-48 0 -82.5 -34.5t-34.5 -82.5t34.5 -82.5t83.5 -34.5h4l-42 -201q-118 14 -201 105.5t-83 212.5q0 131 95 226t227 95q47 0 92 -14z" />
    <glyph glyph-name="uniE0A9" unicode="&#xe0a9;" 
d="M600 100q94 0 182 30.5t156 79.5t129.5 116.5t104.5 134t78 139.5q-45 93 -103.5 175.5t-139 158.5t-186 121t-221.5 45t-221.5 -45t-186 -121t-139 -158.5t-103.5 -175.5q35 -73 78 -139.5t104.5 -134t129.5 -116.5t156 -79.5t182 -30.5zM600 300q-123 0 -211.5 88.5
t-88.5 211.5t88.5 211.5t211.5 88.5t211.5 -88.5t88.5 -211.5t-88.5 -211.5t-211.5 -88.5zM600 450q-56 0 -103 47t-47 103t47 103t103 47t103 -47t47 -103t-47 -103t-103 -47z" />
    <glyph glyph-name="uniE0AA" unicode="&#xe0aa;" 
d="M1200 0l-500 500v-500l-500 500v-450q0 -38 -6 -44t-44 -6h-100q-38 0 -44 6t-6 44v1100q0 38 6 44t44 6h100q38 0 44 -6t6 -44v-450l500 500v-500l500 500v-1200z" />
    <glyph glyph-name="uniE0AB" unicode="&#xe0ab;" 
d="M1050 1200h100q38 0 44 -6t6 -44v-1100q0 -38 -6 -44t-44 -6h-100q-38 0 -44 6t-6 44v450l-500 -500v500l-500 -500v1200l500 -500v500l500 -500v450q0 38 6 44t44 6z" />
    <glyph glyph-name="uniE0AC" unicode="&#xe0ac;" 
d="M1199 1200v-252q-44 -122 -118 -239t-155.5 -205t-171 -162t-166 -121t-139.5 -71q-146 3 -205 55q-41 -33 -115 -71.5t-148 -62.5q-37 1 -48 19.5t13 42.5q140 40 266 115q-34 77 31 226q132 68 339 249.5t329 372.5zM254 237q67 34 160.5 97.5t207 157.5t218 197.5
t195.5 227.5t137 237q-38 -76 -100.5 -160.5t-130 -158.5t-152 -154.5t-154.5 -141.5t-151.5 -126t-129.5 -101.5t-100 -74.5z" />
    <glyph glyph-name="uniE0AD" unicode="&#xe0ad;" 
d="M820 410l280 -150q22 -44 34.5 -109t14.5 -108l1 -43h-100q-2 26 -4 56.5t-3 44.5t-2.5 31t-3 25t-3 16.5t-4.5 16.5l-80 40v-230h-700v225l-75 -40q-8 -24 -13 -58.5t-12 -126.5h-100q0 18 1.5 47.5t14 99t34.5 113.5l280 150q49 24 63 60q-40 14 -75 36.5t-57.5 43
t-39.5 39t-24 30.5l-7 11q6 7 14 22t22 79.5t14 148.5q0 129 84 224.5t226 95.5q141 0 225.5 -88t84.5 -232q0 -84 12.5 -146.5t25.5 -83.5l12 -20q-2 -5 -7 -12.5t-23 -30t-39 -42t-56.5 -42.5t-75.5 -38q15 -32 61 -55zM472 1056q-39 -31 -60.5 -78t-21.5 -98
q0 -80 27 -153.5t76 -120t107 -46.5q55 0 96 24.5t65.5 68.5t36.5 101t12 126q0 31 -5 59q-42 -5 -84 -3.5t-80 10t-81.5 36t-87.5 74.5zM550 855q0 -23 -14 -38.5t-36 -15.5q-14 0 -28 7t-23.5 15.5t-28.5 27.5q19 32 46.5 43.5t50.5 1t33 -40.5zM700 801q-22 0 -36 15.5
t-14 38.5q10 30 33 40.5t50.5 -1t46.5 -43.5q-19 -19 -28.5 -27.5t-23.5 -15.5t-28 -7zM850 280l-20 10q-35 19 -53.5 29.5t-43 27t-37.5 29.5t-24.5 30t-16.5 36q-22 -2 -45 -2q-33 0 -64 4q-12 -45 -51.5 -76t-124.5 -78l-20 -11v-76q125 19 250 -81q125 100 250 81v77z
" />
    <glyph glyph-name="uniE0AE" unicode="&#xe0ae;" 
d="M820 410l280 -150q22 -44 34.5 -109t14.5 -108l1 -43h-100q-2 26 -4 56.5t-3 44.5t-2.5 31t-3 25t-3 16.5t-4.5 16.5l-80 40v-230h-700v227l-70 -37q-20 -60 -30 -190h-100q0 18 1.5 47.5t14 99t34.5 113.5l280 150q56 28 67 73q-132 47 -216 163.5t-84 259.5
q0 91 36 174.5t96.5 143.5t144.5 96t176 36t176 -36t144.5 -96t96.5 -143.5t36 -174.5q0 -145 -83.5 -260.5t-216.5 -163.5q11 -44 67 -72zM600 974q-60 0 -102 -7t-63 -16t-31.5 -26t-12 -27t-1.5 -28q0 -73 18.5 -133.5t48.5 -98.5t67 -58.5t76 -20.5t75.5 20.5t67 58.5
t49 98t18.5 134q0 11 -0.5 17.5t-4.5 19t-11.5 20t-23 17.5t-37 16t-56 10t-77.5 4zM550 855q0 -23 -14 -38.5t-36 -15.5q-14 0 -28 7t-23.5 15.5t-28.5 27.5q19 32 46.5 43.5t50.5 1t33 -40.5zM700 801q-22 0 -36 15.5t-14 38.5q10 30 33 40.5t50.5 -1t46.5 -43.5
q-19 -19 -28.5 -27.5t-23.5 -15.5t-28 -7zM850 280l-20 10q-37 20 -57 31.5t-45.5 29.5t-38.5 32t-24 34t-14 42q-25 -3 -51 -3t-52 3q-8 -47 -51 -84t-127 -85l-20 -11v-76q125 20 250 -80q125 100 250 80v77z" />
    <glyph glyph-name="uniE0AF" unicode="&#xe0af;" 
d="M820 410l280 -150q22 -44 34.5 -109t13.5 -108l2 -43h-100q-2 26 -4 56.5t-3 44.5t-2.5 31t-3 25t-3 16.5t-4.5 16.5l-80 40v-230h-700v227l-70 -37q-20 -60 -30 -190h-100q0 18 1.5 47.5t14 99t34.5 113.5l280 150q66 33 70 93q-72 57 -111 161t-39 216q0 73 27 139.5
t78 111.5l-1 12q0 83 58.5 141.5t141.5 58.5t141.5 -58.5t58.5 -141.5v-16q96 -88 96 -247q0 -128 -36 -231.5t-113 -155.5q7 -52 69 -83zM390 870q0 -73 18.5 -133.5t48.5 -98.5t67 -58.5t76 -20.5t75.5 20.5t67 58.5t49 98t18.5 134q0 11 -0.5 17t-4.5 18.5t-11.5 20.5
t-23 18t-37 16t-56 10t-77.5 4q-60 0 -102 -7t-63 -16t-31.5 -26t-12 -27t-1.5 -28zM550 855q0 -23 -14 -38.5t-36 -15.5q-14 0 -28 7t-23.5 15.5t-28.5 27.5q19 32 46.5 43.5t50.5 1t33 -40.5zM700 801q-22 0 -36 15.5t-14 38.5q10 30 33 40.5t50.5 -1t46.5 -43.5
q-19 -19 -28.5 -27.5t-23.5 -15.5t-28 -7zM850 280l-20 10q-46 25 -69.5 39t-50.5 35t-40 42.5t-18 47.5q-25 -4 -52 -4t-52 6q-10 -46 -52.5 -82.5t-125.5 -83.5l-20 -11v-76q125 19 250 -81q125 100 250 81v77z" />
    <glyph glyph-name="uniE0B0" unicode="&#xe0b0;" 
d="M820 410l280 -150q22 -44 34.5 -109t14.5 -108l1 -43h-100q-2 26 -4 56.5t-3 44.5t-2.5 31t-3 25t-3 16.5t-4.5 16.5l-80 40v-230h-700v225l-75 -40q-8 -24 -13 -58.5t-12 -126.5h-100q0 18 1.5 47.5t14 99t34.5 113.5l280 150q66 33 70 91q-74 56 -118 162
q-26 -46 -51 -102q-29 100 -35 194t13 174.5t60.5 140.5t112.5 94.5t165 35.5h3h1q367 0 344 -468l-43 40q-29 -202 -151 -280q8 -51 69 -82zM403 772q23 -91 76.5 -151.5t120.5 -60.5q55 0 96 24.5t65.5 68.5t36.5 101t12 126q0 41 -9 75q-85 0 -149.5 -13t-124.5 -52
q16 -12 23 -35q0 -23 -14 -38.5t-36 -15.5q-25 0 -52 23q-23 -24 -45 -52zM700 801q-22 0 -36 15.5t-14 38.5q10 30 33 40.5t50.5 -1t46.5 -43.5q-19 -19 -28.5 -27.5t-23.5 -15.5t-28 -7zM850 280l-20 10q-46 25 -69.5 39t-50.5 35t-40 42.5t-18 47.5q-25 -4 -52 -4t-52 5
q-3 -21 -14 -40t-24 -33.5t-38.5 -31.5t-45 -28.5t-56.5 -31.5l-20 -11v-76q125 19 250 -81q125 100 250 81v77z" />
    <glyph glyph-name="uniE0B1" unicode="&#xe0b1;" 
d="M894 370l206 -110q22 -44 34.5 -109t14.5 -108l1 -43h-100q-2 26 -4 56.5t-3 44.5t-2.5 31t-3 25t-3 16.5t-4.5 16.5l-80 40v-230h-700v225l-75 -40q-8 -24 -13 -58.5t-12 -126.5h-100q0 18 1.5 47.5t14 99t34.5 113.5l195 104q25 35 29.5 94.5t-4.5 117.5t-19.5 147
t-10.5 157q0 61 20.5 117.5t59 102t98.5 73t132 27.5q139 0 224.5 -88.5t85.5 -231.5v-1v-2q0 -67 -11.5 -153.5t-21 -144t-7.5 -115.5t24 -94zM472 1056q-39 -31 -60.5 -78t-21.5 -98q0 -80 27 -153.5t76 -120t107 -46.5q55 0 96 24.5t65.5 68.5t36.5 101t12 126
q0 31 -5 59q-42 -5 -84 -3.5t-80 10t-81.5 36t-87.5 74.5zM550 855q0 -23 -14 -38.5t-36 -15.5q-14 0 -28 7t-23.5 15.5t-28.5 27.5q19 32 46.5 43.5t50.5 1t33 -40.5zM700 801q-22 0 -36 15.5t-14 38.5q10 30 33 40.5t50.5 -1t46.5 -43.5q-19 -19 -28.5 -27.5t-23.5 -15.5
t-28 -7zM850 280l-20 10q-46 25 -69.5 39t-50.5 35t-40 42.5t-18 47.5q-25 -4 -52 -4t-52 5q-3 -21 -14 -40t-24 -33.5t-38.5 -31.5t-45 -28.5t-56.5 -31.5l-20 -11v-76q125 19 250 -80q125 99 250 80v77z" />
    <glyph glyph-name="uniE0B2" unicode="&#xe0b2;" 
d="M1057 283l43 -23q22 -44 34.5 -109t13.5 -108l2 -43h-1100q0 18 1.5 47.5t14 99t34.5 113.5l43 23q24 16 44 39.5t34 47t25.5 58.5t18.5 62.5t12 72t7.5 73.5t4 80.5t1.5 80v83.5q0 61 20.5 117.5t59 102t98.5 73t132 27.5q139 0 224.5 -88.5t85.5 -231.5v-83.5t1.5 -80
t4 -80.5t7.5 -73.5t12 -72t18.5 -62.5t25.5 -58.5t34 -47t44 -39.5zM455 873q-32 -2 -65 -7q2 -57 18 -112q104 -31 195.5 -30.5t195.5 32.5q10 50 11 110q-32 4 -65 7q5 -10 5 -23q0 -23 -13.5 -36.5t-36 -13.5t-36.5 13.5t-14 36.5q0 17 8 29q-58 2 -116 0q8 -12 8 -29
q0 -23 -14 -36.5t-36 -13.5t-36 13.5t-14 36.5q0 13 5 23z" />
    <glyph glyph-name="uniE0B3" unicode="&#xe0b3;" 
d="M820 410l280 -150q22 -44 34.5 -109t14.5 -108l1 -43h-100q-2 26 -4 56.5t-3 44.5t-2.5 31t-3 25t-3 16.5t-4.5 16.5l-80 40v-230h-700v227l-70 -37q-20 -60 -30 -190h-100q0 18 1.5 47.5t14 99t34.5 113.5l280 150q66 33 70 93q-89 71 -128 215q-62 -36 -62 -218h-113
q0 82 13.5 144t37 99t49 57t55.5 28q-2 26 -2 52q0 61 19 117.5t55.5 102t95 73t130.5 27.5q138 0 219 -88t81 -232q0 -25 -1 -50q30 -6 56 -25t49.5 -55t37 -100t14.5 -150h-113q0 189 -59 220q-34 -161 -133 -227q7 -52 69 -83zM390 870q0 -73 18.5 -133.5t48.5 -98.5
t67 -58.5t76 -20.5q38 0 75 20.5t67.5 58.5t49 98t18.5 134q0 11 -0.5 17t-4.5 18.5t-11.5 20.5t-23 18t-37 16t-56 10t-77.5 4q-60 0 -102 -7t-63 -16t-31.5 -26t-12 -27t-1.5 -28zM550 855q0 -23 -14 -38.5t-36 -15.5q-14 0 -28 7t-23.5 15.5t-28.5 27.5q19 32 46.5 43.5
t50.5 1t33 -40.5zM700 801q-22 0 -36 15.5t-14 38.5q10 30 33 40.5t50.5 -1t46.5 -43.5q-19 -19 -28.5 -27.5t-23.5 -15.5t-28 -7zM361 727v-1v1zM850 727l1 -1zM850 280l-20 10q-46 25 -69.5 39t-50.5 35t-40 42.5t-18 47.5q-25 -4 -52 -4t-52 6q-10 -46 -52.5 -82.5
t-125.5 -83.5l-20 -11v-76q125 19 250 -80q125 99 250 80v77z" />
    <glyph glyph-name="uniE0B4" unicode="&#xe0b4;" 
d="M820 410l280 -150q22 -44 34.5 -109t14.5 -108l1 -43h-100q-2 26 -4 56.5t-3 44.5t-2.5 31t-3 25t-3 16.5t-4.5 16.5l-80 40v-230h-700v227l-70 -37q-20 -60 -30 -190h-100q0 18 1.5 47.5t14 99t34.5 113.5l280 150q66 33 70 93q-48 38 -83 100q-13 -47 -35 -88
q-33 -61 -65 -84l-66 80q7 7 14 13.5t24 30t29 50t22 72t10 97.5v106q0 61 19 117.5t55.5 102t95 73t130.5 27.5q138 0 219 -88t81 -232v-106q0 -52 10 -97.5t22 -72t29 -50t24 -30t14 -13.5l-66 -80q-32 23 -65 84q-18 34 -31 74q-35 -62 -86 -96q7 -52 69 -83zM390 880
q0 -80 27 -153.5t76 -120t107 -46.5q55 0 96 24.5t65.5 68.5t36.5 101t12 126q0 31 -5 59q-42 -5 -84 -3.5t-80 10t-81.5 36t-87.5 74.5q-39 -31 -60.5 -78t-21.5 -98zM550 855q0 -23 -14 -38.5t-36 -15.5q-14 0 -28 7t-23.5 15.5t-28.5 27.5q19 32 46.5 43.5t50.5 1
t33 -40.5zM700 801q-22 0 -36 15.5t-14 38.5q10 30 33 40.5t50.5 -1t46.5 -43.5q-19 -19 -28.5 -27.5t-23.5 -15.5t-28 -7zM200 512v-1v1zM999 511l1 1zM850 280l-20 10q-46 25 -69.5 39t-50.5 35t-40 42.5t-18 47.5q-25 -4 -52 -4t-52 6q-10 -46 -52.5 -82.5t-125.5 -83.5
l-20 -11v-76q125 19 250 -81q125 100 250 81v77z" />
    <glyph glyph-name="uniE0B5" unicode="&#xe0b5;" 
d="M820 410l280 -150q22 -44 34.5 -109t14.5 -108l1 -43h-1100q0 18 1.5 47.5t14 99t34.5 113.5l280 150q49 24 63 60q-40 14 -75 36.5t-57.5 43t-39.5 39t-24 30.5l-7 11q6 7 14 22t22 79.5t14 148.5q0 129 84 224.5t226 95.5q141 0 225.5 -88t84.5 -232q0 -84 12.5 -146.5
t25.5 -83.5l12 -20q-2 -5 -7 -12.5t-23 -30t-39 -42t-56.5 -42.5t-75.5 -38q15 -32 61 -55zM470 1054q-38 -31 -59 -77.5t-21 -96.5q0 -82 27 -155.5t76 -119t107 -45.5q105 0 157.5 87t52.5 233q0 31 -6 59q-43 -5 -84.5 -3.5t-80 10t-81.5 35.5t-88 73zM550 855
q0 -23 -14 -38.5t-36 -15.5q-14 0 -28 7t-23.5 15.5t-28.5 27.5q19 32 46.5 43.5t50.5 1t33 -40.5zM700 801q-22 0 -36 15.5t-14 38.5q10 30 33 40.5t50.5 -1t46.5 -43.5q-19 -19 -28.5 -27.5t-23.5 -15.5t-28 -7z" />
    <glyph glyph-name="uniE0B6" unicode="&#xe0b6;" 
d="M612 1024l18 18q123 123 265 164.5t288 -5t277 -177.5q-106 36 -218.5 17.5t-210.5 -69.5t-172 -124l-35 -36l212 -212h-636v636zM50 848h50q38 0 44 6.5t6 47.5v43q0 41 -6 48t-44 7h-50q-38 0 -44 -7t-6 -48v-43q0 -41 6 -47.5t44 -6.5zM50 565h50q38 0 44 7t6 48v43
q0 41 -6 48t-44 7h-50q-38 0 -44 -7t-6 -48v-43q0 -41 6 -48t44 -7zM50 283h50q38 0 44 6.5t6 47.5v43q0 41 -6 48t-44 7h-50q-38 0 -44 -7t-6 -48v-43q0 -41 6 -47.5t44 -6.5zM900 283h50q38 0 44 6.5t6 47.5v43q0 41 -6 48t-44 7h-50q-38 0 -44 -7t-6 -48v-43
q0 -41 6 -47.5t44 -6.5zM50 0h50q38 0 44 7t6 47v44q0 41 -6 47.5t-44 6.5h-50q-38 0 -44 -6.5t-6 -47.5v-44q0 -40 6 -47t44 -7zM283 100v-50q0 -38 6.5 -44t47.5 -6h43q41 0 48 6t7 44v50q0 38 -7 44t-48 6h-43q-41 0 -47.5 -6t-6.5 -44zM565 100v-50q0 -38 7 -44t48 -6
h43q41 0 48 6t7 44v50q0 38 -7 44t-48 6h-43q-41 0 -48 -6t-7 -44zM848 100v-50q0 -38 6.5 -44t47.5 -6h43q41 0 48 6t7 44v50q0 38 -7 44t-48 6h-43q-41 0 -47.5 -6t-6.5 -44z" />
    <glyph glyph-name="uniE0B7" unicode="&#xe0b7;" 
d="M900 900h250q38 0 44 -6t6 -44v-800q0 -38 -6 -44t-44 -6h-800q-18 0 -29 4t-15 12.5t-5 14.5t-1 19v250h-250q-38 0 -44 6t-6 44v800q0 38 6 44t44 6h800q38 0 44 -6t6 -44v-250zM350 850v-500h500v500h-500z" />
    <glyph glyph-name="uniE0B8" unicode="&#xe0b8;" 
d="M1300 1088l-649 -640q-84 126 -213 212l650 640q75 -25 130.5 -81t81.5 -131zM1200 860v-810q0 -38 -6 -44t-44 -6h-1100q-38 0 -44 6t-6 44v1100q0 38 6 44t44 6h800l-150 -150h-550v-900h900v559zM303 312l77 214q75 -61 136 -136z" />
    <glyph glyph-name="uniE0B9" unicode="&#xe0b9;" 
d="M800 600h-50q-49 0 -104.5 -8t-123 -26.5t-127.5 -59t-95 -96.5q0 122 37.5 217.5t103 154t150.5 88.5t184 30h25v250l444 -400l-444 -400v250zM1100 485v-335q0 -38 -6 -44t-44 -6h-900q-38 0 -44 6t-6 44v900q0 38 6 44t44 6h550v-100h-500v-800h800v200z" />
    <glyph glyph-name="uniE0BA" unicode="&#xe0ba;" 
d="M200 500v675q83 -28 179 -28.5t189.5 14t191 29t214 13.5t226.5 -28l-200 -325l200 -350q-110 27 -226.5 28t-214 -13.5t-191 -29t-189.5 -14t-179 28.5zM0 1150v-1100q0 -38 6 -44t44 -6t44 6t6 44v1100q0 38 -6 44t-44 6t-44 -6t-6 -44z" />
    <glyph glyph-name="uniE0BB" unicode="&#xe0bb;" 
d="M1100 900h125q56 0 62.5 -6t-12.5 -44l-175 -350v-350q0 -38 -6 -44t-44 -6h-900q-38 0 -44 6t-6 44v350l-150 350q-19 38 -12.5 44t62.5 6h100v150q0 38 6 44t44 6h900q38 0 44 -6t6 -44v-150zM1150 800h-1075l125 -300v-300h800v300zM600 275l-200 225h100v150
q0 38 6 44t44 6h100q38 0 44 -6t6 -44v-150h100z" />
    <glyph glyph-name="uniE0BC" unicode="&#xe0bc;" horiz-adv-x="600" 
d="M900 1100h150q38 0 44 -6t6 -44v-900q0 -38 -6 -44t-44 -6h-150v-100q0 -56 -6 -62.5t-44 12.5l-350 150h-350q-38 0 -44 6t-6 44v900q0 38 6 44t44 6h350l350 175q38 19 44 12.5t6 -62.5v-125zM800 1150l-300 -150h-300v-800h300l300 -125v1075zM500 700h150q38 0 44 -6
t6 -44v-100q0 -38 -6 -44t-44 -6h-150v-100l-225 200l225 200v-100z" />
    <glyph glyph-name="uniE0BD" unicode="&#xe0bd;" 
d="M700 1100h350q38 0 44 -6t6 -44v-900q0 -38 -6 -44t-44 -6h-350l-350 -150q-38 -19 -44 -12.5t-6 62.5v100h-150q-38 0 -44 6t-6 44v900q0 38 6 44t44 6h150v125q0 56 6 62.5t44 -12.5zM1000 1000h-300l-300 150v-1075l300 125h300v800zM700 800l225 -200l-225 -200v100
h-150q-38 0 -44 6t-6 44v100q0 38 6 44t44 6h150v100z" />
    <glyph glyph-name="uniE0BE" unicode="&#xe0be;" 
d="M1100 700l175 -350q19 -38 12.5 -44t-62.5 -6h-125v-150q0 -38 -6 -44t-44 -6h-900q-38 0 -44 6t-6 44v150h-100q-56 0 -62.5 6t12.5 44l150 350v350q0 38 6 44t44 6h900q38 0 44 -6t6 -44v-350zM1150 400l-150 300v300h-800v-300l-125 -300h1075zM600 925l200 -225h-100
v-150q0 -38 -6 -44t-44 -6h-100q-38 0 -44 6t-6 44v150h-100z" />
    <glyph glyph-name="uniE0BF" unicode="&#xe0bf;" 
d="M1100 950v-900q0 -38 -6 -44t-44 -6h-1000q-38 0 -44 6t-6 44v1000q0 38 6 44t44 6h150v-500h700v500h50zM800 1100v-400h-100v400h100zM950 100q19 0 34.5 15.5t15.5 34.5t-15.5 34.5t-34.5 15.5t-34.5 -15.5t-15.5 -34.5t15.5 -34.5t34.5 -15.5z" />
    <glyph glyph-name="uniE0C0" unicode="&#xe0c0;" 
d="M0 1050v-200q81 35 170.5 45.5t173 0.5t170 -28l173 -36t170 -28t173 0.5t170.5 45.5v200q-81 -35 -170.5 -45.5t-173 -0.5t-170 28l-173 36t-170 28t-173 -0.5t-170.5 -45.5zM0 700v-200q81 35 170.5 45.5t173 0.5t170 -28l173 -36t170 -28t173 0.5t170.5 45.5v200
q-81 -35 -170.5 -45.5t-173 -0.5t-170 28l-173 36t-170 28t-173 -0.5t-170.5 -45.5zM0 350v-200q81 35 170.5 45.5t173 0.5t170 -28l173 -36t170 -28t173 0.5t170.5 45.5v200q-81 -35 -170.5 -45.5t-173 -0.5t-170 28l-173 36t-170 28t-173 -0.5t-170.5 -45.5z" />
    <glyph glyph-name="uniE0C1" unicode="&#xe0c1;" 
d="M425 1000h725q38 0 44 -6t6 -44v-900q0 -38 -6 -44t-44 -6h-1100q-38 0 -44 6t-6 44v1000q0 38 6 44t44 6h300z" />
    <glyph glyph-name="uniE0C2" unicode="&#xe0c2;" 
d="M425 1000h725q38 0 44 -6t6 -44v-900q0 -38 -6 -44t-44 -6h-1100q-38 0 -44 6t-6 44v1000q0 38 6 44t44 6h300zM500 500h-200l300 -300l300 300h-200v200q0 38 -6 44t-44 6h-100q-38 0 -44 -6t-6 -44v-200z" />
    <glyph glyph-name="uniE0C3" unicode="&#xe0c3;" 
d="M425 1000h725q38 0 44 -6t6 -44v-900q0 -38 -6 -44t-44 -6h-1100q-38 0 -44 6t-6 44v1000q0 38 6 44t44 6h300zM100 100h1000v800h-1000v-800zM500 500h-200l300 -300l300 300h-200v200q0 38 -6 44t-44 6h-100q-38 0 -44 -6t-6 -44v-200z" />
    <glyph glyph-name="uniE0C4" unicode="&#xe0c4;" 
d="M425 1000h725q38 0 44 -6t6 -44v-900q0 -38 -6 -44t-44 -6h-1100q-38 0 -44 6t-6 44v1000q0 38 6 44t44 6h300zM509 603l-234 -26l182 -143l-65 -234l208 130l195 -130l-52 234l182 143l-234 26l-91 221z" />
    <glyph glyph-name="uniE0C5" unicode="&#xe0c5;" 
d="M425 1000h725q38 0 44 -6t6 -44v-900q0 -38 -6 -44t-44 -6h-1100q-38 0 -44 6t-6 44v1000q0 38 6 44t44 6h300zM100 100h1000v800h-1000v-800zM509 603l-234 -26l182 -143l-65 -234l208 130l195 -130l-52 234l182 143l-234 26l-91 221z" />
    <glyph glyph-name="uniE0C6" unicode="&#xe0c6;" 
d="M425 1000h725q38 0 44 -6t6 -44v-900q0 -38 -6 -44t-44 -6h-1100q-38 0 -44 6t-6 44v1000q0 38 6 44t44 6h300zM900 800h-550q-38 0 -44 -6t-6 -44v-500q0 -38 6 -44t44 -6t44 6t6 44v150h500l-150 200z" />
    <glyph glyph-name="uniE0C7" unicode="&#xe0c7;" 
d="M425 1000h725q38 0 44 -6t6 -44v-900q0 -38 -6 -44t-44 -6h-1100q-38 0 -44 6t-6 44v1000q0 38 6 44t44 6h300zM100 100h1000v800h-1000v-800zM900 800h-550q-38 0 -44 -6t-6 -44v-500q0 -38 6 -44t44 -6t44 6t6 44v150h500l-150 200z" />
    <glyph glyph-name="uniE0C8" unicode="&#xe0c8;" 
d="M425 1000h725q38 0 44 -6t6 -44v-900q0 -38 -6 -44t-44 -6h-1100q-38 0 -44 6t-6 44v1000q0 38 6 44t44 6h300zM850 225v350q0 19 -3 22t-22 3h-50v50q0 75 -50 125t-125 50t-125 -50t-50 -125v-50h-50q-19 0 -22 -3t-3 -22v-350q0 -19 3 -22t22 -3h450q19 0 22 3t3 22z
M600 725q75 0 75 -75v-50h-150v50q0 75 75 75z" />
    <glyph glyph-name="uniE0C9" unicode="&#xe0c9;" 
d="M425 1000h725q38 0 44 -6t6 -44v-900q0 -38 -6 -44t-44 -6h-1100q-38 0 -44 6t-6 44v1000q0 38 6 44t44 6h300zM1100 900h-1000v-800h1000v800zM825 200h-450q-19 0 -22 3t-3 22v350q0 19 3 22t22 3h50v50q0 75 50 125t125 50t125 -50t50 -125v-50h50q19 0 22 -3t3 -22
v-350q0 -19 -3 -22t-22 -3zM525 600h150v50q0 75 -75 75t-75 -75v-50z" />
    <glyph glyph-name="uniE0CA" unicode="&#xe0ca;" 
d="M425 1000h725q38 0 44 -6t6 -44v-900q0 -38 -6 -44t-44 -6h-1100q-38 0 -44 6t-6 44v1000q0 38 6 44t44 6h300zM800 575h-400q-38 0 -44 -6.5t-6 -43.5v-50q0 -37 6 -43.5t44 -6.5h400q38 0 44 6.5t6 43.5v50q0 37 -6 43.5t-44 6.5z" />
    <glyph glyph-name="uniE0CB" unicode="&#xe0cb;" 
d="M425 1000h725q38 0 44 -6t6 -44v-900q0 -38 -6 -44t-44 -6h-1100q-38 0 -44 6t-6 44v1000q0 38 6 44t44 6h300zM100 100h1000v800h-1000v-800zM800 575h-400q-38 0 -44 -6.5t-6 -43.5v-50q0 -37 6 -43.5t44 -6.5h400q38 0 44 6.5t6 43.5v50q0 37 -6 43.5t-44 6.5z" />
    <glyph glyph-name="uniE0CC" unicode="&#xe0cc;" 
d="M425 1000h725q38 0 44 -6t6 -44v-150h-975l-225 -550v800q0 38 6 44t44 6h300zM1 0h1150q37 0 46 6t28 44l276 650h-1200z" />
    <glyph glyph-name="uniE0CD" unicode="&#xe0cd;" 
d="M0 900v150q0 38 6 44t44 6h300l75 -100h725q38 0 44 -6t6 -44v-50h-1200zM1200 0h-1200l-100 800h1400z" />
    <glyph glyph-name="uniE0CE" unicode="&#xe0ce;" 
d="M425 1000h725q38 0 44 -6t6 -44v-150h-100v100h-1000v-400l-100 -250v800q0 38 6 44t44 6h300zM1 0h1150q37 0 46 6t28 44l276 650h-1200zM1150 100h-1000l225 500h975z" />
    <glyph glyph-name="uniE0CF" unicode="&#xe0cf;" 
d="M0 900v150q0 38 6 44t44 6h300l75 -100h725q38 0 44 -6t6 -44v-50h-1200zM1200 0h-1200l-100 800h1400zM13 700l75 -600h1024l75 600h-1174z" />
    <glyph glyph-name="uniE0D0" unicode="&#xe0d0;" 
d="M425 1000h725q38 0 44 -6t6 -44v-900q0 -38 -6 -44t-44 -6h-1100q-38 0 -44 6t-6 44v1000q0 38 6 44t44 6h300zM700 600v150q0 38 -6 44t-44 6h-100q-38 0 -44 -6t-6 -44v-150h-150q-38 0 -44 -6t-6 -44v-100q0 -38 6 -44t44 -6h150v-150q0 -38 6 -44t44 -6h100
q38 0 44 6t6 44v150h150q38 0 44 6t6 44v100q0 38 -6 44t-44 6h-150z" />
    <glyph glyph-name="uniE0D1" unicode="&#xe0d1;" 
d="M425 1000h725q38 0 44 -6t6 -44v-900q0 -38 -6 -44t-44 -6h-1100q-38 0 -44 6t-6 44v1000q0 38 6 44t44 6h300zM100 100h1000v800h-1000v-800zM675 575v125q0 38 -6.5 44t-43.5 6h-50q-37 0 -43.5 -6t-6.5 -44v-125h-125q-38 0 -44 -6.5t-6 -43.5v-50q0 -37 6 -43.5
t44 -6.5h125v-125q0 -38 6.5 -44t43.5 -6h50q37 0 43.5 6t6.5 44v125h125q38 0 44 6.5t6 43.5v50q0 37 -6 43.5t-44 6.5h-125z" />
    <glyph glyph-name="uniE0D2" unicode="&#xe0d2;" 
d="M425 1000h725q38 0 44 -6t6 -44v-900q0 -38 -6 -44t-44 -6h-1100q-38 0 -44 6t-6 44v1000q0 38 6 44t44 6h300zM600 616l-116 118q-23 22 -30.5 22t-28.5 -22l-59 -59q-22 -21 -22 -28.5t22 -30.5l118 -116l-118 -116q-22 -23 -22 -30.5t22 -28.5l59 -59q21 -22 28.5 -22
t30.5 22l116 118l116 -118q23 -22 30.5 -22t28.5 22l59 59q22 21 22 28.5t-22 30.5l-118 116l118 116q22 23 22 30.5t-22 28.5l-59 59q-21 22 -28.5 22t-30.5 -22z" />
    <glyph glyph-name="uniE0D3" unicode="&#xe0d3;" 
d="M425 1000h725q38 0 44 -6t6 -44v-900q0 -38 -6 -44t-44 -6h-1100q-38 0 -44 6t-6 44v1000q0 38 6 44t44 6h300zM100 100h1000v800h-1000v-800zM600 616l-116 118q-23 22 -30.5 22t-28.5 -22l-59 -59q-22 -21 -22 -28.5t22 -30.5l118 -116l-118 -116q-22 -23 -22 -30.5
t22 -28.5l59 -59q21 -22 28.5 -22t30.5 22l116 118l116 -118q23 -22 30.5 -22t28.5 22l59 59q22 21 22 28.5t-22 30.5l-118 116l118 116q22 23 22 30.5t-22 28.5l-59 59q-21 22 -28.5 22t-30.5 -22z" />
    <glyph glyph-name="uniE0D4" unicode="&#xe0d4;" 
d="M425 1000h725q38 0 44 -6t6 -44v-900q0 -38 -6 -44t-44 -6h-1100q-38 0 -44 6t-6 44v1000q0 38 6 44t44 6h300zM500 500v-200q0 -38 6 -44t44 -6h100q38 0 44 6t6 44v200h175l-275 300l-275 -300h175z" />
    <glyph glyph-name="uniE0D5" unicode="&#xe0d5;" 
d="M425 1000h725q38 0 44 -6t6 -44v-900q0 -38 -6 -44t-44 -6h-1100q-38 0 -44 6t-6 44v1000q0 38 6 44t44 6h300zM100 100h1000v800h-1000v-800zM500 500v-200q0 -38 6 -44t44 -6h100q38 0 44 6t6 44v200h175l-275 300l-275 -300h175z" />
    <glyph glyph-name="uniE0D6" unicode="&#xe0d6;" 
d="M425 1000h725q38 0 44 -6t6 -44v-900q0 -38 -6 -44t-44 -6h-1100q-38 0 -44 6t-6 44v1000q0 38 6 44t44 6h300zM100 100h1000v800h-1000v-800z" />
    <glyph glyph-name="uniE0D7" unicode="&#xe0d7;" 
d="M900 900h250q38 0 44 -6t6 -44v-800q0 -38 -6 -44t-44 -6h-800q-18 0 -29 4t-15 12.5t-5 14.5t-1 19v250h-250q-38 0 -44 6t-6 44v800q0 38 6 44t44 6h800q38 0 44 -6t6 -44v-250zM350 850v-500h500v500h-500z" />
    <glyph glyph-name="uniE0D8" unicode="&#xe0d8;" 
d="M900 900h250q38 0 44 -6t6 -44v-800q0 -38 -6 -44t-44 -6h-800q-18 0 -29 4t-15 12.5t-5 14.5t-1 19v250h-250q-38 0 -44 6t-6 44v800q0 38 6 44t44 6h800q38 0 44 -6t6 -44v-250zM300 400v450q0 38 6 44t44 6h450v200h-700v-700h200zM900 800v-450q0 -38 -6 -44t-44 -6
h-450v-200h700v700h-200z" />
    <glyph glyph-name="uniE0D9" unicode="&#xe0d9;" 
d="M900 900h250q38 0 44 -6t6 -44v-800q0 -38 -6 -44t-44 -6h-800q-38 0 -44 6t-6 44v250h-250q-38 0 -44 6t-6 44v800q0 38 6 44t44 6h800q38 0 44 -6t6 -44v-250zM1100 800h-200v-50h-50v50h-450v-450h50v-50h-50v-200h700v700zM850 700h50v-100h-50v100zM850 550h50v-100
h-50v100zM850 400h50v-100h-100v50h50v50zM500 350h100v-50h-100v50zM650 350h100v-50h-100v50z" />
    <glyph glyph-name="uniE0DA" unicode="&#xe0da;" 
d="M900 900h250q38 0 44 -6t6 -44v-800q0 -38 -6 -44t-44 -6h-800q-38 0 -44 6t-6 44v250h-250q-38 0 -44 6t-6 44v800q0 38 6 44t44 6h800q38 0 44 -6t6 -44v-250zM300 800h50v50h50v50h-100v-100zM450 850h100v50h-100v-50zM600 850h100v50h-100v-50zM900 850h-50v50h-100
v-50h100v-100h50v100zM300 650h50v100h-50v-100zM900 700h-50v-100h50v100zM300 500h50v100h-50v-100zM900 550h-50v-100h50v100zM450 350h-100v100h-50v-100h50v-50h100v50zM900 400h-50v-50h-50v-50h100v100zM600 350h-100v-50h100v50zM750 350h-100v-50h100v50z" />
    <glyph glyph-name="uniE0DB" unicode="&#xe0db;" 
d="M500 0v500l-500 -500v1200l500 -500v500l600 -600z" />
    <glyph glyph-name="uniE0DC" unicode="&#xe0dc;" 
d="M750 1100h300q37 0 43.5 -6.5t6.5 -44.5v-299q0 -38 -6.5 -44t-44 -6t-43.5 6t-6 44v178l-583 -583l-145 -145h178q37 0 43.5 -6.5t6.5 -44t-6.5 -43.5t-43.5 -6h-300q-38 0 -44 6t-6 44v300q0 37 6 43.5t43.5 6.5t44 -6.5t6.5 -43.5v-181l146 147l585 584h-181
q-38 0 -44 6t-6 44t6 44t44 6zM149.5 1000q-37.5 0 -43.5 6t-6 43.5t6 44t43.5 6.5t44 -6.5t6.5 -44t-6.5 -43.5t-44 -6zM349.5 1000q-37.5 0 -43.5 6t-6 43.5t6 44t43.5 6.5t44 -6.5t6.5 -44t-6.5 -43.5t-44 -6zM549.5 1000q-37.5 0 -43.5 6t-6 43.5t6 44t43.5 6.5t44 -6.5
t6.5 -44t-6.5 -43.5t-44 -6zM149.5 800q-37.5 0 -43.5 6t-6 43.5t6 44t43.5 6.5t44 -6.5t6.5 -44t-6.5 -43.5t-44 -6zM149.5 600q-37.5 0 -43.5 6t-6 43.5t6 44t43.5 6.5t44 -6.5t6.5 -44t-6.5 -43.5t-44 -6zM1049.5 600q37.5 0 44 -6.5t6.5 -44t-6.5 -43.5t-44 -6t-43.5 6
t-6 43.5t6 44t43.5 6.5zM1049.5 400q37.5 0 44 -6.5t6.5 -44t-6.5 -43.5t-44 -6t-43.5 6t-6 43.5t6 44t43.5 6.5zM649.5 200q37.5 0 44 -6.5t6.5 -44t-6.5 -43.5t-44 -6t-43.5 6t-6 43.5t6 44t43.5 6.5zM849.5 200q37.5 0 44 -6.5t6.5 -44t-6.5 -43.5t-44 -6t-43.5 6
t-6 43.5t6 44t43.5 6.5zM1049.5 200q37.5 0 44 -6.5t6.5 -44t-6.5 -43.5t-44 -6t-43.5 6t-6 43.5t6 44t43.5 6.5z" />
    <glyph glyph-name="uniE0DD" unicode="&#xe0dd;" 
d="M250 1000q38 0 44 -6t6 -44v-200q0 -38 -6.5 -44t-44.5 -6h-199q-38 0 -44 6t-6 44t6 44t44 6h150v150q0 38 6 44t44 6zM1150 700h-200q-38 0 -44 6t-6 44v200q0 38 6 44t44 6t44 -6t6 -44v-150h150q38 0 44 -6t6 -44t-6 -44t-44 -6zM50 300h200q38 0 44 -6.5t6 -44.5
v-199q0 -38 -6 -44t-44 -6t-44 6t-6 44v150h-150q-38 0 -44 6t-6 44t6 44t44 6zM950 300h200q38 0 44 -6t6 -44t-6 -44t-44 -6h-150v-150q0 -38 -6 -44t-44 -6t-44 6t-6 44v200q0 38 6 44t44 6z" />
    <glyph glyph-name="uniE0DE" unicode="&#xe0de;" 
d="M51 1000h199q38 0 44 -6t6 -44t-6 -44t-44 -6h-150v-150q0 -38 -6 -44t-44 -6t-44 6t-6 44v200q0 38 6.5 44t44.5 6zM950 1000h200q38 0 44 -6.5t6 -44.5v-199q0 -38 -6 -44t-44 -6t-44 6t-6 44v150h-150q-38 0 -44 6t-6 44t6 44t44 6zM100 100h150q38 0 44 -6t6 -44
t-6 -44t-44 -6h-200q-38 0 -44 6t-6 44v200q0 38 6 44t44 6t44 -6t6 -44v-150zM1150 300q38 0 44 -6t6 -44v-200q0 -37 -6.5 -43.5t-44.5 -6.5h-199q-38 0 -44 6t-6 44t6 44t44 6h150v150q0 38 6 44t44 6z" />
    <glyph glyph-name="uniE0DF" unicode="&#xe0df;" 
d="M1200 600q0 -160 -78 -296t-210 -216l-4 -8h-8q-139 -80 -300 -80q-163 0 -301 80.5t-218.5 218.5t-80.5 301t80.5 301t218.5 218.5t301 80.5t301 -80.5t218.5 -218.5t80.5 -301zM1100 600q0 98 -37 188t-100 156.5t-150.5 108t-184.5 46.5l75 -181l-230 -157l103 -73
l45 -201l243 104l232 -58q4 33 4 67zM100 600q0 -128 60 -238t163.5 -179t228.5 -81v260l-53 143l-109 30l-279 171q-11 -52 -11 -106z" />
    <glyph glyph-name="uniE0E0" unicode="&#xe0e0;" 
d="M820 410l280 -150q22 -44 34.5 -109t14.5 -108l1 -43h-1100q0 18 1.5 47.5t14 99t34.5 113.5l280 150q40 20 54.5 43t15.5 52q-75 56 -117.5 160t-42.5 215q0 129 84 224.5t226 95.5q139 0 224.5 -88.5t85.5 -231.5q0 -125 -40 -228.5t-120 -154.5q6 -55 70 -87zM390 880
q0 -82 27 -155.5t76 -119t107 -45.5q105 0 157.5 87t52.5 233q0 32 -6 59q-43 -5 -84.5 -3.5t-79.5 10t-81 35.5t-89 73q-38 -31 -59 -77.5t-21 -96.5zM550 850q0 -21 -15.5 -35.5t-34.5 -14.5q-20 0 -35 15t-15 35q0 21 15 35.5t35 14.5q21 0 35.5 -14.5t14.5 -35.5z
M699.5 800q-22.5 0 -36 14t-13.5 36.5t13.5 36t36 13.5t36.5 -13.5t14 -36t-14 -36.5t-36.5 -14zM-8 0h-392q0 13 1 34.5t10.5 72t25.5 82.5l203 109q49 25 51 69q-55 40 -85.5 116t-30.5 157q0 60 25.5 112t78 86.5t121.5 34.5q101 0 163 -64.5t62 -168.5q0 -139 -116 -279
q-37 -44 -62.5 -97.5t-35.5 -98.5t-15 -83t-5 -60zM1091 361q-116 140 -116 279q0 104 62 168.5t163 64.5q69 0 121.5 -34.5t78 -86.5t25.5 -112q0 -81 -30.5 -157t-85.5 -116q2 -44 51 -69l203 -109q16 -32 25.5 -79t10.5 -79l1 -31h-392q0 4 0.5 12t-1 32t-4.5 48.5
t-11 60t-20.5 68t-33 70.5t-47.5 70zM-153 640q0 -92 44.5 -162.5t108.5 -70.5q76 0 114.5 63.5t38.5 169.5q0 17 -4 43q-45 -2 -81.5 -1.5t-77.5 21t-84 64.5q-28 -23 -43.5 -56.5t-15.5 -70.5zM1047 640q0 -92 44.5 -162.5t108.5 -70.5q76 0 114.5 63.5t38.5 169.5
q0 17 -4 43q-45 -2 -81.5 -1.5t-77.5 21t-84 64.5q-28 -23 -43.5 -56.5t-15.5 -70.5zM-36 618q0 -15 -11 -25.5t-26 -10.5q-14 0 -25 11t-11 25q0 16 10.5 26.5t25.5 10.5q16 0 26.5 -10.5t10.5 -26.5zM73 582q-16 0 -26 10t-10 26q0 17 10 27t26 10t26 -10t10 -27
q0 -16 -10 -26t-26 -10zM1164 618q0 -15 -11 -25.5t-26 -10.5q-14 0 -25 11t-11 25q0 16 10.5 26.5t25.5 10.5q16 0 26.5 -10.5t10.5 -26.5zM1273 582q-16 0 -26 10t-10 26q0 17 10 27t26 10t26 -10t10 -27q0 -16 -10 -26t-26 -10z" />
    <glyph glyph-name="uniE0E1" unicode="&#xe0e1;" 
d="M820 410l280 -150q22 -44 34.5 -109t14.5 -108l1 -43h-400l-18 291q-38 -24 -78 -33l21 -258h-150l21 258q-40 9 -78 33l-18 -291h-400q0 18 1.5 47.5t14 99t34.5 113.5l280 150q66 33 70 91q-75 57 -117.5 162t-42.5 217q0 14 1 29l-41 -9v100q29 7 59 12l1 8
q11 79 55.5 136.5t104.5 83.5t130 26t130 -26.5t104.5 -83.5t55.5 -136l1 -8q30 -5 59 -12v-100l-41 9q1 -14 1 -29q0 -127 -39 -231.5t-120 -156.5q8 -51 69 -82zM390 880q0 -80 27 -153.5t76 -120t107 -46.5q55 0 96 24.5t65.5 68.5t36.5 101t12 126q0 23 -3 45
q-206 26 -413 0q-4 -22 -4 -45zM550 849.5q0 -22.5 -13.5 -36t-36 -13.5t-36.5 13.5t-14 36t14 36.5t36.5 14t36 -14t13.5 -36.5zM700.5 800q-22.5 0 -36.5 13.5t-14 36t14 36.5t36.5 14t36 -14t13.5 -36.5t-13.5 -36t-36 -13.5zM109 361q-37 -44 -62.5 -97.5t-35.5 -98.5
t-15 -83t-5 -60l1 -22h-392q0 13 1 34.5t10.5 72t25.5 82.5l203 109q49 25 51 69q-55 40 -85.5 116t-30.5 157q0 60 25.5 112t78 86.5t121.5 34.5q101 0 163 -64.5t62 -168.5q0 -139 -116 -279zM1600 0h-392q0 4 0.5 12t-1 32t-4.5 48.5t-11 60t-20.5 68t-33 70.5t-47.5 70
q-116 140 -116 279q0 104 62 168.5t163 64.5q69 0 121.5 -34.5t78 -86.5t25.5 -112q0 -81 -30.5 -157t-85.5 -116q2 -44 51 -69l203 -109q16 -32 25.5 -79.5t10.5 -78.5zM-153 640q0 -92 44.5 -162.5t108.5 -70.5q76 0 114.5 63.5t38.5 169.5q0 17 -4 43q-45 -2 -81.5 -1.5
t-77.5 21t-84 64.5q-28 -23 -43.5 -56.5t-15.5 -70.5zM1200 407q76 0 114.5 63.5t38.5 169.5q0 17 -4 43q-45 -2 -81.5 -1.5t-77.5 21t-84 64.5q-28 -23 -43.5 -56.5t-15.5 -70.5q0 -92 44.5 -162.5t108.5 -70.5zM-73 655q16 0 26.5 -10.5t10.5 -26.5q0 -15 -11 -25.5
t-26 -10.5q-14 0 -25 11t-11 25q0 15 11 26t25 11zM73 582q-16 0 -26 10t-10 26q0 17 10 27t26 10t26 -10t10 -27q0 -16 -10 -26t-26 -10zM1127 655q16 0 26.5 -10.5t10.5 -26.5q0 -15 -11 -25.5t-26 -10.5q-14 0 -25 11t-11 25q0 15 11 26t25 11zM1309 618q0 -16 -10 -26
t-26 -10t-26 10t-10 26q0 17 10 27t26 10t26 -10t10 -27zM600 450q-27 0 -52 6q-8 -35 -36 -66q41 -26 86 -26.5t87 24.5q-27 30 -33 66q-25 -4 -52 -4z" />
    <glyph glyph-name="uniE0E2" unicode="&#xe0e2;" 
d="M1000 1000l175 -375q6 -13 12 -22.5t8 -11t3.5 -8t1.5 -11.5v-22v-300q0 -38 -6 -44t-44 -6h-1100q-38 0 -44 6t-6 44v300q0 20 0.5 26.5t2 10t8.5 13.5t14 25l175 375h800zM100 500v-200h1000v200h-1000zM850 350q-19 0 -34.5 15.5t-15.5 34.5t15.5 34.5t34.5 15.5
t34.5 -15.5t15.5 -34.5t-15.5 -34.5t-34.5 -15.5zM1000 350q-19 0 -34.5 15.5t-15.5 34.5t15.5 34.5t34.5 15.5t34.5 -15.5t15.5 -34.5t-15.5 -34.5t-34.5 -15.5z" />
    <glyph glyph-name="uniE0E3" unicode="&#xe0e3;" 
d="M900 1200h150q38 0 44 -6t6 -44v-1100q0 -38 -6 -44t-44 -6h-150q-38 0 -44 6t-6 44v450h-500v-450q0 -38 -6 -44t-44 -6h-150q-38 0 -44 6t-6 44v1100q0 38 6 44t44 6h150q38 0 44 -6t6 -44v-400h500v400q0 38 6 44t44 6z" />
    <glyph glyph-name="uniE0E4" unicode="&#xe0e4;" 
d="M1048 0h-148v350h105q15 35 30 117t15 153q0 120 -59.5 219t-162.5 155t-228 56t-228 -56t-162.5 -155t-59.5 -219q0 -74 15 -154t30 -116h105v-350h-148q-9 28 -35.5 105.5t-32.5 97t-24.5 77t-23 77t-15 62.5t-13 68t-5.5 59.5t-3 68.5q0 117 46.5 224t133.5 191
q85 82 193.5 126t226.5 44t226.5 -44t193.5 -126q87 -84 133.5 -191t46.5 -224q0 -111 -25 -210.5t-104 -337.5q-15 -44 -23 -67z" />
    </font>
</defs>
</svg>
