<?xml version="1.0" standalone="no"?>
<!DOCTYPE svg PUBLIC "-//W3C//DTD SVG 1.1//EN" "http://www.w3.org/Graphics/SVG/1.1/DTD/svg11.dtd" >
<svg>
<metadata>
Created by FontForge 20110222 at Tue Mar 19 02:46:15 2013
 By www-data
Copyright (c) 2010 by Jos Buivenga. All rights reserved.
</metadata>
<defs>
<font id="CallunaSansW02-Bold" horiz-adv-x="1096" >
  <font-face 
    font-family="CallunaSansW02-Bold"
    font-weight="700"
    font-stretch="normal"
    units-per-em="2048"
    panose-1="2 0 0 0 0 0 0 0 0 0"
    ascent="1535"
    descent="-513"
    x-height="932"
    cap-height="1366"
    bbox="-326 -510 2267 1933"
    underline-thickness="102"
    underline-position="-103"
    unicode-range="U+000D-FB02"
  />
<missing-glyph horiz-adv-x="0" 
 />
    <glyph glyph-name=".notdef" horiz-adv-x="0" 
 />
    <glyph glyph-name="exclam" unicode="!" horiz-adv-x="584" 
d="M150 1391h292l-47 -930h-202zM131 131q0 65 46 112.5t112 47.5q65 0 111 -46.5t46 -113.5q0 -65 -46.5 -110.5t-110.5 -45.5q-65 0 -111.5 46.5t-46.5 109.5z" />
    <glyph glyph-name="dollar" unicode="$" horiz-adv-x="977" 
d="M127 295q52 -42 133.5 -69t173.5 -33l8 288q-184 62 -268 147t-84 197q0 136 98 223.5t271 104.5l6 180h98l-6 -176q87 -2 170 -18.5t137 -42.5l-65 -203q-45 21 -113 37.5t-133 19.5l-8 -280q139 -48 209.5 -94t107.5 -106.5t37 -139.5q0 -140 -100 -231.5t-273 -108.5
l-4 -172h-98l4 168q-101 2 -196 29.5t-158 68.5zM666 309q0 45 -26.5 76t-100.5 61l-7 -253q68 7 101 35t33 81zM317 842q0 -45 28.5 -77t103.5 -63l6 248q-138 -13 -138 -108z" />
    <glyph glyph-name="ampersand" unicode="&#x26;" horiz-adv-x="1442" 
d="M70 340q0 77 29.5 141.5t83 118t161.5 117.5q-104 183 -104 327q0 100 46 179t132.5 123.5t206.5 44.5q168 0 265 -85.5t97 -232.5q0 -84 -33.5 -152.5t-94 -124.5t-181.5 -122q41 -55 122 -145.5t138 -143.5q79 102 126.5 243.5t59.5 303.5h228q-18 -197 -85 -380
t-167 -308q158 -123 282 -164l-86 -166q-154 21 -366 170q-162 -109 -371 -109q-139 0 -251 43.5t-175 125t-63 196.5zM555 176q105 0 203 49q-69 59 -131 123t-174 203q-63 -40 -103.5 -88t-40.5 -111q0 -80 67.5 -128t178.5 -48zM502 1047q0 -91 65 -211q102 53 148.5 107
t46.5 118q0 54 -33 91.5t-98 37.5q-59 0 -94 -38.5t-35 -104.5z" />
    <glyph glyph-name="parenleft" unicode="(" horiz-adv-x="618" 
d="M90 553q0 241 84 474.5t232 408.5l178 -60q-133 -159 -215 -377t-82 -446q0 -243 82 -475.5t223 -401.5l-176 -67q-92 110 -169.5 266.5t-117 332t-39.5 345.5z" />
    <glyph glyph-name="parenright" unicode=")" horiz-adv-x="618" 
d="M27 -324q136 165 220.5 397.5t84.5 479.5q0 222 -81.5 442t-215.5 381l178 60q149 -178 232 -411.5t83 -471.5q0 -271 -91 -521t-234 -423z" />
    <glyph glyph-name="asterisk" unicode="*" horiz-adv-x="1026" 
d="M395 1409h236l-76 -317h-82zM598 1067l236 225l116 -202l-313 -95zM76 1090l119 202l235 -225l-41 -72zM637 946l313 -92l-116 -203l-236 226zM76 854l313 92l41 -69l-235 -226zM473 850h82l76 -315h-236z" />
    <glyph glyph-name="plus" unicode="+" horiz-adv-x="1065" 
d="M51 606h395v414h175v-414h389v-166h-389v-440h-175v440h-395v166z" />
    <glyph glyph-name="comma" unicode="," horiz-adv-x="508" 
d="M315 295q52 -72 73.5 -133t21.5 -127q0 -101 -64.5 -209.5t-198.5 -218.5l-92 92q75 70 99.5 102t37.5 67.5t13 82.5q0 55 -27 113t-94 155z" />
    <glyph glyph-name="hyphen" unicode="-" horiz-adv-x="756" 
d="M106 604h543v-164h-543v164z" />
    <glyph glyph-name="period" unicode="." horiz-adv-x="518" 
d="M100 131q0 65 46 112.5t112 47.5t112 -47.5t46 -112.5q0 -63 -46 -109.5t-112 -46.5q-65 0 -111.5 46.5t-46.5 109.5z" />
    <glyph glyph-name="zero" unicode="0" horiz-adv-x="1147" 
d="M84 475q0 142 62.5 263t175.5 190t260 69q143 0 252 -63t169 -176t60 -248q0 -146 -62.5 -270.5t-175 -194.5t-258.5 -70q-142 0 -251 65t-170.5 181.5t-61.5 253.5zM324 481q0 -142 66 -223.5t183 -81.5q119 0 185.5 81.5t66.5 225.5q0 146 -66 230t-184 84
q-120 0 -185.5 -84.5t-65.5 -231.5z" />
    <glyph glyph-name="one" unicode="1" horiz-adv-x="874" 
d="M100 199h246v567h-237v207h487v-774h225v-199h-721v199z" />
    <glyph glyph-name="two" unicode="2" horiz-adv-x="950" 
d="M86 143q202 145 325.5 281t123.5 225q0 60 -40 98.5t-106 38.5q-93 0 -209 -75l-100 157q71 57 168.5 93t191.5 36q158 0 257.5 -88t99.5 -225q0 -75 -37.5 -149.5t-104 -149.5t-204.5 -188h432v-197h-797v143z" />
    <glyph glyph-name="three" unicode="3" horiz-adv-x="842" 
d="M37 -209q36 -4 72 -4q180 0 287.5 70t107.5 190q0 85 -79.5 133.5t-215.5 48.5h-43v189q72 4 144 40.5t117.5 94t45.5 119.5q0 55 -37.5 84.5t-93.5 29.5q-48 0 -104 -23t-105 -61l-113 164q77 59 175.5 95t193.5 36q147 0 246.5 -81t99.5 -201q0 -103 -66.5 -190.5
t-185.5 -149.5q130 -34 206.5 -122.5t76.5 -205.5q0 -132 -82.5 -234.5t-231 -159t-331.5 -56.5h-31l-31 2z" />
    <glyph glyph-name="four" unicode="4" horiz-adv-x="1102" 
d="M49 195l547 784h266v-764h182v-188h-182v-422h-248v422h-565v168zM614 215v483l-319 -483h319z" />
    <glyph glyph-name="five" unicode="5" horiz-adv-x="842" 
d="M66 -207l84 -4q172 0 269 66t97 188q0 84 -40 135t-102.5 81t-138 45.5t-147.5 29.5v639h631v-197h-385v-280q163 -43 254 -100.5t140.5 -140.5t49.5 -198q0 -214 -170.5 -337t-453.5 -123h-33l-33 2z" />
    <glyph glyph-name="six" unicode="6" horiz-adv-x="1069" 
d="M549 -25q-144 0 -251 74.5t-164.5 210.5t-57.5 305q0 228 101 417t281.5 295t411.5 114l17 -199q-216 -15 -352.5 -119t-180.5 -293q92 115 260 115q112 0 201.5 -57.5t139 -158t49.5 -220.5q0 -132 -57 -243.5t-161 -176t-237 -64.5zM555 688q-57 0 -116 -27t-105 -73
q0 -189 62 -300.5t169 -111.5q82 0 132.5 70t50.5 186q0 122 -51 189t-142 67z" />
    <glyph glyph-name="seven" unicode="7" horiz-adv-x="958" 
d="M98 -367q302 564 527 1119h-574v221h862v-150q-237 -597 -569 -1241z" />
    <glyph glyph-name="eight" unicode="8" horiz-adv-x="1057" 
d="M86 336q0 102 59.5 190t198.5 176q-102 81 -148 162t-46 170q0 100 51.5 182t144 128.5t203.5 46.5q169 0 278 -91.5t109 -238.5q0 -94 -49.5 -175.5t-159.5 -160.5q138 -92 192 -174t54 -178q0 -105 -58.5 -197.5t-162 -146.5t-228.5 -54q-118 0 -218.5 44.5t-160 127
t-59.5 189.5zM719 354q0 35 -19 67.5t-53.5 65t-138.5 103.5q-109 -69 -154 -125.5t-45 -116.5q0 -74 58 -126t139 -52q85 0 149 55.5t64 128.5zM403 1055q0 -59 36 -110.5t120 -108.5q81 56 116.5 107t35.5 108q0 67 -44 106t-114 39q-69 0 -109.5 -39.5t-40.5 -101.5z" />
    <glyph glyph-name="nine" unicode="9" horiz-adv-x="1083" 
d="M205 -209q218 15 352.5 119t179.5 297q-87 -119 -260 -119q-112 0 -201 56t-138.5 154.5t-49.5 215.5q0 131 57.5 243t160.5 176t237 64q144 0 251.5 -75t164.5 -209t57 -305q0 -223 -98.5 -407t-278 -291.5t-418.5 -117.5zM539 295q57 0 116 26.5t103 71.5
q-2 184 -63.5 294t-166.5 110q-82 0 -132 -69.5t-50 -186.5t50.5 -181.5t142.5 -64.5z" />
    <glyph glyph-name="colon" unicode=":" horiz-adv-x="569" 
d="M285 641q-64 0 -111 45.5t-47 110.5q0 64 45.5 110.5t112.5 46.5q66 0 111.5 -46t45.5 -111q0 -66 -46.5 -111t-110.5 -45zM127 131q0 65 46 112.5t112 47.5q65 0 111 -46.5t46 -113.5q0 -65 -46.5 -110.5t-110.5 -45.5q-65 0 -111.5 46.5t-46.5 109.5z" />
    <glyph glyph-name="semicolon" unicode=";" horiz-adv-x="563" 
d="M344 295q52 -72 73.5 -133t21.5 -127q0 -101 -64.5 -209.5t-198.5 -218.5l-92 92q75 70 99.5 102t37.5 67.5t13 82.5q0 55 -27 113t-94 155zM123 795q0 65 46 112.5t112 47.5t112 -47.5t46 -112.5q0 -63 -46 -109.5t-112 -46.5q-65 0 -111.5 46.5t-46.5 109.5z" />
    <glyph glyph-name="equal" unicode="=" horiz-adv-x="1065" 
d="M84 774h897v-164h-897v164zM84 416h897v-164h-897v164z" />
    <glyph glyph-name="question" unicode="?" horiz-adv-x="791" 
d="M211 461l-4 47q0 143 116 290l55 70q60 76 60 117q0 54 -96 121t-256 129l57 227q187 -57 321 -134t195.5 -154.5t61.5 -155.5q0 -56 -35.5 -115t-115.5 -143q-76 -80 -114 -152t-38 -147h-207zM162 131q0 64 44.5 112t110.5 48q68 0 114 -47.5t46 -112.5
q0 -63 -47 -109.5t-113 -46.5q-64 0 -109.5 47.5t-45.5 108.5z" />
    <glyph glyph-name="at" unicode="@" horiz-adv-x="1780" 
d="M76 395q0 226 113.5 420t311 304t435.5 110q214 0 387.5 -87.5t270 -245t96.5 -347.5q0 -101 -27 -188.5t-80 -158t-128 -114t-266 -83.5l-120 -30l-39 146q-31 -60 -103.5 -103t-150.5 -43q-135 0 -222 110t-87 282q0 154 76 277.5t209.5 192t291.5 68.5q63 0 175 -16
v-535q0 -76 16 -172q123 7 192.5 100.5t69.5 247.5t-70.5 279t-197.5 193.5t-291 68.5q-187 0 -340 -88.5t-240.5 -246.5t-87.5 -337q0 -161 74.5 -296.5t202.5 -217.5t272 -90l-31 -166q-200 12 -365.5 117.5t-256 277t-90.5 371.5zM821 164q44 0 86 29.5t72 78.5v459
q-113 0 -191.5 -101.5t-78.5 -252.5q0 -95 30 -154t82 -59z" />
    <glyph glyph-name="A" unicode="A" horiz-adv-x="1300" 
d="M524 1376h252l514 -1376h-268l-111 307h-528l-111 -307h-262zM461 526h370l-184 516z" />
    <glyph glyph-name="B" unicode="B" horiz-adv-x="1235" 
d="M170 1366h455q217 0 339.5 -86t122.5 -242q0 -169 -159 -297q112 -54 168.5 -143t56.5 -201q0 -177 -128 -287t-339 -110h-516v1366zM655 221q107 0 165.5 46.5t58.5 138.5q0 87 -59.5 134.5t-164.5 47.5h-221v-367h221zM434 801h277q39 20 69.5 72t30.5 108
q0 85 -55 124.5t-162 39.5h-160v-344z" />
    <glyph glyph-name="C" unicode="C" horiz-adv-x="1382" 
d="M80 662q0 208 96 376t271 260.5t397 92.5q132 0 258 -30.5t215 -82.5l-100 -223q-74 50 -174.5 78t-208.5 28q-143 0 -254 -60.5t-170.5 -169.5t-59.5 -247t62 -248t172.5 -170.5t244.5 -60.5q108 0 216 34.5t184 90.5l106 -193q-85 -73 -226 -117.5t-296 -44.5
q-208 0 -377 86t-262.5 242.5t-93.5 358.5z" />
    <glyph glyph-name="D" unicode="D" horiz-adv-x="1491" 
d="M170 1366h485q225 0 399 -81.5t262.5 -229.5t88.5 -350q0 -218 -100 -377.5t-287 -243.5t-440 -84h-408v1366zM557 221q276 0 424.5 121t148.5 350q0 214 -131 333.5t-372 119.5h-193v-924h123z" />
    <glyph glyph-name="E" unicode="E" horiz-adv-x="1126" 
d="M170 1366h862v-221h-598v-342h471v-219h-471v-363h613v-221h-877v1366z" />
    <glyph glyph-name="F" unicode="F" horiz-adv-x="1083" 
d="M170 1366h858v-221h-594v-352h471v-220h-471v-573h-264v1366z" />
    <glyph glyph-name="G" unicode="G" horiz-adv-x="1448" 
d="M78 659q0 202 96.5 371t275 265t408.5 96q124 0 249 -28t216 -73l-100 -223q-78 42 -179.5 68t-195.5 26q-149 0 -262.5 -61.5t-175.5 -173t-62 -250.5t65.5 -247t181.5 -166t263 -58q107 0 217 20v301h-274v219h532v-708q-124 -26 -265 -44t-232 -18q-215 0 -389.5 86
t-271.5 242.5t-97 355.5z" />
    <glyph glyph-name="H" unicode="H" horiz-adv-x="1563" 
d="M170 1366h264v-559h694v559h263v-1366h-263v588h-694v-588h-264v1366z" />
    <glyph glyph-name="I" unicode="I" horiz-adv-x="604" 
d="M170 1366h264v-1366h-264v1366z" />
    <glyph glyph-name="J" unicode="J" horiz-adv-x="604" 
d="M-86 -164q127 11 192.5 109t65.5 280v1141h264v-1133q0 -284 -110 -435.5t-330 -182.5z" />
    <glyph glyph-name="K" unicode="K" horiz-adv-x="1278" 
d="M170 1366h264v-541h37l461 541h325l-563 -639l592 -727h-334l-481 606h-37v-606h-264v1366z" />
    <glyph glyph-name="L" unicode="L" horiz-adv-x="1083" 
d="M170 1366h264v-1145h619v-221h-883v1366z" />
    <glyph glyph-name="M" unicode="M" horiz-adv-x="1802" 
d="M197 1366h378l330 -948l330 948h373l49 -1366h-256l-39 1069l-379 -1069h-172l-375 1067l-35 -1067h-254z" />
    <glyph glyph-name="N" unicode="N" horiz-adv-x="1530" 
d="M170 1366h266l666 -963v963h258v-1366h-268l-664 956v-956h-258v1366z" />
    <glyph glyph-name="O" unicode="O" horiz-adv-x="1640" 
d="M78 680q0 193 95.5 359.5t266.5 259t385 92.5q213 0 380 -87t261.5 -245.5t94.5 -349.5q0 -196 -98.5 -368t-271 -269t-384.5 -97q-209 0 -375.5 92t-260 255.5t-93.5 357.5zM354 688q0 -130 58 -244t162 -179.5t239 -65.5q136 0 244 65.5t168.5 179.5t60.5 248
q0 131 -57.5 240.5t-164 172t-243.5 62.5t-244 -63t-165 -174t-58 -242z" />
    <glyph glyph-name="P" unicode="P" horiz-adv-x="1200" 
d="M170 1366h477q158 0 272.5 -54t173 -152.5t58.5 -227.5q0 -211 -139.5 -340t-364.5 -129h-213v-463h-264v1366zM604 684q140 0 205 63t65 171q0 227 -270 227h-170v-461h170z" />
    <glyph glyph-name="Q" unicode="Q" horiz-adv-x="1640" 
d="M78 680q0 193 95.5 359.5t266.5 259t385 92.5q213 0 380 -87t261.5 -245.5t94.5 -349.5q0 -238 -140.5 -431.5t-373.5 -267.5q76 -102 145.5 -154t152.5 -79t182 -27h23l-37 -235h-21q-119 0 -225 32t-191.5 94.5t-148.5 139.5l-112 131q-20 25 -57 45t-72 27
q-180 31 -318.5 128.5t-214 246.5t-75.5 321zM354 688q0 -133 58 -248t162.5 -181t238.5 -66q136 0 244 66.5t168.5 182t60.5 250.5q0 131 -58 241t-163.5 172t-243.5 62q-137 0 -244 -63t-165 -174t-58 -242z" />
    <glyph glyph-name="R" unicode="R" horiz-adv-x="1290" 
d="M170 1366h455q236 0 369.5 -108.5t133.5 -299.5q0 -121 -61.5 -219.5t-175.5 -156.5l385 -582h-311l-336 516h-195v-516h-264v1366zM584 735q137 0 202.5 57t65.5 154q0 199 -270 199h-148v-410h150z" />
    <glyph glyph-name="S" unicode="S" horiz-adv-x="1055" 
d="M156 324q57 -46 146.5 -82.5t179.5 -36.5q106 0 166.5 40.5t60.5 104.5q0 58 -47.5 107.5t-144.5 98.5q-148 74 -212 114t-108 86.5t-70.5 106t-26.5 136.5q0 109 59 199.5t167 141.5t245 51q82 0 184 -17.5t187 -44.5l-43 -237q-78 31 -165 50t-159 19q-95 0 -151.5 -37
t-56.5 -98q0 -57 45.5 -105t146.5 -98q142 -71 207.5 -111.5t109.5 -88.5t70.5 -109t26.5 -143q0 -116 -61 -206.5t-171 -140t-243 -49.5q-112 0 -221.5 30.5t-196.5 84.5z" />
    <glyph glyph-name="T" unicode="T" horiz-adv-x="1231" 
d="M485 1145h-450v221h1161v-221h-448v-1145h-263v1145z" />
    <glyph glyph-name="U" unicode="U" horiz-adv-x="1458" 
d="M154 1366h264v-827q0 -167 79.5 -253.5t233.5 -86.5q148 0 229.5 87t81.5 244v836h265v-825q0 -170 -72.5 -299t-205.5 -198t-300 -69q-277 0 -426 140.5t-149 396.5v854z" />
    <glyph glyph-name="V" unicode="V" horiz-adv-x="1239" 
d="M10 1366h281l334 -981l333 981h271l-484 -1376h-251z" />
    <glyph glyph-name="W" unicode="W" horiz-adv-x="1985" 
d="M37 1366h272l285 -1001l297 1001h209l297 -1001l286 1001h265l-412 -1376h-268l-277 907l-274 -907h-271z" />
    <glyph glyph-name="X" unicode="X" horiz-adv-x="1272" 
d="M479 678l-448 688h311l297 -473l299 473h303l-448 -682l448 -684h-311l-297 471l-297 -471h-305z" />
    <glyph glyph-name="Y" unicode="Y" horiz-adv-x="1245" 
d="M492 569l-494 797h309l316 -535l325 535h299l-491 -795v-571h-264v569z" />
    <glyph glyph-name="Z" unicode="Z" horiz-adv-x="1192" 
d="M74 160l676 985h-646v221h986v-160l-666 -985h690v-221h-1040v160z" />
    <glyph glyph-name="bracketleft" unicode="[" horiz-adv-x="594" 
d="M152 1366h413v-143h-231v-1409h231v-146h-413v1698z" />
    <glyph glyph-name="bracketright" unicode="]" horiz-adv-x="590" 
d="M256 -207v1448h-231v125h413v-1698h-413v125h231z" />
    <glyph glyph-name="grave" unicode="`" horiz-adv-x="1044" 
d="M291 1448h241l211 -334l-135 -74z" />
    <glyph glyph-name="a" unicode="a" horiz-adv-x="1008" 
d="M53 219q0 289 545 361v32q0 89 -30.5 121.5t-98.5 32.5q-66 0 -143.5 -29.5t-151.5 -81.5l-61 181q80 54 195 87t233 33q169 0 241 -69.5t72 -233.5v-360q0 -49 29 -77.5t75 -31.5l-73 -198q-196 3 -260 137q-49 -73 -125.5 -110.5t-165.5 -37.5q-126 0 -203.5 69
t-77.5 175zM403 162q93 0 195 121v149q-152 -22 -218.5 -70.5t-66.5 -121.5q0 -78 90 -78z" />
    <glyph glyph-name="b" unicode="b" horiz-adv-x="1094" 
d="M123 1427l256 41v-600q48 48 105 68t126 20q125 0 218.5 -56.5t143.5 -161t50 -236.5q0 -151 -63.5 -271.5t-182.5 -188t-280 -67.5q-94 0 -231 23.5t-142 28.5v1400zM563 762q-88 0 -184 -72v-516q61 -18 119 -18q123 0 192.5 88.5t69.5 238.5q0 135 -53.5 207
t-143.5 72z" />
    <glyph glyph-name="c" unicode="c" horiz-adv-x="956" 
d="M66 449q0 137 66.5 255t183.5 185t259 67q90 0 179.5 -25.5t152.5 -68.5l-90 -186q-45 37 -105 60.5t-118 23.5q-118 0 -191 -81.5t-73 -215.5q0 -130 69.5 -210.5t186.5 -80.5q65 0 131 26.5t112 67.5l78 -172q-56 -56 -144 -87.5t-196 -31.5q-145 0 -260 61.5
t-178 169.5t-63 243z" />
    <glyph glyph-name="d" unicode="d" horiz-adv-x="1110" 
d="M70 438q0 145 60.5 264.5t171.5 186.5t257 67q90 0 162 -28v499l254 41v-1183q0 -106 43 -285l-238 -14q-18 71 -28 135q-86 -146 -285 -146q-116 0 -207 60.5t-140.5 166.5t-49.5 236zM522 166q54 0 105.5 31t93.5 92v360q0 56 -36 86.5t-107 30.5q-115 0 -178.5 -80
t-63.5 -231q0 -135 47.5 -212t138.5 -77z" />
    <glyph glyph-name="e" unicode="e" horiz-adv-x="1010" 
d="M70 461q0 138 59.5 252.5t165.5 178.5t237 64q186 0 292 -120.5t108 -335.5l-139 -41l-461 -60q21 -105 89.5 -166t172.5 -61q143 0 283 115l65 -181q-74 -61 -178.5 -96t-212.5 -35q-145 0 -254 62t-168 174t-59 250zM514 766q-78 0 -127.5 -59.5t-60.5 -159.5l329 43
q-5 77 -40.5 126.5t-100.5 49.5z" />
    <glyph glyph-name="f" unicode="f" horiz-adv-x="733" 
d="M45 887l145 51v78q0 148 55.5 259.5t157.5 171.5t234 60q77 0 153 -21.5t132 -58.5l-91 -190q-44 30 -95.5 48t-94.5 18q-95 0 -145 -69.5t-50 -199.5v-102h250v-182h-250v-750h-256v750h-145v137z" />
    <glyph glyph-name="g" unicode="g" horiz-adv-x="1051" 
d="M125 162q0 96 147 182q-91 43 -139.5 118.5t-48.5 168.5q0 144 116 234.5t294 90.5q62 0 143 -19t129 -19h117q65 0 125 20l14 -184h-100q-36 0 -76 6q61 -61 61 -156q0 -86 -58 -155.5t-158 -107.5t-212 -38h-30l-29 2q-70 -39 -70 -65q0 -16 31 -30.5t129 -40.5
l135 -36q137 -37 202 -71.5t102.5 -82t37.5 -116.5q0 -92 -68.5 -172.5t-188 -128t-261.5 -47.5q-181 0 -301.5 67t-120.5 172q0 140 225 269q-71 26 -109 57.5t-38 81.5zM272 -199q0 -51 56 -79.5t153 -28.5q115 0 192 36.5t77 94.5q0 26 -19.5 44.5t-63 36.5t-231.5 70
l-53 -34q-111 -71 -111 -140zM494 473q77 0 124.5 43.5t47.5 106.5q0 66 -48 114.5t-122 48.5t-122 -46.5t-48 -112.5t47 -110t121 -44z" />
    <glyph glyph-name="h" unicode="h" horiz-adv-x="1100" 
d="M129 1427l256 41v-684q159 172 340 172q120 0 187 -71t67 -221v-664h-254v555q0 94 -21 137t-73 43q-47 0 -113.5 -42t-132.5 -113v-580h-256v1427z" />
    <glyph glyph-name="i" unicode="i" horiz-adv-x="514" 
d="M258 1135q-68 0 -110 41t-42 102t42 102t110 41q66 0 108 -41t42 -102t-42 -102t-108 -41zM129 932h256v-932h-256v932z" />
    <glyph glyph-name="j" unicode="j" horiz-adv-x="514" 
d="M256 1135q-68 0 -110 41t-42 102t42 102t110 41q66 0 108 -41t42 -102t-42 -102t-108 -41zM129 932h256v-885q0 -229 -109.5 -365.5t-318.5 -166.5l-76 198q133 21 190.5 102t57.5 220v897z" />
    <glyph glyph-name="k" unicode="k" horiz-adv-x="1065" 
d="M129 1427l256 41v-858h33l305 322h324l-410 -408l428 -524h-317l-330 424h-33v-424h-256v1427z" />
    <glyph glyph-name="l" unicode="l" horiz-adv-x="514" 
d="M129 1427l256 41v-1468h-256v1427z" />
    <glyph glyph-name="m" unicode="m" horiz-adv-x="1669" 
d="M125 911l246 41v-170q162 174 342 174q192 0 237 -176q92 95 176 135.5t170 40.5q118 0 185 -71t67 -221v-664h-254v555q0 94 -20.5 137t-73.5 43q-92 0 -235 -143v-592h-254v555q0 94 -21 137t-74 43q-96 0 -235 -145v-590h-256v911z" />
    <glyph glyph-name="n" unicode="n" 
d="M125 911l246 41v-172q75 84 166.5 130t185.5 46q118 0 185 -71t67 -221v-664h-254v555q0 94 -21 137t-73 43q-48 0 -112.5 -39t-133.5 -108v-588h-256v911z" />
    <glyph glyph-name="o" unicode="o" horiz-adv-x="1143" 
d="M68 463q0 143 65.5 259.5t180 175t261.5 58.5q149 0 263 -61t175.5 -170t61.5 -240q0 -145 -67 -266t-180.5 -182.5t-260.5 -61.5q-149 0 -262 62t-175 174.5t-62 251.5zM332 481q0 -140 66 -227.5t175 -87.5q102 0 170 81.5t68 211.5q0 136 -67 221.5t-173 85.5
q-104 0 -171.5 -80.5t-67.5 -204.5z" />
    <glyph glyph-name="p" unicode="p" horiz-adv-x="1102" 
d="M125 911l246 41v-151q40 78 109.5 116.5t158.5 38.5q115 0 204.5 -59.5t138 -165t48.5 -235.5q0 -146 -58.5 -265.5t-166.5 -187.5t-246 -68q-116 0 -178 39v-454l-256 -41v1392zM590 756q-54 0 -109 -36.5t-100 -103.5v-366q0 -38 36 -61t99 -23q118 0 184 83.5
t66 229.5q0 126 -48 201.5t-128 75.5z" />
    <glyph glyph-name="q" unicode="q" 
d="M70 430q0 152 64.5 272.5t183 187t278.5 66.5q147 0 373 -51v-1345l-254 -41v544q-83 -88 -234 -88q-188 0 -299.5 125.5t-111.5 329.5zM530 176q41 0 91 17.5t94 50.5v512q-60 20 -119 20q-121 0 -191.5 -87t-70.5 -240q0 -132 52.5 -202.5t143.5 -70.5z" />
    <glyph glyph-name="r" unicode="r" horiz-adv-x="748" 
d="M125 911l246 41v-192q65 103 135 149.5t143 46.5q44 0 80 -16l-41 -246q-49 19 -88 19q-109 0 -219 -154v-559h-256v911z" />
    <glyph glyph-name="s" unicode="s" horiz-adv-x="844" 
d="M119 266q53 -43 124 -69.5t138 -26.5q74 0 109.5 22.5t35.5 57.5q0 33 -37.5 59t-181.5 91q-219 97 -219 268q0 133 102 210.5t285 77.5q78 0 151.5 -14t125.5 -37l-54 -207q-47 29 -108.5 46.5t-114.5 17.5q-133 0 -133 -74q0 -30 34.5 -56.5t103.5 -55.5
q122 -52 181.5 -95t88 -94.5t28.5 -114.5q0 -135 -104.5 -216t-282.5 -81q-93 0 -178.5 22t-146.5 60z" />
    <glyph glyph-name="t" unicode="t" horiz-adv-x="813" 
d="M188 750h-145v137l154 51v217l247 49v-272h285v-182h-285v-426q0 -140 97 -140q63 0 180 80l70 -186q-67 -49 -149 -76t-163 -27q-139 0 -215 77t-76 210v488z" />
    <glyph glyph-name="u" unicode="u" 
d="M119 932h256v-555q0 -105 22 -142.5t74 -37.5q42 0 97.5 28t138.5 99v608h254v-647q0 -103 40 -281l-245 -22q-19 71 -29 157q-164 -164 -352 -164q-122 0 -189 71.5t-67 209.5v676z" />
    <glyph glyph-name="v" unicode="v" horiz-adv-x="973" 
d="M12 932h269l200 -604l226 604h258l-373 -938h-232z" />
    <glyph glyph-name="w" unicode="w" horiz-adv-x="1571" 
d="M27 932h262l178 -647l213 647h217l209 -647l182 647h256l-303 -938h-248l-209 608l-206 -608h-250z" />
    <glyph glyph-name="x" unicode="x" horiz-adv-x="987" 
d="M348 465l-319 467h290l179 -273l178 273h282l-321 -461l321 -471h-284l-182 279l-187 -279h-276z" />
    <glyph glyph-name="y" unicode="y" horiz-adv-x="973" 
d="M20 -289q96 11 185 77t129 159l33 78l-359 907h266l218 -610l213 610h258l-388 -1000q-67 -175 -195.5 -289t-281.5 -128z" />
    <glyph glyph-name="z" unicode="z" horiz-adv-x="922" 
d="M74 156l426 579h-410v197h741v-156l-434 -579h451v-197h-774v156z" />
    <glyph glyph-name="braceleft" unicode="{" horiz-adv-x="688" 
d="M254 -135v113q0 481 -231 489v141q231 4 231 470v112q0 159 114 243.5t322 84.5v-136q-105 -8 -157.5 -32.5t-74.5 -74t-22 -194.5q0 -460 -213 -540v-4q104 -39 158.5 -184t54.5 -380q0 -143 22 -193.5t75 -74.5t157 -33v-135q-436 0 -436 328z" />
    <glyph glyph-name="bar" unicode="|" horiz-adv-x="483" 
d="M150 1534h184v-1995h-184v1995z" />
    <glyph glyph-name="braceright" unicode="}" horiz-adv-x="688" 
d="M465 537v4q-213 80 -213 540q0 143 -21 193t-73 74.5t-160 33.5v136q206 0 321 -83.5t115 -244.5v-110q0 -468 232 -472v-141q-232 -7 -232 -490v-112q0 -328 -436 -328v135q107 10 159.5 34.5t73.5 75t21 191.5q0 234 54.5 379.5t158.5 184.5z" />
    <glyph glyph-name="cent" unicode="&#xa2;" horiz-adv-x="971" 
d="M467 137q-177 19 -285 138.5t-108 293.5q0 117 52.5 215t150 158t225.5 70l8 180h98l-8 -180q86 -8 163 -39t128 -78l-125 -158q-80 62 -174 74l-19 -475q58 5 121.5 30.5t106.5 59.5l78 -172q-55 -50 -138 -81.5t-176 -37.5l-6 -180h-98zM324 578q0 -84 38.5 -147
t112.5 -85l19 461q-78 -17 -124 -76t-46 -153z" />
    <glyph glyph-name="sterling" unicode="&#xa3;" horiz-adv-x="1133" 
d="M117 608h137l20 164q22 190 125 292.5t277 102.5q92 0 177 -32t140 -86l-125 -158q-38 36 -89.5 58t-104.5 22q-75 0 -109 -48.5t-45 -156.5l-16 -158h344l-14 -119h-340q-22 -178 -66 -282q45 -25 110.5 -41t123.5 -16q108 0 155.5 42t56.5 148h181
q-22 -208 -105 -299.5t-229 -91.5q-64 0 -118.5 13.5t-105 30t-98 30.5t-96.5 14q-62 0 -188 -37l-41 127q58 24 98 72t47 106l21 184h-123v119z" />
    <glyph glyph-name="yen" unicode="&#xa5;" horiz-adv-x="1161" 
d="M156 676h188l-270 467h270l236 -436l241 436h258l-270 -467h211v-119h-281l-34 -61v-86h315v-119h-315v-291h-254v291h-295v119h295v84l-37 63h-258v119z" />
    <glyph glyph-name="dieresis" unicode="&#xa8;" horiz-adv-x="1044" 
d="M739 1145q-60 0 -97.5 35.5t-37.5 95.5t37.5 95.5t97.5 35.5q62 0 100 -35.5t38 -95.5t-38 -95.5t-100 -35.5zM303 1145q-60 0 -97.5 35.5t-37.5 95.5t37.5 95.5t97.5 35.5q62 0 99.5 -35.5t37.5 -95.5t-37.5 -95.5t-99.5 -35.5z" />
    <glyph glyph-name="plusminus" unicode="&#xb1;" horiz-adv-x="1065" 
d="M92 791h354v352h175v-352h348v-166h-348v-349h-175v349h-354v166zM106 164h857v-164h-857v164z" />
    <glyph glyph-name="acute" unicode="&#xb4;" horiz-adv-x="1071" 
d="M301 1114l211 334h244l-318 -408z" />
    <glyph glyph-name="cedilla" unicode="&#xb8;" horiz-adv-x="1044" 
d="M457 -145q0 24 12.5 54t44.5 91h125q-18 -40 -27.5 -62t-9.5 -32q0 -26 47 -47l43 -19q90 -42 90 -129q0 -85 -69.5 -140.5t-177.5 -55.5q-58 0 -112.5 17t-94.5 46l49 115q31 -26 74.5 -43t80.5 -17q44 0 70.5 16.5t26.5 39.5q0 17 -16.5 31.5t-69.5 38.5q-86 39 -86 96
z" />
    <glyph glyph-name="Adieresis" unicode="&#xc4;" horiz-adv-x="1300" 
d="M524 1376h252l514 -1376h-268l-111 307h-528l-111 -307h-262zM461 526h370l-184 516zM903 1491q-62 0 -101.5 37.5t-39.5 97.5q0 62 39.5 98.5t101.5 36.5q61 0 100.5 -37t39.5 -98t-40.5 -98t-99.5 -37zM389 1491q-60 0 -99.5 37.5t-39.5 97.5t38.5 97.5t100.5 37.5
t102 -36.5t40 -98.5q0 -61 -40.5 -98t-101.5 -37z" />
    <glyph glyph-name="Aring" unicode="&#xc5;" horiz-adv-x="1300" 
d="M524 1376h252l514 -1376h-268l-111 307h-528l-111 -307h-262zM461 526h370l-184 516zM645 1450q-97 0 -152 46t-55 126q0 72 55.5 117t151.5 45t151.5 -45.5t55.5 -116.5q0 -79 -54.5 -125.5t-152.5 -46.5zM645 1532q45 0 69.5 25.5t24.5 62.5t-27 59.5t-67 22.5t-66 -22
t-26 -60q0 -37 23 -62.5t69 -25.5z" />
    <glyph glyph-name="Ccedilla" unicode="&#xc7;" horiz-adv-x="1384" 
d="M659 -145q0 24 13 54.5t35 72.5q-182 21 -325 111.5t-221.5 237.5t-78.5 331q0 208 96 376t271 260.5t397 92.5q132 0 258 -30.5t215 -82.5l-100 -223q-74 50 -174.5 78t-208.5 28q-143 0 -254 -61t-170.5 -170t-59.5 -246q0 -138 62 -248t172.5 -170.5t244.5 -60.5
q108 0 216 34.5t184 90.5l106 -193q-85 -70 -222 -115t-286 -47q-24 -56 -24 -69q0 -26 47 -47l43 -19q90 -42 90 -129q0 -86 -71 -141t-177 -55q-58 0 -112.5 17t-94.5 46l50 115q31 -26 74.5 -43t80.5 -17q44 0 70 16.5t26 39.5q0 17 -16.5 31.5t-69.5 38.5q-86 39 -86 96
z" />
    <glyph glyph-name="Eacute" unicode="&#xc9;" horiz-adv-x="1126" 
d="M170 1366h862v-221h-598v-342h471v-219h-471v-363h613v-221h-877v1366zM383 1587l443 195l72 -189l-465 -143z" />
    <glyph glyph-name="Edieresis" unicode="&#xcb;" horiz-adv-x="1126" 
d="M170 1366h862v-221h-598v-342h471v-219h-471v-363h613v-221h-877v1366zM868 1491q-62 0 -101.5 37.5t-39.5 97.5q0 62 39.5 98.5t101.5 36.5q61 0 100.5 -37t39.5 -98t-40.5 -98t-99.5 -37zM354 1491q-60 0 -99.5 37.5t-39.5 97.5t38.5 97.5t100.5 37.5t102 -36.5
t40 -98.5q0 -61 -40.5 -98t-101.5 -37z" />
    <glyph glyph-name="Igrave" unicode="&#xcc;" horiz-adv-x="604" 
d="M170 1366h264v-1366h-264v1366zM95 1782l443 -195l-52 -137l-462 143z" />
    <glyph glyph-name="Iacute" unicode="&#xcd;" horiz-adv-x="604" 
d="M170 1366h264v-1366h-264v1366zM78 1587l443 195l72 -189l-465 -143z" />
    <glyph glyph-name="Icircumflex" unicode="&#xce;" horiz-adv-x="604" 
d="M170 1366h264v-1366h-264v1366zM-52 1558l258 226h201l256 -226l-131 -88l-226 180l-225 -180z" />
    <glyph glyph-name="Idieresis" unicode="&#xcf;" horiz-adv-x="604" 
d="M170 1366h264v-1366h-264v1366zM525 1499q-60 0 -97.5 35.5t-37.5 95.5t37.5 95.5t97.5 35.5q62 0 100 -35.5t38 -95.5t-38 -95.5t-100 -35.5zM89 1499q-60 0 -97.5 35.5t-37.5 95.5t37.5 95.5t97.5 35.5q62 0 99.5 -35.5t37.5 -95.5t-37.5 -95.5t-99.5 -35.5z" />
    <glyph glyph-name="Ntilde" unicode="&#xd1;" horiz-adv-x="1530" 
d="M381 1489l-2 18v14q0 115 58.5 180.5t164.5 65.5q67 0 113.5 -20.5t82 -45t65 -45t63.5 -20.5q68 0 68 107v20h157v-31q0 -119 -59 -185t-168 -66q-103 0 -188 66q-59 44 -80 54.5t-45 10.5q-36 0 -55 -28t-19 -77l1 -14l1 -4h-158zM170 1366h266l666 -963v963h258v-1366
h-268l-664 956v-956h-258v1366z" />
    <glyph glyph-name="Oacute" unicode="&#xd3;" horiz-adv-x="1640" 
d="M591 1587l443 195l72 -189l-465 -143zM78 680q0 193 95.5 359.5t266.5 259t385 92.5q213 0 380 -87t261.5 -245.5t94.5 -349.5q0 -196 -98.5 -368t-271 -269t-384.5 -97q-209 0 -375.5 92t-260 255.5t-93.5 357.5zM354 688q0 -130 58 -244t162 -179.5t239 -65.5
q136 0 244 65.5t168.5 179.5t60.5 248q0 131 -57.5 240.5t-164 172t-243.5 62.5t-244 -63t-165 -174t-58 -242z" />
    <glyph glyph-name="Ocircumflex" unicode="&#xd4;" horiz-adv-x="1640" 
d="M461 1558l258 226h201l256 -226l-131 -88l-226 180l-225 -180zM78 680q0 193 95.5 359.5t266.5 259t385 92.5q213 0 380 -87t261.5 -245.5t94.5 -349.5q0 -196 -98.5 -368t-271 -269t-384.5 -97q-209 0 -375.5 92t-260 255.5t-93.5 357.5zM354 688q0 -130 58 -244
t162 -179.5t239 -65.5q136 0 244 65.5t168.5 179.5t60.5 248q0 131 -57.5 240.5t-164 172t-243.5 62.5t-244 -63t-165 -174t-58 -242z" />
    <glyph glyph-name="Odieresis" unicode="&#xd6;" horiz-adv-x="1640" 
d="M78 680q0 193 95.5 359.5t266.5 259t385 92.5q213 0 380 -87t261.5 -245.5t94.5 -349.5q0 -196 -98.5 -368t-271 -269t-384.5 -97q-209 0 -375.5 92t-260 255.5t-93.5 357.5zM354 688q0 -130 58 -244t162 -179.5t239 -65.5q136 0 244 65.5t168.5 179.5t60.5 248
q0 131 -57.5 240.5t-164 172t-243.5 62.5t-244 -63t-165 -174t-58 -242zM1077 1491q-62 0 -101.5 37.5t-39.5 97.5q0 62 39.5 98.5t101.5 36.5q61 0 100.5 -37t39.5 -98t-40.5 -98t-99.5 -37zM563 1491q-60 0 -99.5 37.5t-39.5 97.5t38.5 97.5t100.5 37.5t102 -36.5
t40 -98.5q0 -61 -40.5 -98t-101.5 -37z" />
    <glyph glyph-name="Udieresis" unicode="&#xdc;" horiz-adv-x="1458" 
d="M154 1366h264v-827q0 -167 79.5 -253.5t233.5 -86.5q148 0 229.5 87t81.5 244v836h265v-825q0 -170 -72.5 -299t-205.5 -198t-300 -69q-277 0 -426 140.5t-149 396.5v854zM987 1491q-62 0 -101.5 37.5t-39.5 97.5q0 62 39.5 98.5t101.5 36.5q61 0 100.5 -37t39.5 -98
t-40.5 -98t-99.5 -37zM473 1491q-60 0 -99.5 37.5t-39.5 97.5t38.5 97.5t100.5 37.5t102 -36.5t40 -98.5q0 -61 -40.5 -98t-101.5 -37z" />
    <glyph glyph-name="Yacute" unicode="&#xdd;" horiz-adv-x="1245" 
d="M492 569l-494 797h309l316 -535l325 535h299l-491 -795v-571h-264v569zM395 1587l443 195l72 -189l-465 -143z" />
    <glyph glyph-name="agrave" unicode="&#xe0;" horiz-adv-x="1008" 
d="M53 219q0 289 545 361v32q0 89 -30.5 121.5t-98.5 32.5q-66 0 -143.5 -29.5t-151.5 -81.5l-61 181q80 54 195 87t233 33q169 0 241 -69.5t72 -233.5v-360q0 -49 29 -77.5t75 -31.5l-73 -198q-196 3 -260 137q-49 -73 -125.5 -110.5t-165.5 -37.5q-126 0 -203.5 69
t-77.5 175zM403 162q93 0 195 121v149q-152 -22 -218.5 -70.5t-66.5 -121.5q0 -78 90 -78zM147 1448h241l211 -334l-135 -74z" />
    <glyph glyph-name="aacute" unicode="&#xe1;" horiz-adv-x="1008" 
d="M53 219q0 289 545 361v32q0 89 -30.5 121.5t-98.5 32.5q-66 0 -143.5 -29.5t-151.5 -81.5l-61 181q80 54 195 87t233 33q169 0 241 -69.5t72 -233.5v-360q0 -49 29 -77.5t75 -31.5l-73 -198q-196 3 -260 137q-49 -73 -125.5 -110.5t-165.5 -37.5q-126 0 -203.5 69
t-77.5 175zM403 162q93 0 195 121v149q-152 -22 -218.5 -70.5t-66.5 -121.5q0 -78 90 -78zM350 1114l211 334h244l-318 -408z" />
    <glyph glyph-name="acircumflex" unicode="&#xe2;" horiz-adv-x="1008" 
d="M53 219q0 289 545 361v32q0 89 -30.5 121.5t-98.5 32.5q-66 0 -143.5 -29.5t-151.5 -81.5l-61 181q80 54 195 87t233 33q169 0 241 -69.5t72 -233.5v-360q0 -49 29 -77.5t75 -31.5l-73 -198q-196 3 -260 137q-49 -73 -125.5 -110.5t-165.5 -37.5q-126 0 -203.5 69
t-77.5 175zM403 162q93 0 195 121v149q-152 -22 -218.5 -70.5t-66.5 -121.5q0 -78 90 -78zM163 1098l235 350h158l234 -352l-140 -58l-174 244l-172 -244z" />
    <glyph glyph-name="atilde" unicode="&#xe3;" horiz-adv-x="1008" 
d="M53 219q0 289 545 361v32q0 89 -30.5 121.5t-98.5 32.5q-66 0 -143.5 -29.5t-151.5 -81.5l-61 181q80 54 195 87t233 33q169 0 241 -69.5t72 -233.5v-360q0 -49 29 -77.5t75 -31.5l-73 -198q-196 3 -260 137q-49 -73 -125.5 -110.5t-165.5 -37.5q-126 0 -203.5 69
t-77.5 175zM403 162q93 0 195 121v149q-152 -22 -218.5 -70.5t-66.5 -121.5q0 -78 90 -78zM130 1120l-2 19v12q0 122 54.5 190t152.5 68q96 0 174 -78q52 -52 71.5 -65t39.5 -13q59 0 59 117v25h156v-29q0 -78 -25.5 -140.5t-73 -93t-114.5 -30.5q-99 0 -168 78
q-41 44 -63.5 60.5t-45.5 16.5q-29 0 -44 -31.5t-15 -86.5v-19h-156z" />
    <glyph glyph-name="adieresis" unicode="&#xe4;" horiz-adv-x="1008" 
d="M53 219q0 289 545 361v32q0 89 -30.5 121.5t-98.5 32.5q-66 0 -143.5 -29.5t-151.5 -81.5l-61 181q80 54 195 87t233 33q169 0 241 -69.5t72 -233.5v-360q0 -49 29 -77.5t75 -31.5l-73 -198q-196 3 -260 137q-49 -73 -125.5 -110.5t-165.5 -37.5q-126 0 -203.5 69
t-77.5 175zM403 162q93 0 195 121v149q-152 -22 -218.5 -70.5t-66.5 -121.5q0 -78 90 -78zM693 1145q-60 0 -97.5 35.5t-37.5 95.5t37.5 95.5t97.5 35.5q62 0 100 -35.5t38 -95.5t-38 -95.5t-100 -35.5zM257 1145q-60 0 -97.5 35.5t-37.5 95.5t37.5 95.5t97.5 35.5
q62 0 99.5 -35.5t37.5 -95.5t-37.5 -95.5t-99.5 -35.5z" />
    <glyph glyph-name="aring" unicode="&#xe5;" horiz-adv-x="1008" 
d="M53 219q0 289 545 361v32q0 89 -30.5 121.5t-98.5 32.5q-66 0 -143.5 -29.5t-151.5 -81.5l-61 181q80 54 195 87t233 33q169 0 241 -69.5t72 -233.5v-360q0 -49 29 -77.5t75 -31.5l-73 -198q-196 3 -260 137q-49 -73 -125.5 -110.5t-165.5 -37.5q-126 0 -203.5 69
t-77.5 175zM403 162q93 0 195 121v149q-152 -22 -218.5 -70.5t-66.5 -121.5q0 -78 90 -78zM476 1096q-94 0 -150.5 53.5t-56.5 132.5t57 129.5t150 50.5q92 0 149.5 -50.5t57.5 -129.5t-56.5 -132.5t-150.5 -53.5zM476 1192q45 0 69.5 27t24.5 61q0 39 -27 62.5t-67 23.5
t-66 -22.5t-26 -63.5q0 -34 23 -61t69 -27z" />
    <glyph glyph-name="ae" unicode="&#xe6;" horiz-adv-x="1538" 
d="M113 836q80 54 192.5 87t224.5 33q193 0 254 -118q109 118 277 118q185 0 291.5 -118.5t107.5 -327.5l-139 -41l-463 -57q18 -112 89 -176t175 -64q143 0 283 115l68 -181q-75 -60 -178.5 -95.5t-215.5 -35.5q-255 0 -381 195q-45 -88 -140.5 -141.5t-213.5 -53.5
q-128 0 -209.5 68.5t-81.5 175.5q0 131 141.5 213.5t415.5 114.5v51q0 100 -30 134t-101 34q-69 0 -150.5 -30t-154.5 -81zM414 162q88 0 141 66t53 173q-295 -30 -295 -161q0 -78 101 -78zM1042 766q-73 0 -123 -54t-63 -151l328 39q-5 74 -41.5 120t-100.5 46z" />
    <glyph glyph-name="ccedilla" unicode="&#xe7;" horiz-adv-x="958" 
d="M410 -145q0 24 12 53.5t37 77.5q-175 29 -284 155.5t-109 307.5q0 137 66.5 255t183.5 185t259 67q90 0 179.5 -25.5t152.5 -68.5l-90 -186q-45 37 -105 60.5t-118 23.5q-118 0 -191 -81.5t-73 -215.5q0 -130 69.5 -210.5t186.5 -80.5q65 0 131 26.5t112 67.5l78 -172
q-51 -53 -138 -84.5t-189 -34.5q-25 -50 -25 -69q0 -26 47 -47l43 -19q90 -42 90 -129q0 -86 -71 -141t-177 -55q-59 0 -115 17.5t-91 45.5l49 115q31 -26 74.5 -43t80.5 -17q44 0 70.5 16.5t26.5 39.5q0 17 -16.5 31.5t-69.5 38.5q-86 39 -86 96z" />
    <glyph glyph-name="egrave" unicode="&#xe8;" horiz-adv-x="1010" 
d="M70 461q0 138 59.5 252.5t165.5 178.5t237 64q186 0 292 -120.5t108 -335.5l-139 -41l-461 -60q21 -105 89.5 -166t172.5 -61q143 0 283 115l65 -181q-74 -61 -178.5 -96t-212.5 -35q-145 0 -254 62t-168 174t-59 250zM514 766q-78 0 -127.5 -59.5t-60.5 -159.5l329 43
q-5 77 -40.5 126.5t-100.5 49.5zM186 1448h241l211 -334l-135 -74z" />
    <glyph glyph-name="eacute" unicode="&#xe9;" horiz-adv-x="1010" 
d="M389 1114l211 334h244l-318 -408zM70 461q0 138 59.5 252.5t165.5 178.5t237 64q186 0 292 -120.5t108 -335.5l-139 -41l-461 -60q21 -105 89.5 -166t172.5 -61q143 0 283 115l65 -181q-74 -61 -178.5 -96t-212.5 -35q-145 0 -254 62t-168 174t-59 250zM514 766
q-78 0 -127.5 -59.5t-60.5 -159.5l329 43q-5 77 -40.5 126.5t-100.5 49.5z" />
    <glyph glyph-name="ecircumflex" unicode="&#xea;" horiz-adv-x="1010" 
d="M204 1098l235 350h158l234 -352l-140 -58l-174 244l-172 -244zM70 461q0 138 59.5 252.5t165.5 178.5t237 64q186 0 292 -120.5t108 -335.5l-139 -41l-461 -60q21 -105 89.5 -166t172.5 -61q143 0 283 115l65 -181q-74 -61 -178.5 -96t-212.5 -35q-145 0 -254 62
t-168 174t-59 250zM514 766q-78 0 -127.5 -59.5t-60.5 -159.5l329 43q-5 77 -40.5 126.5t-100.5 49.5z" />
    <glyph glyph-name="edieresis" unicode="&#xeb;" horiz-adv-x="1010" 
d="M734 1145q-60 0 -97.5 35.5t-37.5 95.5t37.5 95.5t97.5 35.5q62 0 100 -35.5t38 -95.5t-38 -95.5t-100 -35.5zM298 1145q-60 0 -97.5 35.5t-37.5 95.5t37.5 95.5t97.5 35.5q62 0 99.5 -35.5t37.5 -95.5t-37.5 -95.5t-99.5 -35.5zM70 461q0 138 59.5 252.5t165.5 178.5
t237 64q186 0 292 -120.5t108 -335.5l-139 -41l-461 -60q21 -105 89.5 -166t172.5 -61q143 0 283 115l65 -181q-74 -61 -178.5 -96t-212.5 -35q-145 0 -254 62t-168 174t-59 250zM514 766q-78 0 -127.5 -59.5t-60.5 -159.5l329 43q-5 77 -40.5 126.5t-100.5 49.5z" />
    <glyph glyph-name="igrave" unicode="&#xec;" horiz-adv-x="514" 
d="M129 932h256v-932h-256v932zM-70 1448h241l211 -334l-135 -74z" />
    <glyph glyph-name="iacute" unicode="&#xed;" horiz-adv-x="514" 
d="M134 1114l211 334h244l-318 -408zM129 932h256v-932h-256v932z" />
    <glyph glyph-name="icircumflex" unicode="&#xee;" horiz-adv-x="514" 
d="M-54 1098l235 350h158l234 -352l-140 -58l-174 244l-172 -244zM129 932h256v-932h-256v932z" />
    <glyph glyph-name="idieresis" unicode="&#xef;" horiz-adv-x="514" 
d="M476 1145q-60 0 -97.5 35.5t-37.5 95.5t37.5 95.5t97.5 35.5q62 0 100 -35.5t38 -95.5t-38 -95.5t-100 -35.5zM40 1145q-60 0 -97.5 35.5t-37.5 95.5t37.5 95.5t97.5 35.5q62 0 99.5 -35.5t37.5 -95.5t-37.5 -95.5t-99.5 -35.5zM129 932h256v-932h-256v932z" />
    <glyph glyph-name="ntilde" unicode="&#xf1;" 
d="M125 911l246 41v-172q75 84 166.5 130t185.5 46q118 0 185 -71t67 -221v-664h-254v555q0 94 -21 137t-73 43q-48 0 -112.5 -39t-133.5 -108v-588h-256v911zM215 1120l-2 19v12q0 122 54.5 190t152.5 68q96 0 174 -78q52 -52 71.5 -65t39.5 -13q59 0 59 117v25h156v-29
q0 -78 -25.5 -140.5t-73 -93t-114.5 -30.5q-99 0 -168 78q-41 44 -63.5 60.5t-45.5 16.5q-29 0 -44 -31.5t-15 -86.5v-19h-156z" />
    <glyph glyph-name="ograve" unicode="&#xf2;" horiz-adv-x="1143" 
d="M68 463q0 143 65.5 259.5t180 175t261.5 58.5q149 0 263 -61t175.5 -170t61.5 -240q0 -145 -67 -266t-180.5 -182.5t-260.5 -61.5q-149 0 -262 62t-175 174.5t-62 251.5zM332 481q0 -140 66 -227.5t175 -87.5q102 0 170 81.5t68 211.5q0 136 -67 221.5t-173 85.5
q-104 0 -171.5 -80.5t-67.5 -204.5zM245 1448h241l211 -334l-135 -74z" />
    <glyph glyph-name="oacute" unicode="&#xf3;" horiz-adv-x="1143" 
d="M446 1114l211 334h244l-318 -408zM68 463q0 143 65.5 259.5t180 175t261.5 58.5q149 0 263 -61t175.5 -170t61.5 -240q0 -145 -67 -266t-180.5 -182.5t-260.5 -61.5q-149 0 -262 62t-175 174.5t-62 251.5zM332 481q0 -140 66 -227.5t175 -87.5q102 0 170 81.5t68 211.5
q0 136 -67 221.5t-173 85.5q-104 0 -171.5 -80.5t-67.5 -204.5z" />
    <glyph glyph-name="ocircumflex" unicode="&#xf4;" horiz-adv-x="1143" 
d="M258 1098l235 350h158l234 -352l-140 -58l-174 244l-172 -244zM68 463q0 143 65.5 259.5t180 175t261.5 58.5q149 0 263 -61t175.5 -170t61.5 -240q0 -145 -67 -266t-180.5 -182.5t-260.5 -61.5q-149 0 -262 62t-175 174.5t-62 251.5zM332 481q0 -140 66 -227.5
t175 -87.5q102 0 170 81.5t68 211.5q0 136 -67 221.5t-173 85.5q-104 0 -171.5 -80.5t-67.5 -204.5z" />
    <glyph glyph-name="otilde" unicode="&#xf5;" horiz-adv-x="1143" 
d="M68 463q0 143 65.5 259.5t180 175t261.5 58.5q149 0 263 -61t175.5 -170t61.5 -240q0 -145 -67 -266t-180.5 -182.5t-260.5 -61.5q-149 0 -262 62t-175 174.5t-62 251.5zM332 481q0 -140 66 -227.5t175 -87.5q102 0 170 81.5t68 211.5q0 136 -67 221.5t-173 85.5
q-104 0 -171.5 -80.5t-67.5 -204.5zM225 1120l-2 19v12q0 122 54.5 190t152.5 68q96 0 174 -78q52 -52 71.5 -65t39.5 -13q59 0 59 117v25h156v-29q0 -78 -25.5 -140.5t-73 -93t-114.5 -30.5q-99 0 -168 78q-41 44 -63.5 60.5t-45.5 16.5q-29 0 -44 -31.5t-15 -86.5v-19
h-156z" />
    <glyph glyph-name="odieresis" unicode="&#xf6;" horiz-adv-x="1143" 
d="M788 1145q-60 0 -97.5 35.5t-37.5 95.5t37.5 95.5t97.5 35.5q62 0 100 -35.5t38 -95.5t-38 -95.5t-100 -35.5zM352 1145q-60 0 -97.5 35.5t-37.5 95.5t37.5 95.5t97.5 35.5q62 0 99.5 -35.5t37.5 -95.5t-37.5 -95.5t-99.5 -35.5zM68 463q0 143 65.5 259.5t180 175
t261.5 58.5q149 0 263 -61t175.5 -170t61.5 -240q0 -145 -67 -266t-180.5 -182.5t-260.5 -61.5q-149 0 -262 62t-175 174.5t-62 251.5zM332 481q0 -140 66 -227.5t175 -87.5q102 0 170 81.5t68 211.5q0 136 -67 221.5t-173 85.5q-104 0 -171.5 -80.5t-67.5 -204.5z" />
    <glyph glyph-name="ugrave" unicode="&#xf9;" 
d="M119 932h256v-555q0 -105 22 -142.5t74 -37.5q42 0 97.5 28t138.5 99v608h254v-647q0 -103 40 -281l-245 -22q-19 71 -29 157q-164 -164 -352 -164q-122 0 -189 71.5t-67 209.5v676zM212 1448h241l211 -334l-135 -74z" />
    <glyph glyph-name="uacute" unicode="&#xfa;" 
d="M416 1114l211 334h244l-318 -408zM119 932h256v-555q0 -105 22 -142.5t74 -37.5q42 0 97.5 28t138.5 99v608h254v-647q0 -103 40 -281l-245 -22q-19 71 -29 157q-164 -164 -352 -164q-122 0 -189 71.5t-67 209.5v676z" />
    <glyph glyph-name="ucircumflex" unicode="&#xfb;" 
d="M225 1098l235 350h158l234 -352l-140 -58l-174 244l-172 -244zM119 932h256v-555q0 -105 22 -142.5t74 -37.5q42 0 97.5 28t138.5 99v608h254v-647q0 -103 40 -281l-245 -22q-19 71 -29 157q-164 -164 -352 -164q-122 0 -189 71.5t-67 209.5v676z" />
    <glyph glyph-name="udieresis" unicode="&#xfc;" 
d="M755 1145q-60 0 -97.5 35.5t-37.5 95.5t37.5 95.5t97.5 35.5q62 0 100 -35.5t38 -95.5t-38 -95.5t-100 -35.5zM319 1145q-60 0 -97.5 35.5t-37.5 95.5t37.5 95.5t97.5 35.5q62 0 99.5 -35.5t37.5 -95.5t-37.5 -95.5t-99.5 -35.5zM119 932h256v-555q0 -105 22 -142.5
t74 -37.5q42 0 97.5 28t138.5 99v608h254v-647q0 -103 40 -281l-245 -22q-19 71 -29 157q-164 -164 -352 -164q-122 0 -189 71.5t-67 209.5v676z" />
    <glyph glyph-name="yacute" unicode="&#xfd;" horiz-adv-x="973" 
d="M20 -289q96 11 185 77t129 159l33 78l-359 907h266l218 -610l213 610h258l-388 -1000q-67 -175 -195.5 -289t-281.5 -128zM367 1114l211 334h244l-318 -408z" />
    <glyph glyph-name="ydieresis" unicode="&#xff;" horiz-adv-x="973" 
d="M20 -289q96 11 185 77t129 159l33 78l-359 907h266l218 -610l213 610h258l-388 -1000q-67 -175 -195.5 -289t-281.5 -128zM709 1145q-60 0 -97.5 35.5t-37.5 95.5t37.5 95.5t97.5 35.5q62 0 100 -35.5t38 -95.5t-38 -95.5t-100 -35.5zM273 1145q-60 0 -97.5 35.5
t-37.5 95.5t37.5 95.5t97.5 35.5q62 0 99.5 -35.5t37.5 -95.5t-37.5 -95.5t-99.5 -35.5z" />
    <glyph glyph-name="dotlessi" unicode="&#x131;" horiz-adv-x="514" 
d="M129 932h256v-932h-256v932z" />
    <glyph glyph-name="Scaron" unicode="&#x160;" horiz-adv-x="1055" 
d="M156 324q57 -46 146.5 -82.5t179.5 -36.5q106 0 166.5 40.5t60.5 104.5q0 58 -47.5 107.5t-144.5 98.5q-148 74 -212 114t-108 86.5t-70.5 106t-26.5 136.5q0 109 59 199.5t167 141.5t245 51q82 0 184 -17.5t187 -44.5l-43 -237q-78 31 -165 50t-159 19q-95 0 -151.5 -37
t-56.5 -98q0 -57 45.5 -105t146.5 -98q142 -71 207.5 -111.5t109.5 -88.5t70.5 -109t26.5 -143q0 -116 -61 -206.5t-171 -140t-243 -49.5q-112 0 -221.5 30.5t-196.5 84.5zM187 1696l133 88l225 -181l226 181l131 -88l-258 -226h-201z" />
    <glyph glyph-name="scaron" unicode="&#x161;" horiz-adv-x="844" 
d="M118 1417l141 60l172 -246l174 246l140 -58l-234 -352h-158zM119 266q53 -43 124 -69.5t138 -26.5q74 0 109.5 22.5t35.5 57.5q0 33 -37.5 59t-181.5 91q-219 97 -219 268q0 133 102 210.5t285 77.5q78 0 151.5 -14t125.5 -37l-54 -207q-47 29 -108.5 46.5t-114.5 17.5
q-133 0 -133 -74q0 -30 34.5 -56.5t103.5 -55.5q122 -52 181.5 -95t88 -94.5t28.5 -114.5q0 -135 -104.5 -216t-282.5 -81q-93 0 -178.5 22t-146.5 60z" />
    <glyph glyph-name="Ydieresis" unicode="&#x178;" horiz-adv-x="1245" 
d="M492 569l-494 797h309l316 -535l325 535h299l-491 -795v-571h-264v569zM880 1491q-62 0 -101.5 37.5t-39.5 97.5q0 62 39.5 98.5t101.5 36.5q61 0 100.5 -37t39.5 -98t-40.5 -98t-99.5 -37zM366 1491q-60 0 -99.5 37.5t-39.5 97.5t38.5 97.5t100.5 37.5t102 -36.5
t40 -98.5q0 -61 -40.5 -98t-101.5 -37z" />
    <glyph glyph-name="Zcaron" unicode="&#x17d;" horiz-adv-x="1192" 
d="M74 160l676 985h-646v221h986v-160l-666 -985h690v-221h-1040v160zM258 1696l133 88l225 -181l226 181l131 -88l-258 -226h-201z" />
    <glyph glyph-name="zcaron" unicode="&#x17e;" horiz-adv-x="922" 
d="M151 1417l141 60l172 -246l174 246l140 -58l-234 -352h-158zM74 156l426 579h-410v197h741v-156l-434 -579h451v-197h-774v156z" />
    <glyph glyph-name="florin" unicode="&#x192;" horiz-adv-x="920" 
d="M47 713h283l20 166q19 153 90.5 270t183 179.5t242.5 62.5q76 0 146 -25l-56 -190q-61 18 -114 18q-99 0 -158 -78.5t-76 -220t-22 -182.5h291v-144h-308l-55 -465q-19 -153 -90.5 -270t-183 -179.5t-242.5 -62.5q-77 0 -143 25l53 190q63 -18 115 -18q98 0 157 79
t76 218l57 483h-266v144z" />
    <glyph glyph-name="circumflex" unicode="&#x2c6;" horiz-adv-x="1044" 
d="M209 1098l235 350h158l234 -352l-140 -58l-174 244l-172 -244z" />
    <glyph glyph-name="caron" unicode="&#x2c7;" horiz-adv-x="1044" 
d="M209 1417l141 60l172 -246l174 246l140 -58l-234 -352h-158z" />
    <glyph glyph-name="ring" unicode="&#x2da;" horiz-adv-x="1044" 
d="M522 1096q-94 0 -150.5 53.5t-56.5 132.5t57 129.5t150 50.5q92 0 149.5 -50.5t57.5 -129.5t-56.5 -132.5t-150.5 -53.5zM522 1192q45 0 69.5 27t24.5 61q0 39 -27 62.5t-67 23.5t-66 -22.5t-26 -63.5q0 -34 23 -61t69 -27z" />
    <glyph glyph-name="tilde" unicode="&#x2dc;" horiz-adv-x="1044" 
d="M180 1120l-2 19v12q0 122 54.5 190t152.5 68q96 0 174 -78q52 -52 71.5 -65t39.5 -13q59 0 59 117v25h156v-29q0 -78 -25.5 -140.5t-73 -93t-114.5 -30.5q-99 0 -168 78q-41 44 -63.5 60.5t-45.5 16.5q-29 0 -44 -31.5t-15 -86.5v-19h-156z" />
    <glyph glyph-name="Euro" unicode="&#x20ac;" horiz-adv-x="1155" 
d="M76 483h106q-4 34 -4 74l4 84h-106v119h131q55 188 199 297.5t339 109.5q80 0 166 -20.5t156 -54.5l-63 -197q-57 35 -124 55.5t-130 20.5q-102 0 -173.5 -55t-105.5 -156h494l-35 -119h-486l-2 -34v-34q0 -51 7 -90h438l-35 -118h-373q39 -93 111.5 -143t167.5 -50
q57 0 127.5 17.5t122.5 43.5l49 -182q-62 -34 -147 -55t-171 -21q-199 0 -341 104.5t-195 285.5h-127v118z" />
    <glyph glyph-name="minus" unicode="&#x2212;" horiz-adv-x="1065" 
d="M74 602h917v-166h-917v166z" />
    <glyph glyph-name="uniFB01" unicode="&#xfb01;" horiz-adv-x="1151" 
d="M766 760h-320v-760h-256v750h-145v137l145 51v57q0 154 59 271t166 179t244 62q79 0 158 -21.5t135 -58.5l-90 -180q-47 29 -103 46.5t-102 17.5q-104 0 -157.5 -77t-53.5 -220v-82h574v-932h-254v760z" />
    <glyph glyph-name="ellipsis" unicode="&#x2026;" horiz-adv-x="1659" 
d="M1243 131q0 64 44.5 112t111.5 48q66 0 113 -47.5t47 -112.5q0 -64 -47.5 -110t-112.5 -46t-110.5 47.5t-45.5 108.5zM672 131q0 64 44.5 112t110.5 48t113 -47.5t47 -112.5q0 -64 -47.5 -110t-112.5 -46q-64 0 -109.5 47.5t-45.5 108.5zM100 131q0 65 46 112.5t112 47.5
t112 -47.5t46 -112.5q0 -63 -46 -109.5t-112 -46.5q-65 0 -111.5 46.5t-46.5 109.5z" />
    <glyph glyph-name="uniFB02" unicode="&#xfb02;" horiz-adv-x="1188" 
d="M803 1276q-85 35 -146 35q-104 0 -157.5 -77t-53.5 -220v-82h250v-182h-250v-750h-256v750h-145v137l145 51v57q0 154 59 271t166 179t244 62q60 0 121 -13t140 -48l137 22v-1468h-254v1276z" />
    <glyph glyph-name="germandbls" unicode="&#xdf;" horiz-adv-x="1223" 
d="M45 887l145 51v72q0 232 116.5 353.5t330.5 121.5q181 0 288 -83t107 -222q0 -118 -93 -228q-51 -61 -72 -98.5t-21 -73.5q0 -48 35 -91.5t132 -115.5q84 -63 125.5 -132t41.5 -152q0 -141 -106.5 -227.5t-280.5 -86.5q-67 0 -130 14.5t-104 37.5l37 202q35 -27 82 -43
t94 -16q69 0 106 33.5t37 83.5q0 44 -34 82t-116 94q-151 100 -151 266q0 65 20 118.5t66 111.5q52 64 69 102t17 84q0 69 -41.5 109t-115.5 40q-183 0 -183 -276v-1018h-256v750h-145v137z" />
    <glyph glyph-name="slash" unicode="/" horiz-adv-x="956" 
d="M723 1366h172l-680 -1767h-174z" />
    <glyph glyph-name="Acircumflex" unicode="&#xc2;" horiz-adv-x="1300" 
d="M524 1376h252l514 -1376h-268l-111 307h-528l-111 -307h-262zM461 526h370l-184 516zM287 1558l258 226h201l256 -226l-131 -88l-226 180l-225 -180z" />
    <glyph glyph-name="Ecircumflex" unicode="&#xca;" horiz-adv-x="1126" 
d="M252 1558l258 226h201l256 -226l-131 -88l-226 180l-225 -180zM170 1366h862v-221h-598v-342h471v-219h-471v-363h613v-221h-877v1366z" />
    <glyph glyph-name="Aacute" unicode="&#xc1;" horiz-adv-x="1300" 
d="M524 1376h252l514 -1376h-268l-111 307h-528l-111 -307h-262zM461 526h370l-184 516zM417 1587l443 195l72 -189l-465 -143z" />
    <glyph glyph-name="Egrave" unicode="&#xc8;" horiz-adv-x="1126" 
d="M397 1782l443 -195l-52 -137l-462 143zM170 1366h862v-221h-598v-342h471v-219h-471v-363h613v-221h-877v1366z" />
    <glyph glyph-name="Ograve" unicode="&#xd2;" horiz-adv-x="1640" 
d="M606 1782l443 -195l-52 -137l-462 143zM78 680q0 193 95.5 359.5t266.5 259t385 92.5q213 0 380 -87t261.5 -245.5t94.5 -349.5q0 -196 -98.5 -368t-271 -269t-384.5 -97q-209 0 -375.5 92t-260 255.5t-93.5 357.5zM354 688q0 -130 58 -244t162 -179.5t239 -65.5
q136 0 244 65.5t168.5 179.5t60.5 248q0 131 -57.5 240.5t-164 172t-243.5 62.5t-244 -63t-165 -174t-58 -242z" />
    <glyph glyph-name="Uacute" unicode="&#xda;" horiz-adv-x="1458" 
d="M154 1366h264v-827q0 -167 79.5 -253.5t233.5 -86.5q148 0 229.5 87t81.5 244v836h265v-825q0 -170 -72.5 -299t-205.5 -198t-300 -69q-277 0 -426 140.5t-149 396.5v854zM501 1587l443 195l72 -189l-465 -143z" />
    <glyph glyph-name="Ucircumflex" unicode="&#xdb;" horiz-adv-x="1458" 
d="M371 1558l258 226h201l256 -226l-131 -88l-226 180l-225 -180zM154 1366h264v-827q0 -167 79.5 -253.5t233.5 -86.5q148 0 229.5 87t81.5 244v836h265v-825q0 -170 -72.5 -299t-205.5 -198t-300 -69q-277 0 -426 140.5t-149 396.5v854z" />
    <glyph glyph-name="Ugrave" unicode="&#xd9;" horiz-adv-x="1458" 
d="M516 1782l443 -195l-52 -137l-462 143zM154 1366h264v-827q0 -167 79.5 -253.5t233.5 -86.5q148 0 229.5 87t81.5 244v836h265v-825q0 -170 -72.5 -299t-205.5 -198t-300 -69q-277 0 -426 140.5t-149 396.5v854z" />
    <glyph glyph-name="Agrave" unicode="&#xc0;" horiz-adv-x="1300" 
d="M524 1376h252l514 -1376h-268l-111 307h-528l-111 -307h-262zM461 526h370l-184 516zM434 1782l443 -195l-52 -137l-462 143z" />
    <glyph glyph-name="Atilde" unicode="&#xc3;" horiz-adv-x="1300" 
d="M524 1376h252l514 -1376h-268l-111 307h-528l-111 -307h-262zM461 526h370l-184 516zM262 1489l-2 18v14q0 115 58.5 180.5t164.5 65.5q67 0 113.5 -20.5t82 -45t65 -45t63.5 -20.5q68 0 68 107v20h157v-31q0 -119 -59 -185t-168 -66q-103 0 -188 66q-59 44 -80 54.5
t-45 10.5q-36 0 -55 -28t-19 -77l1 -14l1 -4h-158z" />
    <glyph glyph-name="Otilde" unicode="&#xd5;" horiz-adv-x="1640" 
d="M78 680q0 193 95.5 359.5t266.5 259t385 92.5q213 0 380 -87t261.5 -245.5t94.5 -349.5q0 -196 -98.5 -368t-271 -269t-384.5 -97q-209 0 -375.5 92t-260 255.5t-93.5 357.5zM354 688q0 -130 58 -244t162 -179.5t239 -65.5q136 0 244 65.5t168.5 179.5t60.5 248
q0 131 -57.5 240.5t-164 172t-243.5 62.5t-244 -63t-165 -174t-58 -242zM436 1489l-2 18v14q0 115 58.5 180.5t164.5 65.5q67 0 113.5 -20.5t82 -45t65 -45t63.5 -20.5q68 0 68 107v20h157v-31q0 -119 -59 -185t-168 -66q-103 0 -188 66q-59 44 -80 54.5t-45 10.5
q-36 0 -55 -28t-19 -77l1 -14l1 -4h-158z" />
    <glyph glyph-name="questiondown" unicode="&#xbf;" horiz-adv-x="778" 
d="M578 471l4 -49q0 -136 -116 -275q-80 -96 -98 -125.5t-18 -54.5q0 -55 97.5 -122t254.5 -128l-57 -227q-261 79 -419 196t-158 248q0 53 33.5 107t118.5 140q75 77 113 147t38 143h207zM627 799q0 -65 -46.5 -111.5t-109.5 -46.5q-65 0 -112.5 46t-47.5 112
q0 65 47.5 111t112.5 46q63 0 109.5 -46t46.5 -111z" />
    <glyph glyph-name="exclamdown" unicode="&#xa1;" horiz-adv-x="580" 
d="M436.027 -460.745h-291.946l46.9912 929.829h201.963zM455.024 799.024q0 -64.9883 -45.9922 -112.479q-45.9912 -47.4912 -111.979 -47.4912q-64.9883 0 -110.979 46.4912t-45.9912 113.479q0 64.9873 46.4912 110.479q46.4912 45.4912 110.479 45.4912
q64.9883 0 111.479 -46.4912q46.4922 -46.4912 46.4922 -109.479z" />
    <glyph glyph-name="percent" unicode="%" horiz-adv-x="1565" 
d="M1204 1397l103 -70l-922 -1327h-149zM406 721q-144 0 -240 94t-96 229q0 137 95.5 229.5t240.5 92.5q144 0 238.5 -92.5t94.5 -229.5q0 -135 -95 -229t-238 -94zM406 870q73 0 122.5 51t49.5 123q0 70 -49 121.5t-123 51.5q-75 0 -125 -52t-50 -121q0 -70 50 -122
t125 -52zM827 299q0 136 96 229t238 93q143 0 239.5 -92.5t96.5 -229.5t-96 -230.5t-240 -93.5q-142 0 -238 93.5t-96 230.5zM989 299q0 -73 50 -123.5t122 -50.5q73 0 123.5 50t50.5 124q0 72 -50.5 122t-123.5 50q-72 0 -122 -50.5t-50 -121.5z" />
    <glyph glyph-name="multiply" unicode="&#xd7;" horiz-adv-x="1065" 
d="M182 993l350 -360l351 360l110 -114l-350 -361l350 -358l-112 -115l-349 358l-348 -358l-112 115l348 358l-348 361z" />
    <glyph glyph-name="backslash" unicode="\" horiz-adv-x="965" 
d="M61 1366h179l682 -1767h-181z" />
    <glyph glyph-name="less" unicode="&#x3c;" horiz-adv-x="1065" 
d="M53 567l873 469l41 -170l-676 -346l676 -368l-41 -166l-873 487v94z" />
    <glyph glyph-name="greater" unicode="&#x3e;" horiz-adv-x="1065" 
d="M98 152l674 368l-674 346l41 170l873 -469v-94l-873 -487z" />
    <glyph glyph-name="lessequal" unicode="&#x2264;" horiz-adv-x="1065" 
d="M66 752l872 397l41 -164l-649 -283l649 -299l-41 -161l-872 415v95zM66 164h917v-164h-917v164z" />
    <glyph glyph-name="greaterequal" unicode="&#x2265;" horiz-adv-x="1065" 
d="M86 403l647 299l-647 283l41 164l872 -397v-95l-872 -415zM82 164h917v-164h-917v164z" />
    <glyph glyph-name="quotesingle" unicode="'" horiz-adv-x="424" 
d="M115 1366h235v-76l-106 -467h-129v543z" />
    <glyph glyph-name="quotedbl" unicode="&#x22;" horiz-adv-x="793" 
d="M483 1366h222v-76l-70 -467h-152v543zM115 1366h221v-76l-70 -467h-151v543z" />
    <glyph glyph-name="dagger" unicode="&#x2020;" horiz-adv-x="1004" 
d="M432 776l-366 -41v215l366 -43l-39 459h215l-37 -459l367 43v-215l-367 41l29 -1061h-197z" />
    <glyph glyph-name="daggerdbl" unicode="&#x2021;" horiz-adv-x="1036" 
d="M82 346l367 -41v471l-367 -41v215l367 -43l-39 459h215l-37 -459l366 43v-215l-366 41v-471l366 41v-215l-366 43l37 -459h-215l39 459l-367 -43v215z" />
    <glyph glyph-name="perthousand" unicode="&#x2030;" horiz-adv-x="2331" 
d="M1210 1397l103 -70l-922 -1327h-149zM412 721q-144 0 -240 94t-96 229q0 137 95.5 229.5t240.5 92.5q144 0 238.5 -92.5t94.5 -229.5q0 -135 -95 -229t-238 -94zM412 870q73 0 122.5 51t49.5 123q0 70 -49 121.5t-123 51.5q-75 0 -124.5 -51.5t-49.5 -121.5
q0 -72 50 -123t124 -51zM1597 299q0 136 96 227.5t240 91.5t239 -92.5t95 -226.5q0 -135 -94.5 -229.5t-239.5 -94.5q-144 0 -240 94t-96 230zM834 299q0 138 96 228.5t237 90.5q144 0 240 -91.5t96 -227.5q0 -137 -96 -230.5t-240 -93.5q-142 0 -237.5 93t-95.5 231z
M1759 299q0 -72 50.5 -123t123.5 -51q74 0 123 51t49 123q0 71 -49.5 121.5t-122.5 50.5t-123.5 -51t-50.5 -121zM995 299q0 -73 50 -123.5t122 -50.5q73 0 123.5 50t50.5 124q0 72 -50.5 122t-123.5 50q-72 0 -122 -50.5t-50 -121.5z" />
    <glyph glyph-name="registered" unicode="&#xae;" horiz-adv-x="864" 
d="M432 733q-94 0 -176.5 47.5t-130 129.5t-47.5 177q0 94 48 177t129.5 130.5t176.5 47.5q94 0 176 -47.5t130 -130t48 -177.5q0 -94 -47.5 -176.5t-129.5 -130t-177 -47.5zM432 799q71 0 136 39.5t104 108t39 140.5q0 75 -39.5 143t-104.5 106t-135 38q-113 0 -195.5 -85
t-82.5 -202q0 -74 37.5 -141t102.5 -107t138 -40zM422 1044h-27v-126h-94v348h123q143 0 143 -105q0 -63 -61 -96l108 -147h-104zM430 1106q41 0 41 47q0 49 -55 49h-21v-96h35z" />
    <glyph glyph-name="copyright" unicode="&#xa9;" horiz-adv-x="1569" 
d="M78 682q0 188 94.5 352.5t258.5 259.5t353 95q188 0 352.5 -94.5t259.5 -258.5t95 -354q0 -188 -94.5 -352.5t-258.5 -259.5t-354 -95q-188 0 -352 94.5t-259 258.5t-95 354zM193 682q0 -159 76 -297.5t213 -221.5t302 -83q163 0 301 82.5t214.5 222t76.5 297.5
q0 161 -79 301t-216 220.5t-297 80.5q-159 0 -296.5 -80.5t-216 -220.5t-78.5 -301zM389 680q0 115 52 212t147 153.5t217 56.5q90 0 170 -34t127 -89l-92 -133q-37 44 -91.5 70t-113.5 26q-105 0 -166 -69.5t-61 -178.5q0 -113 67 -186.5t172 -73.5q62 0 122.5 26.5
t102.5 71.5l56 -139q-46 -54 -125 -86.5t-170 -32.5q-117 0 -211.5 52.5t-148.5 146.5t-54 207z" />
    <glyph glyph-name="paragraph" unicode="&#xb6;" horiz-adv-x="1380" 
d="M424 -336q135 0 194.5 75t59.5 241v387h-19q-182 0 -315.5 62.5t-207 176.5t-73.5 258q0 139 72.5 254.5t206.5 181.5t307 66h635v-137h-151v-1229h-146v1229h-153v-1270q0 -444 -379 -444z" />
    <glyph glyph-name="section" unicode="&#xa7;" horiz-adv-x="1010" 
d="M285 -158q34 82 34 189q0 60 -10 114l-119 666q-12 68 -12 135q0 207 105.5 326t287.5 119q89 0 184 -29t173 -78l-62 -135q-65 43 -144 69.5t-147 26.5q-110 0 -172.5 -83.5t-62.5 -221.5q0 -65 10 -113l109 -589q20 -117 20 -207q0 -135 -51 -211zM119 -244
q62 -42 142 -69t149 -27q111 0 173 83t62 222q0 55 -10 113l-107 590q-22 124 -22 206q0 137 53 211l141 -22q-34 -76 -34 -189q0 -58 10 -114l119 -666q12 -68 12 -137q0 -204 -104.5 -323t-288.5 -119q-93 0 -189.5 29.5t-167.5 76.5z" />
    <glyph glyph-name="bullet" unicode="&#x2022;" horiz-adv-x="834" 
d="M418 213q-131 0 -221.5 89t-90.5 222q0 132 90.5 222t221.5 90t220 -90.5t89 -221.5q0 -132 -89.5 -221.5t-219.5 -89.5z" />
    <glyph glyph-name="oe" unicode="&#x153;" horiz-adv-x="1747" 
d="M68 463q0 143 65.5 259.5t180 175t261.5 58.5q236 0 365 -168q125 168 330 168q186 0 291.5 -121.5t107.5 -334.5l-139 -41l-461 -60q23 -106 91 -166.5t171 -60.5q143 0 283 115l65 -181q-74 -61 -178.5 -96t-212.5 -35q-225 0 -352 168q-132 -168 -369 -168
q-149 0 -262 62t-175 174.5t-62 251.5zM332 481q0 -140 66 -227.5t175 -87.5q102 0 170 81.5t68 211.5q0 136 -67 221.5t-173 85.5q-104 0 -171.5 -80.5t-67.5 -204.5zM1251 766q-76 0 -127 -58t-61 -159l330 41q-5 77 -40.5 126.5t-101.5 49.5z" />
    <glyph glyph-name="OE" unicode="&#x152;" horiz-adv-x="2028" 
d="M78 680q0 193 95.5 359.5t266.5 259t385 92.5q135 0 256 -25h852v-221h-598v-342h471v-219h-471v-363h613v-221h-877q-136 -25 -264 -25q-209 0 -375.5 92t-260 255.5t-93.5 357.5zM354 688q0 -130 58.5 -244t163 -179.5t237.5 -65.5q158 0 258 26v905q-111 37 -250 37
q-137 0 -244 -63t-165 -174t-58 -242z" />
    <glyph glyph-name="AE" unicode="&#xc6;" horiz-adv-x="1843" 
d="M748 1366h1001v-221h-598v-342h471v-219h-471v-363h612v-221h-874v379h-420l-209 -379h-283zM592 600h297v537z" />
    <glyph glyph-name="underscore" unicode="_" horiz-adv-x="1063" 
d="M1042 -76v-141h-1024v141h1024z" />
    <glyph glyph-name="endash" unicode="&#x2013;" horiz-adv-x="1053" 
d="M106 608h840v-166h-840v166z" />
    <glyph glyph-name="emdash" unicode="&#x2014;" horiz-adv-x="1851" 
d="M106 608h1639v-166h-1639v166z" />
    <glyph glyph-name="divide" unicode="&#xf7;" horiz-adv-x="1065" 
d="M532 758q-56 0 -98.5 41.5t-42.5 101.5t42.5 101.5t98.5 41.5q59 0 101.5 -42.5t42.5 -100.5t-42.5 -100.5t-101.5 -42.5zM74 602h917v-166h-917v166zM391 135q0 61 42.5 102.5t98.5 41.5q59 0 101.5 -42.5t42.5 -101.5q0 -58 -42 -99.5t-102 -41.5q-57 0 -99 41t-42 100
z" />
    <glyph glyph-name="guilsinglleft" unicode="&#x2039;" horiz-adv-x="643" 
d="M422 82l-241 269q-128 143 -148 159v8q23 19 53.5 51.5t335.5 376.5l141 -41l-293 -391l293 -391z" />
    <glyph glyph-name="guilsinglright" unicode="&#x203a;" horiz-adv-x="643" 
d="M80 123l295 391l-42 54l-253 337l141 41q285 -321 324.5 -364.5t64.5 -63.5v-8q-19 -15 -83 -87l-306 -341z" />
    <glyph glyph-name="guillemotleft" unicode="&#xab;" horiz-adv-x="1044" 
d="M434 518q23 19 53.5 51.5t335.5 376.5l142 -41l-293 -391l293 -391l-142 -41l-241 269q-128 143 -148 159v8zM422 82l-241 269q-128 143 -148 159v8q23 19 53.5 51.5t335.5 376.5l141 -41l-293 -391l293 -391z" />
    <glyph glyph-name="guillemotright" unicode="&#xbb;" horiz-adv-x="1044" 
d="M481 123l293 391l-293 391l142 41q285 -321 324.5 -364.5t64.5 -63.5v-8q-19 -15 -83 -87l-306 -341zM80 123l295 391l-42 54l-253 337l141 41q285 -321 324.5 -364.5t64.5 -63.5v-8q-19 -15 -83 -87l-306 -341z" />
    <glyph glyph-name="trademark" unicode="&#x2122;" horiz-adv-x="1434" 
d="M674 1366h194l117 -340l119 340h192l21 -545h-133l-17 396l-139 -396h-90l-139 398l-13 -398h-133zM250 1257h-178v109h493v-109h-178v-436h-137v436z" />
    <glyph glyph-name="periodcentered" unicode="&#xb7;" horiz-adv-x="530" 
d="M264 367q-65 0 -111.5 45t-46.5 110q0 67 46.5 112.5t111.5 45.5q66 0 112 -46t46 -112q0 -63 -45 -109t-113 -46z" />
    <glyph glyph-name="oslash" unicode="&#xf8;" horiz-adv-x="1143" 
d="M68 463q0 143 65.5 259.5t180 175t261.5 58.5q140 0 244 -51l68 88h143l-115 -151q81 -68 120.5 -162.5t39.5 -194.5q0 -145 -67 -266t-180.5 -182.5t-260.5 -61.5q-138 0 -252 56l-69 -92h-146l119 159q-77 69 -114 165t-37 200zM811 459q0 102 -43 184l-324 -438
q53 -39 129 -39q102 0 170 81.5t68 211.5zM332 481q0 -104 37 -182l321 430q-49 37 -119 37q-104 0 -171.5 -80.5t-67.5 -204.5z" />
    <glyph glyph-name="quoteright" unicode="&#x2019;" horiz-adv-x="442" 
d="M66 965q65 51 96 102t31 111q0 48 -27.5 97t-118.5 144l211 111q113 -138 113 -281q0 -204 -219 -379z" />
    <glyph glyph-name="quoteleft" unicode="&#x2018;" horiz-adv-x="459" 
d="M197 870q-115 142 -115 283q0 202 221 377l84 -94q-63 -51 -94 -101.5t-31 -109.5q0 -50 28 -99.5t116 -144.5z" />
    <glyph glyph-name="quotedblright" unicode="&#x201d;" horiz-adv-x="834" 
d="M457 965q65 51 96 102t31 111q0 51 -31 103t-113 138l209 111q113 -138 113 -281q0 -204 -219 -379zM66 965q65 51 96 102t31 111q0 48 -27.5 97t-118.5 144l211 111q113 -138 113 -281q0 -204 -219 -379z" />
    <glyph glyph-name="quotedblleft" unicode="&#x201c;" horiz-adv-x="850" 
d="M588 870q-115 142 -115 283q0 202 221 377l84 -94q-63 -51 -94 -101.5t-31 -109.5q0 -50 28 -99.5t116 -144.5zM197 870q-115 142 -115 283q0 202 221 377l84 -94q-63 -51 -94 -101.5t-31 -109.5q0 -50 28 -99.5t116 -144.5z" />
    <glyph glyph-name="quotesinglbase" unicode="&#x201a;" horiz-adv-x="496" 
d="M289 309q114 -139 114 -280q0 -204 -221 -377l-86 92q65 51 96 102t31 111q0 52 -29.5 102t-115.5 140z" />
    <glyph glyph-name="quotedblbase" unicode="&#x201e;" horiz-adv-x="887" 
d="M680 309q115 -140 115 -280q0 -205 -222 -377l-86 92q65 51 96 102t31 111q0 52 -29.5 102t-115.5 140zM289 309q114 -139 114 -280q0 -204 -221 -377l-86 92q65 51 96 102t31 111q0 52 -29.5 102t-115.5 140z" />
    <glyph glyph-name="uni00B5" unicode="&#xb5;" horiz-adv-x="1204" 
d="M150 932h256v-555q0 -105 22 -142.5t74 -37.5q48 0 112.5 36t122.5 91v608h254v-645q0 -60 9 -82.5t32 -31.5t92 -9v-178q-81 -11 -129 -11q-109 0 -169 36t-78 120q-162 -156 -342 -156q-35 0 -66 7q5 -83 30 -245q21 -144 21 -179h-262q21 200 21 362v1012z" />
    <glyph glyph-name="uni00B5" unicode="&#x3bc;" horiz-adv-x="1204" 
d="M150 932h256v-555q0 -105 22 -142.5t74 -37.5q48 0 112.5 36t122.5 91v608h254v-645q0 -60 9 -82.5t32 -31.5t92 -9v-178q-81 -11 -129 -11q-109 0 -169 36t-78 120q-162 -156 -342 -156q-35 0 -66 7q5 -83 30 -245q21 -144 21 -179h-262q21 200 21 362v1012z" />
    <glyph glyph-name="numbersign" unicode="#" horiz-adv-x="1401" 
d="M174 795h277l79 389h148l-80 -389h291l80 389h149l-80 -389h293l-22 -144h-299l-58 -278h297l-22 -144h-303l-84 -411h-152l86 411h-291l-84 -411h-149l84 411h-264l22 144h273l57 278h-270zM512 373h291l57 278h-291z" />
    <glyph glyph-name="Oslash" unicode="&#xd8;" horiz-adv-x="1640" 
d="M78 680q0 193 95.5 359.5t266.5 259t385 92.5q213 0 377 -86l94 122h162l-145 -192q117 -93 182.5 -229.5t65.5 -296.5q0 -196 -98.5 -368t-271 -269t-384.5 -97t-381 95l-100 -131h-164l157 206q-117 99 -179 238t-62 297zM1286 692q0 94 -33 183t-96 157l-586 -768
q105 -65 242 -65q136 0 244 65.5t168.5 179.5t60.5 248zM354 688q0 -90 29.5 -179.5t89.5 -160.5l582 762q-98 57 -234 57q-137 0 -244 -63t-165 -174t-58 -242z" />
    <glyph glyph-name="Thorn" unicode="&#xde;" horiz-adv-x="1192" 
d="M170 1366h264v-281h234q227 0 350 -100t123 -283q0 -192 -129.5 -304.5t-343.5 -112.5h-234v-285h-264v1366zM627 506q120 0 179.5 44t59.5 138q0 93 -59.5 135.5t-179.5 42.5h-193v-360h193z" />
    <glyph glyph-name="thorn" unicode="&#xfe;" horiz-adv-x="1106" 
d="M129 1427l256 41v-659q37 70 103 108.5t155 38.5q115 0 204.5 -59.5t138 -165t48.5 -235.5q0 -146 -58.5 -265.5t-166.5 -187.5t-246 -68q-116 0 -178 39v-454l-256 -41v1908zM385 252q0 -43 37.5 -64.5t97.5 -21.5q118 0 184 83.5t66 229.5q0 126 -48 201.5t-128 75.5
q-54 0 -109 -36.5t-100 -103.5v-364z" />
    <glyph glyph-name="lslash" unicode="&#x142;" horiz-adv-x="586" 
d="M14 618l156 89v720l256 41v-616l156 88v-172l-156 -88v-680h-256v537l-156 -88v169z" />
    <glyph glyph-name="Lslash" unicode="&#x141;" horiz-adv-x="1112" 
d="M41 625l160 90v651h264v-502l301 172v-172l-301 -172v-471h616v-221h-880v545l-160 -90v170z" />
    <glyph glyph-name="notequal" unicode="&#x2260;" horiz-adv-x="1065" 
d="M84 764h541l149 250l103 -62l-113 -188h217v-143h-301l-127 -215h428v-144h-514l-154 -260l-102 61l117 199h-244v144h330l127 215h-457v143z" />
    <glyph glyph-name="Eth" unicode="&#xd0;" horiz-adv-x="1522" 
d="M53 795h148v571h485q225 0 399 -81.5t262.5 -229.5t88.5 -350q0 -218 -101.5 -378t-289 -243.5t-437.5 -83.5h-407v592h-148v203zM588 221q276 0 424.5 121.5t148.5 349.5q0 215 -132 334t-372 119h-192v-350h315v-203h-315v-371h123z" />
    <glyph glyph-name="eth" unicode="&#xf0;" horiz-adv-x="1120" 
d="M182 1130l201 113q-100 58 -248 94l47 185q231 -43 410 -158l297 168l67 -131l-237 -135q146 -131 227.5 -307t81.5 -381q0 -177 -61 -315t-174.5 -213t-262.5 -75q-135 0 -240 60.5t-163.5 169t-58.5 239.5q0 133 59.5 252t164.5 189.5t232 70.5q134 0 201 -67
q-66 152 -203 266l-270 -154zM319 463q0 -129 60.5 -213t159.5 -84q118 0 181.5 100.5t63.5 280.5q0 99 -52.5 159t-147.5 60q-116 0 -190.5 -86t-74.5 -217z" />
    <glyph glyph-name="degree" unicode="&#xb0;" horiz-adv-x="649" 
d="M324 899q-105 0 -177.5 72.5t-72.5 173.5t72.5 173.5t177.5 72.5q104 0 176.5 -72.5t72.5 -173.5t-72.5 -173.5t-176.5 -72.5zM324 1008q56 0 94.5 40t38.5 97t-38 96t-95 39q-58 0 -96 -38.5t-38 -96.5q0 -57 38 -97t96 -40z" />
    <glyph glyph-name="onehalf" unicode="&#xbd;" horiz-adv-x="1823" 
d="M1149 115l126 117q123 113 180 193.5t57 143.5q0 54 -32 78.5t-83 24.5q-36 0 -75 -16.5t-72 -45.5l-99 121q50 51 126 82t155 31q123 0 199.5 -67t76.5 -181q0 -97 -66.5 -203.5t-211.5 -240.5h323v-150h-589zM88 684h189v545h-172v141h364v-686h172v-141h-553v141z
M469 0l815 1417l136 -57l-783 -1360h-168z" />
    <glyph glyph-name="onequarter" unicode="&#xbc;" horiz-adv-x="1739" 
d="M1372 186h-358l-16 127l340 521h219v-504h114v-144h-114v-184h-185v184zM1372 330v317l-208 -317h208zM90 684h189v545h-172v141h364v-686h172v-141h-553v141zM432 0l815 1417l136 -57l-783 -1360h-168z" />
    <glyph glyph-name="uni00B9" unicode="&#xb9;" horiz-adv-x="643" 
d="M63 911h189v545h-172v141h364v-686h172v-141h-553v141z" />
    <glyph glyph-name="threequarters" unicode="&#xbe;" horiz-adv-x="1751" 
d="M1384 186h-358l-16 127l340 521h219v-504h114v-144h-114v-184h-185v184zM1384 330v317l-208 -317h208zM328 527q-68 0 -136.5 20t-119.5 55l82 136q33 -23 76.5 -38.5t85.5 -15.5q56 0 90.5 28t34.5 73q0 42 -42 67t-110 25h-70v149q74 2 129.5 39.5t55.5 89.5
q0 68 -82 68q-66 0 -144 -47l-79 123q55 40 125.5 63t140.5 23q110 0 178 -54.5t68 -140.5q0 -69 -47 -128.5t-117 -82.5q200 -42 200 -192q0 -70 -42 -130.5t-115.5 -95t-161.5 -34.5zM444 0l815 1417l136 -57l-783 -1360h-168z" />
    <glyph glyph-name="uni00B3" unicode="&#xb3;" horiz-adv-x="682" 
d="M295 754q-68 0 -136.5 20t-119.5 55l82 136q33 -23 76.5 -38.5t85.5 -15.5q56 0 90.5 28t34.5 73q0 42 -42 67t-110 25h-70v149q74 2 129.5 39.5t55.5 89.5q0 68 -82 68q-66 0 -144 -47l-79 123q55 40 125.5 63t140.5 23q110 0 178 -54.5t68 -140.5q0 -69 -47 -128.5
t-117 -82.5q200 -42 200 -192q0 -70 -42 -130.5t-115.5 -95t-161.5 -34.5z" />
    <glyph glyph-name="uni00B2" unicode="&#xb2;" horiz-adv-x="717" 
d="M55 883l126 117q123 113 180 193.5t57 143.5q0 54 -32 78.5t-83 24.5q-36 0 -75 -16.5t-72 -45.5l-99 121q50 51 126 82t155 31q123 0 199.5 -67t76.5 -181q0 -97 -66.5 -203.5t-211.5 -240.5h323v-150h-589z" />
    <glyph glyph-name="brokenbar" unicode="&#xa6;" horiz-adv-x="483" 
d="M150 1415h186v-733h-186v733zM336 365v-734h-186v734h186z" />
    <glyph glyph-name="infinity" unicode="&#x221e;" horiz-adv-x="1667" 
d="M436 156q-144 0 -245 102.5t-101 253.5q0 149 100.5 252.5t245.5 103.5q98 0 192 -57.5t206 -198.5q112 141 208.5 198.5t198.5 57.5q91 0 169 -46.5t122.5 -126.5t44.5 -173q0 -153 -101 -259.5t-245 -106.5q-99 0 -193 57t-204 197q-77 -98 -134 -146t-122.5 -78
t-141.5 -30zM926 512q72 -104 153.5 -163.5t151.5 -59.5q80 0 137 63.5t57 159.5q0 95 -57 159t-137 64q-69 0 -149.5 -59t-155.5 -164zM436 289q70 0 150.5 59t154.5 164q-74 104 -155.5 163.5t-149.5 59.5q-80 0 -137 -63.5t-57 -159.5q0 -95 57 -159t137 -64z" />
    <glyph glyph-name="partialdiff" unicode="&#x2202;" horiz-adv-x="1106" 
d="M68 420q0 123 54 227t153 164.5t227 60.5q87 0 149 -26.5t92 -73.5q-19 277 -143 422t-334 145v193q224 0 391.5 -98t261 -291.5t93.5 -446.5q0 -204 -65 -370.5t-182.5 -258.5t-268.5 -92q-186 0 -307 129t-121 316zM494 166q60 0 112.5 47.5t87.5 137.5t47 210
q-30 55 -81 87t-113 32q-98 0 -157.5 -79.5t-59.5 -203.5q0 -101 45.5 -166t118.5 -65z" />
    <glyph glyph-name="summation" unicode="&#x2211;" horiz-adv-x="1214" 
d="M522 590l-438 616v160h1008v-221h-666l389 -553l-389 -555h721v-221h-1063v159z" />
    <glyph glyph-name="product" unicode="&#x220f;" horiz-adv-x="1583" 
d="M68 1366h1448v-221h-213v-1329h-263v1329h-497v-1329h-262v1329h-213v221z" />
    <glyph glyph-name="pi" unicode="&#x3c0;" horiz-adv-x="1208" 
d="M78 932h1061v-197h-199v-497q0 -60 9 -82t31.5 -31.5t92.5 -9.5v-129q-75 -11 -117 -11q-87 0 -136 28t-71 78.5t-22 164.5v489h-235v-63q0 -229 -32 -367.5t-97.5 -218.5t-163.5 -111l-113 158q79 40 122 101.5t61 150t18 297.5v53h-209v197z" />
    <glyph glyph-name="integral" unicode="&#x222b;" horiz-adv-x="870" 
d="M31 -270q50 -19 96 -19q98 0 147.5 76.5t49.5 220.5v1014q0 234 123.5 373t328.5 139q77 0 150 -25l-54 -190q-47 18 -96 18q-96 0 -146 -75.5t-50 -221.5v-1013q0 -233 -124.5 -372.5t-328.5 -139.5q-80 0 -150 24z" />
    <glyph glyph-name="ordfeminine" unicode="&#xaa;" horiz-adv-x="805" 
d="M281 703q-90 0 -147.5 48t-57.5 126q0 202 383 254v20q0 56 -19.5 76.5t-62.5 20.5q-50 0 -109 -24t-108 -60l-43 141q55 37 139.5 60.5t173.5 23.5q119 0 173.5 -48t54.5 -163v-252q0 -35 20.5 -56t52.5 -22l-51 -139q-153 3 -199 86q-69 -92 -200 -92zM336 840
q56 0 123 74v106q-96 -15 -138 -44.5t-42 -76.5q0 -30 16 -44.5t41 -14.5z" />
    <glyph glyph-name="ordmasculine" unicode="&#xba;" horiz-adv-x="877" 
d="M437 703q-162 0 -262.5 95t-100.5 245q0 98 44.5 177t127.5 124t197 45q108 0 189.5 -43t126 -119.5t44.5 -167.5q0 -98 -44.5 -180t-127.5 -129t-194 -47zM441 842q69 0 112 58t43 141q0 91 -42 149t-115 58q-68 0 -113 -54t-45 -137q0 -96 43 -155.5t117 -59.5z" />
    <glyph glyph-name="Omega" unicode="&#x3a9;" horiz-adv-x="1620" 
d="M78 201h299q-60 66 -114.5 164.5t-86 203t-31.5 203.5q0 169 86 312.5t239 225t335 81.5q185 0 337.5 -82t238 -226t85.5 -317q0 -131 -58 -275.5t-175 -289.5h311l-20 -201h-523l-40 98l33 52q94 149 145 297t51 278q0 208 -102.5 325t-282.5 117q-178 0 -280.5 -117
t-102.5 -325q0 -133 54 -286.5t173 -340.5l-41 -98h-510z" />
    <glyph glyph-name="Omega" unicode="&#x2126;" horiz-adv-x="1620" 
d="M78 201h299q-60 66 -114.5 164.5t-86 203t-31.5 203.5q0 169 86 312.5t239 225t335 81.5q185 0 337.5 -82t238 -226t85.5 -317q0 -131 -58 -275.5t-175 -289.5h311l-20 -201h-523l-40 98l33 52q94 149 145 297t51 278q0 208 -102.5 325t-282.5 117q-178 0 -280.5 -117
t-102.5 -325q0 -133 54 -286.5t173 -340.5l-41 -98h-510z" />
    <glyph glyph-name="asciicircum" unicode="^" horiz-adv-x="965" 
d="M412 1391h141l438 -879h-184l-328 655l-325 -655h-181z" />
    <glyph glyph-name="asciitilde" unicode="~" horiz-adv-x="1190" 
d="M111 344q0 172 73 259t213 87q138 0 233 -96q56 -58 88 -77t70 -19q62 0 96 49.5t34 134.5h167q0 -172 -73 -259t-213 -87q-138 0 -232 96q-57 58 -89 77t-70 19q-61 0 -95 -50t-34 -134h-168z" />
    <glyph glyph-name="logicalnot" unicode="&#xac;" horiz-adv-x="1163" 
d="M96 807h948v-580h-170v416h-778v164z" />
    <glyph glyph-name="radical" unicode="&#x221a;" horiz-adv-x="1217" 
d="M313 768h-284v164h415l213 -580l416 1182h184l-577 -1608h-53z" />
    <glyph glyph-name="approxequal" unicode="&#x2248;" horiz-adv-x="1065" 
d="M35 711q66 66 151 107.5t160 41.5q100 0 200 -71q56 -40 92.5 -56t72.5 -16q122 0 221 106l92 -125q-69 -69 -153.5 -109t-159.5 -40q-100 0 -200 72q-56 39 -92.5 55t-72.5 16q-115 0 -221 -106zM35 324q66 66 151 107.5t160 41.5q100 0 200 -71q56 -40 92.5 -56
t72.5 -16q122 0 221 106l92 -125q-69 -69 -153.5 -109t-159.5 -40q-100 0 -200 72q-56 39 -92.5 55t-72.5 16q-115 0 -221 -106z" />
    <glyph glyph-name="Delta" unicode="&#x394;" horiz-adv-x="1284" 
d="M59 70l553 1296h93l520 -1296v-70h-1166v70zM262 154h713l-352 893z" />
    <glyph glyph-name="Delta" unicode="&#x2206;" horiz-adv-x="1284" 
d="M59 70l553 1296h93l520 -1296v-70h-1166v70zM262 154h713l-352 893z" />
    <glyph glyph-name="lozenge" unicode="&#x25ca;" horiz-adv-x="1092" 
d="M61 743l445 799h82l442 -799l-442 -821h-82zM549 178l293 567l-295 545l-297 -545z" />
    <glyph glyph-name="uni2074" unicode="&#x2074;" horiz-adv-x="754" 
d="M403 954h-358l-16 127l340 521h219v-504h114v-144h-114v-184h-185v184zM403 1098v317l-208 -317h208z" />
    <glyph glyph-name="macron" unicode="&#xaf;" horiz-adv-x="965" 
d="M219 1341h526v-159h-526v159z" />
    <glyph glyph-name="breve" unicode="&#x2d8;" horiz-adv-x="1044" 
d="M522 1110q-135 0 -216 75t-81 204l4 55h140v-25q0 -83 40.5 -125.5t112.5 -42.5q76 0 115 44t39 124v25h139l2 -55q0 -128 -80 -203.5t-215 -75.5z" />
    <glyph glyph-name="dotaccent" unicode="&#x2d9;" horiz-adv-x="1044" 
d="M522 1135q-67 0 -108 40.5t-41 102.5q0 63 41.5 103t107.5 40t108 -41t42 -102t-42 -102t-108 -41z" />
    <glyph glyph-name="hungarumlaut" unicode="&#x2dd;" horiz-adv-x="1044" 
d="M489 1114l222 334h225l-320 -408zM115 1114l211 334h225l-309 -408z" />
    <glyph glyph-name="ogonek" unicode="&#x2db;" horiz-adv-x="1044" 
d="M338 -303q0 51 19 92.5t48 80.5t63.5 78.5t66.5 84.5l204 33l15 -21q-97 -75 -159.5 -160.5t-62.5 -142.5q0 -68 76 -68q47 0 94 21l19 -152q-87 -28 -172 -28q-99 0 -155 47.5t-56 134.5z" />
    <glyph glyph-name="fraction" unicode="&#x2044;" horiz-adv-x="301" 
d="M-326 0l815 1417l136 -57l-783 -1360h-168z" />
    <glyph glyph-name="uniE361" unicode="&#xe361;" horiz-adv-x="729" 
d="M244 592q-90 0 -147.5 48t-57.5 126q0 202 383 254v20q0 56 -19.5 76.5t-62.5 20.5q-50 0 -109 -24t-108 -60l-43 141q55 37 139.5 60.5t173.5 23.5q119 0 173.5 -48t54.5 -163v-252q0 -35 20.5 -56t52.5 -22l-51 -139q-153 3 -199 86q-69 -92 -200 -92zM299 729
q56 0 123 74v106q-96 -15 -138 -44.5t-42 -76.5q0 -30 16 -44.5t41 -14.5z" />
    <glyph glyph-name="uniE36E" unicode="&#xe36e;" horiz-adv-x="819" 
d="M408 592q-162 0 -262.5 95t-100.5 245q0 98 44.5 177t127.5 124t197 45q108 0 189.5 -43t126 -119.5t44.5 -167.5q0 -98 -44.5 -180t-127.5 -129t-194 -47zM412 731q69 0 112 58t43 141q0 91 -42 149t-115 58q-68 0 -113 -54t-45 -137q0 -96 43 -155.5t117 -59.5z" />
    <glyph glyph-name="Abreve" unicode="&#x102;" horiz-adv-x="1300" 
d="M524 1376h252l514 -1376h-268l-111 307h-528l-111 -307h-262zM461 526h370l-184 516zM645 1464q-143 0 -225 74t-82 197l4 53h139l-1 -23q0 -69 34 -112t131 -43q165 0 165 156l-1 22h139l4 -53q0 -124 -83 -197.5t-224 -73.5z" />
    <glyph glyph-name="Amacron" unicode="&#x100;" horiz-adv-x="1300" 
d="M524 1376h252l514 -1376h-268l-111 307h-528l-111 -307h-262zM461 526h370l-184 516zM350 1702h588v-152h-588v152z" />
    <glyph glyph-name="Aogonek" unicode="&#x104;" horiz-adv-x="1300" 
d="M524 1376h252l514 -1376q-91 -88 -128.5 -149.5t-37.5 -108.5q0 -68 77 -68q41 0 91 21l19 -152q-87 -28 -172 -28q-97 0 -153 47.5t-56 134.5q0 55 26 108.5t85 121.5l61 73h-80l-111 307h-528l-111 -307h-262zM461 526h370l-184 516z" />
    <glyph glyph-name="abreve" unicode="&#x103;" horiz-adv-x="1008" 
d="M53 219q0 289 545 361v32q0 89 -30.5 121.5t-98.5 32.5q-66 0 -143.5 -29.5t-151.5 -81.5l-61 181q80 54 195 87t233 33q169 0 241 -69.5t72 -233.5v-360q0 -49 29 -77.5t75 -31.5l-73 -198q-196 3 -260 137q-49 -73 -125.5 -110.5t-165.5 -37.5q-126 0 -203.5 69
t-77.5 175zM403 162q93 0 195 121v149q-152 -22 -218.5 -70.5t-66.5 -121.5q0 -78 90 -78zM476 1110q-135 0 -216 75t-81 204l4 55h140v-25q0 -83 40.5 -125.5t112.5 -42.5q76 0 115 44t39 124v25h139l2 -55q0 -128 -80 -203.5t-215 -75.5z" />
    <glyph glyph-name="amacron" unicode="&#x101;" horiz-adv-x="1008" 
d="M53 219q0 289 545 361v32q0 89 -30.5 121.5t-98.5 32.5q-66 0 -143.5 -29.5t-151.5 -81.5l-61 181q80 54 195 87t233 33q169 0 241 -69.5t72 -233.5v-360q0 -49 29 -77.5t75 -31.5l-73 -198q-196 3 -260 137q-49 -73 -125.5 -110.5t-165.5 -37.5q-126 0 -203.5 69
t-77.5 175zM403 162q93 0 195 121v149q-152 -22 -218.5 -70.5t-66.5 -121.5q0 -78 90 -78zM214 1341h526v-159h-526v159z" />
    <glyph glyph-name="aogonek" unicode="&#x105;" horiz-adv-x="1010" 
d="M53 219q0 289 545 361v32q0 89 -30.5 121.5t-98.5 32.5q-66 0 -143.5 -29.5t-151.5 -81.5l-61 181q80 54 195 87t233 33q169 0 241 -69.5t72 -233.5v-360q0 -49 29 -77.5t75 -31.5l-73 -196l2 -2q-152 -152 -152 -244q0 -68 74 -68q47 0 94 21l19 -152q-88 -28 -172 -28
q-97 0 -153 47.5t-56 134.5q0 58 28.5 114t92.5 128l65 79q-72 38 -102 105q-49 -73 -125.5 -110.5t-165.5 -37.5q-126 0 -203.5 69t-77.5 175zM403 162q93 0 195 121v149q-152 -22 -218.5 -70.5t-66.5 -121.5q0 -78 90 -78z" />
    <glyph glyph-name="Cacute" unicode="&#x106;" horiz-adv-x="1382" 
d="M80 662q0 208 96 376t271 260.5t397 92.5q132 0 258 -30.5t215 -82.5l-100 -223q-74 50 -174.5 78t-208.5 28q-143 0 -254 -60.5t-170.5 -169.5t-59.5 -247t62 -248t172.5 -170.5t244.5 -60.5q108 0 216 34.5t184 90.5l106 -193q-85 -73 -226 -117.5t-296 -44.5
q-208 0 -377 86t-262.5 242.5t-93.5 358.5zM536 1587l443 195l72 -189l-465 -143z" />
    <glyph glyph-name="Ccaron" unicode="&#x10c;" horiz-adv-x="1382" 
d="M80 662q0 208 96 376t271 260.5t397 92.5q132 0 258 -30.5t215 -82.5l-100 -223q-74 50 -174.5 78t-208.5 28q-143 0 -254 -60.5t-170.5 -169.5t-59.5 -247t62 -248t172.5 -170.5t244.5 -60.5q108 0 216 34.5t184 90.5l106 -193q-85 -73 -226 -117.5t-296 -44.5
q-208 0 -377 86t-262.5 242.5t-93.5 358.5zM406 1696l133 88l225 -181l226 181l131 -88l-258 -226h-201z" />
    <glyph glyph-name="Ccircumflex" unicode="&#x108;" horiz-adv-x="1382" 
d="M80 662q0 208 96 376t271 260.5t397 92.5q132 0 258 -30.5t215 -82.5l-100 -223q-74 50 -174.5 78t-208.5 28q-143 0 -254 -60.5t-170.5 -169.5t-59.5 -247t62 -248t172.5 -170.5t244.5 -60.5q108 0 216 34.5t184 90.5l106 -193q-85 -73 -226 -117.5t-296 -44.5
q-208 0 -377 86t-262.5 242.5t-93.5 358.5zM406 1558l258 226h201l256 -226l-131 -88l-226 180l-225 -180z" />
    <glyph glyph-name="Cdotaccent" unicode="&#x10a;" horiz-adv-x="1382" 
d="M764 1485q-69 0 -109 40.5t-40 100.5q0 64 41.5 103.5t107.5 39.5q64 0 107 -39.5t43 -103.5q0 -60 -41.5 -100.5t-108.5 -40.5zM80 662q0 208 96 376t271 260.5t397 92.5q132 0 258 -30.5t215 -82.5l-100 -223q-74 50 -174.5 78t-208.5 28q-143 0 -254 -60.5
t-170.5 -169.5t-59.5 -247t62 -248t172.5 -170.5t244.5 -60.5q108 0 216 34.5t184 90.5l106 -193q-85 -73 -226 -117.5t-296 -44.5q-208 0 -377 86t-262.5 242.5t-93.5 358.5z" />
    <glyph glyph-name="cacute" unicode="&#x107;" horiz-adv-x="956" 
d="M387 1114l211 334h244l-318 -408zM66 449q0 137 66.5 255t183.5 185t259 67q90 0 179.5 -25.5t152.5 -68.5l-90 -186q-45 37 -105 60.5t-118 23.5q-118 0 -191 -81.5t-73 -215.5q0 -130 69.5 -210.5t186.5 -80.5q65 0 131 26.5t112 67.5l78 -172q-56 -56 -144 -87.5
t-196 -31.5q-145 0 -260 61.5t-178 169.5t-63 243z" />
    <glyph glyph-name="ccaron" unicode="&#x10d;" horiz-adv-x="956" 
d="M202 1417l141 60l172 -246l174 246l140 -58l-234 -352h-158zM66 449q0 137 66.5 255t183.5 185t259 67q90 0 179.5 -25.5t152.5 -68.5l-90 -186q-45 37 -105 60.5t-118 23.5q-118 0 -191 -81.5t-73 -215.5q0 -130 69.5 -210.5t186.5 -80.5q65 0 131 26.5t112 67.5
l78 -172q-56 -56 -144 -87.5t-196 -31.5q-145 0 -260 61.5t-178 169.5t-63 243z" />
    <glyph glyph-name="ccircumflex" unicode="&#x109;" horiz-adv-x="956" 
d="M202 1098l235 350h158l234 -352l-140 -58l-174 244l-172 -244zM66 449q0 137 66.5 255t183.5 185t259 67q90 0 179.5 -25.5t152.5 -68.5l-90 -186q-45 37 -105 60.5t-118 23.5q-118 0 -191 -81.5t-73 -215.5q0 -130 69.5 -210.5t186.5 -80.5q65 0 131 26.5t112 67.5
l78 -172q-56 -56 -144 -87.5t-196 -31.5q-145 0 -260 61.5t-178 169.5t-63 243z" />
    <glyph glyph-name="cdotaccent" unicode="&#x10b;" horiz-adv-x="956" 
d="M66 449q0 137 66.5 255t183.5 185t259 67q90 0 179.5 -25.5t152.5 -68.5l-90 -186q-45 37 -105 60.5t-118 23.5q-118 0 -191 -81.5t-73 -215.5q0 -130 69.5 -210.5t186.5 -80.5q65 0 131 26.5t112 67.5l78 -172q-56 -56 -144 -87.5t-196 -31.5q-145 0 -260 61.5
t-178 169.5t-63 243zM515 1135q-67 0 -108 40.5t-41 102.5q0 63 41.5 103t107.5 40t108 -41t42 -102t-42 -102t-108 -41z" />
    <glyph glyph-name="Dcaron" unicode="&#x10e;" horiz-adv-x="1491" 
d="M170 1366h485q225 0 399 -81.5t262.5 -229.5t88.5 -350q0 -218 -100 -377.5t-287 -243.5t-440 -84h-408v1366zM557 221q276 0 424.5 121t148.5 350q0 214 -131 333.5t-372 119.5h-193v-924h123zM377 1696l133 88l225 -181l226 181l131 -88l-258 -226h-201z" />
    <glyph glyph-name="Dcroat" unicode="&#x110;" horiz-adv-x="1522" 
d="M53 795h148v571h485q225 0 399 -81.5t262.5 -229.5t88.5 -350q0 -218 -101.5 -378t-289 -243.5t-437.5 -83.5h-407v592h-148v203zM588 221q276 0 424.5 121.5t148.5 349.5q0 215 -132 334t-372 119h-192v-350h315v-203h-315v-371h123z" />
    <glyph glyph-name="dcaron" unicode="&#x10f;" horiz-adv-x="1110" 
d="M1403 1530l-148 -424h-147l51 403zM70 438q0 145 60.5 264.5t171.5 186.5t257 67q90 0 162 -28v499l254 41v-1183q0 -106 43 -285l-238 -14q-18 71 -28 135q-86 -146 -285 -146q-116 0 -207 60.5t-140.5 166.5t-49.5 236zM522 166q54 0 105.5 31t93.5 92v360
q0 56 -36 86.5t-107 30.5q-115 0 -178.5 -80t-63.5 -231q0 -135 47.5 -212t138.5 -77z" />
    <glyph glyph-name="dcroat" unicode="&#x111;" horiz-adv-x="1110" 
d="M438 1204h283v223l254 41v-264h155v-123h-155v-796q0 -106 43 -285l-238 -14q-18 71 -28 135q-86 -146 -285 -146q-116 0 -207 60.5t-140.5 166.5t-49.5 236q0 145 60.5 264.5t171.5 186.5t257 67q90 0 162 -28v153h-283v123zM522 166q54 0 105.5 31t93.5 92v360
q0 56 -36 86.5t-107 30.5q-115 0 -178.5 -80t-63.5 -231q0 -135 47.5 -212t138.5 -77z" />
    <glyph glyph-name="Ebreve" unicode="&#x114;" horiz-adv-x="1126" 
d="M170 1366h862v-221h-598v-342h471v-219h-471v-363h613v-221h-877v1366zM610 1464q-143 0 -225 74t-82 197l4 53h139l-1 -23q0 -69 34 -112t131 -43q165 0 165 156l-1 22h139l4 -53q0 -124 -83 -197.5t-224 -73.5z" />
    <glyph glyph-name="Ecaron" unicode="&#x11a;" horiz-adv-x="1126" 
d="M170 1366h862v-221h-598v-342h471v-219h-471v-363h613v-221h-877v1366zM252 1696l133 88l225 -181l226 181l131 -88l-258 -226h-201z" />
    <glyph glyph-name="Edotaccent" unicode="&#x116;" horiz-adv-x="1126" 
d="M610 1485q-69 0 -109 40.5t-40 100.5q0 64 41.5 103.5t107.5 39.5q64 0 107 -39.5t43 -103.5q0 -60 -41.5 -100.5t-108.5 -40.5zM170 1366h862v-221h-598v-342h471v-219h-471v-363h613v-221h-877v1366z" />
    <glyph glyph-name="Emacron" unicode="&#x112;" horiz-adv-x="1126" 
d="M170 1366h862v-221h-598v-342h471v-219h-471v-363h613v-221h-877v1366zM315 1702h588v-152h-588v152z" />
    <glyph glyph-name="Eogonek" unicode="&#x118;" horiz-adv-x="1126" 
d="M170 1366h862v-221h-598v-342h471v-219h-471v-363h613v-221q-166 -154 -166 -258q0 -68 76 -68q42 0 92 21l18 -152q-87 -28 -172 -28q-97 0 -153 47.5t-56 134.5q0 54 24.5 106t87.5 124l60 73h-688v1366z" />
    <glyph glyph-name="ebreve" unicode="&#x115;" horiz-adv-x="1010" 
d="M70 461q0 138 59.5 252.5t165.5 178.5t237 64q186 0 292 -120.5t108 -335.5l-139 -41l-461 -60q21 -105 89.5 -166t172.5 -61q143 0 283 115l65 -181q-74 -61 -178.5 -96t-212.5 -35q-145 0 -254 62t-168 174t-59 250zM514 766q-78 0 -127.5 -59.5t-60.5 -159.5l329 43
q-5 77 -40.5 126.5t-100.5 49.5zM517 1110q-135 0 -216 75t-81 204l4 55h140v-25q0 -83 40.5 -125.5t112.5 -42.5q76 0 115 44t39 124v25h139l2 -55q0 -128 -80 -203.5t-215 -75.5z" />
    <glyph glyph-name="ecaron" unicode="&#x11b;" horiz-adv-x="1010" 
d="M204 1417l141 60l172 -246l174 246l140 -58l-234 -352h-158zM70 461q0 138 59.5 252.5t165.5 178.5t237 64q186 0 292 -120.5t108 -335.5l-139 -41l-461 -60q21 -105 89.5 -166t172.5 -61q143 0 283 115l65 -181q-74 -61 -178.5 -96t-212.5 -35q-145 0 -254 62t-168 174
t-59 250zM514 766q-78 0 -127.5 -59.5t-60.5 -159.5l329 43q-5 77 -40.5 126.5t-100.5 49.5z" />
    <glyph glyph-name="edotaccent" unicode="&#x117;" horiz-adv-x="1010" 
d="M70 461q0 138 59.5 252.5t165.5 178.5t237 64q186 0 292 -120.5t108 -335.5l-139 -41l-461 -60q21 -105 89.5 -166t172.5 -61q143 0 283 115l65 -181q-74 -61 -178.5 -96t-212.5 -35q-145 0 -254 62t-168 174t-59 250zM514 766q-78 0 -127.5 -59.5t-60.5 -159.5l329 43
q-5 77 -40.5 126.5t-100.5 49.5zM517 1135q-67 0 -108 40.5t-41 102.5q0 63 41.5 103t107.5 40t108 -41t42 -102t-42 -102t-108 -41z" />
    <glyph glyph-name="emacron" unicode="&#x113;" horiz-adv-x="1010" 
d="M70 461q0 138 59.5 252.5t165.5 178.5t237 64q186 0 292 -120.5t108 -335.5l-139 -41l-461 -60q21 -105 89.5 -166t172.5 -61q143 0 283 115l65 -181q-74 -61 -178.5 -96t-212.5 -35q-145 0 -254 62t-168 174t-59 250zM514 766q-78 0 -127.5 -59.5t-60.5 -159.5l329 43
q-5 77 -40.5 126.5t-100.5 49.5zM250 1341h526v-159h-526v159z" />
    <glyph glyph-name="eogonek" unicode="&#x119;" horiz-adv-x="1010" 
d="M70 461q0 138 59.5 252.5t165.5 178.5t237 64q186 0 292 -120.5t108 -335.5l-139 -41l-461 -60q21 -105 89.5 -166t172.5 -61q143 0 283 115l65 -181q-52 -39 -102 -65q-92 -68 -154.5 -154t-62.5 -145q0 -68 75 -68q48 0 95 21l18 -152q-88 -28 -172 -28
q-99 0 -155 47.5t-56 134.5q0 53 24 105t75 109l55 66l-15 -2h-16q-145 0 -254 62t-168 174t-59 250zM514 766q-78 0 -127.5 -59.5t-60.5 -159.5l329 43q-5 77 -40.5 126.5t-100.5 49.5z" />
    <glyph glyph-name="Gbreve" unicode="&#x11e;" horiz-adv-x="1448" 
d="M78 659q0 202 96.5 371t275 265t408.5 96q124 0 249 -28t216 -73l-100 -223q-78 42 -179.5 68t-195.5 26q-149 0 -262.5 -61.5t-175.5 -173t-62 -250.5t65.5 -247t181.5 -166t263 -58q107 0 217 20v301h-274v219h532v-708q-124 -26 -265 -44t-232 -18q-215 0 -389.5 86
t-271.5 242.5t-97 355.5zM762 1464q-143 0 -225 74t-82 197l4 53h139l-1 -23q0 -69 34 -112t131 -43q165 0 165 156l-1 22h139l4 -53q0 -124 -83 -197.5t-224 -73.5z" />
    <glyph glyph-name="Gcircumflex" unicode="&#x11c;" horiz-adv-x="1448" 
d="M404 1558l258 226h201l256 -226l-131 -88l-226 180l-225 -180zM78 659q0 202 96.5 371t275 265t408.5 96q124 0 249 -28t216 -73l-100 -223q-78 42 -179.5 68t-195.5 26q-149 0 -262.5 -61.5t-175.5 -173t-62 -250.5t65.5 -247t181.5 -166t263 -58q107 0 217 20v301h-274
v219h532v-708q-124 -26 -265 -44t-232 -18q-215 0 -389.5 86t-271.5 242.5t-97 355.5z" />
    <glyph glyph-name="Gcommaaccent" unicode="&#x122;" horiz-adv-x="1448" 
d="M881 -100q49 -64 49 -148q0 -76 -54.5 -144t-154.5 -118l-96 102q104 48 104 148q0 96 -66 160h218zM78 659q0 202 96.5 371t275 265t408.5 96q124 0 249 -28t216 -73l-100 -223q-78 42 -179.5 68t-195.5 26q-149 0 -262.5 -61.5t-175.5 -173t-62 -250.5t65.5 -247
t181.5 -166t263 -58q107 0 217 20v301h-274v219h532v-708q-124 -26 -265 -44t-232 -18q-215 0 -389.5 86t-271.5 242.5t-97 355.5z" />
    <glyph glyph-name="Gdotaccent" unicode="&#x120;" horiz-adv-x="1448" 
d="M762 1485q-69 0 -109 40.5t-40 100.5q0 64 41.5 103.5t107.5 39.5q64 0 107 -39.5t43 -103.5q0 -60 -41.5 -100.5t-108.5 -40.5zM78 659q0 202 96.5 371t275 265t408.5 96q124 0 249 -28t216 -73l-100 -223q-78 42 -179.5 68t-195.5 26q-149 0 -262.5 -61.5t-175.5 -173
t-62 -250.5t65.5 -247t181.5 -166t263 -58q107 0 217 20v301h-274v219h532v-708q-124 -26 -265 -44t-232 -18q-215 0 -389.5 86t-271.5 242.5t-97 355.5z" />
    <glyph glyph-name="gbreve" unicode="&#x11f;" horiz-adv-x="1051" 
d="M125 162q0 96 147 182q-91 43 -139.5 118.5t-48.5 168.5q0 144 116 234.5t294 90.5q62 0 143 -19t129 -19h117q65 0 125 20l14 -184h-100q-36 0 -76 6q61 -61 61 -156q0 -86 -58 -155.5t-158 -107.5t-212 -38h-30l-29 2q-70 -39 -70 -65q0 -16 31 -30.5t129 -40.5
l135 -36q137 -37 202 -71.5t102.5 -82t37.5 -116.5q0 -92 -68.5 -172.5t-188 -128t-261.5 -47.5q-181 0 -301.5 67t-120.5 172q0 140 225 269q-71 26 -109 57.5t-38 81.5zM272 -199q0 -51 56 -79.5t153 -28.5q115 0 192 36.5t77 94.5q0 26 -19.5 44.5t-63 36.5t-231.5 70
l-53 -34q-111 -71 -111 -140zM494 473q77 0 124.5 43.5t47.5 106.5q0 66 -48 114.5t-122 48.5t-122 -46.5t-48 -112.5t47 -110t121 -44zM496 1110q-135 0 -216 75t-81 204l4 55h140v-25q0 -83 40.5 -125.5t112.5 -42.5q76 0 115 44t39 124v25h139l2 -55q0 -128 -80 -203.5
t-215 -75.5z" />
    <glyph glyph-name="gcircumflex" unicode="&#x11d;" horiz-adv-x="1051" 
d="M183 1098l235 350h158l234 -352l-140 -58l-174 244l-172 -244zM125 162q0 96 147 182q-91 43 -139.5 118.5t-48.5 168.5q0 144 116 234.5t294 90.5q62 0 143 -19t129 -19h117q65 0 125 20l14 -184h-100q-36 0 -76 6q61 -61 61 -156q0 -86 -58 -155.5t-158 -107.5
t-212 -38h-30l-29 2q-70 -39 -70 -65q0 -16 31 -30.5t129 -40.5l135 -36q137 -37 202 -71.5t102.5 -82t37.5 -116.5q0 -92 -68.5 -172.5t-188 -128t-261.5 -47.5q-181 0 -301.5 67t-120.5 172q0 140 225 269q-71 26 -109 57.5t-38 81.5zM272 -199q0 -51 56 -79.5t153 -28.5
q115 0 192 36.5t77 94.5q0 26 -19.5 44.5t-63 36.5t-231.5 70l-53 -34q-111 -71 -111 -140zM494 473q77 0 124.5 43.5t47.5 106.5q0 66 -48 114.5t-122 48.5t-122 -46.5t-48 -112.5t47 -110t121 -44z" />
    <glyph glyph-name="gcommaaccent" unicode="&#x123;" horiz-adv-x="1051" 
d="M372 1047q-49 64 -49 148q0 76 54.5 144t154.5 118l96 -102q-104 -48 -104 -148q0 -96 66 -160h-218zM125 162q0 96 147 182q-91 43 -139.5 118.5t-48.5 168.5q0 144 116 234.5t294 90.5q62 0 143 -19t129 -19h117q65 0 125 20l14 -184h-100q-36 0 -76 6q61 -61 61 -156
q0 -86 -58 -155.5t-158 -107.5t-212 -38h-30l-29 2q-70 -39 -70 -65q0 -16 31 -30.5t129 -40.5l135 -36q137 -37 202 -71.5t102.5 -82t37.5 -116.5q0 -92 -68.5 -172.5t-188 -128t-261.5 -47.5q-181 0 -301.5 67t-120.5 172q0 140 225 269q-71 26 -109 57.5t-38 81.5z
M272 -199q0 -51 56 -79.5t153 -28.5q115 0 192 36.5t77 94.5q0 26 -19.5 44.5t-63 36.5t-231.5 70l-53 -34q-111 -71 -111 -140zM494 473q77 0 124.5 43.5t47.5 106.5q0 66 -48 114.5t-122 48.5t-122 -46.5t-48 -112.5t47 -110t121 -44z" />
    <glyph glyph-name="gdotaccent" unicode="&#x121;" horiz-adv-x="1051" 
d="M125 162q0 96 147 182q-91 43 -139.5 118.5t-48.5 168.5q0 144 116 234.5t294 90.5q62 0 143 -19t129 -19h117q65 0 125 20l14 -184h-100q-36 0 -76 6q61 -61 61 -156q0 -86 -58 -155.5t-158 -107.5t-212 -38h-30l-29 2q-70 -39 -70 -65q0 -16 31 -30.5t129 -40.5
l135 -36q137 -37 202 -71.5t102.5 -82t37.5 -116.5q0 -92 -68.5 -172.5t-188 -128t-261.5 -47.5q-181 0 -301.5 67t-120.5 172q0 140 225 269q-71 26 -109 57.5t-38 81.5zM272 -199q0 -51 56 -79.5t153 -28.5q115 0 192 36.5t77 94.5q0 26 -19.5 44.5t-63 36.5t-231.5 70
l-53 -34q-111 -71 -111 -140zM494 473q77 0 124.5 43.5t47.5 106.5q0 66 -48 114.5t-122 48.5t-122 -46.5t-48 -112.5t47 -110t121 -44zM496 1135q-67 0 -108 40.5t-41 102.5q0 63 41.5 103t107.5 40t108 -41t42 -102t-42 -102t-108 -41z" />
    <glyph glyph-name="Hcircumflex" unicode="&#x124;" horiz-adv-x="1563" 
d="M170 1366h264v-559h694v559h263v-1366h-263v588h-694v-588h-264v1366zM422 1558l258 226h201l256 -226l-131 -88l-226 180l-225 -180z" />
    <glyph glyph-name="Hbar" unicode="&#x126;" horiz-adv-x="1591" 
d="M20 1114h162v252h264v-252h695v252h262v-252h164v-121h-164v-993h-262v588h-695v-588h-264v993h-162v121zM1141 807v186h-695v-186h695z" />
    <glyph glyph-name="hcircumflex" unicode="&#x125;" horiz-adv-x="1100" 
d="M-54 1583l235 350h158l234 -352l-140 -58l-174 244l-172 -244zM129 1427l256 41v-684q159 172 340 172q120 0 187 -71t67 -221v-664h-254v555q0 94 -21 137t-73 43q-47 0 -113.5 -42t-132.5 -113v-580h-256v1427z" />
    <glyph glyph-name="hbar" unicode="&#x127;" horiz-adv-x="1100" 
d="M-8 1204h137v223l256 41v-264h301v-123h-301v-297q159 172 340 172q120 0 187 -71t67 -221v-664h-254v555q0 94 -21 137t-73 43q-47 0 -113.5 -42t-132.5 -113v-580h-256v1081h-137v123z" />
    <glyph glyph-name="Idotaccent" unicode="&#x130;" horiz-adv-x="604" 
d="M170 1366h264v-1366h-264v1366zM306 1485q-69 0 -109 40.5t-40 100.5q0 64 41.5 103.5t107.5 39.5q64 0 107 -39.5t43 -103.5q0 -60 -41.5 -100.5t-108.5 -40.5z" />
    <glyph glyph-name="Imacron" unicode="&#x12a;" horiz-adv-x="604" 
d="M170 1366h264v-1366h-264v1366zM11 1702h588v-152h-588v152z" />
    <glyph glyph-name="Iogonek" unicode="&#x12e;" horiz-adv-x="604" 
d="M170 1366h264v-1366q-166 -154 -166 -258q0 -68 77 -68q41 0 91 21l19 -152q-87 -28 -172 -28q-99 0 -155 47.5t-56 134.5q0 55 25.5 108t86.5 122l62 73h-76v1366z" />
    <glyph glyph-name="Itilde" unicode="&#x128;" horiz-adv-x="604" 
d="M170 1366h264v-1366h-264v1366zM-77 1489l-2 18v14q0 115 58.5 180.5t164.5 65.5q67 0 113.5 -20.5t82 -45t65 -45t63.5 -20.5q68 0 68 107v20h157v-31q0 -119 -59 -185t-168 -66q-103 0 -188 66q-59 44 -80 54.5t-45 10.5q-36 0 -55 -28t-19 -77l1 -14l1 -4h-158z" />
    <glyph glyph-name="imacron" unicode="&#x12b;" horiz-adv-x="514" 
d="M129 932h256v-932h-256v932zM-3 1341h526v-159h-526v159z" />
    <glyph glyph-name="iogonek" unicode="&#x12f;" horiz-adv-x="514" 
d="M129 932h256v-932q-166 -154 -166 -258q0 -68 77 -68q41 0 91 21l19 -152q-88 -28 -173 -28q-99 0 -154.5 47.5t-55.5 134.5q0 55 25.5 108t86.5 122l62 73h-68v932zM258 1135q-68 0 -110 41t-42 102t42 102t110 41q66 0 108 -41t42 -102t-42 -102t-108 -41z" />
    <glyph glyph-name="itilde" unicode="&#x129;" horiz-adv-x="514" 
d="M129 932h256v-932h-256v932zM-87 1120l-2 19v12q0 122 54.5 190t152.5 68q96 0 174 -78q52 -52 71.5 -65t39.5 -13q59 0 59 117v25h156v-29q0 -78 -25.5 -140.5t-73 -93t-114.5 -30.5q-99 0 -168 78q-41 44 -63.5 60.5t-45.5 16.5q-29 0 -44 -31.5t-15 -86.5v-19h-156z
" />
    <glyph glyph-name="IJ" unicode="&#x132;" horiz-adv-x="1210" 
d="M170 1366h264v-1366h-264v1366zM518 -164q127 11 192.5 109t65.5 280v1141h264v-1133q0 -284 -110 -435.5t-330 -182.5z" />
    <glyph glyph-name="ij" unicode="&#x133;" horiz-adv-x="1030" 
d="M258 1135q-68 0 -110 41t-42 102t42 102t110 41q66 0 108 -41t42 -102t-42 -102t-108 -41zM129 932h256v-932h-256v932zM770 1135q-68 0 -110 41t-42 102t42 102t110 41q66 0 108 -41t42 -102t-42 -102t-108 -41zM643 932h256v-885q0 -229 -109.5 -365.5t-318.5 -166.5
l-76 198q133 21 190.5 102t57.5 220v897z" />
    <glyph glyph-name="Jcircumflex" unicode="&#x134;" horiz-adv-x="604" 
d="M-86 -164q127 11 192.5 109t65.5 280v1141h264v-1133q0 -284 -110 -435.5t-330 -182.5zM-52 1558l258 226h201l256 -226l-131 -88l-226 180l-225 -180z" />
    <glyph glyph-name="jcircumflex" unicode="&#x135;" horiz-adv-x="514" 
d="M129 932h256v-885q0 -229 -109.5 -365.5t-318.5 -166.5l-76 198q133 21 190.5 102t57.5 220v897zM-55 1098l235 350h158l233 -352l-139 -58l-174 244l-172 -244z" />
    <glyph glyph-name="Kcommaaccent" unicode="&#x136;" horiz-adv-x="1274" 
d="M758 -100q49 -64 49 -148q0 -76 -54.5 -144t-154.5 -118l-96 102q104 48 104 148q0 96 -66 160h218zM170 1366h264v-541h37l461 541h325l-563 -639l592 -727h-334l-481 606h-37v-606h-264v1366z" />
    <glyph glyph-name="kcommaaccent" unicode="&#x137;" horiz-adv-x="1065" 
d="M648 -100q49 -64 49 -148q0 -76 -54.5 -144t-154.5 -118l-96 102q104 48 104 148q0 96 -66 160h218zM129 1427l256 41v-858h33l305 322h324l-410 -408l428 -524h-317l-330 424h-33v-424h-256v1427z" />
    <glyph glyph-name="Lacute" unicode="&#x139;" horiz-adv-x="1083" 
d="M76 1587l443 195l72 -189l-465 -143zM170 1366h264v-1145h619v-221h-883v1366z" />
    <glyph glyph-name="Lcommaaccent" unicode="&#x13b;" horiz-adv-x="1085" 
d="M717 -100q49 -64 49 -148q0 -76 -54.5 -144t-154.5 -118l-96 102q104 48 104 148q0 96 -66 160h218zM170 1366h264v-1145h619v-221h-883v1366z" />
    <glyph glyph-name="Ldot" unicode="&#x13f;" horiz-adv-x="1155" 
d="M170 1366h264v-1145h619v-221h-883v1366zM870 580q-65 0 -111.5 45t-46.5 110q0 67 46.5 112.5t111.5 45.5q66 0 112 -46t46 -112q0 -63 -45 -109t-113 -46z" />
    <glyph glyph-name="Lcaron" unicode="&#x13d;" horiz-adv-x="1100" 
d="M961 1532l-148 -424h-147l51 403zM170 1366h264v-1145h619v-221h-883v1366z" />
    <glyph glyph-name="lacute" unicode="&#x13a;" horiz-adv-x="514" 
d="M134 1599l211 334h244l-318 -408zM129 1427l256 41v-1468h-256v1427z" />
    <glyph glyph-name="lcommaaccent" unicode="&#x13c;" horiz-adv-x="514" 
d="M358 -100q49 -64 49 -148q0 -76 -54.5 -144t-154.5 -118l-96 102q104 48 104 148q0 96 -66 160h218zM129 1427l256 41v-1468h-256v1427z" />
    <glyph glyph-name="ldot" unicode="&#x140;" horiz-adv-x="868" 
d="M129 1427l256 41v-1468h-256v1427zM688 580q-65 0 -111.5 45t-46.5 110q0 67 46.5 112.5t111.5 45.5q66 0 112 -46t46 -112q0 -63 -45 -109t-113 -46z" />
    <glyph glyph-name="lcaron" unicode="&#x13e;" horiz-adv-x="514" 
d="M813 1532l-148 -424h-147l51 403zM129 1427l256 41v-1468h-256v1427z" />
    <glyph glyph-name="Nacute" unicode="&#x143;" horiz-adv-x="1530" 
d="M536 1587l443 195l72 -189l-465 -143zM170 1366h266l666 -963v963h258v-1366h-268l-664 956v-956h-258v1366z" />
    <glyph glyph-name="Ncaron" unicode="&#x147;" horiz-adv-x="1530" 
d="M170 1366h266l666 -963v963h258v-1366h-268l-664 956v-956h-258v1366zM406 1696l133 88l225 -181l226 181l131 -88l-258 -226h-201z" />
    <glyph glyph-name="Ncommaaccent" unicode="&#x145;" horiz-adv-x="1530" 
d="M863 -100q49 -64 49 -148q0 -76 -54.5 -144t-154.5 -118l-96 102q104 48 104 148q0 96 -66 160h218zM170 1366h266l666 -963v963h258v-1366h-268l-664 956v-956h-258v1366z" />
    <glyph glyph-name="nacute" unicode="&#x144;" 
d="M436 1114l211 334h244l-318 -408zM125 911l246 41v-172q75 84 166.5 130t185.5 46q118 0 185 -71t67 -221v-664h-254v555q0 94 -21 137t-73 43q-48 0 -112.5 -39t-133.5 -108v-588h-256v911z" />
    <glyph glyph-name="ncaron" unicode="&#x148;" 
d="M246 1417l141 60l172 -246l174 246l140 -58l-234 -352h-158zM125 911l246 41v-172q75 84 166.5 130t185.5 46q118 0 185 -71t67 -221v-664h-254v555q0 94 -21 137t-73 43q-48 0 -112.5 -39t-133.5 -108v-588h-256v911z" />
    <glyph glyph-name="ncommaaccent" unicode="&#x146;" 
d="M644 -100q49 -64 49 -148q0 -76 -54.5 -144t-154.5 -118l-96 102q104 48 104 148q0 96 -66 160h218zM125 911l246 41v-172q75 84 166.5 130t185.5 46q118 0 185 -71t67 -221v-664h-254v555q0 94 -21 137t-73 43q-48 0 -112.5 -39t-133.5 -108v-588h-256v911z" />
    <glyph glyph-name="napostrophe" unicode="&#x149;" 
d="M262 1497q49 -64 49 -148q0 -76 -54.5 -144t-154.5 -118l-96 102q104 48 104 148q0 96 -66 160h218zM125 911l246 41v-172q75 84 166.5 130t185.5 46q118 0 185 -71t67 -221v-664h-254v555q0 94 -21 137t-73 43q-48 0 -112.5 -39t-133.5 -108v-588h-256v911z" />
    <glyph glyph-name="Obreve" unicode="&#x14e;" horiz-adv-x="1640" 
d="M78 680q0 193 95.5 359.5t266.5 259t385 92.5q213 0 380 -87t261.5 -245.5t94.5 -349.5q0 -196 -98.5 -368t-271 -269t-384.5 -97q-209 0 -375.5 92t-260 255.5t-93.5 357.5zM354 688q0 -130 58 -244t162 -179.5t239 -65.5q136 0 244 65.5t168.5 179.5t60.5 248
q0 131 -57.5 240.5t-164 172t-243.5 62.5t-244 -63t-165 -174t-58 -242zM819 1464q-143 0 -225 74t-82 197l4 53h139l-1 -23q0 -69 34 -112t131 -43q165 0 165 156l-1 22h139l4 -53q0 -124 -83 -197.5t-224 -73.5z" />
    <glyph glyph-name="Ohungarumlaut" unicode="&#x150;" horiz-adv-x="1640" 
d="M905 1534l191 252h237l-289 -326zM518 1534l178 252h238l-277 -326zM78 680q0 193 95.5 359.5t266.5 259t385 92.5q213 0 380 -87t261.5 -245.5t94.5 -349.5q0 -196 -98.5 -368t-271 -269t-384.5 -97q-209 0 -375.5 92t-260 255.5t-93.5 357.5zM354 688q0 -130 58 -244
t162 -179.5t239 -65.5q136 0 244 65.5t168.5 179.5t60.5 248q0 131 -57.5 240.5t-164 172t-243.5 62.5t-244 -63t-165 -174t-58 -242z" />
    <glyph glyph-name="Omacron" unicode="&#x14c;" horiz-adv-x="1640" 
d="M78 680q0 193 95.5 359.5t266.5 259t385 92.5q213 0 380 -87t261.5 -245.5t94.5 -349.5q0 -196 -98.5 -368t-271 -269t-384.5 -97q-209 0 -375.5 92t-260 255.5t-93.5 357.5zM354 688q0 -130 58 -244t162 -179.5t239 -65.5q136 0 244 65.5t168.5 179.5t60.5 248
q0 131 -57.5 240.5t-164 172t-243.5 62.5t-244 -63t-165 -174t-58 -242zM524 1702h588v-152h-588v152z" />
    <glyph glyph-name="obreve" unicode="&#x14f;" horiz-adv-x="1143" 
d="M68 463q0 143 65.5 259.5t180 175t261.5 58.5q149 0 263 -61t175.5 -170t61.5 -240q0 -145 -67 -266t-180.5 -182.5t-260.5 -61.5q-149 0 -262 62t-175 174.5t-62 251.5zM332 481q0 -140 66 -227.5t175 -87.5q102 0 170 81.5t68 211.5q0 136 -67 221.5t-173 85.5
q-104 0 -171.5 -80.5t-67.5 -204.5zM571 1110q-135 0 -216 75t-81 204l4 55h140v-25q0 -83 40.5 -125.5t112.5 -42.5q76 0 115 44t39 124v25h139l2 -55q0 -128 -80 -203.5t-215 -75.5z" />
    <glyph glyph-name="ohungarumlaut" unicode="&#x151;" horiz-adv-x="1143" 
d="M636 1114l222 334h225l-320 -408zM262 1114l211 334h225l-309 -408zM68 463q0 143 65.5 259.5t180 175t261.5 58.5q149 0 263 -61t175.5 -170t61.5 -240q0 -145 -67 -266t-180.5 -182.5t-260.5 -61.5q-149 0 -262 62t-175 174.5t-62 251.5zM332 481q0 -140 66 -227.5
t175 -87.5q102 0 170 81.5t68 211.5q0 136 -67 221.5t-173 85.5q-104 0 -171.5 -80.5t-67.5 -204.5z" />
    <glyph glyph-name="omacron" unicode="&#x14d;" horiz-adv-x="1143" 
d="M309 1341h526v-159h-526v159zM68 463q0 143 65.5 259.5t180 175t261.5 58.5q149 0 263 -61t175.5 -170t61.5 -240q0 -145 -67 -266t-180.5 -182.5t-260.5 -61.5q-149 0 -262 62t-175 174.5t-62 251.5zM332 481q0 -140 66 -227.5t175 -87.5q102 0 170 81.5t68 211.5
q0 136 -67 221.5t-173 85.5q-104 0 -171.5 -80.5t-67.5 -204.5z" />
    <glyph glyph-name="Racute" unicode="&#x154;" horiz-adv-x="1290" 
d="M170 1366h455q236 0 369.5 -108.5t133.5 -299.5q0 -121 -61.5 -219.5t-175.5 -156.5l385 -582h-311l-336 516h-195v-516h-264v1366zM584 735q137 0 202.5 57t65.5 154q0 199 -270 199h-148v-410h150zM391 1587l443 195l72 -189l-465 -143z" />
    <glyph glyph-name="Rcaron" unicode="&#x158;" horiz-adv-x="1290" 
d="M170 1366h455q236 0 369.5 -108.5t133.5 -299.5q0 -121 -61.5 -219.5t-175.5 -156.5l385 -582h-311l-336 516h-195v-516h-264v1366zM584 735q137 0 202.5 57t65.5 154q0 199 -270 199h-148v-410h150zM260 1696l133 88l225 -181l226 181l131 -88l-258 -226h-201z" />
    <glyph glyph-name="Rcommaaccent" unicode="&#x156;" horiz-adv-x="1288" 
d="M785 -100q49 -64 49 -148q0 -76 -54.5 -144t-154.5 -118l-96 102q104 48 104 148q0 96 -66 160h218zM170 1366h455q236 0 369.5 -108.5t133.5 -299.5q0 -121 -61.5 -219.5t-175.5 -156.5l385 -582h-311l-336 516h-195v-516h-264v1366zM584 735q137 0 202.5 57t65.5 154
q0 199 -270 199h-148v-410h150z" />
    <glyph glyph-name="racute" unicode="&#x155;" horiz-adv-x="748" 
d="M298 1114l211 334h244l-318 -408zM125 911l246 41v-192q65 103 135 149.5t143 46.5q44 0 80 -16l-41 -246q-49 19 -88 19q-109 0 -219 -154v-559h-256v911z" />
    <glyph glyph-name="rcaron" unicode="&#x159;" horiz-adv-x="748" 
d="M110 1417l141 60l172 -246l174 246l140 -58l-234 -352h-158zM125 911l246 41v-192q65 103 135 149.5t143 46.5q44 0 80 -16l-41 -246q-49 19 -88 19q-109 0 -219 -154v-559h-256v911z" />
    <glyph glyph-name="rcommaaccent" unicode="&#x157;" horiz-adv-x="748" 
d="M352 -100q49 -64 49 -148q0 -76 -54.5 -144t-154.5 -118l-96 102q104 48 104 148q0 96 -66 160h218zM125 911l246 41v-192q65 103 135 149.5t143 46.5q44 0 80 -16l-41 -246q-49 19 -88 19q-109 0 -219 -154v-559h-256v911z" />
    <glyph glyph-name="Sacute" unicode="&#x15a;" horiz-adv-x="1055" 
d="M156 324q57 -46 146.5 -82.5t179.5 -36.5q106 0 166.5 40.5t60.5 104.5q0 58 -47.5 107.5t-144.5 98.5q-148 74 -212 114t-108 86.5t-70.5 106t-26.5 136.5q0 109 59 199.5t167 141.5t245 51q82 0 184 -17.5t187 -44.5l-43 -237q-78 31 -165 50t-159 19q-95 0 -151.5 -37
t-56.5 -98q0 -57 45.5 -105t146.5 -98q142 -71 207.5 -111.5t109.5 -88.5t70.5 -109t26.5 -143q0 -116 -61 -206.5t-171 -140t-243 -49.5q-112 0 -221.5 30.5t-196.5 84.5zM317 1587l443 195l72 -189l-465 -143z" />
    <glyph glyph-name="Scedilla" unicode="&#x15e;" horiz-adv-x="1057" 
d="M408 -145q0 39 45 122q-100 6 -198 35.5t-175 77.5l76 234q57 -46 146.5 -82.5t179.5 -36.5q106 0 166.5 40.5t60.5 104.5q0 58 -47.5 107.5t-144.5 98.5q-148 74 -212 114t-108 86.5t-70.5 106t-26.5 136.5q0 109 59 199.5t167 141.5t245 51q82 0 184 -17.5t187 -44.5
l-43 -237q-78 31 -165 50t-159 19q-95 0 -151.5 -37t-56.5 -98q0 -57 45.5 -105t146.5 -98q142 -71 207.5 -111.5t109.5 -88.5t70.5 -109t26.5 -143q0 -158 -108.5 -263t-284.5 -126q-27 -63 -27 -76q0 -26 47 -47l43 -19q90 -42 90 -129q0 -86 -71 -141t-177 -55
q-59 0 -115 17.5t-91 45.5l49 115q31 -26 74.5 -43t80.5 -17q44 0 70.5 16.5t26.5 39.5q0 17 -16.5 31.5t-69.5 38.5q-86 39 -86 96z" />
    <glyph glyph-name="Scircumflex" unicode="&#x15c;" horiz-adv-x="1055" 
d="M156 324q57 -46 146.5 -82.5t179.5 -36.5q106 0 166.5 40.5t60.5 104.5q0 58 -47.5 107.5t-144.5 98.5q-148 74 -212 114t-108 86.5t-70.5 106t-26.5 136.5q0 109 59 199.5t167 141.5t245 51q82 0 184 -17.5t187 -44.5l-43 -237q-78 31 -165 50t-159 19q-95 0 -151.5 -37
t-56.5 -98q0 -57 45.5 -105t146.5 -98q142 -71 207.5 -111.5t109.5 -88.5t70.5 -109t26.5 -143q0 -116 -61 -206.5t-171 -140t-243 -49.5q-112 0 -221.5 30.5t-196.5 84.5zM187 1558l258 226h201l256 -226l-131 -88l-226 180l-225 -180z" />
    <glyph glyph-name="Scommaaccent" unicode="&#x218;" horiz-adv-x="1055" 
d="M604 -100q49 -64 49 -148q0 -76 -54.5 -144t-154.5 -118l-96 102q104 48 104 148q0 96 -66 160h218zM156 324q57 -46 146.5 -82.5t179.5 -36.5q106 0 166.5 40.5t60.5 104.5q0 58 -47.5 107.5t-144.5 98.5q-148 74 -212 114t-108 86.5t-70.5 106t-26.5 136.5
q0 109 59 199.5t167 141.5t245 51q82 0 184 -17.5t187 -44.5l-43 -237q-78 31 -165 50t-159 19q-95 0 -151.5 -37t-56.5 -98q0 -57 45.5 -105t146.5 -98q142 -71 207.5 -111.5t109.5 -88.5t70.5 -109t26.5 -143q0 -116 -61 -206.5t-171 -140t-243 -49.5q-112 0 -221.5 30.5
t-196.5 84.5z" />
    <glyph glyph-name="sacute" unicode="&#x15b;" horiz-adv-x="844" 
d="M303 1114l211 334h244l-318 -408zM119 266q53 -43 124 -69.5t138 -26.5q74 0 109.5 22.5t35.5 57.5q0 33 -37.5 59t-181.5 91q-219 97 -219 268q0 133 102 210.5t285 77.5q78 0 151.5 -14t125.5 -37l-54 -207q-47 29 -108.5 46.5t-114.5 17.5q-133 0 -133 -74
q0 -30 34.5 -56.5t103.5 -55.5q122 -52 181.5 -95t88 -94.5t28.5 -114.5q0 -135 -104.5 -216t-282.5 -81q-93 0 -178.5 22t-146.5 60z" />
    <glyph glyph-name="scedilla" unicode="&#x15f;" horiz-adv-x="846" 
d="M315 -145q0 20 8 41.5t37 80.5q-78 2 -159 24.5t-135 55.5l53 209q53 -43 124 -69.5t138 -26.5q74 0 109.5 22.5t35.5 57.5q0 33 -37.5 59t-181.5 91q-219 97 -219 268q0 133 102 210.5t285 77.5q78 0 151.5 -14t125.5 -37l-54 -207q-47 29 -108.5 46.5t-114.5 17.5
q-133 0 -133 -74q0 -30 34.5 -56.5t103.5 -55.5q122 -52 181.5 -95t88 -94.5t28.5 -114.5q0 -115 -76.5 -192t-212.5 -96q-28 -64 -28 -78q0 -26 47 -47l43 -19q90 -42 90 -129q0 -86 -71 -141t-177 -55q-58 0 -112.5 17t-94.5 46l50 115q31 -26 74.5 -43t80.5 -17
q44 0 70 16.5t26 39.5q0 17 -16.5 31.5t-69.5 38.5q-86 39 -86 96z" />
    <glyph glyph-name="scircumflex" unicode="&#x15d;" horiz-adv-x="844" 
d="M118 1098l235 350h158l234 -352l-140 -58l-174 244l-172 -244zM119 266q53 -43 124 -69.5t138 -26.5q74 0 109.5 22.5t35.5 57.5q0 33 -37.5 59t-181.5 91q-219 97 -219 268q0 133 102 210.5t285 77.5q78 0 151.5 -14t125.5 -37l-54 -207q-47 29 -108.5 46.5t-114.5 17.5
q-133 0 -133 -74q0 -30 34.5 -56.5t103.5 -55.5q122 -52 181.5 -95t88 -94.5t28.5 -114.5q0 -135 -104.5 -216t-282.5 -81q-93 0 -178.5 22t-146.5 60z" />
    <glyph glyph-name="scommaaccent" unicode="&#x219;" horiz-adv-x="842" 
d="M509 -100q49 -64 49 -148q0 -76 -54.5 -144t-154.5 -118l-96 102q104 48 104 148q0 96 -66 160h218zM119 266q53 -43 124 -69.5t138 -26.5q74 0 109.5 22.5t35.5 57.5q0 33 -37.5 59t-181.5 91q-219 97 -219 268q0 133 102 210.5t285 77.5q78 0 151.5 -14t125.5 -37
l-54 -207q-47 29 -108.5 46.5t-114.5 17.5q-133 0 -133 -74q0 -30 34.5 -56.5t103.5 -55.5q122 -52 181.5 -95t88 -94.5t28.5 -114.5q0 -135 -104.5 -216t-282.5 -81q-93 0 -178.5 22t-146.5 60z" />
    <glyph glyph-name="Tcommaaccent" unicode="&#x162;" horiz-adv-x="1231" 
d="M485 1145h-450v221h1161v-221h-448v-1145h-50q-36 -78 -36 -94q0 -26 47 -47l43 -19q90 -42 90 -129q0 -84 -71 -140t-177 -56q-58 0 -112.5 17t-94.5 46l49 115q33 -27 75.5 -43.5t80.5 -16.5q43 0 69.5 16.5t26.5 39.5q0 17 -16.5 31.5t-69.5 38.5q-86 39 -86 96
q0 21 8 43.5t49 101.5h-88v1145z" />
    <glyph glyph-name="Tcaron" unicode="&#x164;" horiz-adv-x="1231" 
d="M485 1145h-450v221h1161v-221h-448v-1145h-263v1145zM252 1696l133 88l225 -181l226 181l131 -88l-258 -226h-201z" />
    <glyph glyph-name="uni021A" unicode="&#x21a;" horiz-adv-x="1231" 
d="M711 -100q49 -64 49 -148q0 -76 -54.5 -144t-154.5 -118l-96 102q104 48 104 148q0 96 -66 160h218zM485 1145h-450v221h1161v-221h-448v-1145h-263v1145z" />
    <glyph glyph-name="Tbar" unicode="&#x166;" horiz-adv-x="1231" 
d="M160 752h325v393h-450v221h1161v-221h-448v-393h327v-123h-327v-629h-263v629h-325v123z" />
    <glyph glyph-name="tcommaaccent" unicode="&#x163;" horiz-adv-x="821" 
d="M365 -145q0 24 12.5 54.5t34.5 72.5q-100 17 -159.5 86.5t-59.5 193.5v488h-146v137l154 51v217l248 49v-272h284v-182h-284v-426q0 -75 24.5 -107.5t71.5 -32.5q63 0 180 80l70 -186q-50 -36 -121 -63.5t-137 -34.5q-27 -57 -27 -74q0 -26 47 -47l43 -19q90 -42 90 -129
q0 -86 -71 -141t-177 -55q-59 0 -115 17.5t-91 45.5l49 115q31 -26 74.5 -43t80.5 -17q44 0 70.5 16.5t26.5 39.5q0 17 -16.5 31.5t-69.5 38.5q-86 39 -86 96z" />
    <glyph glyph-name="tcaron" unicode="&#x165;" horiz-adv-x="813" 
d="M887 1532l-148 -424h-147l51 403zM188 750h-145v137l154 51v217l247 49v-272h285v-182h-285v-426q0 -140 97 -140q63 0 180 80l70 -186q-67 -49 -149 -76t-163 -27q-139 0 -215 77t-76 210v488z" />
    <glyph glyph-name="uni021B" unicode="&#x21b;" horiz-adv-x="817" 
d="M559 -100q49 -64 49 -148q0 -76 -54.5 -144t-154.5 -118l-96 102q104 48 104 148q0 96 -66 160h218zM188 750h-145v137l154 51v217l247 49v-272h285v-182h-285v-426q0 -140 97 -140q63 0 180 80l70 -186q-67 -49 -149 -76t-163 -27q-139 0 -215 77t-76 210v488z" />
    <glyph glyph-name="tbar" unicode="&#x167;" horiz-adv-x="819" 
d="M47 590h143v160h-145v137l154 51v217l247 49v-272h285v-182h-285v-160h287v-123h-287v-143q0 -140 97 -140q63 0 180 80l70 -186q-67 -49 -149 -76t-163 -27q-139 0 -215 77t-76 210v205h-143v123z" />
    <glyph glyph-name="Ubreve" unicode="&#x16c;" horiz-adv-x="1458" 
d="M154 1366h264v-827q0 -167 79.5 -253.5t233.5 -86.5q148 0 229.5 87t81.5 244v836h265v-825q0 -170 -72.5 -299t-205.5 -198t-300 -69q-277 0 -426 140.5t-149 396.5v854zM729 1464q-143 0 -225 74t-82 197l4 53h139l-1 -23q0 -69 34 -112t131 -43q165 0 165 156l-1 22
h139l4 -53q0 -124 -83 -197.5t-224 -73.5z" />
    <glyph glyph-name="Uhungarumlaut" unicode="&#x170;" horiz-adv-x="1458" 
d="M815 1534l191 252h237l-289 -326zM428 1534l178 252h238l-277 -326zM154 1366h264v-827q0 -167 79.5 -253.5t233.5 -86.5q148 0 229.5 87t81.5 244v836h265v-825q0 -170 -72.5 -299t-205.5 -198t-300 -69q-277 0 -426 140.5t-149 396.5v854z" />
    <glyph glyph-name="Umacron" unicode="&#x16a;" horiz-adv-x="1458" 
d="M154 1366h264v-827q0 -167 79.5 -253.5t233.5 -86.5q148 0 229.5 87t81.5 244v836h265v-825q0 -170 -72.5 -299t-205.5 -198t-300 -69q-277 0 -426 140.5t-149 396.5v854zM434 1702h588v-152h-588v152z" />
    <glyph glyph-name="Uogonek" unicode="&#x172;" horiz-adv-x="1460" 
d="M154 1366h264v-827q0 -167 79.5 -253.5t233.5 -86.5q148 0 229.5 87t81.5 244v836h265v-825q0 -166 -71.5 -295.5t-207.5 -200.5q-98 -75 -159.5 -160t-61.5 -143q0 -68 76 -68q47 0 94 21l18 -152q-87 -28 -172 -28q-99 0 -155 47.5t-56 134.5q0 100 98 213l56 67
l-18 -2h-19q-277 0 -426 140.5t-149 396.5v854z" />
    <glyph glyph-name="Uring" unicode="&#x16e;" horiz-adv-x="1458" 
d="M729 1403q-94 0 -150.5 53.5t-56.5 132.5t57 129.5t150 50.5q92 0 149.5 -50.5t57.5 -129.5t-56.5 -132.5t-150.5 -53.5zM729 1499q45 0 69.5 27t24.5 61q0 39 -27 62.5t-67 23.5t-66 -22.5t-26 -63.5q0 -34 23 -61t69 -27zM154 1366h264v-827q0 -167 79.5 -253.5
t233.5 -86.5q148 0 229.5 87t81.5 244v836h265v-825q0 -170 -72.5 -299t-205.5 -198t-300 -69q-277 0 -426 140.5t-149 396.5v854z" />
    <glyph glyph-name="Utilde" unicode="&#x168;" horiz-adv-x="1458" 
d="M154 1366h264v-827q0 -167 79.5 -253.5t233.5 -86.5q148 0 229.5 87t81.5 244v836h265v-825q0 -170 -72.5 -299t-205.5 -198t-300 -69q-277 0 -426 140.5t-149 396.5v854zM346 1489l-2 18v14q0 115 58.5 180.5t164.5 65.5q67 0 113.5 -20.5t82 -45t65 -45t63.5 -20.5
q68 0 68 107v20h157v-31q0 -119 -59 -185t-168 -66q-103 0 -188 66q-59 44 -80 54.5t-45 10.5q-36 0 -55 -28t-19 -77l1 -14l1 -4h-158z" />
    <glyph glyph-name="ubreve" unicode="&#x16d;" 
d="M119 932h256v-555q0 -105 22 -142.5t74 -37.5q42 0 97.5 28t138.5 99v608h254v-647q0 -103 40 -281l-245 -22q-19 71 -29 157q-164 -164 -352 -164q-122 0 -189 71.5t-67 209.5v676zM538 1110q-135 0 -216 75t-81 204l4 55h140v-25q0 -83 40.5 -125.5t112.5 -42.5
q76 0 115 44t39 124v25h139l2 -55q0 -128 -80 -203.5t-215 -75.5z" />
    <glyph glyph-name="uhungarumlaut" unicode="&#x171;" 
d="M119 932h256v-555q0 -105 22 -142.5t74 -37.5q42 0 97.5 28t138.5 99v608h254v-647q0 -103 40 -281l-245 -22q-19 71 -29 157q-164 -164 -352 -164q-122 0 -189 71.5t-67 209.5v676zM606 1114l222 334h225l-320 -408zM232 1114l211 334h225l-309 -408z" />
    <glyph glyph-name="umacron" unicode="&#x16b;" 
d="M119 932h256v-555q0 -105 22 -142.5t74 -37.5q42 0 97.5 28t138.5 99v608h254v-647q0 -103 40 -281l-245 -22q-19 71 -29 157q-164 -164 -352 -164q-122 0 -189 71.5t-67 209.5v676zM276 1341h526v-159h-526v159z" />
    <glyph glyph-name="uogonek" unicode="&#x173;" 
d="M119 932h256v-555q0 -105 22 -142.5t74 -37.5q42 0 97.5 28t138.5 99v608h254v-647q0 -103 40 -281q-79 -73 -122 -142.5t-43 -119.5q0 -68 76 -68q42 0 92 21l18 -152q-88 -28 -172 -28q-99 0 -154 47.5t-55 134.5q0 53 24.5 104.5t79.5 115.5l58 69l-47 -4
q-19 71 -29 157q-164 -164 -352 -164q-122 0 -189 71.5t-67 209.5v676z" />
    <glyph glyph-name="uring" unicode="&#x16f;" 
d="M538 1096q-94 0 -150.5 53.5t-56.5 132.5t57 129.5t150 50.5q92 0 149.5 -50.5t57.5 -129.5t-56.5 -132.5t-150.5 -53.5zM538 1192q45 0 69.5 27t24.5 61q0 39 -27 62.5t-67 23.5t-66 -22.5t-26 -63.5q0 -34 23 -61t69 -27zM119 932h256v-555q0 -105 22 -142.5t74 -37.5
q42 0 97.5 28t138.5 99v608h254v-647q0 -103 40 -281l-245 -22q-19 71 -29 157q-164 -164 -352 -164q-122 0 -189 71.5t-67 209.5v676z" />
    <glyph glyph-name="utilde" unicode="&#x169;" 
d="M119 932h256v-555q0 -105 22 -142.5t74 -37.5q42 0 97.5 28t138.5 99v608h254v-647q0 -103 40 -281l-245 -22q-19 71 -29 157q-164 -164 -352 -164q-122 0 -189 71.5t-67 209.5v676zM192 1120l-2 19v12q0 122 54.5 190t152.5 68q96 0 174 -78q52 -52 71.5 -65t39.5 -13
q59 0 59 117v25h156v-29q0 -78 -25.5 -140.5t-73 -93t-114.5 -30.5q-99 0 -168 78q-41 44 -63.5 60.5t-45.5 16.5q-29 0 -44 -31.5t-15 -86.5v-19h-156z" />
    <glyph glyph-name="Wcircumflex" unicode="&#x174;" horiz-adv-x="1985" 
d="M633 1558l258 226h201l256 -226l-131 -88l-226 180l-225 -180zM37 1366h272l285 -1001l297 1001h209l297 -1001l286 1001h265l-412 -1376h-268l-277 907l-274 -907h-271z" />
    <glyph glyph-name="wcircumflex" unicode="&#x175;" horiz-adv-x="1571" 
d="M471 1098l235 350h158l234 -352l-140 -58l-174 244l-172 -244zM27 932h262l178 -647l213 647h217l209 -647l182 647h256l-303 -938h-248l-209 608l-206 -608h-250z" />
    <glyph glyph-name="Ycircumflex" unicode="&#x176;" horiz-adv-x="1245" 
d="M492 569l-494 797h309l316 -535l325 535h299l-491 -795v-571h-264v569zM264 1558l258 226h201l256 -226l-131 -88l-226 180l-225 -180z" />
    <glyph glyph-name="ycircumflex" unicode="&#x177;" horiz-adv-x="973" 
d="M20 -289q96 11 185 77t129 159l33 78l-359 907h266l218 -610l213 610h258l-388 -1000q-67 -175 -195.5 -289t-281.5 -128zM179 1098l235 350h158l234 -352l-140 -58l-174 244l-172 -244z" />
    <glyph glyph-name="Zacute" unicode="&#x179;" horiz-adv-x="1192" 
d="M74 160l676 985h-646v221h986v-160l-666 -985h690v-221h-1040v160zM389 1587l443 195l72 -189l-465 -143z" />
    <glyph glyph-name="Zdotaccent" unicode="&#x17b;" horiz-adv-x="1192" 
d="M616 1485q-69 0 -109 40.5t-40 100.5q0 64 41.5 103.5t107.5 39.5q64 0 107 -39.5t43 -103.5q0 -60 -41.5 -100.5t-108.5 -40.5zM74 160l676 985h-646v221h986v-160l-666 -985h690v-221h-1040v160z" />
    <glyph glyph-name="zacute" unicode="&#x17a;" horiz-adv-x="922" 
d="M336 1114l211 334h244l-318 -408zM74 156l426 579h-410v197h741v-156l-434 -579h451v-197h-774v156z" />
    <glyph glyph-name="zdotaccent" unicode="&#x17c;" horiz-adv-x="922" 
d="M74 156l426 579h-410v197h741v-156l-434 -579h451v-197h-774v156zM464 1135q-67 0 -108 40.5t-41 102.5q0 63 41.5 103t107.5 40t108 -41t42 -102t-42 -102t-108 -41z" />
    <glyph glyph-name="uni00A0" unicode="&#xa0;" horiz-adv-x="492" 
 />
    <glyph glyph-name="space" unicode=" " horiz-adv-x="492" 
 />
    <glyph glyph-name="glyph363" horiz-adv-x="0" 
 />
    <glyph glyph-name="uni000D" unicode="&#xd;" horiz-adv-x="0" 
 />
    </font>
</defs>
</svg>
