<?xml  version="1.0" encoding="UTF-8"?>
<!DOCTYPE svg PUBLIC "-//W3C//DTD SVG 1.0//EN" "http://www.w3.org/TR/2001/REC-SVG-20010904/DTD/svg10.dtd" >
<svg xmlns="http://www.w3.org/2000/svg" >
<metadata>
<version>1.0</version>
<id><![CDATA[Calluna Sans W02 Light]]></id>
<vendor>Monotype Imaging Inc.</vendor>
<credits>
<name>Fonts.com WebFonts</name>
<URL>http://webfonts.fonts.com</URL>
<role>Home of the Web fonts</role>
</credits>
<license>
<URL>http://webfonts.fonts.com/Legal</URL>
</license>
<copyright><![CDATA[Copyright (c) 2010 by Jos Buivenga. All rights reserved.]]></copyright>
<trademark><![CDATA[Calluna Sans is a trademark of Jos Buivenga.]]></trademark>
<licensee>
<name></name>
</licensee>
</metadata>
<defs >
<font horiz-adv-x="1044" id="ba2e6cd3-424d-420d-9979-f02312873084">
<font-face font-family="" panose-1="2 0 0 0 0 0 0 0 0 0" ascent="1524" descent="-524" units-per-em="2048" alphabetic="0">
</font-face>
<missing-glyph horiz-adv-x="0" />

<glyph unicode="&#xA;" />
<glyph unicode="&#xD;" horiz-adv-x="0" />
<glyph unicode=" " horiz-adv-x="492" />
<glyph unicode="!" horiz-adv-x="545" d="M195 1391H348L328 381H209L195 1391ZM164 86Q164 133 197 165T274 197Q319 197 352 165T385 86Q385 39 352 7T274 -25Q230 -25 197 7T164 86Z"  />
<glyph unicode="&quot;" horiz-adv-x="684" d="M438 1366H565V1290L526 903H438V1366ZM137 1366H264V1290L225 903H137V1366Z"  />
<glyph unicode="#" horiz-adv-x="1298" d="M172 764H414L500 1184H608L522 764H840L926 1184H1034L948 764H1221L1200 662H928L866 367H1143L1124 266H846L756 -182H645L737 266H420L330 -182H219L311 266H76L94 367H332L391 662H152L172 764ZM440 367H758L817 662H502L440 367Z"  />
<glyph unicode="$" horiz-adv-x="936" d="M117 209Q172 168 257 138T426 102L436 524Q308 569 245 612T145 713T109 852Q109 977 197 1053T453 1141L459 1319H547L541 1141Q618 1139 692 1123T819 1081L780 969Q673 1018 539 1028L528 631Q695 566 769 480T844 285Q844 160 755 82T510 -8L506 -182H418L422 -12Q326 -10 234 17T84 86L117 209ZM248 860Q248 795 288 750T440 662L451 1028Q248 1016 248 860ZM707 285Q707 348 668 396T524 489L514 106Q602 117 654 161T707 285Z"  />
<glyph unicode="%" horiz-adv-x="1473" d="M1159 1370L1239 1313L324 0H209L1159 1370ZM383 735Q259 735 172 822T84 1036Q84 1161 170 1250T383 1339Q511 1339 597 1251T684 1036Q684 908 597 822T383 735ZM383 825Q464 825 525 887T586 1036Q586 1121 526 1184T381 1247Q298 1247 239 1184T180 1036Q180 949 241 887T383 825ZM797 276Q797 404 884 492T1098 580Q1222 580 1309 492T1397 276Q1397 151 1310 63T1098 -25Q972 -25 885 63T797 276ZM895 276Q895 192 954 129T1098 66Q1181 66 1239 129T1298 276Q1298 360 1239 423T1094 487Q1013 487 954 424T895 276Z"  />
<glyph unicode="&amp;" horiz-adv-x="1378" d="M94 313Q94 389 125 455T214 581T399 731Q279 942 279 1087Q279 1168 317 1238T426 1350T592 1391Q717 1391 793 1322T870 1133Q870 1056 839 990T746 861T565 713Q707 483 893 297Q981 416 1033 578T1098 918H1221Q1207 733 1141 546T973 223Q1170 49 1327 16L1270 -86Q1088 -52 887 127Q720 -25 508 -25Q392 -25 297 17T148 137T94 313ZM524 92Q679 92 805 203Q591 427 457 635Q321 536 272 467T223 326Q223 221 308 157T524 92ZM422 1092Q422 978 510 809Q609 880 651 923T715 1011T737 1106Q737 1180 696 1227T584 1274Q509 1274 466 1222T422 1092Z"  />
<glyph unicode="&apos;" horiz-adv-x="381" d="M137 1366H258V1290L233 903H137V1366Z"  />
<glyph unicode="(" horiz-adv-x="573" d="M115 553Q115 810 197 1033T414 1409L522 1378Q392 1221 313 1003T233 553Q233 299 314 67T528 -326L424 -360Q282 -193 199 48T115 553Z"  />
<glyph unicode=")" horiz-adv-x="573" d="M45 -326Q179 -161 259 71T340 553Q340 782 260 1002T51 1378L160 1409Q297 1253 378 1028T459 553Q459 288 376 49T150 -360L45 -326Z"  />
<glyph unicode="*" horiz-adv-x="979" d="M420 1409H559L516 1106H463L420 1409ZM567 1075L811 1266L881 1143L594 1028L567 1075ZM98 1143L168 1266L412 1075L383 1028L98 1143ZM594 969L881 854L811 731L567 922L594 969ZM98 854L383 969L412 922L168 731L98 854ZM463 891H516L559 588H420L463 891Z"  />
<glyph unicode="+" horiz-adv-x="1065" d="M68 569H471V993H602V569H999V449H602V0H471V449H68V569Z"  />
<glyph unicode="&#x2c;" horiz-adv-x="457" d="M262 207Q334 126 334 -2Q334 -113 286 -194T147 -340L82 -274Q150 -215 168 -191T196 -138T205 -72Q205 -10 183 44T117 158L262 207Z"  />
<glyph unicode="-" horiz-adv-x="670" d="M117 580H551V438H117V580Z"  />
<glyph unicode="." horiz-adv-x="477" d="M127 86Q127 132 161 164T240 197Q282 197 315 165T348 86Q348 39 315 7T240 -25Q195 -25 161 7T127 86Z"  />
<glyph unicode="/" horiz-adv-x="932" d="M731 1366H862L182 -401H49L731 1366Z"  />
<glyph unicode="0" horiz-adv-x="1116" d="M109 473Q109 615 165 733T325 917T565 983Q698 983 799 921T954 748T1008 498Q1008 348 950 226T790 39T555 -25Q421 -25 320 39T164 217T109 473ZM240 483Q240 310 329 201T563 92Q657 92 728 143T838 284T877 485Q877 590 839 677T728 815T563 866Q469 866 396 816T282 675T240 483Z"  />
<glyph unicode="1" horiz-adv-x="694" d="M106 115H309V860H123V958H436V115H629V0H106V115Z"  />
<glyph unicode="2" horiz-adv-x="895" d="M94 90Q323 259 458 421T594 700Q594 774 544 822T412 870Q353 870 287 843T162 770L102 854Q171 910 261 946T432 983Q562 983 644 907T727 711Q727 635 684 547T553 361T291 117H813V0H117L94 90Z"  />
<glyph unicode="3" horiz-adv-x="805" d="M63 -281L94 -283H123Q322 -283 447 -194T573 37Q573 155 489 219T252 283H188V393Q266 402 349 452T484 573T537 711Q537 783 490 826T365 870Q302 870 234 844T113 774L45 856Q117 913 205 948T375 983Q505 983 588 909T672 717Q672 622 602 530T416 375Q556 349 631 265T707 53Q707 -73 635 -174T432 -331T131 -387H104L76 -385L63 -281Z"  />
<glyph unicode="4" horiz-adv-x="1051" d="M59 150L690 989H778V174H977V63H778V-395H651V63H59V150ZM651 174V752L207 174H651Z"  />
<glyph unicode="5" horiz-adv-x="809" d="M63 -283L92 -285H123Q250 -285 354 -244T518 -127T578 49Q578 147 530 221T381 342T102 412V958H664V844H225V510Q468 463 589 347T711 55Q711 -74 638 -175T431 -332T131 -387H103L74 -385L63 -283Z"  />
<glyph unicode="6" horiz-adv-x="1030" d="M535 -25Q403 -25 306 50T157 261T106 567Q106 799 196 987T446 1279T815 1391L825 1284Q601 1271 452 1133T256 760Q296 813 369 842T530 872Q654 872 747 818T891 663T942 440Q942 313 891 206T748 37T535 -25ZM524 758Q449 758 376 728T242 637V586Q242 365 322 229T537 92Q656 92 731 186T807 424Q807 523 775 597T680 714T524 758Z"  />
<glyph unicode="7" horiz-adv-x="920" d="M152 -367Q446 166 715 831H68V958H860V864Q635 308 274 -399L152 -367Z"  />
<glyph unicode="8" horiz-adv-x="1040" d="M104 317Q104 390 136 454T229 580T422 733Q299 829 247 915T195 1096Q195 1227 293 1309T547 1391Q693 1391 783 1310T874 1102Q874 1011 817 926T623 743Q760 641 817 582T905 460T936 328Q936 231 881 150T728 22T514 -25Q395 -25 302 20T156 145T104 317ZM799 322Q799 373 775 418T710 504T618 585T512 666Q393 584 341 534T261 433T233 328Q233 222 316 158T522 94Q640 94 719 157T799 322ZM332 1098Q332 1032 377 965T535 811Q651 895 699 961T748 1094Q748 1173 689 1222T539 1272Q450 1272 391 1226T332 1098Z"  />
<glyph unicode="9" horiz-adv-x="1024" d="M211 -287Q442 -271 590 -144T780 209Q739 158 666 127T506 96Q387 96 297 152T156 312T106 539Q106 661 156 764T294 925T500 983Q631 983 728 909T878 700T930 399Q930 183 842 2T593 -282T221 -393L211 -287ZM518 211Q592 211 664 242T793 330L795 352V375Q795 596 712 731T492 866Q380 866 312 780T244 553Q244 395 316 303T518 211Z"  />
<glyph unicode=":" horiz-adv-x="551" d="M276 688Q230 688 198 720T166 799Q166 845 198 877T276 909Q323 909 355 876T387 799Q387 754 355 721T276 688ZM166 86Q166 133 199 165T276 197Q321 197 354 164T387 86Q387 41 354 8T276 -25Q232 -25 199 7T166 86Z"  />
<glyph unicode=";" horiz-adv-x="541" d="M309 207Q381 126 381 -2Q381 -113 333 -194T194 -340L129 -274Q197 -215 215 -191T243 -138T252 -72Q252 -10 230 44T164 158L309 207ZM158 799Q158 845 192 877T271 910Q313 910 346 878T379 799Q379 752 346 720T271 688Q226 688 192 720T158 799Z"  />
<glyph unicode="&lt;" horiz-adv-x="1065" d="M68 553L940 1022L967 893L231 506L967 98L940 -29L68 459V553Z"  />
<glyph unicode="=" horiz-adv-x="1065" d="M70 774H995V651H70V774ZM70 375H995V252H70V375Z"  />
<glyph unicode="&gt;" horiz-adv-x="1065" d="M96 98L827 506L96 893L123 1022L995 553V459L123 -29L96 98Z"  />
<glyph unicode="?" horiz-adv-x="711" d="M205 381Q199 408 199 457Q199 625 339 800Q434 919 456 958T479 1030Q479 1098 373 1170T96 1303L125 1425Q362 1348 498 1247T635 1042Q635 992 603 940T471 779Q307 597 307 381H205ZM154 86Q154 133 187 165T264 197Q309 197 342 165T375 86Q375 39 342 7T264 -25Q220 -25 187 7T154 86Z"  />
<glyph unicode="@" horiz-adv-x="1673" d="M90 401Q90 620 195 809T481 1106T881 1214Q1077 1214 1234 1129T1479 890T1567 547Q1567 403 1521 289T1389 109Q1353 81 1313 62T1225 28T1124 1T1008 -25Q994 25 983 123Q943 56 870 16T725 -25Q599 -25 520 84T440 367Q440 527 513 655T713 856T991 928L1110 922V268Q1110 164 1124 104Q1282 125 1364 232T1446 522Q1446 693 1377 828T1179 1037T883 1112Q699 1112 546 1021T301 761T209 391Q209 216 280 70T478 -164T752 -258L735 -352Q559 -346 411 -242T176 34T90 401ZM762 96Q813 96 871 137T979 254V815Q808 815 694 691T580 381Q580 257 631 177T762 96Z"  />
<glyph unicode="A" horiz-adv-x="1255" d="M563 1376H692L1221 0H1077L907 449H342L172 0H35L563 1376ZM385 563H864L625 1194L385 563Z"  />
<glyph unicode="B" horiz-adv-x="1190" d="M211 1366H532Q749 1366 872 1280T995 1038Q995 865 829 731Q951 692 1016 604T1081 397Q1081 220 953 110T614 0H211V1366ZM584 113Q755 113 844 182T934 379Q934 508 845 578T584 649H346V113H584ZM346 764H678Q755 807 802 879T850 1036Q850 1149 761 1201T502 1253H346V764Z"  />
<glyph unicode="C" horiz-adv-x="1376" d="M111 678Q111 879 203 1043T461 1299T834 1391Q950 1391 1068 1359T1278 1272L1223 1147Q1139 1205 1032 1240T819 1276Q656 1276 530 1202T331 989T258 686Q258 526 332 388T537 170T827 90Q929 90 1040 129T1237 231L1292 129Q1202 62 1072 19T813 -25Q609 -25 448 68T199 321T111 678Z"  />
<glyph unicode="D" horiz-adv-x="1477" d="M211 1366H600Q829 1366 1006 1284T1272 1054T1362 705Q1362 487 1260 328T969 84T522 0H211V1366ZM502 113Q851 113 1034 260T1217 684Q1217 953 1047 1103T571 1253H346V113H502Z"  />
<glyph unicode="E" horiz-adv-x="1104" d="M211 1366H995V1253H346V756H860V643H346V113H987V0H211V1366Z"  />
<glyph unicode="F" horiz-adv-x="1036" d="M211 1366H973V1253H346V750H842V627H346V0H211V1366Z"  />
<glyph unicode="G" horiz-adv-x="1423" d="M111 666Q111 869 202 1036T457 1297T834 1391Q954 1391 1073 1363T1284 1288L1229 1161Q1140 1215 1034 1245T823 1276Q654 1276 525 1198T326 983T256 678Q256 508 332 373T547 164T868 90Q1006 90 1143 131V571H844V684H1278V39Q1029 -25 842 -25Q635 -25 467 61T205 306T111 666Z"  />
<glyph unicode="H" horiz-adv-x="1538" d="M211 1366H346V754H1192V1366H1327V0H1192V641H346V0H211V1366Z"  />
<glyph unicode="I" horiz-adv-x="557" d="M211 1366H346V0H211V1366Z"  />
<glyph unicode="J" horiz-adv-x="559" d="M-16 -252Q94 -239 153 -141T213 127V1366H348V127Q348 -75 267 -205T43 -358L-16 -252Z"  />
<glyph unicode="K" horiz-adv-x="1155" d="M211 1366H346V772H371L948 1366H1120L487 725L1145 0H963L371 659H346V0H211V1366Z"  />
<glyph unicode="L" d="M211 1366H346V113H1014V0H211V1366Z"  />
<glyph unicode="M" horiz-adv-x="1755" d="M238 1366H430L872 174L1321 1366H1516L1565 0H1434L1391 1196L930 0H819L358 1210L322 0H190L238 1366Z"  />
<glyph unicode="N" horiz-adv-x="1530" d="M211 1366H344L1188 199V1366H1319V0H1186L342 1149V0H211V1366Z"  />
<glyph unicode="O" horiz-adv-x="1624" d="M111 680Q111 876 205 1043T462 1301T823 1391Q1020 1391 1178 1303T1425 1057T1513 709Q1513 513 1420 342T1165 73T805 -25Q614 -25 455 66T204 322T111 680ZM256 694Q256 537 329 395T527 173T811 92Q967 92 1092 170T1291 390T1366 692Q1366 850 1296 984T1099 1196T811 1274Q652 1274 525 1196T327 983T256 694Z"  />
<glyph unicode="P" horiz-adv-x="1139" d="M211 1366H578Q808 1366 933 1264T1059 975Q1059 776 929 662T578 547H346V0H211V1366ZM551 659Q737 659 825 739T913 961Q913 1104 820 1178T551 1253H346V659H551Z"  />
<glyph unicode="Q" horiz-adv-x="1624" d="M115 680Q115 877 207 1043T460 1300T817 1391Q1016 1391 1177 1303T1427 1058T1516 709Q1516 543 1448 394T1256 140T977 -4Q1122 -199 1243 -273T1499 -350L1481 -475H1458Q1364 -475 1273 -440T1103 -338T964 -196L918 -141L856 -70Q823 -28 737 -23Q558 -8 416 89T195 342T115 680ZM260 694Q260 532 334 390T531 171T811 94Q963 94 1089 171T1292 389T1370 694Q1370 849 1300 983T1102 1196T815 1274Q656 1274 529 1196T331 982T260 694Z"  />
<glyph unicode="R" horiz-adv-x="1190" d="M211 1366H537Q762 1366 890 1271T1018 1006Q1018 886 941 785T719 621L1143 0H983L573 596H346V0H211V1366ZM584 711Q651 711 719 747T828 846T870 989Q870 1112 776 1182T510 1253H346V711H584Z"  />
<glyph unicode="S" horiz-adv-x="1038" d="M139 221Q214 166 313 132T502 96Q634 96 714 155T795 313Q795 376 767 424T692 510T585 582T463 648T341 719T235 802T160 908T131 1047Q131 1202 249 1296T565 1391Q640 1391 732 1374T905 1329L862 1200Q700 1270 557 1270Q423 1270 345 1215T266 1063Q266 998 294 950T369 864T476 793T598 727T720 658T826 574T901 466T930 324Q930 162 811 69T492 -25Q387 -25 284 5T104 90L139 221Z"  />
<glyph unicode="T" horiz-adv-x="1206" d="M530 1253H35V1366H1171V1253H664V0H530V1253Z"  />
<glyph unicode="U" horiz-adv-x="1477" d="M193 1366H326V520Q326 316 434 204T739 92Q934 92 1042 201T1151 506V1366H1284V514Q1284 350 1215 227T1022 40T737 -25Q477 -25 335 107T193 485V1366Z"  />
<glyph unicode="V" horiz-adv-x="1194" d="M35 1366H176L598 184L1022 1366H1159L662 -10H530L35 1366Z"  />
<glyph unicode="W" horiz-adv-x="1917" d="M55 1366H193L547 186L883 1366H1040L1372 190L1731 1366H1864L1442 -10H1305L961 1163L614 -10H477L55 1366Z"  />
<glyph unicode="X" horiz-adv-x="1192" d="M518 680L57 1366H217L598 786L979 1366H1133L674 684L1133 0H975L594 580L211 0H57L518 680Z"  />
<glyph unicode="Y" horiz-adv-x="1153" d="M510 602L23 1366H182L580 731L981 1366H1130L645 604V0H510V602Z"  />
<glyph unicode="Z" horiz-adv-x="1184" d="M74 74L905 1253H127V1366H1081V1292L260 113H1090V0H74V74Z"  />
<glyph unicode="[" horiz-adv-x="586" d="M182 1366H543V1266H297V-211H543V-313H182V1366Z"  />
<glyph unicode="\" horiz-adv-x="928" d="M70 1366H197L879 -401H750L70 1366Z"  />
<glyph unicode="]" horiz-adv-x="588" d="M289 -205V1257H43V1366H406V-313H43V-205H289Z"  />
<glyph unicode="^" horiz-adv-x="1028" d="M471 1391H559L997 512H852L512 1194L172 512H33L471 1391Z"  />
<glyph unicode="_" horiz-adv-x="1110" d="M1067 -76V-190H43V-76H1067Z"  />
<glyph unicode="`" horiz-adv-x="1028" d="M338 1425H492L698 1083L614 1034L338 1425Z"  />
<glyph unicode="a" horiz-adv-x="944" d="M80 201Q80 340 221 429T637 555V616Q637 707 622 744T572 801T477 821Q409 821 333 795T190 723L145 834Q218 883 317 912T512 942Q647 942 704 874T762 653V217Q762 160 789 128T864 90L817 -14Q743 -2 699 33T643 139L618 108Q574 54 496 15T332 -25Q220 -25 150 37T80 201ZM350 98Q400 98 444 116T529 166T637 270V449Q412 409 316 353T219 209Q219 156 253 127T350 98Z"  />
<glyph unicode="b" horiz-adv-x="1057" d="M162 1436L287 1460V809Q326 866 404 904T567 942Q740 942 849 814T958 485Q958 335 896 220T714 40T429 -25Q335 -25 162 16V1436ZM555 823Q484 823 413 786T287 680V115Q350 90 451 90Q624 90 723 193T823 477Q823 636 749 729T555 823Z"  />
<glyph unicode="c" horiz-adv-x="926" d="M98 446Q98 583 155 698T315 877T551 942Q635 942 713 915T846 840L780 737Q734 775 670 799T543 823Q452 823 381 777T271 646T231 461Q231 303 319 199T549 94Q617 94 684 121T799 195L846 94Q793 41 708 8T532 -25Q407 -25 308 36T153 206T98 446Z"  />
<glyph unicode="d" horiz-adv-x="1085" d="M100 428Q100 572 163 690T340 875T604 942Q703 942 771 917L791 909V1436L915 1460V285Q915 171 956 0L827 -14L799 139Q751 61 669 18T492 -25Q380 -25 290 33T150 196T100 428ZM504 96Q580 96 652 138T791 283V680Q791 827 604 827Q437 827 337 721T236 438Q236 283 311 190T504 96Z"  />
<glyph unicode="e" horiz-adv-x="993" d="M100 434Q100 654 221 798T535 942Q695 942 794 836T893 547L809 522L238 449Q246 283 332 189T557 94Q628 94 705 125T850 211L889 104Q827 45 735 10T549 -25Q414 -25 312 34T155 198T100 434ZM528 829Q419 829 343 758T244 561L754 627Q735 723 676 776T528 829Z"  />
<glyph unicode="f" horiz-adv-x="647" d="M61 872L207 930V1034Q207 1246 302 1365T565 1485Q629 1485 696 1464T813 1409L745 1305Q700 1334 649 1352T557 1370Q452 1370 392 1283T332 1040V918H596V809H332V0H207V809H61V872Z"  />
<glyph unicode="g" horiz-adv-x="1018" d="M156 172Q156 205 184 240T291 328Q209 371 163 448T117 621Q117 764 223 853T483 942Q542 942 620 923Q698 903 750 903H840Q904 903 961 924L975 795H810L780 797Q848 718 848 602Q848 509 798 438T659 326T471 285Q419 285 389 293Q336 255 318 235T299 199Q299 174 342 156T567 102Q725 70 790 40T892 -35T928 -147Q928 -237 862 -315T684 -439T444 -485Q280 -485 172 -417T63 -236Q63 -156 121 -86T309 45Q241 65 199 95T156 172ZM428 18Q314 -43 272 -75T207 -144T184 -221Q184 -294 260 -338T459 -383Q545 -383 622 -353T746 -271T793 -164Q793 -109 743 -72T565 -8L428 18ZM483 389Q587 389 650 444T713 592Q713 657 684 714T601 805T477 838Q377 838 316 775T254 612Q254 511 316 450T483 389Z"  />
<glyph unicode="h" horiz-adv-x="1075" d="M166 1436L291 1460V750Q392 847 493 894T682 942Q797 942 858 872T920 672V0H795V649Q795 829 657 829Q589 829 487 770T291 621V0H166V1436Z"  />
<glyph unicode="i" horiz-adv-x="455" d="M231 1161Q191 1161 162 1191T133 1262Q133 1301 162 1330T231 1360Q271 1360 299 1330T328 1262Q328 1223 300 1192T231 1161ZM166 918H291V0H166V918Z"  />
<glyph unicode="j" horiz-adv-x="455" d="M229 1161Q189 1161 160 1191T131 1262Q131 1301 160 1330T229 1360Q269 1360 297 1330T326 1262Q326 1223 298 1192T229 1161ZM166 918H291V6Q291 -224 220 -341T-6 -485L-47 -375Q65 -351 115 -266T166 -33V918Z"  />
<glyph unicode="k" horiz-adv-x="932" d="M166 1436L291 1460V551H309L696 918H868L426 510L915 0H743L311 457H291V0H166V1436Z"  />
<glyph unicode="l" horiz-adv-x="455" d="M166 1436L291 1460V0H166V1436Z"  />
<glyph unicode="m" horiz-adv-x="1638" d="M162 905L287 930V743Q363 815 419 852T539 916T672 942Q757 942 813 896T887 762Q981 851 1076 896T1260 942Q1366 942 1424 872T1483 672V0H1358V649Q1358 736 1327 782T1237 829Q1114 829 895 641V0H770V649Q770 736 739 782T647 829Q579 829 484 772T287 614V0H162V905Z"  />
<glyph unicode="n" horiz-adv-x="1073" d="M162 905L287 930V743Q398 848 495 895T682 942Q794 942 856 872T918 672V0H793V649Q793 829 657 829Q586 829 484 769T287 614V0H162V905Z"  />
<glyph unicode="o" horiz-adv-x="1073" d="M98 463Q98 593 153 703T309 878T535 942Q661 942 762 879T919 706T975 467Q975 336 918 221T761 41T535 -25Q410 -25 310 40T154 219T98 463ZM231 475Q231 368 268 280T375 142T537 92Q674 92 758 193T842 453Q842 619 759 722T535 825Q396 825 314 729T231 475Z"  />
<glyph unicode="p" horiz-adv-x="1063" d="M162 905L285 930V788Q324 859 400 900T573 942Q686 942 775 883T914 720T963 485Q963 343 903 225T737 41T498 -25Q419 -25 366 -4T287 39V-449L162 -473V905ZM563 817Q503 817 451 793T354 730T287 655V227Q289 164 341 127T487 90Q640 90 733 194T827 475Q827 633 754 725T563 817Z"  />
<glyph unicode="q" horiz-adv-x="1057" d="M98 430Q98 575 161 693T339 876T610 942Q738 942 895 901V-449L770 -473V113Q733 52 657 14T492 -25Q318 -25 208 102T98 430ZM504 94Q576 94 647 133T770 240V805Q689 827 598 827Q431 827 332 723T233 438Q233 283 308 189T504 94Z"  />
<glyph unicode="r" horiz-adv-x="662" d="M162 905L287 930V745Q341 840 412 891T555 942Q603 942 635 924L596 786L573 793Q544 801 520 801Q404 801 287 592V0H162V905Z"  />
<glyph unicode="s" horiz-adv-x="791" d="M121 174Q178 134 248 110T387 86Q477 86 523 123T569 223Q569 275 534 316T424 393Q258 472 220 499T158 558T122 623T111 700Q111 812 193 877T428 942Q567 942 676 891L637 782Q509 831 412 831Q324 831 282 797T240 711Q240 661 275 623T385 549L469 509Q602 445 650 381T698 231Q698 113 611 44T377 -25Q296 -25 221 -3T92 57L121 174Z"  />
<glyph unicode="t" horiz-adv-x="715" d="M199 809H74V877L199 930V1130L324 1165V918H629V809H324V268Q324 170 354 130T442 90Q489 90 544 115T643 176L674 66Q621 24 553 0T420 -25Q199 -25 199 238V809Z"  />
<glyph unicode="u" horiz-adv-x="1055" d="M152 918H276V268Q276 181 310 135T420 88Q486 88 567 130T760 276V918H885V285Q885 169 926 -2L801 -12Q779 79 770 154Q693 73 593 24T399 -25Q152 -25 152 250V918Z"  />
<glyph unicode="v" horiz-adv-x="920" d="M45 918H178L436 154L752 918H885L489 -12H367L45 918Z"  />
<glyph unicode="w" horiz-adv-x="1499" d="M49 918H182L416 145L698 918H817L1038 145L1329 918H1464L1087 -12H967L743 729L463 -12H342L49 918Z"  />
<glyph unicode="x" horiz-adv-x="915" d="M381 459L66 918H219L459 557L700 918H850L535 463L850 0H705L455 371L205 0H66L381 459Z"  />
<glyph unicode="y" horiz-adv-x="922" d="M51 -375Q137 -358 203 -288T332 -76L401 82L41 918H178L467 246L745 918H883L461 -70Q393 -231 342 -307T230 -429T92 -485L51 -375Z"  />
<glyph unicode="z" horiz-adv-x="877" d="M88 76L596 807H104V918H770V844L256 113H791V0H88V76Z"  />
<glyph unicode="{" horiz-adv-x="698" d="M37 485V590Q111 593 162 626T245 721T292 880T307 1190Q307 1349 414 1433T717 1518V1423Q627 1417 574 1402T490 1357T447 1277T430 1081Q426 917 403 810T335 640T209 541V537Q323 485 373 353T430 -27Q432 -117 438 -178T472 -279T556 -339T717 -369V-463Q558 -463 471 -424T345 -298T307 -31Q307 99 291 192T244 346T165 445T37 485Z"  />
<glyph unicode="|" horiz-adv-x="475" d="M180 1534H295V-461H180V1534Z"  />
<glyph unicode="}" horiz-adv-x="698" d="M489 537V541Q404 580 361 643T294 812T268 1081Q266 1172 260 1234T226 1335T142 1395T-18 1423V1518Q145 1518 230 1477T353 1342T391 1075Q391 953 408 866T456 720T536 628T664 590V485Q585 482 535 445T454 347T408 191T391 -33Q391 -214 353 -300T227 -424T-18 -463V-369Q86 -360 143 -340T227 -280T260 -179T268 -27Q273 218 324 351T489 537Z"  />
<glyph unicode="~" horiz-adv-x="1192" d="M137 362Q137 672 397 672Q534 672 633 572Q686 517 723 494T803 471Q868 471 904 519T940 664H1059Q1059 354 799 354Q662 354 563 455Q510 509 473 532T393 555Q328 555 292 507T256 362H137Z"  />
<glyph unicode="&#xA0;" horiz-adv-x="492" />
<glyph unicode="&#xA1;" horiz-adv-x="504" d="M327 -473H174L194 537H313L327 -473ZM358 832Q358 785 325 753T248 721Q203 721 170 753T137 832Q137 879 170 911T248 943Q292 943 325 911T358 832Z"  />
<glyph unicode="&#xA2;" horiz-adv-x="903" d="M504 137L500 -45H414L418 145Q269 175 180 293T90 569Q90 732 183 852T436 997L440 1178H528L524 1004Q612 1000 687 967T807 879L727 782Q690 822 635 849T520 883L506 256H510Q579 256 646 283T760 356L807 256Q752 201 673 169T508 137H504ZM229 575Q229 464 281 381T420 270L434 879Q340 857 285 774T229 575Z"  />
<glyph unicode="&#xA3;" horiz-adv-x="1092" d="M127 586H266L289 758Q312 960 397 1056T635 1153Q724 1153 805 1120T934 1030L854 934Q812 981 753 1007T627 1034Q527 1034 478 965T414 752L395 586H793L782 489H387Q378 390 356 290T311 135Q385 111 484 89T655 66Q752 66 808 115T877 256L885 322H995Q977 125 897 37T682 -51Q599 -51 447 -12Q294 27 246 27Q193 27 125 0L84 104Q142 123 181 173T229 291L254 489H127V586Z"  />
<glyph unicode="&#xA5;" horiz-adv-x="1130" d="M207 649H399L84 1128H236L565 616L901 1128H1040L727 649H942V551H662L627 496V416H942V317H627V0H502V317H207V416H502V494L463 551H207V649Z"  />
<glyph unicode="&#xA6;" horiz-adv-x="516" d="M193 1401H326V668H193V1401ZM326 350V-383H193V350H326Z"  />
<glyph unicode="&#xA7;" horiz-adv-x="999" d="M317 -199Q352 -115 352 -10Q352 50 342 104L217 811Q205 881 205 948Q205 1152 307 1271T586 1391Q668 1391 754 1363T913 1284L852 1190Q789 1235 720 1260T590 1286Q465 1286 395 1196T324 950Q324 888 336 827L451 197Q471 85 471 -8Q471 -145 420 -221L317 -199ZM119 -285Q180 -328 251 -354T383 -381Q505 -381 576 -291T647 -47Q647 13 635 78L520 709Q498 833 498 913Q498 1047 551 1126L653 1104Q618 1026 618 915Q618 863 629 801L754 94Q766 23 766 -45Q766 -248 665 -366T387 -485Q303 -485 213 -456T57 -379L119 -285Z"  />
<glyph unicode="&#xA8;" horiz-adv-x="1028" d="M684 1167Q650 1167 620 1195T590 1262Q590 1299 619 1327T684 1356Q720 1356 749 1327T778 1262Q778 1225 749 1196T684 1167ZM342 1167Q306 1167 276 1195T246 1262Q246 1299 275 1327T342 1356Q376 1356 405 1328T434 1262Q434 1225 405 1196T342 1167Z"  />
<glyph unicode="&#xA9;" horiz-adv-x="1602" d="M94 682Q94 870 188 1034T447 1294T801 1389Q989 1389 1153 1295T1412 1036T1507 682Q1507 494 1413 330T1154 70T801 -25Q613 -25 449 69T189 328T94 682ZM195 682Q195 516 276 373T497 148T801 66Q964 66 1105 148T1326 373T1407 682Q1407 847 1326 990T1105 1216T801 1298Q636 1298 496 1216T276 990T195 682ZM406 674Q406 792 458 891T604 1046T823 1102Q907 1102 986 1068T1118 979L1026 872Q988 915 931 942T817 969Q706 969 637 887T567 686Q567 566 645 487T846 408Q907 408 963 434T1059 506L1114 393Q1065 337 989 306T825 274Q706 274 610 326T460 471T406 674Z"  />
<glyph unicode="&#xAA;" horiz-adv-x="786" d="M280 713Q200 713 152 756T104 873Q104 1080 495 1133V1161Q495 1225 485 1248T453 1284T391 1297Q291 1297 182 1217L149 1315Q204 1350 278 1370T422 1391Q526 1391 568 1346T610 1188V895Q610 858 630 836T684 813L647 719Q527 724 502 823Q461 772 403 743T280 713ZM305 807Q337 807 364 819T414 850T457 892T495 936V1047Q354 1021 292 981T229 879Q229 807 305 807Z"  />
<glyph unicode="&#xAB;" horiz-adv-x="1047" d="M442 518Q473 543 540 615T846 946L946 920L631 514L946 109L846 82L529 423Q469 488 442 510V518ZM459 82L142 423Q82 488 55 510V518Q86 543 153 615T459 946L557 920L244 514L557 109L459 82Z"  />
<glyph unicode="&#xAC;" horiz-adv-x="1182" d="M115 793H1051V227H920V670H115V793Z"  />
<glyph unicode="&#xAE;" horiz-adv-x="891" d="M446 733Q352 733 270 780T140 910T92 1087Q92 1181 140 1264T269 1394T446 1442Q540 1442 622 1395T753 1265T801 1087Q801 993 754 911T624 781T446 733ZM442 791Q519 791 586 831T693 940T733 1087Q733 1209 648 1295T442 1382Q325 1382 243 1295T160 1087Q160 968 242 880T442 791ZM436 1044H395V918H315V1266H438Q582 1266 582 1161Q582 1091 510 1061L614 918H524L436 1044ZM444 1098Q498 1098 498 1153Q498 1210 430 1210H395V1098H444Z"  />
<glyph unicode="&#xAF;" horiz-adv-x="1028" d="M291 1325H737V1212H291V1325Z"  />
<glyph unicode="&#xB0;" horiz-adv-x="692" d="M346 899Q243 899 170 971T96 1145Q96 1247 169 1319T346 1391Q449 1391 522 1319T596 1145Q596 1043 523 971T346 899ZM346 989Q410 989 454 1034T498 1145Q498 1212 453 1257T346 1303Q283 1303 238 1258T193 1145Q193 1080 237 1035T346 989Z"  />
<glyph unicode="&#xB1;" horiz-adv-x="1065" d="M74 768H463V1143H594V768H991V647H594V236H463V647H74V768ZM70 121H995V0H70V121Z"  />
<glyph unicode="&#xB2;" horiz-adv-x="692" d="M57 819L206 970Q332 1095 390 1187T449 1358Q449 1426 410 1467T309 1509Q269 1509 223 1488T139 1432L76 1503Q122 1550 193 1581T336 1612Q442 1612 506 1547T571 1376Q571 1267 487 1145T242 868H633V770H68L57 819Z"  />
<glyph unicode="&#xB3;" horiz-adv-x="655" d="M268 756Q208 756 150 772T53 815L100 905Q183 858 274 858Q352 858 399 892T446 989Q446 1056 385 1095T225 1135H186V1231Q279 1241 344 1293T410 1415Q410 1511 299 1511Q216 1511 135 1456L88 1534Q199 1612 307 1612Q405 1612 468 1560T532 1427Q532 1304 367 1214Q459 1194 514 1133T569 995Q569 893 482 825T268 756Z"  />
<glyph unicode="&#xB4;" horiz-adv-x="1018" d="M330 1083L535 1425H690L414 1034L330 1083Z"  />
<glyph unicode="&#xB5;" horiz-adv-x="1128" d="M172 918H297V268Q297 88 440 88Q510 88 597 134T780 276V918H905V215Q905 153 915 129T950 93T1038 82V-14Q985 -25 950 -25Q871 -25 830 16T780 152Q716 88 664 54T550 -2T420 -25Q348 -25 293 0L305 -442H152Q172 -252 172 -80V918Z"  />
<glyph unicode="&#xB6;" horiz-adv-x="1343" d="M432 -362Q567 -362 626 -287T686 -47V367H668Q485 367 352 430T145 606T72 864Q72 1003 144 1118T349 1300T657 1366H1239V1255H1087V0H969V1255H815V-41Q815 -485 463 -485L432 -362Z"  />
<glyph unicode="&#xB7;" horiz-adv-x="506" d="M254 410Q207 410 175 443T143 520Q143 563 175 596T254 629Q298 629 330 597T362 520Q362 474 330 442T254 410Z"  />
<glyph unicode="&#xB8;" horiz-adv-x="1028" d="M463 -152Q463 -122 489 -65L516 0H612Q571 -85 571 -104Q571 -122 585 -135T657 -178Q743 -223 743 -297Q743 -371 679 -428T524 -485Q422 -485 338 -422L379 -326Q406 -350 444 -366T518 -383Q561 -383 594 -363T627 -311Q627 -291 609 -275T545 -239Q500 -219 482 -199T463 -152Z"  />
<glyph unicode="&#xB9;" horiz-adv-x="551" d="M70 860H236V1507H82V1597H356V860H514V770H70V860Z"  />
<glyph unicode="&#xBA;" horiz-adv-x="836" d="M414 713Q323 713 250 758T135 882T94 1047Q94 1137 136 1218T253 1345T420 1391Q510 1391 583 1348T697 1229T738 1065Q738 972 697 890T583 760T414 713ZM418 807Q507 807 562 874T617 1047Q617 1159 563 1228T416 1297Q324 1297 270 1233T215 1061Q215 948 270 878T418 807Z"  />
<glyph unicode="&#xBB;" horiz-adv-x="1051" d="M492 109L807 514L492 920L592 946Q895 616 933 577T995 518V510Q974 493 909 423L592 82L492 109ZM104 109L205 237L420 514L104 920L205 946Q317 822 443 686T608 518V510Q594 500 576 481T205 82L104 109Z"  />
<glyph unicode="&#xBC;" horiz-adv-x="1647" d="M1327 229H944L936 291L1354 836H1444V324H1571V229H1444V2H1327V229ZM1327 324V653L1073 324H1327ZM99 645H265V1292H111V1382H385V645H543V555H99V645ZM332 0L1143 1403L1247 1366L463 0H332Z"  />
<glyph unicode="&#xBD;" horiz-adv-x="1780" d="M1130 51L1279 202Q1405 327 1463 419T1522 590Q1522 658 1483 699T1382 741Q1342 741 1296 720T1212 664L1149 735Q1195 782 1266 813T1409 844Q1515 844 1579 779T1644 608Q1644 499 1560 377T1315 100H1706V2H1141L1130 51ZM97 645H263V1292H109V1382H383V645H541V555H97V645ZM318 0L1129 1403L1233 1366L449 0H318Z"  />
<glyph unicode="&#xBE;" horiz-adv-x="1612" d="M1292 229H909L901 291L1319 836H1409V324H1536V229H1409V2H1292V229ZM1292 324V653L1038 324H1292ZM301 541Q241 541 183 557T86 600L133 690Q216 643 307 643Q385 643 432 677T479 774Q479 841 418 880T258 920H219V1016Q312 1026 377 1078T443 1200Q443 1296 332 1296Q249 1296 168 1241L121 1319Q232 1397 340 1397Q438 1397 501 1345T565 1212Q565 1089 400 999Q492 979 547 918T602 780Q602 678 515 610T301 541ZM295 0L1106 1403L1210 1366L426 0H295Z"  />
<glyph unicode="&#xBF;" horiz-adv-x="694" d="M504 537Q510 483 510 461Q510 295 370 129Q286 31 258 -13T229 -92Q229 -162 337 -235T612 -365L584 -487Q355 -415 215 -314T74 -104Q74 -54 106 -4T238 153Q401 328 401 537H504ZM555 831Q555 785 523 753T444 721Q398 721 366 753T334 831Q334 878 366 910T444 942Q491 942 523 910T555 831Z"  />
<glyph unicode="&#xC0;" horiz-adv-x="1255" d="M563 1376H692L1221 0H1077L907 449H342L172 0H35L563 1376ZM385 563H864L625 1194L385 563ZM415 1757L793 1562L759 1476L355 1624L415 1757Z"  />
<glyph unicode="&#xC1;" horiz-adv-x="1255" d="M563 1376H692L1221 0H1077L907 449H342L172 0H35L563 1376ZM385 563H864L625 1194L385 563ZM457 1562L833 1757L895 1624L491 1476L457 1562Z"  />
<glyph unicode="&#xC2;" horiz-adv-x="1255" d="M563 1376H692L1221 0H1077L907 449H342L172 0H35L563 1376ZM385 563H864L625 1194L385 563ZM308 1544L566 1784H686L942 1544L865 1470L627 1681L385 1470L308 1544Z"  />
<glyph unicode="&#xC3;" horiz-adv-x="1255" d="M563 1376H692L1221 0H1077L907 449H342L172 0H35L563 1376ZM385 563H864L625 1194L385 563ZM269 1505Q269 1562 293 1620T365 1709T478 1741Q567 1741 640 1672Q681 1633 707 1618T764 1603Q810 1603 836 1642T863 1741H979Q979 1683 954 1622T880 1529T764 1497Q718 1497 680 1513T603 1566Q555 1609 533 1621T482 1634Q438 1634 412 1598T385 1505H269Z"  />
<glyph unicode="&#xC4;" horiz-adv-x="1255" d="M563 1376H692L1221 0H1077L907 449H342L172 0H35L563 1376ZM385 563H864L625 1194L385 563ZM852 1530Q816 1530 788 1559T760 1624Q760 1660 789 1688T852 1716Q888 1716 917 1688T947 1624Q947 1588 919 1559T852 1530ZM400 1530Q363 1530 335 1558T306 1624Q306 1660 335 1688T400 1716Q433 1716 462 1688T492 1624Q492 1588 464 1559T400 1530Z"  />
<glyph unicode="&#xC5;" horiz-adv-x="1255" d="M563 1376H692L1221 0H1077L907 449H342L172 0H35L563 1376ZM385 563H864L625 1194L385 563ZM625 1458Q541 1458 489 1504T437 1622Q437 1692 488 1738T625 1784Q709 1784 761 1738T813 1622Q813 1550 762 1504T625 1458ZM625 1524Q669 1524 697 1551T725 1620Q725 1664 698 1691T625 1718Q581 1718 554 1693T527 1620Q527 1577 554 1551T625 1524Z"  />
<glyph unicode="&#xC6;" horiz-adv-x="1741" d="M762 1366H1632V1253H981V756H1497V643H981V113H1624V0H848V485H414L145 0H2L762 1366ZM475 598H848V1270L475 598Z"  />
<glyph unicode="&#xC7;" horiz-adv-x="1384" d="M668 -152Q668 -122 694 -65L713 -16Q538 5 401 99T189 345T113 678Q113 879 205 1043T463 1299T836 1391Q952 1391 1070 1359T1280 1272L1225 1147Q1141 1205 1034 1240T821 1276Q658 1276 532 1202T333 989T260 686Q260 526 334 388T539 170T829 90Q931 90 1042 129T1239 231L1294 129Q1204 62 1074 19T815 -25H805Q776 -83 776 -104Q776 -122 790 -135T862 -178Q948 -223 948 -297Q948 -371 884 -428T729 -485Q627 -485 543 -422L584 -326Q611 -350 649 -366T723 -383Q766 -383 798 -362T831 -311Q831 -291 814 -276T750 -239Q707 -221 688 -200T668 -152Z"  />
<glyph unicode="&#xC8;" horiz-adv-x="1104" d="M407 1757L785 1562L751 1476L347 1624L407 1757ZM211 1366H995V1253H346V756H860V643H346V113H987V0H211V1366Z"  />
<glyph unicode="&#xC9;" horiz-adv-x="1104" d="M211 1366H995V1253H346V756H860V643H346V113H987V0H211V1366ZM449 1562L825 1757L887 1624L483 1476L449 1562Z"  />
<glyph unicode="&#xCA;" horiz-adv-x="1104" d="M299 1544L557 1784H677L933 1544L856 1470L618 1681L376 1470L299 1544ZM211 1366H995V1253H346V756H860V643H346V113H987V0H211V1366Z"  />
<glyph unicode="&#xCB;" horiz-adv-x="1104" d="M211 1366H995V1253H346V756H860V643H346V113H987V0H211V1366ZM843 1530Q807 1530 779 1559T751 1624Q751 1660 780 1688T843 1716Q879 1716 908 1688T938 1624Q938 1588 910 1559T843 1530ZM391 1530Q354 1530 326 1558T297 1624Q297 1660 326 1688T391 1716Q424 1716 453 1688T483 1624Q483 1588 455 1559T391 1530Z"  />
<glyph unicode="&#xCC;" horiz-adv-x="557" d="M211 1366H346V0H211V1366ZM69 1757L447 1562L413 1476L9 1624L69 1757Z"  />
<glyph unicode="&#xCD;" horiz-adv-x="557" d="M211 1366H346V0H211V1366ZM112 1562L488 1757L550 1624L146 1476L112 1562Z"  />
<glyph unicode="&#xCE;" horiz-adv-x="557" d="M211 1366H346V0H211V1366ZM-38 1544L220 1784H340L596 1544L519 1470L281 1681L39 1470L-38 1544Z"  />
<glyph unicode="&#xCF;" horiz-adv-x="557" d="M211 1366H346V0H211V1366ZM454 1527Q420 1527 390 1555T360 1622Q360 1659 389 1687T454 1716Q490 1716 519 1687T548 1622Q548 1585 519 1556T454 1527ZM112 1527Q76 1527 46 1555T16 1622Q16 1659 45 1687T112 1716Q146 1716 175 1688T204 1622Q204 1585 175 1556T112 1527Z"  />
<glyph unicode="&#xD0;" horiz-adv-x="1489" d="M76 752H223V1366H610Q840 1366 1017 1284T1284 1054T1374 705Q1374 487 1271 327T978 84T532 0H223V633H76V752ZM512 113Q859 113 1042 259T1225 684Q1225 952 1056 1102T582 1253H356V752H721V633H356V113H512Z"  />
<glyph unicode="&#xD1;" horiz-adv-x="1530" d="M408 1505Q408 1562 432 1620T504 1709T617 1741Q706 1741 779 1672Q820 1633 846 1618T903 1603Q949 1603 975 1642T1002 1741H1118Q1118 1683 1093 1622T1019 1529T903 1497Q857 1497 819 1513T742 1566Q694 1609 672 1621T621 1634Q577 1634 551 1598T524 1505H408ZM211 1366H344L1188 199V1366H1319V0H1186L342 1149V0H211V1366Z"  />
<glyph unicode="&#xD2;" horiz-adv-x="1624" d="M601 1757L979 1562L945 1476L541 1624L601 1757ZM111 680Q111 876 205 1043T462 1301T823 1391Q1020 1391 1178 1303T1425 1057T1513 709Q1513 513 1420 342T1165 73T805 -25Q614 -25 455 66T204 322T111 680ZM256 694Q256 537 329 395T527 173T811 92Q967 92 1092 170T1291 390T1366 692Q1366 850 1296 984T1099 1196T811 1274Q652 1274 525 1196T327 983T256 694Z"  />
<glyph unicode="&#xD3;" horiz-adv-x="1624" d="M643 1562L1019 1757L1081 1624L677 1476L643 1562ZM111 680Q111 876 205 1043T462 1301T823 1391Q1020 1391 1178 1303T1425 1057T1513 709Q1513 513 1420 342T1165 73T805 -25Q614 -25 455 66T204 322T111 680ZM256 694Q256 537 329 395T527 173T811 92Q967 92 1092 170T1291 390T1366 692Q1366 850 1296 984T1099 1196T811 1274Q652 1274 525 1196T327 983T256 694Z"  />
<glyph unicode="&#xD4;" horiz-adv-x="1624" d="M494 1544L752 1784H872L1128 1544L1051 1470L813 1681L571 1470L494 1544ZM111 680Q111 876 205 1043T462 1301T823 1391Q1020 1391 1178 1303T1425 1057T1513 709Q1513 513 1420 342T1165 73T805 -25Q614 -25 455 66T204 322T111 680ZM256 694Q256 537 329 395T527 173T811 92Q967 92 1092 170T1291 390T1366 692Q1366 850 1296 984T1099 1196T811 1274Q652 1274 525 1196T327 983T256 694Z"  />
<glyph unicode="&#xD5;" horiz-adv-x="1624" d="M111 680Q111 876 205 1043T462 1301T823 1391Q1020 1391 1178 1303T1425 1057T1513 709Q1513 513 1420 342T1165 73T805 -25Q614 -25 455 66T204 322T111 680ZM256 694Q256 537 329 395T527 173T811 92Q967 92 1092 170T1291 390T1366 692Q1366 850 1296 984T1099 1196T811 1274Q652 1274 525 1196T327 983T256 694ZM455 1505Q455 1562 479 1620T551 1709T664 1741Q753 1741 826 1672Q867 1633 893 1618T950 1603Q996 1603 1022 1642T1049 1741H1165Q1165 1683 1140 1622T1066 1529T950 1497Q904 1497 866 1513T789 1566Q741 1609 719 1621T668 1634Q624 1634 598 1598T571 1505H455Z"  />
<glyph unicode="&#xD6;" horiz-adv-x="1624" d="M111 680Q111 876 205 1043T462 1301T823 1391Q1020 1391 1178 1303T1425 1057T1513 709Q1513 513 1420 342T1165 73T805 -25Q614 -25 455 66T204 322T111 680ZM256 694Q256 537 329 395T527 173T811 92Q967 92 1092 170T1291 390T1366 692Q1366 850 1296 984T1099 1196T811 1274Q652 1274 525 1196T327 983T256 694ZM1038 1530Q1002 1530 974 1559T946 1624Q946 1660 975 1688T1038 1716Q1074 1716 1103 1688T1133 1624Q1133 1588 1105 1559T1038 1530ZM586 1530Q549 1530 521 1558T492 1624Q492 1660 521 1688T586 1716Q619 1716 648 1688T678 1624Q678 1588 650 1559T586 1530Z"  />
<glyph unicode="&#xD7;" horiz-adv-x="1065" d="M168 971L532 596L897 971L979 885L614 510L979 137L895 51L532 424L170 51L86 137L449 510L86 885L168 971Z"  />
<glyph unicode="&#xD8;" horiz-adv-x="1624" d="M111 680Q111 876 205 1043T462 1301T823 1391Q1036 1391 1204 1286L1311 1427H1436L1284 1229Q1394 1135 1453 1001T1513 709Q1513 513 1420 342T1165 73T805 -25Q588 -25 418 90L303 -61H176L338 152Q232 247 172 385T111 680ZM1366 692Q1366 811 1324 922T1200 1116L496 195Q635 92 811 92Q967 92 1092 170T1291 390T1366 692ZM256 694Q256 574 299 459T422 260L1122 1182Q987 1274 811 1274Q656 1274 530 1199T330 987T256 694Z"  />
<glyph unicode="&#xD9;" horiz-adv-x="1477" d="M527 1757L905 1562L871 1476L467 1624L527 1757ZM193 1366H326V520Q326 316 434 204T739 92Q934 92 1042 201T1151 506V1366H1284V514Q1284 350 1215 227T1022 40T737 -25Q477 -25 335 107T193 485V1366Z"  />
<glyph unicode="&#xDA;" horiz-adv-x="1477" d="M193 1366H326V520Q326 316 434 204T739 92Q934 92 1042 201T1151 506V1366H1284V514Q1284 350 1215 227T1022 40T737 -25Q477 -25 335 107T193 485V1366ZM570 1562L946 1757L1008 1624L604 1476L570 1562Z"  />
<glyph unicode="&#xDB;" horiz-adv-x="1477" d="M420 1544L678 1784H798L1054 1544L977 1470L739 1681L497 1470L420 1544ZM193 1366H326V520Q326 316 434 204T739 92Q934 92 1042 201T1151 506V1366H1284V514Q1284 350 1215 227T1022 40T737 -25Q477 -25 335 107T193 485V1366Z"  />
<glyph unicode="&#xDC;" horiz-adv-x="1477" d="M193 1366H326V520Q326 316 434 204T739 92Q934 92 1042 201T1151 506V1366H1284V514Q1284 350 1215 227T1022 40T737 -25Q477 -25 335 107T193 485V1366ZM964 1530Q928 1530 900 1559T872 1624Q872 1660 901 1688T964 1716Q1000 1716 1029 1688T1059 1624Q1059 1588 1031 1559T964 1530ZM512 1530Q475 1530 447 1558T418 1624Q418 1660 447 1688T512 1716Q545 1716 574 1688T604 1624Q604 1588 576 1559T512 1530Z"  />
<glyph unicode="&#xDD;" horiz-adv-x="1153" d="M510 602L23 1366H182L580 731L981 1366H1130L645 604V0H510V602ZM424 1562L800 1757L862 1624L458 1476L424 1562Z"  />
<glyph unicode="&#xDE;" horiz-adv-x="1133" d="M211 1366H346V1042H612Q832 1042 947 953T1063 688Q1063 504 945 402T612 299H346V0H211V1366ZM586 412Q756 412 837 477T918 674Q918 930 586 930H346V412H586Z"  />
<glyph unicode="&#xDF;" horiz-adv-x="1135" d="M61 872L207 930V1010Q207 1228 307 1347T584 1466Q683 1466 757 1429T872 1327T913 1188Q913 1137 886 1084T808 970Q753 905 728 854T702 754Q702 693 743 639T883 513Q977 442 1020 378T1063 238Q1063 120 979 48T750 -25Q671 -25 596 -2T467 59L502 178Q556 137 625 112T756 86Q838 86 884 125T930 229Q930 285 889 336T751 459Q660 525 616 592T571 737Q571 849 672 973Q722 1034 747 1084T772 1180Q772 1253 715 1299T573 1346Q459 1346 396 1261T332 1018V0H207V809H61V872Z"  />
<glyph unicode="&#xE0;" horiz-adv-x="944" d="M80 201Q80 340 221 429T637 555V616Q637 707 622 744T572 801T477 821Q409 821 333 795T190 723L145 834Q218 883 317 912T512 942Q647 942 704 874T762 653V217Q762 160 789 128T864 90L817 -14Q743 -2 699 33T643 139L618 108Q574 54 496 15T332 -25Q220 -25 150 37T80 201ZM350 98Q400 98 444 116T529 166T637 270V449Q412 409 316 353T219 209Q219 156 253 127T350 98ZM177 1425H331L537 1083L453 1034L177 1425Z"  />
<glyph unicode="&#xE1;" horiz-adv-x="944" d="M80 201Q80 340 221 429T637 555V616Q637 707 622 744T572 801T477 821Q409 821 333 795T190 723L145 834Q218 883 317 912T512 942Q647 942 704 874T762 653V217Q762 160 789 128T864 90L817 -14Q743 -2 699 33T643 139L618 108Q574 54 496 15T332 -25Q220 -25 150 37T80 201ZM350 98Q400 98 444 116T529 166T637 270V449Q412 409 316 353T219 209Q219 156 253 127T350 98ZM381 1083L586 1425H741L465 1034L381 1083Z"  />
<glyph unicode="&#xE2;" horiz-adv-x="944" d="M80 201Q80 340 221 429T637 555V616Q637 707 622 744T572 801T477 821Q409 821 333 795T190 723L145 834Q218 883 317 912T512 942Q647 942 704 874T762 653V217Q762 160 789 128T864 90L817 -14Q743 -2 699 33T643 139L618 108Q574 54 496 15T332 -25Q220 -25 150 37T80 201ZM350 98Q400 98 444 116T529 166T637 270V449Q412 409 316 353T219 209Q219 156 253 127T350 98ZM186 1081L413 1425H507L734 1081L648 1032L460 1292L272 1032L186 1081Z"  />
<glyph unicode="&#xE3;" horiz-adv-x="944" d="M80 201Q80 340 221 429T637 555V616Q637 707 622 744T572 801T477 821Q409 821 333 795T190 723L145 834Q218 883 317 912T512 942Q647 942 704 874T762 653V217Q762 160 789 128T864 90L817 -14Q743 -2 699 33T643 139L618 108Q574 54 496 15T332 -25Q220 -25 150 37T80 201ZM350 98Q400 98 444 116T529 166T637 270V449Q412 409 316 353T219 209Q219 156 253 127T350 98ZM175 1135Q178 1243 221 1306T339 1370Q419 1370 481 1291Q521 1239 537 1226T575 1212Q606 1212 625 1252T646 1358H741Q738 1247 696 1180T573 1112Q489 1112 432 1192Q402 1235 381 1253T339 1272Q308 1272 290 1233T270 1135H175Z"  />
<glyph unicode="&#xE4;" horiz-adv-x="944" d="M80 201Q80 340 221 429T637 555V616Q637 707 622 744T572 801T477 821Q409 821 333 795T190 723L145 834Q218 883 317 912T512 942Q647 942 704 874T762 653V217Q762 160 789 128T864 90L817 -14Q743 -2 699 33T643 139L618 108Q574 54 496 15T332 -25Q220 -25 150 37T80 201ZM350 98Q400 98 444 116T529 166T637 270V449Q412 409 316 353T219 209Q219 156 253 127T350 98ZM630 1167Q596 1167 566 1195T536 1262Q536 1299 565 1327T630 1356Q666 1356 695 1327T724 1262Q724 1225 695 1196T630 1167ZM288 1167Q252 1167 222 1195T192 1262Q192 1299 221 1327T288 1356Q322 1356 351 1328T380 1262Q380 1225 351 1196T288 1167Z"  />
<glyph unicode="&#xE5;" horiz-adv-x="944" d="M80 201Q80 340 221 429T637 555V616Q637 707 622 744T572 801T477 821Q409 821 333 795T190 723L145 834Q218 883 317 912T512 942Q647 942 704 874T762 653V217Q762 160 789 128T864 90L817 -14Q743 -2 699 33T643 139L618 108Q574 54 496 15T332 -25Q220 -25 150 37T80 201ZM350 98Q400 98 444 116T529 166T637 270V449Q412 409 316 353T219 209Q219 156 253 127T350 98ZM460 1098Q378 1098 328 1144T278 1266Q278 1339 327 1382T460 1425Q544 1425 593 1383T642 1266Q642 1190 592 1144T460 1098ZM460 1174Q507 1174 531 1200T556 1264Q556 1305 532 1328T460 1352Q366 1352 366 1264Q366 1223 390 1199T460 1174Z"  />
<glyph unicode="&#xE6;" horiz-adv-x="1538" d="M145 834Q221 883 319 912T512 942Q621 942 679 905T760 786Q819 859 901 900T1083 942Q1242 942 1340 837T1438 559V553L1354 524L780 451Q786 291 874 193T1100 94Q1174 94 1251 125T1386 207L1440 113Q1376 50 1282 13T1090 -25Q960 -25 862 35T709 207Q661 96 568 36T360 -25Q236 -25 158 38T80 205Q80 479 662 547V596Q662 730 627 775T500 821Q427 821 344 795T190 723L145 834ZM373 94Q499 94 574 185T649 438Q438 406 329 352T219 209Q219 156 258 125T373 94ZM1069 829Q959 829 886 758T788 563L1298 631Q1282 721 1223 775T1069 829Z"  />
<glyph unicode="&#xE7;" horiz-adv-x="926" d="M385 -154Q385 -130 411 -67L432 -14Q281 20 190 146T98 446Q98 583 155 698T315 877T551 942Q635 942 713 915T846 840L780 737Q734 775 670 799T543 823Q452 823 381 777T271 646T231 461Q231 303 319 199T549 94Q617 94 684 121T799 195L846 94Q793 41 708 8T532 -25H522L518 -35Q494 -89 494 -106Q494 -124 508 -137T580 -180Q666 -225 666 -299Q666 -374 602 -430T446 -487Q344 -487 260 -424L301 -328Q327 -352 366 -368T440 -385Q483 -385 516 -365T549 -313Q549 -293 531 -277T467 -241Q422 -221 404 -201T385 -154Z"  />
<glyph unicode="&#xE8;" horiz-adv-x="993" d="M100 434Q100 654 221 798T535 942Q695 942 794 836T893 547L809 522L238 449Q246 283 332 189T557 94Q628 94 705 125T850 211L889 104Q827 45 735 10T549 -25Q414 -25 312 34T155 198T100 434ZM528 829Q419 829 343 758T244 561L754 627Q735 723 676 776T528 829ZM233 1425H387L593 1083L509 1034L233 1425Z"  />
<glyph unicode="&#xE9;" horiz-adv-x="993" d="M436 1083L641 1425H796L520 1034L436 1083ZM100 434Q100 654 221 798T535 942Q695 942 794 836T893 547L809 522L238 449Q246 283 332 189T557 94Q628 94 705 125T850 211L889 104Q827 45 735 10T549 -25Q414 -25 312 34T155 198T100 434ZM528 829Q419 829 343 758T244 561L754 627Q735 723 676 776T528 829Z"  />
<glyph unicode="&#xEA;" horiz-adv-x="993" d="M240 1081L467 1425H561L788 1081L702 1032L514 1292L326 1032L240 1081ZM100 434Q100 654 221 798T535 942Q695 942 794 836T893 547L809 522L238 449Q246 283 332 189T557 94Q628 94 705 125T850 211L889 104Q827 45 735 10T549 -25Q414 -25 312 34T155 198T100 434ZM528 829Q419 829 343 758T244 561L754 627Q735 723 676 776T528 829Z"  />
<glyph unicode="&#xEB;" horiz-adv-x="993" d="M684 1167Q650 1167 620 1195T590 1262Q590 1299 619 1327T684 1356Q720 1356 749 1327T778 1262Q778 1225 749 1196T684 1167ZM342 1167Q306 1167 276 1195T246 1262Q246 1299 275 1327T342 1356Q376 1356 405 1328T434 1262Q434 1225 405 1196T342 1167ZM100 434Q100 654 221 798T535 942Q695 942 794 836T893 547L809 522L238 449Q246 283 332 189T557 94Q628 94 705 125T850 211L889 104Q827 45 735 10T549 -25Q414 -25 312 34T155 198T100 434ZM528 829Q419 829 343 758T244 561L754 627Q735 723 676 776T528 829Z"  />
<glyph unicode="&#xEC;" horiz-adv-x="455" d="M166 918H291V0H166V918ZM-54 1425H100L306 1083L222 1034L-54 1425Z"  />
<glyph unicode="&#xED;" horiz-adv-x="455" d="M153 1083L358 1425H513L237 1034L153 1083ZM166 918H291V0H166V918Z"  />
<glyph unicode="&#xEE;" horiz-adv-x="455" d="M-46 1081L181 1425H275L502 1081L416 1032L228 1292L40 1032L-46 1081ZM166 918H291V0H166V918Z"  />
<glyph unicode="&#xEF;" horiz-adv-x="455" d="M398 1167Q364 1167 334 1195T304 1262Q304 1299 333 1327T398 1356Q434 1356 463 1327T492 1262Q492 1225 463 1196T398 1167ZM56 1167Q20 1167 -10 1195T-40 1262Q-40 1299 -11 1327T56 1356Q90 1356 119 1328T148 1262Q148 1225 119 1196T56 1167ZM166 918H291V0H166V918Z"  />
<glyph unicode="&#xF0;" horiz-adv-x="1098" d="M254 1139L473 1276Q338 1363 182 1409L213 1513Q418 1462 584 1346L866 1522L920 1427L674 1274Q823 1138 900 958T977 571Q977 298 853 137T520 -25Q399 -25 303 39T152 214T98 451Q98 580 158 695T321 876T541 942Q717 942 805 848Q730 1061 563 1204L311 1047L254 1139ZM236 465Q236 367 273 281T377 146T530 96Q682 96 764 221T846 569Q846 691 777 756T575 821Q426 821 331 721T236 465Z"  />
<glyph unicode="&#xF1;" horiz-adv-x="1073" d="M162 905L287 930V743Q398 848 495 895T682 942Q794 942 856 872T918 672V0H793V649Q793 829 657 829Q586 829 484 769T287 614V0H162V905ZM262 1135Q265 1243 308 1306T426 1370Q506 1370 568 1291Q608 1239 624 1226T662 1212Q693 1212 712 1252T733 1358H828Q825 1247 783 1180T660 1112Q576 1112 519 1192Q489 1235 468 1253T426 1272Q395 1272 377 1233T357 1135H262Z"  />
<glyph unicode="&#xF2;" horiz-adv-x="1073" d="M98 463Q98 593 153 703T309 878T535 942Q661 942 762 879T919 706T975 467Q975 336 918 221T761 41T535 -25Q410 -25 310 40T154 219T98 463ZM231 475Q231 368 268 280T375 142T537 92Q674 92 758 193T842 453Q842 619 759 722T535 825Q396 825 314 729T231 475ZM253 1425H407L613 1083L529 1034L253 1425Z"  />
<glyph unicode="&#xF3;" horiz-adv-x="1073" d="M459 1083L664 1425H819L543 1034L459 1083ZM98 463Q98 593 153 703T309 878T535 942Q661 942 762 879T919 706T975 467Q975 336 918 221T761 41T535 -25Q410 -25 310 40T154 219T98 463ZM231 475Q231 368 268 280T375 142T537 92Q674 92 758 193T842 453Q842 619 759 722T535 825Q396 825 314 729T231 475Z"  />
<glyph unicode="&#xF4;" horiz-adv-x="1073" d="M260 1081L487 1425H581L808 1081L722 1032L534 1292L346 1032L260 1081ZM98 463Q98 593 153 703T309 878T535 942Q661 942 762 879T919 706T975 467Q975 336 918 221T761 41T535 -25Q410 -25 310 40T154 219T98 463ZM231 475Q231 368 268 280T375 142T537 92Q674 92 758 193T842 453Q842 619 759 722T535 825Q396 825 314 729T231 475Z"  />
<glyph unicode="&#xF5;" horiz-adv-x="1073" d="M98 463Q98 593 153 703T309 878T535 942Q661 942 762 879T919 706T975 467Q975 336 918 221T761 41T535 -25Q410 -25 310 40T154 219T98 463ZM231 475Q231 368 268 280T375 142T537 92Q674 92 758 193T842 453Q842 619 759 722T535 825Q396 825 314 729T231 475ZM250 1135Q253 1243 296 1306T414 1370Q494 1370 556 1291Q596 1239 612 1226T650 1212Q681 1212 700 1252T721 1358H816Q813 1247 771 1180T648 1112Q564 1112 507 1192Q477 1235 456 1253T414 1272Q383 1272 365 1233T345 1135H250Z"  />
<glyph unicode="&#xF6;" horiz-adv-x="1073" d="M704 1167Q670 1167 640 1195T610 1262Q610 1299 639 1327T704 1356Q740 1356 769 1327T798 1262Q798 1225 769 1196T704 1167ZM362 1167Q326 1167 296 1195T266 1262Q266 1299 295 1327T362 1356Q396 1356 425 1328T454 1262Q454 1225 425 1196T362 1167ZM98 463Q98 593 153 703T309 878T535 942Q661 942 762 879T919 706T975 467Q975 336 918 221T761 41T535 -25Q410 -25 310 40T154 219T98 463ZM231 475Q231 368 268 280T375 142T537 92Q674 92 758 193T842 453Q842 619 759 722T535 825Q396 825 314 729T231 475Z"  />
<glyph unicode="&#xF7;" horiz-adv-x="1065" d="M532 791Q483 791 450 825T416 907Q416 953 449 987T532 1022Q581 1022 615 988T649 907Q649 860 616 826T532 791ZM74 571H991V451H74V571ZM416 117Q416 161 449 196T532 231Q582 231 615 196T649 117Q649 69 615 35T532 0Q483 0 450 34T416 117Z"  />
<glyph unicode="&#xF8;" horiz-adv-x="1073" d="M98 455Q98 582 157 698T316 878T539 942Q673 942 784 866L868 979H989L856 801Q913 735 944 651T975 477Q975 348 914 227T752 40T530 -25Q399 -25 297 47L215 -61H92L223 115Q163 183 131 272T98 455ZM231 473Q231 325 301 219L711 768Q639 821 535 821Q395 821 313 727T231 473ZM842 451Q842 592 778 694L371 145Q439 96 537 96Q674 96 758 193T842 451Z"  />
<glyph unicode="&#xF9;" horiz-adv-x="1057" d="M154 918H278V268Q278 181 312 135T422 88Q488 88 569 130T762 276V918H887V285Q887 169 928 -2L803 -12Q781 79 772 154Q695 73 595 24T401 -25Q154 -25 154 250V918ZM243 1425H397L603 1083L519 1034L243 1425Z"  />
<glyph unicode="&#xFA;" horiz-adv-x="1057" d="M447 1083L652 1425H807L531 1034L447 1083ZM154 918H278V268Q278 181 312 135T422 88Q488 88 569 130T762 276V918H887V285Q887 169 928 -2L803 -12Q781 79 772 154Q695 73 595 24T401 -25Q154 -25 154 250V918Z"  />
<glyph unicode="&#xFB;" horiz-adv-x="1057" d="M250 1081L477 1425H571L798 1081L712 1032L524 1292L336 1032L250 1081ZM154 918H278V268Q278 181 312 135T422 88Q488 88 569 130T762 276V918H887V285Q887 169 928 -2L803 -12Q781 79 772 154Q695 73 595 24T401 -25Q154 -25 154 250V918Z"  />
<glyph unicode="&#xFC;" horiz-adv-x="1057" d="M694 1167Q660 1167 630 1195T600 1262Q600 1299 629 1327T694 1356Q730 1356 759 1327T788 1262Q788 1225 759 1196T694 1167ZM352 1167Q316 1167 286 1195T256 1262Q256 1299 285 1327T352 1356Q386 1356 415 1328T444 1262Q444 1225 415 1196T352 1167ZM154 918H278V268Q278 181 312 135T422 88Q488 88 569 130T762 276V918H887V285Q887 169 928 -2L803 -12Q781 79 772 154Q695 73 595 24T401 -25Q154 -25 154 250V918Z"  />
<glyph unicode="&#xFD;" horiz-adv-x="922" d="M51 -375Q137 -358 203 -288T332 -76L401 82L41 918H178L467 246L745 918H883L461 -70Q393 -231 342 -307T230 -429T92 -485L51 -375ZM396 1083L601 1425H756L480 1034L396 1083Z"  />
<glyph unicode="&#xFE;" horiz-adv-x="1067" d="M166 1436L291 1460V795Q333 864 409 903T575 942Q749 942 858 814T967 481Q967 340 907 223T738 41T494 -25Q355 -25 291 37V-449L166 -473V1436ZM291 227Q291 96 475 96Q643 96 737 196T831 473Q831 632 757 725T567 819Q506 819 453 794T355 730T291 655V227Z"  />
<glyph unicode="&#xFF;" horiz-adv-x="922" d="M51 -375Q137 -358 203 -288T332 -76L401 82L41 918H178L467 246L745 918H883L461 -70Q393 -231 342 -307T230 -429T92 -485L51 -375ZM644 1167Q610 1167 580 1195T550 1262Q550 1299 579 1327T644 1356Q680 1356 709 1327T738 1262Q738 1225 709 1196T644 1167ZM302 1167Q266 1167 236 1195T206 1262Q206 1299 235 1327T302 1356Q336 1356 365 1328T394 1262Q394 1225 365 1196T302 1167Z"  />
<glyph unicode="&#x100;" horiz-adv-x="1255" d="M563 1376H692L1221 0H1077L907 449H342L172 0H35L563 1376ZM385 563H864L625 1194L385 563ZM371 1683H879V1573H371V1683Z"  />
<glyph unicode="&#x101;" horiz-adv-x="944" d="M80 201Q80 340 221 429T637 555V616Q637 707 622 744T572 801T477 821Q409 821 333 795T190 723L145 834Q218 883 317 912T512 942Q647 942 704 874T762 653V217Q762 160 789 128T864 90L817 -14Q743 -2 699 33T643 139L618 108Q574 54 496 15T332 -25Q220 -25 150 37T80 201ZM350 98Q400 98 444 116T529 166T637 270V449Q412 409 316 353T219 209Q219 156 253 127T350 98ZM237 1325H683V1212H237V1325Z"  />
<glyph unicode="&#x102;" horiz-adv-x="1255" d="M563 1376H692L1221 0H1077L907 449H342L172 0H35L563 1376ZM385 563H864L625 1194L385 563ZM625 1478Q489 1478 413 1542T336 1720Q336 1746 340 1773H443L442 1740Q442 1685 459 1654T514 1601T625 1579Q693 1579 732 1600T789 1656T808 1748L807 1773H910Q914 1749 914 1725Q914 1616 835 1547T625 1478Z"  />
<glyph unicode="&#x103;" horiz-adv-x="944" d="M80 201Q80 340 221 429T637 555V616Q637 707 622 744T572 801T477 821Q409 821 333 795T190 723L145 834Q218 883 317 912T512 942Q647 942 704 874T762 653V217Q762 160 789 128T864 90L817 -14Q743 -2 699 33T643 139L618 108Q574 54 496 15T332 -25Q220 -25 150 37T80 201ZM350 98Q400 98 444 116T529 166T637 270V449Q412 409 316 353T219 209Q219 156 253 127T350 98ZM460 1108Q336 1108 267 1179T198 1384V1401L200 1419H304V1403Q304 1206 460 1206Q535 1206 575 1255T616 1403V1419H720V1389Q720 1263 651 1186T460 1108Z"  />
<glyph unicode="&#x104;" horiz-adv-x="1255" d="M563 1376H692L1221 0Q1026 -188 1026 -301Q1026 -377 1119 -377Q1175 -377 1225 -350L1241 -457Q1161 -485 1085 -485Q997 -485 950 -438T903 -311Q903 -250 928 -196T1011 -78L1081 0H1077L907 449H342L172 0H35L563 1376ZM385 563H864L625 1194L385 563Z"  />
<glyph unicode="&#x105;" horiz-adv-x="942" d="M80 201Q80 340 221 429T637 555V616Q637 707 622 744T572 801T477 821Q409 821 333 795T190 723L145 834Q218 883 317 912T512 942Q647 942 704 874T762 653V217Q762 160 789 128T864 90L817 -14Q637 -194 637 -301Q637 -337 660 -357T729 -377Q790 -377 836 -350L852 -457Q772 -485 696 -485Q608 -485 561 -438T514 -311Q514 -249 542 -192T636 -62L713 23Q656 59 643 139L618 108Q574 54 496 15T332 -25Q220 -25 150 37T80 201ZM350 98Q400 98 444 116T529 166T637 270V449Q412 409 316 353T219 209Q219 156 253 127T350 98Z"  />
<glyph unicode="&#x106;" horiz-adv-x="1376" d="M111 678Q111 879 203 1043T461 1299T834 1391Q950 1391 1068 1359T1278 1272L1223 1147Q1139 1205 1032 1240T819 1276Q656 1276 530 1202T331 989T258 686Q258 526 332 388T537 170T827 90Q929 90 1040 129T1237 231L1292 129Q1202 62 1072 19T813 -25Q609 -25 448 68T199 321T111 678ZM596 1562L972 1757L1034 1624L630 1476L596 1562Z"  />
<glyph unicode="&#x107;" horiz-adv-x="926" d="M430 1083L635 1425H790L514 1034L430 1083ZM98 446Q98 583 155 698T315 877T551 942Q635 942 713 915T846 840L780 737Q734 775 670 799T543 823Q452 823 381 777T271 646T231 461Q231 303 319 199T549 94Q617 94 684 121T799 195L846 94Q793 41 708 8T532 -25Q407 -25 308 36T153 206T98 446Z"  />
<glyph unicode="&#x108;" horiz-adv-x="1376" d="M111 678Q111 879 203 1043T461 1299T834 1391Q950 1391 1068 1359T1278 1272L1223 1147Q1139 1205 1032 1240T819 1276Q656 1276 530 1202T331 989T258 686Q258 526 332 388T537 170T827 90Q929 90 1040 129T1237 231L1292 129Q1202 62 1072 19T813 -25Q609 -25 448 68T199 321T111 678ZM447 1544L705 1784H825L1081 1544L1004 1470L766 1681L524 1470L447 1544Z"  />
<glyph unicode="&#x109;" horiz-adv-x="926" d="M233 1081L460 1425H554L781 1081L695 1032L507 1292L319 1032L233 1081ZM98 446Q98 583 155 698T315 877T551 942Q635 942 713 915T846 840L780 737Q734 775 670 799T543 823Q452 823 381 777T271 646T231 461Q231 303 319 199T549 94Q617 94 684 121T799 195L846 94Q793 41 708 8T532 -25Q407 -25 308 36T153 206T98 446Z"  />
<glyph unicode="&#x10A;" horiz-adv-x="1376" d="M764 1528Q727 1528 698 1557T668 1626Q668 1665 698 1694T764 1724Q799 1724 829 1695T860 1626Q860 1587 831 1558T764 1528ZM111 678Q111 879 203 1043T461 1299T834 1391Q950 1391 1068 1359T1278 1272L1223 1147Q1139 1205 1032 1240T819 1276Q656 1276 530 1202T331 989T258 686Q258 526 332 388T537 170T827 90Q929 90 1040 129T1237 231L1292 129Q1202 62 1072 19T813 -25Q609 -25 448 68T199 321T111 678Z"  />
<glyph unicode="&#x10B;" horiz-adv-x="926" d="M98 446Q98 583 155 698T315 877T551 942Q635 942 713 915T846 840L780 737Q734 775 670 799T543 823Q452 823 381 777T271 646T231 461Q231 303 319 199T549 94Q617 94 684 121T799 195L846 94Q793 41 708 8T532 -25Q407 -25 308 36T153 206T98 446ZM507 1161Q471 1161 441 1191T411 1262Q411 1301 441 1330T507 1360Q542 1360 572 1331T603 1262Q603 1223 574 1192T507 1161Z"  />
<glyph unicode="&#x10C;" horiz-adv-x="1376" d="M111 678Q111 879 203 1043T461 1299T834 1391Q950 1391 1068 1359T1278 1272L1223 1147Q1139 1205 1032 1240T819 1276Q656 1276 530 1202T331 989T258 686Q258 526 332 388T537 170T827 90Q929 90 1040 129T1237 231L1292 129Q1202 62 1072 19T813 -25Q609 -25 448 68T199 321T111 678ZM447 1710L524 1784L766 1569L1004 1784L1081 1710L825 1470H707L447 1710Z"  />
<glyph unicode="&#x10D;" horiz-adv-x="926" d="M233 1409L319 1458L507 1196L695 1458L781 1409L554 1065H460L233 1409ZM98 446Q98 583 155 698T315 877T551 942Q635 942 713 915T846 840L780 737Q734 775 670 799T543 823Q452 823 381 777T271 646T231 461Q231 303 319 199T549 94Q617 94 684 121T799 195L846 94Q793 41 708 8T532 -25Q407 -25 308 36T153 206T98 446Z"  />
<glyph unicode="&#x10E;" horiz-adv-x="1477" d="M211 1366H600Q829 1366 1006 1284T1272 1054T1362 705Q1362 487 1260 328T969 84T522 0H211V1366ZM502 113Q851 113 1034 260T1217 684Q1217 953 1047 1103T571 1253H346V113H502ZM410 1710L487 1784L729 1569L967 1784L1044 1710L788 1470H670L410 1710Z"  />
<glyph unicode="&#x10F;" horiz-adv-x="1085" d="M1259 1530L1140 1131H1063L1114 1509L1259 1530ZM100 428Q100 572 163 690T340 875T604 942Q703 942 771 917L791 909V1436L915 1460V285Q915 171 956 0L827 -14L799 139Q751 61 669 18T492 -25Q380 -25 290 33T150 196T100 428ZM504 96Q580 96 652 138T791 283V680Q791 827 604 827Q437 827 337 721T236 438Q236 283 311 190T504 96Z"  />
<glyph unicode="&#x110;" horiz-adv-x="1489" d="M76 752H223V1366H610Q840 1366 1017 1284T1284 1054T1374 705Q1374 487 1271 327T978 84T532 0H223V633H76V752ZM512 113Q859 113 1042 259T1225 684Q1225 952 1056 1102T582 1253H356V752H721V633H356V113H512Z"  />
<glyph unicode="&#x111;" horiz-adv-x="1085" d="M461 1165H791V1436L915 1460V1165H1032V1079H915V285Q915 171 956 0L827 -14L799 139Q751 61 669 18T492 -25Q380 -25 290 33T150 196T100 428Q100 572 163 690T340 875T604 942Q703 942 771 917L791 909V1079H461V1165ZM504 96Q580 96 652 138T791 283V680Q791 827 604 827Q437 827 337 721T236 438Q236 283 311 190T504 96Z"  />
<glyph unicode="&#x112;" horiz-adv-x="1104" d="M211 1366H995V1253H346V756H860V643H346V113H987V0H211V1366ZM362 1683H870V1573H362V1683Z"  />
<glyph unicode="&#x113;" horiz-adv-x="993" d="M100 434Q100 654 221 798T535 942Q695 942 794 836T893 547L809 522L238 449Q246 283 332 189T557 94Q628 94 705 125T850 211L889 104Q827 45 735 10T549 -25Q414 -25 312 34T155 198T100 434ZM528 829Q419 829 343 758T244 561L754 627Q735 723 676 776T528 829ZM291 1325H737V1212H291V1325Z"  />
<glyph unicode="&#x114;" horiz-adv-x="1104" d="M211 1366H995V1253H346V756H860V643H346V113H987V0H211V1366ZM616 1478Q480 1478 404 1542T327 1720Q327 1746 331 1773H434L433 1740Q433 1685 450 1654T505 1601T616 1579Q684 1579 723 1600T780 1656T799 1748L798 1773H901Q905 1749 905 1725Q905 1616 826 1547T616 1478Z"  />
<glyph unicode="&#x115;" horiz-adv-x="993" d="M100 434Q100 654 221 798T535 942Q695 942 794 836T893 547L809 522L238 449Q246 283 332 189T557 94Q628 94 705 125T850 211L889 104Q827 45 735 10T549 -25Q414 -25 312 34T155 198T100 434ZM528 829Q419 829 343 758T244 561L754 627Q735 723 676 776T528 829ZM514 1108Q390 1108 321 1179T252 1384V1401L254 1419H358V1403Q358 1206 514 1206Q589 1206 629 1255T670 1403V1419H774V1389Q774 1263 705 1186T514 1108Z"  />
<glyph unicode="&#x116;" horiz-adv-x="1104" d="M616 1528Q579 1528 550 1557T520 1626Q520 1665 550 1694T616 1724Q651 1724 681 1695T712 1626Q712 1587 683 1558T616 1528ZM211 1366H995V1253H346V756H860V643H346V113H987V0H211V1366Z"  />
<glyph unicode="&#x117;" horiz-adv-x="993" d="M100 434Q100 654 221 798T535 942Q695 942 794 836T893 547L809 522L238 449Q246 283 332 189T557 94Q628 94 705 125T850 211L889 104Q827 45 735 10T549 -25Q414 -25 312 34T155 198T100 434ZM528 829Q419 829 343 758T244 561L754 627Q735 723 676 776T528 829ZM514 1161Q478 1161 448 1191T418 1262Q418 1301 448 1330T514 1360Q549 1360 579 1331T610 1262Q610 1223 581 1192T514 1161Z"  />
<glyph unicode="&#x118;" horiz-adv-x="1104" d="M211 1366H995V1253H346V756H860V643H346V113H987V0Q795 -192 795 -301Q795 -377 888 -377Q943 -377 993 -350L1008 -457Q927 -485 852 -485Q764 -485 717 -438T670 -311Q670 -252 696 -197T779 -78L848 0H211V1366Z"  />
<glyph unicode="&#x119;" horiz-adv-x="999" d="M102 434Q102 654 223 798T537 942Q697 942 796 836T895 547L811 522L240 449Q248 283 334 189T559 94Q630 94 707 125T852 211L891 104Q840 62 797 37Q740 -10 680 -77T592 -199T563 -297Q563 -334 586 -355T653 -377Q696 -377 762 -350L776 -457Q699 -485 633 -485Q540 -485 489 -438T438 -305Q438 -264 451 -228T488 -155T596 -23L551 -25Q416 -25 314 34T157 198T102 434ZM530 829Q421 829 345 758T246 561L756 627Q737 723 678 776T530 829Z"  />
<glyph unicode="&#x11A;" horiz-adv-x="1104" d="M211 1366H995V1253H346V756H860V643H346V113H987V0H211V1366ZM299 1710L376 1784L618 1569L856 1784L933 1710L677 1470H559L299 1710Z"  />
<glyph unicode="&#x11B;" horiz-adv-x="993" d="M240 1409L326 1458L514 1196L702 1458L788 1409L561 1065H467L240 1409ZM100 434Q100 654 221 798T535 942Q695 942 794 836T893 547L809 522L238 449Q246 283 332 189T557 94Q628 94 705 125T850 211L889 104Q827 45 735 10T549 -25Q414 -25 312 34T155 198T100 434ZM528 829Q419 829 343 758T244 561L754 627Q735 723 676 776T528 829Z"  />
<glyph unicode="&#x11C;" horiz-adv-x="1423" d="M437 1544L695 1784H815L1071 1544L994 1470L756 1681L514 1470L437 1544ZM111 666Q111 869 202 1036T457 1297T834 1391Q954 1391 1073 1363T1284 1288L1229 1161Q1140 1215 1034 1245T823 1276Q654 1276 525 1198T326 983T256 678Q256 508 332 373T547 164T868 90Q1006 90 1143 131V571H844V684H1278V39Q1029 -25 842 -25Q635 -25 467 61T205 306T111 666Z"  />
<glyph unicode="&#x11D;" horiz-adv-x="1018" d="M212 1081L439 1425H533L760 1081L674 1032L486 1292L298 1032L212 1081ZM156 172Q156 205 184 240T291 328Q209 371 163 448T117 621Q117 764 223 853T483 942Q542 942 620 923Q698 903 750 903H840Q904 903 961 924L975 795H810L780 797Q848 718 848 602Q848 509 798 438T659 326T471 285Q419 285 389 293Q336 255 318 235T299 199Q299 174 342 156T567 102Q725 70 790 40T892 -35T928 -147Q928 -237 862 -315T684 -439T444 -485Q280 -485 172 -417T63 -236Q63 -156 121 -86T309 45Q241 65 199 95T156 172ZM428 18Q314 -43 272 -75T207 -144T184 -221Q184 -294 260 -338T459 -383Q545 -383 622 -353T746 -271T793 -164Q793 -109 743 -72T565 -8L428 18ZM483 389Q587 389 650 444T713 592Q713 657 684 714T601 805T477 838Q377 838 316 775T254 612Q254 511 316 450T483 389Z"  />
<glyph unicode="&#x11E;" horiz-adv-x="1423" d="M111 666Q111 869 202 1036T457 1297T834 1391Q954 1391 1073 1363T1284 1288L1229 1161Q1140 1215 1034 1245T823 1276Q654 1276 525 1198T326 983T256 678Q256 508 332 373T547 164T868 90Q1006 90 1143 131V571H844V684H1278V39Q1029 -25 842 -25Q635 -25 467 61T205 306T111 666ZM754 1478Q618 1478 542 1542T465 1720Q465 1746 469 1773H572L571 1740Q571 1685 588 1654T643 1601T754 1579Q822 1579 861 1600T918 1656T937 1748L936 1773H1039Q1043 1749 1043 1725Q1043 1616 964 1547T754 1478Z"  />
<glyph unicode="&#x11F;" horiz-adv-x="1018" d="M156 172Q156 205 184 240T291 328Q209 371 163 448T117 621Q117 764 223 853T483 942Q542 942 620 923Q698 903 750 903H840Q904 903 961 924L975 795H810L780 797Q848 718 848 602Q848 509 798 438T659 326T471 285Q419 285 389 293Q336 255 318 235T299 199Q299 174 342 156T567 102Q725 70 790 40T892 -35T928 -147Q928 -237 862 -315T684 -439T444 -485Q280 -485 172 -417T63 -236Q63 -156 121 -86T309 45Q241 65 199 95T156 172ZM428 18Q314 -43 272 -75T207 -144T184 -221Q184 -294 260 -338T459 -383Q545 -383 622 -353T746 -271T793 -164Q793 -109 743 -72T565 -8L428 18ZM483 389Q587 389 650 444T713 592Q713 657 684 714T601 805T477 838Q377 838 316 775T254 612Q254 511 316 450T483 389ZM486 1108Q362 1108 293 1179T224 1384V1401L226 1419H330V1403Q330 1206 486 1206Q561 1206 601 1255T642 1403V1419H746V1389Q746 1263 677 1186T486 1108Z"  />
<glyph unicode="&#x120;" horiz-adv-x="1423" d="M754 1528Q717 1528 688 1557T658 1626Q658 1665 688 1694T754 1724Q789 1724 819 1695T850 1626Q850 1587 821 1558T754 1528ZM111 666Q111 869 202 1036T457 1297T834 1391Q954 1391 1073 1363T1284 1288L1229 1161Q1140 1215 1034 1245T823 1276Q654 1276 525 1198T326 983T256 678Q256 508 332 373T547 164T868 90Q1006 90 1143 131V571H844V684H1278V39Q1029 -25 842 -25Q635 -25 467 61T205 306T111 666Z"  />
<glyph unicode="&#x121;" horiz-adv-x="1018" d="M156 172Q156 205 184 240T291 328Q209 371 163 448T117 621Q117 764 223 853T483 942Q542 942 620 923Q698 903 750 903H840Q904 903 961 924L975 795H810L780 797Q848 718 848 602Q848 509 798 438T659 326T471 285Q419 285 389 293Q336 255 318 235T299 199Q299 174 342 156T567 102Q725 70 790 40T892 -35T928 -147Q928 -237 862 -315T684 -439T444 -485Q280 -485 172 -417T63 -236Q63 -156 121 -86T309 45Q241 65 199 95T156 172ZM428 18Q314 -43 272 -75T207 -144T184 -221Q184 -294 260 -338T459 -383Q545 -383 622 -353T746 -271T793 -164Q793 -109 743 -72T565 -8L428 18ZM483 389Q587 389 650 444T713 592Q713 657 684 714T601 805T477 838Q377 838 316 775T254 612Q254 511 316 450T483 389ZM486 1161Q450 1161 420 1191T390 1262Q390 1301 420 1330T486 1360Q521 1360 551 1331T582 1262Q582 1223 553 1192T486 1161Z"  />
<glyph unicode="&#x122;" horiz-adv-x="1423" d="M851 -100Q874 -126 887 -165T901 -242Q901 -320 860 -385T743 -494L673 -418Q730 -393 754 -350T778 -258Q778 -172 706 -100H851ZM111 666Q111 869 202 1036T457 1297T834 1391Q954 1391 1073 1363T1284 1288L1229 1161Q1140 1215 1034 1245T823 1276Q654 1276 525 1198T326 983T256 678Q256 508 332 373T547 164T868 90Q1006 90 1143 131V571H844V684H1278V39Q1029 -25 842 -25Q635 -25 467 61T205 306T111 666Z"  />
<glyph unicode="&#x123;" horiz-adv-x="1018" d="M418 1028Q395 1054 382 1092T368 1169Q368 1247 409 1312T526 1421L596 1345Q539 1320 515 1277T491 1185Q491 1099 563 1028H418ZM156 172Q156 205 184 240T291 328Q209 371 163 448T117 621Q117 764 223 853T483 942Q542 942 620 923Q698 903 750 903H840Q904 903 961 924L975 795H810L780 797Q848 718 848 602Q848 509 798 438T659 326T471 285Q419 285 389 293Q336 255 318 235T299 199Q299 174 342 156T567 102Q725 70 790 40T892 -35T928 -147Q928 -237 862 -315T684 -439T444 -485Q280 -485 172 -417T63 -236Q63 -156 121 -86T309 45Q241 65 199 95T156 172ZM428 18Q314 -43 272 -75T207 -144T184 -221Q184 -294 260 -338T459 -383Q545 -383 622 -353T746 -271T793 -164Q793 -109 743 -72T565 -8L428 18ZM483 389Q587 389 650 444T713 592Q713 657 684 714T601 805T477 838Q377 838 316 775T254 612Q254 511 316 450T483 389Z"  />
<glyph unicode="&#x124;" horiz-adv-x="1538" d="M211 1366H346V754H1192V1366H1327V0H1192V641H346V0H211V1366ZM451 1544L709 1784H829L1085 1544L1008 1470L770 1681L528 1470L451 1544Z"  />
<glyph unicode="&#x125;" horiz-adv-x="1075" d="M-46 1566L181 1910H275L502 1566L416 1517L228 1777L40 1517L-46 1566ZM166 1436L291 1460V750Q392 847 493 894T682 942Q797 942 858 872T920 672V0H795V649Q795 829 657 829Q589 829 487 770T291 621V0H166V1436Z"  />
<glyph unicode="&#x126;" horiz-adv-x="1550" d="M45 1069H217V1366H352V1069H1198V1366H1333V1069H1505V983H1333V0H1198V641H352V0H217V983H45V1069ZM1198 754V983H352V754H1198Z"  />
<glyph unicode="&#x127;" horiz-adv-x="1075" d="M35 1165H166V1436L291 1460V1165H606V1079H291V750Q392 847 493 894T682 942Q797 942 858 872T920 672V0H795V649Q795 829 657 829Q589 829 487 770T291 621V0H166V1079H35V1165Z"  />
<glyph unicode="&#x128;" horiz-adv-x="557" d="M211 1366H346V0H211V1366ZM-77 1505Q-77 1562 -53 1620T19 1709T132 1741Q221 1741 294 1672Q335 1633 361 1618T418 1603Q464 1603 490 1642T517 1741H633Q633 1683 608 1622T534 1529T418 1497Q372 1497 334 1513T257 1566Q209 1609 187 1621T136 1634Q92 1634 66 1598T39 1505H-77Z"  />
<glyph unicode="&#x129;" horiz-adv-x="455" d="M166 918H291V0H166V918ZM-57 1135Q-54 1243 -11 1306T107 1370Q187 1370 249 1291Q289 1239 305 1226T343 1212Q374 1212 393 1252T414 1358H509Q506 1247 464 1180T341 1112Q257 1112 200 1192Q170 1235 149 1253T107 1272Q76 1272 58 1233T38 1135H-57Z"  />
<glyph unicode="&#x12A;" horiz-adv-x="557" d="M211 1366H346V0H211V1366ZM25 1683H533V1573H25V1683Z"  />
<glyph unicode="&#x12B;" horiz-adv-x="455" d="M166 918H291V0H166V918ZM5 1325H451V1212H5V1325Z"  />
<glyph unicode="&#x12E;" horiz-adv-x="557" d="M27 -311Q27 -251 53 -196T140 -74L211 6V1366H346V0Q254 -89 203 -167T152 -301Q152 -377 245 -377Q300 -377 350 -350L367 -457Q283 -485 211 -485Q121 -485 74 -438T27 -311Z"  />
<glyph unicode="&#x12F;" horiz-adv-x="455" d="M-29 -311Q-29 -251 -2 -195T91 -68L166 14V918H291V0Q96 -188 96 -301Q96 -377 189 -377Q245 -377 295 -350L311 -457Q230 -485 156 -485Q68 -485 20 -438T-29 -311ZM231 1161Q191 1161 162 1191T133 1262Q133 1301 162 1330T231 1360Q271 1360 299 1330T328 1262Q328 1223 300 1192T231 1161Z"  />
<glyph unicode="&#x130;" horiz-adv-x="557" d="M211 1366H346V0H211V1366ZM279 1528Q242 1528 213 1557T183 1626Q183 1665 213 1694T279 1724Q314 1724 344 1695T375 1626Q375 1587 346 1558T279 1528Z"  />
<glyph unicode="&#x131;" horiz-adv-x="455" d="M166 918H291V0H166V918Z"  />
<glyph unicode="&#x132;" horiz-adv-x="1116" d="M211 1366H346V0H211V1366ZM541 -252Q651 -239 710 -141T770 127V1366H905V127Q905 -75 824 -205T600 -358L541 -252Z"  />
<glyph unicode="&#x133;" horiz-adv-x="911" d="M231 1161Q191 1161 162 1191T133 1262Q133 1301 162 1330T231 1360Q271 1360 299 1330T328 1262Q328 1223 300 1192T231 1161ZM166 918H291V0H166V918ZM684 1161Q644 1161 615 1191T586 1262Q586 1301 615 1330T684 1360Q724 1360 752 1330T781 1262Q781 1223 753 1192T684 1161ZM621 918H746V6Q746 -224 675 -341T449 -485L408 -375Q520 -351 570 -266T621 -33V918Z"  />
<glyph unicode="&#x134;" horiz-adv-x="559" d="M-16 -252Q94 -239 153 -141T213 127V1366H348V127Q348 -75 267 -205T43 -358L-16 -252ZM-35 1544L223 1784H343L599 1544L522 1470L284 1681L42 1470L-35 1544Z"  />
<glyph unicode="&#x135;" horiz-adv-x="455" d="M166 918H291V6Q291 -224 220 -341T-6 -485L-47 -375Q65 -351 115 -266T166 -33V918ZM-43 1081L184 1425H279L506 1081L420 1032L231 1292L43 1032L-43 1081Z"  />
<glyph unicode="&#x136;" horiz-adv-x="1151" d="M692 -100Q715 -126 728 -165T742 -242Q742 -320 701 -385T584 -494L514 -418Q571 -393 595 -350T619 -258Q619 -172 547 -100H692ZM211 1366H346V772H371L948 1366H1120L487 725L1145 0H963L371 659H346V0H211V1366Z"  />
<glyph unicode="&#x137;" horiz-adv-x="926" d="M547 -100Q570 -126 583 -165T597 -242Q597 -320 556 -385T439 -494L369 -418Q426 -393 450 -350T474 -258Q474 -172 402 -100H547ZM166 1436L291 1460V551H309L696 918H868L426 510L915 0H743L311 457H291V0H166V1436Z"  />
<glyph unicode="&#x139;" d="M112 1562L488 1757L550 1624L146 1476L112 1562ZM211 1366H346V113H1014V0H211V1366Z"  />
<glyph unicode="&#x13A;" horiz-adv-x="455" d="M153 1568L358 1910H513L237 1519L153 1568ZM166 1436L291 1460V0H166V1436Z"  />
<glyph unicode="&#x13B;" d="M665 -100Q688 -126 701 -165T715 -242Q715 -320 674 -385T557 -494L487 -418Q544 -393 568 -350T592 -258Q592 -172 520 -100H665ZM211 1366H346V113H1014V0H211V1366Z"  />
<glyph unicode="&#x13C;" horiz-adv-x="455" d="M289 -100Q312 -126 325 -165T339 -242Q339 -320 298 -385T181 -494L111 -418Q168 -393 192 -350T216 -258Q216 -172 144 -100H289ZM166 1436L291 1460V0H166V1436Z"  />
<glyph unicode="&#x13D;" horiz-adv-x="1049" d="M729 1532L610 1133H533L584 1511L729 1532ZM211 1366H346V113H1014V0H211V1366Z"  />
<glyph unicode="&#x13E;" horiz-adv-x="455" d="M635 1532L516 1133H439L490 1511L635 1532ZM166 1436L291 1460V0H166V1436Z"  />
<glyph unicode="&#x13F;" horiz-adv-x="1096" d="M211 1366H346V113H1014V0H211V1366ZM838 617Q791 617 759 650T727 727Q727 770 759 803T838 836Q882 836 914 804T946 727Q946 681 914 649T838 617Z"  />
<glyph unicode="&#x140;" horiz-adv-x="762" d="M166 1436L291 1460V0H166V1436ZM606 617Q559 617 527 650T495 727Q495 770 527 803T606 836Q650 836 682 804T714 727Q714 681 682 649T606 617Z"  />
<glyph unicode="&#x141;" horiz-adv-x="1065" d="M47 633L231 750V1366H365V834L672 1028V903L365 709V113H1034V0H231V625L47 508V633Z"  />
<glyph unicode="&#x142;" horiz-adv-x="502" d="M25 633L193 739V1436L317 1460V817L487 926V801L317 692V0H193V614L25 508V633Z"  />
<glyph unicode="&#x143;" horiz-adv-x="1530" d="M596 1562L972 1757L1034 1624L630 1476L596 1562ZM211 1366H344L1188 199V1366H1319V0H1186L342 1149V0H211V1366Z"  />
<glyph unicode="&#x144;" horiz-adv-x="1073" d="M471 1083L676 1425H831L555 1034L471 1083ZM162 905L287 930V743Q398 848 495 895T682 942Q794 942 856 872T918 672V0H793V649Q793 829 657 829Q586 829 484 769T287 614V0H162V905Z"  />
<glyph unicode="&#x145;" horiz-adv-x="1530" d="M825 -100Q848 -126 861 -165T875 -242Q875 -320 834 -385T717 -494L647 -418Q704 -393 728 -350T752 -258Q752 -172 680 -100H825ZM211 1366H344L1188 199V1366H1319V0H1186L342 1149V0H211V1366Z"  />
<glyph unicode="&#x146;" horiz-adv-x="1073" d="M598 -100Q621 -126 634 -165T648 -242Q648 -320 607 -385T490 -494L420 -418Q477 -393 501 -350T525 -258Q525 -172 453 -100H598ZM162 905L287 930V743Q398 848 495 895T682 942Q794 942 856 872T918 672V0H793V649Q793 829 657 829Q586 829 484 769T287 614V0H162V905Z"  />
<glyph unicode="&#x147;" horiz-adv-x="1530" d="M211 1366H344L1188 199V1366H1319V0H1186L342 1149V0H211V1366ZM447 1710L524 1784L766 1569L1004 1784L1081 1710L825 1470H707L447 1710Z"  />
<glyph unicode="&#x148;" horiz-adv-x="1073" d="M273 1409L359 1458L547 1196L735 1458L821 1409L594 1065H500L273 1409ZM162 905L287 930V743Q398 848 495 895T682 942Q794 942 856 872T918 672V0H793V649Q793 829 657 829Q586 829 484 769T287 614V0H162V905Z"  />
<glyph unicode="&#x149;" horiz-adv-x="1073" d="M236 1497Q259 1471 272 1432T286 1355Q286 1277 245 1212T128 1103L58 1179Q115 1204 139 1247T163 1339Q163 1425 91 1497H236ZM162 905L287 930V743Q398 848 495 895T682 942Q794 942 856 872T918 672V0H793V649Q793 829 657 829Q586 829 484 769T287 614V0H162V905Z"  />
<glyph unicode="&#x14C;" horiz-adv-x="1624" d="M111 680Q111 876 205 1043T462 1301T823 1391Q1020 1391 1178 1303T1425 1057T1513 709Q1513 513 1420 342T1165 73T805 -25Q614 -25 455 66T204 322T111 680ZM256 694Q256 537 329 395T527 173T811 92Q967 92 1092 170T1291 390T1366 692Q1366 850 1296 984T1099 1196T811 1274Q652 1274 525 1196T327 983T256 694ZM557 1683H1065V1573H557V1683Z"  />
<glyph unicode="&#x14D;" horiz-adv-x="1073" d="M311 1325H757V1212H311V1325ZM98 463Q98 593 153 703T309 878T535 942Q661 942 762 879T919 706T975 467Q975 336 918 221T761 41T535 -25Q410 -25 310 40T154 219T98 463ZM231 475Q231 368 268 280T375 142T537 92Q674 92 758 193T842 453Q842 619 759 722T535 825Q396 825 314 729T231 475Z"  />
<glyph unicode="&#x14E;" horiz-adv-x="1624" d="M111 680Q111 876 205 1043T462 1301T823 1391Q1020 1391 1178 1303T1425 1057T1513 709Q1513 513 1420 342T1165 73T805 -25Q614 -25 455 66T204 322T111 680ZM256 694Q256 537 329 395T527 173T811 92Q967 92 1092 170T1291 390T1366 692Q1366 850 1296 984T1099 1196T811 1274Q652 1274 525 1196T327 983T256 694ZM811 1478Q675 1478 599 1542T522 1720Q522 1746 526 1773H629L628 1740Q628 1685 645 1654T700 1601T811 1579Q879 1579 918 1600T975 1656T994 1748L993 1773H1096Q1100 1749 1100 1725Q1100 1616 1021 1547T811 1478Z"  />
<glyph unicode="&#x14F;" horiz-adv-x="1073" d="M98 463Q98 593 153 703T309 878T535 942Q661 942 762 879T919 706T975 467Q975 336 918 221T761 41T535 -25Q410 -25 310 40T154 219T98 463ZM231 475Q231 368 268 280T375 142T537 92Q674 92 758 193T842 453Q842 619 759 722T535 825Q396 825 314 729T231 475ZM534 1108Q410 1108 341 1179T272 1384V1401L274 1419H378V1403Q378 1206 534 1206Q609 1206 649 1255T690 1403V1419H794V1389Q794 1263 725 1186T534 1108Z"  />
<glyph unicode="&#x150;" horiz-adv-x="1624" d="M895 1528L1079 1777H1235L985 1478L895 1528ZM563 1528L729 1777H887L655 1478L563 1528ZM111 680Q111 876 205 1043T462 1301T823 1391Q1020 1391 1178 1303T1425 1057T1513 709Q1513 513 1420 342T1165 73T805 -25Q614 -25 455 66T204 322T111 680ZM256 694Q256 537 329 395T527 173T811 92Q967 92 1092 170T1291 390T1366 692Q1366 850 1296 984T1099 1196T811 1274Q652 1274 525 1196T327 983T256 694Z"  />
<glyph unicode="&#x151;" horiz-adv-x="1073" d="M604 1083L815 1425H960L686 1034L604 1083ZM309 1083L516 1425H663L391 1034L309 1083ZM98 463Q98 593 153 703T309 878T535 942Q661 942 762 879T919 706T975 467Q975 336 918 221T761 41T535 -25Q410 -25 310 40T154 219T98 463ZM231 475Q231 368 268 280T375 142T537 92Q674 92 758 193T842 453Q842 619 759 722T535 825Q396 825 314 729T231 475Z"  />
<glyph unicode="&#x152;" horiz-adv-x="2003" d="M111 680Q111 888 207 1053T470 1305T856 1391Q970 1391 1112 1366H1894V1253H1243V756H1759V643H1243V113H1886V0H1110Q952 -25 840 -25Q626 -25 460 65T202 317T111 680ZM256 694Q256 522 335 378T548 163T852 92Q988 92 1110 111V1245Q997 1274 840 1274Q664 1274 532 1199T328 990T256 694Z"  />
<glyph unicode="&#x153;" horiz-adv-x="1737" d="M98 453Q98 588 153 701T307 878T539 942Q660 942 759 886T918 729Q973 828 1064 885T1274 942Q1438 942 1537 836T1636 547L1552 522L973 446Q981 284 1068 189T1296 94Q1371 94 1448 125T1583 207L1636 113Q1574 51 1479 13T1286 -25Q1161 -25 1060 32T903 193Q841 87 743 31T530 -25Q405 -25 306 39T153 213T98 453ZM231 465Q231 301 317 197T543 92Q676 92 759 192T842 455Q842 561 806 646T701 778T539 825Q401 825 316 725T231 465ZM1264 829Q1154 829 1078 757T979 559L1495 627Q1480 722 1419 775T1264 829Z"  />
<glyph unicode="&#x154;" horiz-adv-x="1190" d="M211 1366H537Q762 1366 890 1271T1018 1006Q1018 886 941 785T719 621L1143 0H983L573 596H346V0H211V1366ZM584 711Q651 711 719 747T828 846T870 989Q870 1112 776 1182T510 1253H346V711H584ZM443 1562L819 1757L881 1624L477 1476L443 1562Z"  />
<glyph unicode="&#x155;" horiz-adv-x="662" d="M325 1083L530 1425H685L409 1034L325 1083ZM162 905L287 930V745Q341 840 412 891T555 942Q603 942 635 924L596 786L573 793Q544 801 520 801Q404 801 287 592V0H162V905Z"  />
<glyph unicode="&#x156;" horiz-adv-x="1186" d="M688 -100Q711 -126 724 -165T738 -242Q738 -320 697 -385T580 -494L510 -418Q567 -393 591 -350T615 -258Q615 -172 543 -100H688ZM211 1366H537Q762 1366 890 1271T1018 1006Q1018 886 941 785T719 621L1143 0H983L573 596H346V0H211V1366ZM584 711Q651 711 719 747T828 846T870 989Q870 1112 776 1182T510 1253H346V711H584Z"  />
<glyph unicode="&#x157;" horiz-adv-x="662" d="M289 -100Q312 -126 325 -165T339 -242Q339 -320 298 -385T181 -494L111 -418Q168 -393 192 -350T216 -258Q216 -172 144 -100H289ZM162 905L287 930V745Q341 840 412 891T555 942Q603 942 635 924L596 786L573 793Q544 801 520 801Q404 801 287 592V0H162V905Z"  />
<glyph unicode="&#x158;" horiz-adv-x="1190" d="M211 1366H537Q762 1366 890 1271T1018 1006Q1018 886 941 785T719 621L1143 0H983L573 596H346V0H211V1366ZM584 711Q651 711 719 747T828 846T870 989Q870 1112 776 1182T510 1253H346V711H584ZM293 1710L370 1784L612 1569L850 1784L927 1710L671 1470H553L293 1710Z"  />
<glyph unicode="&#x159;" horiz-adv-x="662" d="M126 1409L212 1458L400 1196L588 1458L674 1409L447 1065H353L126 1409ZM162 905L287 930V745Q341 840 412 891T555 942Q603 942 635 924L596 786L573 793Q544 801 520 801Q404 801 287 592V0H162V905Z"  />
<glyph unicode="&#x15A;" horiz-adv-x="1038" d="M139 221Q214 166 313 132T502 96Q634 96 714 155T795 313Q795 376 767 424T692 510T585 582T463 648T341 719T235 802T160 908T131 1047Q131 1202 249 1296T565 1391Q640 1391 732 1374T905 1329L862 1200Q700 1270 557 1270Q423 1270 345 1215T266 1063Q266 998 294 950T369 864T476 793T598 727T720 658T826 574T901 466T930 324Q930 162 811 69T492 -25Q387 -25 284 5T104 90L139 221ZM371 1562L747 1757L809 1624L405 1476L371 1562Z"  />
<glyph unicode="&#x15B;" horiz-adv-x="791" d="M329 1083L534 1425H689L413 1034L329 1083ZM121 174Q178 134 248 110T387 86Q477 86 523 123T569 223Q569 275 534 316T424 393Q258 472 220 499T158 558T122 623T111 700Q111 812 193 877T428 942Q567 942 676 891L637 782Q509 831 412 831Q324 831 282 797T240 711Q240 661 275 623T385 549L469 509Q602 445 650 381T698 231Q698 113 611 44T377 -25Q296 -25 221 -3T92 57L121 174Z"  />
<glyph unicode="&#x15C;" horiz-adv-x="1038" d="M139 221Q214 166 313 132T502 96Q634 96 714 155T795 313Q795 376 767 424T692 510T585 582T463 648T341 719T235 802T160 908T131 1047Q131 1202 249 1296T565 1391Q640 1391 732 1374T905 1329L862 1200Q700 1270 557 1270Q423 1270 345 1215T266 1063Q266 998 294 950T369 864T476 793T598 727T720 658T826 574T901 466T930 324Q930 162 811 69T492 -25Q387 -25 284 5T104 90L139 221ZM222 1544L480 1784H600L856 1544L779 1470L541 1681L299 1470L222 1544Z"  />
<glyph unicode="&#x15D;" horiz-adv-x="791" d="M132 1081L359 1425H453L680 1081L594 1032L406 1292L218 1032L132 1081ZM121 174Q178 134 248 110T387 86Q477 86 523 123T569 223Q569 275 534 316T424 393Q258 472 220 499T158 558T122 623T111 700Q111 812 193 877T428 942Q567 942 676 891L637 782Q509 831 412 831Q324 831 282 797T240 711Q240 661 275 623T385 549L469 509Q602 445 650 381T698 231Q698 113 611 44T377 -25Q296 -25 221 -3T92 57L121 174Z"  />
<glyph unicode="&#x15E;" horiz-adv-x="1042" d="M414 -152Q414 -122 440 -65L457 -23Q364 -18 270 12T106 90L141 221Q216 166 315 132T504 96Q636 96 716 155T797 313Q797 376 769 424T694 510T587 582T465 648T343 719T237 802T162 908T133 1047Q133 1202 251 1296T567 1391Q642 1391 734 1374T907 1329L864 1200Q702 1270 559 1270Q425 1270 347 1215T268 1063Q268 998 296 950T371 864T478 793T600 727T722 658T828 574T903 466T932 324Q932 177 831 85T551 -23L547 -33Q522 -89 522 -104Q522 -122 536 -135T608 -178Q694 -223 694 -297Q694 -371 630 -428T475 -485Q373 -485 289 -422L330 -326Q357 -350 395 -366T469 -383Q512 -383 545 -363T578 -311Q578 -291 560 -275T496 -239Q451 -219 433 -199T414 -152Z"  />
<glyph unicode="&#x15F;" horiz-adv-x="795" d="M303 -152Q303 -128 329 -65L346 -23Q276 -20 209 2T94 57L123 174Q180 134 250 110T389 86Q479 86 525 123T571 223Q571 275 536 316T426 393Q260 472 222 499T160 558T124 623T113 700Q113 812 195 877T430 942Q569 942 678 891L639 782Q511 831 414 831Q326 831 284 797T242 711Q242 661 277 623T387 549L471 509Q604 445 652 381T700 231Q700 127 633 61T442 -20Q412 -85 412 -104Q412 -122 426 -135T498 -178Q584 -223 584 -297Q584 -371 520 -428T365 -485Q262 -485 178 -422L219 -326Q245 -350 284 -366T358 -383Q401 -383 434 -363T467 -311Q467 -291 449 -275T385 -239Q340 -219 322 -199T303 -152Z"  />
<glyph unicode="&#x160;" horiz-adv-x="1038" d="M139 221Q214 166 313 132T502 96Q634 96 714 155T795 313Q795 376 767 424T692 510T585 582T463 648T341 719T235 802T160 908T131 1047Q131 1202 249 1296T565 1391Q640 1391 732 1374T905 1329L862 1200Q700 1270 557 1270Q423 1270 345 1215T266 1063Q266 998 294 950T369 864T476 793T598 727T720 658T826 574T901 466T930 324Q930 162 811 69T492 -25Q387 -25 284 5T104 90L139 221ZM222 1710L299 1784L541 1569L779 1784L856 1710L600 1470H482L222 1710Z"  />
<glyph unicode="&#x161;" horiz-adv-x="791" d="M132 1409L218 1458L406 1196L594 1458L680 1409L453 1065H359L132 1409ZM121 174Q178 134 248 110T387 86Q477 86 523 123T569 223Q569 275 534 316T424 393Q258 472 220 499T158 558T122 623T111 700Q111 812 193 877T428 942Q567 942 676 891L637 782Q509 831 412 831Q324 831 282 797T240 711Q240 661 275 623T385 549L469 509Q602 445 650 381T698 231Q698 113 611 44T377 -25Q296 -25 221 -3T92 57L121 174Z"  />
<glyph unicode="&#x162;" horiz-adv-x="1206" d="M530 1253H35V1366H1171V1253H664V0H649Q608 -85 608 -104Q608 -122 622 -135T694 -178Q780 -223 780 -297Q780 -371 716 -428T561 -485Q459 -485 375 -422L416 -326Q443 -350 481 -366T555 -383Q598 -383 631 -363T664 -311Q664 -291 646 -275T582 -239Q537 -219 519 -199T500 -152Q500 -122 526 -65L553 0H530V1253Z"  />
<glyph unicode="&#x163;" horiz-adv-x="723" d="M299 -152Q299 -128 325 -65L346 -14Q203 24 203 238V809H78V877L203 930V1130L328 1165V918H633V809H328V268Q328 170 358 130T446 90Q493 90 548 115T647 176L678 66Q629 28 565 3T436 -25Q408 -81 408 -104Q408 -122 422 -135T494 -178Q580 -223 580 -297Q580 -372 516 -428T360 -485Q258 -485 174 -422L215 -326Q241 -350 280 -366T354 -383Q397 -383 430 -363T463 -311Q463 -291 445 -275T381 -239Q336 -219 318 -199T299 -152Z"  />
<glyph unicode="&#x164;" horiz-adv-x="1206" d="M530 1253H35V1366H1171V1253H664V0H530V1253ZM281 1710L358 1784L600 1569L838 1784L915 1710L659 1470H541L281 1710Z"  />
<glyph unicode="&#x165;" horiz-adv-x="715" d="M725 1528L606 1129H529L580 1507L725 1528ZM199 809H74V877L199 930V1130L324 1165V918H629V809H324V268Q324 170 354 130T442 90Q489 90 544 115T643 176L674 66Q621 24 553 0T420 -25Q199 -25 199 238V809Z"  />
<glyph unicode="&#x166;" horiz-adv-x="1208" d="M219 750H530V1253H35V1366H1171V1253H664V750H989V662H664V0H530V662H219V750Z"  />
<glyph unicode="&#x167;" horiz-adv-x="719" d="M74 590H201V809H76V877L201 930V1130L326 1165V918H631V809H326V590H631V504H326V268Q326 170 356 130T444 90Q491 90 546 115T645 176L676 66Q623 24 555 0T422 -25Q201 -25 201 238V504H74V590Z"  />
<glyph unicode="&#x168;" horiz-adv-x="1477" d="M193 1366H326V520Q326 316 434 204T739 92Q934 92 1042 201T1151 506V1366H1284V514Q1284 350 1215 227T1022 40T737 -25Q477 -25 335 107T193 485V1366ZM381 1505Q381 1562 405 1620T477 1709T590 1741Q679 1741 752 1672Q793 1633 819 1618T876 1603Q922 1603 948 1642T975 1741H1091Q1091 1683 1066 1622T992 1529T876 1497Q830 1497 792 1513T715 1566Q667 1609 645 1621T594 1634Q550 1634 524 1598T497 1505H381Z"  />
<glyph unicode="&#x169;" horiz-adv-x="1057" d="M154 918H278V268Q278 181 312 135T422 88Q488 88 569 130T762 276V918H887V285Q887 169 928 -2L803 -12Q781 79 772 154Q695 73 595 24T401 -25Q154 -25 154 250V918ZM239 1135Q242 1243 285 1306T403 1370Q483 1370 545 1291Q585 1239 601 1226T639 1212Q670 1212 689 1252T710 1358H805Q802 1247 760 1180T637 1112Q553 1112 496 1192Q466 1235 445 1253T403 1272Q372 1272 354 1233T334 1135H239Z"  />
<glyph unicode="&#x16A;" horiz-adv-x="1477" d="M193 1366H326V520Q326 316 434 204T739 92Q934 92 1042 201T1151 506V1366H1284V514Q1284 350 1215 227T1022 40T737 -25Q477 -25 335 107T193 485V1366ZM483 1683H991V1573H483V1683Z"  />
<glyph unicode="&#x16B;" horiz-adv-x="1057" d="M154 918H278V268Q278 181 312 135T422 88Q488 88 569 130T762 276V918H887V285Q887 169 928 -2L803 -12Q781 79 772 154Q695 73 595 24T401 -25Q154 -25 154 250V918ZM301 1325H747V1212H301V1325Z"  />
<glyph unicode="&#x16C;" horiz-adv-x="1477" d="M193 1366H326V520Q326 316 434 204T739 92Q934 92 1042 201T1151 506V1366H1284V514Q1284 350 1215 227T1022 40T737 -25Q477 -25 335 107T193 485V1366ZM737 1478Q601 1478 525 1542T448 1720Q448 1746 452 1773H555L554 1740Q554 1685 571 1654T626 1601T737 1579Q805 1579 844 1600T901 1656T920 1748L919 1773H1022Q1026 1749 1026 1725Q1026 1616 947 1547T737 1478Z"  />
<glyph unicode="&#x16D;" horiz-adv-x="1057" d="M154 918H278V268Q278 181 312 135T422 88Q488 88 569 130T762 276V918H887V285Q887 169 928 -2L803 -12Q781 79 772 154Q695 73 595 24T401 -25Q154 -25 154 250V918ZM524 1108Q400 1108 331 1179T262 1384V1401L264 1419H368V1403Q368 1206 524 1206Q599 1206 639 1255T680 1403V1419H784V1389Q784 1263 715 1186T524 1108Z"  />
<glyph unicode="&#x16E;" horiz-adv-x="1477" d="M737 1405Q655 1405 605 1451T555 1573Q555 1646 604 1689T737 1732Q821 1732 870 1690T919 1573Q919 1497 869 1451T737 1405ZM737 1481Q784 1481 808 1507T833 1571Q833 1612 809 1635T737 1659Q643 1659 643 1571Q643 1530 667 1506T737 1481ZM193 1366H326V520Q326 316 434 204T739 92Q934 92 1042 201T1151 506V1366H1284V514Q1284 350 1215 227T1022 40T737 -25Q477 -25 335 107T193 485V1366Z"  />
<glyph unicode="&#x16F;" horiz-adv-x="1057" d="M524 1098Q442 1098 392 1144T342 1266Q342 1339 391 1382T524 1425Q608 1425 657 1383T706 1266Q706 1190 656 1144T524 1098ZM524 1174Q571 1174 595 1200T620 1264Q620 1305 596 1328T524 1352Q430 1352 430 1264Q430 1223 454 1199T524 1174ZM154 918H278V268Q278 181 312 135T422 88Q488 88 569 130T762 276V918H887V285Q887 169 928 -2L803 -12Q781 79 772 154Q695 73 595 24T401 -25Q154 -25 154 250V918Z"  />
<glyph unicode="&#x170;" horiz-adv-x="1477" d="M821 1528L1005 1777H1161L911 1478L821 1528ZM489 1528L655 1777H813L581 1478L489 1528ZM193 1366H326V520Q326 316 434 204T739 92Q934 92 1042 201T1151 506V1366H1284V514Q1284 350 1215 227T1022 40T737 -25Q477 -25 335 107T193 485V1366Z"  />
<glyph unicode="&#x171;" horiz-adv-x="1057" d="M154 918H278V268Q278 181 312 135T422 88Q488 88 569 130T762 276V918H887V285Q887 169 928 -2L803 -12Q781 79 772 154Q695 73 595 24T401 -25Q154 -25 154 250V918ZM592 1083L803 1425H948L674 1034L592 1083ZM297 1083L504 1425H651L379 1034L297 1083Z"  />
<glyph unicode="&#x172;" horiz-adv-x="1477" d="M193 1366H326V520Q326 316 434 204T739 92Q934 92 1042 201T1151 506V1366H1284V514Q1284 351 1217 229T1024 41Q786 -176 786 -297Q786 -341 813 -359T877 -377Q919 -377 985 -350L999 -457Q926 -485 856 -485Q762 -485 712 -438T662 -305Q662 -263 675 -226T715 -149T821 -18Q786 -25 737 -25Q477 -25 335 107T193 485V1366Z"  />
<glyph unicode="&#x173;" horiz-adv-x="1055" d="M152 918H276V268Q276 181 310 135T420 88Q486 88 567 130T760 276V918H885V285Q885 169 926 -2Q733 -195 733 -301Q733 -377 826 -377Q882 -377 932 -350L946 -457Q865 -485 791 -485Q703 -485 656 -438T608 -311Q608 -250 635 -194T722 -72L795 8Q775 110 770 154Q693 73 593 24T399 -25Q152 -25 152 250V918Z"  />
<glyph unicode="&#x174;" horiz-adv-x="1917" d="M641 1544L899 1784H1019L1275 1544L1198 1470L960 1681L718 1470L641 1544ZM55 1366H193L547 186L883 1366H1040L1372 190L1731 1366H1864L1442 -10H1305L961 1163L614 -10H477L55 1366Z"  />
<glyph unicode="&#x175;" horiz-adv-x="1499" d="M471 1081L698 1425H792L1019 1081L933 1032L745 1292L557 1032L471 1081ZM49 918H182L416 145L698 918H817L1038 145L1329 918H1464L1087 -12H967L743 729L463 -12H342L49 918Z"  />
<glyph unicode="&#x176;" horiz-adv-x="1153" d="M510 602L23 1366H182L580 731L981 1366H1130L645 604V0H510V602ZM275 1544L533 1784H653L909 1544L832 1470L594 1681L352 1470L275 1544Z"  />
<glyph unicode="&#x177;" horiz-adv-x="922" d="M51 -375Q137 -358 203 -288T332 -76L401 82L41 918H178L467 246L745 918H883L461 -70Q393 -231 342 -307T230 -429T92 -485L51 -375ZM200 1081L427 1425H521L748 1081L662 1032L474 1292L286 1032L200 1081Z"  />
<glyph unicode="&#x178;" horiz-adv-x="1153" d="M510 602L23 1366H182L580 731L981 1366H1130L645 604V0H510V602ZM819 1530Q783 1530 755 1559T727 1624Q727 1660 756 1688T819 1716Q855 1716 884 1688T914 1624Q914 1588 886 1559T819 1530ZM367 1530Q330 1530 302 1558T273 1624Q273 1660 302 1688T367 1716Q400 1716 429 1688T459 1624Q459 1588 431 1559T367 1530Z"  />
<glyph unicode="&#x179;" horiz-adv-x="1184" d="M74 74L905 1253H127V1366H1081V1292L260 113H1090V0H74V74ZM449 1562L825 1757L887 1624L483 1476L449 1562Z"  />
<glyph unicode="&#x17A;" horiz-adv-x="877" d="M365 1083L570 1425H725L449 1034L365 1083ZM88 76L596 807H104V918H770V844L256 113H791V0H88V76Z"  />
<glyph unicode="&#x17B;" horiz-adv-x="1184" d="M616 1528Q579 1528 550 1557T520 1626Q520 1665 550 1694T616 1724Q651 1724 681 1695T712 1626Q712 1587 683 1558T616 1528ZM74 74L905 1253H127V1366H1081V1292L260 113H1090V0H74V74Z"  />
<glyph unicode="&#x17C;" horiz-adv-x="877" d="M88 76L596 807H104V918H770V844L256 113H791V0H88V76ZM441 1161Q405 1161 375 1191T345 1262Q345 1301 375 1330T441 1360Q476 1360 506 1331T537 1262Q537 1223 508 1192T441 1161Z"  />
<glyph unicode="&#x17D;" horiz-adv-x="1184" d="M74 74L905 1253H127V1366H1081V1292L260 113H1090V0H74V74ZM299 1710L376 1784L618 1569L856 1784L933 1710L677 1470H559L299 1710Z"  />
<glyph unicode="&#x17E;" horiz-adv-x="877" d="M167 1409L253 1458L441 1196L629 1458L715 1409L488 1065H394L167 1409ZM88 76L596 807H104V918H770V844L256 113H791V0H88V76Z"  />
<glyph unicode="&#x192;" horiz-adv-x="819" d="M66 713H350L375 920Q401 1142 505 1266T772 1391Q837 1391 911 1368L885 1253Q833 1272 772 1272Q663 1272 591 1181T500 924L473 713H758V600H461L397 66Q371 -157 266 -281T2 -406Q-48 -406 -137 -383L-109 -268Q-43 -287 2 -287Q107 -287 179 -196T272 61L336 600H66V713Z"  />
<glyph unicode="&#x218;" horiz-adv-x="1038" d="M572 -100Q595 -126 608 -165T622 -242Q622 -320 581 -385T464 -494L394 -418Q451 -393 475 -350T499 -258Q499 -172 427 -100H572ZM139 221Q214 166 313 132T502 96Q634 96 714 155T795 313Q795 376 767 424T692 510T585 582T463 648T341 719T235 802T160 908T131 1047Q131 1202 249 1296T565 1391Q640 1391 732 1374T905 1329L862 1200Q700 1270 557 1270Q423 1270 345 1215T266 1063Q266 998 294 950T369 864T476 793T598 727T720 658T826 574T901 466T930 324Q930 162 811 69T492 -25Q387 -25 284 5T104 90L139 221Z"  />
<glyph unicode="&#x219;" horiz-adv-x="791" d="M461 -100Q484 -126 497 -165T511 -242Q511 -320 470 -385T353 -494L283 -418Q340 -393 364 -350T388 -258Q388 -172 316 -100H461ZM121 174Q178 134 248 110T387 86Q477 86 523 123T569 223Q569 275 534 316T424 393Q258 472 220 499T158 558T122 623T111 700Q111 812 193 877T428 942Q567 942 676 891L637 782Q509 831 412 831Q324 831 282 797T240 711Q240 661 275 623T385 549L469 509Q602 445 650 381T698 231Q698 113 611 44T377 -25Q296 -25 221 -3T92 57L121 174Z"  />
<glyph unicode="&#x21A;" horiz-adv-x="1206" d="M659 -100Q682 -126 695 -165T709 -242Q709 -320 668 -385T551 -494L481 -418Q538 -393 562 -350T586 -258Q586 -172 514 -100H659ZM530 1253H35V1366H1171V1253H664V0H530V1253Z"  />
<glyph unicode="&#x21B;" horiz-adv-x="717" d="M455 -100Q478 -126 491 -165T505 -242Q505 -320 464 -385T347 -494L277 -418Q334 -393 358 -350T382 -258Q382 -172 310 -100H455ZM199 809H74V877L199 930V1130L324 1165V918H629V809H324V268Q324 170 354 130T442 90Q489 90 544 115T643 176L674 66Q621 24 553 0T420 -25Q199 -25 199 238V809Z"  />
<glyph unicode="&#x2C6;" horiz-adv-x="1028" d="M240 1081L467 1425H561L788 1081L702 1032L514 1292L326 1032L240 1081Z"  />
<glyph unicode="&#x2C7;" horiz-adv-x="1028" d="M240 1409L326 1458L514 1196L702 1458L788 1409L561 1065H467L240 1409Z"  />
<glyph unicode="&#x2D8;" horiz-adv-x="1028" d="M514 1108Q390 1108 321 1179T252 1384V1401L254 1419H358V1403Q358 1206 514 1206Q589 1206 629 1255T670 1403V1419H774V1389Q774 1263 705 1186T514 1108Z"  />
<glyph unicode="&#x2D9;" horiz-adv-x="1028" d="M514 1161Q478 1161 448 1191T418 1262Q418 1301 448 1330T514 1360Q549 1360 579 1331T610 1262Q610 1223 581 1192T514 1161Z"  />
<glyph unicode="&#x2DA;" horiz-adv-x="1028" d="M514 1098Q432 1098 382 1144T332 1266Q332 1339 381 1382T514 1425Q598 1425 647 1383T696 1266Q696 1190 646 1144T514 1098ZM514 1174Q561 1174 585 1200T610 1264Q610 1305 586 1328T514 1352Q420 1352 420 1264Q420 1223 444 1199T514 1174Z"  />
<glyph unicode="&#x2DB;" horiz-adv-x="1028" d="M360 -305Q360 -247 390 -189T489 -56L567 33L717 51L727 45Q590 -82 538 -160T485 -297Q485 -334 508 -355T575 -377Q618 -377 684 -350L698 -457Q625 -485 555 -485Q462 -485 411 -438T360 -305Z"  />
<glyph unicode="&#x2DC;" horiz-adv-x="1028" d="M227 1135Q230 1243 273 1306T391 1370Q471 1370 533 1291Q573 1239 589 1226T627 1212Q658 1212 677 1252T698 1358H793Q790 1247 748 1180T625 1112Q541 1112 484 1192Q454 1235 433 1253T391 1272Q360 1272 342 1233T322 1135H227Z"  />
<glyph unicode="&#x2DD;" horiz-adv-x="1028" d="M473 1083L684 1425H829L555 1034L473 1083ZM178 1083L385 1425H532L260 1034L178 1083Z"  />
<glyph unicode="&#x394;" horiz-adv-x="1270" d="M68 70L621 1366H680L1200 70V0H68V70ZM236 127H1026L639 1122L236 127Z"  />
<glyph unicode="&#x3A9;" horiz-adv-x="1503" d="M88 133H410Q288 278 222 443T156 758Q156 945 231 1090T442 1313T750 1391Q921 1391 1056 1313T1266 1090T1341 760Q1341 472 1087 133H1419L1399 0H934L907 72L995 198Q1089 332 1142 480T1196 772Q1196 999 1073 1136T745 1274Q544 1274 424 1136T303 772Q303 649 335 539T420 331T596 72L567 0H109L88 133Z"  />
<glyph unicode="&#x3BC;" horiz-adv-x="1128" d="M172 918H297V268Q297 88 440 88Q510 88 597 134T780 276V918H905V215Q905 153 915 129T950 93T1038 82V-14Q985 -25 950 -25Q871 -25 830 16T780 152Q716 88 664 54T550 -2T420 -25Q348 -25 293 0L305 -442H152Q172 -252 172 -80V918Z"  />
<glyph unicode="&#x3C0;" horiz-adv-x="1090" d="M84 918H1010V803H838V213Q838 153 847 131T878 100T971 90V-14Q916 -25 883 -25Q816 -25 778 3T723 81T705 246V803H416V672Q416 348 356 185T176 -25L92 66Q169 110 212 182T274 355T293 682V803H84V918Z"  />
<glyph unicode="&#x2013;" horiz-adv-x="1075" d="M117 578H956V457H117V578Z"  />
<glyph unicode="&#x2014;" horiz-adv-x="1874" d="M117 578H1755V457H117V578Z"  />
<glyph unicode="&#x2018;" horiz-adv-x="422" d="M205 987Q106 1070 106 1204Q106 1290 152 1372T272 1507L340 1442Q248 1369 248 1272Q248 1214 269 1169T342 1069L205 987Z"  />
<glyph unicode="&#x2019;" horiz-adv-x="418" d="M90 1053Q182 1126 182 1223Q182 1282 159 1329T88 1425L225 1507Q324 1422 324 1292Q324 1208 279 1126T158 987L90 1053Z"  />
<glyph unicode="&#x201A;" horiz-adv-x="485" d="M262 221Q367 131 367 4Q367 -76 320 -158T193 -301L127 -233Q225 -155 225 -66Q225 -19 196 29T109 137L262 221Z"  />
<glyph unicode="&#x201C;" horiz-adv-x="733" d="M516 987Q418 1070 418 1200Q418 1288 463 1369T584 1507L649 1442Q559 1371 559 1264Q559 1167 651 1069L516 987ZM205 987Q106 1070 106 1200Q106 1288 151 1369T272 1507L340 1442Q248 1366 248 1266Q248 1212 271 1166T342 1069L205 987Z"  />
<glyph unicode="&#x201D;" horiz-adv-x="727" d="M401 1053Q492 1125 492 1223Q492 1274 473 1320T399 1425L535 1507Q633 1425 633 1292Q633 1208 588 1126T467 987L401 1053ZM90 1053Q182 1126 182 1223Q182 1282 159 1329T88 1425L225 1507Q324 1422 324 1292Q324 1208 279 1126T158 987L90 1053Z"  />
<glyph unicode="&#x201E;" horiz-adv-x="795" d="M571 221Q678 131 678 4Q678 -76 631 -158T504 -301L436 -233Q537 -156 537 -66Q537 -19 507 29T418 137L571 221ZM262 221Q367 131 367 4Q367 -76 320 -158T193 -301L127 -233Q225 -155 225 -66Q225 -19 196 29T109 137L262 221Z"  />
<glyph unicode="&#x2020;" horiz-adv-x="993" d="M440 803L74 776V936L440 907L416 1366H575L553 907L920 936V776L553 803L567 -285H426L440 803Z"  />
<glyph unicode="&#x2021;" horiz-adv-x="1036" d="M96 305L463 279V803L96 776V936L463 907L436 1366H598L573 907L940 936V776L573 803V279L940 305V145L573 174L598 -285H436L463 174L96 145V305Z"  />
<glyph unicode="&#x2022;" horiz-adv-x="758" d="M379 252Q263 252 185 331T106 524Q106 638 184 717T379 797Q495 797 573 718T651 524Q651 409 573 331T379 252Z"  />
<glyph unicode="&#x2026;" horiz-adv-x="1571" d="M1221 86Q1221 133 1254 165T1331 197Q1376 197 1409 165T1442 86Q1442 39 1409 7T1331 -25Q1287 -25 1254 7T1221 86ZM674 86Q674 131 707 164T784 197Q829 197 862 165T895 86Q895 39 862 7T784 -25Q740 -25 707 8T674 86ZM127 86Q127 132 161 164T240 197Q282 197 315 165T348 86Q348 39 315 7T240 -25Q195 -25 161 7T127 86Z"  />
<glyph unicode="&#x2030;" horiz-adv-x="2200" d="M1165 1370L1245 1313L330 0H215L1165 1370ZM389 735Q265 735 178 822T90 1036Q90 1161 176 1250T389 1339Q517 1339 603 1251T690 1036Q690 908 603 822T389 735ZM389 825Q470 825 531 887T592 1036Q592 1121 532 1184T387 1247Q304 1247 245 1184T186 1036Q186 949 247 887T389 825ZM1528 274Q1528 400 1615 487T1827 575Q1954 575 2041 488T2128 274Q2128 146 2041 60T1827 -27Q1703 -27 1616 60T1528 274ZM803 274Q803 400 890 487T1104 575Q1229 575 1316 488T1403 274Q1403 146 1316 60T1104 -27Q978 -27 891 60T803 274ZM1626 274Q1626 187 1686 125T1827 63Q1908 63 1969 125T2030 274Q2030 359 1970 422T1825 485Q1743 485 1685 423T1626 274ZM901 274Q901 187 962 125T1104 63Q1185 63 1245 124T1305 274Q1305 358 1246 421T1100 485Q1019 485 960 422T901 274Z"  />
<glyph unicode="&#x2039;" horiz-adv-x="659" d="M459 82L142 423Q82 488 55 510V518Q86 543 153 615T459 946L557 920L244 514L557 109L459 82Z"  />
<glyph unicode="&#x203A;" horiz-adv-x="662" d="M104 109L205 237L420 514L104 920L205 946Q317 822 443 686T608 518V510Q594 500 576 481T205 82L104 109Z"  />
<glyph unicode="&#x2044;" horiz-adv-x="360" d="M-276 0L535 1403L639 1366L-145 0H-276Z"  />
<glyph unicode="&#x2074;" horiz-adv-x="721" d="M426 997H43L35 1059L453 1604H543V1092H670V997H543V770H426V997ZM426 1092V1421L172 1092H426Z"  />
<glyph unicode="&#x20AC;" horiz-adv-x="1139" d="M90 475H199Q195 502 195 559V597L197 635H94V733H213Q259 933 392 1043T719 1153Q801 1153 883 1132T1028 1073L993 946Q936 986 859 1010T705 1034Q570 1034 477 956T346 733H932L903 635H330L328 603V571Q328 521 334 475H856L827 379H356Q399 244 494 169T715 94Q782 94 854 114T983 170L1032 66Q972 24 886 0T713 -25Q530 -25 396 83T215 379H90V475Z"  />
<glyph unicode="&#x2122;" horiz-adv-x="1333" d="M641 1366H782L913 987L1044 1366H1182L1202 821H1112L1096 1253L942 821H879L727 1251L715 821H621L641 1366ZM256 1284H78V1366H528V1284H350V821H256V1284Z"  />
<glyph unicode="&#x2126;" horiz-adv-x="1503" d="M88 133H410Q288 278 222 443T156 758Q156 945 231 1090T442 1313T750 1391Q921 1391 1056 1313T1266 1090T1341 760Q1341 472 1087 133H1419L1399 0H934L907 72L995 198Q1089 332 1142 480T1196 772Q1196 999 1073 1136T745 1274Q544 1274 424 1136T303 772Q303 649 335 539T420 331T596 72L567 0H109L88 133Z"  />
<glyph unicode="&#x2202;" horiz-adv-x="1022" d="M78 395Q78 521 133 631T281 800T492 858Q576 858 654 831T778 754Q761 1070 616 1244T223 1419V1532Q431 1532 585 1434T826 1141T913 694Q913 489 856 325T693 68T453 -25Q350 -25 263 30T127 182T78 395ZM455 96Q587 96 675 234T778 604Q738 662 667 697T506 733Q418 733 352 691T250 575T213 414Q213 275 279 186T455 96Z"  />
<glyph unicode="&#x2206;" horiz-adv-x="1270" d="M68 70L621 1366H680L1200 70V0H68V70ZM236 127H1026L639 1122L236 127Z"  />
<glyph unicode="&#x220F;" horiz-adv-x="1513" d="M74 1366H1440V1253H1231V-158H1096V1253H418V-158H283V1253H74V1366Z"  />
<glyph unicode="&#x2211;" horiz-adv-x="1171" d="M612 606L82 1292V1366H1038V1253H266L764 610L268 -43H1102V-158H82V-84L612 606Z"  />
<glyph unicode="&#x2212;" horiz-adv-x="1065" d="M88 571H977V451H88V571Z"  />
<glyph unicode="&#x221A;" horiz-adv-x="1190" d="M307 809H51V918H385L631 238L1087 1534H1198L635 -74H621L307 809Z"  />
<glyph unicode="&#x221E;" horiz-adv-x="1651" d="M430 182Q295 182 202 279T109 512Q109 647 201 744T430 842Q524 842 617 788T825 598Q907 693 967 740T1092 814T1231 842Q1360 842 1450 748T1540 522Q1540 380 1447 281T1217 182Q1146 182 1083 210T964 282T825 424Q745 329 687 283T564 209T430 182ZM889 512Q969 411 1057 350T1221 289Q1303 289 1360 353T1417 512Q1417 608 1360 671T1221 735Q1147 735 1059 674T889 512ZM430 289Q505 289 592 349T760 512Q679 614 591 674T430 735Q349 735 291 672T233 512Q233 414 291 352T430 289Z"  />
<glyph unicode="&#x222B;" horiz-adv-x="776" d="M14 -348Q66 -367 113 -367Q217 -367 277 -275T338 -18V1063Q338 1285 432 1409T692 1534Q755 1534 819 1511L786 1397Q739 1415 688 1415Q584 1415 524 1323T463 1067V-14Q463 -233 369 -359T109 -485Q51 -485 -20 -463L14 -348Z"  />
<glyph unicode="&#x2248;" horiz-adv-x="1065" d="M20 674Q87 741 168 780T324 819Q435 819 551 748Q616 707 659 692T743 676Q801 676 861 705T971 786L1047 692Q979 624 898 587T743 549Q632 549 516 621Q451 661 408 676T324 692Q215 692 98 580L20 674ZM20 330Q85 395 167 434T324 473Q435 473 551 402Q616 361 659 346T743 330Q802 330 861 359T971 442L1047 348Q977 278 898 241T743 203Q632 203 516 275Q451 315 408 330T324 346Q213 346 98 236L20 330Z"  />
<glyph unicode="&#x2260;" horiz-adv-x="1065" d="M70 778H621L760 1014L854 952L750 778H995V647H672L514 379H995V248H436L299 16L205 78L305 248H70V379H383L543 647H70V778Z"  />
<glyph unicode="&#x2264;" horiz-adv-x="1065" d="M68 752L940 1176L969 1049L260 705L969 340L940 215L68 657V752ZM68 121H985V0H68V121Z"  />
<glyph unicode="&#x2265;" horiz-adv-x="1065" d="M94 340L801 705L94 1049L121 1176L993 752V657L121 215L94 340ZM76 121H993V0H76V121Z"  />
<glyph unicode="&#x25CA;" horiz-adv-x="1081" d="M70 743L514 1542H569L1012 743L569 -78H514L70 743ZM543 127L862 745L541 1339L217 745L543 127Z"  />
<glyph unicode="&#xE361;" horiz-adv-x="682" d="M229 592Q149 592 101 635T53 752Q53 959 444 1012V1040Q444 1104 434 1127T402 1163T340 1176Q240 1176 131 1096L98 1194Q153 1229 227 1249T371 1270Q475 1270 517 1225T559 1067V774Q559 737 579 715T633 692L596 598Q476 603 451 702Q410 651 352 622T229 592ZM254 686Q286 686 313 698T363 729T406 771T444 815V926Q303 900 241 860T178 758Q178 686 254 686Z"  />
<glyph unicode="&#xE36E;" horiz-adv-x="772" d="M383 592Q292 592 219 637T104 761T63 926Q63 1016 105 1097T222 1224T389 1270Q479 1270 552 1227T666 1108T707 944Q707 851 666 769T552 639T383 592ZM387 686Q476 686 531 753T586 926Q586 1038 532 1107T385 1176Q293 1176 239 1112T184 940Q184 827 239 757T387 686Z"  />
<glyph unicode="&#xFB01;" horiz-adv-x="1049" d="M758 819H332V0H207V809H61V872L207 930V1014Q207 1232 306 1358T584 1485Q731 1485 858 1409L791 1300Q677 1366 580 1366Q465 1366 399 1273T332 1020V918H883V0H758V819Z"  />
<glyph unicode="&#xFB02;" horiz-adv-x="1077" d="M786 1303Q676 1366 580 1366Q465 1366 399 1273T332 1020V918H596V809H332V0H207V809H61V872L207 930V1014Q207 1232 306 1358T584 1485Q704 1485 801 1438L911 1460V0H786V1303Z"  />

</font>
</defs>
</svg>
