<?xml version="1.0" standalone="no"?>
<!DOCTYPE svg PUBLIC "-//W3C//DTD SVG 1.1//EN" "http://www.w3.org/Graphics/SVG/1.1/DTD/svg11.dtd" >
<svg xmlns="http://www.w3.org/2000/svg">
<metadata></metadata>
<defs>
<font id="calluna_sansbold" horiz-adv-x="1640" >
<font-face units-per-em="2048" ascent="1536" descent="-512" />
<missing-glyph horiz-adv-x="491" />
<glyph unicode="&#xfb01;" horiz-adv-x="1150" d="M45 750v137l145 51v57q0 239 130.5 375.5t338.5 136.5q79 0 152.5 -20t106.5 -40l34 -20l-90 -180q-11 7 -30 17.5t-73 28.5t-102 18q-96 0 -153.5 -71t-57.5 -226v-82h574v-932h-254v760h-320v-760h-256v750h-145z" />
<glyph unicode="&#xfb02;" horiz-adv-x="1187" d="M45 750v137l145 51v57q0 239 130.5 375.5t338.5 136.5q136 0 261 -61l137 22v-1468h-254v1276q-85 35 -146 35q-96 0 -153.5 -71t-57.5 -226v-82h250v-182h-250v-750h-256v750h-145z" />
<glyph unicode="&#xfb03;" horiz-adv-x="1781" d="M45 750v137l145 51v29q0 230 128 360.5t329 130.5q71 0 138.5 -19t99.5 -36.5t55 -34.5q124 139 330 139q76 0 146.5 -20t103.5 -40l32 -20l-90 -180q-10 7 -27.5 17.5t-67.5 28.5t-95 18q-87 0 -141 -65.5t-54 -211.5v-102h576v-932h-256v760h-320v-760h-254v760h-377 v-760h-256v750h-145zM446 932h377v84q0 92 23 176q-95 70 -195 70q-93 0 -149 -65.5t-56 -211.5v-53z" />
<glyph unicode="&#xfb04;" horiz-adv-x="1818" d="M45 750v137l145 51v29q0 230 128 360.5t329 130.5q71 0 138.5 -19t99.5 -36.5t55 -34.5q124 139 330 139q146 0 258 -65l162 26v-1468h-256v1266q-88 45 -160 45q-89 0 -143 -65.5t-54 -211.5v-102h250v-182h-250v-750h-254v760h-377v-760h-256v750h-145zM446 932h377v84 q0 89 23 176q-95 70 -195 70q-93 0 -149 -65.5t-56 -211.5v-53z" />
<glyph horiz-adv-x="2048" />
<glyph horiz-adv-x="2048" />
<glyph unicode="&#xd;" horiz-adv-x="2048" />
<glyph unicode=" "  horiz-adv-x="491" />
<glyph unicode="&#x09;" horiz-adv-x="491" />
<glyph unicode="&#xa0;" horiz-adv-x="491" />
<glyph unicode="!" horiz-adv-x="583" d="M131 131q0 66 46.5 113t111.5 47q66 0 111.5 -47t45.5 -113q0 -64 -46 -110t-111 -46q-64 0 -111 46.5t-47 109.5zM150 1391h292l-47 -930h-202z" />
<glyph unicode="&#x22;" horiz-adv-x="792" d="M115 823v543h221v-76l-70 -467h-151zM483 823v543h222v-76l-70 -467h-152z" />
<glyph unicode="#" horiz-adv-x="1400" d="M70 229l22 144h273l57 278h-270l22 144h277l79 389h148l-80 -389h291l80 389h149l-80 -389h293l-22 -144h-299l-58 -278h297l-22 -144h-303l-84 -411h-152l86 411h-291l-84 -411h-149l84 411h-264zM512 373h291l57 278h-291z" />
<glyph unicode="$" horiz-adv-x="976" d="M74 84l53 211q4 -4 12 -10t37 -22t61.5 -29t86 -25.5t110.5 -15.5l8 288q-169 57 -260.5 139t-91.5 205q0 125 91 217t278 111l6 180h98l-6 -176q86 -2 162.5 -17t110.5 -30l34 -14l-65 -203q-11 5 -31.5 13.5t-85 24t-129.5 19.5l-8 -280q83 -28 142 -56.5t110 -68.5 t76.5 -93.5t25.5 -121.5q0 -138 -99 -229.5t-274 -110.5l-4 -172h-98l4 168q-99 3 -187.5 27.5t-127.5 47.5zM317 842q0 -51 32.5 -81.5t99.5 -58.5l6 248q-138 -13 -138 -108zM532 193q134 13 134 116q0 50 -29.5 79.5t-97.5 57.5z" />
<glyph unicode="%" horiz-adv-x="1564" d="M70 1044q0 135 95 228.5t241 93.5q144 0 238.5 -93.5t94.5 -228.5t-94.5 -229t-238.5 -94q-146 0 -241 93.5t-95 229.5zM231 1044q0 -68 49.5 -121t125.5 -53t124 53t48 121t-48 120.5t-124 52.5t-125.5 -52.5t-49.5 -120.5zM236 0l968 1397l103 -70l-922 -1327h-149z M827 299q0 135 95 228.5t239 93.5q146 0 241 -93.5t95 -228.5q0 -136 -95 -230t-241 -94q-144 0 -239 94.5t-95 229.5zM989 299q0 -69 48 -121.5t124 -52.5t125 52.5t49 121.5q0 68 -49 120t-125 52t-124 -52t-48 -120z" />
<glyph unicode="&#x26;" horiz-adv-x="1441" d="M70 340q0 67 21.5 124.5t62 103.5t85.5 80t105 69q-104 181 -104 327q0 66 22.5 125.5t66.5 110.5t120.5 81t175.5 30q170 0 266 -87t96 -231q0 -59 -17.5 -112t-44.5 -91.5t-70 -76t-83 -63.5t-94 -56q38 -52 74 -90q78 -94 186 -199q160 207 186 547h228 q-15 -176 -77.5 -361t-174.5 -327q161 -124 282 -164l-86 -166q-151 20 -366 170q-160 -109 -371 -109q-71 0 -138.5 12t-131.5 39.5t-112 68.5t-77.5 104t-29.5 141zM309 352q0 -84 69 -130t177 -46q109 0 203 49q-128 110 -234 238l-71 88q-144 -91 -144 -199zM502 1047 q0 -91 65 -211q94 50 144.5 102.5t50.5 122.5q0 56 -34.5 92.5t-96.5 36.5q-64 0 -96.5 -40.5t-32.5 -102.5z" />
<glyph unicode="'" horiz-adv-x="423" d="M115 823v543h235v-76l-106 -467h-129z" />
<glyph unicode="(" horiz-adv-x="618" d="M90 553q0 110 17.5 218t45.5 193t61.5 162.5t67 132.5t61.5 96t45 61l18 20l178 -60q-6 -7 -17 -20t-41.5 -57.5t-58.5 -92.5t-62.5 -123.5t-59 -152.5t-41.5 -177t-17 -200q0 -110 17 -217.5t43.5 -192t59 -161t65.5 -131t59.5 -95t43.5 -60.5l17 -20l-176 -67 q-7 8 -18.5 22t-45.5 63.5t-65 103.5t-68.5 139.5t-64.5 174.5t-45.5 206t-18.5 235z" />
<glyph unicode=")" horiz-adv-x="618" d="M27 -324q12 14 33 40t73.5 113.5t92.5 183t73 243t33 297.5q0 137 -30.5 272t-74 230t-87.5 170.5t-74 112.5l-31 38l178 60q13 -14 34 -40.5t75.5 -115t96 -184.5t75.5 -244t34 -299q0 -118 -18 -234t-46.5 -207t-63 -173.5t-69.5 -141t-63.5 -102t-46.5 -65.5l-18 -21z " />
<glyph unicode="*" horiz-adv-x="1026" d="M76 854l313 92l41 -69l-235 -226zM76 1090l119 202l235 -225l-41 -72zM395 535l78 315h82l76 -315h-236zM395 1409h236l-76 -317h-82zM598 877l39 69l313 -92l-116 -203zM598 1067l236 225l116 -202l-313 -95z" />
<glyph unicode="+" horiz-adv-x="1064" d="M51 440v166h395v414h175v-414h389v-166h-389v-440h-175v440h-395z" />
<glyph unicode="," horiz-adv-x="507" d="M55 -301q2 2 23.5 22t24.5 23t20 20.5t20.5 23t16.5 21.5t16 24.5t11.5 24.5t10.5 29t4.5 29.5t2.5 34.5q0 55 -26 111t-95 157l231 76q95 -130 95 -260q0 -212 -263 -428z" />
<glyph unicode="-" horiz-adv-x="755" d="M106 440v164h543v-164h-543z" />
<glyph unicode="." horiz-adv-x="518" d="M100 131q0 66 46.5 113t111.5 47t111.5 -47t46.5 -113q0 -63 -47 -109.5t-111 -46.5t-111 46.5t-47 109.5z" />
<glyph unicode="/" horiz-adv-x="956" d="M41 -401l682 1767h172l-680 -1767h-174z" />
<glyph unicode="0" horiz-adv-x="1146" d="M84 475q0 98 31.5 189.5t91.5 166.5t157.5 120.5t217.5 45.5q115 0 208.5 -41t152 -110t89.5 -155t31 -181q0 -78 -19 -154t-59.5 -145t-98 -121.5t-140 -83.5t-179.5 -31q-115 0 -208.5 42.5t-152.5 114t-90.5 160t-31.5 183.5zM324 481q0 -60 13.5 -112.5t41.5 -96.5 t78 -70t116 -26q68 0 118.5 26t78.5 70.5t41.5 97t13.5 113.5t-13.5 115t-42 100t-78.5 72.5t-116 26.5q-68 0 -118 -27t-78 -73t-41.5 -100t-13.5 -116z" />
<glyph unicode="1" horiz-adv-x="874" d="M100 0v199h246v567h-237v207h487v-774h225v-199h-721z" />
<glyph unicode="2" horiz-adv-x="950" d="M80 868q6 5 17.5 14t48.5 31t76.5 39t99 31t118.5 14q158 0 257.5 -88.5t99.5 -224.5q0 -68 -29.5 -135.5t-86 -132.5t-106.5 -112t-124 -107h432v-197h-797v143q18 13 48.5 35t108 86.5t136.5 124t107.5 133t48.5 127.5q0 60 -40 98.5t-106 38.5q-47 0 -99.5 -19 t-81.5 -37l-28 -19z" />
<glyph unicode="3" horiz-adv-x="841" d="M20 866q6 5 18 14t51 31.5t79.5 40t101 31.5t119.5 14q148 0 247 -81t99 -201q0 -112 -71.5 -197t-180.5 -143q134 -36 208.5 -126t74.5 -202q0 -137 -88 -241t-233 -156.5t-324 -52.5q-42 0 -62 2l-22 192q50 -4 72 -4q172 0 283.5 67.5t111.5 192.5q0 50 -27 87.5 t-72 57t-94 28.5t-102 9h-43v189q70 4 140.5 38.5t118.5 92.5t48 123q0 54 -36.5 84t-94.5 30q-47 0 -99.5 -21t-80.5 -42l-29 -21z" />
<glyph unicode="4" horiz-adv-x="1101" d="M49 27v168l547 784h266v-764h182v-188h-182v-422h-248v422h-565zM295 215h319v483z" />
<glyph unicode="5" horiz-adv-x="841" d="M66 -207q58 -4 84 -4q77 0 141 14t115.5 43.5t80.5 79.5t29 117q0 51 -15.5 91.5t-45.5 68t-64.5 48t-82.5 34.5t-89 23t-93 19q-25 5 -38 7v639h631v-197h-385v-280q51 -13 94.5 -27.5t90 -35.5t83.5 -45.5t70.5 -58.5t56 -73t36 -90t13.5 -109q0 -146 -82 -251 t-221.5 -157t-320.5 -52q-43 0 -66 2z" />
<glyph unicode="6" horiz-adv-x="1069" d="M76 565q0 124 31 240.5t96.5 220.5t157.5 183t223 127.5t286 54.5l17 -199q-123 -9 -218.5 -45t-157.5 -93.5t-100 -124.5t-57 -149q92 115 260 115q116 0 206.5 -60.5t137 -159.5t46.5 -216q0 -92 -30 -178t-86 -154.5t-144 -110t-195 -41.5q-93 0 -171.5 31.5 t-133.5 86.5t-93 130t-56.5 161.5t-18.5 180.5zM334 588q0 -181 60 -296.5t171 -115.5q85 0 134 71.5t49 184.5q0 44 -8 84t-27.5 81t-60 66t-97.5 25q-121 0 -221 -100z" />
<glyph unicode="7" horiz-adv-x="958" d="M51 752v221h862v-150q-233 -588 -569 -1241l-246 51q310 580 527 1119h-574z" />
<glyph unicode="8" horiz-adv-x="1056" d="M86 336q0 63 20.5 117.5t59 99.5t80 79t98.5 70q-91 74 -142.5 153t-51.5 179q0 152 111.5 254.5t287.5 102.5q162 0 274.5 -88.5t112.5 -241.5q0 -106 -55.5 -186t-153.5 -150q55 -36 93.5 -68t76 -75.5t57 -96t19.5 -112.5q0 -102 -55 -192.5t-159.5 -148t-234.5 -57.5 q-64 0 -126.5 14t-119 44t-99 72t-68 101.5t-25.5 129.5zM309 348q0 -75 58.5 -126.5t138.5 -51.5q86 0 149.5 56t63.5 128q0 27 -12 53.5t-28.5 47t-48.5 47t-55.5 43t-66.5 45.5q-96 -62 -147.5 -117.5t-51.5 -124.5zM403 1055q0 -64 40.5 -116t115.5 -103q72 50 112 101 t40 114q0 65 -43 105t-115 40t-111 -40.5t-39 -100.5z" />
<glyph unicode="9" horiz-adv-x="1083" d="M88 514q0 91 30.5 177t86 154.5t143.5 110t195 41.5q116 0 208 -48t149 -130.5t86.5 -187t29.5 -223.5q0 -122 -31 -237.5t-96.5 -218t-158 -180.5t-223.5 -126t-286 -54l-16 199q125 9 221 45.5t157.5 95t98 126t55.5 149.5q-89 -119 -260 -119q-174 0 -281.5 124.5 t-107.5 301.5zM346 541q0 -42 8 -80.5t27.5 -78.5t60 -63.5t97.5 -23.5q121 0 219 98q-2 177 -62 290.5t-168 113.5q-86 0 -134 -71.5t-48 -184.5z" />
<glyph unicode=":" horiz-adv-x="569" d="M127 131q0 66 46.5 113t111.5 47q66 0 111.5 -47t45.5 -113q0 -64 -46 -110t-111 -46q-64 0 -111 46.5t-47 109.5zM127 797q0 66 46.5 111.5t111.5 45.5q66 0 111.5 -45.5t45.5 -111.5q0 -65 -45.5 -110.5t-111.5 -45.5q-65 0 -111.5 46t-46.5 110z" />
<glyph unicode=";" horiz-adv-x="563" d="M84 -301q76 73 97 100q52 67 52 152q0 55 -26 111.5t-94 156.5l231 76q51 -70 72.5 -131t21.5 -129q0 -212 -262 -428zM123 795q0 66 46.5 112.5t111.5 46.5t111 -46.5t46 -112.5q0 -63 -46.5 -109.5t-110.5 -46.5t-111 46.5t-47 109.5z" />
<glyph unicode="&#x3c;" horiz-adv-x="1064" d="M53 473v94l873 469l41 -170l-676 -346l676 -368l-41 -166z" />
<glyph unicode="=" horiz-adv-x="1064" d="M84 252v164h897v-164h-897zM84 610v164h897v-164h-897z" />
<glyph unicode="&#x3e;" horiz-adv-x="1064" d="M98 152l674 368l-674 346l41 170l873 -469v-94l-873 -487z" />
<glyph unicode="?" horiz-adv-x="790" d="M86 1235l57 227q12 -3 33 -9.5t81 -29t114.5 -47.5t121 -64.5t114.5 -81.5t81 -98t33 -114q0 -46 -22.5 -92.5t-56 -84t-73 -82.5t-73 -86.5t-56 -97.5t-22.5 -114h-207q-4 24 -4 47q0 67 24 131t57.5 112t67.5 89.5t58 79t24 65.5q0 33 -36.5 71t-88 68.5t-103 56.5 t-88.5 40zM162 131q0 66 46 113t109 47q66 0 113 -47t47 -113q0 -63 -47 -109.5t-113 -46.5q-63 0 -109 46.5t-46 109.5z" />
<glyph unicode="@" horiz-adv-x="1779" d="M76 395q0 164 63 315t173.5 266t273 184t350.5 69q164 0 305.5 -52.5t239.5 -143t153.5 -216t55.5 -268.5q0 -138 -52.5 -257.5t-164.5 -191.5q-48 -32 -104.5 -50.5t-152.5 -39.5t-147 -35q-37 144 -39 146q-30 -59 -102.5 -102.5t-151.5 -43.5q-131 0 -220 107.5 t-89 284.5q0 122 47.5 224.5t127.5 170.5t184 105.5t218 37.5q36 0 80 -4t70 -8l25 -4v-535q0 -40 4 -83t8 -66l4 -23q87 5 148 55t87.5 125t26.5 168q0 111 -38 209t-108 172t-177 117t-236 43q-148 0 -275 -56t-212 -149.5t-133 -215t-48 -251.5t48 -243t126 -189 t176 -121.5t199 -50.5l-31 -166q-149 9 -280.5 71t-226.5 162.5t-150 239t-55 293.5zM709 377q0 -88 28.5 -150.5t83.5 -62.5q89 0 158 108v459q-117 0 -193.5 -104.5t-76.5 -249.5z" />
<glyph unicode="A" horiz-adv-x="1300" d="M10 0l514 1376h252l514 -1376h-268l-111 307h-528l-111 -307h-262zM461 526h370l-184 516z" />
<glyph unicode="B" horiz-adv-x="1234" d="M170 0v1366h455q126 0 219.5 -28.5t144.5 -77t74.5 -104t23.5 -118.5q0 -172 -159 -297q29 -14 55.5 -31t59 -47.5t55.5 -66t39 -88t16 -111.5q0 -180 -130 -288.5t-337 -108.5h-516zM434 221h221q113 0 168.5 49t55.5 136q0 81 -56 131.5t-168 50.5h-221v-367zM434 801 h277q3 1 12.5 7.5t25 22t29 35t23.5 50.5t10 65q0 76 -48.5 120t-168.5 44h-160v-344z" />
<glyph unicode="C" horiz-adv-x="1382" d="M80 662q0 153 54 286t151 231.5t241.5 155t317.5 56.5q85 0 165 -11.5t133.5 -28.5t94.5 -33.5t61 -27.5l19 -12l-100 -223q-6 4 -16.5 11.5t-47.5 25.5t-78 32t-106.5 25.5t-134.5 11.5q-221 0 -352.5 -134.5t-131.5 -342.5q0 -145 66 -255.5t174 -167t239 -56.5 q68 0 134.5 13t112.5 31.5t82 36.5t54 31l17 13l106 -193q-7 -7 -21 -17.5t-62.5 -38.5t-104.5 -49.5t-146.5 -39t-187.5 -17.5q-151 0 -284 47.5t-233 133.5t-158 217t-58 289z" />
<glyph unicode="D" horiz-adv-x="1490" d="M170 0v1366h485q115 0 220 -21.5t203 -72t169.5 -125t114.5 -188t43 -254.5q0 -225 -106 -385.5t-290.5 -240t-430.5 -79.5h-408zM434 221h123q152 0 264.5 36t178.5 101t98 148.5t32 185.5q0 209 -128.5 331t-374.5 122h-193v-924z" />
<glyph unicode="E" horiz-adv-x="1126" d="M170 0v1366h862v-221h-598v-342h471v-219h-471v-363h613v-221h-877z" />
<glyph unicode="F" horiz-adv-x="1083" d="M170 0v1366h858v-221h-594v-352h471v-220h-471v-573h-264z" />
<glyph unicode="G" horiz-adv-x="1447" d="M78 659q0 146 53 278t150 233t246.5 161t330.5 60q125 0 241 -25.5t170 -50.5l54 -25l-100 -223q-7 4 -19 10t-51 22.5t-80.5 29t-103 22.5t-121.5 10q-119 0 -215 -39t-157.5 -105.5t-94.5 -154t-33 -186.5q0 -216 144.5 -343.5t365.5 -127.5q46 0 100.5 5t85.5 10l31 5 v301h-274v219h532v-708q-292 -62 -497 -62q-213 0 -384.5 82.5t-272.5 239.5t-101 362z" />
<glyph unicode="H" horiz-adv-x="1562" d="M170 0v1366h264v-559h694v559h263v-1366h-263v588h-694v-588h-264z" />
<glyph unicode="I" horiz-adv-x="604" d="M170 0v1366h264v-1366h-264z" />
<glyph unicode="J" horiz-adv-x="604" d="M-86 -164q258 23 258 389v1141h264v-1133q0 -92 -11 -170t-40.5 -156t-77.5 -135t-127 -99.5t-184 -57.5z" />
<glyph unicode="K" horiz-adv-x="1277" d="M170 0v1366h264v-541h37l461 541h325l-563 -639l592 -727h-334l-481 606h-37v-606h-264z" />
<glyph unicode="L" horiz-adv-x="1083" d="M170 0v1366h264v-1145h619v-221h-883z" />
<glyph unicode="M" horiz-adv-x="1802" d="M147 0l50 1366h378l330 -948l330 948h373l49 -1366h-256l-39 1069l-379 -1069h-172l-375 1067l-35 -1067h-254z" />
<glyph unicode="N" horiz-adv-x="1529" d="M170 0v1366h266l666 -963v963h258v-1366h-268l-664 956v-956h-258z" />
<glyph unicode="O" d="M78 680q0 108 31 211t93.5 193.5t150 159t209.5 108t263 39.5q166 0 306 -54t233.5 -147t145 -217t51.5 -264q0 -142 -54 -274.5t-149.5 -234.5t-239 -163.5t-311.5 -61.5q-164 0 -303 57.5t-231 155t-143.5 225t-51.5 267.5zM354 688q0 -89 29.5 -175t85 -156.5 t145 -114t199.5 -43.5q109 0 200 41.5t150 111t91 157.5t32 183q0 74 -19 143t-58 129.5t-93.5 105.5t-130.5 71t-164 26q-110 0 -200 -40t-147.5 -107.5t-88.5 -153t-31 -178.5z" />
<glyph unicode="P" horiz-adv-x="1200" d="M170 0v1366h477q128 0 226.5 -34.5t158 -94.5t89.5 -137t30 -168q0 -215 -142 -342t-362 -127h-213v-463h-264zM434 684h170q136 0 203 61.5t67 172.5q0 227 -270 227h-170v-461z" />
<glyph unicode="Q" d="M78 680q0 108 31 211t93.5 193.5t150 159t209.5 108t263 39.5q166 0 306 -54t233.5 -147t145 -217t51.5 -264q0 -235 -139.5 -430t-374.5 -269q33 -43 59.5 -73.5t73.5 -70t95.5 -63t120.5 -39.5q64 -14 136 -14h18l-37 -235h-15q-49 0 -96 5q-53 7 -96 16.5t-86 28 t-73.5 33t-65.5 40.5t-54.5 42t-48 45t-39.5 41.5t-34.5 40.5t-27.5 33l-62 72q-20 25 -57 45.5t-72 26.5q-185 31 -324 131.5t-211.5 247t-72.5 317.5zM354 688q0 -91 29.5 -178t85 -158.5t145 -115t199.5 -43.5q109 0 200 42.5t150 113.5t91 159.5t32 183.5 q0 93 -30.5 177.5t-87 151.5t-146.5 106.5t-201 39.5q-110 0 -200 -40t-147.5 -107.5t-88.5 -153t-31 -178.5z" />
<glyph unicode="R" horiz-adv-x="1290" d="M170 0v1366h455q128 0 226.5 -32t158 -88.5t89 -129t29.5 -158.5q0 -127 -64.5 -224t-172.5 -152l385 -582h-311l-336 516h-195v-516h-264zM434 735h150q133 0 200.5 56t67.5 155q0 199 -270 199h-148v-410z" />
<glyph unicode="S" horiz-adv-x="1054" d="M80 90l76 234q6 -5 17 -13.5t47 -29.5t74 -37q37 -16 92 -28q51 -12 100 -11h8q91 0 153 38.5t62 106.5q0 50 -33.5 91.5t-87.5 73.5t-118.5 63.5t-129.5 70t-119 84t-87.5 114t-33.5 152.5q0 164 127.5 278t343.5 114q84 0 177 -15.5t144 -31.5l50 -15l-43 -237 q-18 8 -49 19.5t-116.5 30.5t-158.5 19q-91 0 -149.5 -35.5t-58.5 -99.5q0 -50 33.5 -91.5t87 -72.5t118 -62t129 -69.5t118 -84.5t87 -117t33.5 -158q0 -121 -64.5 -212t-171.5 -137.5t-239 -46.5q-110 0 -214.5 29t-153.5 58z" />
<glyph unicode="T" horiz-adv-x="1230" d="M35 1145v221h1161v-221h-448v-1145h-263v1145h-450z" />
<glyph unicode="U" horiz-adv-x="1458" d="M154 512v854h264v-827q0 -177 84 -258.5t229 -81.5q144 0 227.5 85t83.5 246v836h265v-825q0 -135 -45.5 -243.5t-124.5 -178.5t-183.5 -107t-224.5 -37q-98 0 -182 18t-157 59t-125 102.5t-81.5 152.5t-29.5 205z" />
<glyph unicode="V" horiz-adv-x="1239" d="M10 1366h281l334 -981l333 981h271l-484 -1376h-251z" />
<glyph unicode="W" horiz-adv-x="1984" d="M37 1366h272l285 -1001l297 1001h209l297 -1001l286 1001h265l-412 -1376h-268l-277 907l-274 -907h-271z" />
<glyph unicode="X" horiz-adv-x="1271" d="M31 0l448 678l-448 688h311l297 -473l299 473h303l-448 -682l448 -684h-311l-297 471l-297 -471h-305z" />
<glyph unicode="Y" horiz-adv-x="1245" d="M-2 1366h309l316 -535l325 535h299l-491 -795v-571h-264v569z" />
<glyph unicode="Z" horiz-adv-x="1191" d="M74 0v160l676 985h-646v221h986v-160l-666 -985h690v-221h-1040z" />
<glyph unicode="[" horiz-adv-x="593" d="M152 -332v1698h413v-143h-231v-1409h231v-146h-413z" />
<glyph unicode="\" horiz-adv-x="964" d="M61 1366h179l682 -1767h-181z" />
<glyph unicode="]" horiz-adv-x="589" d="M25 -207h231v1448h-231v125h413v-1698h-413v125z" />
<glyph unicode="^" horiz-adv-x="964" d="M-27 512l439 879h141l438 -879h-184l-328 655l-325 -655h-181z" />
<glyph unicode="_" horiz-adv-x="1062" d="M18 -76h1024v-141h-1024v141z" />
<glyph unicode="`" horiz-adv-x="1044" d="M291 1448h241l211 -334l-135 -74z" />
<glyph unicode="a" horiz-adv-x="1007" d="M53 219q0 289 545 361v32q0 77 -25 115.5t-104 38.5q-67 0 -140.5 -28t-114.5 -56l-40 -27l-61 181q7 5 19.5 13t55 28.5t89 36.5t118.5 29t146 13q175 0 244 -72t69 -231v-360q0 -31 10.5 -53t26 -32.5t31 -16.5t26.5 -7h10l-73 -198q-196 5 -260 137 q-11 -16 -23.5 -31.5t-39 -38t-56.5 -38.5t-75.5 -28t-96.5 -12q-126 0 -203.5 69t-77.5 175zM313 240q0 -40 25 -59t65 -19q94 0 195 121v149q-149 -21 -217 -69t-68 -123z" />
<glyph unicode="b" horiz-adv-x="1093" d="M123 27v1400l256 41v-600q88 88 231 88q99 0 178.5 -36t130 -98.5t77 -144t26.5 -175.5q0 -105 -33 -199t-96.5 -168t-166 -117t-230.5 -43q-71 0 -163.5 13t-148.5 25t-61 14zM379 174q58 -18 119 -18q119 0 190.5 85.5t71.5 241.5q0 132 -53.5 205.5t-143.5 73.5 t-184 -72v-516z" />
<glyph unicode="c" horiz-adv-x="956" d="M66 449q0 99 36.5 190.5t101.5 162t161.5 112.5t209.5 42q59 0 114.5 -9.5t93 -23.5t67 -28t43.5 -23l14 -10l-90 -186q-4 3 -11 9t-30.5 20.5t-48 25.5t-61 20t-72.5 9q-114 0 -189 -80t-75 -217q0 -132 70 -211.5t186 -79.5q64 0 124.5 23.5t89.5 46.5l29 24l78 -172 q-4 -5 -12.5 -13t-39 -28.5t-66.5 -36t-96 -28.5t-126 -13q-225 0 -363 135.5t-138 338.5z" />
<glyph unicode="d" horiz-adv-x="1110" d="M70 438q0 100 31.5 191.5t90.5 165t154 117.5t213 44q90 0 162 -28v499l254 41v-1183q0 -50 10.5 -121.5t21.5 -117.5l11 -46l-238 -14q-18 69 -28 135q-84 -146 -285 -146q-178 0 -287.5 133.5t-109.5 329.5zM336 455q0 -136 47.5 -212.5t138.5 -76.5q66 0 117 38.5 t82 84.5v360q0 60 -38.5 88.5t-104.5 28.5q-115 0 -178.5 -80.5t-63.5 -230.5z" />
<glyph unicode="e" horiz-adv-x="1009" d="M70 461q0 136 56.5 248.5t163 179.5t242.5 67q182 0 290.5 -118.5t109.5 -337.5l-139 -41l-461 -60q22 -105 90 -166t172 -61q68 0 139 29t107 57l37 29l65 -181q-6 -5 -17.5 -14t-50 -31.5t-80.5 -40t-108.5 -31.5t-134.5 -14q-153 0 -264 68.5t-164 177t-53 240.5z M326 547l329 43q0 7 -1 19t-9.5 42.5t-21.5 53.5t-42 42t-67 19q-80 0 -128.5 -60.5t-59.5 -158.5z" />
<glyph unicode="f" horiz-adv-x="733" d="M45 750v137l145 51v78q0 230 125 360.5t322 130.5q77 0 148.5 -20t104.5 -40l32 -20l-91 -190q-10 7 -27.5 18t-67.5 29.5t-95 18.5q-87 0 -141 -64t-54 -205v-102h250v-182h-250v-750h-256v750h-145z" />
<glyph unicode="g" horiz-adv-x="1050" d="M47 -246q0 144 225 269q-75 28 -111 60t-36 79q0 95 147 182q-90 42 -139 118t-49 169q0 77 34 139.5t91.5 102.5t130.5 61.5t154 21.5q64 0 143 -19t129 -19h117q29 0 60.5 5t48.5 10l16 5l14 -184h-100q-36 0 -76 6q61 -61 61 -156q0 -90 -62.5 -160.5t-159 -105.5 t-206.5 -35q-41 0 -59 2q-70 -41 -70 -65q0 -22 66 -44q23 -7 229 -63q42 -11 67 -18.5t65.5 -22t66 -28t55.5 -35t47 -44.5t29 -54.5t12 -67.5q0 -68 -39.5 -131.5t-107.5 -111.5t-165 -76.5t-206 -28.5q-110 0 -204 26.5t-156 82t-62 130.5zM272 -199q0 -51 56 -79.5 t153 -28.5q114 0 191.5 36.5t77.5 94.5q0 39 -45.5 64t-167.5 59l-101 28q-4 -2 -25.5 -16t-28.5 -19t-26 -18.5t-27 -21.5l-21.5 -21.5t-19.5 -24.5t-11 -25t-5 -28zM326 627q0 -60 44 -107t124 -47q76 0 124 43t48 107q0 61 -45 112t-125 51q-79 0 -124.5 -49t-45.5 -110z " />
<glyph unicode="h" horiz-adv-x="1099" d="M129 0v1427l256 41v-684q155 172 340 172q123 0 188.5 -72t65.5 -220v-664h-254v555q0 96 -21 138t-73 42q-55 0 -122 -47t-124 -108v-580h-256z" />
<glyph unicode="i" horiz-adv-x="514" d="M106 1278q0 63 43 103t109 40q65 0 107.5 -40t42.5 -103t-42.5 -103t-107.5 -40q-66 0 -109 40t-43 103zM129 0v932h256v-932h-256z" />
<glyph unicode="j" horiz-adv-x="514" d="M-119 -287q55 8 96.5 27t77.5 54.5t55 96t19 144.5v897h256v-885q0 -125 -32.5 -222.5t-92 -160t-135 -99t-168.5 -50.5zM104 1278q0 63 43 103t109 40q65 0 107.5 -40t42.5 -103t-42.5 -103t-107.5 -40q-66 0 -109 40t-43 103z" />
<glyph unicode="k" horiz-adv-x="1064" d="M129 0v1427l256 41v-858h33l305 322h324l-410 -408l428 -524h-317l-330 424h-33v-424h-256z" />
<glyph unicode="l" horiz-adv-x="514" d="M129 0v1427l256 41v-1468h-256z" />
<glyph unicode="m" horiz-adv-x="1669" d="M125 0v911l246 41v-170q161 174 342 174q191 0 237 -176q167 176 346 176q121 0 186.5 -72.5t65.5 -219.5v-664h-254v555q0 96 -21 138t-73 42q-92 0 -235 -143v-592h-254v555q0 95 -21.5 137.5t-73.5 42.5q-94 0 -235 -145v-590h-256z" />
<glyph unicode="n" horiz-adv-x="1095" d="M125 0v911l246 41v-172q163 176 352 176q121 0 186.5 -72.5t65.5 -219.5v-664h-254v555q0 96 -21 138t-73 42q-99 0 -246 -147v-588h-256z" />
<glyph unicode="o" horiz-adv-x="1142" d="M68 463q0 72 17.5 141t57 133t97 112.5t144 77.5t191.5 29q121 0 218.5 -40t157.5 -106.5t92 -150t32 -174.5q0 -70 -17 -139.5t-56.5 -137t-96.5 -119t-144.5 -83t-193.5 -31.5q-121 0 -218 41t-157.5 110t-92 155t-31.5 182zM332 481q0 -131 62.5 -223t178.5 -92 q102 0 170 82t68 211q0 78 -24.5 145.5t-80.5 114.5t-135 47q-103 0 -171 -80.5t-68 -204.5z" />
<glyph unicode="p" horiz-adv-x="1101" d="M125 -481v1392l246 41v-151q36 69 102.5 112t165.5 43q119 0 209.5 -63t136 -166.5t45.5 -230.5q0 -81 -19 -156.5t-58 -142t-94 -116t-132.5 -78t-167.5 -28.5q-116 0 -178 39v-454zM381 250q0 -38 36 -61t99 -23q113 0 181.5 80.5t68.5 232.5q0 129 -48.5 203 t-127.5 74q-112 0 -209 -140v-366z" />
<glyph unicode="q" horiz-adv-x="1095" d="M70 430q0 105 33 198.5t96.5 167.5t165.5 117t231 43q72 0 165 -13t151 -25l57 -13v-1345l-254 -41v544q-84 -88 -234 -88q-131 0 -225.5 62.5t-140 164t-45.5 228.5zM334 449q0 -130 52.5 -201.5t143.5 -71.5t185 68v512q-60 20 -119 20q-119 0 -190.5 -86t-71.5 -241z " />
<glyph unicode="r" horiz-adv-x="747" d="M125 0v911l246 41v-192q18 31 40.5 59.5t57.5 62t82 54t98 20.5q23 0 43 -4t28 -8l9 -4l-41 -246q-43 19 -88 19q-114 0 -219 -154v-559h-256z" />
<glyph unicode="s" horiz-adv-x="843" d="M66 57l53 209q4 -4 12.5 -10.5t35.5 -23t56 -29t72 -23t86 -10.5q71 0 108 21.5t37 58.5q0 25 -24 47.5t-63 41.5t-85.5 39t-93 46t-85.5 58t-63 80t-24 106t22 108.5t66.5 91.5t121 64.5t177.5 23.5q76 0 145.5 -13t100.5 -25l31 -13l-54 -207q-11 7 -31.5 17.5 t-79 28.5t-112.5 18q-133 0 -133 -74q0 -25 24 -47.5t62.5 -41t85 -38.5t93 -46t85 -57.5t62.5 -79.5t24 -106q0 -132 -102.5 -214.5t-284.5 -82.5q-90 0 -171.5 20.5t-117.5 40.5z" />
<glyph unicode="t" horiz-adv-x="813" d="M43 750v137l154 51v217l247 49v-272h285v-182h-285v-426q0 -140 97 -140q63 0 180 80l70 -186q-5 -4 -15.5 -11t-43 -25t-67 -31.5t-85.5 -24.5t-101 -11q-133 0 -212 74t-79 213v488h-145z" />
<glyph unicode="u" horiz-adv-x="1095" d="M119 256v676h256v-555q0 -95 19.5 -137.5t76.5 -42.5q92 0 236 127v608h254v-647q0 -50 10 -120.5t20 -115.5l10 -45l-245 -22q-21 89 -29 157q-62 -65 -152 -114.5t-200 -49.5q-117 0 -186.5 69t-69.5 212z" />
<glyph unicode="v" horiz-adv-x="972" d="M12 932h269l200 -604l226 604h258l-373 -938h-232z" />
<glyph unicode="w" horiz-adv-x="1570" d="M27 932h262l178 -647l213 647h217l209 -647l182 647h256l-303 -938h-248l-209 608l-206 -608h-250z" />
<glyph unicode="x" horiz-adv-x="987" d="M29 0l319 465l-319 467h290l179 -273l178 273h282l-321 -461l321 -471h-284l-182 279l-187 -279h-276z" />
<glyph unicode="y" horiz-adv-x="972" d="M8 932h266l218 -610l213 610h258l-388 -1000q-30 -76 -74.5 -144.5t-103.5 -128t-136.5 -98t-162.5 -46.5l-78 196q100 12 189 80.5t125 155.5l33 78z" />
<glyph unicode="z" horiz-adv-x="921" d="M74 0v156l426 579h-410v197h741v-156l-434 -579h451v-197h-774z" />
<glyph unicode="{" horiz-adv-x="688" d="M23 467v141q38 1 69.5 14.5t54 33t40 53t29 63t19.5 75.5t11.5 77.5t5.5 82.5t2 77v73v33q0 112 58 187t153.5 108t224.5 33v-136q-60 -5 -101 -13.5t-69.5 -26t-45 -37t-25 -56t-11 -72.5t-2.5 -96q0 -458 -213 -540v-4q43 -17 78.5 -54t67 -101t49.5 -168.5t18 -240.5 q0 -51 2 -83t7 -65.5t16.5 -53.5t29.5 -39t45.5 -29.5t65 -18.5t88.5 -12v-135q-436 0 -436 328v33v74t-2 79.5t-5.5 85.5t-11.5 80.5t-19.5 78.5t-29 66t-40 55.5t-54 34.5t-69.5 15z" />
<glyph unicode="|" horiz-adv-x="483" d="M150 -461v1995h184v-1995h-184z" />
<glyph unicode="}" horiz-adv-x="688" d="M-2 -328q51 4 88.5 12t65 18.5t45.5 29.5t29.5 39t16.5 53.5t7 65.5t2 83q0 136 18 240.5t49.5 168.5t67 101t78.5 54v4q-213 82 -213 540q0 60 -2.5 96t-11 72.5t-25 56t-45 37t-69.5 26t-101 13.5v136q130 0 225.5 -33t153 -108t57.5 -187v-30v-73t2 -76.5t6 -82.5 t11.5 -78.5t19 -76t29.5 -63.5t40.5 -54t54 -33.5t69.5 -14.5v-141q-38 -1 -69.5 -15.5t-54 -35t-40.5 -56t-29.5 -66.5t-19 -79.5t-11.5 -81.5t-6 -85.5t-2 -79v-73.5v-30q0 -328 -436 -328v135z" />
<glyph unicode="~" horiz-adv-x="1189" d="M111 344q0 176 75 261t211 85q66 0 117.5 -20t83.5 -48t59.5 -56t60 -48t70.5 -20t65.5 18.5t40.5 48.5t18.5 58.5t5.5 58.5h167q0 -176 -75 -261t-211 -85q-66 0 -117.5 20t-83.5 48t-59.5 56t-60 48t-70.5 20t-65.5 -18.5t-40.5 -49t-18 -58.5t-5 -58h-168z" />
<glyph unicode="&#xa1;" horiz-adv-x="579" d="M139 799q0 63 46 109t112 46q64 0 111 -46t47 -109q0 -66 -46.5 -113t-111.5 -47q-66 0 -112 47t-46 113zM143 -461l47 930h203l43 -930h-293z" />
<glyph unicode="&#xa2;" horiz-adv-x="970" d="M74 569q0 83 28 159t80 137t135 100.5t185 46.5l8 180h98l-8 -180q55 -4 105.5 -18t82.5 -30.5t56.5 -32t35.5 -25.5l11 -11l-125 -158q-8 7 -23 17t-60.5 30.5t-90.5 26.5l-19 -475q56 4 113 26.5t86 43.5l29 20l78 -172q-4 -4 -12.5 -11.5t-38 -26.5t-63 -34.5 t-87.5 -29.5t-113 -17l-6 -180h-98l6 182q-181 20 -287 141.5t-106 290.5zM324 578q0 -85 39.5 -148t111.5 -84l19 461q-78 -18 -124 -77.5t-46 -151.5z" />
<glyph unicode="&#xa3;" horiz-adv-x="1132" d="M74 127q5 2 14 6t32 19t41.5 33.5t36 50.5t21.5 69l21 184h-123v119h137l20 164q21 182 121.5 288.5t280.5 106.5q59 0 113 -12t89.5 -29.5t62.5 -35t39 -29.5l13 -12l-125 -158q-9 9 -25 22.5t-66.5 35.5t-102.5 22q-70 0 -106 -44.5t-48 -160.5l-16 -158h344l-14 -119 h-340q-8 -76 -24.5 -146.5t-29.5 -102.5l-12 -33q12 -6 33.5 -15.5t83 -25.5t117.5 -16q104 0 153.5 41t58.5 149h181q-7 -65 -19 -118t-36.5 -105.5t-60 -88t-91.5 -57.5t-127 -22q-90 0 -223.5 44t-194.5 44q-62 0 -188 -37z" />
<glyph unicode="&#xa5;" horiz-adv-x="1161" d="M74 1143h270l236 -436l241 436h258l-270 -467h211v-119h-281l-34 -61v-86h315v-119h-315v-291h-254v291h-295v119h295v84l-37 63h-258v119h188z" />
<glyph unicode="&#xa6;" horiz-adv-x="483" d="M150 365h186v-734h-186v734zM150 682v733h186v-733h-186z" />
<glyph unicode="&#xa7;" horiz-adv-x="1009" d="M57 -379l62 135q6 -4 16 -10.5t42 -23t64.5 -29t79 -23t89.5 -10.5q115 0 175 85t60 220q0 48 -10 113l-107 590q-22 130 -22 206q0 137 53 211l141 -22q-34 -72 -34 -189q0 -52 10 -114l119 -666q12 -68 12 -137q0 -92 -23.5 -170t-70 -140t-123 -97t-176.5 -35 q-57 0 -115 11t-99.5 26.5t-75 31t-50.5 26.5zM178 946q0 92 23.5 171t70 141t123 97.5t176.5 35.5q57 0 115 -11t99.5 -26.5t75 -31.5t50.5 -27l17 -11l-62 -135q-6 4 -16 10.5t-42 23t-64.5 29t-79 23t-89.5 10.5q-115 0 -175 -85.5t-60 -219.5q0 -64 10 -113l109 -589 q20 -122 20 -207q0 -136 -51 -211l-143 22q34 78 34 189q0 52 -10 114l-119 666q-12 68 -12 135z" />
<glyph unicode="&#xa8;" horiz-adv-x="1044" d="M168 1276q0 60 37.5 95.5t97.5 35.5q62 0 99.5 -35.5t37.5 -95.5t-37.5 -95.5t-99.5 -35.5q-60 0 -97.5 35.5t-37.5 95.5zM604 1276q0 60 37.5 95.5t97.5 35.5q62 0 100 -35.5t38 -95.5t-38 -95.5t-100 -35.5q-60 0 -97.5 35.5t-37.5 95.5z" />
<glyph unicode="&#xa9;" horiz-adv-x="1568" d="M78 682q0 143 56 274t150.5 226t225.5 151t274 56q191 0 354 -95t258 -258t95 -354t-95 -354t-258 -258t-354 -95q-143 0 -274 56t-225.5 151t-150.5 226t-56 274zM193 682q0 -164 78 -302t214 -219t299 -81t299.5 81t214.5 219t78 302t-78 302t-214.5 219t-299.5 81 t-299 -81t-214 -219t-78 -302zM389 680q0 79 27.5 153.5t78 135t131.5 97t179 36.5q57 0 109 -12.5t84.5 -31t57.5 -36.5t36 -30l10 -13l-92 -133q-3 4 -9 10.5t-26 23t-42 29t-57 23t-71 10.5q-109 0 -168 -72t-59 -176q0 -109 64.5 -184.5t174.5 -75.5q61 0 117 24.5 t82 49.5l26 24l56 -139q-4 -5 -11.5 -13t-34.5 -28.5t-58.5 -36t-83 -28.5t-107.5 -13q-181 0 -297.5 117t-116.5 289z" />
<glyph unicode="&#xaa;" horiz-adv-x="804" d="M76 877q0 201 383 253v21q0 47 -15.5 71.5t-66.5 24.5q-48 0 -102.5 -21t-84.5 -42l-30 -21l-43 142q5 3 14 9t40 20.5t65 25.5t86.5 20t107.5 9q126 0 176.5 -51t50.5 -160v-252q0 -22 7.5 -38t18.5 -23.5t22 -11.5t19 -5h7l-51 -139q-153 3 -199 86q-70 -93 -200 -93 q-92 0 -148.5 49t-56.5 126zM279 899q0 -59 57 -59t123 73v107q-180 -28 -180 -121z" />
<glyph unicode="&#xab;" horiz-adv-x="1044" d="M33 510v8q22 18 52 50t151 168q108 122 186 210l141 -41l-293 -391q13 -19 293 -391l-141 -41q-89 98 -164.5 182t-107.5 120.5t-58.5 66t-36.5 39.5t-22 20zM434 510v8q22 18 52 50t151 168q33 38 53.5 61t58.5 65.5t74 83.5l142 -41l-293 -391q13 -19 293 -391 l-142 -41q-89 98 -164.5 182t-107.5 120.5t-58.5 66t-36.5 39.5t-22 20z" />
<glyph unicode="&#xac;" horiz-adv-x="1163" d="M96 643v164h948v-580h-170v416h-778z" />
<glyph unicode="&#xad;" horiz-adv-x="755" d="M106 440v164h543v-164h-543z" />
<glyph unicode="&#xae;" horiz-adv-x="864" d="M78 1087q0 146 104 250.5t250 104.5t250 -104.5t104 -250.5t-104 -250t-250 -104t-250 104t-104 250zM154 1087q0 -116 82.5 -202t195.5 -86q111 0 195 86.5t84 201.5t-84 201t-195 86q-114 0 -196 -85.5t-82 -201.5zM301 918v348h123q143 0 143 -105q0 -65 -61 -96 l108 -147h-104l-88 126h-27v-126h-94zM395 1106h35q16 0 28.5 11t12.5 36q0 49 -55 49h-21v-96z" />
<glyph unicode="&#xaf;" horiz-adv-x="964" d="M219 1182v159h526v-159h-526z" />
<glyph unicode="&#xb0;" horiz-adv-x="649" d="M74 1145q0 102 73 174t177 72t176.5 -72t72.5 -174t-72.5 -174t-176.5 -72t-177 72t-73 174zM190 1145q0 -58 39 -97.5t95 -39.5t94.5 39.5t38.5 97.5t-38.5 96.5t-94.5 38.5t-95 -38.5t-39 -96.5z" />
<glyph unicode="&#xb1;" horiz-adv-x="1064" d="M92 625v166h354v352h175v-352h348v-166h-348v-349h-175v349h-354zM106 0v164h857v-164h-857z" />
<glyph unicode="&#xb2;" horiz-adv-x="716" d="M55 883q23 22 82 77t86.5 81.5t72.5 74t66 79t38.5 70.5t17.5 72q0 52 -31 77.5t-84 25.5q-37 0 -74 -15.5t-55 -30.5l-18 -16l-99 121q4 5 12 12.5t34.5 27t57 34.5t78.5 27t99 12q124 0 200 -67.5t76 -180.5q0 -94 -63.5 -199t-214.5 -245h323v-150h-589z" />
<glyph unicode="&#xb3;" horiz-adv-x="681" d="M39 829l82 136q9 -6 24 -15t57.5 -24t80.5 -15q60 0 92.5 30t32.5 71q0 47 -45.5 69.5t-106.5 22.5h-70v149q70 2 127.5 38t57.5 91q0 68 -82 68q-35 0 -71 -12t-54 -24l-19 -11l-79 123q4 3 12.5 9t36 21t56.5 26t73 20.5t88 9.5q113 0 179.5 -56t66.5 -139 q0 -73 -49 -131t-115 -80q200 -43 200 -192q0 -106 -90 -183t-229 -77q-68 0 -132 19t-94 37z" />
<glyph unicode="&#xb4;" horiz-adv-x="1071" d="M301 1114l211 334h244l-318 -408z" />
<glyph unicode="&#xb6;" horiz-adv-x="1380" d="M63 864q0 96 37.5 184.5t108 160t185 114.5t255.5 43h635v-137h-151v-1229h-146v1229h-153v-1270q0 -444 -379 -444l-31 149q133 0 193.5 74t60.5 242v387h-19q-149 0 -266 42t-187.5 112.5t-106.5 158t-36 184.5z" />
<glyph unicode="&#xb7;" horiz-adv-x="530" d="M106 522q0 66 46.5 112t111.5 46q66 0 112 -46t46 -112q0 -65 -46 -110t-112 -45q-65 0 -111.5 45.5t-46.5 109.5z" />
<glyph unicode="&#xb8;" horiz-adv-x="1044" d="M328 -422l49 115q8 -7 21.5 -17t54.5 -26.5t79 -16.5q42 0 69.5 16t27.5 40q0 22 -27 40.5t-59 30.5t-59 37t-27 58q0 32 32 98l25 47h125l-18 -39q-19 -43 -19 -55q0 -18 18.5 -31t45 -24.5t53 -26t45 -43.5t18.5 -70q0 -84 -68.5 -140t-178.5 -56q-56 0 -108 15.5 t-75 31.5z" />
<glyph unicode="&#xb9;" horiz-adv-x="643" d="M63 770v141h189v545h-172v141h364v-686h172v-141h-553z" />
<glyph unicode="&#xba;" horiz-adv-x="876" d="M74 1042q0 51 12.5 99t41 93.5t70.5 79.5t105 54.5t139 20.5q170 0 265.5 -98t95.5 -232q0 -49 -12.5 -98t-41 -96t-70 -83t-104.5 -58t-139 -22q-88 0 -158.5 28.5t-114 77t-66.5 108.5t-23 126zM281 1057q0 -91 40.5 -153t118.5 -62q67 0 111.5 55.5t44.5 142.5 q0 85 -40 146t-118 61q-68 0 -112.5 -54t-44.5 -136z" />
<glyph unicode="&#xbb;" horiz-adv-x="1044" d="M80 123l295 391q-13 15 -295 391l141 41q78 -88 186 -210q126 -141 153.5 -170.5t49.5 -47.5v-8q-12 -10 -22 -20t-36.5 -39.5t-58.5 -66t-107.5 -120.5t-164.5 -182zM481 123l293 391q-13 15 -293 391l142 41q78 -88 186 -210q126 -141 153.5 -170.5t49.5 -47.5v-8 q-12 -10 -22 -20t-36.5 -39.5t-58.5 -66t-107.5 -120.5t-164.5 -182z" />
<glyph unicode="&#xbc;" horiz-adv-x="1738" d="M90 541v141h189v545h-173v141h365v-686h172v-141h-553zM432 0l815 1417l135 -57l-782 -1360h-168zM997 311l340 520h219v-503h115v-144h-115v-184h-184v184h-358zM1163 328h209v317z" />
<glyph unicode="&#xbd;" horiz-adv-x="1822" d="M88 541v141h188v545h-172v141h365v-686h172v-141h-553zM469 0l815 1417l135 -57l-782 -1360h-168zM1149 113q23 22 70.5 66t74 69.5t66 64.5t62 67.5t45.5 62.5t33.5 65t10.5 59q0 52 -30.5 77.5t-83.5 25.5q-37 0 -74 -15.5t-55 -30.5l-19 -16l-98 121q4 5 12 12.5 t34.5 27t57 34.5t78.5 27t99 12q124 0 200 -67.5t76 -180.5q0 -94 -63.5 -199t-214.5 -245h323v-150h-590z" />
<glyph unicode="&#xbe;" horiz-adv-x="1751" d="M72 600l82 135q8 -6 23 -15t57.5 -23.5t80.5 -14.5q60 0 92.5 29.5t32.5 70.5q0 47 -45 69.5t-106 22.5h-70v150q70 2 127 38t57 91q0 68 -81 68q-35 0 -71 -11.5t-55 -23.5l-18 -12l-80 122q5 3 13 9t35.5 21t57 26t73.5 20.5t88 9.5q113 0 179 -55.5t66 -138.5 q0 -73 -49 -131t-115 -80q201 -43 201 -193q0 -106 -90 -183t-229 -77q-68 0 -132 19t-94 38zM444 0l816 1417l135 -57l-783 -1360h-168zM1010 311l340 520h219v-503h114v-144h-114v-184h-185v184h-358zM1176 328h208v317z" />
<glyph unicode="&#xbf;" horiz-adv-x="778" d="M68 -66q0 43 22.5 87.5t56 80t73 79t73 84t56 95t22.5 111.5h207q4 -24 4 -49q0 -63 -24 -124t-58 -106.5t-68 -85.5t-58 -76t-24 -63q0 -33 36.5 -71t88 -68.5t103 -56.5t88.5 -40l36 -14l-57 -227q-12 3 -33 9.5t-80.5 29t-114 47.5t-121.5 64.5t-114.5 81.5t-80.5 98 t-33 114zM311 799q0 65 47 111t113 46q63 0 109.5 -46.5t46.5 -110.5t-46.5 -111t-109.5 -47q-66 0 -113 46.5t-47 111.5z" />
<glyph unicode="&#xc0;" horiz-adv-x="1300" d="M10 0l514 1376h252l514 -1376h-268l-111 307h-528l-111 -307h-262zM362 1593l72 189l443 -195l-52 -137zM461 526h370l-184 516z" />
<glyph unicode="&#xc1;" horiz-adv-x="1300" d="M10 0l514 1376h252l514 -1376h-268l-111 307h-528l-111 -307h-262zM418 1587l442 195l72 -189l-465 -143zM461 526h370l-184 516z" />
<glyph unicode="&#xc2;" horiz-adv-x="1300" d="M10 0l514 1376h252l514 -1376h-268l-111 307h-528l-111 -307h-262zM287 1559l258 225h200l256 -225l-131 -89l-225 181l-225 -181zM461 526h370l-184 516z" />
<glyph unicode="&#xc3;" horiz-adv-x="1300" d="M10 0l514 1376h252l514 -1376h-268l-111 307h-528l-111 -307h-262zM260 1522q0 28 3.5 54.5t17.5 63t36.5 63t65.5 45.5t100 19q60 0 112.5 -20.5t82.5 -45t65 -45t64 -20.5q67 0 67 107v20h158v-30q0 -27 -3.5 -54t-17 -65t-36.5 -65.5t-67 -47.5t-103 -20 q-61 0 -111.5 20.5t-77.5 45t-60.5 45t-63.5 20.5q-74 0 -74 -105l2 -18h-158q-2 13 -2 33zM461 526h370l-184 516z" />
<glyph unicode="&#xc4;" horiz-adv-x="1300" d="M10 0l514 1376h252l514 -1376h-268l-111 307h-528l-111 -307h-262zM250 1626q0 61 39 98t100 37q62 0 101.5 -37t39.5 -98q0 -60 -39.5 -97.5t-101.5 -37.5q-60 0 -99.5 37.5t-39.5 97.5zM461 526h370l-184 516zM762 1626q0 61 39.5 98t101.5 37q61 0 100 -37t39 -98 q0 -60 -39.5 -97.5t-99.5 -37.5q-62 0 -101.5 37.5t-39.5 97.5z" />
<glyph unicode="&#xc5;" horiz-adv-x="1300" d="M10 0l514 1376h252l514 -1376h-268l-111 307h-528l-111 -307h-262zM438 1622q0 66 52.5 114t154.5 48t154.5 -48t52.5 -114q0 -74 -52 -123t-155 -49t-155 49t-52 123zM461 526h370l-184 516zM553 1620q0 -38 24 -63t68 -25q43 0 68.5 25t25.5 63q0 32 -25 57t-69 25 q-46 0 -69 -24.5t-23 -57.5z" />
<glyph unicode="&#xc6;" horiz-adv-x="1843" d="M-23 0l771 1366h1001v-221h-598v-342h471v-219h-471v-363h612v-221h-874v379h-420l-209 -379h-283zM592 600h297v537z" />
<glyph unicode="&#xc7;" horiz-adv-x="1384" d="M82 662q0 153 54 286t151 231.5t241.5 155t317.5 56.5q85 0 165 -11.5t133.5 -28.5t94.5 -33.5t61 -27.5l19 -12l-100 -223q-6 4 -16.5 11.5t-47.5 25.5t-78 32t-106.5 25.5t-134.5 11.5q-221 0 -352.5 -134.5t-131.5 -342.5q0 -145 66 -255.5t174 -167t239 -56.5 q68 0 134.5 13t112.5 31.5t82 36.5t54 31l17 13l106 -193q-7 -6 -20.5 -16.5t-61 -38t-101.5 -48.5t-142 -39t-183 -20l-6 -14q-18 -41 -18 -55q0 -18 18.5 -31t45 -24.5t53 -26t45 -43.5t18.5 -70q0 -83 -69 -139.5t-179 -56.5q-56 0 -108 15.5t-75 31.5l-24 16l50 115 q8 -7 21.5 -17t54.5 -26.5t79 -16.5q42 0 69 16t27 40q0 22 -27 40.5t-59 30.5t-59 37t-27 58q0 30 33 98l15 29q-132 15 -245.5 68.5t-198 139t-133 207t-48.5 265.5z" />
<glyph unicode="&#xc8;" horiz-adv-x="1126" d="M170 0v1366h862v-221h-598v-342h471v-219h-471v-363h613v-221h-877zM326 1593l71 189l443 -195l-52 -137z" />
<glyph unicode="&#xc9;" horiz-adv-x="1126" d="M170 0v1366h862v-221h-598v-342h471v-219h-471v-363h613v-221h-877zM383 1587l442 195l72 -189l-465 -143z" />
<glyph unicode="&#xca;" horiz-adv-x="1126" d="M170 0v1366h862v-221h-598v-342h471v-219h-471v-363h613v-221h-877zM252 1559l258 225h201l256 -225l-131 -89l-226 181l-225 -181z" />
<glyph unicode="&#xcb;" horiz-adv-x="1126" d="M170 0v1366h862v-221h-598v-342h471v-219h-471v-363h613v-221h-877zM215 1626q0 61 39 98t100 37q62 0 102 -37t40 -98q0 -60 -40 -97.5t-102 -37.5q-60 0 -99.5 37.5t-39.5 97.5zM727 1626q0 61 39.5 98t101.5 37q61 0 100.5 -37t39.5 -98q0 -60 -39.5 -97.5 t-100.5 -37.5q-62 0 -101.5 37.5t-39.5 97.5z" />
<glyph unicode="&#xcc;" horiz-adv-x="604" d="M23 1593l71 189l443 -195l-52 -137zM170 0v1366h264v-1366h-264z" />
<glyph unicode="&#xcd;" horiz-adv-x="604" d="M78 1587l442 195l72 -189l-465 -143zM170 0v1366h264v-1366h-264z" />
<glyph unicode="&#xce;" horiz-adv-x="604" d="M-53 1559l258 225h201l256 -225l-132 -89l-225 181l-225 -181zM170 0v1366h264v-1366h-264z" />
<glyph unicode="&#xcf;" horiz-adv-x="604" d="M-47 1630q0 60 37.5 95.5t97.5 35.5q62 0 99.5 -35.5t37.5 -95.5t-37.5 -95.5t-99.5 -35.5q-60 0 -97.5 35.5t-37.5 95.5zM170 0v1366h264v-1366h-264zM389 1630q0 60 37.5 95.5t97.5 35.5q62 0 100 -35.5t38 -95.5t-38 -95.5t-100 -35.5q-60 0 -97.5 35.5t-37.5 95.5z " />
<glyph unicode="&#xd0;" horiz-adv-x="1521" d="M53 592v203h148v571h485q115 0 220 -21.5t203 -72t169.5 -125t114.5 -188t43 -254.5q0 -225 -106 -385.5t-291 -240t-431 -79.5h-407v592h-148zM465 221h123q151 0 263.5 36t179 101t98.5 148.5t32 185.5q0 208 -129 330.5t-375 122.5h-192v-350h315v-203h-315v-371z" />
<glyph unicode="&#xd1;" horiz-adv-x="1529" d="M170 0v1366h266l666 -963v963h258v-1366h-268l-664 956v-956h-258zM379 1522q0 28 3.5 54.5t17.5 63t36.5 63t65.5 45.5t100 19q60 0 112.5 -20.5t82.5 -45t65 -45t64 -20.5q67 0 67 107v20h158v-30q0 -27 -3.5 -54t-17 -65t-36.5 -65.5t-67 -47.5t-103 -20 q-61 0 -111.5 20.5t-78 45t-61 45t-63.5 20.5q-73 0 -73 -105l2 -18h-158q-2 13 -2 33z" />
<glyph unicode="&#xd2;" d="M78 680q0 108 31 211t93.5 193.5t150 159t209.5 108t263 39.5q166 0 306 -54t233.5 -147t145 -217t51.5 -264q0 -142 -54 -274.5t-149.5 -234.5t-239 -163.5t-311.5 -61.5q-164 0 -303 57.5t-231 155t-143.5 225t-51.5 267.5zM354 688q0 -89 29.5 -175t85 -156.5 t145 -114t199.5 -43.5q109 0 200 41.5t150 111t91 157.5t32 183q0 74 -19 143t-58 129.5t-93.5 105.5t-130.5 71t-164 26q-110 0 -200 -40t-147.5 -107.5t-88.5 -153t-31 -178.5zM535 1593l71 189l443 -195l-52 -137z" />
<glyph unicode="&#xd3;" d="M78 680q0 108 31 211t93.5 193.5t150 159t209.5 108t263 39.5q166 0 306 -54t233.5 -147t145 -217t51.5 -264q0 -142 -54 -274.5t-149.5 -234.5t-239 -163.5t-311.5 -61.5q-164 0 -303 57.5t-231 155t-143.5 225t-51.5 267.5zM354 688q0 -89 29.5 -175t85 -156.5 t145 -114t199.5 -43.5q109 0 200 41.5t150 111t91 157.5t32 183q0 74 -19 143t-58 129.5t-93.5 105.5t-130.5 71t-164 26q-110 0 -200 -40t-147.5 -107.5t-88.5 -153t-31 -178.5zM592 1587l442 195l72 -189l-465 -143z" />
<glyph unicode="&#xd4;" d="M78 680q0 108 31 211t93.5 193.5t150 159t209.5 108t263 39.5q166 0 306 -54t233.5 -147t145 -217t51.5 -264q0 -142 -54 -274.5t-149.5 -234.5t-239 -163.5t-311.5 -61.5q-164 0 -303 57.5t-231 155t-143.5 225t-51.5 267.5zM354 688q0 -89 29.5 -175t85 -156.5 t145 -114t199.5 -43.5q109 0 200 41.5t150 111t91 157.5t32 183q0 74 -19 143t-58 129.5t-93.5 105.5t-130.5 71t-164 26q-110 0 -200 -40t-147.5 -107.5t-88.5 -153t-31 -178.5zM461 1559l258 225h201l256 -225l-132 -89l-225 181l-225 -181z" />
<glyph unicode="&#xd5;" d="M78 680q0 108 31 211t93.5 193.5t150 159t209.5 108t263 39.5q166 0 306 -54t233.5 -147t145 -217t51.5 -264q0 -142 -54 -274.5t-149.5 -234.5t-239 -163.5t-311.5 -61.5q-164 0 -303 57.5t-231 155t-143.5 225t-51.5 267.5zM354 688q0 -89 29.5 -175t85 -156.5 t145 -114t199.5 -43.5q109 0 200 41.5t150 111t91 157.5t32 183q0 74 -19 143t-58 129.5t-93.5 105.5t-130.5 71t-164 26q-110 0 -200 -40t-147.5 -107.5t-88.5 -153t-31 -178.5zM434 1522q0 28 3.5 54.5t17.5 63t36.5 63t65.5 45.5t100 19q60 0 112.5 -20.5t82.5 -45 t65 -45t64 -20.5q68 0 68 107v20h157v-30q0 -27 -3.5 -54t-17 -65t-36.5 -65.5t-67 -47.5t-103 -20q-61 0 -111.5 20.5t-77.5 45t-60.5 45t-63.5 20.5q-74 0 -74 -105l2 -18h-158q-2 13 -2 33z" />
<glyph unicode="&#xd6;" d="M78 680q0 108 31 211t93.5 193.5t150 159t209.5 108t263 39.5q166 0 306 -54t233.5 -147t145 -217t51.5 -264q0 -142 -54 -274.5t-149.5 -234.5t-239 -163.5t-311.5 -61.5q-164 0 -303 57.5t-231 155t-143.5 225t-51.5 267.5zM354 688q0 -89 29.5 -175t85 -156.5 t145 -114t199.5 -43.5q109 0 200 41.5t150 111t91 157.5t32 183q0 74 -19 143t-58 129.5t-93.5 105.5t-130.5 71t-164 26q-110 0 -200 -40t-147.5 -107.5t-88.5 -153t-31 -178.5zM424 1626q0 61 39 98t100 37q62 0 102 -37t40 -98q0 -60 -40 -97.5t-102 -37.5 q-60 0 -99.5 37.5t-39.5 97.5zM936 1626q0 61 39.5 98t101.5 37q61 0 100.5 -37t39.5 -98q0 -60 -39.5 -97.5t-100.5 -37.5q-62 0 -101.5 37.5t-39.5 97.5z" />
<glyph unicode="&#xd7;" horiz-adv-x="1064" d="M72 160l348 358l-348 361l110 114l350 -360l351 360l110 -114l-350 -361l350 -358l-112 -115l-349 358l-348 -358z" />
<glyph unicode="&#xd8;" d="M78 680q0 108 31 211t93.5 193.5t150 159t209.5 108t263 39.5q211 0 377 -86l94 122h162l-145 -192q119 -94 183.5 -231t64.5 -295q0 -142 -54 -274.5t-149.5 -234.5t-239 -163.5t-311.5 -61.5q-210 0 -381 95l-100 -131h-164l157 206q-116 98 -178.5 237.5t-62.5 297.5z M354 688q0 -92 30.5 -181.5t88.5 -158.5l582 762q-97 57 -234 57q-110 0 -200 -40t-147.5 -107.5t-88.5 -153t-31 -178.5zM571 264q105 -65 242 -65q109 0 200 41.5t150 111t91 157.5t32 183t-33.5 184t-95.5 156z" />
<glyph unicode="&#xd9;" horiz-adv-x="1458" d="M154 512v854h264v-827q0 -177 84 -258.5t229 -81.5q144 0 227.5 85t83.5 246v836h265v-825q0 -135 -45.5 -243.5t-124.5 -178.5t-183.5 -107t-224.5 -37q-98 0 -182 18t-157 59t-125 102.5t-81.5 152.5t-29.5 205zM444 1593l72 189l442 -195l-51 -137z" />
<glyph unicode="&#xda;" horiz-adv-x="1458" d="M154 512v854h264v-827q0 -177 84 -258.5t229 -81.5q144 0 227.5 85t83.5 246v836h265v-825q0 -135 -45.5 -243.5t-124.5 -178.5t-183.5 -107t-224.5 -37q-98 0 -182 18t-157 59t-125 102.5t-81.5 152.5t-29.5 205zM502 1587l442 195l72 -189l-465 -143z" />
<glyph unicode="&#xdb;" horiz-adv-x="1458" d="M154 512v854h264v-827q0 -177 84 -258.5t229 -81.5q144 0 227.5 85t83.5 246v836h265v-825q0 -135 -45.5 -243.5t-124.5 -178.5t-183.5 -107t-224.5 -37q-98 0 -182 18t-157 59t-125 102.5t-81.5 152.5t-29.5 205zM371 1559l258 225h200l256 -225l-131 -89l-225 181 l-225 -181z" />
<glyph unicode="&#xdc;" horiz-adv-x="1458" d="M154 512v854h264v-827q0 -177 84 -258.5t229 -81.5q144 0 227.5 85t83.5 246v836h265v-825q0 -135 -45.5 -243.5t-124.5 -178.5t-183.5 -107t-224.5 -37q-98 0 -182 18t-157 59t-125 102.5t-81.5 152.5t-29.5 205zM334 1626q0 61 39 98t100 37q62 0 101.5 -37t39.5 -98 q0 -60 -39.5 -97.5t-101.5 -37.5q-60 0 -99.5 37.5t-39.5 97.5zM846 1626q0 61 39.5 98t101.5 37q61 0 100 -37t39 -98q0 -60 -39.5 -97.5t-99.5 -37.5q-62 0 -101.5 37.5t-39.5 97.5z" />
<glyph unicode="&#xdd;" horiz-adv-x="1245" d="M-2 1366h309l316 -535l325 535h299l-491 -795v-571h-264v569zM395 1587l443 195l71 -189l-465 -143z" />
<glyph unicode="&#xde;" horiz-adv-x="1191" d="M170 0v1366h264v-281h234q125 0 218.5 -30.5t148 -84t80.5 -120.5t26 -148q0 -194 -129.5 -305.5t-343.5 -111.5h-234v-285h-264zM434 506h193q127 0 183 46.5t56 135.5q0 83 -52.5 130.5t-186.5 47.5h-193v-360z" />
<glyph unicode="&#xdf;" horiz-adv-x="1222" d="M45 750v137l145 51v72q0 228 114.5 351.5t332.5 123.5q182 0 288.5 -83.5t106.5 -221.5q0 -57 -19 -107t-46.5 -86t-55 -68.5t-46.5 -68t-19 -70.5t18.5 -67.5t48 -58.5t65 -53t71 -57.5t65 -65.5t48 -83.5t18.5 -105.5q0 -139 -105 -226.5t-282 -87.5q-65 0 -123.5 13 t-84.5 26l-26 13l37 202q9 -7 24 -16.5t61.5 -26t90.5 -16.5q67 0 105 33t38 84q0 37 -22.5 69t-55.5 54t-72.5 52.5t-72.5 62.5t-55.5 85t-22.5 119q0 61 17.5 111.5t43 84.5t51 65.5t43 70.5t17.5 84q0 77 -45 113t-112 36q-183 0 -183 -276v-1018h-256v750h-145z" />
<glyph unicode="&#xe0;" horiz-adv-x="1007" d="M53 219q0 289 545 361v32q0 77 -25 115.5t-104 38.5q-67 0 -140.5 -28t-114.5 -56l-40 -27l-61 181q7 5 19.5 13t55 28.5t89 36.5t118.5 29t146 13q175 0 244 -72t69 -231v-360q0 -31 10.5 -53t26 -32.5t31 -16.5t26.5 -7h10l-73 -198q-196 5 -260 137 q-11 -16 -23.5 -31.5t-39 -38t-56.5 -38.5t-75.5 -28t-96.5 -12q-126 0 -203.5 69t-77.5 175zM145 1448h242l211 -334l-135 -74zM313 240q0 -40 25 -59t65 -19q94 0 195 121v149q-149 -21 -217 -69t-68 -123z" />
<glyph unicode="&#xe1;" horiz-adv-x="1007" d="M53 219q0 289 545 361v32q0 77 -25 115.5t-104 38.5q-67 0 -140.5 -28t-114.5 -56l-40 -27l-61 181q7 5 19.5 13t55 28.5t89 36.5t118.5 29t146 13q175 0 244 -72t69 -231v-360q0 -31 10.5 -53t26 -32.5t31 -16.5t26.5 -7h10l-73 -198q-196 5 -260 137 q-11 -16 -23.5 -31.5t-39 -38t-56.5 -38.5t-75.5 -28t-96.5 -12q-126 0 -203.5 69t-77.5 175zM313 240q0 -40 25 -59t65 -19q94 0 195 121v149q-149 -21 -217 -69t-68 -123zM350 1114l211 334h244l-318 -408z" />
<glyph unicode="&#xe2;" horiz-adv-x="1007" d="M53 219q0 289 545 361v32q0 77 -25 115.5t-104 38.5q-67 0 -140.5 -28t-114.5 -56l-40 -27l-61 181q7 5 19.5 13t55 28.5t89 36.5t118.5 29t146 13q175 0 244 -72t69 -231v-360q0 -31 10.5 -53t26 -32.5t31 -16.5t26.5 -7h10l-73 -198q-196 5 -260 137 q-11 -16 -23.5 -31.5t-39 -38t-56.5 -38.5t-75.5 -28t-96.5 -12q-126 0 -203.5 69t-77.5 175zM162 1098l235 350h158l233 -352l-139 -58l-174 244l-172 -244zM313 240q0 -40 25 -59t65 -19q94 0 195 121v149q-149 -21 -217 -69t-68 -123z" />
<glyph unicode="&#xe3;" horiz-adv-x="1007" d="M53 219q0 289 545 361v32q0 77 -25 115.5t-104 38.5q-67 0 -140.5 -28t-114.5 -56l-40 -27l-61 181q7 5 19.5 13t55 28.5t89 36.5t118.5 29t146 13q175 0 244 -72t69 -231v-360q0 -31 10.5 -53t26 -32.5t31 -16.5t26.5 -7h10l-73 -198q-196 5 -260 137 q-11 -16 -23.5 -31.5t-39 -38t-56.5 -38.5t-75.5 -28t-96.5 -12q-126 0 -203.5 69t-77.5 175zM127 1151q0 28 3 56t16 66.5t34 66.5t61 48.5t93 20.5q46 0 84.5 -16t64 -39t47.5 -46t44 -39t44 -16q60 0 60 117v25h156v-29q0 -28 -3 -56.5t-16 -68t-34.5 -68.5t-63 -50 t-96.5 -21q-46 0 -83.5 16t-61.5 39t-44.5 45.5t-42.5 38.5t-45 16q-59 0 -59 -118v-19h-156q-2 13 -2 31zM313 240q0 -40 25 -59t65 -19q94 0 195 121v149q-149 -21 -217 -69t-68 -123z" />
<glyph unicode="&#xe4;" horiz-adv-x="1007" d="M53 219q0 289 545 361v32q0 77 -25 115.5t-104 38.5q-67 0 -140.5 -28t-114.5 -56l-40 -27l-61 181q7 5 19.5 13t55 28.5t89 36.5t118.5 29t146 13q175 0 244 -72t69 -231v-360q0 -31 10.5 -53t26 -32.5t31 -16.5t26.5 -7h10l-73 -198q-196 5 -260 137 q-11 -16 -23.5 -31.5t-39 -38t-56.5 -38.5t-75.5 -28t-96.5 -12q-126 0 -203.5 69t-77.5 175zM121 1276q0 60 37.5 95.5t97.5 35.5q62 0 99.5 -35.5t37.5 -95.5t-37.5 -95.5t-99.5 -35.5q-60 0 -97.5 35.5t-37.5 95.5zM313 240q0 -40 25 -59t65 -19q94 0 195 121v149 q-149 -21 -217 -69t-68 -123zM557 1276q0 60 37.5 95.5t97.5 35.5q62 0 99.5 -35.5t37.5 -95.5t-37.5 -95.5t-99.5 -35.5q-60 0 -97.5 35.5t-37.5 95.5z" />
<glyph unicode="&#xe5;" horiz-adv-x="1007" d="M53 219q0 289 545 361v32q0 77 -25 115.5t-104 38.5q-67 0 -140.5 -28t-114.5 -56l-40 -27l-61 181q7 5 19.5 13t55 28.5t89 36.5t118.5 29t146 13q175 0 244 -72t69 -231v-360q0 -31 10.5 -53t26 -32.5t31 -16.5t26.5 -7h10l-73 -198q-196 5 -260 137 q-11 -16 -23.5 -31.5t-39 -38t-56.5 -38.5t-75.5 -28t-96.5 -12q-126 0 -203.5 69t-77.5 175zM268 1282q0 71 53 125.5t154 54.5t154 -54.5t53 -125.5q0 -72 -53.5 -129t-153.5 -57t-153.5 57t-53.5 129zM313 240q0 -40 25 -59t65 -19q94 0 195 121v149q-149 -21 -217 -69 t-68 -123zM383 1280q0 -36 24.5 -62t67.5 -26q42 0 68 26t26 62q0 35 -24.5 60.5t-69.5 25.5q-46 0 -69 -25t-23 -61z" />
<glyph unicode="&#xe6;" horiz-adv-x="1538" d="M53 219q0 262 557 328v51q0 87 -25 127.5t-106 40.5q-69 0 -145.5 -28t-117.5 -56l-42 -27l-61 181q7 5 19.5 13t54.5 28.5t87.5 36.5t115 29t140.5 13q192 0 254 -118q108 118 277 118q181 0 289.5 -115.5t109.5 -330.5l-139 -41l-463 -57q19 -111 88 -175.5t176 -64.5 q68 0 139 29t107 57l37 29l68 -181q-6 -5 -17.5 -14t-50.5 -31.5t-82 -40t-109.5 -31.5t-134.5 -14q-254 0 -381 195q-40 -76 -130.5 -135.5t-223.5 -59.5q-130 0 -210.5 69t-80.5 175zM313 240q0 -40 28 -59t73 -19q82 0 138 61t56 178q-295 -32 -295 -161zM856 561l328 39 q0 7 -1.5 18t-9.5 39.5t-21.5 50.5t-42.5 40t-67 18q-77 0 -125.5 -56t-60.5 -149z" />
<glyph unicode="&#xe7;" horiz-adv-x="958" d="M66 449q0 99 36.5 190.5t101.5 162t161.5 112.5t209.5 42q59 0 114.5 -9.5t93 -23.5t67 -28t43.5 -23l14 -10l-90 -186q-4 3 -11 9t-30.5 20.5t-48 25.5t-61 20t-72.5 9q-114 0 -189 -80t-75 -217q0 -132 70 -211.5t186 -79.5q64 0 124.5 23.5t89.5 46.5l29 24l78 -172 q-4 -5 -12 -12.5t-37.5 -27.5t-64 -35.5t-92 -29t-121.5 -14.5l-7 -14q-18 -41 -18 -55q0 -18 18.5 -31t45 -24.5t53 -26t45 -43.5t18.5 -70q0 -83 -69 -139.5t-179 -56.5q-56 0 -107.5 15.5t-75.5 31.5l-23 16l49 115q8 -7 21.5 -17t54.5 -26.5t79 -16.5q42 0 69.5 16 t27.5 40q0 22 -27 40.5t-59 30.5t-59 37t-27 58q0 32 32 98l17 33q-180 30 -286.5 158.5t-106.5 304.5z" />
<glyph unicode="&#xe8;" horiz-adv-x="1009" d="M70 461q0 136 56.5 248.5t163 179.5t242.5 67q182 0 290.5 -118.5t109.5 -337.5l-139 -41l-461 -60q22 -105 90 -166t172 -61q68 0 139 29t107 57l37 29l65 -181q-6 -5 -17.5 -14t-50 -31.5t-80.5 -40t-108.5 -31.5t-134.5 -14q-153 0 -264 68.5t-164 177t-53 240.5z M184 1448h242l211 -334l-135 -74zM326 547l329 43q0 7 -1 19t-9.5 42.5t-21.5 53.5t-42 42t-67 19q-80 0 -128.5 -60.5t-59.5 -158.5z" />
<glyph unicode="&#xe9;" horiz-adv-x="1009" d="M70 461q0 136 56.5 248.5t163 179.5t242.5 67q182 0 290.5 -118.5t109.5 -337.5l-139 -41l-461 -60q22 -105 90 -166t172 -61q68 0 139 29t107 57l37 29l65 -181q-6 -5 -17.5 -14t-50 -31.5t-80.5 -40t-108.5 -31.5t-134.5 -14q-153 0 -264 68.5t-164 177t-53 240.5z M326 547l329 43q0 7 -1 19t-9.5 42.5t-21.5 53.5t-42 42t-67 19q-80 0 -128.5 -60.5t-59.5 -158.5zM389 1114l211 334h244l-318 -408z" />
<glyph unicode="&#xea;" horiz-adv-x="1009" d="M70 461q0 136 56.5 248.5t163 179.5t242.5 67q182 0 290.5 -118.5t109.5 -337.5l-139 -41l-461 -60q22 -105 90 -166t172 -61q68 0 139 29t107 57l37 29l65 -181q-6 -5 -17.5 -14t-50 -31.5t-80.5 -40t-108.5 -31.5t-134.5 -14q-153 0 -264 68.5t-164 177t-53 240.5z M203 1098l235 350h158l233 -352l-139 -58l-174 244l-172 -244zM326 547l329 43q0 7 -1 19t-9.5 42.5t-21.5 53.5t-42 42t-67 19q-80 0 -128.5 -60.5t-59.5 -158.5z" />
<glyph unicode="&#xeb;" horiz-adv-x="1009" d="M70 461q0 136 56.5 248.5t163 179.5t242.5 67q182 0 290.5 -118.5t109.5 -337.5l-139 -41l-461 -60q22 -105 90 -166t172 -61q68 0 139 29t107 57l37 29l65 -181q-6 -5 -17.5 -14t-50 -31.5t-80.5 -40t-108.5 -31.5t-134.5 -14q-153 0 -264 68.5t-164 177t-53 240.5z M162 1276q0 60 37.5 95.5t97.5 35.5q62 0 99.5 -35.5t37.5 -95.5t-37.5 -95.5t-99.5 -35.5q-60 0 -97.5 35.5t-37.5 95.5zM326 547l329 43q0 7 -1 19t-9.5 42.5t-21.5 53.5t-42 42t-67 19q-80 0 -128.5 -60.5t-59.5 -158.5zM598 1276q0 60 37.5 95.5t97.5 35.5 q62 0 99.5 -35.5t37.5 -95.5t-37.5 -95.5t-99.5 -35.5q-60 0 -97.5 35.5t-37.5 95.5z" />
<glyph unicode="&#xec;" horiz-adv-x="514" d="M-72 1448h242l211 -334l-135 -74zM129 0v932h256v-932h-256z" />
<glyph unicode="&#xed;" horiz-adv-x="514" d="M129 0v932h256v-932h-256zM133 1114l211 334h244l-318 -408z" />
<glyph unicode="&#xee;" horiz-adv-x="514" d="M-55 1098l235 350h158l233 -352l-139 -58l-174 244l-172 -244zM129 0v932h256v-932h-256z" />
<glyph unicode="&#xef;" horiz-adv-x="514" d="M-96 1276q0 60 37.5 95.5t97.5 35.5q62 0 99.5 -35.5t37.5 -95.5t-37.5 -95.5t-99.5 -35.5q-60 0 -97.5 35.5t-37.5 95.5zM129 0v932h256v-932h-256zM340 1276q0 60 37.5 95.5t97.5 35.5q62 0 99.5 -35.5t37.5 -95.5t-37.5 -95.5t-99.5 -35.5q-60 0 -97.5 35.5 t-37.5 95.5z" />
<glyph unicode="&#xf0;" horiz-adv-x="1120" d="M68 444q0 76 20.5 150.5t60 139.5t94 115t127.5 78.5t154 28.5q134 0 201 -67q-67 153 -203 266l-270 -154l-70 129l201 113q-100 57 -248 94l47 185q231 -43 410 -158l297 168l67 -131l-237 -135q148 -132 228.5 -309t80.5 -379q0 -172 -57.5 -307.5t-171.5 -215.5 t-269 -80q-109 0 -198 39t-146 104.5t-87.5 149t-30.5 176.5zM319 463q0 -52 12.5 -102t37.5 -95t69.5 -72.5t100.5 -27.5q106 0 175.5 91.5t69.5 289.5q0 94 -50 156.5t-150 62.5q-116 0 -190.5 -86t-74.5 -217z" />
<glyph unicode="&#xf1;" horiz-adv-x="1095" d="M125 0v911l246 41v-172q163 176 352 176q121 0 186.5 -72.5t65.5 -219.5v-664h-254v555q0 96 -21 138t-73 42q-99 0 -246 -147v-588h-256zM213 1151q0 28 3 56t16 66.5t34 66.5t61 48.5t93 20.5q46 0 84.5 -16t64.5 -39t48 -46t44 -39t44 -16q59 0 59 117v25h156v-29 q0 -28 -3 -56.5t-16 -68t-34.5 -68.5t-63 -50t-96.5 -21q-46 0 -83.5 16t-61.5 39t-44.5 45.5t-42.5 38.5t-45 16q-59 0 -59 -118v-19h-156q-2 13 -2 31z" />
<glyph unicode="&#xf2;" horiz-adv-x="1142" d="M68 463q0 72 17.5 141t57 133t97 112.5t144 77.5t191.5 29q121 0 218.5 -40t157.5 -106.5t92 -150t32 -174.5q0 -70 -17 -139.5t-56.5 -137t-96.5 -119t-144.5 -83t-193.5 -31.5q-121 0 -218 41t-157.5 110t-92 155t-31.5 182zM244 1448h241l211 -334l-135 -74zM332 481 q0 -131 62.5 -223t178.5 -92q102 0 170 82t68 211q0 78 -24.5 145.5t-80.5 114.5t-135 47q-103 0 -171 -80.5t-68 -204.5z" />
<glyph unicode="&#xf3;" horiz-adv-x="1142" d="M68 463q0 72 17.5 141t57 133t97 112.5t144 77.5t191.5 29q121 0 218.5 -40t157.5 -106.5t92 -150t32 -174.5q0 -70 -17 -139.5t-56.5 -137t-96.5 -119t-144.5 -83t-193.5 -31.5q-121 0 -218 41t-157.5 110t-92 155t-31.5 182zM332 481q0 -131 62.5 -223t178.5 -92 q102 0 170 82t68 211q0 78 -24.5 145.5t-80.5 114.5t-135 47q-103 0 -171 -80.5t-68 -204.5zM446 1114l211 334h244l-317 -408z" />
<glyph unicode="&#xf4;" horiz-adv-x="1142" d="M68 463q0 72 17.5 141t57 133t97 112.5t144 77.5t191.5 29q121 0 218.5 -40t157.5 -106.5t92 -150t32 -174.5q0 -70 -17 -139.5t-56.5 -137t-96.5 -119t-144.5 -83t-193.5 -31.5q-121 0 -218 41t-157.5 110t-92 155t-31.5 182zM258 1098l236 350h157l234 -352l-140 -58 l-174 244l-172 -244zM332 481q0 -131 62.5 -223t178.5 -92q102 0 170 82t68 211q0 78 -24.5 145.5t-80.5 114.5t-135 47q-103 0 -171 -80.5t-68 -204.5z" />
<glyph unicode="&#xf5;" horiz-adv-x="1142" d="M68 463q0 72 17.5 141t57 133t97 112.5t144 77.5t191.5 29q121 0 218.5 -40t157.5 -106.5t92 -150t32 -174.5q0 -70 -17 -139.5t-56.5 -137t-96.5 -119t-144.5 -83t-193.5 -31.5q-121 0 -218 41t-157.5 110t-92 155t-31.5 182zM223 1151q0 28 3 56t16 66.5t34 66.5 t61 48.5t93 20.5q46 0 84.5 -16t64.5 -39t48 -46t44 -39t44 -16q59 0 59 117v25h156v-29q0 -28 -3 -56.5t-16 -68t-34.5 -68.5t-63 -50t-96.5 -21q-46 0 -83.5 16t-61.5 39t-44.5 45.5t-42.5 38.5t-45 16q-59 0 -59 -118v-19h-156q-2 13 -2 31zM332 481q0 -131 62.5 -223 t178.5 -92q102 0 170 82t68 211q0 78 -24.5 145.5t-80.5 114.5t-135 47q-103 0 -171 -80.5t-68 -204.5z" />
<glyph unicode="&#xf6;" horiz-adv-x="1142" d="M68 463q0 72 17.5 141t57 133t97 112.5t144 77.5t191.5 29q121 0 218.5 -40t157.5 -106.5t92 -150t32 -174.5q0 -70 -17 -139.5t-56.5 -137t-96.5 -119t-144.5 -83t-193.5 -31.5q-121 0 -218 41t-157.5 110t-92 155t-31.5 182zM217 1276q0 60 37.5 95.5t97.5 35.5 q62 0 99.5 -35.5t37.5 -95.5t-37.5 -95.5t-99.5 -35.5q-60 0 -97.5 35.5t-37.5 95.5zM332 481q0 -131 62.5 -223t178.5 -92q102 0 170 82t68 211q0 78 -24.5 145.5t-80.5 114.5t-135 47q-103 0 -171 -80.5t-68 -204.5zM653 1276q0 60 37.5 95.5t97.5 35.5q62 0 100 -35.5 t38 -95.5t-38 -95.5t-100 -35.5q-60 0 -97.5 35.5t-37.5 95.5z" />
<glyph unicode="&#xf7;" horiz-adv-x="1064" d="M74 436v166h917v-166h-917zM391 135q0 60 41 102t100 42q60 0 102 -42t42 -102q0 -59 -42 -100t-102 -41q-58 0 -99.5 41t-41.5 100zM391 901q0 59 41.5 101t99.5 42q60 0 102 -42t42 -101t-42 -101t-102 -42q-58 0 -99.5 42t-41.5 101z" />
<glyph unicode="&#xf8;" horiz-adv-x="1142" d="M68 463q0 72 17.5 141t57 133t97 112.5t144 77.5t191.5 29q139 0 244 -51l68 88h143l-115 -151q78 -66 119 -160.5t41 -196.5q0 -70 -17 -139.5t-56.5 -137t-96.5 -119t-144.5 -83t-193.5 -31.5q-140 0 -252 56l-69 -92h-146l119 159q-75 67 -113 162.5t-38 202.5z M332 481q0 -104 37 -182l321 430q-49 37 -119 37q-103 0 -171 -80.5t-68 -204.5zM444 205q55 -39 129 -39q102 0 170 82t68 211q0 102 -43 184z" />
<glyph unicode="&#xf9;" horiz-adv-x="1095" d="M119 256v676h256v-555q0 -95 19.5 -137.5t76.5 -42.5q92 0 236 127v608h254v-647q0 -50 10 -120.5t20 -115.5l10 -45l-245 -22q-21 89 -29 157q-62 -65 -152 -114.5t-200 -49.5q-117 0 -186.5 69t-69.5 212zM211 1448h242l211 -334l-136 -74z" />
<glyph unicode="&#xfa;" horiz-adv-x="1095" d="M119 256v676h256v-555q0 -95 19.5 -137.5t76.5 -42.5q92 0 236 127v608h254v-647q0 -50 10 -120.5t20 -115.5l10 -45l-245 -22q-21 89 -29 157q-62 -65 -152 -114.5t-200 -49.5q-117 0 -186.5 69t-69.5 212zM416 1114l211 334h243l-317 -408z" />
<glyph unicode="&#xfb;" horiz-adv-x="1095" d="M119 256v676h256v-555q0 -95 19.5 -137.5t76.5 -42.5q92 0 236 127v608h254v-647q0 -50 10 -120.5t20 -115.5l10 -45l-245 -22q-21 89 -29 157q-62 -65 -152 -114.5t-200 -49.5q-117 0 -186.5 69t-69.5 212zM225 1098l236 350h157l234 -352l-139 -58l-174 244l-172 -244z " />
<glyph unicode="&#xfc;" horiz-adv-x="1095" d="M119 256v676h256v-555q0 -95 19.5 -137.5t76.5 -42.5q92 0 236 127v608h254v-647q0 -50 10 -120.5t20 -115.5l10 -45l-245 -22q-21 89 -29 157q-62 -65 -152 -114.5t-200 -49.5q-117 0 -186.5 69t-69.5 212zM184 1276q0 60 37.5 95.5t97.5 35.5q62 0 100 -35.5t38 -95.5 t-38 -95.5t-100 -35.5q-60 0 -97.5 35.5t-37.5 95.5zM621 1276q0 60 37.5 95.5t97.5 35.5q62 0 99.5 -35.5t37.5 -95.5t-37.5 -95.5t-99.5 -35.5q-60 0 -97.5 35.5t-37.5 95.5z" />
<glyph unicode="&#xfd;" horiz-adv-x="972" d="M8 932h266l218 -610l213 610h258l-388 -1000q-30 -76 -74.5 -144.5t-103.5 -128t-136.5 -98t-162.5 -46.5l-78 196q100 12 189 80.5t125 155.5l33 78zM367 1114l211 334h243l-317 -408z" />
<glyph unicode="&#xfe;" horiz-adv-x="1105" d="M129 -481v1908l256 41v-659q35 66 99.5 106.5t158.5 40.5q119 0 209.5 -63t136 -166.5t45.5 -230.5q0 -81 -19 -156.5t-58 -142t-94 -116t-132.5 -78t-167.5 -28.5q-116 0 -178 39v-454zM385 252q0 -42 36.5 -64t98.5 -22q113 0 181.5 80.5t68.5 232.5q0 129 -48.5 203 t-127.5 74q-112 0 -209 -140v-364z" />
<glyph unicode="&#xff;" horiz-adv-x="972" d="M8 932h266l218 -610l213 610h258l-388 -1000q-30 -76 -74.5 -144.5t-103.5 -128t-136.5 -98t-162.5 -46.5l-78 196q100 12 189 80.5t125 155.5l33 78zM137 1276q0 60 37.5 95.5t97.5 35.5q62 0 100 -35.5t38 -95.5t-38 -95.5t-100 -35.5q-60 0 -97.5 35.5t-37.5 95.5z M573 1276q0 59 37.5 95t98.5 36q62 0 99.5 -35.5t37.5 -95.5t-37.5 -95.5t-99.5 -35.5q-61 0 -98.5 36t-37.5 95z" />
<glyph unicode="&#x152;" horiz-adv-x="2027" d="M78 680q0 108 31 211t93.5 193.5t150 159t209.5 108t263 39.5q134 0 256 -25h852v-221h-598v-342h471v-219h-471v-363h613v-221h-877q-143 -25 -264 -25q-164 0 -303 57.5t-231 155t-143.5 225t-51.5 267.5zM354 688q0 -89 29.5 -174.5t85 -156.5t145 -114.5t199.5 -43.5 q154 0 258 26v905q-109 37 -250 37q-110 0 -200 -40t-147.5 -107.5t-88.5 -153t-31 -178.5z" />
<glyph unicode="&#x153;" horiz-adv-x="1746" d="M68 463q0 72 17.5 141t57 133t97 112.5t144 77.5t191.5 29q233 0 365 -168q126 168 330 168q181 0 289.5 -118.5t109.5 -337.5l-139 -41l-461 -60q22 -105 90 -166t172 -61q68 0 139 29t108 57l36 29l65 -181q-6 -5 -17.5 -14t-50 -31.5t-80.5 -40t-108.5 -31.5 t-134.5 -14q-226 0 -352 168q-131 -168 -369 -168q-121 0 -218 41t-157.5 110t-92 155t-31.5 182zM332 481q0 -131 62.5 -223t178.5 -92q102 0 170 82t68 211q0 78 -24.5 145.5t-80.5 114.5t-135 47q-103 0 -171 -80.5t-68 -204.5zM1063 549l330 41q0 7 -1.5 19t-9.5 42.5 t-21.5 53.5t-42.5 42t-67 19q-80 0 -128.5 -59.5t-59.5 -157.5z" />
<glyph unicode="&#x178;" horiz-adv-x="1245" d="M-2 1366h309l316 -535l325 535h299l-491 -795v-571h-264v569zM227 1626q0 61 39.5 98t100.5 37q62 0 101.5 -37t39.5 -98q0 -60 -39.5 -97.5t-101.5 -37.5q-61 0 -100.5 37.5t-39.5 97.5zM739 1626q0 61 40 98t102 37q61 0 100 -37t39 -98q0 -60 -39.5 -97.5t-99.5 -37.5 q-62 0 -102 37.5t-40 97.5z" />
<glyph unicode="&#x2c6;" horiz-adv-x="1044" d="M209 1098l235 350h158l234 -352l-140 -58l-174 244l-172 -244z" />
<glyph unicode="&#x2dc;" horiz-adv-x="1044" d="M178 1151q0 28 3 56t16 66.5t34 66.5t61 48.5t93 20.5q46 0 84.5 -16t64.5 -39t48 -46t44 -39t44 -16q59 0 59 117v25h156v-29q0 -28 -3 -56.5t-16 -68t-34.5 -68.5t-63 -50t-96.5 -21q-46 0 -83.5 16t-61.5 39t-44.5 45.5t-42.5 38.5t-45 16q-59 0 -59 -118v-19h-156 q-2 13 -2 31z" />
<glyph unicode="&#x2000;" horiz-adv-x="892" />
<glyph unicode="&#x2001;" horiz-adv-x="1784" />
<glyph unicode="&#x2002;" horiz-adv-x="892" />
<glyph unicode="&#x2003;" horiz-adv-x="1784" />
<glyph unicode="&#x2004;" horiz-adv-x="594" />
<glyph unicode="&#x2005;" horiz-adv-x="446" />
<glyph unicode="&#x2006;" horiz-adv-x="297" />
<glyph unicode="&#x2007;" horiz-adv-x="297" />
<glyph unicode="&#x2008;" horiz-adv-x="223" />
<glyph unicode="&#x2009;" horiz-adv-x="356" />
<glyph unicode="&#x200a;" horiz-adv-x="99" />
<glyph unicode="&#x2010;" horiz-adv-x="755" d="M106 440v164h543v-164h-543z" />
<glyph unicode="&#x2011;" horiz-adv-x="755" d="M106 440v164h543v-164h-543z" />
<glyph unicode="&#x2012;" horiz-adv-x="755" d="M106 440v164h543v-164h-543z" />
<glyph unicode="&#x2013;" horiz-adv-x="1052" d="M106 442v166h840v-166h-840z" />
<glyph unicode="&#x2014;" horiz-adv-x="1851" d="M106 442v166h1639v-166h-1639z" />
<glyph unicode="&#x2018;" horiz-adv-x="458" d="M82 1153q0 203 221 377l84 -94q-125 -101 -125 -211q0 -52 30 -103t114 -141l-209 -111q-115 142 -115 283z" />
<glyph unicode="&#x2019;" horiz-adv-x="442" d="M47 1419l211 111q113 -139 113 -281q0 -205 -219 -379l-86 95q127 100 127 213q0 51 -31 102.5t-115 138.5z" />
<glyph unicode="&#x201a;" horiz-adv-x="495" d="M78 199l211 110q114 -140 114 -280q0 -204 -221 -377l-86 92q127 100 127 213q0 53 -30.5 104t-114.5 138z" />
<glyph unicode="&#x201c;" horiz-adv-x="849" d="M82 1153q0 203 221 377l84 -94q-125 -101 -125 -211q0 -52 30 -103t114 -141l-209 -111q-115 142 -115 283zM473 1153q0 203 221 377l84 -94q-125 -101 -125 -211q0 -52 30 -103t114 -141l-209 -111q-115 142 -115 283z" />
<glyph unicode="&#x201d;" horiz-adv-x="833" d="M47 1419l211 111q113 -139 113 -281q0 -205 -219 -379l-86 95q127 100 127 213q0 51 -31 102.5t-115 138.5zM440 1419l209 111q113 -139 113 -281q0 -205 -219 -379l-86 95q127 100 127 213q0 51 -30.5 102.5t-113.5 138.5z" />
<glyph unicode="&#x201e;" horiz-adv-x="886" d="M78 199l211 110q114 -140 114 -280q0 -204 -221 -377l-86 92q127 100 127 213q0 53 -30.5 104t-114.5 138zM469 199l211 110q115 -142 115 -280q0 -205 -222 -377l-86 92q127 100 127 213q0 53 -30.5 104t-114.5 138z" />
<glyph unicode="&#x2022;" horiz-adv-x="833" d="M106 524q0 132 90 222t222 90q131 0 220 -90t89 -222t-89 -221.5t-220 -89.5q-132 0 -222 89.5t-90 221.5z" />
<glyph unicode="&#x2026;" horiz-adv-x="1658" d="M100 131q0 66 46.5 113t111.5 47t111.5 -47t46.5 -113q0 -63 -47 -109.5t-111 -46.5t-111 46.5t-47 109.5zM672 131q0 66 46 113t109 47q66 0 113 -47t47 -113q0 -63 -47 -109.5t-113 -46.5q-63 0 -109 46.5t-46 109.5zM1243 131q0 66 46 113t110 47q66 0 113 -47 t47 -113q0 -63 -47 -109.5t-113 -46.5q-64 0 -110 46.5t-46 109.5z" />
<glyph unicode="&#x202f;" horiz-adv-x="356" />
<glyph unicode="&#x2039;" horiz-adv-x="643" d="M33 510v8q22 18 52 50t151 168q108 122 186 210l141 -41l-293 -391q13 -19 293 -391l-141 -41q-89 98 -164.5 182t-107.5 120.5t-58.5 66t-36.5 39.5t-22 20z" />
<glyph unicode="&#x203a;" horiz-adv-x="643" d="M80 123l295 391q-13 15 -295 391l141 41q78 -88 186 -210q126 -141 153.5 -170.5t49.5 -47.5v-8q-12 -10 -22 -20t-36.5 -39.5t-58.5 -66t-107.5 -120.5t-164.5 -182z" />
<glyph unicode="&#x205f;" horiz-adv-x="446" />
<glyph unicode="&#x20ac;" horiz-adv-x="1155" d="M76 365v118h106q-4 46 -4 74q0 26 4 84h-106v119h131q54 183 195.5 295t342.5 112q81 0 161.5 -18.5t120.5 -37.5l40 -19l-63 -197q-13 9 -35.5 21.5t-89 33.5t-129.5 21q-107 0 -176.5 -57.5t-102.5 -153.5h494l-35 -119h-486q-2 -23 -2 -68q0 -39 7 -90h438l-35 -118 h-373q37 -90 108 -141.5t171 -51.5q56 0 118.5 15t97.5 31l34 15l49 -182q-5 -3 -15 -8t-42 -18.5t-67 -23.5t-88 -18t-106 -8q-200 0 -341.5 105t-194.5 285h-127z" />
<glyph unicode="&#x2122;" horiz-adv-x="1433" d="M72 1257v109h493v-109h-178v-436h-137v436h-178zM653 821l21 545h194l117 -340l119 340h192l21 -545h-133l-17 396l-139 -396h-90l-139 398l-13 -398h-133z" />
<glyph unicode="&#xe000;" horiz-adv-x="931" d="M0 0v932h932v-932h-932z" />
</font>
</defs>
</svg>
