<?xml version="1.0" standalone="no"?>
<!DOCTYPE svg PUBLIC "-//W3C//DTD SVG 1.1//EN" "http://www.w3.org/Graphics/SVG/1.1/DTD/svg11.dtd" >
<svg xmlns="http://www.w3.org/2000/svg">
<metadata></metadata>
<defs>
<font id="calluna_sansblack" horiz-adv-x="1648" >
<font-face units-per-em="2048" ascent="1536" descent="-512" />
<missing-glyph horiz-adv-x="491" />
<glyph unicode="&#xfb01;" horiz-adv-x="1193" d="M37 723v170l145 49v45q0 124 39 225t107.5 167t161 101.5t200.5 35.5q83 0 158.5 -20t109.5 -40l35 -20l-100 -213q-11 7 -29.5 17.5t-72 28t-101.5 17.5q-196 0 -196 -274v-74h585v-938h-309v733h-276v-733h-312v723h-145z" />
<glyph unicode="&#xfb02;" horiz-adv-x="1232" d="M37 723v170l145 49v45q0 124 39 225t107.5 167t161 101.5t200.5 35.5q158 0 279 -68l149 25v-1473h-307v1257q-67 29 -121 29q-196 0 -196 -274v-74h190v-215h-190v-723h-312v723h-145z" />
<glyph unicode="&#xfb03;" horiz-adv-x="1845" d="M37 723v170l145 49v16q0 120 38 217.5t104 160t154 96.5t190 34q82 0 156.5 -23t103.5 -41t39 -28q136 142 354 142q82 0 156.5 -20t108.5 -40l34 -20l-98 -213q-10 7 -27.5 17.5t-68 28t-97.5 17.5q-182 0 -182 -254v-94h584v-938h-308v733h-276v-733h-309v733h-344 v-733h-312v723h-145zM494 938h344v70q0 79 16 157q-85 72 -178 72q-182 0 -182 -254v-45z" />
<glyph unicode="&#xfb04;" horiz-adv-x="1886" d="M37 723v170l145 49v16q0 120 38 217.5t104 160t154 96.5t190 34q172 0 297 -90q63 67 153 103.5t193 36.5q152 0 274 -74l187 31v-1473h-310v1245q-75 41 -145 41q-170 0 -170 -244v-104h190v-215h-190v-723h-309v733h-344v-733h-312v723h-145zM494 938h344v82 q0 85 16 145q-84 72 -178 72q-182 0 -182 -254v-45z" />
<glyph horiz-adv-x="2048" />
<glyph horiz-adv-x="2048" />
<glyph unicode="&#xd;" horiz-adv-x="2048" />
<glyph unicode=" "  horiz-adv-x="491" />
<glyph unicode="&#x09;" horiz-adv-x="491" />
<glyph unicode="&#xa0;" horiz-adv-x="491" />
<glyph unicode="!" horiz-adv-x="598" d="M119 152q0 74 52 127t124 53q73 0 125.5 -53t52.5 -127q0 -72 -52.5 -124.5t-125.5 -52.5q-72 0 -124 52.5t-52 124.5zM129 1391h354l-59 -895h-240z" />
<glyph unicode="&#x22;" horiz-adv-x="835" d="M106 788v578h261v-76l-84 -502h-177zM504 788v578h262v-76l-88 -502h-174z" />
<glyph unicode="#" horiz-adv-x="1443" d="M68 215l22 160h283l57 272h-278l24 158h287l78 379h166l-78 -379h280l78 379h166l-78 -379h301l-24 -158h-310l-55 -272h305l-22 -160h-316l-80 -397h-167l79 397h-276l-82 -397h-168l82 397h-274zM541 375h278l58 272h-281z" />
<glyph unicode="$" horiz-adv-x="993" d="M70 82l61 250q4 -4 12 -10t36.5 -22.5t61 -29.5t85.5 -25.5t110 -15.5l6 234q-181 62 -270.5 146.5t-89.5 207.5q0 127 93 222.5t286 117.5l6 182h104l-6 -176q89 -1 169 -16t116 -30l35 -15l-78 -240q-10 5 -29.5 13.5t-84 23.5t-134.5 19l-6 -232q203 -65 287 -144 t84 -196q0 -143 -102.5 -240.5t-286.5 -115.5l-5 -172h-104l4 166q-101 3 -191 27.5t-129 47.5zM346 831q0 -38 27 -63.5t78 -46.5l4 197q-109 -11 -109 -87zM541 229q108 13 108 90q0 40 -25.5 64t-76.5 45z" />
<glyph unicode="%" horiz-adv-x="1603" d="M63 1049q0 138 99 232.5t252 94.5q154 0 252 -94t98 -233q0 -141 -98 -237.5t-252 -96.5q-153 0 -252 97t-99 237zM246 0l979 1407l110 -74l-923 -1333h-166zM254 1049q0 -64 43 -111t117 -47t116.5 47t42.5 111q0 62 -42.5 109.5t-116.5 47.5t-117 -47.5t-43 -109.5z M838 307q0 139 98.5 234.5t251.5 95.5q154 0 253 -95.5t99 -234.5t-99 -235.5t-253 -96.5q-153 0 -251.5 96.5t-98.5 235.5zM1030 307q0 -63 42.5 -109t115.5 -46q74 0 118 46.5t44 108.5t-43.5 109t-116.5 47q-74 0 -117 -46.5t-43 -109.5z" />
<glyph unicode="&#x26;" horiz-adv-x="1468" d="M61 350q0 67 20 124t57.5 101t80.5 77t100 63q-90 162 -90 311q0 57 14.5 109t46.5 99t78.5 81.5t115.5 55t153 20.5q188 0 292.5 -93t104.5 -251q0 -75 -24 -137t-69.5 -109t-94.5 -80t-115 -66q14 -18 27 -28q104 -118 200 -207q150 202 177 518h274 q-19 -185 -80.5 -366.5t-171.5 -319.5q139 -107 250 -146l-100 -192q-147 17 -355 158q-162 -97 -370 -97q-73 0 -143 11t-140 38.5t-121.5 69t-84 107.5t-32.5 149zM346 362q0 -70 59 -110.5t160 -40.5q90 0 166 31q-144 125 -248 247q-26 34 -26 35q-111 -70 -111 -162z M532 1026q0 -80 60 -182q86 41 132 87t46 109q0 51 -31.5 83t-85.5 32q-62 0 -91.5 -36t-29.5 -93z" />
<glyph unicode="'" horiz-adv-x="442" d="M106 788v578h283v-76l-141 -502h-142z" />
<glyph unicode="(" horiz-adv-x="638" d="M82 553q0 109 17.5 217.5t45.5 194t62.5 164t68.5 135t62 98.5t46 63l17 21l209 -72q-12 -14 -32 -39.5t-72 -109.5t-91 -174t-71.5 -226t-32.5 -272q0 -109 17 -215.5t44 -191t59.5 -161t65.5 -131t60 -95.5t44 -61l17 -20l-206 -79q-7 8 -19 22.5t-46 65t-65.5 105.5 t-69.5 142t-65 176.5t-46 207t-19 235.5z" />
<glyph unicode=")" horiz-adv-x="638" d="M18 -322q6 7 17.5 20.5t43.5 59.5t61.5 97t65 130.5t61.5 161.5t43.5 189.5t17.5 216.5q0 136 -31 270.5t-75 229.5t-88.5 170.5t-75.5 112.5l-31 38l211 72q13 -15 34.5 -42t76.5 -117.5t97 -188t76.5 -246.5t34.5 -299q0 -118 -18 -235t-47.5 -208.5t-64.5 -175 t-70 -143t-64.5 -104t-47.5 -66.5l-18 -22z" />
<glyph unicode="*" horiz-adv-x="1048" d="M68 854l323 84l47 -82l-233 -240zM68 1065l137 238l233 -240l-47 -80zM387 510l90 324h92l93 -324h-275zM387 1409h275l-93 -324h-92zM608 856l47 82l324 -84l-137 -238zM608 1063l234 240l137 -238l-324 -82z" />
<glyph unicode="+" horiz-adv-x="1064" d="M43 436v185h395v409h191v-409h385v-185h-385v-436h-191v436h-395z" />
<glyph unicode="," horiz-adv-x="530" d="M45 -311q80 76 105 109q55 73 55 161q0 54 -26.5 108.5t-106.5 178.5l268 86q55 -82 77.5 -147.5t22.5 -135.5q0 -213 -293 -467z" />
<glyph unicode="-" horiz-adv-x="792" d="M102 442v170h588v-170h-588z" />
<glyph unicode="." horiz-adv-x="534" d="M90 152q0 74 52 127t124 53q73 0 125.5 -53t52.5 -127q0 -72 -52.5 -124.5t-125.5 -52.5q-72 0 -124 52.5t-52 124.5z" />
<glyph unicode="/" horiz-adv-x="964" d="M37 -401l682 1767h188l-680 -1767h-190z" />
<glyph unicode="0" horiz-adv-x="1157" d="M76 479q0 77 20 151.5t62 142t101 119t144 82t185 30.5q117 0 213.5 -41.5t157.5 -111t94.5 -157t33.5 -182.5q0 -97 -34 -191.5t-96 -172t-162 -125.5t-220 -48q-119 0 -216.5 43t-157.5 115t-92.5 161t-32.5 185zM354 489q0 -51 12 -97.5t37 -88.5t71 -67t108 -25 q60 0 105.5 25t70.5 66.5t37 88.5t12 98q0 54 -12 102t-37.5 88.5t-70 64.5t-103.5 24q-63 0 -109.5 -24t-72 -65.5t-37 -88.5t-11.5 -101z" />
<glyph unicode="1" horiz-adv-x="950" d="M98 0v233h262v492h-258v254h562v-746h237v-233h-803z" />
<glyph unicode="2" horiz-adv-x="974" d="M72 874q6 5 17.5 14t49 31.5t78 39.5t103 31t124.5 14q173 0 277 -94t104 -234q0 -66 -24 -128t-73.5 -120.5t-93 -99t-112.5 -97.5h389v-231h-835l6 168q17 12 46 32t102.5 79t129.5 113.5t102 122t46 116.5q0 55 -32 88t-97 33q-41 0 -88.5 -17t-74.5 -34l-28 -17z" />
<glyph unicode="3" horiz-adv-x="856" d="M12 870q7 5 19 14.5t51.5 32.5t81 40.5t104 32t123.5 14.5q159 0 265 -84.5t106 -212.5q0 -109 -71.5 -194t-180.5 -146q135 -36 209 -125.5t74 -204.5q0 -136 -95 -240t-247.5 -156.5t-333.5 -52.5q-46 0 -66 2l-24 232q54 -4 82 -4q156 0 261 60t105 163 q0 49 -26.5 83.5t-72 51t-90 23t-96.5 6.5h-32v221q108 5 198 71.5t90 153.5q0 50 -32 75.5t-80 25.5q-39 0 -87.5 -19t-76.5 -38l-29 -19z" />
<glyph unicode="4" horiz-adv-x="1124" d="M45 12v203l510 760h342v-744h176v-219h-176v-407h-297v407h-555zM332 231h268v435z" />
<glyph unicode="5" horiz-adv-x="854" d="M68 -176q53 -6 100 -6q92 0 161 20t114.5 70t45.5 127q0 53 -23.5 95t-59 69t-92.5 48t-109 32t-123 22v678h661v-231h-366v-254q430 -105 430 -435q0 -151 -84 -258.5t-228 -160t-333 -52.5q-45 0 -68 2z" />
<glyph unicode="6" horiz-adv-x="1083" d="M66 563q0 124 32.5 241.5t101 221.5t165 183t233 127.5t297.5 54.5l18 -238q-422 -31 -516 -365q92 115 244 115q116 0 206 -60.5t136.5 -159.5t46.5 -216q0 -94 -31.5 -181.5t-90 -157t-150.5 -111.5t-203 -42q-121 0 -216 48t-153.5 130.5t-89 187t-30.5 222.5z M373 567q6 -356 194 -356q72 0 113 62t41 165q0 30 -3 57t-13 58.5t-26.5 53.5t-45.5 37t-68 15q-100 0 -192 -92z" />
<glyph unicode="7" horiz-adv-x="972" d="M43 717v262h895v-172q-232 -586 -565 -1233l-299 59q323 607 512 1084h-543z" />
<glyph unicode="8" horiz-adv-x="1064" d="M78 334q0 83 34 153.5t81.5 115t117.5 89.5q-186 142 -186 322q0 157 116 267t306 110q79 0 151.5 -22t132 -63t95 -108.5t35.5 -150.5q0 -106 -52.5 -184t-142.5 -144q49 -32 84.5 -62t69 -70.5t50.5 -90t17 -107.5q0 -80 -33 -154t-92 -132t-149.5 -93t-196.5 -35 q-61 0 -120 11.5t-117.5 39t-102.5 67.5t-71 102.5t-27 138.5zM340 354q0 -63 46.5 -108t117.5 -45q76 0 129 48t53 111q0 54 -45.5 101t-130.5 100q-82 -50 -126 -98.5t-44 -108.5zM430 1042q0 -60 35 -107t100 -91q127 82 127 188q0 57 -33 95t-102 38q-38 0 -65 -12.5 t-39.5 -33t-17.5 -39t-5 -38.5z" />
<glyph unicode="9" horiz-adv-x="1110" d="M80 506q0 93 32 181t91 159t152.5 114.5t205.5 43.5q120 0 215.5 -48t155 -130.5t90.5 -187t31 -222.5q0 -124 -33 -241.5t-101.5 -222t-165.5 -184t-234 -128t-298 -54.5l-18 238q441 35 520 383q-45 -60 -104 -91.5t-152 -31.5q-169 0 -278 123.5t-109 298.5zM389 530 q0 -27 3.5 -52t14 -53t27 -48t46 -33.5t67.5 -13.5q44 0 90 19.5t69.5 37.5t36.5 33q-5 152 -57 250t-143 98q-74 0 -114 -64.5t-40 -173.5z" />
<glyph unicode=":" horiz-adv-x="577" d="M113 152q0 74 51.5 127t124.5 53t125.5 -53t52.5 -127q0 -72 -52.5 -124.5t-125.5 -52.5t-124.5 52.5t-51.5 124.5zM113 795q0 74 51.5 127t124.5 53t125.5 -53t52.5 -127q0 -71 -52.5 -124t-125.5 -53t-124.5 53t-51.5 124z" />
<glyph unicode=";" horiz-adv-x="571" d="M66 -311q81 77 106 111q53 72 53 159q0 54 -26.5 108.5t-106.5 178.5l268 86q56 -83 78.5 -148.5t22.5 -134.5q0 -213 -293 -467zM109 795q0 74 52 127t124 53q73 0 125.5 -53t52.5 -127q0 -72 -52.5 -124.5t-125.5 -52.5q-72 0 -124 52.5t-52 124.5z" />
<glyph unicode="&#x3c;" horiz-adv-x="1064" d="M47 479v94l873 469l47 -186l-650 -330l650 -350l-47 -184z" />
<glyph unicode="=" horiz-adv-x="1064" d="M90 252v180h885v-180h-885zM90 594v180h885v-180h-885z" />
<glyph unicode="&#x3e;" horiz-adv-x="1064" d="M100 176l648 350l-648 330l47 186l873 -469v-94l-873 -487z" />
<glyph unicode="?" horiz-adv-x="825" d="M82 1206l70 271q13 -3 34.5 -10t84.5 -30t120.5 -49t127 -68t120 -86t85 -103.5t34.5 -120.5q0 -55 -30.5 -110t-74 -101t-86.5 -92t-73.5 -101t-30.5 -110h-250q-2 20 -2 34q0 61 21.5 119.5t52.5 102.5t62.5 82t53 72t21.5 59q0 35 -35 72.5t-85 66.5t-100 53t-85 37z M166 152q0 74 51.5 127t124.5 53t125.5 -53t52.5 -127q0 -72 -52.5 -124.5t-125.5 -52.5t-124.5 52.5t-51.5 124.5z" />
<glyph unicode="@" horiz-adv-x="1822" d="M70 391q0 167 65.5 320t180 269t283 185.5t362.5 69.5q226 0 404.5 -90t276 -245.5t97.5 -346.5q0 -91 -22.5 -174t-76 -159.5t-133.5 -123.5q-52 -31 -114 -48.5t-148 -35t-149 -37.5q-23 89 -41 146q-30 -58 -103.5 -102t-156.5 -44q-131 0 -219.5 106.5t-88.5 280.5 q0 160 79 283.5t209.5 187.5t287.5 64q43 0 92.5 -5t78.5 -10l28 -5v-486q0 -37 4.5 -81t9.5 -70l4 -25q117 3 178.5 96t61.5 226q0 104 -38 197.5t-107.5 165t-176 113.5t-235.5 42q-148 0 -275 -55t-211.5 -146t-132 -208.5t-47.5 -242.5q0 -127 49.5 -237t129 -182.5 t176.5 -115.5t196 -48l-35 -199q-155 11 -292 73t-236.5 162.5t-157 239t-57.5 295.5zM764 365q0 -172 94 -172q60 0 121 83v420q-95 0 -155 -96t-60 -235z" />
<glyph unicode="A" horiz-adv-x="1320" d="M2 0l508 1376h301l508 -1376h-322l-86 246h-510l-86 -246h-313zM494 512h325l-164 463z" />
<glyph unicode="B" horiz-adv-x="1255" d="M154 0v1366h510q126 0 219.5 -28.5t144.5 -77t74.5 -104t23.5 -118.5q0 -163 -165 -286q38 -20 73 -48.5t71 -71t57.5 -104t21.5 -131.5q0 -180 -130 -288.5t-337 -108.5h-563zM471 264h215q86 0 127 40.5t41 111.5q0 65 -42 105t-126 40h-215v-297zM471 815h262 q7 5 17.5 15t28.5 46.5t18 79.5q0 146 -164 146h-162v-287z" />
<glyph unicode="C" horiz-adv-x="1384" d="M70 653q0 155 54.5 290t153 234.5t246 156.5t324.5 57q91 0 174 -11.5t137 -27.5t94.5 -32.5t58.5 -27.5l19 -12l-117 -264q-5 4 -15 10.5t-45 23.5t-75 30t-105 23.5t-134 10.5q-202 0 -326.5 -116t-124.5 -316q0 -105 37 -189t99.5 -135.5t140.5 -78.5t165 -27 q70 0 136.5 12.5t111 30t79 34.5t50.5 29l17 13l129 -230q-7 -7 -20 -18t-62 -39.5t-106 -50.5t-152 -40t-201 -18q-151 0 -284 44t-236 127t-163 214t-60 293z" />
<glyph unicode="D" horiz-adv-x="1497" d="M154 0v1366h526q114 0 218.5 -21.5t201.5 -72t167.5 -125t113 -188t42.5 -254.5q0 -169 -60 -303t-169 -222t-259.5 -134t-332.5 -46h-448zM471 264h111q134 0 234.5 33t160 92.5t88.5 136.5t29 170q0 186 -112.5 296t-330.5 110h-180v-838z" />
<glyph unicode="E" horiz-adv-x="1134" d="M154 0v1366h893v-264h-576v-277h455v-268h-455v-293h602v-264h-919z" />
<glyph unicode="F" horiz-adv-x="1105" d="M154 0v1366h899v-264h-582v-291h461v-262h-461v-549h-317z" />
<glyph unicode="G" horiz-adv-x="1456" d="M66 657q0 147 54.5 279t154.5 233.5t253.5 161.5t337.5 60q80 0 158.5 -10t132.5 -24.5t96.5 -29.5t62.5 -25l21 -10l-116 -266q-6 4 -18 9.5t-50 21t-78.5 27t-100 21t-118.5 9.5q-219 0 -344 -123.5t-125 -316.5q0 -103 38.5 -185t104 -133t148.5 -77.5t176 -26.5 q39 0 87.5 3.5t76.5 6.5l29 4v240h-265v266h576v-737q-317 -60 -524 -60q-163 0 -304 48.5t-243.5 136t-161.5 216t-59 281.5z" />
<glyph unicode="H" horiz-adv-x="1570" d="M154 0v1366h317v-535h631v535h315v-1366h-315v563h-631v-563h-317z" />
<glyph unicode="I" horiz-adv-x="626" d="M154 0v1366h317v-1366h-317z" />
<glyph unicode="J" horiz-adv-x="624" d="M-115 -127q271 20 271 393v1100h317v-1090q0 -104 -11.5 -187.5t-44 -168.5t-86.5 -146t-145 -106.5t-213 -62.5z" />
<glyph unicode="K" horiz-adv-x="1327" d="M154 0v1366h317v-516h43l410 516h393l-543 -637l574 -729h-400l-434 582h-43v-582h-317z" />
<glyph unicode="L" horiz-adv-x="1097" d="M154 0v1366h317v-1102h596v-264h-913z" />
<glyph unicode="M" horiz-adv-x="1824" d="M129 0l51 1366h453l282 -850l283 850h449l49 -1366h-307l-35 1016l-346 -1016h-201l-338 999l-33 -999h-307z" />
<glyph unicode="N" horiz-adv-x="1529" d="M154 0v1366h321l590 -874v874h311v-1366h-325l-586 874v-874h-311z" />
<glyph unicode="O" d="M66 680q0 107 31 209t94.5 193t152.5 160t214 109t269 40q172 0 316 -54.5t239.5 -148t148 -217t52.5 -262.5q0 -141 -55 -273t-152.5 -234.5t-245.5 -164.5t-321 -62q-137 0 -256.5 38t-207.5 104.5t-151.5 155t-95.5 192.5t-32 215zM395 686q0 -64 16 -126.5t50 -120 t82.5 -101.5t118.5 -70t153 -26q100 0 184 37.5t138 101t84 144t30 167.5q0 84 -27.5 161t-79 138t-134 97t-185.5 36q-102 0 -185 -36.5t-136 -97.5t-81 -139.5t-28 -164.5z" />
<glyph unicode="P" horiz-adv-x="1226" d="M154 0v1366h522q128 0 228 -36t161.5 -98.5t93 -143.5t31.5 -175q0 -147 -69 -258.5t-185 -169t-260 -57.5h-205v-428h-317zM471 692h158q115 0 173 55.5t58 151.5q0 203 -231 203h-158v-410z" />
<glyph unicode="Q" d="M63 680q0 107 31.5 209.5t95.5 193t153.5 159.5t215 109t270.5 40q171 0 314.5 -54.5t238 -148t147 -217t52.5 -262.5q0 -150 -59.5 -288t-175.5 -245.5t-271 -159.5q30 -39 55 -67t69.5 -62t93.5 -54t121 -32q55 -9 117 -9q21 0 42 1l-47 -282h-9q-106 0 -201 21 q-98 23 -159 49.5t-125 77.5t-88 76.5t-67 76.5q-11 14 -17 20l-61 72q-21 25 -61 50t-74 32q-278 56 -439.5 247.5t-161.5 446.5zM395 686q0 -84 26.5 -163t76.5 -144.5t132.5 -105.5t184.5 -40q134 0 235.5 67t151 169.5t49.5 220.5q0 86 -27.5 163.5t-79.5 138.5 t-135 96.5t-186 35.5q-102 0 -185 -36.5t-135 -98t-80 -139.5t-28 -164z" />
<glyph unicode="R" horiz-adv-x="1333" d="M154 0v1366h508q253 0 382.5 -118.5t129.5 -311.5q0 -122 -54 -217t-157 -152l370 -567h-377l-305 481h-180v-481h-317zM471 743h113q147 0 203.5 48.5t56.5 136.5q0 84 -53.5 129t-178.5 45h-141v-359z" />
<glyph unicode="S" horiz-adv-x="1062" d="M72 90l92 277q6 -5 16.5 -13t44.5 -28.5t70 -36t89 -28.5t105 -13q85 0 134 31.5t49 85.5q0 42 -32 77.5t-83.5 64.5t-113.5 58.5t-124 67t-113.5 82.5t-83.5 112.5t-32 149.5q0 172 131 293t352 121q88 0 183.5 -15.5t147.5 -31.5l52 -15l-43 -280q-19 8 -50.5 19.5 t-118.5 30.5t-160 19q-84 0 -129 -28.5t-45 -77.5q0 -42 32 -77t83.5 -62.5t113 -56.5t123.5 -66.5t113.5 -83.5t83.5 -116t32 -157q0 -126 -66.5 -222t-177.5 -146t-247 -50q-71 0 -141.5 12t-120 28.5t-88.5 33.5t-58 29z" />
<glyph unicode="T" horiz-adv-x="1239" d="M35 1102v264h1169v-264h-422v-1102h-317v1102h-430z" />
<glyph unicode="U" horiz-adv-x="1449" d="M139 522v844h318v-819q0 -160 72 -232.5t198 -72.5q128 0 200 79t72 218v827h316v-815q0 -137 -46 -247.5t-126.5 -181.5t-187.5 -109t-230 -38q-125 0 -228 30.5t-185 93.5t-127.5 171t-45.5 252z" />
<glyph unicode="V" horiz-adv-x="1259" d="M2 1366h336l295 -891l299 891h325l-477 -1376h-301z" />
<glyph unicode="W" horiz-adv-x="2013" d="M29 1366h327l262 -946l277 946h231l277 -938l258 938h321l-405 -1376h-324l-252 815l-241 -815h-324z" />
<glyph unicode="X" horiz-adv-x="1306" d="M20 0l445 676l-445 690h373l262 -430l267 430h362l-442 -682l442 -684h-375l-262 428l-260 -428h-367z" />
<glyph unicode="Y" horiz-adv-x="1284" d="M-10 1366h372l279 -502l295 502h358l-493 -807v-559h-318v557z" />
<glyph unicode="Z" horiz-adv-x="1196" d="M74 0v197l608 905h-586v264h998v-197l-598 -905h626v-264h-1048z" />
<glyph unicode="[" horiz-adv-x="598" d="M141 -340v1706h432v-162h-225v-1382h225v-162h-432z" />
<glyph unicode="\" horiz-adv-x="978" d="M57 1366h201l682 -1767h-203z" />
<glyph unicode="]" horiz-adv-x="591" d="M16 -209h228v1442h-228v133h435v-1706h-435v131z" />
<glyph unicode="^" horiz-adv-x="937" d="M-53 512l438 879h166l438 -879h-203l-319 647l-322 -647h-198z" />
<glyph unicode="_" horiz-adv-x="1040" d="M10 -76h1024v-151h-1024v151z" />
<glyph unicode="`" horiz-adv-x="1052" d="M268 1456h283l215 -332l-162 -82z" />
<glyph unicode="a" horiz-adv-x="1034" d="M43 229q0 287 541 359v35q0 62 -25 90t-82 28q-74 0 -151.5 -28.5t-118.5 -56.5l-41 -29l-66 211q7 5 20 13.5t57.5 30t93 38t125.5 30t157 13.5q189 0 264.5 -75t75.5 -235v-329q0 -28 11 -48.5t26.5 -29.5t31 -14.5t26.5 -5.5l11 -1l-86 -239h-9q-204 0 -283 133 q-12 -21 -31 -41.5t-52 -46t-85.5 -41t-114.5 -15.5q-133 0 -214 70.5t-81 183.5zM354 258q0 -70 68 -70q81 0 162 101v139q-118 -18 -174 -62.5t-56 -107.5z" />
<glyph unicode="b" horiz-adv-x="1107" d="M106 39v1384l312 50v-582q88 72 217 72q102 0 182.5 -36.5t130.5 -100t75.5 -146t25.5 -178.5q0 -107 -32.5 -199.5t-97.5 -167t-176 -117.5t-256 -43q-92 0 -187.5 16t-144.5 32zM418 201q33 -19 88 -19q103 0 165 80t62 227q0 117 -47 181.5t-121 64.5q-76 0 -147 -49 v-485z" />
<glyph unicode="c" horiz-adv-x="966" d="M53 446q0 137 66.5 255t189.5 190t275 72q96 0 183.5 -23.5t126.5 -46.5l40 -23l-103 -221q-4 3 -11 9t-29.5 20.5t-46 25.5t-57.5 20t-66 9q-107 0 -178.5 -67.5t-71.5 -200.5q0 -124 63.5 -192t165.5 -68q39 0 78 9.5t67 23t50.5 27t33.5 23.5l11 9l94 -203 q-4 -5 -13 -13t-40.5 -28.5t-69 -36t-100.5 -28.5t-133 -13q-238 0 -381.5 135t-143.5 336z" />
<glyph unicode="d" horiz-adv-x="1118" d="M59 440q0 100 30.5 192.5t88 167t149.5 119t205 44.5q86 0 160 -27v487l309 50v-1188q0 -50 11 -121.5t22 -117.5l10 -46l-286 -14q-19 65 -29 133q-99 -144 -276 -144q-119 0 -210 64t-137.5 169t-46.5 232zM377 459q0 -123 39.5 -193.5t115.5 -70.5q89 0 160 96v352 q-3 47 -35.5 71.5t-87.5 24.5q-91 0 -141.5 -71t-50.5 -209z" />
<glyph unicode="e" horiz-adv-x="1017" d="M59 465q0 137 57.5 250t166.5 180.5t249 67.5q187 0 300 -123.5t114 -362.5l-162 -45l-409 -53q53 -174 223 -174q65 0 137.5 28t112.5 56l39 28l80 -213q-7 -5 -19.5 -14t-54 -31t-86 -39t-113 -31t-137.5 -14q-120 0 -216.5 40t-157 108t-92.5 155.5t-32 186.5z M360 541l261 34q0 7 -1 18t-7.5 39t-17.5 50t-34.5 39.5t-54.5 17.5q-63 0 -101.5 -54t-44.5 -144z" />
<glyph unicode="f" horiz-adv-x="770" d="M37 723v170l145 49v66q0 120 38 217.5t104 160t154 96.5t190 34q83 0 157 -20t107 -40l33 -20l-97 -228q-10 7 -27 18t-67.5 29.5t-97.5 18.5q-83 0 -132.5 -57.5t-49.5 -184.5v-94h245v-215h-245v-723h-312v723h-145z" />
<glyph unicode="g" horiz-adv-x="1062" d="M39 -250q0 132 215 260q-76 31 -107.5 64t-31.5 82q0 109 147 196q-91 42 -140.5 117.5t-49.5 167.5q0 102 61 178t156.5 112t208.5 36q66 0 145 -19.5t131 -19.5h127q31 0 63.5 5t49.5 10l16 5l14 -207h-94q-13 0 -71 8q55 -63 55 -139q0 -88 -64.5 -156.5 t-166.5 -103.5t-220 -35q-37 0 -53 2q-57 -39 -57 -59q0 -23 176 -73q79 -23 129 -38q54 -16 88 -27t87 -36t83.5 -51t54 -68t23.5 -92q0 -141 -152.5 -247.5t-382.5 -106.5q-114 0 -213 27t-163 81.5t-64 126.5zM309 -190q0 -37 42.5 -64t144.5 -27q101 0 168 27.5t67 69.5 q0 37 -63 64q-32 13 -140 44l-98 27q-121 -77 -121 -141zM356 633q0 -44 38.5 -84.5t103.5 -40.5q64 0 104.5 39t40.5 88q0 47 -36 88t-103 41q-69 0 -108.5 -43t-39.5 -88z" />
<glyph unicode="h" horiz-adv-x="1107" d="M115 0v1423l311 50v-670q136 160 317 160q263 0 263 -304v-659h-310v514q0 103 -16.5 141.5t-58.5 38.5q-81 0 -195 -123v-571h-311z" />
<glyph unicode="i" horiz-adv-x="540" d="M96 1286q0 73 47.5 117.5t124.5 44.5t125.5 -44.5t48.5 -117.5t-48.5 -117.5t-125.5 -44.5t-124.5 44.5t-47.5 117.5zM115 0v938h311v-938h-311z" />
<glyph unicode="j" horiz-adv-x="540" d="M-150 -250q44 6 79.5 16.5t71.5 33.5t60 56t39 86t15 121v875h311v-875q0 -104 -26 -190t-70 -147t-106.5 -105.5t-132 -69.5t-148.5 -36zM94 1286q0 73 47.5 117.5t124.5 44.5t125.5 -44.5t48.5 -117.5t-48.5 -117.5t-125.5 -44.5t-124.5 44.5t-47.5 117.5z" />
<glyph unicode="k" horiz-adv-x="1122" d="M115 0v1423l311 50v-836h35l272 301h389l-395 -408l401 -530h-376l-295 412h-31v-412h-311z" />
<glyph unicode="l" horiz-adv-x="540" d="M115 0v1423l311 50v-1473h-311z" />
<glyph unicode="m" horiz-adv-x="1679" d="M111 0v913l295 48v-166q73 77 150 122.5t173 45.5q201 0 250 -172q155 172 332 172q266 0 266 -304v-659h-309v561q0 76 -18.5 104.5t-63.5 28.5q-79 0 -191 -112v-582h-311v561q0 75 -19.5 104t-58.5 29q-42 0 -85.5 -28t-98.5 -86v-580h-311z" />
<glyph unicode="n" horiz-adv-x="1103" d="M111 0v913l295 48v-168q148 170 333 170q262 0 262 -304v-659h-311v514q0 102 -12.5 141t-61.5 39q-81 0 -194 -116v-578h-311z" />
<glyph unicode="o" horiz-adv-x="1171" d="M57 467q0 74 17.5 142.5t58 133.5t100 113.5t150.5 77.5t203 29q107 0 196.5 -26.5t150.5 -72t103.5 -107t62 -130t19.5 -142.5q0 -69 -17 -137.5t-57.5 -136.5t-100 -119.5t-153 -84t-208.5 -32.5q-130 0 -232.5 41t-165 110.5t-95 156.5t-32.5 184zM375 479 q0 -113 56 -198.5t153 -85.5q91 0 154 75t63 191q0 69 -23 131.5t-73 105.5t-117 43q-90 0 -151.5 -72.5t-61.5 -189.5z" />
<glyph unicode="p" horiz-adv-x="1116" d="M111 -485v1398l297 48v-154q78 156 260 156q120 0 210.5 -63.5t135.5 -167.5t45 -232q0 -100 -29.5 -192t-86 -167.5t-149.5 -120.5t-210 -45q-113 0 -162 31v-442zM422 258q0 -25 30 -43t83 -18q86 0 146 72t60 212q0 114 -40.5 181t-100.5 67q-94 0 -178 -127v-344z " />
<glyph unicode="q" horiz-adv-x="1110" d="M59 430q0 86 20.5 164t64 145.5t105.5 117t149.5 78t191.5 28.5q76 0 178.5 -14.5t167.5 -28.5l65 -15v-1341l-311 -49v530q-77 -70 -213 -70q-105 0 -186.5 36.5t-131.5 100.5t-75 144.5t-25 173.5zM375 453q0 -115 47 -179.5t119 -64.5q73 0 149 45v479q-51 21 -96 21 q-95 0 -157 -80t-62 -221z" />
<glyph unicode="r" horiz-adv-x="784" d="M111 0v913l295 48v-197q20 32 44 61t60 63t83 54.5t97 20.5q23 0 43 -3.5t29 -7.5l8 -4l-41 -289q-45 19 -94 19q-109 0 -213 -131v-547h-311z" />
<glyph unicode="s" horiz-adv-x="868" d="M55 57l62 248q4 -4 12.5 -11t36 -24t57.5 -30t77 -24t95 -11q113 0 113 57q0 21 -23.5 38.5t-61.5 33t-83.5 33t-91 42.5t-83.5 56.5t-61.5 81t-23.5 110.5q0 60 23 112.5t71 97t131.5 70.5t194.5 26q77 0 147.5 -13t102.5 -26l32 -13l-57 -247q-11 8 -30.5 19.5 t-81 30.5t-124.5 19q-104 0 -104 -55q0 -22 23.5 -40.5t61.5 -34t83.5 -33t91 -42t83.5 -55.5t61.5 -79.5t23.5 -108.5q0 -135 -110.5 -222.5t-307.5 -87.5q-94 0 -179 20.5t-123 40.5z" />
<glyph unicode="t" horiz-adv-x="854" d="M33 723v168l164 51v221l297 56v-281h278v-215h-276v-377q0 -63 21 -92t65 -29q61 0 172 76l86 -219q-6 -4 -17 -11.5t-46 -26t-71.5 -32.5t-91.5 -25.5t-108 -11.5q-146 0 -234 77.5t-88 217.5v453h-151z" />
<glyph unicode="u" horiz-adv-x="1112" d="M104 258v680h312v-557q0 -76 17 -108.5t61 -32.5q79 0 188 104v594h311v-653q0 -50 10.5 -120t20.5 -115l10 -44l-299 -26q-16 83 -26 151q-161 -156 -342 -156q-118 0 -190.5 70.5t-72.5 212.5z" />
<glyph unicode="v" horiz-adv-x="997" d="M0 938h324l176 -541l186 541h313l-364 -942h-277z" />
<glyph unicode="w" horiz-adv-x="1601" d="M18 938h314l157 -592l183 592h260l196 -594l144 594h307l-274 -942h-301l-199 561l-180 -561h-303z" />
<glyph unicode="x" horiz-adv-x="1017" d="M14 0l322 467l-322 471h348l150 -236l156 236h333l-321 -463l321 -475h-337l-158 240l-158 -240h-334z" />
<glyph unicode="y" horiz-adv-x="995" d="M-4 938h317l191 -592l184 592h309l-374 -1004q-28 -74 -76.5 -144.5t-114.5 -129.5t-152.5 -98.5t-179.5 -46.5l-92 239q106 8 200.5 64.5t127.5 136.5l22 53z" />
<glyph unicode="z" horiz-adv-x="942" d="M68 0v190l393 517h-377v231h774v-190l-401 -517h415v-231h-804z" />
<glyph unicode="{" horiz-adv-x="684" d="M16 459v157q39 2 70 15t53 41.5t38 56.5t25.5 77t15 84t8 98t3 98.5t0.5 103.5q0 112 60 187t159 108t232 33v-152q-88 -8 -135 -21.5t-71 -53.5t-28.5 -78.5t-7.5 -131.5q-4 -141 -18.5 -237t-43 -155.5t-62 -91.5t-85.5 -56v-4q70 -33 112.5 -93.5t67 -174.5t29.5 -296 q3 -92 7.5 -130t28.5 -77.5t71 -53.5t135 -23v-152q-136 0 -222.5 22t-138 76t-71 133t-19.5 203q0 103 -10 184t-28 132t-39 86.5t-46.5 53t-46 24.5t-43.5 8z" />
<glyph unicode="|" horiz-adv-x="487" d="M139 -461v1995h209v-1995h-209z" />
<glyph unicode="}" horiz-adv-x="684" d="M6 -311q35 4 62 8t50 11t39.5 13t30 18.5t22 22t15 29t9.5 34t5.5 42.5t3 48t1.5 58q4 143 20 244t45 164t63.5 98t84.5 58v4q-72 33 -114 85.5t-68 162.5t-31 292q-1 37 -1.5 57.5t-3 48.5t-5.5 42.5t-9.5 34.5t-15 29.5t-22 22.5t-30 19t-39 13t-50 11t-62.5 7v152 q126 0 208 -20.5t137 -71t78.5 -134.5t23.5 -213q0 -458 215 -463v-157q-27 -1 -51.5 -9.5t-56 -39.5t-54 -81.5t-38 -144t-15.5 -217.5q0 -123 -19.5 -201t-70.5 -131.5t-136.5 -75.5t-220.5 -22v152z" />
<glyph unicode="~" horiz-adv-x="1187" d="M100 336q0 184 78 273t219 89q67 0 118.5 -19.5t83 -47.5t58 -56t57.5 -47.5t68 -19.5t63.5 18.5t39.5 48t18.5 58t5.5 57.5h187q0 -184 -78 -273t-219 -89q-67 0 -118.5 19.5t-83 47.5t-58 56t-57.5 47.5t-68 19.5t-63.5 -18.5t-39.5 -48t-18.5 -58t-5.5 -57.5h-187z " />
<glyph unicode="&#xa1;" horiz-adv-x="610" d="M129 -455l59 895h240l55 -895h-354zM139 784q0 72 52.5 124.5t125.5 52.5q72 0 124.5 -52.5t52.5 -124.5q0 -73 -52.5 -126.5t-124.5 -53.5q-73 0 -125.5 53t-52.5 127z" />
<glyph unicode="&#xa2;" horiz-adv-x="999" d="M66 569q0 86 30 163.5t87 139t146.5 100t200.5 44.5l9 182h104l-10 -184q88 -8 161 -36t102 -52l30 -23l-146 -186q-7 5 -20 13.5t-54 25.5t-83 22l-21 -405q52 5 106 25.5t82 38.5l27 18l92 -203q-4 -4 -12 -11t-37.5 -25.5t-63 -33.5t-89 -29t-115.5 -18l-6 -180h-103 l9 180q-197 15 -311.5 137.5t-114.5 296.5zM365 580q0 -77 36 -130.5t101 -70.5l18 397q-72 -14 -113.5 -63t-41.5 -133z" />
<glyph unicode="&#xa3;" horiz-adv-x="1148" d="M70 135q5 2 14 6t32.5 20t42 34t35.5 49.5t21 66.5l21 178h-123v127h137l18 162q21 181 129 288.5t295 107.5q60 0 116 -12t93 -29.5t65 -34.5t41 -29l13 -12l-146 -185q-9 8 -24 20t-60.5 32t-89.5 20q-59 0 -92.5 -37t-44.5 -135l-16 -156h325l-16 -127h-321 q-7 -71 -23 -135t-28 -92l-13 -29q9 -5 25.5 -13.5t68.5 -22t105 -13.5q91 0 143 36t59 128h209q-7 -69 -20.5 -124t-39 -108t-62.5 -88.5t-94 -57t-130 -21.5q-74 0 -146 23t-136.5 46t-122.5 23q-64 0 -219 -41z" />
<glyph unicode="&#xa5;" horiz-adv-x="1171" d="M70 1149h317l199 -395l200 395h308l-252 -463h211v-127h-281l-35 -63v-88h316v-127h-316v-281h-309v281h-295v127h295v86l-37 65h-258v127h189z" />
<glyph unicode="&#xa6;" horiz-adv-x="471" d="M131 -362v733h209v-733h-209zM131 688v733h209v-733h-209z" />
<glyph unicode="&#xa7;" horiz-adv-x="1013" d="M57 -379l62 152q16 -11 43.5 -27t107 -43t150.5 -27q111 0 168 81.5t57 211.5q0 47 -10 109l-103 573q-22 112 -22 209q0 135 53 209l160 -22q-35 -74 -35 -189q0 -53 10 -115l113 -649q12 -68 12 -135q0 -73 -14.5 -138t-46 -121.5t-77.5 -97.5t-112.5 -64t-148.5 -23 q-59 0 -118.5 11t-102.5 26.5t-77 31t-52 26.5zM168 946q0 92 24 170.5t70.5 141t124.5 98t178 35.5q60 0 120 -11t102.5 -26.5t77 -31.5t51.5 -27l18 -11l-62 -151q-16 11 -44 27t-107.5 42.5t-151.5 26.5q-109 0 -166 -82t-57 -211q0 -47 10 -109l107 -573 q20 -102 20 -209q0 -137 -51 -209l-160 23q35 81 35 188q0 53 -10 115l-117 649q-12 67 -12 135z" />
<glyph unicode="&#xa8;" horiz-adv-x="1052" d="M135 1282q0 70 41.5 109t112.5 39t112 -39t41 -109t-41 -107.5t-112 -37.5q-72 0 -113 37.5t-41 107.5zM610 1282q0 70 41 109t113 39q71 0 112.5 -39t41.5 -109t-41 -107.5t-113 -37.5q-73 0 -113.5 37.5t-40.5 107.5z" />
<glyph unicode="&#xa9;" horiz-adv-x="1556" d="M70 682q0 143 56 274t150.5 226t225.5 151t274 56q191 0 354 -95t258 -258t95 -354t-95 -354t-258 -258t-354 -95q-143 0 -274 56t-225.5 151t-150.5 226t-56 274zM190 682q0 -162 77.5 -299t212.5 -217t296 -80q122 0 232 47.5t188 127.5t124 190t46 231t-46 231 t-124 190t-188 127.5t-232 47.5q-161 0 -296 -80t-212.5 -217t-77.5 -299zM381 682q0 77 27.5 151.5t78.5 134.5t132 97t178 37q58 0 110 -12.5t84.5 -31t57 -36.5t35.5 -30l10 -13l-93 -143q-3 4 -8.5 10.5t-24 23t-40 29t-55.5 23t-70 10.5q-107 0 -164 -69t-57 -167 q0 -106 61.5 -179t165.5 -73q61 0 117 25t82 49l26 25l56 -150q-4 -5 -11.5 -13t-34 -28.5t-58 -36t-83 -28.5t-108.5 -13q-181 0 -297.5 117t-116.5 291z" />
<glyph unicode="&#xaa;" horiz-adv-x="813" d="M63 879q0 101 97.5 164t283.5 87v23q0 36 -16 56t-57 20q-47 0 -102.5 -22t-86.5 -44l-32 -22l-48 159q5 4 14.5 10t42 21t68 27t91.5 21.5t114 9.5q136 0 191 -53.5t55 -161.5v-236q0 -32 18.5 -50.5t37.5 -21.5l18 -2l-56 -159q-170 0 -229 90q-72 -97 -186 -97 q-97 0 -157.5 51t-60.5 130zM299 905q0 -23 14.5 -37t36.5 -14q42 0 94 49v109q-145 -23 -145 -107z" />
<glyph unicode="&#xab;" horiz-adv-x="1042" d="M25 510v8q23 18 47 44.5t160 182.5q103 118 176 201l157 -47l-284 -385q13 -19 284 -385l-157 -47q-87 98 -161.5 182.5t-106 120.5t-57.5 65.5t-36 39.5t-22 20zM430 510v8q23 18 49 46.5t157 177.5q32 37 52 59.5t56 64t71 80.5l158 -47l-285 -385q14 -19 285 -385 l-158 -47q-88 98 -162.5 182.5t-106.5 120.5t-58 65.5t-36 39.5t-22 20z" />
<glyph unicode="&#xac;" horiz-adv-x="1155" d="M88 633v180h954v-586h-188v406h-766z" />
<glyph unicode="&#xad;" horiz-adv-x="792" d="M102 442v170h588v-170h-588z" />
<glyph unicode="&#xae;" horiz-adv-x="854" d="M72 1087q0 146 104 250.5t250 104.5t250 -104.5t104 -250.5t-104 -250t-250 -104t-250 104t-104 250zM152 1087q0 -113 82.5 -198.5t191.5 -85.5t192.5 86t83.5 198t-83.5 197.5t-192.5 85.5t-191.5 -85.5t-82.5 -197.5zM295 918v348h123q143 0 143 -105q0 -63 -57 -94 l110 -149h-110l-88 126h-21v-126h-100zM395 1110h29q18 0 28.5 13t10.5 32q0 43 -53 43h-15v-88z" />
<glyph unicode="&#xaf;" horiz-adv-x="937" d="M188 1171v179h562v-179h-562z" />
<glyph unicode="&#xb0;" horiz-adv-x="630" d="M66 1145q0 102 72.5 174t176.5 72t177 -72t73 -174t-73 -174t-177 -72t-176.5 72t-72.5 174zM188 1145q0 -55 37 -92t90 -37t89 37t36 92t-36 91t-89 36t-90 -36t-37 -91z" />
<glyph unicode="&#xb1;" horiz-adv-x="1064" d="M100 616v183h338v344h193v-344h330v-183h-330v-323h-193v323h-338zM121 0v182h829v-182h-829z" />
<glyph unicode="&#xb2;" horiz-adv-x="724" d="M49 1499q5 5 13.5 12.5t37 27t59.5 34.5t79.5 27t97.5 12q128 0 212.5 -71.5t84.5 -188.5q0 -100 -67 -194t-204 -216h308v-172h-598l-19 139q18 16 55 48t56.5 49.5t52.5 48t52 49.5t44.5 46.5t39.5 48t28.5 44t20.5 45t6 41.5q0 41 -28.5 61.5t-74.5 20.5 q-39 0 -74.5 -14.5t-50.5 -28.5l-16 -14z" />
<glyph unicode="&#xb3;" horiz-adv-x="692" d="M33 836l96 155q8 -6 23 -15t57.5 -24.5t81.5 -15.5q49 0 75.5 22t26.5 60q0 76 -127 76h-80v168q77 3 123.5 28t46.5 72q0 61 -75 61q-30 0 -62.5 -11.5t-49.5 -22.5l-17 -11l-95 144q5 4 14 10t38.5 21.5t60.5 27.5t77.5 21.5t92.5 9.5q123 0 190.5 -61t67.5 -144 q0 -70 -45 -126.5t-98 -78.5q81 -18 130.5 -68.5t49.5 -121.5q0 -103 -95 -181.5t-237 -78.5q-69 0 -136.5 21t-100.5 42z" />
<glyph unicode="&#xb4;" horiz-adv-x="1095" d="M291 1124l213 332h280l-335 -414z" />
<glyph unicode="&#xb6;" horiz-adv-x="1394" d="M59 864q0 96 37.5 184.5t108 160t185 114.5t255.5 43h660v-147h-152v-1219h-158v1219h-153v-1260q0 -444 -391 -444l-31 159q133 0 193.5 74t60.5 242v377h-19q-149 0 -266 42t-187.5 112.5t-106.5 158t-36 184.5z" />
<glyph unicode="&#xb7;" horiz-adv-x="538" d="M92 524q0 72 52 125t124 53q73 0 127 -53t54 -125t-53.5 -124t-127.5 -52q-72 0 -124 52t-52 124z" />
<glyph unicode="&#xb8;" horiz-adv-x="1052" d="M324 -422l51 123q8 -7 23 -16.5t58 -26t83 -16.5q41 0 66.5 13.5t25.5 33.5q0 21 -27.5 39t-60.5 31t-60.5 38.5t-27.5 59.5q0 37 30 92l27 51h137l-20 -41q-17 -45 -17 -49q0 -17 19 -29t46 -23t54.5 -25.5t46.5 -44.5t19 -73q0 -88 -70.5 -144t-187.5 -56 q-60 0 -113.5 15.5t-77.5 31.5z" />
<glyph unicode="&#xb9;" horiz-adv-x="681" d="M61 770v164h199v500h-182v163h403v-663h178v-164h-598z" />
<glyph unicode="&#xba;" horiz-adv-x="892" d="M63 1042q0 65 21.5 124t65 110.5t120 82t176.5 30.5q95 0 170.5 -28.5t120.5 -76t68.5 -106t23.5 -123.5q0 -49 -12.5 -97t-41.5 -95.5t-72 -83.5t-110 -58.5t-149 -22.5q-94 0 -168.5 28.5t-120 77.5t-69 109.5t-23.5 128.5zM307 1047q0 -75 36.5 -132t102.5 -57 q60 0 100 50t40 130q0 76 -36 133.5t-99 57.5q-60 0 -102 -51t-42 -131z" />
<glyph unicode="&#xbb;" horiz-adv-x="1042" d="M72 129l282 385q-13 15 -282 385l157 47q333 -381 351 -399q15 -16 32 -29v-8q-12 -10 -22 -20t-36 -39.5t-57.5 -65.5t-106 -120.5t-161.5 -182.5zM477 129l285 385q-14 15 -285 385l156 47q76 -86 183 -207q126 -143 154 -173t50 -48v-8q-12 -10 -22 -20t-36 -39.5 t-58 -65.5t-107.5 -120.5t-163.5 -182.5z" />
<glyph unicode="&#xbc;" horiz-adv-x="1777" d="M86 535v163h199v500h-183v164h404v-664h178v-163h-598zM475 0l819 1423l144 -65l-781 -1358h-182zM1024 319l307 510h275v-499h106v-164h-106v-166h-213v166h-349zM1200 330h193v315z" />
<glyph unicode="&#xbd;" horiz-adv-x="1841" d="M84 535v163h199v500h-183v164h404v-664h178v-163h-598zM535 0l819 1423l143 -65l-780 -1358h-182zM1153 729q5 5 13.5 12.5t37 27t59.5 34.5t79.5 27t97.5 12q128 0 212.5 -71.5t84.5 -188.5q0 -100 -67 -194t-204 -216h308v-172h-598l-19 139q17 15 55 48t56.5 50 t52.5 47.5t52 49.5t43.5 46.5t39.5 48t28.5 44t20.5 45t6 41.5q0 41 -28.5 61.5t-73.5 20.5q-39 0 -74.5 -14.5t-50.5 -28.5l-16 -14z" />
<glyph unicode="&#xbe;" horiz-adv-x="1812" d="M66 600l96 156q8 -6 23 -15.5t57.5 -25t81.5 -15.5q49 0 75.5 22t26.5 60q0 76 -127 76h-80v168q77 3 123.5 28t46.5 72q0 62 -76 62q-30 0 -62.5 -11t-49.5 -23l-17 -11l-94 143q5 4 14 10t38.5 21.5t60.5 27.5t77.5 21.5t92.5 9.5q123 0 190.5 -61t67.5 -144 q0 -70 -45 -126t-99 -78q81 -18 131 -69t50 -122q0 -103 -95 -181.5t-237 -78.5q-69 0 -136.5 21t-100.5 42zM508 0l819 1423l143 -65l-780 -1358h-182zM1057 319l307 510h274v-499h107v-164h-107v-166h-213v166h-348zM1233 330h192v315z" />
<glyph unicode="&#xbf;" horiz-adv-x="813" d="M66 -51q0 53 30.5 105.5t73.5 97t86 88.5t73.5 96.5t30.5 105.5h250q2 -22 2 -34q0 -58 -21.5 -113.5t-53 -97.5t-62.5 -78.5t-52.5 -69t-21.5 -55.5q0 -35 35 -73t85 -66.5t100 -52.5t85 -37l35 -13l-69 -270q-13 3 -34.5 10t-84.5 30t-120.5 48.5t-127 67.5t-120 86 t-85 103.5t-34.5 121.5zM303 786q0 71 52.5 124t125.5 53t124.5 -53t51.5 -124q0 -75 -51.5 -127.5t-124.5 -52.5q-74 0 -126 52.5t-52 127.5z" />
<glyph unicode="&#xc0;" horiz-adv-x="1320" d="M2 0l508 1376h301l508 -1376h-322l-86 246h-510l-86 -246h-313zM365 1583l75 207l471 -195l-59 -155zM494 512h325l-164 463z" />
<glyph unicode="&#xc1;" horiz-adv-x="1320" d="M2 0l508 1376h301l508 -1376h-322l-86 246h-510l-86 -246h-313zM401 1595l471 195l74 -207l-487 -143zM494 512h325l-164 463z" />
<glyph unicode="&#xc2;" horiz-adv-x="1320" d="M2 0l508 1376h301l508 -1376h-322l-86 246h-510l-86 -246h-313zM281 1565l258 219h235l256 -219l-156 -95l-221 168l-219 -168zM494 512h325l-164 463z" />
<glyph unicode="&#xc3;" horiz-adv-x="1320" d="M2 0l508 1376h301l508 -1376h-322l-86 246h-510l-86 -246h-313zM258 1528q0 30 4 58.5t18 65t38 63t68 45t103 18.5q63 0 119 -20t88 -44.5t66.5 -44.5t60.5 -20q60 0 60 96l-2 27h174q2 -14 2 -41q0 -29 -4 -58t-19 -67t-39 -66t-69.5 -47.5t-106.5 -19.5 q-64 0 -117 20.5t-81.5 45t-61.5 45t-63 20.5q-64 0 -64 -95l2 -28h-174q-2 18 -2 47zM494 512h325l-164 463z" />
<glyph unicode="&#xc4;" horiz-adv-x="1320" d="M2 0l508 1376h301l508 -1376h-322l-86 246h-510l-86 -246h-313zM227 1628q0 70 44 112t116 42t116 -42t44 -112q0 -69 -44 -110t-116 -41t-116 41t-44 110zM494 512h325l-164 463zM764 1628q0 70 44.5 112t115.5 42t115 -42t44 -112q0 -69 -44 -110t-115 -41t-115.5 41.5 t-44.5 109.5z" />
<glyph unicode="&#xc5;" horiz-adv-x="1320" d="M2 0l508 1376h301l508 -1376h-322l-86 246h-510l-86 -246h-313zM440 1622q0 67 53.5 114.5t161.5 47.5q106 0 159.5 -47.5t53.5 -114.5q0 -78 -52.5 -127t-160.5 -49q-109 0 -162 49t-53 127zM494 512h325l-164 463zM565 1620q0 -39 23.5 -61.5t66.5 -22.5t68 23t25 61 q0 29 -25 51.5t-68 22.5q-44 0 -67 -22.5t-23 -51.5z" />
<glyph unicode="&#xc6;" horiz-adv-x="1886" d="M-31 0l768 1366h1059v-264h-573v-277h454v-268h-454v-293h602v-264h-920v336h-416l-182 -336h-338zM635 602h270v496z" />
<glyph unicode="&#xc7;" horiz-adv-x="1384" d="M72 653q0 155 54.5 290t153 234.5t246 156.5t324.5 57q91 0 174 -11.5t137 -27.5t94.5 -32.5t58.5 -27.5l19 -12l-116 -264q-5 4 -15 10.5t-45.5 23.5t-75.5 30t-105 23.5t-134 10.5q-202 0 -326.5 -116t-124.5 -316q0 -105 37 -189t99.5 -135.5t141 -78.5t165.5 -27 q70 0 136 12.5t111 30t79.5 34.5t50.5 29l16 13l129 -230q-6 -7 -19 -17.5t-59.5 -38.5t-101.5 -49.5t-146 -40t-192 -20.5l-9 -16q-16 -43 -16 -49q0 -17 19 -29t46 -23t54 -25.5t46 -44.5t19 -73q0 -88 -70.5 -144t-187.5 -56q-60 0 -113.5 15.5t-77.5 31.5l-24 16l51 123 q8 -7 23 -16.5t58 -26t83 -16.5q41 0 66.5 13.5t25.5 33.5q0 21 -27.5 39t-60.5 31t-60.5 38.5t-27.5 59.5q0 35 31 92l16 33q-106 12 -199.5 45.5t-172.5 91t-136.5 134t-89.5 179t-32 221.5z" />
<glyph unicode="&#xc8;" horiz-adv-x="1134" d="M154 0v1366h893v-264h-576v-277h455v-268h-455v-293h602v-264h-919zM317 1583l76 207l471 -195l-59 -155z" />
<glyph unicode="&#xc9;" horiz-adv-x="1134" d="M154 0v1366h893v-264h-576v-277h455v-268h-455v-293h602v-264h-919zM354 1595l471 195l74 -207l-487 -143z" />
<glyph unicode="&#xca;" horiz-adv-x="1134" d="M154 0v1366h893v-264h-576v-277h455v-268h-455v-293h602v-264h-919zM233 1565l259 219h235l256 -219l-156 -95l-221 168l-219 -168z" />
<glyph unicode="&#xcb;" horiz-adv-x="1134" d="M154 0v1366h893v-264h-576v-277h455v-268h-455v-293h602v-264h-919zM180 1628q0 70 44 112t116 42t116 -42t44 -112q0 -69 -44 -110t-116 -41t-116 41t-44 110zM717 1628q0 70 44.5 112t115.5 42t115 -42t44 -112q0 -69 -44 -110t-115 -41t-115.5 41.5t-44.5 109.5z" />
<glyph unicode="&#xcc;" horiz-adv-x="626" d="M27 1583l75 207l471 -195l-59 -155zM154 0v1366h317v-1366h-317z" />
<glyph unicode="&#xcd;" horiz-adv-x="626" d="M63 1595l472 195l73 -207l-487 -143zM154 0v1366h317v-1366h-317z" />
<glyph unicode="&#xce;" horiz-adv-x="626" d="M-57 1565l258 219h235l256 -219l-155 -95l-222 168l-219 -168zM154 0v1366h317v-1366h-317z" />
<glyph unicode="&#xcf;" horiz-adv-x="626" d="M-72 1634q0 70 41.5 109t112.5 39t112.5 -39t41.5 -109t-41 -107.5t-113 -37.5t-113 37.5t-41 107.5zM154 0v1366h317v-1366h-317zM403 1634q0 70 41 109t113 39q71 0 112.5 -39t41.5 -109t-41 -107.5t-113 -37.5q-73 0 -113.5 37.5t-40.5 107.5z" />
<glyph unicode="&#xd0;" horiz-adv-x="1533" d="M45 575v238h148v553h524q114 0 218.5 -21.5t202 -72t168.5 -125t113.5 -188t42.5 -254.5q0 -169 -60.5 -303.5t-169.5 -222t-259.5 -133.5t-333.5 -46h-446v575h-148zM508 264h110q135 0 236 33t161.5 92.5t90 136.5t29.5 170q0 186 -113.5 296t-333.5 110h-180v-289h299 v-238h-299v-311z" />
<glyph unicode="&#xd1;" horiz-adv-x="1529" d="M154 0v1366h321l590 -874v874h311v-1366h-325l-586 874v-874h-311zM367 1528q0 30 4 58.5t18 65t38 63t68 45t103 18.5q63 0 119 -20t88 -44.5t66.5 -44.5t60.5 -20q59 0 59 96l-2 27h174q2 -14 2 -41q0 -30 -4 -58.5t-18.5 -66.5t-38.5 -66t-69.5 -47.5t-106.5 -19.5 q-53 0 -97 13.5t-73 32.5t-54 38.5t-50 33t-50 13.5q-63 0 -63 -95l2 -28h-174q-2 18 -2 47z" />
<glyph unicode="&#xd2;" d="M66 680q0 107 31 209t94.5 193t152.5 160t214 109t269 40q172 0 316 -54.5t239.5 -148t148 -217t52.5 -262.5q0 -141 -55 -273t-152.5 -234.5t-245.5 -164.5t-321 -62q-137 0 -256.5 38t-207.5 104.5t-151.5 155t-95.5 192.5t-32 215zM395 686q0 -64 16 -126.5t50 -120 t82.5 -101.5t118.5 -70t153 -26q100 0 184 37.5t138 101t84 144t30 167.5q0 84 -27.5 161t-79 138t-134 97t-185.5 36q-102 0 -185 -36.5t-136 -97.5t-81 -139.5t-28 -164.5zM532 1583l76 207l471 -195l-59 -155z" />
<glyph unicode="&#xd3;" d="M66 680q0 107 31 209t94.5 193t152.5 160t214 109t269 40q172 0 316 -54.5t239.5 -148t148 -217t52.5 -262.5q0 -141 -55 -273t-152.5 -234.5t-245.5 -164.5t-321 -62q-137 0 -256.5 38t-207.5 104.5t-151.5 155t-95.5 192.5t-32 215zM395 686q0 -64 16 -126.5t50 -120 t82.5 -101.5t118.5 -70t153 -26q100 0 184 37.5t138 101t84 144t30 167.5q0 84 -27.5 161t-79 138t-134 97t-185.5 36q-102 0 -185 -36.5t-136 -97.5t-81 -139.5t-28 -164.5zM569 1595l471 195l74 -207l-487 -143z" />
<glyph unicode="&#xd4;" d="M66 680q0 107 31 209t94.5 193t152.5 160t214 109t269 40q172 0 316 -54.5t239.5 -148t148 -217t52.5 -262.5q0 -141 -55 -273t-152.5 -234.5t-245.5 -164.5t-321 -62q-137 0 -256.5 38t-207.5 104.5t-151.5 155t-95.5 192.5t-32 215zM395 686q0 -64 16 -126.5t50 -120 t82.5 -101.5t118.5 -70t153 -26q100 0 184 37.5t138 101t84 144t30 167.5q0 84 -27.5 161t-79 138t-134 97t-185.5 36q-102 0 -185 -36.5t-136 -97.5t-81 -139.5t-28 -164.5zM449 1565l258 219h235l256 -219l-156 -95l-221 168l-219 -168z" />
<glyph unicode="&#xd5;" d="M66 680q0 107 31 209t94.5 193t152.5 160t214 109t269 40q172 0 316 -54.5t239.5 -148t148 -217t52.5 -262.5q0 -141 -55 -273t-152.5 -234.5t-245.5 -164.5t-321 -62q-137 0 -256.5 38t-207.5 104.5t-151.5 155t-95.5 192.5t-32 215zM395 686q0 -64 16 -126.5t50 -120 t82.5 -101.5t118.5 -70t153 -26q100 0 184 37.5t138 101t84 144t30 167.5q0 84 -27.5 161t-79 138t-134 97t-185.5 36q-102 0 -185 -36.5t-136 -97.5t-81 -139.5t-28 -164.5zM426 1528q0 30 4 58.5t18 65t38 63t68 45t103 18.5q63 0 119 -20t88 -44.5t66.5 -44.5t60.5 -20 q60 0 60 96l-2 27h174q2 -14 2 -41q0 -29 -4 -58t-19 -67t-39 -66t-69.5 -47.5t-106.5 -19.5q-64 0 -117 20.5t-81.5 45t-61.5 45t-63 20.5q-64 0 -64 -95l2 -28h-174q-2 18 -2 47z" />
<glyph unicode="&#xd6;" d="M66 680q0 107 31 209t94.5 193t152.5 160t214 109t269 40q172 0 316 -54.5t239.5 -148t148 -217t52.5 -262.5q0 -141 -55 -273t-152.5 -234.5t-245.5 -164.5t-321 -62q-137 0 -256.5 38t-207.5 104.5t-151.5 155t-95.5 192.5t-32 215zM395 686q0 -64 16 -126.5t50 -120 t82.5 -101.5t118.5 -70t153 -26q100 0 184 37.5t138 101t84 144t30 167.5q0 84 -27.5 161t-79 138t-134 97t-185.5 36q-102 0 -185 -36.5t-136 -97.5t-81 -139.5t-28 -164.5zM395 1628q0 70 44 112t116 42t116 -42t44 -112q0 -69 -44 -110t-116 -41t-116 41t-44 110z M932 1628q0 70 44.5 112t115.5 42t115 -42t44 -112q0 -69 -44 -110t-115 -41t-115.5 41.5t-44.5 109.5z" />
<glyph unicode="&#xd7;" horiz-adv-x="1064" d="M66 168l344 354l-344 355l122 124l344 -354l345 354l122 -124l-346 -355l346 -354l-125 -125l-342 352l-342 -352z" />
<glyph unicode="&#xd8;" d="M66 680q0 107 31 209t94.5 193t152.5 160t214 109t269 40q209 0 375 -80l88 116h176l-143 -190q124 -93 192 -232t68 -296q0 -141 -55 -273t-152.5 -234.5t-245.5 -164.5t-321 -62q-209 0 -379 88l-96 -124h-178l155 202q-119 99 -182 239.5t-63 299.5zM395 686 q0 -175 103 -299l528 692q-95 45 -201 45q-102 0 -185 -36t-136 -97.5t-81 -139.5t-28 -165zM604 293q97 -51 211 -51q100 0 184 37.5t138 101t84 144t30 167.5q0 185 -112 303z" />
<glyph unicode="&#xd9;" horiz-adv-x="1449" d="M139 522v844h318v-819q0 -160 72 -232.5t198 -72.5q128 0 200 79t72 218v827h316v-815q0 -137 -46 -247.5t-126.5 -181.5t-187.5 -109t-230 -38q-125 0 -228 30.5t-185 93.5t-127.5 171t-45.5 252zM434 1583l76 207l471 -195l-59 -155z" />
<glyph unicode="&#xda;" horiz-adv-x="1449" d="M139 522v844h318v-819q0 -160 72 -232.5t198 -72.5q128 0 200 79t72 218v827h316v-815q0 -137 -46 -247.5t-126.5 -181.5t-187.5 -109t-230 -38q-125 0 -228 30.5t-185 93.5t-127.5 171t-45.5 252zM471 1595l471 195l74 -207l-488 -143z" />
<glyph unicode="&#xdb;" horiz-adv-x="1449" d="M139 522v844h318v-819q0 -160 72 -232.5t198 -72.5q128 0 200 79t72 218v827h316v-815q0 -137 -46 -247.5t-126.5 -181.5t-187.5 -109t-230 -38q-125 0 -228 30.5t-185 93.5t-127.5 171t-45.5 252zM350 1565l258 219h236l256 -219l-156 -95l-221 168l-219 -168z" />
<glyph unicode="&#xdc;" horiz-adv-x="1449" d="M139 522v844h318v-819q0 -160 72 -232.5t198 -72.5q128 0 200 79t72 218v827h316v-815q0 -137 -46 -247.5t-126.5 -181.5t-187.5 -109t-230 -38q-125 0 -228 30.5t-185 93.5t-127.5 171t-45.5 252zM297 1628q0 70 44 112t116 42t115.5 -42t43.5 -112q0 -69 -43.5 -110 t-115.5 -41t-116 41t-44 110zM834 1628q0 70 44 112t115 42t115.5 -42t44.5 -112q0 -68 -44.5 -109.5t-115.5 -41.5t-115 41t-44 110z" />
<glyph unicode="&#xdd;" horiz-adv-x="1284" d="M-10 1366h372l279 -502l295 502h358l-493 -807v-559h-318v557zM383 1595l471 195l74 -207l-488 -143z" />
<glyph unicode="&#xde;" horiz-adv-x="1218" d="M154 0v1366h317v-262h221q125 0 220 -31.5t151 -86.5t83.5 -125t27.5 -152q0 -198 -134 -314t-348 -116h-221v-279h-317zM471 547h172q109 0 155 37.5t46 109.5q0 70 -42.5 108t-158.5 38h-172v-293z" />
<glyph unicode="&#xdf;" horiz-adv-x="1259" d="M37 723v170l145 49v68q0 231 122 357t351 126q193 0 309.5 -87t116.5 -235q0 -57 -18.5 -106.5t-44.5 -84t-52 -65t-44.5 -62t-18.5 -62.5t18 -59t46.5 -51.5t63 -48t69 -54.5t63 -65t46.5 -85t18 -109q0 -153 -111 -248.5t-303 -95.5q-59 0 -113 9.5t-78 19.5l-24 10 l39 238q7 -5 19.5 -13t49 -21t72.5 -13q60 0 95.5 32.5t35.5 79.5q0 33 -20.5 62t-51 49t-66.5 48.5t-66.5 58t-51 79.5t-20.5 111q0 55 16.5 100t40 76.5t47 61.5t40 71t16.5 90q0 148 -138 148q-85 0 -123 -59.5t-38 -194.5v-1018h-312v723h-145z" />
<glyph unicode="&#xe0;" horiz-adv-x="1034" d="M43 229q0 287 541 359v35q0 62 -25 90t-82 28q-74 0 -151.5 -28.5t-118.5 -56.5l-41 -29l-66 211q7 5 20 13.5t57.5 30t93 38t125.5 30t157 13.5q189 0 264.5 -75t75.5 -235v-329q0 -28 11 -48.5t26.5 -29.5t31 -14.5t26.5 -5.5l11 -1l-86 -239q-211 -3 -292 133 q-12 -21 -31 -41.5t-52 -46t-85.5 -41t-114.5 -15.5q-133 0 -214 70.5t-81 183.5zM131 1456h283l215 -332l-162 -82zM354 258q0 -70 68 -70q81 0 162 101v139q-118 -18 -174 -62.5t-56 -107.5z" />
<glyph unicode="&#xe1;" horiz-adv-x="1034" d="M43 229q0 287 541 359v35q0 62 -25 90t-82 28q-74 0 -151.5 -28.5t-118.5 -56.5l-41 -29l-66 211q7 5 20 13.5t57.5 30t93 38t125.5 30t157 13.5q189 0 264.5 -75t75.5 -235v-329q0 -28 11 -48.5t26.5 -29.5t31 -14.5t26.5 -5.5l11 -1l-86 -239q-211 -3 -292 133 q-12 -21 -31 -41.5t-52 -46t-85.5 -41t-114.5 -15.5q-133 0 -214 70.5t-81 183.5zM338 1124l213 332h280l-335 -414zM354 258q0 -70 68 -70q81 0 162 101v139q-118 -18 -174 -62.5t-56 -107.5z" />
<glyph unicode="&#xe2;" horiz-adv-x="1034" d="M43 229q0 287 541 359v35q0 62 -25 90t-82 28q-74 0 -151.5 -28.5t-118.5 -56.5l-41 -29l-66 211q7 5 20 13.5t57.5 30t93 38t125.5 30t157 13.5q189 0 264.5 -75t75.5 -235v-329q0 -28 11 -48.5t26.5 -29.5t31 -14.5t26.5 -5.5l11 -1l-86 -239q-211 -3 -292 133 q-12 -21 -31 -41.5t-52 -46t-85.5 -41t-114.5 -15.5q-133 0 -214 70.5t-81 183.5zM156 1106l237 350h182l240 -354l-164 -62l-168 238l-168 -238zM354 258q0 -70 68 -70q81 0 162 101v139q-118 -18 -174 -62.5t-56 -107.5z" />
<glyph unicode="&#xe3;" horiz-adv-x="1034" d="M43 229q0 287 541 359v35q0 62 -25 90t-82 28q-74 0 -151.5 -28.5t-118.5 -56.5l-41 -29l-66 211q7 5 20 13.5t57.5 30t93 38t125.5 30t157 13.5q189 0 264.5 -75t75.5 -235v-329q0 -28 11 -48.5t26.5 -29.5t31 -14.5t26.5 -5.5l11 -1l-86 -239q-211 -3 -292 133 q-12 -21 -31 -41.5t-52 -46t-85.5 -41t-114.5 -15.5q-133 0 -214 70.5t-81 183.5zM106 1153q0 30 3.5 60t17.5 70t37 69t66 50t100 21q61 0 112 -24t79 -52.5t58.5 -52.5t55.5 -24q57 0 57 102l-2 37h184q3 -15 3 -35q0 -30 -3.5 -60t-18 -71t-38 -71.5t-67.5 -52 t-103 -21.5q-51 0 -92 16t-67.5 38t-48 44.5t-43.5 38.5t-44 16q-61 0 -61 -106l2 -31h-184q-3 14 -3 39zM354 258q0 -70 68 -70q81 0 162 101v139q-118 -18 -174 -62.5t-56 -107.5z" />
<glyph unicode="&#xe4;" horiz-adv-x="1034" d="M43 229q0 287 541 359v35q0 62 -25 90t-82 28q-74 0 -151.5 -28.5t-118.5 -56.5l-41 -29l-66 211q7 5 20 13.5t57.5 30t93 38t125.5 30t157 13.5q189 0 264.5 -75t75.5 -235v-329q0 -28 11 -48.5t26.5 -29.5t31 -14.5t26.5 -5.5l11 -1l-86 -239q-211 -3 -292 133 q-12 -21 -31 -41.5t-52 -46t-85.5 -41t-114.5 -15.5q-133 0 -214 70.5t-81 183.5zM92 1282q0 70 41.5 109t112.5 39t112 -39t41 -109t-41 -107.5t-112 -37.5q-72 0 -113 37.5t-41 107.5zM354 258q0 -70 68 -70q81 0 162 101v139q-118 -18 -174 -62.5t-56 -107.5zM567 1282 q0 70 41 109t113 39q71 0 112 -39t41 -109t-41 -107.5t-112 -37.5q-73 0 -113.5 37.5t-40.5 107.5z" />
<glyph unicode="&#xe5;" horiz-adv-x="1034" d="M43 229q0 287 541 359v35q0 62 -25 90t-82 28q-74 0 -151.5 -28.5t-118.5 -56.5l-41 -29l-66 211q7 5 20 13.5t57.5 30t93 38t125.5 30t157 13.5q189 0 264.5 -75t75.5 -235v-329q0 -28 11 -48.5t26.5 -29.5t31 -14.5t26.5 -5.5l11 -1l-86 -239q-211 -3 -292 133 q-12 -21 -31 -41.5t-52 -46t-85.5 -41t-114.5 -15.5q-133 0 -214 70.5t-81 183.5zM264 1290q0 72 56 129.5t163 57.5q105 0 160 -57.5t55 -129.5q0 -74 -55.5 -135t-159.5 -61q-106 0 -162.5 61.5t-56.5 134.5zM354 258q0 -70 68 -70q81 0 162 101v139q-118 -18 -174 -62.5 t-56 -107.5zM391 1288q0 -35 25.5 -61.5t66.5 -26.5q40 0 66 26.5t26 61.5q0 34 -25 59t-67 25q-43 0 -67.5 -24.5t-24.5 -59.5z" />
<glyph unicode="&#xe6;" horiz-adv-x="1538" d="M43 225q0 140 140.5 220t404.5 112v43q0 80 -24.5 116t-92.5 36q-42 0 -89 -12t-83.5 -29t-67.5 -34.5t-48 -29.5l-17 -12l-66 203q7 5 21 13.5t58.5 30t91 38t115.5 30t136 13.5q100 0 158.5 -30t95.5 -87q111 117 279 117q89 0 163 -28.5t130 -85t87.5 -148 t32.5 -209.5l-161 -54l-414 -45q25 -93 86 -144.5t151 -51.5q43 0 87.5 12t78 29t61 34t41.5 29l15 12l72 -209q-7 -5 -19 -14t-53 -31t-85 -39t-111.5 -31t-135.5 -14q-245 0 -374 189q-17 -31 -45.5 -60.5t-72 -60t-106 -49.5t-133.5 -19q-142 0 -224.5 70.5t-82.5 179.5z M344 248q0 -35 23 -53.5t57 -18.5q64 0 116 58.5t52 144.5q-248 -19 -248 -131zM885 569l260 29q0 6 -1 16t-7.5 36t-17.5 46t-34.5 36t-54.5 16q-59 0 -97.5 -47.5t-47.5 -131.5z" />
<glyph unicode="&#xe7;" horiz-adv-x="970" d="M55 446q0 137 66.5 255t189.5 190t275 72q96 0 183.5 -23.5t126.5 -46.5l40 -23l-102 -221q-4 3 -11 9t-30 20.5t-46.5 25.5t-57.5 20t-66 9q-107 0 -178.5 -67.5t-71.5 -200.5q0 -124 63.5 -192t165.5 -68q39 0 78 9.5t67 23t50.5 27t33.5 23.5l11 9l94 -203 q-4 -5 -12.5 -12.5t-38.5 -27t-65 -34.5t-94 -29t-124 -16l-8 -16q-16 -43 -16 -49q0 -20 29 -35.5t63 -27.5t63 -46t29 -86q0 -88 -70.5 -144t-187.5 -56q-60 0 -113.5 15.5t-77.5 31.5l-24 16l51 123q8 -7 23 -16.5t58 -26t83 -16.5q41 0 66.5 13.5t25.5 33.5 q0 21 -27.5 39t-60.5 31t-60.5 38.5t-27.5 59.5q0 35 31 92l18 35q-191 30 -302.5 158.5t-111.5 303.5z" />
<glyph unicode="&#xe8;" horiz-adv-x="1017" d="M59 465q0 137 57.5 250t166.5 180.5t249 67.5q187 0 300 -123.5t114 -362.5l-162 -45l-409 -53q53 -174 223 -174q65 0 137.5 28t112.5 56l39 28l80 -213q-7 -5 -19.5 -14t-54 -31t-86 -39t-113 -31t-137.5 -14q-120 0 -216.5 40t-157 108t-92.5 155.5t-32 186.5z M162 1456h282l215 -332l-161 -82zM360 541l261 34q0 7 -1 18t-7.5 39t-17.5 50t-34.5 39.5t-54.5 17.5q-63 0 -101.5 -54t-44.5 -144z" />
<glyph unicode="&#xe9;" horiz-adv-x="1017" d="M59 465q0 137 57.5 250t166.5 180.5t249 67.5q187 0 300 -123.5t114 -362.5l-162 -45l-409 -53q53 -174 223 -174q65 0 137.5 28t112.5 56l39 28l80 -213q-7 -5 -19.5 -14t-54 -31t-86 -39t-113 -31t-137.5 -14q-120 0 -216.5 40t-157 108t-92.5 155.5t-32 186.5z M360 541l261 34q0 7 -1 18t-7.5 39t-17.5 50t-34.5 39.5t-54.5 17.5q-63 0 -101.5 -54t-44.5 -144zM371 1124l213 332h280l-336 -414z" />
<glyph unicode="&#xea;" horiz-adv-x="1017" d="M59 465q0 137 57.5 250t166.5 180.5t249 67.5q187 0 300 -123.5t114 -362.5l-162 -45l-409 -53q53 -174 223 -174q65 0 137.5 28t112.5 56l39 28l80 -213q-7 -5 -19.5 -14t-54 -31t-86 -39t-113 -31t-137.5 -14q-120 0 -216.5 40t-157 108t-92.5 155.5t-32 186.5z M188 1106l238 350h182l240 -354l-164 -62l-168 238l-168 -238zM360 541l261 34q0 7 -1 18t-7.5 39t-17.5 50t-34.5 39.5t-54.5 17.5q-63 0 -101.5 -54t-44.5 -144z" />
<glyph unicode="&#xeb;" horiz-adv-x="1017" d="M59 465q0 137 57.5 250t166.5 180.5t249 67.5q187 0 300 -123.5t114 -362.5l-162 -45l-409 -53q53 -174 223 -174q65 0 137.5 28t112.5 56l39 28l80 -213q-7 -5 -19.5 -14t-54 -31t-86 -39t-113 -31t-137.5 -14q-120 0 -216.5 40t-157 108t-92.5 155.5t-32 186.5z M125 1282q0 70 41.5 109t112.5 39t112 -39t41 -109t-41 -107.5t-112 -37.5q-72 0 -113 37.5t-41 107.5zM360 541l261 34q0 7 -1 18t-7.5 39t-17.5 50t-34.5 39.5t-54.5 17.5q-63 0 -101.5 -54t-44.5 -144zM600 1282q0 70 41 109t113 39q71 0 112 -39t41 -109t-41 -107.5 t-112 -37.5q-73 0 -113.5 37.5t-40.5 107.5z" />
<glyph unicode="&#xec;" horiz-adv-x="540" d="M-82 1456h283l215 -332l-162 -82zM115 0v938h311v-938h-311z" />
<glyph unicode="&#xed;" horiz-adv-x="540" d="M115 0v938h311v-938h-311zM127 1124l213 332h281l-336 -414z" />
<glyph unicode="&#xee;" horiz-adv-x="540" d="M-55 1106l237 350h183l239 -354l-164 -62l-168 238l-168 -238zM115 0v938h311v-938h-311z" />
<glyph unicode="&#xef;" horiz-adv-x="540" d="M-119 1282q0 70 41.5 109t112.5 39t112 -39t41 -109t-41 -107.5t-112 -37.5q-72 0 -113 37.5t-41 107.5zM115 0v938h311v-938h-311zM356 1282q0 70 41 109t113 39q71 0 112.5 -39t41.5 -109t-41 -107.5t-113 -37.5q-73 0 -113.5 37.5t-40.5 107.5z" />
<glyph unicode="&#xf0;" horiz-adv-x="1128" d="M57 442q0 96 31.5 188t88.5 166.5t146 120.5t193 46q25 0 48 -3t40.5 -7t32 -9.5t24.5 -11t17 -9.5t10 -7l4 -3q-68 133 -192 228l-277 -152l-71 137l192 107q-121 51 -231 74l59 219q235 -44 422 -156l303 166l70 -139l-236 -129q152 -130 236 -306.5t84 -381.5 q0 -170 -58.5 -305.5t-177.5 -217.5t-280 -82q-113 0 -205 37.5t-151 102.5t-90.5 148.5t-31.5 178.5zM354 461q0 -63 17 -120.5t62 -101.5t110 -44q93 0 154 80.5t61 263.5q0 82 -42.5 142t-127.5 60q-102 0 -168 -78.5t-66 -201.5z" />
<glyph unicode="&#xf1;" horiz-adv-x="1103" d="M111 0v913l295 48v-168q148 170 333 170q262 0 262 -304v-659h-311v514q0 102 -12.5 141t-61.5 39q-81 0 -194 -116v-578h-311zM190 1153q0 30 3.5 60t17.5 70t37 69t66 50t100 21q61 0 112 -24t79 -52.5t58.5 -52.5t55.5 -24q57 0 57 102l-2 37h184q3 -15 3 -35 q0 -30 -3.5 -60t-18 -71t-38 -71.5t-67.5 -52t-103 -21.5q-51 0 -92 16t-67.5 38t-48 44.5t-43.5 38.5t-44 16q-61 0 -61 -106l2 -31h-184q-3 14 -3 39z" />
<glyph unicode="&#xf2;" horiz-adv-x="1171" d="M57 467q0 74 17.5 142.5t58 133.5t100 113.5t150.5 77.5t203 29q107 0 196.5 -26.5t150.5 -72t103.5 -107t62 -130t19.5 -142.5q0 -69 -17 -137.5t-57.5 -136.5t-100 -119.5t-153 -84t-208.5 -32.5q-130 0 -232.5 41t-165 110.5t-95 156.5t-32.5 184zM238 1456h282 l215 -332l-162 -82zM375 479q0 -113 56 -198.5t153 -85.5q91 0 154 75t63 191q0 69 -23 131.5t-73 105.5t-117 43q-90 0 -151.5 -72.5t-61.5 -189.5z" />
<glyph unicode="&#xf3;" horiz-adv-x="1171" d="M57 467q0 74 17.5 142.5t58 133.5t100 113.5t150.5 77.5t203 29q107 0 196.5 -26.5t150.5 -72t103.5 -107t62 -130t19.5 -142.5q0 -69 -17 -137.5t-57.5 -136.5t-100 -119.5t-153 -84t-208.5 -32.5q-130 0 -232.5 41t-165 110.5t-95 156.5t-32.5 184zM375 479 q0 -113 56 -198.5t153 -85.5q91 0 154 75t63 191q0 69 -23 131.5t-73 105.5t-117 43q-90 0 -151.5 -72.5t-61.5 -189.5zM444 1124l213 332h281l-336 -414z" />
<glyph unicode="&#xf4;" horiz-adv-x="1171" d="M57 467q0 74 17.5 142.5t58 133.5t100 113.5t150.5 77.5t203 29q107 0 196.5 -26.5t150.5 -72t103.5 -107t62 -130t19.5 -142.5q0 -69 -17 -137.5t-57.5 -136.5t-100 -119.5t-153 -84t-208.5 -32.5q-130 0 -232.5 41t-165 110.5t-95 156.5t-32.5 184zM260 1106l238 350 h182l240 -354l-164 -62l-168 238l-168 -238zM375 479q0 -113 56 -198.5t153 -85.5q91 0 154 75t63 191q0 69 -23 131.5t-73 105.5t-117 43q-90 0 -151.5 -72.5t-61.5 -189.5z" />
<glyph unicode="&#xf5;" horiz-adv-x="1171" d="M57 467q0 74 17.5 142.5t58 133.5t100 113.5t150.5 77.5t203 29q107 0 196.5 -26.5t150.5 -72t103.5 -107t62 -130t19.5 -142.5q0 -69 -17 -137.5t-57.5 -136.5t-100 -119.5t-153 -84t-208.5 -32.5q-130 0 -232.5 41t-165 110.5t-95 156.5t-32.5 184zM211 1153 q0 30 3.5 60t17.5 70t36.5 69t65.5 50t100 21q61 0 112 -24t79 -52.5t58.5 -52.5t55.5 -24q58 0 58 102l-2 37h184q2 -15 2 -35q0 -30 -3.5 -60t-17.5 -71t-37.5 -71.5t-67.5 -52t-103 -21.5q-51 0 -92 16t-67.5 38t-48 44.5t-43.5 38.5t-44 16q-24 0 -39 -19.5t-19 -41 t-4 -45.5l2 -31h-184q-2 14 -2 39zM375 479q0 -113 56 -198.5t153 -85.5q91 0 154 75t63 191q0 69 -23 131.5t-73 105.5t-117 43q-90 0 -151.5 -72.5t-61.5 -189.5z" />
<glyph unicode="&#xf6;" horiz-adv-x="1171" d="M57 467q0 74 17.5 142.5t58 133.5t100 113.5t150.5 77.5t203 29q107 0 196.5 -26.5t150.5 -72t103.5 -107t62 -130t19.5 -142.5q0 -69 -17 -137.5t-57.5 -136.5t-100 -119.5t-153 -84t-208.5 -32.5q-130 0 -232.5 41t-165 110.5t-95 156.5t-32.5 184zM197 1282 q0 70 41 109t112 39t112.5 -39t41.5 -109t-41 -107.5t-113 -37.5q-71 0 -112 37.5t-41 107.5zM375 479q0 -113 56 -198.5t153 -85.5q91 0 154 75t63 191q0 69 -23 131.5t-73 105.5t-117 43q-90 0 -151.5 -72.5t-61.5 -189.5zM672 1282q0 70 40.5 109t112.5 39 q71 0 112.5 -39t41.5 -109t-41 -107.5t-113 -37.5q-73 0 -113 37.5t-40 107.5z" />
<glyph unicode="&#xf7;" horiz-adv-x="1064" d="M74 430v182h917v-182h-917zM383 143q0 65 43 111.5t106 46.5q65 0 109.5 -46.5t44.5 -111.5q0 -63 -44 -107t-110 -44q-63 0 -106 44t-43 107zM383 899q0 63 43 108.5t106 45.5q65 0 109.5 -45t44.5 -109t-44.5 -109t-109.5 -45q-63 0 -106 45.5t-43 108.5z" />
<glyph unicode="&#xf8;" horiz-adv-x="1171" d="M57 467q0 74 17 142.5t57.5 133.5t100.5 113.5t152 77.5t206 29q135 0 244 -45l61 81h152l-107 -143q88 -65 133 -162.5t45 -204.5q0 -71 -17 -140t-57.5 -137.5t-100 -120.5t-153 -84t-208.5 -32q-148 0 -258 52l-68 -88h-152l115 153q-81 67 -121.5 165.5t-40.5 209.5z M375 485q0 -85 24 -149l283 379q-44 26 -96 26q-87 0 -149 -73.5t-62 -182.5zM475 231q49 -36 113 -36q87 0 150 75.5t63 192.5q0 88 -37 158z" />
<glyph unicode="&#xf9;" horiz-adv-x="1110" d="M104 258v680h312v-557q0 -76 17 -108.5t61 -32.5q79 0 188 104v594h311v-653q0 -50 10.5 -120t20.5 -115l10 -44l-299 -26q-16 83 -26 151q-161 -156 -342 -156q-118 0 -190.5 70.5t-72.5 212.5zM197 1456h282l215 -332l-162 -82z" />
<glyph unicode="&#xfa;" horiz-adv-x="1110" d="M104 258v680h312v-557q0 -76 17 -108.5t61 -32.5q79 0 188 104v594h311v-653q0 -50 10.5 -120t20.5 -115l10 -44l-299 -26q-16 83 -26 151q-161 -156 -342 -156q-118 0 -190.5 70.5t-72.5 212.5zM403 1124l213 332h281l-336 -414z" />
<glyph unicode="&#xfb;" horiz-adv-x="1110" d="M104 258v680h312v-557q0 -76 17 -108.5t61 -32.5q79 0 188 104v594h311v-653q0 -50 10.5 -120t20.5 -115l10 -44l-299 -26q-16 83 -26 151q-161 -156 -342 -156q-118 0 -190.5 70.5t-72.5 212.5zM219 1106l238 350h182l240 -354l-164 -62l-168 238l-168 -238z" />
<glyph unicode="&#xfc;" horiz-adv-x="1110" d="M104 258v680h312v-557q0 -76 17 -108.5t61 -32.5q79 0 188 104v594h311v-653q0 -50 10.5 -120t20.5 -115l10 -44l-299 -26q-16 83 -26 151q-161 -156 -342 -156q-118 0 -190.5 70.5t-72.5 212.5zM156 1282q0 70 41 109t112 39t112.5 -39t41.5 -109t-41 -107.5t-113 -37.5 q-71 0 -112 37.5t-41 107.5zM631 1282q0 70 40.5 109t112.5 39q71 0 112.5 -39t41.5 -109t-41 -107.5t-113 -37.5q-73 0 -113 37.5t-40 107.5z" />
<glyph unicode="&#xfd;" horiz-adv-x="995" d="M-4 938h317l191 -592l184 592h309l-374 -1004q-28 -74 -76.5 -144.5t-114.5 -129.5t-152.5 -98.5t-179.5 -46.5l-92 239q106 8 200.5 64.5t127.5 136.5l22 53zM356 1124l213 332h281l-336 -414z" />
<glyph unicode="&#xfe;" horiz-adv-x="1120" d="M115 -485v1908l311 50v-658q74 148 246 148q120 0 210.5 -64t135.5 -167.5t45 -229.5q0 -80 -18 -156t-56.5 -143.5t-93.5 -118t-133 -80t-170 -29.5q-114 0 -166 31v-442zM426 266q0 -35 31.5 -53t83.5 -18q89 0 145.5 71.5t56.5 214.5q0 118 -37 183t-102 65 q-92 0 -178 -127v-336z" />
<glyph unicode="&#xff;" horiz-adv-x="995" d="M-4 938h317l191 -592l184 592h309l-374 -1004q-28 -74 -76.5 -144.5t-114.5 -129.5t-152.5 -98.5t-179.5 -46.5l-92 239q106 8 200.5 64.5t127.5 136.5l22 53zM109 1282q0 70 41 109t112 39t112.5 -39t41.5 -109t-41 -107.5t-113 -37.5q-71 0 -112 37.5t-41 107.5z M584 1282q0 70 40.5 109t112.5 39q71 0 112.5 -39t41.5 -109t-41 -107.5t-113 -37.5q-73 0 -113 37.5t-40 107.5z" />
<glyph unicode="&#x152;" horiz-adv-x="2035" d="M66 680q0 134 51 260t143.5 227t237 162.5t317.5 61.5q137 0 256 -25h877v-264h-574v-277h455v-268h-455v-293h600v-264h-917q-154 -25 -262 -25q-163 0 -301.5 58.5t-231 156t-144.5 225t-52 265.5zM395 686q0 -83 28 -162t78.5 -142t128.5 -101.5t169 -38.5 q169 0 258 30v811q-105 41 -244 41q-95 0 -175 -36.5t-132.5 -97.5t-81.5 -139.5t-29 -164.5z" />
<glyph unicode="&#x153;" horiz-adv-x="1751" d="M57 469q0 91 32.5 177t94.5 158t166 115.5t234 43.5q235 0 366 -162q126 162 324 162q185 0 295.5 -130.5t111.5 -363.5l-159 -47l-398 -51q23 -83 79.5 -128.5t137.5 -45.5q43 0 87.5 12t78 29t61 34t42.5 29l14 12l74 -209q-7 -5 -19.5 -14t-53.5 -31t-84.5 -39 t-109.5 -31t-131 -14q-221 0 -356 152q-135 -152 -373 -152q-125 0 -225 41t-162 110.5t-94.5 157t-32.5 185.5zM375 479q0 -113 56 -198.5t153 -85.5q86 0 145 74.5t59 191.5q0 70 -21 132t-68 105t-111 43q-90 0 -151.5 -72.5t-61.5 -189.5zM1104 541l264 34q0 7 -1 18 t-9 39t-20 50t-37.5 39.5t-59.5 17.5q-57 0 -94 -54t-43 -144z" />
<glyph unicode="&#x178;" horiz-adv-x="1284" d="M-10 1366h372l279 -502l295 502h358l-493 -807v-559h-318v557zM209 1628q0 70 44 112t116 42t115.5 -42t43.5 -112q0 -69 -43.5 -110t-115.5 -41t-116 41t-44 110zM745 1628q0 70 44.5 112t115.5 42t115.5 -42t44.5 -112q0 -68 -44.5 -109.5t-115.5 -41.5t-115.5 41.5 t-44.5 109.5z" />
<glyph unicode="&#x2c6;" horiz-adv-x="1052" d="M199 1106l237 350h182l240 -354l-164 -62l-168 238l-168 -238z" />
<glyph unicode="&#x2dc;" horiz-adv-x="1052" d="M156 1153q0 30 3.5 60t17.5 70t36.5 69t65.5 50t100 21q61 0 112 -24t79 -52.5t58.5 -52.5t55.5 -24q57 0 57 102l-2 37h185q2 -15 2 -35q0 -30 -3.5 -60t-18 -71t-38 -71.5t-67.5 -52t-103 -21.5q-51 0 -92 16t-67.5 38t-48 44.5t-43.5 38.5t-44 16q-61 0 -61 -106 l2 -31h-184q-2 14 -2 39z" />
<glyph unicode="&#x2000;" horiz-adv-x="895" />
<glyph unicode="&#x2001;" horiz-adv-x="1790" />
<glyph unicode="&#x2002;" horiz-adv-x="895" />
<glyph unicode="&#x2003;" horiz-adv-x="1790" />
<glyph unicode="&#x2004;" horiz-adv-x="596" />
<glyph unicode="&#x2005;" horiz-adv-x="447" />
<glyph unicode="&#x2006;" horiz-adv-x="298" />
<glyph unicode="&#x2007;" horiz-adv-x="298" />
<glyph unicode="&#x2008;" horiz-adv-x="223" />
<glyph unicode="&#x2009;" horiz-adv-x="358" />
<glyph unicode="&#x200a;" horiz-adv-x="99" />
<glyph unicode="&#x2010;" horiz-adv-x="792" d="M102 442v170h588v-170h-588z" />
<glyph unicode="&#x2011;" horiz-adv-x="792" d="M102 442v170h588v-170h-588z" />
<glyph unicode="&#x2012;" horiz-adv-x="792" d="M102 442v170h588v-170h-588z" />
<glyph unicode="&#x2013;" horiz-adv-x="1044" d="M102 436v182h840v-182h-840z" />
<glyph unicode="&#x2014;" horiz-adv-x="1843" d="M102 436v182h1639v-182h-1639z" />
<glyph unicode="&#x2018;" horiz-adv-x="473" d="M74 1130q0 218 239 408l97 -104q-74 -57 -108 -111.5t-34 -120.5q0 -52 30 -103.5t118 -154.5l-223 -121q-119 166 -119 307z" />
<glyph unicode="&#x2019;" horiz-adv-x="450" d="M49 1417l221 121q123 -168 123 -307q0 -108 -57.5 -207.5t-185.5 -200.5l-93 105q72 58 106 111.5t34 117.5q0 54 -30 105t-118 155z" />
<glyph unicode="&#x201a;" horiz-adv-x="499" d="M86 225l213 121q119 -166 119 -309q0 -216 -240 -408l-92 107q70 57 102.5 110.5t32.5 118.5q0 55 -27 108t-108 152z" />
<glyph unicode="&#x201c;" horiz-adv-x="897" d="M74 1133q0 215 239 405l97 -104q-142 -109 -142 -230q0 -59 27 -110.5t121 -149.5l-223 -121q-119 166 -119 310zM498 1133q0 215 241 405l95 -104q-69 -55 -104.5 -109.5t-35.5 -120.5q0 -59 27 -110.5t121 -149.5l-224 -121q-120 163 -120 310z" />
<glyph unicode="&#x201d;" horiz-adv-x="876" d="M49 1417l221 121q123 -168 123 -307q0 -108 -57.5 -207.5t-185.5 -200.5l-93 105q72 58 106 111.5t34 117.5q0 54 -30 105t-118 155zM475 1417l221 121q121 -169 121 -307q0 -107 -57.5 -206.5t-186.5 -201.5l-92 105q73 57 107.5 111t34.5 118q0 53 -30 103.5 t-118 156.5z" />
<glyph unicode="&#x201e;" horiz-adv-x="925" d="M86 225l213 121q119 -166 119 -309q0 -216 -240 -408l-92 107q70 57 102.5 110.5t32.5 118.5q0 55 -27 108t-108 152zM510 225l213 121q119 -162 119 -309q0 -218 -240 -408l-92 107q72 56 104.5 110t32.5 119q0 56 -27 108.5t-110 151.5z" />
<glyph unicode="&#x2022;" horiz-adv-x="864" d="M106 524q0 138 94.5 232t231.5 94q139 0 232.5 -94t93.5 -232t-93.5 -231.5t-232.5 -93.5q-137 0 -231.5 93.5t-94.5 231.5z" />
<glyph unicode="&#x2026;" horiz-adv-x="1695" d="M90 152q0 74 52 127t124 53q73 0 125.5 -53t52.5 -127q0 -72 -52.5 -124.5t-125.5 -52.5q-72 0 -124 52.5t-52 124.5zM670 152q0 73 52.5 126.5t123.5 53.5q74 0 127 -53t53 -127q0 -72 -53.5 -124.5t-126.5 -52.5q-71 0 -123.5 52.5t-52.5 124.5zM1251 152q0 74 52 127 t124 53q75 0 127 -53t52 -127q0 -72 -52 -124.5t-127 -52.5q-72 0 -124 52.5t-52 124.5z" />
<glyph unicode="&#x202f;" horiz-adv-x="358" />
<glyph unicode="&#x2039;" horiz-adv-x="634" d="M25 510v8q23 18 47 44.5t160 182.5q103 118 176 201l157 -47l-284 -385q13 -19 284 -385l-157 -47q-87 98 -161.5 182.5t-106 120.5t-57.5 65.5t-36 39.5t-22 20z" />
<glyph unicode="&#x203a;" horiz-adv-x="634" d="M72 129l282 385q-13 15 -282 385l157 47q333 -381 351 -399q15 -16 32 -29v-8q-12 -10 -22 -20t-36 -39.5t-57.5 -65.5t-106 -120.5t-161.5 -182.5z" />
<glyph unicode="&#x205f;" horiz-adv-x="447" />
<glyph unicode="&#x20ac;" horiz-adv-x="1163" d="M68 643v127h135q61 181 206.5 292.5t346.5 111.5q80 0 161.5 -18.5t122.5 -37.5l41 -18l-73 -228q-12 8 -34 20t-84.5 32t-119.5 20q-181 0 -248 -174h455l-37 -127h-448q-3 -34 -3 -68q0 -48 5 -79h405l-37 -127h-338q72 -164 252 -164q51 0 111 13.5t95 27.5l34 14 l49 -215q-15 -8 -41.5 -19.5t-109.5 -31t-166 -19.5q-209 0 -354.5 106t-198.5 288h-125v127h104q-4 36 -4 59q0 45 6 88h-108z" />
<glyph unicode="&#x2122;" horiz-adv-x="1476" d="M70 1247v119h510v-119h-179v-426h-153v426h-178zM666 821l20 545h219l111 -326l114 326h213l21 -545h-150l-14 381l-135 -381h-100l-138 383l-10 -383h-151z" />
<glyph unicode="&#xe000;" horiz-adv-x="942" d="M0 0v942h942v-942h-942z" />
</font>
</defs>
</svg>
