<?xml version="1.0" encoding="utf-8"?>
<!-- Generator: Adobe Illustrator 16.0.0, SVG Export Plug-In . SVG Version: 6.00 Build 0)  -->
<!DOCTYPE svg PUBLIC "-//W3C//DTD SVG 1.1//EN" "http://www.w3.org/Graphics/SVG/1.1/DTD/svg11.dtd">
<svg version="1.1" id="Ebene_1" xmlns="http://www.w3.org/2000/svg" xmlns:xlink="http://www.w3.org/1999/xlink" x="0px" y="0px"
	 width="200px" height="200px" viewBox="0 0 200 200" enable-background="new 0 0 200 200" xml:space="preserve">
<polygon fill="#FFFFFF" points="-1100.858,131.323 -1136.379,150 -1129.596,110.445 -1158.333,82.432 -1118.619,76.661 
	-1100.858,40.674 -1083.096,76.661 -1043.382,82.432 -1072.121,110.445 -1065.335,150 "/>
<path fill="#FFFFFF" d="M-697.221,50c-19.944,0-36.112,16.167-36.112,36.111c0,19.943,36.112,72.221,36.112,72.221
	s36.11-52.277,36.11-72.221C-661.111,66.167-677.279,50-697.221,50z M-697.22,98.147c-6.65,0-12.039-5.389-12.039-12.036
	s5.389-12.037,12.039-12.037c6.646,0,12.035,5.39,12.035,12.037S-690.574,98.147-697.22,98.147z"/>
<path fill="#FFFFFF" d="M-258.333,83.333L-300,133.792l-41.667-50.458H-258.333z"/>
<polygon fill="#FFFFFF" points="150.977,63.166 136.834,49.024 100,85.858 63.165,49.024 49.023,63.166 85.857,100 49.023,136.834 
	63.165,150.977 100,114.142 136.834,150.977 150.977,136.834 114.142,100 "/>
</svg>
