<?xml version="1.0" encoding="utf-8"?>
<!-- Generator: Adobe Illustrator 16.0.0, SVG Export Plug-In . SVG Version: 6.00 Build 0)  -->
<!DOCTYPE svg PUBLIC "-//W3C//DTD SVG 1.1//EN" "http://www.w3.org/Graphics/SVG/1.1/DTD/svg11.dtd">
<svg version="1.1" id="Ebene_1" xmlns="http://www.w3.org/2000/svg" xmlns:xlink="http://www.w3.org/1999/xlink" x="0px" y="0px"
	 width="32px" height="32px" viewBox="-479.5 488.5 32 32" enable-background="new -479.5 488.5 32 32" xml:space="preserve">
<path d="M-458.138,498.168l-0.002-0.008h-0.022c-1.361-0.444-3.133-0.66-5.337-0.66c-2.205,0-3.977,0.216-5.337,0.66h-0.022
	l-0.003,0.008c-2.328,0.769-3.439,2.209-3.439,4.381v0.266l0.825,0.775l2.899-1.279l0.844-2.222h8.467l0.843,2.222l2.901,1.279
	l0.824-0.775v-0.266C-454.699,500.377-455.811,498.937-458.138,498.168z"/>
<path d="M-459.739,504.74l-0.705-3.035l-6.113-0.205l-0.705,3.24l-3.188,1.135v4.625h13.917v-4.494L-459.739,504.74z
	 M-463.5,507.461c-1.213,0-2.2-0.889-2.2-1.98c0-1.094,0.987-1.982,2.2-1.982c1.213,0,2.2,0.889,2.2,1.982
	C-461.3,506.572-462.287,507.461-463.5,507.461z"/>
</svg>
