<svg class="svg-icons-instagram" xmlns="http://www.w3.org/2000/svg" viewBox="0 0 21 21">
  <defs>
    <style>
      .svg-icons-instagram-cls-1 {
        fill: rgba(0,0,0,0.99);
      }
    </style>
  </defs>
  <path class="svg-icons-instagram-cls-1" d="M19,6.609a5.245,5.245,0,0,1,2.7.727A5.406,5.406,0,0,1,23.664,9.3a5.363,5.363,0,0,1,0,5.391A5.407,5.407,0,0,1,21.7,16.664a5.363,5.363,0,0,1-5.391,0A5.406,5.406,0,0,1,14.336,14.7a5.363,5.363,0,0,1,0-5.391A5.406,5.406,0,0,1,16.3,7.336,5.245,5.245,0,0,1,19,6.609Zm0,8.906A3.521,3.521,0,0,0,22.516,12a3.513,3.513,0,0,0-6-2.484,3.508,3.508,0,0,0,0,4.969A3.386,3.386,0,0,0,19,15.516Zm6.891-9.141a1.46,1.46,0,0,1-.4.891,1.142,1.142,0,0,1-.867.375,1.26,1.26,0,0,1-.891-2.156,1.266,1.266,0,0,1,2.156.891Zm3.562,1.266Q29.5,8.953,29.5,12t-.07,4.383a8.84,8.84,0,0,1-.4,2.32A5.487,5.487,0,0,1,25.7,22.031a8.84,8.84,0,0,1-2.32.4q-1.336.07-4.383.07t-4.383-.07a7.654,7.654,0,0,1-2.32-.445,5,5,0,0,1-2.039-1.242A5.464,5.464,0,0,1,8.969,18.7a8.84,8.84,0,0,1-.4-2.32Q8.5,15.047,8.5,12t.07-4.383a8.84,8.84,0,0,1,.4-2.32A5.487,5.487,0,0,1,12.3,1.969a8.84,8.84,0,0,1,2.32-.4Q15.953,1.5,19,1.5t4.383.07a8.84,8.84,0,0,1,2.32.4A5.487,5.487,0,0,1,29.031,5.3,9.536,9.536,0,0,1,29.453,7.641ZM27.2,18.188a9.87,9.87,0,0,0,.375-2.531q.047-1.031.047-2.906v-1.5q0-1.922-.047-2.906A9.406,9.406,0,0,0,27.2,5.813,3.383,3.383,0,0,0,25.187,3.8a9.406,9.406,0,0,0-2.531-.375q-1.031-.047-2.906-.047h-1.5q-1.875,0-2.906.047a9.87,9.87,0,0,0-2.531.375A3.383,3.383,0,0,0,10.8,5.813a9.406,9.406,0,0,0-.375,2.531q-.047,1.031-.047,2.906v1.5q0,1.875.047,2.906a9.87,9.87,0,0,0,.375,2.531A3.554,3.554,0,0,0,12.812,20.2a9.87,9.87,0,0,0,2.531.375q1.031.047,2.906.047h1.5q1.922,0,2.906-.047a9.406,9.406,0,0,0,2.531-.375A3.554,3.554,0,0,0,27.2,18.188Z" transform="translate(-8.5 -1.5)"></path>
</svg>
