<svg class="svg-icons-search" xmlns="http://www.w3.org/2000/svg" viewBox="0 0 26 24.492">
  <defs>
    <style>
      .svg-icons-search-cls-1 {
        fill: none;
      }
    </style>
  </defs>
  <g transform="translate(-740.059)">
    <g transform="translate(740.059)">
      <path  d="M16.542,14.226h-.867l-.325-.306a6.183,6.183,0,0,0,1.733-4.286A6.833,6.833,0,0,0,10.042,3,6.833,6.833,0,0,0,3,9.633a6.833,6.833,0,0,0,7.042,6.633,7.022,7.022,0,0,0,4.55-1.633l.325.306v.816l5.417,5.1,1.625-1.531Zm-6.5,0A4.72,4.72,0,0,1,5.167,9.633a4.72,4.72,0,0,1,4.875-4.592,4.72,4.72,0,0,1,4.875,4.592A4.72,4.72,0,0,1,10.042,14.226Z" transform="translate(0.25 0.062)"/>
      <path class="svg-icons-search-cls-1" d="M0,0H26V24.492H0Z"/>
    </g>
  </g>
</svg>
