<svg class="svg-icons-share" xmlns="http://www.w3.org/2000/svg" viewBox="0 0 19.31 21.557">
  <path  d="M19.092,17.274a3.173,3.173,0,0,0-2.146.867l-7.617-4.55a1.86,1.86,0,0,0,.107-.758,1.86,1.86,0,0,0-.107-.758l7.617-4.441a2.98,2.98,0,0,0,2.146.867A3.176,3.176,0,0,0,22.31,5.25a3.218,3.218,0,1,0-6.437,0,1.86,1.86,0,0,0,.107.758L8.364,10.449a2.98,2.98,0,0,0-2.146-.867A3.176,3.176,0,0,0,3,12.833a3.176,3.176,0,0,0,3.218,3.25,2.98,2.98,0,0,0,2.146-.867l7.617,4.55a1.386,1.386,0,0,0-.107.65,3.111,3.111,0,1,0,6.222,0A3.039,3.039,0,0,0,19.092,17.274Z" transform="translate(-3 -2)"></path>
</svg>
