<svg class="svg-icons-twitter" xmlns="http://www.w3.org/2000/svg" viewBox="0 0 24 19.5">
  <path class="svg-icons-twitter-cls-1" d="M28.516,7.125A10.819,10.819,0,0,0,31,4.547a10.573,10.573,0,0,1-2.812.8,4.885,4.885,0,0,0,2.156-2.719A10.014,10.014,0,0,1,27.2,3.8a5.567,5.567,0,0,0-1.617-1.125,4.7,4.7,0,0,0-1.992-.422,4.754,4.754,0,0,0-2.437.656,4.817,4.817,0,0,0-1.781,1.8,4.88,4.88,0,0,0-.656,2.461A6.832,6.832,0,0,0,18.812,8.3a13.625,13.625,0,0,1-5.648-1.5A13.572,13.572,0,0,1,8.687,3.141a4.774,4.774,0,0,0-.094,4.828A5.46,5.46,0,0,0,10.187,9.75a4.634,4.634,0,0,1-2.2-.656v.094a4.719,4.719,0,0,0,1.125,3.094,4.959,4.959,0,0,0,2.812,1.734,6.248,6.248,0,0,1-1.312.141q-.422,0-.891-.047a4.9,4.9,0,0,0,1.711,2.414,4.579,4.579,0,0,0,2.883.961,9.758,9.758,0,0,1-6.141,2.109q-.656,0-1.172-.047a13.656,13.656,0,0,0,7.547,2.2,13.524,13.524,0,0,0,7.641-2.2,13.387,13.387,0,0,0,4.734-5.3,13.9,13.9,0,0,0,1.641-6.516A2.792,2.792,0,0,0,28.516,7.125Z" transform="translate(-7 -2.25)"></path>
</svg>
