<svg class="svg-icons-user" xmlns="http://www.w3.org/2000/svg" viewBox="0 0 21 24">
  <defs>
    <style>
      .svg-icons-user-cls-1 {
        fill: rgba(0,0,0,0.99);
      }
    </style>
  </defs>
  <path class="svg-icons-user-cls-1" d="M18.76,12a5.949,5.949,0,0,1-3.023-.8,5.837,5.837,0,0,1-2.18-2.18A5.949,5.949,0,0,1,12.76,6a5.949,5.949,0,0,1,.8-3.023A5.837,5.837,0,0,1,15.737.8a6.134,6.134,0,0,1,6.047,0,5.837,5.837,0,0,1,2.18,2.18A5.949,5.949,0,0,1,24.76,6a5.949,5.949,0,0,1-.8,3.023,5.837,5.837,0,0,1-2.18,2.18A5.949,5.949,0,0,1,18.76,12Zm4.219,1.5a6.148,6.148,0,0,1,3.141.844,6.229,6.229,0,0,1,2.3,2.3,6.148,6.148,0,0,1,.844,3.141V21.75A2.241,2.241,0,0,1,27.01,24H10.51a2.241,2.241,0,0,1-2.25-2.25V19.781A6.148,6.148,0,0,1,9.1,16.641a6.229,6.229,0,0,1,2.3-2.3,6.148,6.148,0,0,1,3.141-.844h.8a8.181,8.181,0,0,0,6.844,0Z" transform="translate(-8.26 0)"></path>
</svg>
