<?xml version="1.0" encoding="utf-8"?>
<!-- Generator: Adobe Illustrator 16.0.0, SVG Export Plug-In . SVG Version: 6.00 Build 0)  -->
<!DOCTYPE svg PUBLIC "-//W3C//DTD SVG 1.1//EN" "http://www.w3.org/Graphics/SVG/1.1/DTD/svg11.dtd">
<svg version="1.1" id="Ebene_1" xmlns="http://www.w3.org/2000/svg" xmlns:xlink="http://www.w3.org/1999/xlink" x="0px" y="0px"
	 width="40px" height="40px" viewBox="0 0 40 40" enable-background="new 0 0 40 40" xml:space="preserve">
<g>
	<path fill="#FFFFFF" d="M19.985,15.547l0.773,2.465c0.163,0.521,0.646,0.876,1.192,0.876h2.585l-2.083,1.459
		c-0.454,0.318-0.645,0.896-0.469,1.421l0.825,2.461l-2.092-1.542c-0.221-0.163-0.481-0.244-0.742-0.244
		c-0.262,0-0.525,0.082-0.746,0.247l-2.07,1.539l0.809-2.47c0.171-0.521-0.019-1.093-0.466-1.409l-2.069-1.462H18
		c0.543,0,1.024-0.351,1.19-0.868L19.985,15.547 M20,11.417l-2,6.221h-6.5l5.281,3.733l-2.034,6.212l5.229-3.89l5.275,3.89
		l-2.081-6.212l5.33-3.733h-6.549L20,11.417L20,11.417z M28.5,17.638h0.005H28.5z"/>
</g>
</svg>
