<?xml version="1.0" encoding="utf-8"?>
<!-- Generator: Adobe Illustrator 16.0.0, SVG Export Plug-In . SVG Version: 6.00 Build 0)  -->
<!DOCTYPE svg PUBLIC "-//W3C//DTD SVG 1.1//EN" "http://www.w3.org/Graphics/SVG/1.1/DTD/svg11.dtd">
<svg version="1.1" id="Ebene_1" xmlns="http://www.w3.org/2000/svg" xmlns:xlink="http://www.w3.org/1999/xlink" x="0px" y="0px"
	 width="25px" height="25px" viewBox="0 0 25 25" enable-background="new 0 0 25 25" xml:space="preserve">
<g>
	<polygon fill="#FFFFFF" points="18.217,16.744 13.979,13.193 13.193,13.98 16.744,18.217 14.963,19.998 19.997,19.994 
		19.993,14.969 	"/>
	<polygon fill="#FFFFFF" points="11.02,11.806 11.806,11.019 8.255,6.78 10.03,5.004 5.005,5 5,10.034 6.781,8.253 	"/>
	<polygon fill="#FFFFFF" points="11.021,13.195 6.784,16.746 5.003,14.966 5.007,20 10.032,19.996 8.257,18.22 11.808,13.98 	"/>
	<polygon fill="#FFFFFF" points="13.981,11.807 18.22,8.255 19.996,10.031 20,5.005 14.966,5.001 16.746,6.782 13.195,11.021 	"/>
</g>
</svg>
