<?xml version="1.0" encoding="utf-8"?>
<!-- Generator: Adobe Illustrator 16.0.0, SVG Export Plug-In . SVG Version: 6.00 Build 0)  -->
<!DOCTYPE svg PUBLIC "-//W3C//DTD SVG 1.1//EN" "http://www.w3.org/Graphics/SVG/1.1/DTD/svg11.dtd">
<svg version="1.1" id="Ebene_1" xmlns="http://www.w3.org/2000/svg" xmlns:xlink="http://www.w3.org/1999/xlink" x="0px" y="0px"
	 width="25px" height="25px" viewBox="0 0 25 25" enable-background="new 0 0 25 25" xml:space="preserve">
<polygon points="-37.5,16.999 -41.94,19.333 -41.092,14.389 -44.685,10.887 -39.72,10.166 -37.5,5.667 -35.279,10.166 
	-30.315,10.887 -33.908,14.389 -33.06,19.333 "/>
<path d="M12.5,6c-2.493,0-4.515,2.021-4.515,4.514c0,2.493,4.515,9.027,4.515,9.027s4.514-6.534,4.514-9.027
	C17.014,8.021,14.993,6,12.5,6z M12.5,12.264c-0.967,0-1.75-0.784-1.75-1.75c0-0.966,0.783-1.75,1.75-1.75
	c0.965,0,1.75,0.784,1.75,1.75C14.25,11.48,13.466,12.264,12.5,12.264z"/>
<path d="M67.708,10.417L62.5,16.725l-5.208-6.308H67.708z"/>
<polygon points="118.872,7.896 117.104,6.128 112.5,10.732 107.896,6.128 106.128,7.896 110.732,12.5 106.128,17.104 
	107.896,18.872 112.5,14.268 117.104,18.872 118.872,17.104 114.268,12.5 "/>
<g>
	<polygon points="168.217,16.744 163.979,13.193 163.193,13.98 166.744,18.217 164.963,19.998 169.997,19.994 169.993,14.969 	"/>
	<polygon points="161.02,11.806 161.806,11.019 158.255,6.78 160.03,5.004 155.005,5 155,10.034 156.781,8.253 	"/>
	<polygon points="161.021,13.195 156.784,16.746 155.003,14.966 155.007,20 160.032,19.996 158.257,18.22 161.808,13.98 	"/>
	<polygon points="163.981,11.807 168.22,8.255 169.996,10.031 170,5.005 164.966,5.001 166.746,6.782 163.195,11.021 	"/>
</g>
</svg>
