<?xml version="1.0" encoding="utf-8"?>
<!-- Generator: Adobe Illustrator 16.0.0, SVG Export Plug-In . SVG Version: 6.00 Build 0)  -->
<!DOCTYPE svg PUBLIC "-//W3C//DTD SVG 1.1//EN" "http://www.w3.org/Graphics/SVG/1.1/DTD/svg11.dtd">
<svg version="1.1" id="Ebene_1" xmlns="http://www.w3.org/2000/svg" xmlns:xlink="http://www.w3.org/1999/xlink" x="0px" y="0px"
	 width="400px" height="70px" viewBox="-399.494 560.5 400 70" enable-background="new -399.494 560.5 400 70" xml:space="preserve"
	>
<g>
	<path d="M-347.323,578.5l1.502,34h-34.859l1.504-34H-347.323 M-330.101,560.5h-66.297l-3.096,70h72.486L-330.101,560.5
		L-330.101,560.5z"/>
</g>
<g>
	<path d="M-314.47,495.567h3.675l3.513,8.83l2.883-8.83h3.615l0.927,12.72h-2.482l-0.733-9.952l-3.319,9.952h-1.666l-3.986-9.934
		l0.013,9.934h-2.464L-314.47,495.567z"/>
	<path d="M-297.813,495.567h2.564l0.273,7.707c0.084,2.307,1.405,3.162,3.152,3.162c1.829,0,2.981-1.048,2.908-3.088l-0.275-7.781
		h2.562l0.273,7.684c0.124,3.436-2.335,5.268-5.412,5.268c-3.08,0-5.631-1.373-5.758-4.997L-297.813,495.567z"/>
	<path d="M-283.704,505.273c0,0,1.467,1.147,3.314,1.107c1.111,0,2.068-0.476,2.036-1.356c-0.081-2.284-5.977-2.208-6.113-6.046
		c-0.07-1.94,1.538-3.64,4.438-3.64c1.846,0,3.617,0.575,3.617,0.575l-0.338,2.209c0,0-1.573-0.65-3.163-0.65
		c-1.132,0-2.01,0.441-1.98,1.262c0.081,2.308,5.952,2.099,6.098,6.103c0.08,2.309-1.937,3.682-4.479,3.682
		c-2.403,0-4.088-1.071-4.088-1.071L-283.704,505.273z"/>
	<path d="M-274.085,495.567h8.361l0.075,2.062h-5.801l0.114,3.182h4.568l0.073,2.041h-4.567l0.119,3.378h5.938l0.073,2.058h-8.5
		L-274.085,495.567z"/>
	<path d="M-263.721,495.567h2.563l0.272,7.707c0.084,2.307,1.406,3.162,3.153,3.162c1.829,0,2.98-1.048,2.909-3.088l-0.276-7.781
		h2.561l0.274,7.684c0.122,3.436-2.336,5.268-5.414,5.268c-3.079,0-5.63-1.373-5.758-4.997L-263.721,495.567z"/>
	<path d="M-249.565,495.567h3.675l3.511,8.83l2.882-8.83h3.615l0.931,12.72h-2.482l-0.733-9.952l-3.319,9.952h-1.668l-3.986-9.934
		l0.016,9.934h-2.464L-249.565,495.567z"/>
	<path d="M-232.538,505.273c0,0,1.47,1.147,3.315,1.107c1.112,0,2.069-0.476,2.036-1.356c-0.082-2.284-5.979-2.208-6.114-6.046
		c-0.07-1.94,1.539-3.64,4.439-3.64c1.847,0,3.617,0.575,3.617,0.575l-0.338,2.209c0,0-1.574-0.65-3.164-0.65
		c-1.13,0-2.01,0.441-1.98,1.262c0.083,2.308,5.953,2.099,6.097,6.103c0.083,2.309-1.936,3.682-4.477,3.682
		c-2.403,0-4.09-1.071-4.09-1.071L-232.538,505.273z"/>
</g>
<g>
	<path d="M-222.719,495.568h4.628c3.416,0,4.952,1.848,5.029,4.044c0.098,2.724-1.951,4.364-4.731,4.364h-2.066l0.155,4.312h-2.563
		L-222.719,495.568z M-218.283,501.919c1.807,0,2.592-0.841,2.544-2.175c-0.042-1.198-0.73-2.114-2.695-2.114h-1.651l0.153,4.289
		H-218.283z"/>
	<path d="M-205.134,495.341c4.409,0,7.234,2.88,7.356,6.352c0.128,3.523-2.596,6.826-7.064,6.826c-4.37,0-7.182-3.092-7.305-6.56
		C-212.265,498.638-209.82,495.341-205.134,495.341z M-204.855,506.438c2.917,0,4.506-2.271,4.421-4.595
		c-0.078-2.271-1.726-4.427-4.666-4.427c-2.939,0-4.449,2.178-4.368,4.462C-209.391,504.056-207.815,506.438-204.855,506.438z"/>
	<path d="M-195.975,495.568h4.411c3.417,0,4.946,1.716,5.021,3.794c0.057,1.641-0.874,2.863-2.18,3.512l3.927,5.414h-3.019
		l-3.43-4.806h-1.886l0.171,4.806h-2.562L-195.975,495.568z M-191.754,501.443c1.768,0,2.575-0.765,2.533-1.965
		c-0.038-1.049-0.724-1.849-2.688-1.849h-1.431l0.136,3.813H-191.754z"/>
	<path d="M-181.108,497.63h-4.37l-0.074-2.062h11.264l0.072,2.062h-4.349l0.378,10.658h-2.543L-181.108,497.63z"/>
	<path d="M-170.283,495.475h2.444l5.44,12.813h-2.602l-1.174-2.861h-5.125l-0.971,2.861h-2.542L-170.283,495.475z M-170.616,503.385
		h3.596l-1.96-4.804L-170.616,503.385z"/>
	<path d="M-161.508,495.568h2.564l0.379,10.662h5.997l0.074,2.058h-8.559L-161.508,495.568z"/>
</g>
<g>
	<path d="M-313.494,512.519h4.5c3.485,0,4.636,1.616,4.69,3.117c0.046,1.36-0.811,2.295-1.481,2.82
		c0.826,0.368,2.275,1.302,2.345,3.27c0.083,2.296-1.768,3.774-4.485,3.774h-5.106L-313.494,512.519z M-310.689,517.889h2.737
		c0.061-0.019,0.975-0.562,0.933-1.709c-0.031-0.857-0.502-1.556-2.206-1.556h-1.579L-310.689,517.889z M-308.303,523.399
		c1.541,0,2.185-0.702,2.147-1.753c-0.034-0.973-0.731-1.729-2.271-1.729h-2.188l0.124,3.481H-308.303z"/>
	<path d="M-301.681,512.519h8.532l0.075,2.105h-5.919l0.118,3.246h4.661l0.069,2.084h-4.659l0.125,3.445h6.058l0.076,2.101h-8.675
		L-301.681,512.519z"/>
	<path d="M-290.945,512.519h4.499c3.486,0,5.048,1.752,5.124,3.874c0.059,1.674-0.892,2.921-2.224,3.58l4.008,5.527h-3.082
		l-3.498-4.903h-1.924l0.173,4.903h-2.615L-290.945,512.519z M-286.637,518.516c1.803,0,2.627-0.779,2.582-2.004
		c-0.039-1.071-0.735-1.888-2.742-1.888h-1.459l0.141,3.892H-286.637z"/>
	<path d="M-278.587,512.519h2.617l0.385,10.881h6.12l0.075,2.101h-8.733L-278.587,512.519z"/>
	<path d="M-268.274,512.519h2.616l0.46,12.981h-2.613L-268.274,512.519z"/>
	<path d="M-262.702,512.519h2.636l6.912,9.148l-0.326-9.148h2.554l0.461,12.981h-2.657l-6.889-9.09l0.322,9.09h-2.551
		L-262.702,512.519z"/>
</g>
<g>
	<path d="M-308.557,458.663h4.862l3.037,9.131l3.037-9.131h4.818l0.528,14.676h-3.301l-0.374-10.914l-3.718,10.914h-2.156
		l-3.631-10.737l-0.352,10.737h-3.3L-308.557,458.663z"/>
	<path d="M-290.056,458.663h3.411v8.801c0,2.421,1.232,3.278,2.904,3.278c1.826,0,2.927-1.188,2.927-3.19v-8.889h3.388v8.757
		c0,4.026-2.838,6.183-6.337,6.183c-3.455,0-6.293-1.605-6.293-5.874V458.663z"/>
	<path d="M-274.876,469.4c0,0,1.518,1.276,3.499,1.276c1.21,0,1.958-0.484,1.958-1.255c0-2.222-6.249-2.244-6.249-6.578
		c0-2.354,1.892-4.445,5.193-4.445c2.112,0,4.114,0.66,4.114,0.66l-0.462,3.015c0,0-1.782-0.748-3.542-0.748
		c-1.232,0-1.871,0.462-1.871,1.145c0,2.222,6.249,2.068,6.249,6.645c0,2.772-2.376,4.488-5.281,4.488
		c-2.728,0-4.599-1.231-4.599-1.231L-274.876,469.4z"/>
	<path d="M-264.228,458.663h9.593v2.838h-6.183v2.971h4.885v2.883h-4.885v3.146h6.469v2.839h-9.879V458.663z"/>
	<path d="M-252.855,458.663h3.411v8.801c0,2.421,1.232,3.278,2.904,3.278c1.826,0,2.927-1.188,2.927-3.19v-8.889h3.388v8.757
		c0,4.026-2.838,6.183-6.337,6.183c-3.455,0-6.293-1.605-6.293-5.874V458.663z"/>
	<path d="M-237.499,458.663h4.863l3.037,9.131l3.037-9.131h4.818l0.528,14.676h-3.301l-0.374-10.914l-3.718,10.914h-2.156
		l-3.631-10.737l-0.352,10.737h-3.3L-237.499,458.663z"/>
	<path d="M-218.733,469.4c0,0,1.518,1.276,3.499,1.276c1.21,0,1.958-0.484,1.958-1.255c0-2.222-6.249-2.244-6.249-6.578
		c0-2.354,1.892-4.445,5.193-4.445c2.112,0,4.114,0.66,4.114,0.66l-0.462,3.015c0,0-1.782-0.748-3.542-0.748
		c-1.232,0-1.871,0.462-1.871,1.145c0,2.222,6.249,2.068,6.249,6.645c0,2.772-2.376,4.488-5.281,4.488
		c-2.728,0-4.599-1.231-4.599-1.231L-218.733,469.4z"/>
	<path d="M-208.085,458.663h5.611c3.784,0,5.522,2.222,5.522,4.862c0,3.234-2.442,5.215-5.522,5.215h-2.201v4.599h-3.41V458.663z
		 M-202.98,465.901c1.694,0,2.486-0.901,2.486-2.222c0-1.255-0.616-2.179-2.486-2.179h-1.694v4.4H-202.98z"/>
	<path d="M-188.328,458.398c5.061,0,8.119,3.367,8.119,7.327c0,4.026-3.19,7.877-8.317,7.877c-5.017,0-7.987-3.608-7.987-7.568
		C-196.513,462.249-193.653,458.398-188.328,458.398z M-188.46,470.742c2.97,0,4.687-2.354,4.687-4.841
		c0-2.376-1.54-4.643-4.577-4.643c-3.014,0-4.621,2.267-4.621,4.709C-192.97,468.212-191.518,470.742-188.46,470.742z"/>
	<path d="M-178.517,458.663h5.457c3.785,0,5.501,2.002,5.501,4.62c0,1.738-0.792,3.146-2.267,3.961l3.983,6.095h-4.049l-3.278-5.171
		h-1.937v5.171h-3.41V458.663z M-173.896,465.352c2.266,0,2.794-0.858,2.794-1.98s-0.594-1.87-2.486-1.87h-1.519v3.851H-173.896z"/>
	<path d="M-161.929,461.501h-4.621v-2.838h12.564v2.838h-4.533v11.838h-3.411V461.501z"/>
	<path d="M-149.916,458.553h3.234l5.457,14.786h-3.455l-0.924-2.641h-5.479l-0.924,2.641h-3.367L-149.916,458.553z
		 M-150.093,467.838h3.499l-1.76-4.973L-150.093,467.838z"/>
	<path d="M-140.215,458.663h3.41V470.5h6.403v2.839h-9.813V458.663z"/>
	<path d="M-308.844,475.663h5.479c3.785,0,4.973,1.826,4.973,3.521c0,1.496-0.99,2.486-1.782,3.08
		c0.946,0.506,2.398,1.672,2.398,3.807c0,2.597-2.068,4.269-5.017,4.269h-6.051V475.663z M-305.433,481.582h2.816
		c0,0,0.682-0.484,0.682-1.519c0-0.836-0.374-1.562-1.76-1.562h-1.738V481.582z M-303.123,487.5c1.276,0,1.804-0.659,1.804-1.628
		c0-0.88-0.55-1.562-1.804-1.562h-2.311v3.19H-303.123z"/>
	<path d="M-296.018,475.663h9.593v2.838h-6.183v2.971h4.885v2.883h-4.885v3.146h6.469v2.839h-9.879V475.663z"/>
	<path d="M-284.49,475.663h5.457c3.785,0,5.501,2.002,5.501,4.62c0,1.738-0.792,3.146-2.267,3.961l3.983,6.095h-4.049l-3.278-5.171
		h-1.937v5.171h-3.41V475.663z M-279.869,482.352c2.266,0,2.794-0.858,2.794-1.98s-0.594-1.87-2.486-1.87h-1.519v3.851H-279.869z"/>
	<path d="M-270.828,475.663h3.41V487.5h6.403v2.839h-9.813V475.663z"/>
	<path d="M-259.697,475.663h3.41v14.676h-3.41V475.663z"/>
	<path d="M-253.624,475.663h3.455l6.337,9.395v-9.395h3.344v14.676h-3.499l-6.293-9.396v9.396h-3.344V475.663z"/>
</g>
<path d="M-311.994,560.74h4.421l2.761,8.302l2.761-8.302h4.381l0.48,13.343h-3l-0.34-9.922l-3.38,9.922h-1.96l-3.301-9.762
	l-0.32,9.762h-3L-311.994,560.74z"/>
<path d="M-295.174,560.74h3.101v8.002c0,2.2,1.12,2.98,2.641,2.98c1.66,0,2.661-1.08,2.661-2.9v-8.082h3.081v7.962
	c0,3.66-2.581,5.621-5.761,5.621c-3.141,0-5.721-1.461-5.721-5.342V560.74z"/>
<path d="M-281.374,570.502c0,0,1.38,1.16,3.181,1.16c1.1,0,1.78-0.439,1.78-1.14c0-2.021-5.681-2.041-5.681-5.981
	c0-2.141,1.72-4.041,4.721-4.041c1.92,0,3.741,0.601,3.741,0.601l-0.42,2.74c0,0-1.62-0.68-3.221-0.68c-1.12,0-1.7,0.42-1.7,1.04
	c0,2.021,5.681,1.88,5.681,6.041c0,2.521-2.161,4.081-4.801,4.081c-2.48,0-4.181-1.12-4.181-1.12L-281.374,570.502z"/>
<path d="M-271.694,560.74h8.722v2.58h-5.621v2.701h4.441v2.62h-4.441v2.861h5.881v2.58h-8.982V560.74z"/>
<path d="M-261.354,560.74h3.101v8.002c0,2.2,1.12,2.98,2.641,2.98c1.66,0,2.661-1.08,2.661-2.9v-8.082h3.081v7.962
	c0,3.66-2.581,5.621-5.761,5.621c-3.141,0-5.721-1.461-5.721-5.342V560.74z"/>
<path d="M-247.395,560.74h4.421l2.761,8.302l2.761-8.302h4.381l0.48,13.343h-3l-0.34-9.922l-3.38,9.922h-1.96l-3.301-9.762
	l-0.32,9.762h-3L-247.395,560.74z"/>
<path d="M-230.335,570.502c0,0,1.38,1.16,3.181,1.16c1.1,0,1.78-0.439,1.78-1.14c0-2.021-5.681-2.041-5.681-5.981
	c0-2.141,1.72-4.041,4.721-4.041c1.92,0,3.741,0.601,3.741,0.601l-0.42,2.74c0,0-1.62-0.68-3.221-0.68c-1.12,0-1.7,0.42-1.7,1.04
	c0,2.021,5.681,1.88,5.681,6.041c0,2.521-2.161,4.081-4.801,4.081c-2.48,0-4.181-1.12-4.181-1.12L-230.335,570.502z"/>
<path d="M-220.655,560.74h5.101c3.44,0,5.021,2.021,5.021,4.421c0,2.94-2.221,4.741-5.021,4.741h-2v4.181h-3.101V560.74z
	 M-216.014,567.321c1.541,0,2.261-0.82,2.261-2.021c0-1.14-0.56-1.98-2.261-1.98h-1.54v4.001H-216.014z"/>
<path d="M-202.694,560.5c4.601,0,7.382,3.061,7.382,6.661c0,3.661-2.901,7.162-7.562,7.162c-4.561,0-7.262-3.281-7.262-6.882
	C-210.135,564.001-207.534,560.5-202.694,560.5z M-202.813,571.723c2.7,0,4.261-2.141,4.261-4.401c0-2.16-1.4-4.221-4.161-4.221
	c-2.74,0-4.201,2.061-4.201,4.281C-206.914,569.422-205.594,571.723-202.813,571.723z"/>
<path d="M-193.775,560.74h4.961c3.441,0,5.001,1.82,5.001,4.201c0,1.58-0.72,2.86-2.061,3.601l3.621,5.541h-3.681l-2.98-4.701h-1.76
	v4.701h-3.101V560.74z M-189.574,566.821c2.061,0,2.541-0.78,2.541-1.8c0-1.021-0.54-1.701-2.26-1.701h-1.38v3.501H-189.574z"/>
<path d="M-178.695,563.32h-4.201v-2.58h11.423v2.58h-4.121v10.763h-3.101V563.32z"/>
<path d="M-167.775,560.64h2.941l4.961,13.443h-3.141l-0.84-2.4h-4.981l-0.84,2.4h-3.061L-167.775,560.64z M-167.935,569.082h3.181
	l-1.6-4.521L-167.935,569.082z"/>
<path d="M-158.955,560.74h3.101v10.763h5.821v2.58h-8.922V560.74z"/>
<path d="M-312.254,577.157h4.981c3.44,0,4.521,1.66,4.521,3.2c0,1.36-0.9,2.261-1.621,2.801c0.86,0.46,2.181,1.521,2.181,3.461
	c0,2.36-1.88,3.881-4.561,3.881h-5.501V577.157z M-309.153,582.538h2.561c0,0,0.62-0.439,0.62-1.38c0-0.761-0.34-1.421-1.601-1.421
	h-1.58V582.538z M-307.052,587.92c1.16,0,1.64-0.601,1.64-1.48c0-0.801-0.5-1.421-1.64-1.421h-2.101v2.901H-307.052z"/>
<path d="M-300.594,577.157h8.722v2.58h-5.621v2.701h4.441v2.62h-4.441v2.861h5.881v2.58h-8.982V577.157z"/>
<path d="M-290.114,577.157h4.961c3.441,0,5.001,1.82,5.001,4.201c0,1.58-0.72,2.86-2.061,3.601l3.621,5.541h-3.681l-2.98-4.701
	h-1.76v4.701h-3.101V577.157z M-285.913,583.238c2.061,0,2.541-0.78,2.541-1.8c0-1.021-0.54-1.701-2.26-1.701h-1.38v3.501H-285.913z
	"/>
<path d="M-277.695,577.157h3.101v10.763h5.821v2.58h-8.922V577.157z"/>
<path d="M-267.574,577.157h3.101V590.5h-3.101V577.157z"/>
<path d="M-262.054,577.157h3.141l5.379,8.542v-8.542h3.041V590.5h-3.181l-5.339-8.542v8.542h-3.041V577.157z"/>
<text transform="matrix(1 0 0 1 -310.4939 665.5)"><tspan x="0" y="0" font-family="'CallunaSans-Black'" font-size="20">Museumsportal</tspan><tspan x="0" y="16" font-family="'CallunaSans-Black'" font-size="20">Berlin</tspan></text>
</svg>
