<?xml version="1.0" encoding="utf-8"?>
<!-- Generator: Adobe Illustrator 16.0.0, SVG Export Plug-In . SVG Version: 6.00 Build 0)  -->
<!DOCTYPE svg PUBLIC "-//W3C//DTD SVG 1.1//EN" "http://www.w3.org/Graphics/SVG/1.1/DTD/svg11.dtd">
<svg version="1.1" id="Layer_1" xmlns="http://www.w3.org/2000/svg" xmlns:xlink="http://www.w3.org/1999/xlink" x="0px" y="0px"
	 width="623.233px" height="113.318px" viewBox="0 0 623.233 113.318" enable-background="new 0 0 623.233 113.318"
	 xml:space="preserve">
<g>
	<path fill="#020102" d="M120.582,0H5.246L1,113.318h123.66L120.582,0z M30.428,84.972l2.122-56.625h60.687l2.038,56.625H30.428z"/>
	<g>
		<path fill="#020102" d="M166.18,64.276h13.017c8.991,0,11.814,4.339,11.814,8.364c0,3.555-2.353,5.907-4.234,7.318
			c2.248,1.202,5.697,3.974,5.697,9.044c0,6.168-4.914,10.141-11.918,10.141H166.18V64.276z M174.283,78.339h6.692
			c0,0,1.621-1.15,1.621-3.607c0-1.986-0.889-3.711-4.183-3.711h-4.13V78.339z M179.772,92.401c3.031,0,4.286-1.568,4.286-3.868
			c0-2.092-1.307-3.712-4.286-3.712h-5.489v7.58H179.772z"/>
		<path fill="#020102" d="M198.75,64.276h22.792v6.744h-14.689v7.057h11.605v6.849h-11.605v7.476h15.37v6.743H198.75V64.276z"/>
		<path fill="#020102" d="M228.706,64.276h12.964c8.992,0,13.07,4.757,13.07,10.978c0,4.129-1.882,7.476-5.384,9.41l9.462,14.48
			h-9.62l-7.789-12.285h-4.601v12.285h-8.103V64.276z M239.685,80.169c5.385,0,6.639-2.039,6.639-4.706
			c0-2.665-1.412-4.442-5.907-4.442h-3.607v9.148H239.685z"/>
		<path fill="#020102" d="M263.732,64.276h8.104v28.125h15.212v6.743h-23.315V64.276z"/>
		<path fill="#020102" d="M292.8,64.276h8.103v34.868H292.8V64.276z"/>
		<path fill="#020102" d="M308.432,64.276h8.207l15.056,22.322V64.276h7.945v34.868h-8.312l-14.951-22.321v22.321h-7.946V64.276z"/>
	</g>
	<g>
		<path fill="#020102" d="M168.647,14.107h6.169l10.507,28.804l10.664-28.804h6.169l1.255,34.867h-4.182l-1.098-29.641
			l-11.187,29.641h-3.241l-11.187-30.007l-0.941,30.007h-4.182L168.647,14.107z"/>
		<path fill="#020102" d="M212.616,14.107h4.286v21.484c0,7.319,4.287,10.299,9.881,10.299c5.593,0,9.827-3.085,9.827-9.984V14.107
			h4.287v21.589c0,9.097-6.377,13.906-14.167,13.906c-7.789,0-14.114-3.66-14.114-13.174V14.107z"/>
		<path fill="#020102" d="M249.788,42.649c0,0,4.025,3.137,9.096,3.137c3.765,0,6.953-1.726,6.953-5.071
			c0-7.945-16.571-7.475-16.571-18.139c0-5.071,4.077-9.097,11.344-9.097c4.601,0,8.887,1.568,8.887,1.568l-1.098,4.024
			c0,0-3.868-1.777-7.946-1.777c-3.868,0-6.848,1.621-6.848,4.81c0,8.102,16.572,7.213,16.572,18.296
			c0,6.063-5.176,9.201-11.449,9.201c-6.063,0-10.089-2.928-10.089-2.928L249.788,42.649z"/>
		<path fill="#020102" d="M279.064,14.107h20.544v3.606h-16.257v11.657h12.86v3.607h-12.86v12.39h16.206v3.606h-20.492V14.107z"/>
		<path fill="#020102" d="M308.447,14.107h4.287v21.484c0,7.319,4.287,10.299,9.88,10.299s9.828-3.085,9.828-9.984V14.107h4.287
			v21.589c0,9.097-6.378,13.906-14.167,13.906s-14.115-3.66-14.115-13.174V14.107z"/>
		<path fill="#020102" d="M346.769,14.107h6.169l10.507,28.804l10.664-28.804h6.168l1.255,34.867h-4.182l-1.098-29.641
			l-11.187,29.641h-3.241l-11.188-30.007l-0.94,30.007h-4.183L346.769,14.107z"/>
		<path fill="#020102" d="M390.842,42.649c0,0,4.025,3.137,9.097,3.137c3.764,0,6.952-1.726,6.952-5.071
			c0-7.945-16.572-7.475-16.572-18.139c0-5.071,4.078-9.097,11.345-9.097c4.6,0,8.886,1.568,8.886,1.568l-1.098,4.024
			c0,0-3.869-1.777-7.946-1.777c-3.869,0-6.848,1.621-6.848,4.81c0,8.102,16.571,7.213,16.571,18.296
			c0,6.063-5.175,9.201-11.448,9.201c-6.063,0-10.089-2.928-10.089-2.928L390.842,42.649z"/>
		<path fill="#020102" d="M420.014,14.107h10.089c8.992,0,12.442,4.757,12.442,10.297c0,7.058-5.123,11.187-12.442,11.187h-5.802
			v13.383h-4.287V14.107z M429.319,31.984c5.907,0,8.625-2.718,8.625-7.214c0-3.92-2.248-7.057-8.625-7.057h-5.019v14.271H429.319z"
			/>
		<path fill="#020102" d="M467.536,13.479c10.874,0,17.93,7.737,17.93,17.408c0,9.827-7.37,18.715-18.4,18.715
			c-10.717,0-17.931-8.312-17.931-17.984C449.135,22.366,455.826,13.479,467.536,13.479z M467.222,45.891
			c8.626,0,13.645-7.423,13.645-14.585s-4.861-14.114-13.592-14.114c-8.678,0-13.54,7.109-13.54,14.114
			C453.735,38.258,458.545,45.891,467.222,45.891z"/>
		<path fill="#020102" d="M493.835,14.107h9.149c8.992,0,12.441,4.6,12.441,9.514c0,5.071-3.764,8.26-7.214,9.775l10.56,15.578
			H513.7l-9.984-14.689h-5.594v14.689h-4.287V14.107z M503.611,30.678c3.346,0,7.214-2.299,7.214-6.639
			c0-3.293-2.248-6.325-8.625-6.325h-4.077v12.964H503.611z"/>
		<path fill="#020102" d="M533.726,17.714h-12.337v-3.606h29.169v3.606h-12.546v31.261h-4.286V17.714z"/>
		<path fill="#020102" d="M563.943,13.846h4.13l13.383,35.129h-4.496l-3.921-10.507H558.82l-3.921,10.507h-4.338L563.943,13.846z
			 M560.18,34.86h11.5l-5.75-15.368L560.18,34.86z"/>
		<path fill="#020102" d="M588.568,14.107h4.287v31.261h16.728v3.606h-21.015V14.107z"/>
	</g>
</g>
</svg>
