<?xml version="1.0" encoding="utf-8"?>
<!-- Generator: Adobe Illustrator 16.0.0, SVG Export Plug-In . SVG Version: 6.00 Build 0)  -->
<!DOCTYPE svg PUBLIC "-//W3C//DTD SVG 1.1//EN" "http://www.w3.org/Graphics/SVG/1.1/DTD/svg11.dtd">
<svg version="1.1" id="Ebene_1" xmlns="http://www.w3.org/2000/svg" xmlns:xlink="http://www.w3.org/1999/xlink" x="0px" y="0px"
	 width="400px" height="70px" viewBox="0 0 400 70" enable-background="new 0 0 400 70" xml:space="preserve">
<polygon points="31.5,0.501 4.5,0.501 0.5,30.5 37.5,30.5 33.5,0.501 "/>
<g>
	<path d="M85.024-64.933h3.675l3.513,8.829l2.883-8.829h3.615l0.927,12.72h-2.482l-0.733-9.952l-3.319,9.952h-1.666l-3.986-9.935
		l0.013,9.935H85L85.024-64.933z"/>
	<path d="M101.681-64.933h2.564l0.273,7.707c0.084,2.307,1.405,3.161,3.152,3.161c1.829,0,2.981-1.048,2.908-3.088l-0.275-7.78
		h2.562l0.273,7.684c0.124,3.436-2.335,5.268-5.412,5.268c-3.08,0-5.631-1.373-5.758-4.997L101.681-64.933z"/>
	<path d="M115.79-55.227c0,0,1.467,1.146,3.314,1.106c1.111,0,2.068-0.476,2.036-1.355c-0.081-2.284-5.977-2.208-6.113-6.046
		c-0.07-1.94,1.538-3.641,4.438-3.641c1.846,0,3.617,0.575,3.617,0.575l-0.338,2.209c0,0-1.573-0.65-3.163-0.65
		c-1.132,0-2.01,0.441-1.98,1.263c0.081,2.308,5.952,2.099,6.098,6.103c0.08,2.31-1.937,3.683-4.479,3.683
		c-2.403,0-4.088-1.071-4.088-1.071L115.79-55.227z"/>
	<path d="M125.409-64.933h8.361l0.075,2.062h-5.801l0.114,3.182h4.568l0.073,2.041h-4.567l0.119,3.379h5.938l0.073,2.058h-8.5
		L125.409-64.933z"/>
	<path d="M135.773-64.933h2.563l0.272,7.707c0.084,2.307,1.406,3.161,3.153,3.161c1.829,0,2.98-1.048,2.909-3.088l-0.276-7.78h2.561
		l0.274,7.684c0.122,3.436-2.336,5.268-5.414,5.268c-3.079,0-5.63-1.373-5.758-4.997L135.773-64.933z"/>
	<path d="M149.929-64.933h3.675l3.511,8.829l2.882-8.829h3.615l0.931,12.72h-2.482l-0.733-9.952l-3.319,9.952h-1.668l-3.986-9.935
		l0.016,9.935h-2.464L149.929-64.933z"/>
	<path d="M166.956-55.227c0,0,1.47,1.146,3.315,1.106c1.112,0,2.069-0.476,2.036-1.355c-0.082-2.284-5.979-2.208-6.114-6.046
		c-0.07-1.94,1.539-3.641,4.439-3.641c1.847,0,3.617,0.575,3.617,0.575l-0.338,2.209c0,0-1.574-0.65-3.164-0.65
		c-1.13,0-2.01,0.441-1.98,1.263c0.083,2.308,5.953,2.099,6.097,6.103c0.083,2.31-1.936,3.683-4.477,3.683
		c-2.403,0-4.09-1.071-4.09-1.071L166.956-55.227z"/>
</g>
<g>
	<path d="M176.775-64.932h4.628c3.416,0,4.952,1.848,5.029,4.044c0.098,2.724-1.951,4.363-4.731,4.363h-2.066l0.155,4.312h-2.563
		L176.775-64.932z M181.211-58.581c1.807,0,2.592-0.841,2.544-2.175c-0.042-1.198-0.73-2.114-2.695-2.114h-1.651l0.153,4.289
		H181.211z"/>
	<path d="M194.36-65.159c4.409,0,7.233,2.88,7.356,6.353c0.127,3.522-2.597,6.825-7.064,6.825c-4.37,0-7.182-3.092-7.305-6.56
		C187.229-61.862,189.674-65.159,194.36-65.159z M194.639-54.062c2.917,0,4.506-2.271,4.421-4.595
		c-0.078-2.271-1.726-4.427-4.666-4.427c-2.939,0-4.449,2.178-4.368,4.462C190.103-56.444,191.679-54.062,194.639-54.062z"/>
	<path d="M203.52-64.932h4.41c3.418,0,4.946,1.716,5.021,3.794c0.057,1.641-0.874,2.862-2.18,3.512l3.927,5.414h-3.019l-3.431-4.806
		h-1.886l0.171,4.806h-2.562L203.52-64.932z M207.74-59.057c1.768,0,2.574-0.766,2.533-1.966c-0.038-1.049-0.725-1.849-2.688-1.849
		h-1.431l0.136,3.813L207.74-59.057L207.74-59.057z"/>
	<path d="M218.387-62.87h-4.371l-0.073-2.062h11.264l0.072,2.062h-4.349l0.377,10.658h-2.543L218.387-62.87z"/>
	<path d="M229.211-65.025h2.444l5.44,12.813h-2.603l-1.174-2.861h-5.125l-0.972,2.861h-2.541L229.211-65.025z M228.878-57.115h3.597
		l-1.961-4.804L228.878-57.115z"/>
	<path d="M237.986-64.932h2.564l0.379,10.662h5.996L247-52.212h-8.559L237.986-64.932z"/>
</g>
<g>
	<path d="M86-47.981h4.5c3.485,0,4.636,1.616,4.69,3.117c0.046,1.36-0.811,2.295-1.481,2.82c0.826,0.368,2.275,1.302,2.345,3.27
		C96.137-36.478,94.286-35,91.569-35h-5.106L86-47.981z M88.805-42.611h2.737c0.061-0.019,0.975-0.562,0.933-1.709
		c-0.031-0.856-0.502-1.556-2.206-1.556H88.69L88.805-42.611z M91.191-37.101c1.541,0,2.185-0.702,2.147-1.753
		c-0.034-0.974-0.731-1.729-2.271-1.729h-2.188l0.124,3.481L91.191-37.101L91.191-37.101z"/>
	<path d="M97.813-47.981h8.532l0.075,2.105h-5.919l0.118,3.246h4.661l0.069,2.084h-4.659l0.125,3.444h6.058L106.949-35h-8.675
		L97.813-47.981z"/>
	<path d="M108.549-47.981h4.499c3.486,0,5.048,1.753,5.124,3.874c0.059,1.675-0.892,2.922-2.224,3.58L119.956-35h-3.082
		l-3.498-4.903h-1.924L111.625-35h-2.615L108.549-47.981z M112.857-41.984c1.803,0,2.627-0.778,2.582-2.004
		c-0.039-1.07-0.735-1.888-2.742-1.888h-1.459l0.141,3.892H112.857z"/>
	<path d="M120.907-47.981h2.617l0.385,10.882h6.12l0.075,2.101h-8.733L120.907-47.981z"/>
	<path d="M131.22-47.981h2.616L134.296-35h-2.613L131.22-47.981z"/>
	<path d="M136.792-47.981h2.636l6.912,9.148l-0.326-9.148h2.554L149.029-35h-2.657l-6.889-9.09l0.322,9.09h-2.551L136.792-47.981z"
		/>
</g>
<g>
	<path d="M90.937-101.837h4.862l3.037,9.131l3.037-9.131h4.818l0.528,14.676h-3.301l-0.374-10.914l-3.718,10.914H97.67
		l-3.631-10.737l-0.352,10.737h-3.3L90.937-101.837z"/>
	<path d="M109.438-101.837h3.411v8.801c0,2.421,1.232,3.278,2.904,3.278c1.826,0,2.927-1.188,2.927-3.19v-8.889h3.388v8.757
		c0,4.026-2.838,6.183-6.337,6.183c-3.455,0-6.293-1.604-6.293-5.874V-101.837z"/>
	<path d="M124.618-91.1c0,0,1.518,1.275,3.499,1.275c1.21,0,1.958-0.483,1.958-1.255c0-2.222-6.249-2.244-6.249-6.578
		c0-2.354,1.892-4.444,5.193-4.444c2.112,0,4.114,0.659,4.114,0.659l-0.462,3.016c0,0-1.782-0.748-3.542-0.748
		c-1.232,0-1.871,0.462-1.871,1.145c0,2.223,6.249,2.068,6.249,6.646c0,2.771-2.376,4.487-5.281,4.487
		c-2.728,0-4.599-1.23-4.599-1.23L124.618-91.1z"/>
	<path d="M135.266-101.837h9.593v2.838h-6.183v2.971h4.885v2.884h-4.885v3.146h6.469v2.839h-9.879V-101.837z"/>
	<path d="M146.639-101.837h3.411v8.801c0,2.421,1.232,3.278,2.904,3.278c1.826,0,2.927-1.188,2.927-3.19v-8.889h3.388v8.757
		c0,4.026-2.838,6.183-6.337,6.183c-3.455,0-6.293-1.604-6.293-5.874V-101.837z"/>
	<path d="M161.995-101.837h4.863l3.037,9.131l3.037-9.131h4.818l0.528,14.676h-3.301l-0.374-10.914l-3.718,10.914h-2.156
		l-3.631-10.737l-0.352,10.737h-3.3L161.995-101.837z"/>
	<path d="M180.761-91.1c0,0,1.518,1.275,3.499,1.275c1.21,0,1.958-0.483,1.958-1.255c0-2.222-6.249-2.244-6.249-6.578
		c0-2.354,1.892-4.444,5.193-4.444c2.112,0,4.114,0.659,4.114,0.659l-0.462,3.016c0,0-1.782-0.748-3.542-0.748
		c-1.232,0-1.871,0.462-1.871,1.145c0,2.223,6.249,2.068,6.249,6.646c0,2.771-2.376,4.487-5.281,4.487
		c-2.728,0-4.599-1.23-4.599-1.23L180.761-91.1z"/>
	<path d="M191.409-101.837h5.611c3.785,0,5.522,2.222,5.522,4.862c0,3.233-2.442,5.215-5.522,5.215h-2.201v4.599h-3.41V-101.837z
		 M196.514-94.599c1.694,0,2.486-0.901,2.486-2.223c0-1.255-0.616-2.179-2.486-2.179h-1.694v4.4L196.514-94.599L196.514-94.599z"/>
	<path d="M211.166-102.102c5.061,0,8.119,3.366,8.119,7.326c0,4.026-3.189,7.877-8.316,7.877c-5.018,0-7.988-3.607-7.988-7.567
		C202.98-98.251,205.842-102.102,211.166-102.102z M211.034-89.758c2.97,0,4.687-2.354,4.687-4.841c0-2.376-1.539-4.644-4.576-4.644
		c-3.015,0-4.621,2.268-4.621,4.709C206.523-92.288,207.977-89.758,211.034-89.758z"/>
	<path d="M220.977-101.837h5.457c3.785,0,5.502,2.002,5.502,4.62c0,1.738-0.793,3.146-2.268,3.961l3.983,6.095h-4.05l-3.277-5.171
		h-1.938v5.171h-3.41V-101.837L220.977-101.837z M225.598-95.148c2.267,0,2.795-0.857,2.795-1.979s-0.594-1.87-2.486-1.87h-1.52
		v3.851L225.598-95.148L225.598-95.148z"/>
	<path d="M237.564-98.999h-4.62v-2.838h12.563v2.838h-4.533v11.838h-3.41V-98.999L237.564-98.999z"/>
	<path d="M249.578-101.947h3.234l5.457,14.786h-3.455l-0.924-2.641h-5.479l-0.924,2.641h-3.367L249.578-101.947z M249.401-92.662
		h3.499l-1.76-4.973L249.401-92.662z"/>
	<path d="M259.279-101.837h3.41V-90h6.402v2.839h-9.812V-101.837z"/>
	<path d="M90.65-84.837h5.479c3.785,0,4.973,1.826,4.973,3.521c0,1.496-0.99,2.486-1.782,3.08c0.946,0.506,2.398,1.672,2.398,3.808
		c0,2.597-2.068,4.269-5.017,4.269H90.65V-84.837z M94.061-78.918h2.816c0,0,0.682-0.484,0.682-1.52c0-0.836-0.374-1.562-1.76-1.562
		h-1.738V-78.918z M96.371-73c1.276,0,1.804-0.659,1.804-1.628c0-0.88-0.55-1.562-1.804-1.562H94.06V-73H96.371z"/>
	<path d="M103.476-84.837h9.593v2.838h-6.183v2.971h4.885v2.884h-4.885v3.146h6.469v2.839h-9.879V-84.837L103.476-84.837z"/>
	<path d="M115.004-84.837h5.457c3.785,0,5.501,2.002,5.501,4.62c0,1.738-0.792,3.146-2.267,3.961l3.983,6.095h-4.049l-3.278-5.171
		h-1.937v5.171h-3.41V-84.837L115.004-84.837z M119.625-78.148c2.266,0,2.794-0.857,2.794-1.979s-0.594-1.87-2.486-1.87h-1.519
		v3.851L119.625-78.148L119.625-78.148z"/>
	<path d="M128.666-84.837h3.41V-73h6.403v2.839h-9.813V-84.837z"/>
	<path d="M139.797-84.837h3.41v14.676h-3.41V-84.837z"/>
	<path d="M145.87-84.837h3.455l6.337,9.395v-9.395h3.344v14.676h-3.499l-6.293-9.396v9.396h-3.344V-84.837L145.87-84.837z"/>
</g>
<g>
	<path d="M48.539,0.74h4.421l2.761,8.302l2.761-8.302h4.381l0.48,13.343h-3l-0.34-9.922l-3.38,9.922h-1.96l-3.301-9.762l-0.32,9.762
		h-3L48.539,0.74z"/>
	<path d="M65.359,0.74h3.101v8.002c0,2.2,1.12,2.979,2.641,2.979c1.66,0,2.661-1.08,2.661-2.899V0.74h3.081v7.962
		c0,3.66-2.581,5.621-5.761,5.621c-3.141,0-5.721-1.461-5.721-5.343V0.74H65.359z"/>
	<path d="M79.159,10.502c0,0,1.38,1.16,3.181,1.16c1.1,0,1.78-0.439,1.78-1.141c0-2.021-5.681-2.041-5.681-5.98
		c0-2.141,1.72-4.041,4.721-4.041c1.92,0,3.741,0.601,3.741,0.601l-0.42,2.74c0,0-1.62-0.68-3.221-0.68c-1.12,0-1.7,0.42-1.7,1.04
		c0,2.021,5.681,1.88,5.681,6.041c0,2.521-2.161,4.081-4.801,4.081c-2.48,0-4.181-1.12-4.181-1.12L79.159,10.502z"/>
	<path d="M88.839,0.74h8.722v2.58H91.94v2.701h4.441v2.619H91.94v2.861h5.881v2.58h-8.982V0.74L88.839,0.74z"/>
	<path d="M99.179,0.74h3.101v8.002c0,2.2,1.12,2.979,2.641,2.979c1.66,0,2.661-1.08,2.661-2.899V0.74h3.081v7.962
		c0,3.66-2.581,5.621-5.761,5.621c-3.141,0-5.721-1.461-5.721-5.343V0.74H99.179z"/>
	<path d="M113.138,0.74h4.421l2.761,8.302l2.761-8.302h4.381l0.48,13.343h-3l-0.34-9.922l-3.38,9.922h-1.96l-3.301-9.762
		l-0.32,9.762h-3L113.138,0.74z"/>
	<path d="M130.198,10.502c0,0,1.38,1.16,3.181,1.16c1.1,0,1.78-0.439,1.78-1.141c0-2.021-5.681-2.041-5.681-5.98
		c0-2.141,1.72-4.041,4.721-4.041c1.92,0,3.741,0.601,3.741,0.601l-0.42,2.74c0,0-1.62-0.68-3.221-0.68c-1.12,0-1.7,0.42-1.7,1.04
		c0,2.021,5.681,1.88,5.681,6.041c0,2.521-2.161,4.081-4.801,4.081c-2.48,0-4.181-1.12-4.181-1.12L130.198,10.502z"/>
	<path d="M139.878,0.74h5.101c3.44,0,5.021,2.021,5.021,4.421c0,2.939-2.221,4.741-5.021,4.741h-2v4.181h-3.101V0.74z
		 M144.519,7.321c1.541,0,2.261-0.82,2.261-2.021c0-1.14-0.56-1.979-2.261-1.979h-1.54v4.001H144.519z"/>
	<path d="M157.839,0.5c4.601,0,7.381,3.061,7.381,6.661c0,3.661-2.9,7.162-7.562,7.162c-4.561,0-7.262-3.281-7.262-6.882
		C150.398,4.001,152.999,0.5,157.839,0.5z M157.72,11.723c2.7,0,4.261-2.141,4.261-4.4c0-2.16-1.4-4.222-4.161-4.222
		c-2.74,0-4.201,2.062-4.201,4.281C153.619,9.422,154.939,11.723,157.72,11.723z"/>
	<path d="M166.758,0.74h4.961c3.441,0,5.002,1.819,5.002,4.201c0,1.58-0.721,2.859-2.062,3.601l3.621,5.541H174.6l-2.98-4.701h-1.76
		v4.701h-3.102V0.74L166.758,0.74z M170.959,6.821c2.061,0,2.541-0.78,2.541-1.8c0-1.021-0.54-1.701-2.26-1.701h-1.38v3.501H170.959
		z"/>
	<path d="M181.838,3.32h-4.201V0.74h11.424v2.58h-4.121v10.763h-3.102V3.32z"/>
	<path d="M192.758,0.64h2.941l4.961,13.443h-3.141l-0.84-2.4h-4.981l-0.84,2.4h-3.062L192.758,0.64z M192.598,9.082h3.182
		l-1.6-4.521L192.598,9.082z"/>
	<path d="M201.578,0.74h3.102v10.763h5.82v2.58h-8.922V0.74z"/>
	<path d="M48.279,17.157h4.981c3.44,0,4.521,1.66,4.521,3.2c0,1.359-0.9,2.261-1.621,2.801c0.86,0.46,2.181,1.521,2.181,3.461
		c0,2.359-1.88,3.881-4.561,3.881h-5.501V17.157L48.279,17.157z M51.38,22.538h2.561c0,0,0.62-0.439,0.62-1.38
		c0-0.761-0.34-1.421-1.601-1.421h-1.58V22.538z M53.481,27.92c1.16,0,1.64-0.601,1.64-1.479c0-0.802-0.5-1.422-1.64-1.422H51.38
		v2.901H53.481z"/>
	<path d="M59.939,17.157h8.722v2.58H63.04v2.7h4.441v2.62H63.04v2.861h5.881v2.58h-8.982V17.157z"/>
	<path d="M70.419,17.157h4.961c3.441,0,5.001,1.819,5.001,4.201c0,1.579-0.72,2.859-2.061,3.601l3.621,5.541H78.26l-2.98-4.701
		h-1.76V30.5h-3.101V17.157L70.419,17.157z M74.62,23.238c2.061,0,2.541-0.78,2.541-1.801s-0.54-1.7-2.26-1.7h-1.38v3.501H74.62z"/>
	<path d="M82.838,17.157h3.101V27.92h5.821v2.58h-8.922V17.157L82.838,17.157z"/>
	<path d="M92.959,17.157h3.101V30.5h-3.101V17.157z"/>
	<path d="M98.479,17.157h3.141l5.379,8.542v-8.542h3.041V30.5h-3.181l-5.339-8.542V30.5h-3.041V17.157z"/>
</g>
<g>
	<path d="M52.171-205l1.502,34H18.814l1.504-34H52.171 M69.393-223H3.096L0-153h72.486L69.393-223L69.393-223z"/>
</g>
<path d="M87.5-222.76h4.421l2.761,8.302l2.761-8.302h4.381l0.48,13.343h-3l-0.34-9.922l-3.38,9.922h-1.96l-3.301-9.762l-0.32,9.762
	h-3L87.5-222.76z"/>
<path d="M104.32-222.76h3.101v8.002c0,2.2,1.12,2.979,2.641,2.979c1.66,0,2.661-1.08,2.661-2.899v-8.082h3.081v7.962
	c0,3.66-2.581,5.621-5.761,5.621c-3.141,0-5.721-1.461-5.721-5.343v-8.24H104.32z"/>
<path d="M118.12-212.998c0,0,1.38,1.16,3.181,1.16c1.1,0,1.78-0.439,1.78-1.141c0-2.021-5.681-2.041-5.681-5.98
	c0-2.141,1.72-4.041,4.721-4.041c1.92,0,3.741,0.601,3.741,0.601l-0.42,2.74c0,0-1.62-0.68-3.221-0.68c-1.12,0-1.7,0.42-1.7,1.04
	c0,2.021,5.681,1.88,5.681,6.041c0,2.521-2.161,4.081-4.801,4.081c-2.48,0-4.181-1.12-4.181-1.12L118.12-212.998z"/>
<path d="M127.8-222.76h8.722v2.58h-5.621v2.701h4.441v2.619h-4.441v2.861h5.881v2.58H127.8V-222.76L127.8-222.76z"/>
<path d="M138.14-222.76h3.101v8.002c0,2.2,1.12,2.979,2.641,2.979c1.66,0,2.661-1.08,2.661-2.899v-8.082h3.081v7.962
	c0,3.66-2.581,5.621-5.761,5.621c-3.141,0-5.721-1.461-5.721-5.343v-8.24H138.14z"/>
<path d="M152.099-222.76h4.421l2.761,8.302l2.761-8.302h4.381l0.48,13.343h-3l-0.34-9.922l-3.38,9.922h-1.96l-3.301-9.762
	l-0.32,9.762h-3L152.099-222.76z"/>
<path d="M169.159-212.998c0,0,1.38,1.16,3.181,1.16c1.1,0,1.78-0.439,1.78-1.141c0-2.021-5.681-2.041-5.681-5.98
	c0-2.141,1.72-4.041,4.721-4.041c1.92,0,3.741,0.601,3.741,0.601l-0.42,2.74c0,0-1.62-0.68-3.221-0.68c-1.12,0-1.7,0.42-1.7,1.04
	c0,2.021,5.681,1.88,5.681,6.041c0,2.521-2.161,4.081-4.801,4.081c-2.48,0-4.181-1.12-4.181-1.12L169.159-212.998z"/>
<path d="M178.839-222.76h5.101c3.44,0,5.021,2.021,5.021,4.421c0,2.939-2.221,4.741-5.021,4.741h-2v4.181h-3.101V-222.76z
	 M183.48-216.179c1.541,0,2.261-0.82,2.261-2.021c0-1.14-0.56-1.979-2.261-1.979h-1.54v4.001H183.48z"/>
<path d="M196.8-223c4.601,0,7.381,3.061,7.381,6.661c0,3.661-2.9,7.162-7.562,7.162c-4.561,0-7.262-3.281-7.262-6.882
	C189.359-219.499,191.96-223,196.8-223z M196.681-211.777c2.7,0,4.261-2.141,4.261-4.4c0-2.16-1.4-4.222-4.161-4.222
	c-2.74,0-4.201,2.062-4.201,4.281C192.58-214.078,193.9-211.777,196.681-211.777z"/>
<path d="M205.719-222.76h4.961c3.441,0,5.002,1.819,5.002,4.201c0,1.58-0.721,2.859-2.062,3.601l3.621,5.541h-3.681l-2.98-4.701
	h-1.76v4.701h-3.102V-222.76L205.719-222.76z M209.92-216.679c2.061,0,2.541-0.78,2.541-1.8c0-1.021-0.54-1.701-2.26-1.701h-1.38
	v3.501H209.92z"/>
<path d="M220.799-220.18h-4.201v-2.58h11.424v2.58H223.9v10.763h-3.102V-220.18z"/>
<path d="M231.719-222.86h2.941l4.961,13.443h-3.141l-0.84-2.4h-4.981l-0.84,2.4h-3.062L231.719-222.86z M231.559-214.418h3.182
	l-1.6-4.521L231.559-214.418z"/>
<path d="M240.539-222.76h3.102v10.763h5.82v2.58h-8.922V-222.76z"/>
<path d="M87.24-206.343h4.981c3.44,0,4.521,1.66,4.521,3.2c0,1.359-0.9,2.261-1.621,2.801c0.86,0.46,2.181,1.521,2.181,3.461
	c0,2.359-1.88,3.881-4.561,3.881H87.24V-206.343L87.24-206.343z M90.341-200.962h2.561c0,0,0.62-0.439,0.62-1.38
	c0-0.761-0.34-1.421-1.601-1.421h-1.58V-200.962z M92.442-195.58c1.16,0,1.64-0.601,1.64-1.479c0-0.802-0.5-1.422-1.64-1.422h-2.101
	v2.901H92.442z"/>
<path d="M98.9-206.343h8.722v2.58h-5.621v2.7h4.441v2.62h-4.441v2.861h5.881v2.58H98.9V-206.343z"/>
<path d="M109.38-206.343h4.961c3.441,0,5.001,1.819,5.001,4.201c0,1.579-0.72,2.859-2.061,3.601l3.621,5.541h-3.681l-2.98-4.701
	h-1.76V-193h-3.101V-206.343L109.38-206.343z M113.581-200.262c2.061,0,2.541-0.78,2.541-1.801s-0.54-1.7-2.26-1.7h-1.38v3.501
	H113.581z"/>
<path d="M121.799-206.343h3.101v10.763h5.821v2.58h-8.922V-206.343L121.799-206.343z"/>
<path d="M131.92-206.343h3.101V-193h-3.101V-206.343z"/>
<path d="M137.44-206.343h3.141l5.379,8.542v-8.542h3.041V-193h-3.181l-5.339-8.542V-193h-3.041V-206.343z"/>
<polyline fill="#FFFFFF" points="25.501,8.214 27.439,22.785 10.5,22.785 12.438,8.214 25.501,8.214 "/>
</svg>
