<svg class="svg-footer-dein_nrw" xmlns="http://www.w3.org/2000/svg" viewBox="0 0 37.96 51.02"><defs><style>.svg-footer-dein_nrw-cls-1{fill:#d40050;}.svg-footer-dein_nrw-cls-2{fill:#b1c800;}.svg-footer-dein_nrw-cls-3{fill:#f29400;}.svg-footer-dein_nrw-cls-4{fill:#181715;}.svg-footer-dein_nrw-cls-5{fill:#00aad4;}</style></defs><g><g><path d="M7.14,12.77l-4-8.06v8.06H.93V.16H3.17l4,8.38V.16H9.37V12.77Z"></path><path d="M15.75,12.94H13.62a3.18,3.18,0,0,1-3.15-3.18V3.15A3.15,3.15,0,0,1,13.62,0h2.13A3.15,3.15,0,0,1,18.9,3.15V9.76A3.18,3.18,0,0,1,15.75,12.94Zm1-9.83a1.05,1.05,0,0,0-1-1h-2a1,1,0,0,0-1,1V9.82a1,1,0,0,0,1,1h2a1.06,1.06,0,0,0,1-1Z"></path><path d="M26.29,12.77l-2.6-5.18H22.24v5.18H20.07V.16h5.28a3.19,3.19,0,0,1,3.17,3.18v1.1a3.18,3.18,0,0,1-2.6,3.11l2.77,5.22Zm.06-9.47a1.08,1.08,0,0,0-1.06-1.07H22.24v3.3h3.05a1.06,1.06,0,0,0,1.06-1Z"></path><path class="svg-footer-dein_nrw-cls-1" d="M34.85,12.77H29.51V.16h5.28a3.21,3.21,0,0,1,3.15,3.11V9.66A3.13,3.13,0,0,1,34.85,12.77Zm.92-9.5a1.1,1.1,0,0,0-1.09-1h-3V10.7h3.07a1,1,0,0,0,1-1Z"></path><path d="M6.63,25.9,4.25,21.16H2.92V25.9h-2V14.35H5.77a2.92,2.92,0,0,1,2.9,2.9v1a2.93,2.93,0,0,1-2.38,2.85L8.82,25.9Zm.06-8.68a1,1,0,0,0-1-1H2.92v3H5.71a1,1,0,0,0,1-1Z"></path><path d="M15.58,25.9V21H11.83V25.9h-2V14.35h2v4.8h3.75v-4.8h2V25.9Z"></path><path class="svg-footer-dein_nrw-cls-2" d="M18.77,25.9V14.35h6.77v1.89H20.75v2.91h4.79V21H20.75v3h4.79V25.9Z"></path><path class="svg-footer-dein_nrw-cls-3" d="M26.79,25.9V14.33h2V25.9Z"></path><path class="svg-footer-dein_nrw-cls-4" d="M35.89,25.9,32.2,18.51V25.9h-2V14.35h2L36,22V14.35h2V25.9Z"></path><path class="svg-footer-dein_nrw-cls-4" d="M11.09,38.83H8.63l-1.9-7.47L4.82,38.83H2.37L0,27.44H2L3.7,35.91l2-8.47h2l2.05,8.47,1.66-8.47h2Z"></path><path class="svg-footer-dein_nrw-cls-4" d="M14.23,38.83V27.44h6.68v1.87H16.19v2.87h4.72V34H16.19V37h4.72v1.87Z"></path><path class="svg-footer-dein_nrw-cls-4" d="M27,39H25.09a2.87,2.87,0,0,1-2.85-2.87h2a1,1,0,0,0,.94,1H27a1,1,0,0,0,1-1v-.55a.93.93,0,0,0-.5-.83l-3.85-2a2.65,2.65,0,0,1-1.33-2.44v-.18a2.86,2.86,0,0,1,2.85-2.85h1.64a2.87,2.87,0,0,1,2.87,2.85h-2a1,1,0,0,0-.94-1H25.14a1,1,0,0,0-.94,1v.18a.93.93,0,0,0,.48.83l3.85,2a2.56,2.56,0,0,1,1.33,2.44v.55A2.87,2.87,0,0,1,27,39Z"></path><path class="svg-footer-dein_nrw-cls-4" d="M35.11,29.31v9.52h-2V29.31H30.32V27.44h7.61v1.87Z"></path><path d="M.91,51V40.39H7.14v1.74H2.74v2.68h4.4v1.74H2.74V51Z"></path><path d="M13.74,51l-.57-1.81H9.27L8.7,51H6.76l3.51-10.63h1.88L15.67,51Zm-2.52-8.3L9.8,47.47h2.81Z"></path><path d="M16.38,51V40.39h1.83v8.89h4.4V51Z"></path><path d="M23.56,51V40.39h6.23v1.74h-4.4v2.68h4.4v1.74h-4.4v2.73h4.4V51Z"></path><path class="svg-footer-dein_nrw-cls-5" d="M36.08,51l-3.4-6.8V51H30.85V40.39h1.88l3.4,7.06V40.39H38V51Z"></path></g></g></svg>
