<svg class="svg-footer-efre" xmlns="http://www.w3.org/2000/svg" viewBox="0 0 191.54 42.52"><defs><style>.svg-footer-efre-cls-1{fill:#165faa;}.svg-footer-efre-cls-2{fill:#fcc300;}.svg-footer-efre-cls-3{fill:#1b1b19;}</style></defs><g><g><rect class="svg-footer-efre-cls-1" y="1.04" width="58.83" height="39.55"></rect><polygon class="svg-footer-efre-cls-2" points="42.29 26.47 43.95 26.47 42.61 27.48 43.13 29.07 41.79 28.09 40.46 29.07 40.99 27.48 39.63 26.47 41.29 26.47 41.79 24.92 42.29 26.47"></polygon><polygon class="svg-footer-efre-cls-2" points="30.28 6.8 31.95 6.8 30.61 7.81 31.13 9.41 29.79 8.43 28.45 9.41 28.98 7.81 27.63 6.8 29.29 6.8 29.79 5.25 30.28 6.8"></polygon><polygon class="svg-footer-efre-cls-2" points="30.28 33.55 31.95 33.55 30.61 34.56 31.13 36.16 29.79 35.18 28.45 36.16 28.98 34.56 27.63 33.55 29.29 33.55 29.79 32 30.28 33.55"></polygon><polygon class="svg-footer-efre-cls-2" points="22.91 31.68 24.57 31.68 23.23 32.68 23.75 34.28 22.41 33.3 21.07 34.28 21.6 32.68 20.25 31.68 21.91 31.68 22.41 30.12 22.91 31.68"></polygon><polygon class="svg-footer-efre-cls-2" points="42.58 14.04 44.24 14.04 42.9 15.04 43.42 16.64 42.08 15.66 40.75 16.64 41.27 15.04 39.92 14.04 41.58 14.04 42.08 12.48 42.58 14.04"></polygon><polygon class="svg-footer-efre-cls-2" points="18.42 13.88 20.09 13.88 18.74 14.89 19.27 16.49 17.93 15.51 16.59 16.49 17.12 14.89 15.77 13.88 17.43 13.88 17.93 12.33 18.42 13.88"></polygon><polygon class="svg-footer-efre-cls-2" points="37.51 9.12 39.18 9.12 37.84 10.12 38.36 11.72 37.02 10.74 35.69 11.72 36.21 10.12 34.86 9.12 36.52 9.12 37.02 7.56 37.51 9.12"></polygon><polygon class="svg-footer-efre-cls-2" points="23.63 8.97 25.3 8.97 23.95 9.98 24.47 11.57 23.14 10.59 21.8 11.57 22.33 9.98 20.97 8.97 22.63 8.97 23.14 7.42 23.63 8.97"></polygon><polygon class="svg-footer-efre-cls-2" points="38.09 31.68 39.76 31.68 38.41 32.68 38.94 34.28 37.6 33.3 36.27 34.28 36.79 32.68 35.44 31.68 37.1 31.68 37.6 30.12 38.09 31.68"></polygon><polygon class="svg-footer-efre-cls-2" points="16.98 19.96 18.64 19.96 17.3 20.97 17.82 22.57 16.48 21.58 15.15 22.57 15.68 20.97 14.32 19.96 15.98 19.96 16.48 18.4 16.98 19.96"></polygon><polygon class="svg-footer-efre-cls-2" points="43.73 20.1 45.4 20.1 44.06 21.11 44.58 22.71 43.24 21.73 41.9 22.71 42.43 21.11 41.08 20.1 42.74 20.1 43.24 18.55 43.73 20.1"></polygon><polygon class="svg-footer-efre-cls-2" points="18.57 26.47 20.23 26.47 18.89 27.48 19.41 29.07 18.07 28.09 16.74 29.07 17.27 27.48 15.91 26.47 17.57 26.47 18.07 24.92 18.57 26.47"></polygon><polygon class="svg-footer-efre-cls-3" points="73.12 1.34 77.52 1.34 77.52 2.13 73.97 2.13 73.97 4.37 76.61 4.37 76.61 5.13 73.97 5.13 73.97 7.75 77.73 7.75 77.73 8.52 73.12 8.52 73.12 1.34"></polygon><path class="svg-footer-efre-cls-3" d="M79.1,6V1.34H80V5.92a1.71,1.71,0,0,0,1.82,2c1.26,0,1.81-.78,1.81-1.94V1.34h.84V6a2.45,2.45,0,0,1-2.66,2.64A2.42,2.42,0,0,1,79.1,6"></path><path class="svg-footer-efre-cls-3" d="M86.41,1.34h2.47c1.63,0,2.55.69,2.55,2a1.87,1.87,0,0,1-1.67,2l1.76,3.2h-.93L88.88,5.43H87.26V8.52h-.85V1.34m2.42,3.33c1.12,0,1.76-.31,1.76-1.29S90,2.12,88.82,2.12H87.26V4.67Z"></path><path class="svg-footer-efre-cls-3" d="M92.83,4.93c0-2.31,1.33-3.72,3.1-3.72S99,2.62,99,4.93s-1.31,3.73-3.09,3.73-3.1-1.42-3.1-3.73m5.34,0c0-1.87-.94-2.95-2.24-2.95s-2.24,1.08-2.24,2.95.92,3,2.24,3,2.24-1.09,2.24-3"></path><path class="svg-footer-efre-cls-3" d="M100.74,1.34h2.44c1.55,0,2.59.61,2.59,2s-1.15,2.1-2.65,2.1h-1.53v3h-.85V1.34m2.42,3.38c1.15,0,1.76-.34,1.76-1.31s-.6-1.29-1.77-1.29h-1.56v2.6Z"></path><path class="svg-footer-efre-cls-3" d="M108.76,1.31h.89l2.54,7.21h-.88l-.71-2.06h-2.85L107,8.52h-.83ZM107.89,0h.85V.92h-.85Zm2.45,5.72L109.2,2.35h0L108,5.72ZM109.65,0h.86V.92h-.86Z"></path><rect class="svg-footer-efre-cls-3" x="113.69" y="1.34" width="0.85" height="7.18"></rect><path class="svg-footer-efre-cls-3" d="M116.22,6.78l.71-.32a2,2,0,0,0,2,1.44c1,0,1.68-.42,1.68-1.18s-.39-1.06-1.8-1.51-2.39-.86-2.39-2.1.94-1.9,2.31-1.9a2.55,2.55,0,0,1,2.54,1.6l-.69.38A1.87,1.87,0,0,0,118.76,2c-.91,0-1.45.45-1.45,1.06s.48,1,1.89,1.46,2.3.94,2.3,2.15-1,2-2.57,2a2.69,2.69,0,0,1-2.71-1.88"></path><path class="svg-footer-efre-cls-3" d="M122.83,4.9c0-2.24,1.25-3.69,3-3.69a2.58,2.58,0,0,1,2.66,2.2l-.82.22c-.31-1.09-.8-1.64-1.85-1.64-1.34,0-2.17,1.13-2.17,2.9s.85,3,2.19,3c1,0,1.65-.57,2-1.74l.81.19a2.74,2.74,0,0,1-2.77,2.33c-1.82,0-3-1.41-3-3.76"></path><polygon class="svg-footer-efre-cls-3" points="130.25 1.34 131.1 1.34 131.1 4.35 134.8 4.35 134.8 1.34 135.66 1.34 135.66 8.52 134.8 8.52 134.8 5.13 131.1 5.13 131.1 8.52 130.25 8.52 130.25 1.34"></polygon><polygon class="svg-footer-efre-cls-3" points="137.69 1.34 142.09 1.34 142.09 2.13 138.55 2.13 138.55 4.37 141.18 4.37 141.18 5.13 138.55 5.13 138.55 7.75 142.3 7.75 142.3 8.52 137.69 8.52 137.69 1.34"></polygon><path class="svg-footer-efre-cls-3" d="M146,6V1.34h.85V5.92a1.82,1.82,0,1,0,3.64,0V1.34h.84V6a2.46,2.46,0,0,1-2.67,2.64A2.41,2.41,0,0,1,146,6"></path><polygon class="svg-footer-efre-cls-3" points="153.31 1.34 154.21 1.34 157.98 7.02 158 7.02 158 1.34 158.81 1.34 158.81 8.52 158.05 8.52 154.13 2.69 154.11 2.69 154.11 8.52 153.31 8.52 153.31 1.34"></polygon><rect class="svg-footer-efre-cls-3" x="160.9" y="1.34" width="0.86" height="7.18"></rect><path class="svg-footer-efre-cls-3" d="M163.51,4.93c0-2.31,1.34-3.72,3.11-3.72s3.09,1.41,3.09,3.72-1.32,3.73-3.09,3.73-3.11-1.42-3.11-3.73m5.35,0c0-1.87-.94-2.95-2.24-2.95s-2.23,1.08-2.23,2.95.92,3,2.23,3,2.24-1.09,2.24-3"></path><polygon class="svg-footer-efre-cls-3" points="171.43 1.34 172.33 1.34 176.11 7.02 176.12 7.02 176.12 1.34 176.93 1.34 176.93 8.52 176.16 8.52 172.26 2.69 172.24 2.69 172.24 8.52 171.43 8.52 171.43 1.34"></polygon><polygon class="svg-footer-efre-cls-3" points="73.12 22.7 77.52 22.7 77.52 23.48 73.97 23.48 73.97 25.72 76.61 25.72 76.61 26.48 73.97 26.48 73.97 29.1 77.73 29.1 77.73 29.88 73.12 29.88 73.12 22.7"></polygon><path class="svg-footer-efre-cls-3" d="M79,28.44V24.75h.84v3.52c0,.68.29,1,.94,1a2.4,2.4,0,0,0,1.66-.83V24.75h.84v5.13h-.84v-.77a2.75,2.75,0,0,1-1.92.87A1.39,1.39,0,0,1,79,28.44"></path><path class="svg-footer-efre-cls-3" d="M85,24.75h.83v.95h0a2.18,2.18,0,0,1,2-1.06H88l-.06.78h-.24a2,2,0,0,0-1.81,1.16v3.31H85V24.75"></path><path class="svg-footer-efre-cls-3" d="M88.79,27.31a2.4,2.4,0,1,1,4.76,0,2.4,2.4,0,1,1-4.76,0m3.92,0c0-1.07-.51-1.95-1.53-1.95s-1.54.8-1.54,1.95.5,2,1.54,2,1.53-.78,1.53-2"></path><path class="svg-footer-efre-cls-3" d="M95,24.75h.84v.71a2.22,2.22,0,0,1,1.69-.82c1.17,0,2.08.88,2.08,2.66S98.7,30,97.45,30a2.2,2.2,0,0,1-1.6-.74v2.59H95V24.75m3.78,2.56c0-1.31-.62-1.95-1.44-1.95a2,2,0,0,0-1.5.79v2.34a2,2,0,0,0,1.49.78c.89,0,1.45-.59,1.45-2"></path><path class="svg-footer-efre-cls-3" d="M100.76,28.66c0-1,.88-1.78,3.42-2.14v-.23a.85.85,0,0,0-1-.95,2.73,2.73,0,0,0-1.86.78l-.43-.53a3.4,3.4,0,0,1,2.37-.95A1.5,1.5,0,0,1,105,26.35v2.26a3.52,3.52,0,0,0,.15,1.27h-.86a2.15,2.15,0,0,1-.12-.71,2.74,2.74,0,0,1-2,.79c-.89,0-1.45-.47-1.45-1.3m3.42-.11V27.11c-2,.31-2.59.78-2.59,1.42s.33.76.86.76a2.43,2.43,0,0,0,1.73-.74m-2.37-5.25h.85v.92h-.85Zm1.76,0h.87v.92h-.87Z"></path><path class="svg-footer-efre-cls-3" d="M106.72,22.84h.88v.81h-.88Zm0,1.91h.83v5.12h-.83Z"></path><path class="svg-footer-efre-cls-3" d="M108.94,29.1l.5-.51a2.11,2.11,0,0,0,1.6.71c.8,0,1.24-.28,1.24-.81s-.45-.71-1.33-.91c-1.08-.26-1.83-.55-1.83-1.54,0-.77.68-1.4,1.8-1.4a2.62,2.62,0,0,1,2,.74l-.43.55a2.21,2.21,0,0,0-1.49-.61c-.74,0-1,.33-1,.69s.4.65,1.21.84c1.16.28,2,.56,2,1.62S112.2,30,111,30a2.72,2.72,0,0,1-2.09-.88"></path><path class="svg-footer-efre-cls-3" d="M114.23,27.31a2.38,2.38,0,0,1,2.35-2.67,2,2,0,0,1,2,1.44l-.71.29a1.34,1.34,0,0,0-1.32-1c-.73,0-1.48.51-1.48,2,0,1.26.6,2,1.46,2a1.39,1.39,0,0,0,1.38-1l.69.27A2.17,2.17,0,0,1,116.52,30a2.38,2.38,0,0,1-2.29-2.67"></path><path class="svg-footer-efre-cls-3" d="M120,22.7h.85v2.82a2.74,2.74,0,0,1,1.93-.88,1.38,1.38,0,0,1,1.51,1.54v3.7h-.84V26.36c0-.68-.29-1-.94-1a2.44,2.44,0,0,0-1.66.83v3.69H120V22.7"></path><path class="svg-footer-efre-cls-3" d="M125.65,27.31A2.41,2.41,0,0,1,128,24.64c1.22,0,2.14.86,2.14,2.71v.17h-3.62c0,1.16.7,1.78,1.54,1.78a1.75,1.75,0,0,0,1.55-.83l.48.43a2.41,2.41,0,0,1-4.41-1.59m3.67-.44c-.07-.91-.51-1.53-1.36-1.53a1.51,1.51,0,0,0-1.45,1.53Z"></path><path class="svg-footer-efre-cls-3" d="M131.58,24.75h.83v.95h0a2.19,2.19,0,0,1,2-1.06h.1l-.06.78h-.24a2,2,0,0,0-1.8,1.16v3.31h-.83V24.75"></path><polygon class="svg-footer-efre-cls-3" points="138.07 22.7 142.38 22.7 142.38 23.48 138.92 23.48 138.92 25.79 141.46 25.79 141.46 26.56 138.92 26.56 138.92 29.88 138.07 29.88 138.07 22.7"></polygon><path class="svg-footer-efre-cls-3" d="M143.1,27.31a2.4,2.4,0,1,1,4.76,0,2.4,2.4,0,1,1-4.76,0m3.92,0c0-1.07-.52-1.95-1.53-1.95s-1.55.8-1.55,1.95.51,2,1.55,2,1.53-.78,1.53-2"></path><path class="svg-footer-efre-cls-3" d="M149.32,24.75h.85v.77a2.76,2.76,0,0,1,1.92-.88,1.39,1.39,0,0,1,1.52,1.54v3.7h-.84V26.36c0-.68-.29-1-.94-1a2.44,2.44,0,0,0-1.66.83v3.69h-.85V24.75"></path><path class="svg-footer-efre-cls-3" d="M155,27.32c0-1.78.93-2.68,2.19-2.68a2.14,2.14,0,0,1,1.59.76V22.7h.83v5.91a3.26,3.26,0,0,0,.16,1.27h-.87a2.47,2.47,0,0,1-.12-.73,2.19,2.19,0,0,1-1.69.81C156,30,155,29.11,155,27.32m3.78,1.16V26.13a2,2,0,0,0-1.48-.78c-.89,0-1.46.63-1.46,2s.63,1.93,1.45,1.93a2,2,0,0,0,1.49-.78"></path><path class="svg-footer-efre-cls-3" d="M161,29.1l.5-.51a2.11,2.11,0,0,0,1.6.71c.8,0,1.24-.28,1.24-.81s-.45-.71-1.32-.91c-1.09-.26-1.84-.55-1.84-1.54,0-.77.68-1.4,1.8-1.4a2.64,2.64,0,0,1,2,.74l-.43.55a2.25,2.25,0,0,0-1.49-.61c-.75,0-1,.33-1,.69s.41.65,1.21.84c1.16.28,2,.56,2,1.62S164.25,30,163.08,30A2.71,2.71,0,0,1,161,29.1"></path><path class="svg-footer-efre-cls-3" d="M73.37,36.11h-.89v-.69h.89v-.68c0-.87.46-1.39,1.55-1.39l.47,0v.68A1.86,1.86,0,0,0,75,34c-.47,0-.82.16-.82.71v.68h1.12v.69H74.21v4.44h-.84V36.11"></path><path class="svg-footer-efre-cls-3" d="M76.54,39.13V35.42h.83V39c0,.68.29,1,.95,1A2.4,2.4,0,0,0,80,39.13V35.42h.85v5.13H80v-.77a2.71,2.71,0,0,1-1.92.87,1.37,1.37,0,0,1-1.51-1.52M77.37,34h.86v.91h-.86Zm1.77,0H80v.91h-.87Z"></path><path class="svg-footer-efre-cls-3" d="M82.53,35.42h.84v1h0a2.21,2.21,0,0,1,2-1.06h.1l0,.78h-.24a2,2,0,0,0-1.81,1.15v3.31h-.84V35.42"></path><path class="svg-footer-efre-cls-3" d="M89.29,35.42h.83v1h0a2.21,2.21,0,0,1,2-1.06h.11l-.06.78h-.24a2,2,0,0,0-1.81,1.15v3.31h-.83V35.42"></path><path class="svg-footer-efre-cls-3" d="M92.75,38a2.39,2.39,0,0,1,2.32-2.67c1.21,0,2.13.86,2.13,2.71v.17H93.58c0,1.16.7,1.77,1.54,1.77a1.73,1.73,0,0,0,1.55-.83l.48.43A2.4,2.4,0,0,1,92.75,38m3.65-.44c-.06-.91-.5-1.54-1.34-1.54a1.5,1.5,0,0,0-1.46,1.54Z"></path><path class="svg-footer-efre-cls-3" d="M98.08,41.25A1.25,1.25,0,0,1,99,40.11a.67.67,0,0,1-.43-.65,1.06,1.06,0,0,1,.64-.82,1.7,1.7,0,0,1-.79-1.48,1.9,1.9,0,0,1,2.08-1.84,2.25,2.25,0,0,1,1.52.53,2.71,2.71,0,0,1,1.22-.47v.73a2.81,2.81,0,0,0-.92.17,1.55,1.55,0,0,1,.26.88A1.88,1.88,0,0,1,100.51,39a2.64,2.64,0,0,1-.81-.13c-.21.1-.36.22-.36.4s.17.31.71.36l1,.08c1.31.09,2,.51,2,1.33s-1,1.49-2.51,1.49c-1.72,0-2.47-.5-2.47-1.27m4.22-.14c0-.45-.35-.66-1.43-.74l-1-.06-.29,0c-.49.17-.75.49-.75.84,0,.51.53.77,1.8.77,1,0,1.64-.31,1.64-.78m-.49-3.93a1.29,1.29,0,1,0-1.29,1.2,1.16,1.16,0,0,0,1.29-1.2"></path><path class="svg-footer-efre-cls-3" d="M104.5,33.51h.87v.82h-.87Zm0,1.91h.83v5.13h-.83Z"></path><path class="svg-footer-efre-cls-3" d="M106.82,38a2.4,2.4,0,1,1,4.77,0,2.4,2.4,0,1,1-4.77,0m3.92,0c0-1.07-.52-2-1.53-2s-1.55.8-1.55,2,.51,2,1.55,2,1.53-.79,1.53-2"></path><path class="svg-footer-efre-cls-3" d="M113,35.42h.84v.78a2.76,2.76,0,0,1,1.93-.88,1.38,1.38,0,0,1,1.52,1.53v3.7h-.84V37c0-.68-.29-1-.95-1a2.46,2.46,0,0,0-1.66.82v3.69H113V35.42"></path><path class="svg-footer-efre-cls-3" d="M118.68,39.33c0-1,.89-1.77,3.43-2.12V37a.86.86,0,0,0-1-1,2.72,2.72,0,0,0-1.85.79l-.44-.53a3.43,3.43,0,0,1,2.38-1,1.5,1.5,0,0,1,1.7,1.71v2.26a3.42,3.42,0,0,0,.15,1.26h-.85a2.15,2.15,0,0,1-.12-.71,2.78,2.78,0,0,1-2,.79,1.27,1.27,0,0,1-1.45-1.3m3.43-.11V37.78c-2,.32-2.6.79-2.6,1.43s.33.76.86.76a2.48,2.48,0,0,0,1.74-.75"></path><rect class="svg-footer-efre-cls-3" x="124.66" y="33.37" width="0.84" height="7.18"></rect><path class="svg-footer-efre-cls-3" d="M127,38a2.39,2.39,0,0,1,2.31-2.67c1.22,0,2.14.86,2.14,2.71v.17h-3.62c0,1.16.7,1.77,1.54,1.77a1.73,1.73,0,0,0,1.55-.83l.49.43a2.4,2.4,0,0,1-2.1,1.09A2.36,2.36,0,0,1,127,38m3.66-.44c-.07-.91-.51-1.54-1.36-1.54a1.5,1.5,0,0,0-1.45,1.54Z"></path><polygon class="svg-footer-efre-cls-3" points="135.24 33.37 139.64 33.37 139.64 34.15 136.09 34.15 136.09 36.4 138.73 36.4 138.73 37.16 136.09 37.16 136.09 39.78 139.84 39.78 139.84 40.55 135.24 40.55 135.24 33.37"></polygon><path class="svg-footer-efre-cls-3" d="M141.22,35.42h.84v.78a2.76,2.76,0,0,1,1.92-.88,1.38,1.38,0,0,1,1.52,1.53v3.7h-.83V37c0-.68-.3-1-.95-1a2.46,2.46,0,0,0-1.66.82v3.69h-.84V35.42"></path><path class="svg-footer-efre-cls-3" d="M147.56,39.31v-3.2h-.9v-.69h.9V33.6h.83v1.82h1.33v.69h-1.33v3c0,.54.17.81.79.81a2.06,2.06,0,0,0,.53-.07v.69a4.55,4.55,0,0,1-.73.06c-1.08,0-1.42-.42-1.42-1.31"></path><path class="svg-footer-efre-cls-3" d="M150.74,35.42h.87l.67,2.41c.18.63.3,1.05.45,1.71h0c.17-.72.27-1.09.44-1.72l.66-2.4h.72l.67,2.45c.18.62.27,1,.43,1.67h0c.17-.68.27-1,.44-1.65l.7-2.47h.79l-1.56,5.13h-.78l-1.09-4h0l-1.09,4h-.77l-1.57-5.13"></path><path class="svg-footer-efre-cls-3" d="M158.84,33.51h.88v.82h-.88Zm0,1.91h.84v5.13h-.84Z"></path><path class="svg-footer-efre-cls-3" d="M161.17,38a2.38,2.38,0,0,1,2.35-2.67,2,2,0,0,1,2,1.43l-.71.3a1.34,1.34,0,0,0-1.32-1c-.73,0-1.48.51-1.48,2,0,1.26.6,2,1.46,2a1.39,1.39,0,0,0,1.38-1l.69.27a2.18,2.18,0,0,1-2.1,1.46A2.38,2.38,0,0,1,161.17,38"></path><polygon class="svg-footer-efre-cls-3" points="166.9 33.37 167.73 33.37 167.73 37.99 170.02 35.42 170.97 35.42 169.29 37.26 171.15 40.55 170.26 40.55 168.75 37.88 167.73 38.98 167.73 40.55 166.9 40.55 166.9 33.37"></polygon><rect class="svg-footer-efre-cls-3" x="172.42" y="33.37" width="0.83" height="7.18"></rect><path class="svg-footer-efre-cls-3" d="M175,39.13V35.42h.84V39c0,.68.28,1,.93,1a2.43,2.43,0,0,0,1.66-.82V35.42h.85v5.13h-.85v-.77a2.71,2.71,0,0,1-1.92.87A1.37,1.37,0,0,1,175,39.13"></path><path class="svg-footer-efre-cls-3" d="M181,35.42h.84v.78a2.76,2.76,0,0,1,1.92-.88,1.38,1.38,0,0,1,1.52,1.53v3.7h-.84V37c0-.68-.29-1-.94-1a2.43,2.43,0,0,0-1.66.82v3.69H181V35.42"></path><path class="svg-footer-efre-cls-3" d="M186.37,41.25a1.25,1.25,0,0,1,.94-1.14.67.67,0,0,1-.45-.65,1.08,1.08,0,0,1,.65-.82,1.7,1.7,0,0,1-.8-1.48,1.91,1.91,0,0,1,2.1-1.84,2.24,2.24,0,0,1,1.51.53,2.67,2.67,0,0,1,1.22-.47v.73a2.86,2.86,0,0,0-.93.17,1.48,1.48,0,0,1,.26.88A1.86,1.86,0,0,1,188.81,39a2.71,2.71,0,0,1-.82-.13c-.21.1-.36.22-.36.4s.17.31.72.36l1,.08c1.3.09,2,.51,2,1.33s-1,1.49-2.5,1.49c-1.74,0-2.48-.5-2.48-1.27m4.21-.14c0-.45-.34-.66-1.42-.74l-1-.06-.29,0c-.5.17-.77.49-.77.84,0,.51.54.77,1.81.77,1,0,1.63-.31,1.63-.78m-.48-3.93A1.15,1.15,0,0,0,188.81,36a1.21,1.21,0,1,0,1.29,1.21"></path><rect class="svg-footer-efre-cls-1" x="73.12" y="11.94" width="0.8" height="6.71"></rect><path class="svg-footer-efre-cls-1" d="M75.52,13.86h.79v.71a2.62,2.62,0,0,1,1.8-.81,1.29,1.29,0,0,1,1.41,1.43v3.45h-.78V15.36c0-.63-.27-.93-.88-.93a2.29,2.29,0,0,0-1.55.77v3.44h-.79Z"></path><polygon class="svg-footer-efre-cls-1" points="80.26 13.86 81.09 13.86 82.43 17.74 82.45 17.74 83.78 13.86 84.56 13.86 82.81 18.66 82.02 18.66 80.26 13.86"></polygon><path class="svg-footer-efre-cls-1" d="M84.94,16.25a2.24,2.24,0,0,1,2.17-2.49c1.13,0,2,.79,2,2.53v.16H85.72c0,1.08.65,1.66,1.44,1.66a1.61,1.61,0,0,0,1.44-.78l.45.4a2.25,2.25,0,0,1-4.11-1.48m3.42-.41c-.07-.85-.47-1.43-1.26-1.43s-1.25.44-1.36,1.43Z"></path><path class="svg-footer-efre-cls-1" d="M89.78,17.92l.47-.47a2,2,0,0,0,1.5.66c.74,0,1.15-.26,1.15-.75s-.42-.67-1.23-.86c-1-.24-1.72-.51-1.72-1.44,0-.72.64-1.3,1.68-1.3a2.47,2.47,0,0,1,1.83.69l-.41.51a2.08,2.08,0,0,0-1.38-.57c-.7,0-1,.31-1,.65s.38.6,1.13.77c1.08.27,1.82.53,1.82,1.52s-.82,1.4-1.91,1.4a2.54,2.54,0,0,1-2-.81"></path><path class="svg-footer-efre-cls-1" d="M95,17.48v-3h-.83v-.64H95V12.15h.78v1.71h1.25v.64H95.8v2.81c0,.51.17.76.75.76A2.34,2.34,0,0,0,97,18v.64a4,4,0,0,1-.68.06c-1,0-1.34-.39-1.34-1.23"></path><path class="svg-footer-efre-cls-1" d="M98.13,12.07H99v.76h-.82Zm0,1.79h.78v4.78h-.78Z"></path><path class="svg-footer-efre-cls-1" d="M100.71,17.48v-3h-.83v-.64h.83V12.15h.78v1.71h1.24v.64h-1.24v2.81c0,.51.16.76.74.76a2.18,2.18,0,0,0,.49-.06v.64a3.79,3.79,0,0,1-.68.06c-1,0-1.33-.39-1.33-1.23"></path><path class="svg-footer-efre-cls-1" d="M103.82,12.07h.82v.76h-.82Zm0,1.79h.78v4.78h-.78Z"></path><path class="svg-footer-efre-cls-1" d="M105.78,16.25a2.24,2.24,0,1,1,4.45,0,2.24,2.24,0,1,1-4.45,0m3.66,0c0-1-.48-1.82-1.43-1.82s-1.44.74-1.44,1.82.47,1.83,1.44,1.83,1.43-.73,1.43-1.83"></path><path class="svg-footer-efre-cls-1" d="M111.34,13.86h.79v.71a2.6,2.6,0,0,1,1.79-.81,1.29,1.29,0,0,1,1.42,1.43v3.45h-.78V15.36c0-.63-.27-.93-.88-.93a2.29,2.29,0,0,0-1.55.77v3.44h-.79Z"></path><path class="svg-footer-efre-cls-1" d="M118.83,12.07h.82v.76h-.82Zm0,1.79h.78v4.78h-.78Z"></path><path class="svg-footer-efre-cls-1" d="M121.06,13.86h.79v.71a2.62,2.62,0,0,1,1.8-.81,1.29,1.29,0,0,1,1.41,1.43v3.45h-.78V15.36c0-.63-.27-.93-.88-.93a2.29,2.29,0,0,0-1.55.77v3.44h-.79Z"></path><path class="svg-footer-efre-cls-1" d="M128.47,17.31V13.86h.78v3.29c0,.63.27.93.88.93a2.27,2.27,0,0,0,1.55-.77V13.86h.79v4.78h-.79v-.71a2.59,2.59,0,0,1-1.79.8,1.28,1.28,0,0,1-1.42-1.42"></path><path class="svg-footer-efre-cls-1" d="M133.85,13.86h.79v.71a2.6,2.6,0,0,1,1.79-.81,1.29,1.29,0,0,1,1.42,1.43v3.45h-.78V15.36c0-.63-.27-.93-.88-.93a2.29,2.29,0,0,0-1.55.77v3.44h-.79Z"></path><path class="svg-footer-efre-cls-1" d="M138.84,17.92l.47-.47a2,2,0,0,0,1.5.66c.74,0,1.15-.26,1.15-.75s-.42-.67-1.24-.86c-1-.24-1.71-.51-1.71-1.44,0-.72.64-1.3,1.68-1.3a2.49,2.49,0,0,1,1.83.69l-.41.51a2.08,2.08,0,0,0-1.39-.57c-.69,0-1,.31-1,.65s.38.6,1.14.77c1.08.27,1.82.53,1.82,1.52s-.83,1.4-1.91,1.4a2.54,2.54,0,0,1-2-.81"></path><path class="svg-footer-efre-cls-1" d="M143.47,16.25a2.24,2.24,0,0,1,2.17-2.49c1.13,0,2,.79,2,2.53v.16h-3.38c0,1.08.65,1.66,1.44,1.66a1.64,1.64,0,0,0,1.45-.78l.45.4a2.24,2.24,0,0,1-2,1,2.21,2.21,0,0,1-2.17-2.49m3.42-.41c-.06-.85-.47-1.43-1.26-1.43a1.4,1.4,0,0,0-1.36,1.43Z"></path><path class="svg-footer-efre-cls-1" d="M148.75,13.86h.78v.89h0a2,2,0,0,1,1.85-1h.1l-.06.72h-.22a1.83,1.83,0,0,0-1.69,1.08v3.09h-.78Z"></path><path class="svg-footer-efre-cls-1" d="M151.86,16.25A2.24,2.24,0,0,1,154,13.76c1.13,0,2,.79,2,2.53v.16h-3.38c0,1.08.65,1.66,1.44,1.66a1.61,1.61,0,0,0,1.44-.78l.46.4a2.25,2.25,0,0,1-1.95,1,2.21,2.21,0,0,1-2.17-2.49m3.42-.41c-.07-.85-.47-1.43-1.26-1.43s-1.25.44-1.36,1.43Z"></path><polygon class="svg-footer-efre-cls-1" points="158.75 18.08 162.68 12.61 159.01 12.61 159.01 11.94 163.66 11.94 163.66 12.52 159.76 17.98 163.66 17.98 163.66 18.64 158.75 18.64 158.75 18.08"></polygon><path class="svg-footer-efre-cls-1" d="M164.61,17.31V13.86h.78v3.29c0,.63.27.93.88.93a2.27,2.27,0,0,0,1.55-.77V13.86h.79v4.78h-.79v-.71a2.59,2.59,0,0,1-1.79.8,1.28,1.28,0,0,1-1.42-1.42"></path><polygon class="svg-footer-efre-cls-1" points="169.99 11.94 170.77 11.94 170.77 16.25 172.91 13.86 173.8 13.86 172.23 15.57 173.97 18.64 173.14 18.64 171.72 16.15 170.77 17.18 170.77 18.64 169.99 18.64 169.99 11.94"></polygon><path class="svg-footer-efre-cls-1" d="M174.84,17.31V13.86h.78v3.29c0,.63.27.93.88.93a2.27,2.27,0,0,0,1.55-.77V13.86h.79v4.78h-.79v-.71a2.59,2.59,0,0,1-1.79.8,1.28,1.28,0,0,1-1.42-1.42"></path><path class="svg-footer-efre-cls-1" d="M180.22,13.86H181v.71a2.6,2.6,0,0,1,1.79-.81,1.29,1.29,0,0,1,1.42,1.43v3.45h-.78V15.36c0-.63-.27-.93-.88-.93a2.29,2.29,0,0,0-1.55.77v3.44h-.79Z"></path><path class="svg-footer-efre-cls-1" d="M185.92,14.5h-.83v-.64h.83v-.65c0-.8.43-1.29,1.45-1.29l.44,0v.64a1.65,1.65,0,0,0-.34,0c-.43,0-.77.16-.77.67v.64h1.06v.64H186.7v4.14h-.78Z"></path><path class="svg-footer-efre-cls-1" d="M189,17.48v-3h-.84v-.64H189V12.15h.78v1.71H191v.64H189.8v2.81c0,.51.16.76.74.76A2.34,2.34,0,0,0,191,18v.64a4,4,0,0,1-.68.06c-1,0-1.33-.39-1.33-1.23"></path></g></g></svg>
