<svg class="svg-footer-facebook" version="1.1" xmlns="http://www.w3.org/2000/svg" xmlns:xlink="http://www.w3.org/1999/xlink" x="0px" y="0px"
	 viewBox="0 0 239.8 51.8" style="enable-background:new 0 0 239.8 51.8;" xml:space="preserve">
<style type="text/css">
	.svg-footer-facebook-st0{fill:#FFFFFF;stroke:#B3B3B3;stroke-width:0.3;stroke-miterlimit:10;}
	.svg-footer-facebook-st1{fill:#39579B;stroke:#3B5998;stroke-miterlimit:10;}
	.svg-footer-facebook-st2{fill:#FFFFFF;}
	.svg-footer-facebook-st5{enable-background:new    ;}
	.svg-footer-facebook-st6{fill:#1B1B19;}
</style>
<g>
	<g>
		<rect x="0.2" y="0.2" class="svg-footer-facebook-st0" width="239.5" height="51.5"></rect>
		<rect x="60.2" y="1.7" class="svg-footer-facebook-st1" width="177.9" height="48.5"></rect>
		<g class="svg-footer-facebook-st5">
			<path class="svg-footer-facebook-st2" d="M80.3,29.4h-2.8l-0.6,3.5h-2.2l2.8-14h2.9l2.8,14h-2.2L80.3,29.4z M79.9,27.3l-1-6.1l-1.1,6.1H79.9z"></path>
			<path class="svg-footer-facebook-st2" d="M84,28.4v-9.5h2.1v9.4c0,2.1,0.6,2.6,1.6,2.6c0.9,0,1.5-0.5,1.5-2.6v-9.4h2.1v9.5c0,3.3-1.4,4.6-3.6,4.6
				C85.5,33.1,84,31.7,84,28.4z"></path>
			<path class="svg-footer-facebook-st2" d="M93.5,18.9h5.6v2h-3.5v3.9h3.4v2h-3.4v6.1h-2.1V18.9z"></path>
			<path class="svg-footer-facebook-st2" d="M104.9,18.9h5.6v2H107v3.9h3.4v2H107v6.1h-2.1V18.9z"></path>
			<path class="svg-footer-facebook-st2" d="M116.7,29.4h-2.8l-0.6,3.5H111l2.8-14h2.9l2.8,14h-2.2L116.7,29.4z M116.3,27.3l-1-6.1l-1.1,6.1H116.3z"></path>
			<path class="svg-footer-facebook-st2" d="M120.2,25.9c0-4.4,2-7.2,4.9-7.2c0.5,0,1,0.1,1.6,0.3l-0.2,2.1c-0.5-0.2-0.9-0.3-1.2-0.3
				c-1.9,0-2.9,2.1-2.9,5.1c0,3,1,5.1,2.9,5.1c0.4,0,0.8-0.1,1.2-0.3l0.4,2c-0.7,0.3-1.4,0.4-1.9,0.4
				C122.1,33,120.2,30.3,120.2,25.9z"></path>
			<path class="svg-footer-facebook-st2" d="M128.2,18.9h5.4V21h-3.3v3.7h3v2h-3v4.2h3.5v2.1h-5.6V18.9z"></path>
			<path class="svg-footer-facebook-st2" d="M135.5,18.9h2v14h-2V18.9z M142.5,29c0,2.3-1.4,3.9-3.9,3.9h-1.1V31h0.9c1,0,2-0.7,2-2.2
				c0-1.3-0.8-2.1-2-2.1h-0.9v-1.9h0.7c0.8,0,1.7-0.7,1.7-1.9s-0.7-2-1.7-2h-0.7v-1.9h0.8c2.2,0,3.6,1.6,3.6,3.7
				c0,1.3-0.6,2.4-1.3,3C141.9,26.2,142.5,27.5,142.5,29z"></path>
			<path class="svg-footer-facebook-st2" d="M143.5,25.9c0-4.9,1-7.1,3.5-7.1c2.5,0,3.5,2.2,3.5,7.1c0,4.9-1,7.1-3.5,7.1C144.5,33,143.5,30.8,143.5,25.9
				z M148.4,25.9c0-3.4-0.4-5-1.4-5c-0.9,0-1.3,1.6-1.3,5c0,3.4,0.4,5,1.3,5C148,30.9,148.4,29.3,148.4,25.9z"></path>
			<path class="svg-footer-facebook-st2" d="M151.8,25.9c0-4.9,1-7.1,3.5-7.1c2.5,0,3.5,2.2,3.5,7.1c0,4.9-1,7.1-3.5,7.1C152.8,33,151.8,30.8,151.8,25.9
				z M156.6,25.9c0-3.4-0.4-5-1.4-5c-0.9,0-1.3,1.6-1.3,5c0,3.4,0.4,5,1.3,5C156.2,30.9,156.6,29.3,156.6,25.9z"></path>
			<path class="svg-footer-facebook-st2" d="M166.7,33.1l-4.1-6.4v6.2h-2.1v-14h2.1v6.6l3-6.6h2.4l-3.3,7.2l3.7,5.6L166.7,33.1z"></path>
		</g>
		<path class="svg-footer-facebook-st2" d="M203.3,39.2h5.3v-13h4.1l0.7-5.2h-4.8v-3.6c-0.1-0.6,0.1-1.3,0.5-1.8c0.6-0.5,1.3-0.8,2.1-0.7h2.7v-4.6
			c-1.3-0.2-2.7-0.2-4-0.2c-1.8-0.1-3.5,0.6-4.8,1.8c-1.3,1.3-1.9,3.2-1.8,5V21h-4.4v5.2h4.4L203.3,39.2z"></path>
		<path class="svg-footer-facebook-st6" d="M9.3,9.4h4.8v2.4h-2.2v5.3H9.3V9.4z M15.5,13.4v-4H18v3.7c0,1.2,0.6,1.7,1.4,1.7s1.4-0.5,1.4-1.7V9.4h2.5v4
			c0.2,2-1.3,3.7-3.2,3.9c-0.2,0-0.5,0-0.7,0C17,17.3,15.4,16,15.5,13.4 M33,12.9v4.3h-2.5v-3.8c0.1-0.8-0.5-1.5-1.2-1.6
			c-0.1,0-0.2,0-0.3,0c-0.8,0-1.5,0.6-1.5,1.3c0,0.1,0,0.2,0,0.3v3.8H25V6.1h2.5v3.8c0.6-0.4,1.4-0.7,2.1-0.7
			C31.7,9.2,33,10.6,33,12.9 M34.7,9.4h4.8v2.4h-2.3v5.3h-2.5L34.7,9.4z"></path>
		<path class="svg-footer-facebook-st6" d="M17,28.2v1.3h-2.4l-2.8-3v3H9.3V18.4h2.5v5.9l2.7-2.5h2.4V23l-2.7,2.4L17,28.2z M18.5,25.8v-4H21v3.7
			c0,1.2,0.6,1.7,1.4,1.7s1.4-0.5,1.4-1.7v-3.7h2.5v4c0.2,2-1.3,3.7-3.2,3.9c-0.2,0-0.5,0-0.7,0C20,29.7,18.5,28.3,18.5,25.8
			 M28,18.4h2.5v11.1H28V18.4z M32.1,19.7h2.5v2.1h2.6v2.5h-2.6v2.8h2.6v2.5h-5.1L32.1,19.7z M38.7,25.8v-4h2.5v3.7
			c0,1.2,0.6,1.7,1.4,1.7s1.3-0.5,1.3-1.7v-3.7h2.5v4c0.2,2-1.3,3.7-3.2,3.9c-0.2,0-0.5,0-0.7,0c-2,0.2-3.7-1.2-3.9-3.2
			C38.6,26.3,38.6,26,38.7,25.8 M48.1,21.8h4.8v2.5h-2.2v5.3h-2.5L48.1,21.8z"></path>
		<path class="svg-footer-facebook-st6" d="M4.5,40.4c0-0.8,0.6-1.5,1.5-1.6c0,0,0.1,0,0.1,0c0.9,0,1.6,0.7,1.6,1.5c0,0,0,0,0,0C7.7,41.3,7,42,6.2,42
			c0,0,0,0-0.1,0C5.2,42,4.6,41.3,4.5,40.4C4.5,40.5,4.5,40.4,4.5,40.4 M9.1,32c0-0.8,0.7-1.5,1.5-1.4c0.8,0,1.5,0.7,1.4,1.5
			c0,0.8-0.7,1.4-1.5,1.4c-0.8,0-1.4-0.6-1.5-1.4C9.1,32.1,9.1,32,9.1,32 M9.3,34.1h2.6v10.7H9.3V34.1z M21.4,38.8h-5.7
			c0.4,0.8,1.2,1.2,2.1,1.1c0.8,0,1.5-0.2,2.2-0.5l0.8,1.8c-1,0.5-2,0.8-3.1,0.8c-2.4,0-4.4-1.4-4.4-4c-0.1-2.1,1.5-3.9,3.6-4.1
			c0.2,0,0.3,0,0.5,0C20.2,34,21.7,36,21.4,38.8 M15.6,37H19c-0.3-0.7-1-1.1-1.7-1C16.6,35.9,15.9,36.3,15.6,37 M22.7,32h2.5v2.1
			h2.6v2.5h-2.6v2.8h2.6v2.4h-5.1V32z M29.2,40.1l3.6-3.7h-3.5v-2.3h7v1.7l-3.5,3.7h3.5v2.3h-7.1V40.1z M37.8,32h2.5v2.1h2.6v2.5
			h-2.6v2.8h2.6v2.4h-5.1V32z"></path>
	</g>
</g>
</svg>
