<svg version="1.1" class="svg-footer-instagram" xmlns="http://www.w3.org/2000/svg" xmlns:xlink="http://www.w3.org/1999/xlink" x="0px" y="0px"
	 viewBox="0 0 239.8 51.8" style="enable-background:new 0 0 239.8 51.8;" xml:space="preserve">
<style type="text/css">
	.svg-footer-instagram-st0{fill:#FFFFFF;stroke:#B3B3B3;stroke-width:0.3;stroke-miterlimit:10;}
	.svg-footer-instagram-st1{fill:#D62976;stroke:#D62976;stroke-miterlimit:10;}
	.svg-footer-instagram-st2{fill:#FFFFFF;}
	.svg-footer-instagram-st5{enable-background:new    ;}
	.svg-footer-instagram-st6{fill:#1B1B19;}
</style>
<g>
	<g>
		<rect x="0.2" y="0.1" class="svg-footer-instagram-st0" width="239.5" height="51.5"></rect>
		<rect x="60.2" y="1.6" class="svg-footer-instagram-st1" width="177.9" height="48.5"></rect>
		<g class="svg-footer-instagram-st5">
			<path class="svg-footer-instagram-st2" d="M80.3,29.4h-2.8l-0.6,3.5h-2.2l2.8-14h2.9l2.8,14h-2.2L80.3,29.4z M79.9,27.3l-1-6.1l-1.1,6.1H79.9z"></path>
			<path class="svg-footer-instagram-st2" d="M84,28.4v-9.5h2.1v9.4c0,2.1,0.6,2.6,1.6,2.6c0.9,0,1.5-0.5,1.5-2.6v-9.4h2.1v9.5c0,3.3-1.4,4.6-3.6,4.6
				C85.5,33.1,84,31.7,84,28.4z"></path>
			<path class="svg-footer-instagram-st2" d="M93.5,18.9h5.6v2h-3.5v3.9h3.4v2h-3.4v6.1h-2.1V18.9z"></path>
			<path class="svg-footer-instagram-st2" d="M105,18.9h2.1v14H105V18.9z"></path>
			<path class="svg-footer-instagram-st2" d="M116.7,18.9v14H115l-3.5-9.2v9.2h-2.2v-14h1.6l3.6,9.2v-9.2H116.7z"></path>
			<path class="svg-footer-instagram-st2" d="M117.9,31.6l0.9-1.9c0.8,0.7,1.6,1.1,2.1,1.1c0.8,0,1.5-0.6,1.5-1.7c0-1-0.5-1.7-1.5-2.4
				c-1.2-1-2.7-1.9-2.7-4.4c0-2.5,1.5-3.6,3.1-3.6c1,0,2.2,0.4,2.9,1.2l-0.9,1.6c-0.7-0.5-1.3-0.7-1.6-0.7c-1,0-1.5,0.8-1.5,1.7
				c0,1.1,0.6,1.6,1.9,2.4c1,0.9,2.4,1.9,2.4,4.3c0,2.3-1.3,3.8-3.4,3.8C120.1,33.1,118.8,32.5,117.9,31.6z"></path>
			<path class="svg-footer-instagram-st2" d="M127.1,20.9h-2.4v-2h6.8v2h-2.4v12h-2.1V20.9z"></path>
			<path class="svg-footer-instagram-st2" d="M136.9,29.4h-2.8l-0.6,3.5h-2.2l2.8-14h2.9l2.8,14h-2.2L136.9,29.4z M136.6,27.3l-1-6.1l-1.1,6.1H136.6z"></path>
			<path class="svg-footer-instagram-st2" d="M144,24.6h3.3v8.3c-0.6,0.1-1.7,0.2-2.4,0.2c-3,0-4.4-2.3-4.4-6.9c0-5.1,1.8-7.3,4.6-7.3
				c0.7,0,1.5,0.1,2.3,0.5l-0.6,1.9c-0.7-0.3-1.1-0.3-1.4-0.3c-2,0-2.7,1.3-2.7,5c0,3.4,0.6,5.1,2.2,5.1c0.2,0,0.5,0,0.7,0.1v-4.4
				H144V24.6z"></path>
			<path class="svg-footer-instagram-st2" d="M155.2,33.2l-3.4-5.6h-0.2v5.3h-2.1v-14h1.8c3.5,0,4.7,1.9,4.7,4.4c0,1.8-0.7,3.3-2.1,3.9l2.9,4.8
				L155.2,33.2z M151.5,25.6h0.4c1.4,0,2-0.9,2-2.3c0-1.4-0.6-2.4-2-2.4h-0.4V25.6z"></path>
			<path class="svg-footer-instagram-st2" d="M162.3,29.4h-2.8l-0.6,3.5h-2.2l2.8-14h2.9l2.8,14h-2.2L162.3,29.4z M161.9,27.3l-1-6.1l-1.1,6.1H161.9z"></path>
			<path class="svg-footer-instagram-st2" d="M166.1,18.9h1.7l2.5,6.2l2.4-6.2h1.7v14h-2.1v-9.8l-2,5.7l-2.2-5.7v9.8h-2.1V18.9z"></path>
		</g>
		<path class="svg-footer-instagram-st6" d="M9.3,9.4h4.8v2.4h-2.2v5.3H9.3V9.4z M15.5,13.4v-4H18v3.7c0,1.2,0.6,1.7,1.4,1.7s1.4-0.5,1.4-1.7V9.4h2.5v4
			c0.2,2-1.3,3.7-3.2,3.9c-0.2,0-0.5,0-0.7,0C17,17.3,15.4,16,15.5,13.4 M33,12.9v4.3h-2.5v-3.8c0.1-0.8-0.5-1.5-1.2-1.6
			c-0.1,0-0.2,0-0.3,0c-0.8,0-1.5,0.6-1.5,1.3c0,0.1,0,0.2,0,0.3v3.8H25V6.1h2.5v3.8c0.6-0.4,1.4-0.7,2.1-0.7
			C31.7,9.2,33,10.6,33,12.9 M34.7,9.4h4.8v2.4h-2.3v5.3h-2.5L34.7,9.4z"></path>
		<path class="svg-footer-instagram-st6" d="M17,28.2v1.3h-2.4l-2.8-3v3H9.3V18.4h2.5v5.9l2.7-2.5h2.4V23l-2.7,2.4L17,28.2z M18.5,25.8v-4H21v3.7
			c0,1.2,0.6,1.7,1.4,1.7s1.4-0.5,1.4-1.7v-3.7h2.5v4c0.2,2-1.3,3.7-3.2,3.9c-0.2,0-0.5,0-0.7,0C20,29.7,18.5,28.3,18.5,25.8
			 M28,18.4h2.5v11.1H28V18.4z M32.1,19.7h2.5v2.1h2.6v2.5h-2.6v2.8h2.6v2.5h-5.1L32.1,19.7z M38.7,25.8v-4h2.5v3.7
			c0,1.2,0.6,1.7,1.4,1.7s1.3-0.5,1.3-1.7v-3.7h2.5v4c0.2,2-1.3,3.7-3.2,3.9c-0.2,0-0.5,0-0.7,0c-2,0.2-3.7-1.2-3.9-3.2
			C38.6,26.3,38.6,26,38.7,25.8 M48.1,21.8h4.8v2.5h-2.2v5.3h-2.5L48.1,21.8z"></path>
		<path class="svg-footer-instagram-st6" d="M4.5,40.4c0-0.8,0.6-1.5,1.5-1.6c0,0,0.1,0,0.1,0c0.9,0,1.6,0.7,1.6,1.5c0,0,0,0,0,0C7.7,41.3,7,42,6.2,42
			c0,0,0,0-0.1,0C5.2,42,4.6,41.3,4.5,40.4C4.5,40.5,4.5,40.4,4.5,40.4 M9.1,32c0-0.8,0.7-1.5,1.5-1.4c0.8,0,1.5,0.7,1.4,1.5
			c0,0.8-0.7,1.4-1.5,1.4c-0.8,0-1.4-0.6-1.5-1.4C9.1,32.1,9.1,32,9.1,32 M9.3,34.1h2.6v10.7H9.3V34.1z M21.4,38.8h-5.7
			c0.4,0.8,1.2,1.2,2.1,1.1c0.8,0,1.5-0.2,2.2-0.5l0.8,1.8c-1,0.5-2,0.8-3.1,0.8c-2.4,0-4.4-1.4-4.4-4c-0.1-2.1,1.5-3.9,3.6-4.1
			c0.2,0,0.3,0,0.5,0C20.2,34,21.7,36,21.4,38.8 M15.6,37H19c-0.3-0.7-1-1.1-1.7-1C16.6,35.9,15.9,36.3,15.6,37 M22.7,32h2.5v2.1
			h2.6v2.5h-2.6v2.8h2.6v2.4h-5.1V32z M29.2,40.1l3.6-3.7h-3.5v-2.3h7v1.7l-3.5,3.7h3.5v2.3h-7.1V40.1z M37.8,32h2.5v2.1h2.6v2.5
			h-2.6v2.8h2.6v2.4h-5.1V32z"></path>
		<path class="svg-footer-instagram-st2" d="M222.2,36.2c0.4-1.4,0.6-2.8,0.6-4.2c0.1-1.1,0.1-2.8,0.1-4.8v-2.5c0-2.1,0-3.8-0.1-4.8
			c0-1.4-0.2-2.8-0.6-4.2c-0.6-1.6-1.8-2.8-3.4-3.4c-1.4-0.4-2.8-0.6-4.2-0.6c-1.1,0-2.8-0.1-4.8-0.1h-2.5c-2.1,0-3.7,0-4.8,0.1
			c-1.4,0-2.8,0.2-4.2,0.6c-1.6,0.6-2.8,1.8-3.4,3.4c-0.4,1.4-0.6,2.8-0.6,4.2c-0.1,1.1-0.1,2.8-0.1,4.8v2.5c0,2.1,0,3.7,0.1,4.8
			c0,1.4,0.2,2.8,0.6,4.2c0.6,1.5,1.8,2.8,3.4,3.4c1.4,0.4,2.8,0.6,4.2,0.6c1.1,0,2.8,0.1,4.8,0.1h2.5c2.1,0,3.8,0,4.8-0.1
			c1.4,0,2.8-0.2,4.2-0.6C220.4,39,221.6,37.8,222.2,36.2 M226,18.6c0.1,1.5,0.1,3.9,0.1,7.3s0,5.8-0.1,7.3c0,1.3-0.3,2.6-0.7,3.9
			c-0.9,2.6-3,4.6-5.6,5.5c-1.3,0.4-2.6,0.6-3.9,0.7c-1.5,0.1-3.9,0.1-7.3,0.1s-5.8,0-7.3-0.1c-1.3,0-2.6-0.3-3.9-0.7
			c-1.3-0.4-2.4-1.1-3.4-2.1c-1-1-1.7-2.1-2.1-3.4c-0.4-1.3-0.6-2.6-0.7-3.9c-0.1-1.5-0.1-3.9-0.1-7.3s0-5.8,0.1-7.3
			c0-1.3,0.3-2.6,0.7-3.9c0.9-2.6,3-4.6,5.6-5.6c1.3-0.4,2.6-0.6,3.9-0.7c1.5-0.1,3.9-0.1,7.3-0.1s5.8,0,7.3,0.1
			c1.3,0,2.6,0.3,3.9,0.7c2.6,0.9,4.6,3,5.6,5.6C225.7,16,226,17.3,226,18.6 M220.1,16.5c0-1.2-1-2.1-2.1-2.1c-1.2,0-2.1,1-2.1,2.1
			c0,1.2,0.9,2.1,2.1,2.1c0.5,0,1-0.2,1.4-0.6C219.8,17.6,220,17.1,220.1,16.5 M208.6,31.8c3.2,0,5.9-2.6,5.9-5.9
			c0-3.2-2.6-5.9-5.9-5.9c-3.2,0-5.9,2.6-5.9,5.9c0,1.6,0.6,3.1,1.7,4.2C205.5,31.2,207,31.8,208.6,31.8 M208.6,16.9
			c1.6,0,3.1,0.4,4.5,1.2c1.4,0.8,2.5,1.9,3.3,3.3c1.6,2.8,1.6,6.2,0,9c-0.8,1.4-1.9,2.5-3.3,3.3c-2.8,1.6-6.2,1.6-9,0
			c-1.4-0.8-2.5-1.9-3.3-3.3c-1.6-2.8-1.6-6.2,0-9c0.8-1.4,1.9-2.5,3.3-3.3C205.4,17.3,207,16.9,208.6,16.9"></path>
	</g>
</g>
</svg>
