<svg class="svg-footer-ruhr_tourismus" xmlns="http://www.w3.org/2000/svg" viewBox="0 0 162.69 16.17"><defs><style>.svg-footer-ruhr_tourismus-cls-1{fill:#6091ca;}.svg-footer-ruhr_tourismus-cls-2{fill:#181715;}</style></defs><g><g><path class="svg-footer-ruhr_tourismus-cls-1" d="M80.9,7.13H77.59v-1h7.75v1H82V16H80.9Z"></path><path class="svg-footer-ruhr_tourismus-cls-1" d="M86.31,11.07v0a5,5,0,1,1,10.06,0v0a5,5,0,1,1-10.06,0Zm8.91,0v0A3.93,3.93,0,0,0,91.33,7,3.88,3.88,0,0,0,87.47,11v0a3.92,3.92,0,0,0,3.88,4.07A3.88,3.88,0,0,0,95.22,11.07Z"></path><path class="svg-footer-ruhr_tourismus-cls-1" d="M98.57,11.84V6.11h1.11v5.66c0,2.13,1.14,3.33,3,3.33s3-1.1,3-3.26V6.11h1.11v5.65c0,2.87-1.64,4.36-4.11,4.36S98.57,14.63,98.57,11.84Z"></path><path class="svg-footer-ruhr_tourismus-cls-1" d="M109.42,6.11h4.24a3.88,3.88,0,0,1,2.8,1A2.73,2.73,0,0,1,117.22,9v0a2.88,2.88,0,0,1-2.67,2.88l4,4h-1.4l-3.83-3.83h-2.82V16h-1.11Zm4.14,5c1.48,0,2.54-.76,2.54-2v0c0-1.21-.93-1.95-2.53-1.95h-3v4Z"></path><path class="svg-footer-ruhr_tourismus-cls-1" d="M119.92,6.11H121V16h-1.11Z"></path><path class="svg-footer-ruhr_tourismus-cls-1" d="M123.27,14.53l.69-.81a4.7,4.7,0,0,0,3.38,1.39c1.33,0,2.2-.7,2.2-1.68v0c0-.91-.49-1.43-2.56-1.87-2.27-.49-3.32-1.23-3.32-2.85v0c0-1.55,1.37-2.7,3.25-2.7a5.11,5.11,0,0,1,3.46,1.22l-.65.86A4.31,4.31,0,0,0,126.88,7c-1.28,0-2.1.71-2.1,1.6v0c0,.93.51,1.45,2.68,1.91s3.21,1.28,3.21,2.79v0c0,1.69-1.41,2.79-3.37,2.79A5.76,5.76,0,0,1,123.27,14.53Z"></path><path class="svg-footer-ruhr_tourismus-cls-1" d="M132.94,6.11h1.12l3.6,5.38,3.59-5.38h1.13V16h-1.12V8l-3.59,5.28h-.06L134,8v8h-1.08Z"></path><path class="svg-footer-ruhr_tourismus-cls-1" d="M145,11.84V6.11h1.11v5.66c0,2.13,1.15,3.33,3,3.33s3-1.1,3-3.26V6.11h1.12v5.65c0,2.87-1.65,4.36-4.12,4.36S145,14.63,145,11.84Z"></path><path class="svg-footer-ruhr_tourismus-cls-1" d="M155.3,14.53l.69-.81a4.69,4.69,0,0,0,3.38,1.39c1.32,0,2.2-.7,2.2-1.68v0c0-.91-.5-1.43-2.57-1.87-2.27-.49-3.31-1.23-3.31-2.85v0c0-1.55,1.37-2.7,3.24-2.7a5.12,5.12,0,0,1,3.47,1.22l-.65.86A4.33,4.33,0,0,0,158.9,7c-1.28,0-2.1.71-2.1,1.6v0c0,.93.51,1.45,2.68,1.91s3.21,1.28,3.21,2.79v0c0,1.69-1.4,2.79-3.36,2.79A5.74,5.74,0,0,1,155.3,14.53Z"></path><path class="svg-footer-ruhr_tourismus-cls-2" d="M9.28,9.6v0a3.13,3.13,0,0,0-.9-2.34A4.84,4.84,0,0,0,4.82,6.1H0V16H3.3V13.16h.63L6.76,16h3.93L7.33,12.62A3.2,3.2,0,0,0,9.28,9.6ZM6,9.84c0,.61-.48,1-1.27,1H3.3V8.87H4.74c.76,0,1.25.31,1.25.94Z"></path><path class="svg-footer-ruhr_tourismus-cls-2" d="M17.83,11.58c0,1.19-.64,1.67-1.53,1.67s-1.52-.52-1.52-1.74V6.1H11.42v5.45c0,3.27,1.91,4.62,4.86,4.62s4.9-1.32,4.9-4.69V6.1H17.83Z"></path><polygon class="svg-footer-ruhr_tourismus-cls-2" points="29.85 9.59 26.84 9.59 26.84 6.11 23.54 6.11 23.54 15.98 26.84 15.98 26.84 12.44 29.85 12.44 29.85 15.98 33.15 15.98 33.15 6.11 29.85 6.11 29.85 9.59"></polygon><path class="svg-footer-ruhr_tourismus-cls-2" d="M44.78,9.6v0a3.13,3.13,0,0,0-.9-2.34A4.82,4.82,0,0,0,40.32,6.1H35.5V16h3.3V13.16h.64L42.26,16h3.93l-3.36-3.36A3.2,3.2,0,0,0,44.78,9.6Zm-3.29.24c0,.61-.48,1-1.27,1H38.8V8.87h1.44c.76,0,1.25.31,1.25.94Z"></path><polygon class="svg-footer-ruhr_tourismus-cls-2" points="2.06 1.55 0.59 0.07 0 0.07 0 4.37 0.61 4.37 0.61 1.01 2.03 2.42 2.05 2.44 3.49 1 3.49 4.37 4.12 4.37 4.12 0.07 3.53 0.07 2.06 1.55"></polygon><polygon class="svg-footer-ruhr_tourismus-cls-2" points="6.17 2.5 8.43 2.5 8.43 1.91 6.17 1.91 6.17 0.66 8.7 0.66 8.7 0.07 5.55 0.07 5.55 4.37 8.73 4.37 8.73 3.79 6.17 3.79 6.17 2.5"></polygon><polygon class="svg-footer-ruhr_tourismus-cls-2" points="10.13 0.66 11.52 0.66 11.52 4.37 12.15 4.37 12.15 0.66 13.54 0.66 13.54 0.07 10.13 0.07 10.13 0.66"></polygon><path class="svg-footer-ruhr_tourismus-cls-2" d="M18.42,1.39h0a1.18,1.18,0,0,0-.35-.87A1.72,1.72,0,0,0,16.84.07H15v4.3h.63V2.76h1.07l1.61,1.61h.81L17.37,2.65A1.26,1.26,0,0,0,18.42,1.39ZM15.61.66h1.2c.61,0,1,.28,1,.74h0c0,.47-.38.77-1,.77H15.61Z"></path><path class="svg-footer-ruhr_tourismus-cls-2" d="M22,0a2.18,2.18,0,0,0-2.19,2.22h0A2.14,2.14,0,0,0,22,4.44a2.19,2.19,0,0,0,2.2-2.22h0A2.15,2.15,0,0,0,22,0Zm0,3.85a1.57,1.57,0,0,1-1.55-1.63h0A1.55,1.55,0,0,1,22,.59a1.58,1.58,0,0,1,1.55,1.63h0A1.54,1.54,0,0,1,22,3.85Z"></path><path class="svg-footer-ruhr_tourismus-cls-2" d="M27.17.07H25.54v4.3h.63V2.91h.92c.85,0,1.71-.44,1.71-1.43v0C28.8.62,28.16.07,27.17.07Zm-1,.59h1c.66,0,1,.3,1,.82h0c0,.5-.42.83-1.05.83h-.94Z"></path><path class="svg-footer-ruhr_tourismus-cls-2" d="M32.14,0a2.19,2.19,0,0,0-2.2,2.22h0a2.15,2.15,0,0,0,2.18,2.21,2.18,2.18,0,0,0,2.2-2.22h0A2.15,2.15,0,0,0,32.14,0Zm0,3.85a1.57,1.57,0,0,1-1.55-1.63h0A1.55,1.55,0,0,1,32.12.59a1.58,1.58,0,0,1,1.56,1.63h0A1.55,1.55,0,0,1,32.14,3.85Z"></path><polygon class="svg-footer-ruhr_tourismus-cls-2" points="36.2 0.07 35.58 0.07 35.58 4.37 38.53 4.37 38.53 3.78 36.2 3.78 36.2 0.07"></polygon><polygon class="svg-footer-ruhr_tourismus-cls-2" points="40.51 3.79 40.51 2.5 42.76 2.5 42.76 1.91 40.51 1.91 40.51 0.66 43.03 0.66 43.03 0.07 39.88 0.07 39.88 4.37 43.06 4.37 43.06 3.79 40.51 3.79"></polygon><polygon class="svg-footer-ruhr_tourismus-cls-1" points="74.22 5.46 71.53 2.77 69.24 2.77 68.9 2.77 66.95 2.77 64.26 0.08 58.65 0.08 61.34 2.77 57.8 2.77 55.11 0.08 47.2 0.08 49.9 2.78 49.9 6.32 49.9 7.36 49.9 8.61 49.9 9.33 49.9 9.65 53.53 13.27 53.96 13.27 54.57 13.27 55.82 13.27 56.85 13.27 60.39 13.27 63.09 15.97 68.71 15.97 68.71 15.97 68.71 14.75 68.71 11.07 74.22 11.07 74.22 5.46"></polygon></g></g></svg>
