<svg class="svg-footer-rvr" xmlns="http://www.w3.org/2000/svg" viewBox="0 0 84.45 21.4"><g><g><path d="M11.41,13.32v0a3.82,3.82,0,0,0-1.11-2.87A5.91,5.91,0,0,0,5.93,9H0V21.15H4.06V17.69h.78L8.3,21.15h4.84L9,17a3.92,3.92,0,0,0,2.4-3.71m-4,.29c0,.75-.59,1.18-1.56,1.18H4.06V12.42H5.82c.94,0,1.55.38,1.55,1.16Z"></path><path d="M20.33,15.75c0,1.47-.78,2.06-1.87,2.06s-1.87-.64-1.87-2.15V9H12.46v6.69c0,4,2.34,5.69,6,5.69s6-1.63,6-5.78V9H20.33Z"></path><polygon points="33.53 13.3 29.82 13.3 29.82 9.02 25.77 9.02 25.77 21.15 29.82 21.15 29.82 16.8 33.53 16.8 33.53 21.15 37.59 21.15 37.59 9.02 33.53 9.02 33.53 13.3"></polygon><path d="M50.3,13.32v0a3.82,3.82,0,0,0-1.11-2.87A5.91,5.91,0,0,0,44.82,9H38.89V21.15H43V17.69h.78l3.46,3.46H52L47.9,17a3.92,3.92,0,0,0,2.4-3.71m-4,.29c0,.75-.59,1.18-1.56,1.18H43V12.42h1.77c.93,0,1.54.38,1.54,1.16Z"></path><polygon points="3.5 3.98 5.85 3.98 5.85 4.31 3.87 4.31 3.87 5.42 5.64 5.42 5.64 5.75 3.87 5.75 3.87 6.89 5.87 6.89 5.87 7.23 3.5 7.23 3.5 3.98"></polygon><path d="M6.61,5.61h0A1.63,1.63,0,0,1,8.24,3.92a1.73,1.73,0,0,1,1.21.43l-.24.28a1.38,1.38,0,0,0-1-.37A1.27,1.27,0,0,0,7,5.59H7A1.25,1.25,0,0,0,8.27,7a1.52,1.52,0,0,0,.94-.32V5.82h-1V5.49H9.57v1.3a2,2,0,0,1-1.31.49A1.59,1.59,0,0,1,6.61,5.61"></path><rect x="10.57" y="3.98" width="0.37" height="3.25"></rect><path d="M11.83,5.61h0a1.66,1.66,0,1,1,3.31,0h0a1.64,1.64,0,0,1-1.66,1.68,1.62,1.62,0,0,1-1.65-1.67m2.93,0h0a1.29,1.29,0,0,0-1.28-1.34,1.27,1.27,0,0,0-1.27,1.33h0a1.29,1.29,0,0,0,1.28,1.34,1.27,1.27,0,0,0,1.27-1.33"></path><polygon points="15.95 3.98 16.3 3.98 18.34 6.58 18.34 3.98 18.7 3.98 18.7 7.23 18.41 7.23 16.31 4.56 16.31 7.23 15.95 7.23 15.95 3.98"></polygon><path d="M20.86,4h.34l1.49,3.28h-.4l-.38-.86H20.14l-.39.86h-.37ZM21.77,6,21,4.38,20.28,6Z"></path><polygon points="23.36 3.98 23.73 3.98 23.73 6.89 25.56 6.89 25.56 7.23 23.36 7.23 23.36 3.98"></polygon><polygon points="25.56 3.98 25.97 3.98 27.13 6.78 28.29 3.98 28.68 3.98 27.29 7.25 26.96 7.25 25.56 3.98"></polygon><polygon points="29.41 3.98 31.76 3.98 31.76 4.31 29.78 4.31 29.78 5.42 31.55 5.42 31.55 5.75 29.78 5.75 29.78 6.89 31.79 6.89 31.79 7.23 29.41 7.23 29.41 3.98"></polygon><path d="M36.32,4h1.39a1.21,1.21,0,0,1,.85.28.73.73,0,0,1,.2.52h0a.8.8,0,0,1-.51.76c.38.11.7.33.7.78h0c0,.56-.47.89-1.18.89H36.32Zm2.07.85c0-.32-.25-.52-.72-.52h-1V5.42h1c.44,0,.74-.2.74-.58Zm-.68.92h-1V6.9h1.1c.49,0,.79-.22.79-.58h0c0-.36-.29-.56-.86-.56"></path><path d="M40.75,4h.35l1.48,3.28h-.4l-.38-.86H40l-.38.86h-.38ZM41.66,6l-.74-1.65L40.18,6Z"></path><polygon points="43.2 3.98 43.54 3.98 45.59 6.58 45.59 3.98 45.95 3.98 45.95 7.23 45.66 7.23 43.56 4.56 43.56 7.23 43.2 7.23 43.2 3.98"></polygon><path d="M46.85,4H48a1.62,1.62,0,0,1,1.73,1.61h0A1.63,1.63,0,0,1,48,7.23H46.85Zm.37.33V6.89H48a1.26,1.26,0,0,0,1.35-1.28h0A1.27,1.27,0,0,0,48,4.31Z"></path><path d="M.37,6h.92L2.56,7.23H3L1.69,5.9a1,1,0,0,0,.88-1h0a.9.9,0,0,0-.25-.64A1.28,1.28,0,0,0,1.4,4H0V7.23H.37Zm0-1.65h1c.52,0,.83.25.83.65h0c0,.42-.35.67-.84.67h-1Z"></path><path d="M33.14,6h.92l1.27,1.27h.46L34.46,5.9a1,1,0,0,0,.88-1h0a.9.9,0,0,0-.25-.64A1.28,1.28,0,0,0,34.17,4h-1.4V7.23h.37Zm0-1.65h1c.52,0,.83.25.83.65h0c0,.42-.35.67-.84.67h-1Z"></path><polygon points="48.49 0 69.64 21.15 71.03 21.15 49.87 0 48.49 0"></polygon><polygon points="64.38 17.56 63 17.56 52.09 6.64 52.09 5.26 64.38 17.56"></polygon><polygon points="61.34 17.56 59.95 17.56 52.09 9.69 52.09 8.31 61.34 17.56"></polygon><polygon points="58.29 17.56 56.91 17.56 52.09 12.74 52.09 11.35 58.29 17.56"></polygon><polygon points="51.53 0 72.69 21.15 74.07 21.15 52.92 0 51.53 0"></polygon><polygon points="54.58 0 75.73 21.15 77.12 21.15 55.97 0 54.58 0"></polygon><polygon points="77.12 18.11 77.12 19.49 57.63 0 59.01 0 77.12 18.11"></polygon><polygon points="77.12 15.06 77.12 16.45 64.26 3.58 65.64 3.58 77.12 15.06"></polygon><polygon points="79.74 14.64 78.35 14.64 63.72 0 65.1 0 79.74 14.64"></polygon><polygon points="82.78 14.64 81.4 14.64 66.76 0 68.15 0 82.78 14.64"></polygon><polygon points="84.45 13.26 84.45 14.64 69.81 0 71.2 0 84.45 13.26"></polygon><polygon points="84.45 10.21 84.45 11.6 76.44 3.58 77.82 3.58 84.45 10.21"></polygon><polygon points="84.45 7.16 84.45 8.55 79.48 3.58 80.87 3.58 84.45 7.16"></polygon></g></g></svg>
