<svg class="svg-footer-ukr" xmlns="http://www.w3.org/2000/svg" viewBox="0 0 36.35 27.26"><defs><style>.svg-footer-ukr-cls-1{fill:#fff;}</style></defs><g><g><rect width="36.35" height="27.26"></rect><path class="svg-footer-ukr-cls-1" d="M10.61,16l-.38-2-.08.24V16h-1v-4.8h1v.56c0,.48,0,.85,0,1.23.09-.38.22-.89.32-1.23l.17-.56h1L11,13l.62,3Z"></path><path class="svg-footer-ukr-cls-1" d="M17.57,16l-.34-1.1c-.17-.54-.35-1.18-.42-1.51,0,.33,0,.92,0,1.43V16H16v-4.8h.83l.24.71c.18.54.38,1.23.46,1.56,0-.31,0-1,0-1.5v-.77h.87V16Z"></path><path class="svg-footer-ukr-cls-1" d="M20.28,16.11c-.81,0-1.07-.55-1.14-1.37l.91-.17c.05.64.1.76.23.76s.2-.1.2-.42a1.13,1.13,0,0,0-.51-1,1.73,1.73,0,0,1-.79-1.47c0-.77.36-1.29,1.07-1.29s1,.45,1.12,1.25l-.89.17c0-.56-.1-.64-.23-.64s-.18.1-.18.39.1.49.47.82a1.89,1.89,0,0,1,.86,1.69c0,.78-.4,1.28-1.12,1.28"></path><polygon class="svg-footer-ukr-cls-1" points="23.61 12.08 23.61 16.03 22.64 16.03 22.64 12.08 22.04 12.08 22.04 11.23 24.21 11.23 24.21 12.08 23.61 12.08"></polygon><polygon class="svg-footer-ukr-cls-1" points="25.16 16.03 25.16 11.23 27.11 11.23 27.11 12.08 26.13 12.08 26.13 13.07 26.88 13.07 26.88 13.93 26.13 13.93 26.13 15.18 27.15 15.18 27.15 16.03 25.16 16.03"></polygon><path class="svg-footer-ukr-cls-1" d="M13.76,16.11c-.78,0-1.17-.5-1.17-1.34V12.63h1v2.21c0,.34.07.45.23.45s.21-.11.21-.45V12.63h1v2.09c0,.9-.36,1.39-1.19,1.39"></path><rect class="svg-footer-ukr-cls-1" x="12.59" y="11.23" width="2.36" height="0.96"></rect><path class="svg-footer-ukr-cls-1" d="M13.49,21.79l-.34-2.05h-.08v2.05h-.94V17H13.3c.6,0,1.11.36,1.11,1.36a1.43,1.43,0,0,1-.4,1.12l.44,2.32Zm-.33-4.06h-.09V19h.08c.23,0,.29-.19.29-.65s-.06-.65-.28-.65"></path><path class="svg-footer-ukr-cls-1" d="M16.48,21.87c-.78,0-1.17-.5-1.17-1.34V17h1V20.6c0,.34.07.45.23.45s.21-.11.21-.45V17h1v3.49c0,.9-.36,1.39-1.19,1.39"></path><polygon class="svg-footer-ukr-cls-1" points="20.01 21.79 20.01 19.67 19.57 19.67 19.57 21.79 18.61 21.79 18.61 16.99 19.57 16.99 19.57 18.82 20.01 18.82 20.01 16.99 20.97 16.99 20.97 21.79 20.01 21.79"></polygon><path class="svg-footer-ukr-cls-1" d="M23.37,21.79,23,19.74H23v2.05H22V17h1.17c.6,0,1.1.36,1.1,1.36a1.43,1.43,0,0,1-.39,1.12l.44,2.32Zm-.32-4.06H23V19H23c.23,0,.29-.19.29-.65s-.06-.65-.28-.65"></path><path class="svg-footer-ukr-cls-1" d="M10.36,10.35c-.78,0-1.17-.5-1.17-1.34V5.47h1V9.08c0,.33.07.45.23.45s.21-.12.21-.45V5.47h1V9c0,.9-.36,1.39-1.19,1.39"></path><path class="svg-footer-ukr-cls-1" d="M13.89,10.27l-.34-2h-.08v2h-.94V5.47h1.18c.6,0,1.1.36,1.1,1.36A1.41,1.41,0,0,1,14.41,8l.44,2.32Zm-.32-4.06h-.1v1.3h.08c.23,0,.3-.19.3-.65s-.06-.65-.28-.65"></path><path class="svg-footer-ukr-cls-1" d="M16.77,10.27H15.7V5.47h1.11c.7,0,1.11.4,1.11,1.28a1,1,0,0,1-.54,1A1.07,1.07,0,0,1,18,8.86c0,.89-.37,1.41-1.19,1.41M16.7,6.2h-.08V7.41h.1c.19,0,.27-.18.27-.62s-.07-.59-.29-.59m0,2h-.08V9.54h.11c.21,0,.28-.17.28-.66s-.07-.73-.31-.73"></path><path class="svg-footer-ukr-cls-1" d="M20.15,10.27l-.1-.93H19.6l-.09.93h-.93l.74-4.8h1l.74,4.8ZM20,8.21c0-.44-.1-1.12-.14-1.66,0,.54-.09,1.22-.13,1.66l0,.31H20Z"></path><path class="svg-footer-ukr-cls-1" d="M23.46,10.27l-.35-1.1C23,8.62,22.77,8,22.7,7.66c0,.33,0,.92,0,1.43v1.18h-.88V5.47h.83l.23.7c.18.55.39,1.24.46,1.57,0-.32,0-1,0-1.5V5.47h.88v4.8Z"></path><polygon class="svg-footer-ukr-cls-1" points="25.16 10.27 25.16 5.47 27.11 5.47 27.11 6.32 26.12 6.32 26.12 7.31 26.88 7.31 26.88 8.16 26.12 8.16 26.12 9.42 27.15 9.42 27.15 10.27 25.16 10.27"></polygon></g></g></svg>
