<?xml  version="1.0" encoding="UTF-8"?>
<!DOCTYPE svg PUBLIC "-//W3C//DTD SVG 1.0//EN" "http://www.w3.org/TR/2001/REC-SVG-20010904/DTD/svg10.dtd" >
<svg xmlns="http://www.w3.org/2000/svg" >
<metadata>
<version>1.0</version>
<id><![CDATA[Calluna Sans W02 Bold]]></id>
<vendor>Monotype Imaging Inc.</vendor>
<credits>
<name>Fonts.com WebFonts</name>
<URL>http://webfonts.fonts.com</URL>
<role>Home of the Web fonts</role>
</credits>
<license>
<URL>http://webfonts.fonts.com/Legal</URL>
</license>
<copyright><![CDATA[Copyright (c) 2010 by Jos Buivenga. All rights reserved.]]></copyright>
<trademark><![CDATA[Calluna Sans is a trademark of Jos Buivenga.]]></trademark>
<licensee>
<name></name>
</licensee>
</metadata>
<defs >
<font horiz-adv-x="1083" id="2f64837d-6dcf-4dea-97e0-9eaca9ac5970">
<font-face font-family="" panose-1="2 0 0 0 0 0 0 0 0 0" ascent="1535" descent="-513" units-per-em="2048" alphabetic="0">
</font-face>
<missing-glyph horiz-adv-x="0" />

<glyph unicode="&#xA;" />
<glyph unicode="&#xD;" horiz-adv-x="0" />
<glyph unicode=" " horiz-adv-x="492" />
<glyph unicode="!" horiz-adv-x="584" d="M150 1391H442L395 461H193L150 1391ZM131 131Q131 196 177 243T289 291Q354 291 400 245T446 131Q446 66 400 21T289 -25Q224 -25 178 21T131 131Z"  />
<glyph unicode="&quot;" horiz-adv-x="793" d="M483 1366H705V1290L635 823H483V1366ZM115 1366H336V1290L266 823H115V1366Z"  />
<glyph unicode="#" horiz-adv-x="1401" d="M174 795H451L530 1184H678L598 795H889L969 1184H1118L1038 795H1331L1309 651H1010L952 373H1249L1227 229H924L840 -182H688L774 229H483L399 -182H250L334 229H70L92 373H365L422 651H152L174 795ZM512 373H803L860 651H569L512 373Z"  />
<glyph unicode="$" horiz-adv-x="977" d="M127 295Q179 253 260 226T434 193L442 481Q258 543 174 628T90 825Q90 961 188 1048T459 1153L465 1333H563L557 1157Q644 1155 727 1139T864 1096L799 893Q754 914 686 930T553 950L545 670Q684 622 754 576T862 470T899 330Q899 190 799 99T526 -10L522 -182H424L428 -14Q327 -12 232 15T74 84L127 295ZM666 309Q666 354 640 385T539 446L532 193Q600 200 633 228T666 309ZM317 842Q317 797 345 765T449 702L455 950Q317 937 317 842Z"  />
<glyph unicode="%" horiz-adv-x="1565" d="M1204 1397L1307 1327L385 0H236L1204 1397ZM406 721Q262 721 166 815T70 1044Q70 1181 165 1273T406 1366Q550 1366 644 1274T739 1044Q739 909 644 815T406 721ZM406 870Q479 870 528 921T578 1044Q578 1114 529 1165T406 1217Q331 1217 281 1165T231 1044Q231 974 281 922T406 870ZM827 299Q827 435 923 528T1161 621Q1304 621 1400 529T1497 299Q1497 162 1401 69T1161 -25Q1019 -25 923 68T827 299ZM989 299Q989 226 1039 176T1161 125Q1234 125 1284 175T1335 299Q1335 371 1285 421T1161 471Q1089 471 1039 421T989 299Z"  />
<glyph unicode="&amp;" horiz-adv-x="1442" d="M70 340Q70 417 99 481T182 599T344 717Q240 900 240 1044Q240 1144 286 1223T418 1346T625 1391Q793 1391 890 1306T987 1073Q987 989 954 921T860 796T678 674Q719 619 800 529T938 385Q1017 487 1064 628T1124 932H1352Q1334 735 1267 552T1100 244Q1258 121 1382 80L1296 -86Q1142 -65 930 84Q768 -25 559 -25Q420 -25 308 18T133 143T70 340ZM555 176Q660 176 758 225Q689 284 627 348T453 551Q390 511 350 463T309 352Q309 272 376 224T555 176ZM502 1047Q502 956 567 836Q669 889 715 943T762 1061Q762 1115 729 1152T631 1190Q572 1190 537 1152T502 1047Z"  />
<glyph unicode="&apos;" horiz-adv-x="424" d="M115 1366H350V1290L244 823H115V1366Z"  />
<glyph unicode="(" horiz-adv-x="618" d="M90 553Q90 794 174 1027T406 1436L584 1376Q451 1217 369 999T287 553Q287 310 369 78T592 -324L416 -391Q324 -281 247 -125T130 207T90 553Z"  />
<glyph unicode=")" horiz-adv-x="618" d="M27 -324Q163 -159 247 73T332 553Q332 775 251 995T35 1376L213 1436Q362 1258 445 1025T528 553Q528 282 437 32T203 -391L27 -324Z"  />
<glyph unicode="*" horiz-adv-x="1026" d="M395 1409H631L555 1092H473L395 1409ZM598 1067L834 1292L950 1090L637 995L598 1067ZM76 1090L195 1292L430 1067L389 995L76 1090ZM637 946L950 854L834 651L598 877L637 946ZM76 854L389 946L430 877L195 651L76 854ZM473 850H555L631 535H395L473 850Z"  />
<glyph unicode="+" horiz-adv-x="1065" d="M51 606H446V1020H621V606H1010V440H621V0H446V440H51V606Z"  />
<glyph unicode="&#x2c;" horiz-adv-x="508" d="M315 295Q367 223 388 162T410 35Q410 -66 346 -174T147 -393L55 -301Q130 -231 154 -199T192 -132T205 -49Q205 6 178 64T84 219L315 295Z"  />
<glyph unicode="-" horiz-adv-x="756" d="M106 604H649V440H106V604Z"  />
<glyph unicode="." horiz-adv-x="518" d="M100 131Q100 196 146 243T258 291Q324 291 370 244T416 131Q416 68 370 22T258 -25Q193 -25 147 21T100 131Z"  />
<glyph unicode="/" horiz-adv-x="956" d="M723 1366H895L215 -401H41L723 1366Z"  />
<glyph unicode="0" horiz-adv-x="1147" d="M84 475Q84 617 146 738T322 928T582 997Q725 997 834 934T1003 758T1063 510Q1063 364 1001 240T826 45T567 -25Q425 -25 316 40T146 221T84 475ZM324 481Q324 339 390 258T573 176Q692 176 758 257T825 483Q825 629 759 713T575 797Q455 797 390 713T324 481Z"  />
<glyph unicode="1" horiz-adv-x="874" d="M100 199H346V766H109V973H596V199H821V0H100V199Z"  />
<glyph unicode="2" horiz-adv-x="950" d="M86 143Q288 288 411 424T535 649Q535 709 495 747T389 786Q296 786 180 711L80 868Q151 925 248 961T440 997Q598 997 697 909T797 684Q797 609 760 535T656 385T451 197H883V0H86V143Z"  />
<glyph unicode="3" horiz-adv-x="842" d="M37 -209Q73 -213 109 -213Q289 -213 396 -143T504 47Q504 132 425 180T209 229H166V418Q238 422 310 458T427 552T473 672Q473 727 436 756T342 786Q294 786 238 763T133 702L20 866Q97 925 195 961T389 997Q536 997 635 916T735 715Q735 612 669 525T483 375Q613 341 689 253T766 47Q766 -85 684 -187T453 -346T121 -403H90L59 -401L37 -209Z"  />
<glyph unicode="4" horiz-adv-x="1102" d="M49 195L596 979H862V215H1044V27H862V-395H614V27H49V195ZM614 215V698L295 215H614Z"  />
<glyph unicode="5" horiz-adv-x="842" d="M66 -207L150 -211Q322 -211 419 -145T516 43Q516 127 476 178T374 259T236 304T88 334V973H719V776H334V496Q497 453 588 396T728 255T778 57Q778 -157 608 -280T154 -403H121L88 -401L66 -207Z"  />
<glyph unicode="6" horiz-adv-x="1069" d="M549 -25Q405 -25 298 49T134 260T76 565Q76 793 177 982T458 1277T870 1391L887 1192Q671 1177 535 1073T354 780Q446 895 614 895Q726 895 815 838T954 680T1004 459Q1004 327 947 216T786 40T549 -25ZM555 688Q498 688 439 661T334 588Q334 399 396 288T565 176Q647 176 697 246T748 432Q748 554 697 621T555 688Z"  />
<glyph unicode="7" horiz-adv-x="958" d="M98 -367Q400 197 625 752H51V973H913V823Q676 226 344 -418L98 -367Z"  />
<glyph unicode="8" horiz-adv-x="1057" d="M86 336Q86 438 145 526T344 702Q242 783 196 864T150 1034Q150 1134 201 1216T345 1344T549 1391Q718 1391 827 1300T936 1061Q936 967 887 886T727 725Q865 633 919 551T973 373Q973 268 915 176T753 29T524 -25Q406 -25 306 19T146 146T86 336ZM719 354Q719 389 700 421T647 486T508 590Q399 521 354 465T309 348Q309 274 367 222T506 170Q591 170 655 225T719 354ZM403 1055Q403 996 439 945T559 836Q640 892 675 943T711 1051Q711 1118 667 1157T553 1196Q484 1196 444 1157T403 1055Z"  />
<glyph unicode="9" d="M205 -209Q423 -194 557 -90T737 207Q650 88 477 88Q365 88 276 144T138 298T88 514Q88 645 145 757T306 933T543 997Q687 997 794 922T959 713T1016 408Q1016 185 918 1T640 -290T221 -408L205 -209ZM539 295Q596 295 655 321T758 393Q756 577 695 687T528 797Q446 797 396 728T346 541Q346 424 396 360T539 295Z"  />
<glyph unicode=":" horiz-adv-x="569" d="M285 641Q221 641 174 686T127 797Q127 861 172 907T285 954Q351 954 396 908T442 797Q442 731 396 686T285 641ZM127 131Q127 196 173 243T285 291Q350 291 396 245T442 131Q442 66 396 21T285 -25Q220 -25 174 21T127 131Z"  />
<glyph unicode=";" horiz-adv-x="563" d="M344 295Q396 223 417 162T439 35Q439 -66 375 -174T176 -393L84 -301Q159 -231 183 -199T221 -132T234 -49Q234 6 207 64T113 219L344 295ZM123 795Q123 860 169 907T281 955Q347 955 393 908T439 795Q439 732 393 686T281 639Q216 639 170 685T123 795Z"  />
<glyph unicode="&lt;" horiz-adv-x="1065" d="M53 567L926 1036L967 866L291 520L967 152L926 -14L53 473V567Z"  />
<glyph unicode="=" horiz-adv-x="1065" d="M84 774H981V610H84V774ZM84 416H981V252H84V416Z"  />
<glyph unicode="&gt;" horiz-adv-x="1065" d="M98 152L772 520L98 866L139 1036L1012 567V473L139 -14L98 152Z"  />
<glyph unicode="?" horiz-adv-x="791" d="M211 461L207 508Q207 651 323 798L378 868Q438 944 438 985Q438 1039 342 1106T86 1235L143 1462Q330 1405 464 1328T659 1174T721 1018Q721 962 686 903T570 760Q494 680 456 608T418 461H211ZM162 131Q162 195 206 243T317 291Q385 291 431 244T477 131Q477 68 430 22T317 -25Q253 -25 208 22T162 131Z"  />
<glyph unicode="@" horiz-adv-x="1780" d="M76 395Q76 621 189 815T500 1119T936 1229Q1150 1229 1323 1142T1593 897T1690 549Q1690 448 1663 361T1583 203T1455 89T1189 5L1069 -25L1030 121Q999 61 927 18T776 -25Q641 -25 554 85T467 367Q467 521 543 644T752 836T1044 905Q1107 905 1219 889V354Q1219 278 1235 182Q1358 189 1427 282T1497 530Q1497 684 1427 809T1229 1002T938 1071Q751 1071 598 983T358 736T270 399Q270 238 344 103T547 -115T819 -205L788 -371Q588 -359 423 -254T167 23T76 395ZM821 164Q865 164 907 193T979 272V731Q866 731 788 630T709 377Q709 282 739 223T821 164Z"  />
<glyph unicode="A" horiz-adv-x="1300" d="M524 1376H776L1290 0H1022L911 307H383L272 0H10L524 1376ZM461 526H831L647 1042L461 526Z"  />
<glyph unicode="B" horiz-adv-x="1235" d="M170 1366H625Q842 1366 964 1280T1087 1038Q1087 869 928 741Q1040 687 1096 598T1153 397Q1153 220 1025 110T686 0H170V1366ZM655 221Q762 221 820 267T879 406Q879 493 820 540T655 588H434V221H655ZM434 801H711Q750 821 780 873T811 981Q811 1066 756 1105T594 1145H434V801Z"  />
<glyph unicode="C" horiz-adv-x="1382" d="M80 662Q80 870 176 1038T447 1298T844 1391Q976 1391 1102 1361T1317 1278L1217 1055Q1143 1105 1043 1133T834 1161Q691 1161 580 1101T410 931T350 684Q350 546 412 436T584 266T829 205Q937 205 1045 239T1229 330L1335 137Q1250 64 1109 20T813 -25Q605 -25 436 61T174 303T80 662Z"  />
<glyph unicode="D" horiz-adv-x="1491" d="M170 1366H655Q880 1366 1054 1285T1316 1055T1405 705Q1405 487 1305 328T1018 84T578 0H170V1366ZM557 221Q833 221 981 342T1130 692Q1130 906 999 1025T627 1145H434V221H557Z"  />
<glyph unicode="E" horiz-adv-x="1126" d="M170 1366H1032V1145H434V803H905V584H434V221H1047V0H170V1366Z"  />
<glyph unicode="F" d="M170 1366H1028V1145H434V793H905V573H434V0H170V1366Z"  />
<glyph unicode="G" horiz-adv-x="1448" d="M78 659Q78 861 174 1030T449 1295T858 1391Q982 1391 1107 1363T1323 1290L1223 1067Q1145 1109 1044 1135T848 1161Q699 1161 586 1100T410 927T348 676Q348 537 413 429T595 263T858 205Q965 205 1075 225V526H801V745H1333V37Q1209 11 1068 -7T836 -25Q621 -25 447 61T175 303T78 659Z"  />
<glyph unicode="H" horiz-adv-x="1563" d="M170 1366H434V807H1128V1366H1391V0H1128V588H434V0H170V1366Z"  />
<glyph unicode="I" horiz-adv-x="604" d="M170 1366H434V0H170V1366Z"  />
<glyph unicode="J" horiz-adv-x="604" d="M-86 -164Q41 -153 106 -55T172 225V1366H436V233Q436 -51 326 -202T-4 -385L-86 -164Z"  />
<glyph unicode="K" horiz-adv-x="1278" d="M170 1366H434V825H471L932 1366H1257L694 727L1286 0H952L471 606H434V0H170V1366Z"  />
<glyph unicode="L" d="M170 1366H434V221H1053V0H170V1366Z"  />
<glyph unicode="M" horiz-adv-x="1802" d="M197 1366H575L905 418L1235 1366H1608L1657 0H1401L1362 1069L983 0H811L436 1067L401 0H147L197 1366Z"  />
<glyph unicode="N" horiz-adv-x="1530" d="M170 1366H436L1102 403V1366H1360V0H1092L428 956V0H170V1366Z"  />
<glyph unicode="O" horiz-adv-x="1640" d="M78 680Q78 873 173 1039T440 1298T825 1391Q1038 1391 1205 1304T1466 1059T1561 709Q1561 513 1463 341T1192 72T807 -25Q598 -25 432 67T172 322T78 680ZM354 688Q354 558 412 444T574 265T813 199Q949 199 1057 264T1225 444T1286 692Q1286 823 1229 932T1065 1104T821 1167Q684 1167 577 1104T412 930T354 688Z"  />
<glyph unicode="P" horiz-adv-x="1200" d="M170 1366H647Q805 1366 919 1312T1092 1160T1151 932Q1151 721 1012 592T647 463H434V0H170V1366ZM604 684Q744 684 809 747T874 918Q874 1145 604 1145H434V684H604Z"  />
<glyph unicode="Q" horiz-adv-x="1640" d="M78 680Q78 873 173 1039T440 1298T825 1391Q1038 1391 1205 1304T1466 1059T1561 709Q1561 471 1421 278T1047 10Q1123 -92 1192 -144T1345 -223T1527 -250H1550L1513 -485H1492Q1373 -485 1267 -453T1076 -359T927 -219L815 -88Q795 -63 758 -43T686 -16Q506 15 368 112T154 359T78 680ZM354 688Q354 555 412 440T574 259T813 193Q949 193 1057 259T1225 441T1286 692Q1286 823 1228 933T1065 1105T821 1167Q684 1167 577 1104T412 930T354 688Z"  />
<glyph unicode="R" horiz-adv-x="1290" d="M170 1366H625Q861 1366 994 1258T1128 958Q1128 837 1067 739T891 582L1276 0H965L629 516H434V0H170V1366ZM584 735Q721 735 786 792T852 946Q852 1145 582 1145H434V735H584Z"  />
<glyph unicode="S" horiz-adv-x="1055" d="M156 324Q213 278 302 242T482 205Q588 205 648 245T709 350Q709 408 662 457T517 556Q369 630 305 670T197 756T127 862T100 999Q100 1108 159 1198T326 1340T571 1391Q653 1391 755 1374T942 1329L899 1092Q821 1123 734 1142T575 1161Q480 1161 424 1124T367 1026Q367 969 412 921T559 823Q701 752 766 712T876 623T946 514T973 371Q973 255 912 165T741 25T498 -25Q386 -25 277 5T80 90L156 324Z"  />
<glyph unicode="T" horiz-adv-x="1231" d="M485 1145H35V1366H1196V1145H748V0H485V1145Z"  />
<glyph unicode="U" horiz-adv-x="1458" d="M154 1366H418V539Q418 372 497 286T731 199Q879 199 960 286T1042 530V1366H1307V541Q1307 371 1235 242T1029 44T729 -25Q452 -25 303 115T154 512V1366Z"  />
<glyph unicode="V" horiz-adv-x="1239" d="M10 1366H291L625 385L958 1366H1229L745 -10H494L10 1366Z"  />
<glyph unicode="W" horiz-adv-x="1985" d="M37 1366H309L594 365L891 1366H1100L1397 365L1683 1366H1948L1536 -10H1268L991 897L717 -10H446L37 1366Z"  />
<glyph unicode="X" horiz-adv-x="1272" d="M479 678L31 1366H342L639 893L938 1366H1241L793 684L1241 0H930L633 471L336 0H31L479 678Z"  />
<glyph unicode="Y" horiz-adv-x="1245" d="M492 569L-2 1366H307L623 831L948 1366H1247L756 571V0H492V569Z"  />
<glyph unicode="Z" horiz-adv-x="1192" d="M74 160L750 1145H104V1366H1090V1206L424 221H1114V0H74V160Z"  />
<glyph unicode="[" horiz-adv-x="594" d="M152 1366H565V1223H334V-186H565V-332H152V1366Z"  />
<glyph unicode="\" horiz-adv-x="965" d="M61 1366H240L922 -401H741L61 1366Z"  />
<glyph unicode="]" horiz-adv-x="590" d="M256 -207V1241H25V1366H438V-332H25V-207H256Z"  />
<glyph unicode="^" horiz-adv-x="965" d="M412 1391H553L991 512H807L479 1167L154 512H-27L412 1391Z"  />
<glyph unicode="_" horiz-adv-x="1063" d="M1042 -76V-217H18V-76H1042Z"  />
<glyph unicode="`" horiz-adv-x="1044" d="M291 1448H532L743 1114L608 1040L291 1448Z"  />
<glyph unicode="a" horiz-adv-x="1008" d="M53 219Q53 508 598 580V612Q598 701 568 733T469 766Q403 766 326 737T174 655L113 836Q193 890 308 923T541 956Q710 956 782 887T854 653V293Q854 244 883 216T958 184L885 -14Q689 -11 625 123Q576 50 500 13T334 -25Q208 -25 131 44T53 219ZM403 162Q496 162 598 283V432Q446 410 380 362T313 240Q313 162 403 162Z"  />
<glyph unicode="b" horiz-adv-x="1094" d="M123 1427L379 1468V868Q427 916 484 936T610 956Q735 956 828 900T972 739T1022 502Q1022 351 959 231T776 43T496 -25Q402 -25 265 -2T123 27V1427ZM563 762Q475 762 379 690V174Q440 156 498 156Q621 156 690 244T760 483Q760 618 707 690T563 762Z"  />
<glyph unicode="c" horiz-adv-x="956" d="M66 449Q66 586 132 704T316 889T575 956Q665 956 754 931T907 862L817 676Q772 713 712 736T594 760Q476 760 403 679T330 463Q330 333 399 253T586 172Q651 172 717 198T829 266L907 94Q851 38 763 7T567 -25Q422 -25 307 36T129 206T66 449Z"  />
<glyph unicode="d" horiz-adv-x="1110" d="M70 438Q70 583 130 702T302 889T559 956Q649 956 721 928V1427L975 1468V285Q975 179 1018 0L780 -14Q762 57 752 121Q666 -25 467 -25Q351 -25 260 35T120 202T70 438ZM522 166Q576 166 627 197T721 289V649Q721 705 685 735T578 766Q463 766 400 686T336 455Q336 320 383 243T522 166Z"  />
<glyph unicode="e" horiz-adv-x="1010" d="M70 461Q70 599 129 713T295 892T532 956Q718 956 824 836T932 500L793 459L332 399Q353 294 421 233T594 172Q737 172 877 287L942 106Q868 45 764 10T551 -25Q406 -25 297 37T129 211T70 461ZM514 766Q436 766 387 707T326 547L655 590Q650 667 615 716T514 766Z"  />
<glyph unicode="f" horiz-adv-x="733" d="M45 887L190 938V1016Q190 1164 245 1275T403 1447T637 1507Q714 1507 790 1486T922 1427L831 1237Q787 1267 736 1285T641 1303Q546 1303 496 1234T446 1034V932H696V750H446V0H190V750H45V887Z"  />
<glyph unicode="g" horiz-adv-x="1051" d="M125 162Q125 258 272 344Q181 387 133 462T84 631Q84 775 200 865T494 956Q556 956 637 937Q718 918 766 918H883Q948 918 1008 938L1022 754H922Q886 754 846 760Q907 699 907 604Q907 518 849 449T691 341T479 303H449L420 305Q350 266 350 240Q350 224 381 210T510 169L645 133Q782 96 847 62T949 -20T987 -137Q987 -229 919 -309T731 -437T469 -485Q288 -485 168 -418T47 -246Q47 -106 272 23Q201 49 163 80T125 162ZM272 -199Q272 -250 328 -278T481 -307Q596 -307 673 -271T750 -176Q750 -150 731 -132T668 -95T436 -25L383 -59Q272 -130 272 -199ZM494 473Q571 473 618 516T666 623Q666 689 618 737T496 786Q422 786 374 740T326 627Q326 561 373 517T494 473Z"  />
<glyph unicode="h" horiz-adv-x="1100" d="M129 1427L385 1468V784Q544 956 725 956Q845 956 912 885T979 664V0H725V555Q725 649 704 692T631 735Q584 735 518 693T385 580V0H129V1427Z"  />
<glyph unicode="i" horiz-adv-x="514" d="M258 1135Q190 1135 148 1176T106 1278Q106 1339 148 1380T258 1421Q324 1421 366 1380T408 1278Q408 1217 366 1176T258 1135ZM129 932H385V0H129V932Z"  />
<glyph unicode="j" horiz-adv-x="514" d="M256 1135Q188 1135 146 1176T104 1278Q104 1339 146 1380T256 1421Q322 1421 364 1380T406 1278Q406 1217 364 1176T256 1135ZM129 932H385V47Q385 -182 276 -318T-43 -485L-119 -287Q14 -266 71 -185T129 35V932Z"  />
<glyph unicode="k" horiz-adv-x="1065" d="M129 1427L385 1468V610H418L723 932H1047L637 524L1065 0H748L418 424H385V0H129V1427Z"  />
<glyph unicode="l" horiz-adv-x="514" d="M129 1427L385 1468V0H129V1427Z"  />
<glyph unicode="m" horiz-adv-x="1669" d="M125 911L371 952V782Q533 956 713 956Q905 956 950 780Q1042 875 1126 915T1296 956Q1414 956 1481 885T1548 664V0H1294V555Q1294 649 1274 692T1200 735Q1108 735 965 592V0H711V555Q711 649 690 692T616 735Q520 735 381 590V0H125V911Z"  />
<glyph unicode="n" horiz-adv-x="1096" d="M125 911L371 952V780Q446 864 537 910T723 956Q841 956 908 885T975 664V0H721V555Q721 649 700 692T627 735Q579 735 515 696T381 588V0H125V911Z"  />
<glyph unicode="o" horiz-adv-x="1143" d="M68 463Q68 606 133 722T313 897T575 956Q724 956 838 895T1013 725T1075 485Q1075 340 1008 219T828 37T567 -25Q418 -25 305 37T130 211T68 463ZM332 481Q332 341 398 254T573 166Q675 166 743 247T811 459Q811 595 744 680T571 766Q467 766 400 686T332 481Z"  />
<glyph unicode="p" horiz-adv-x="1102" d="M125 911L371 952V801Q411 879 480 917T639 956Q754 956 843 897T981 732T1030 496Q1030 350 972 231T805 43T559 -25Q443 -25 381 14V-440L125 -481V911ZM590 756Q536 756 481 720T381 616V250Q381 212 417 189T516 166Q634 166 700 249T766 479Q766 605 718 680T590 756Z"  />
<glyph unicode="q" horiz-adv-x="1096" d="M70 430Q70 582 134 702T317 889T596 956Q743 956 969 905V-440L715 -481V63Q632 -25 481 -25Q293 -25 182 100T70 430ZM530 176Q571 176 621 193T715 244V756Q655 776 596 776Q475 776 405 689T334 449Q334 317 386 247T530 176Z"  />
<glyph unicode="r" horiz-adv-x="748" d="M125 911L371 952V760Q436 863 506 909T649 956Q693 956 729 940L688 694Q639 713 600 713Q491 713 381 559V0H125V911Z"  />
<glyph unicode="s" horiz-adv-x="844" d="M119 266Q172 223 243 197T381 170Q455 170 490 192T526 250Q526 283 489 309T307 400Q88 497 88 668Q88 801 190 878T475 956Q553 956 626 942T752 905L698 698Q651 727 590 744T475 762Q342 762 342 688Q342 658 376 632T480 576Q602 524 661 481T749 387T778 272Q778 137 674 56T391 -25Q298 -25 213 -3T66 57L119 266Z"  />
<glyph unicode="t" horiz-adv-x="813" d="M188 750H43V887L197 938V1155L444 1204V932H729V750H444V324Q444 184 541 184Q604 184 721 264L791 78Q724 29 642 2T479 -25Q340 -25 264 52T188 262V750Z"  />
<glyph unicode="u" horiz-adv-x="1096" d="M119 932H375V377Q375 272 397 235T471 197Q513 197 568 225T707 324V932H961V285Q961 182 1001 4L756 -18Q737 53 727 139Q563 -25 375 -25Q253 -25 186 46T119 256V932Z"  />
<glyph unicode="v" horiz-adv-x="973" d="M12 932H281L481 328L707 932H965L592 -6H360L12 932Z"  />
<glyph unicode="w" horiz-adv-x="1571" d="M27 932H289L467 285L680 932H897L1106 285L1288 932H1544L1241 -6H993L784 602L578 -6H328L27 932Z"  />
<glyph unicode="x" horiz-adv-x="987" d="M348 465L29 932H319L498 659L676 932H958L637 471L958 0H674L492 279L305 0H29L348 465Z"  />
<glyph unicode="y" horiz-adv-x="973" d="M20 -289Q116 -278 205 -212T334 -53L367 25L8 932H274L492 322L705 932H963L575 -68Q508 -243 380 -357T98 -485L20 -289Z"  />
<glyph unicode="z" horiz-adv-x="922" d="M74 156L500 735H90V932H831V776L397 197H848V0H74V156Z"  />
<glyph unicode="{" horiz-adv-x="688" d="M254 -135V-22Q254 459 23 467V608Q254 612 254 1078V1190Q254 1349 368 1433T690 1518V1382Q585 1374 533 1350T458 1276T436 1081Q436 621 223 541V537Q327 498 381 353T436 -27Q436 -170 458 -220T533 -295T690 -328V-463Q254 -463 254 -135Z"  />
<glyph unicode="|" horiz-adv-x="483" d="M150 1534H334V-461H150V1534Z"  />
<glyph unicode="}" horiz-adv-x="688" d="M465 537V541Q252 621 252 1081Q252 1224 231 1274T158 1348T-2 1382V1518Q204 1518 319 1435T434 1190V1080Q434 612 666 608V467Q434 460 434 -23V-135Q434 -463 -2 -463V-328Q105 -318 157 -294T231 -219T252 -27Q252 207 306 352T465 537Z"  />
<glyph unicode="~" horiz-adv-x="1190" d="M111 344Q111 516 184 603T397 690Q535 690 630 594Q686 536 718 517T788 498Q850 498 884 547T918 682H1085Q1085 510 1012 423T799 336Q661 336 567 432Q510 490 478 509T408 528Q347 528 313 478T279 344H111Z"  />
<glyph unicode="&#xA0;" horiz-adv-x="492" />
<glyph unicode="&#xA1;" horiz-adv-x="580" d="M436 -461H144L191 469H393L436 -461ZM455 799Q455 734 409 687T297 639Q232 639 186 685T140 799Q140 864 186 909T297 955Q362 955 408 909T455 799Z"  />
<glyph unicode="&#xA2;" horiz-adv-x="971" d="M467 137Q290 156 182 275T74 569Q74 686 126 784T276 942T502 1012L510 1192H608L600 1012Q686 1004 763 973T891 895L766 737Q686 799 592 811L573 336Q631 341 694 366T801 426L879 254Q824 204 741 173T565 135L559 -45H461L467 137ZM324 578Q324 494 362 431T475 346L494 807Q416 790 370 731T324 578Z"  />
<glyph unicode="&#xA3;" horiz-adv-x="1133" d="M117 608H254L274 772Q296 962 399 1064T676 1167Q768 1167 853 1135T993 1049L868 891Q830 927 779 949T674 971Q599 971 565 923T520 766L504 608H848L834 489H494Q472 311 428 207Q473 182 538 166T662 150Q770 150 817 192T874 340H1055Q1033 132 950 41T721 -51Q657 -51 603 -38T498 -8T400 23T303 37Q241 37 115 0L74 127Q132 151 172 199T219 305L240 489H117V608Z"  />
<glyph unicode="&#xA5;" horiz-adv-x="1161" d="M156 676H344L74 1143H344L580 707L821 1143H1079L809 676H1020V557H739L705 496V410H1020V291H705V0H451V291H156V410H451V494L414 557H156V676Z"  />
<glyph unicode="&#xA6;" horiz-adv-x="483" d="M150 1415H336V682H150V1415ZM336 365V-369H150V365H336Z"  />
<glyph unicode="&#xA7;" horiz-adv-x="1010" d="M285 -158Q319 -76 319 31Q319 91 309 145L190 811Q178 879 178 946Q178 1153 283 1272T571 1391Q660 1391 755 1362T928 1284L866 1149Q801 1192 722 1218T575 1245Q465 1245 403 1162T340 940Q340 875 350 827L459 238Q479 121 479 31Q479 -104 428 -180L285 -158ZM119 -244Q181 -286 261 -313T410 -340Q521 -340 583 -257T645 -35Q645 20 635 78L528 668Q506 792 506 874Q506 1011 559 1085L700 1063Q666 987 666 874Q666 816 676 760L795 94Q807 26 807 -43Q807 -247 703 -366T414 -485Q321 -485 225 -456T57 -379L119 -244Z"  />
<glyph unicode="&#xA8;" horiz-adv-x="1044" d="M739 1145Q679 1145 642 1180T604 1276Q604 1336 641 1371T739 1407Q801 1407 839 1372T877 1276Q877 1216 839 1181T739 1145ZM303 1145Q243 1145 206 1180T168 1276Q168 1336 205 1371T303 1407Q365 1407 402 1372T440 1276Q440 1216 403 1181T303 1145Z"  />
<glyph unicode="&#xA9;" horiz-adv-x="1569" d="M78 682Q78 870 172 1034T431 1294T784 1389Q972 1389 1136 1295T1396 1036T1491 682Q1491 494 1397 330T1138 70T784 -25Q596 -25 432 69T173 328T78 682ZM193 682Q193 523 269 385T482 163T784 80Q947 80 1085 162T1299 384T1376 682Q1376 843 1297 983T1081 1203T784 1284Q625 1284 488 1204T272 983T193 682ZM389 680Q389 795 441 892T588 1045T805 1102Q895 1102 975 1068T1102 979L1010 846Q973 890 919 916T805 942Q700 942 639 873T578 694Q578 581 645 508T817 434Q879 434 939 460T1042 532L1098 393Q1052 339 973 307T803 274Q686 274 592 326T443 473T389 680Z"  />
<glyph unicode="&#xAA;" horiz-adv-x="805" d="M281 703Q191 703 134 751T76 877Q76 1079 459 1131V1151Q459 1207 440 1227T377 1248Q327 1248 268 1224T160 1164L117 1305Q172 1342 256 1365T430 1389Q549 1389 603 1341T658 1178V926Q658 891 678 870T731 848L680 709Q527 712 481 795Q412 703 281 703ZM336 840Q392 840 459 914V1020Q363 1005 321 976T279 899Q279 869 295 855T336 840Z"  />
<glyph unicode="&#xAB;" horiz-adv-x="1044" d="M434 518Q457 537 487 569T823 946L965 905L672 514L965 123L823 82L582 351Q454 494 434 510V518ZM422 82L181 351Q53 494 33 510V518Q56 537 86 569T422 946L563 905L270 514L563 123L422 82Z"  />
<glyph unicode="&#xAC;" horiz-adv-x="1163" d="M96 807H1044V227H874V643H96V807Z"  />
<glyph unicode="&#xAE;" horiz-adv-x="864" d="M432 733Q338 733 256 780T126 910T78 1087Q78 1181 126 1264T255 1394T432 1442Q526 1442 608 1395T738 1265T786 1087Q786 993 739 911T609 781T432 733ZM432 799Q503 799 568 838T672 946T711 1087Q711 1162 672 1230T567 1336T432 1374Q319 1374 237 1289T154 1087Q154 1013 191 946T294 839T432 799ZM422 1044H395V918H301V1266H424Q567 1266 567 1161Q567 1098 506 1065L614 918H510L422 1044ZM430 1106Q471 1106 471 1153Q471 1202 416 1202H395V1106H430Z"  />
<glyph unicode="&#xAF;" horiz-adv-x="965" d="M219 1341H745V1182H219V1341Z"  />
<glyph unicode="&#xB0;" horiz-adv-x="649" d="M324 899Q219 899 147 971T74 1145Q74 1246 146 1318T324 1391Q428 1391 500 1319T573 1145Q573 1044 501 972T324 899ZM324 1008Q380 1008 418 1048T457 1145Q457 1202 419 1241T324 1280Q266 1280 228 1242T190 1145Q190 1088 228 1048T324 1008Z"  />
<glyph unicode="&#xB1;" horiz-adv-x="1065" d="M92 791H446V1143H621V791H969V625H621V276H446V625H92V791ZM106 164H963V0H106V164Z"  />
<glyph unicode="&#xB2;" horiz-adv-x="717" d="M55 883L181 1000Q304 1113 361 1193T418 1337Q418 1391 386 1415T303 1440Q267 1440 228 1424T156 1378L57 1499Q107 1550 183 1581T338 1612Q461 1612 537 1545T614 1364Q614 1267 548 1161T336 920H659V770H70L55 883Z"  />
<glyph unicode="&#xB3;" horiz-adv-x="682" d="M295 754Q227 754 159 774T39 829L121 965Q154 942 197 927T283 911Q339 911 373 939T408 1012Q408 1054 366 1079T256 1104H186V1253Q260 1255 315 1292T371 1382Q371 1450 289 1450Q223 1450 145 1403L66 1526Q121 1566 191 1589T332 1612Q442 1612 510 1558T578 1417Q578 1348 531 1289T414 1206Q614 1164 614 1014Q614 944 572 884T457 789T295 754Z"  />
<glyph unicode="&#xB4;" horiz-adv-x="1071" d="M301 1114L512 1448H756L438 1040L301 1114Z"  />
<glyph unicode="&#xB5;" horiz-adv-x="1204" d="M150 932H406V377Q406 272 428 235T502 197Q550 197 614 233T737 324V932H991V287Q991 227 1000 205T1032 173T1124 164V-14Q1043 -25 995 -25Q886 -25 826 11T748 131Q586 -25 406 -25Q371 -25 340 -18Q345 -101 370 -263Q391 -407 391 -442H129Q150 -242 150 -80V932Z"  />
<glyph unicode="&#xB6;" horiz-adv-x="1380" d="M424 -336Q559 -336 618 -261T678 -20V367H659Q477 367 344 429T137 606T63 864Q63 1003 135 1118T342 1300T649 1366H1284V1229H1133V0H987V1229H834V-41Q834 -485 455 -485L424 -336Z"  />
<glyph unicode="&#xB7;" horiz-adv-x="530" d="M264 367Q199 367 153 412T106 522Q106 589 152 634T264 680Q330 680 376 634T422 522Q422 459 377 413T264 367Z"  />
<glyph unicode="&#xB8;" horiz-adv-x="1044" d="M457 -145Q457 -121 469 -91T514 0H639Q621 -40 612 -62T602 -94Q602 -120 649 -141L692 -160Q782 -202 782 -289Q782 -374 713 -429T535 -485Q477 -485 423 -468T328 -422L377 -307Q408 -333 451 -350T532 -367Q576 -367 602 -351T629 -311Q629 -294 613 -280T543 -241Q457 -202 457 -145Z"  />
<glyph unicode="&#xB9;" horiz-adv-x="643" d="M63 911H252V1456H80V1597H444V911H616V770H63V911Z"  />
<glyph unicode="&#xBA;" horiz-adv-x="877" d="M437 703Q275 703 175 798T74 1043Q74 1141 118 1220T246 1344T443 1389Q551 1389 632 1346T758 1227T803 1059Q803 961 759 879T631 750T437 703ZM441 842Q510 842 553 900T596 1041Q596 1132 554 1190T439 1248Q371 1248 326 1194T281 1057Q281 961 324 902T441 842Z"  />
<glyph unicode="&#xBB;" horiz-adv-x="1044" d="M481 123L774 514L481 905L623 946Q908 625 947 582T1012 518V510Q993 495 929 423L623 82L481 123ZM80 123L375 514L333 568L80 905L221 946Q506 625 545 582T610 518V510Q591 495 527 423L221 82L80 123Z"  />
<glyph unicode="&#xBC;" horiz-adv-x="1739" d="M1372 186H1014L998 313L1338 834H1557V330H1671V186H1557V2H1372V186ZM1372 330V647L1164 330H1372ZM90 684H279V1229H107V1370H471V684H643V543H90V684ZM432 0L1247 1417L1383 1360L600 0H432Z"  />
<glyph unicode="&#xBD;" horiz-adv-x="1823" d="M1149 115L1275 232Q1398 345 1455 425T1512 569Q1512 623 1480 647T1397 672Q1361 672 1322 656T1250 610L1151 731Q1201 782 1277 813T1432 844Q1555 844 1631 777T1708 596Q1708 499 1642 393T1430 152H1753V2H1164L1149 115ZM88 684H277V1229H105V1370H469V684H641V543H88V684ZM469 0L1284 1417L1420 1360L637 0H469Z"  />
<glyph unicode="&#xBE;" horiz-adv-x="1751" d="M1384 186H1026L1010 313L1350 834H1569V330H1683V186H1569V2H1384V186ZM1384 330V647L1176 330H1384ZM328 527Q260 527 192 547T72 602L154 738Q187 715 230 700T316 684Q372 684 406 712T441 785Q441 827 399 852T289 877H219V1026Q293 1028 348 1065T404 1155Q404 1223 322 1223Q256 1223 178 1176L99 1299Q154 1339 224 1362T365 1385Q475 1385 543 1331T611 1190Q611 1121 564 1062T447 979Q647 937 647 787Q647 717 605 657T490 562T328 527ZM444 0L1259 1417L1395 1360L612 0H444Z"  />
<glyph unicode="&#xBF;" horiz-adv-x="778" d="M578 471L582 422Q582 286 466 147Q386 51 368 22T350 -33Q350 -88 447 -155T702 -283L645 -510Q384 -431 226 -314T68 -66Q68 -13 101 41T220 181Q295 258 333 328T371 471H578ZM627 799Q627 734 581 688T471 641Q406 641 359 687T311 799Q311 864 358 910T471 956Q534 956 580 910T627 799Z"  />
<glyph unicode="&#xC0;" horiz-adv-x="1300" d="M524 1376H776L1290 0H1022L911 307H383L272 0H10L524 1376ZM461 526H831L647 1042L461 526ZM434 1782L877 1587L825 1450L363 1593L434 1782Z"  />
<glyph unicode="&#xC1;" horiz-adv-x="1300" d="M524 1376H776L1290 0H1022L911 307H383L272 0H10L524 1376ZM461 526H831L647 1042L461 526ZM417 1587L860 1782L932 1593L467 1450L417 1587Z"  />
<glyph unicode="&#xC2;" horiz-adv-x="1300" d="M524 1376H776L1290 0H1022L911 307H383L272 0H10L524 1376ZM461 526H831L647 1042L461 526ZM287 1558L545 1784H746L1002 1558L871 1470L645 1650L420 1470L287 1558Z"  />
<glyph unicode="&#xC3;" horiz-adv-x="1300" d="M524 1376H776L1290 0H1022L911 307H383L272 0H10L524 1376ZM461 526H831L647 1042L461 526ZM262 1489L260 1507V1521Q260 1636 318 1701T483 1767Q550 1767 596 1747T678 1702T743 1657T807 1636Q875 1636 875 1743V1763H1032V1732Q1032 1613 973 1547T805 1481Q702 1481 617 1547Q558 1591 537 1601T492 1612Q456 1612 437 1584T418 1507L419 1493L420 1489H262Z"  />
<glyph unicode="&#xC4;" horiz-adv-x="1300" d="M524 1376H776L1290 0H1022L911 307H383L272 0H10L524 1376ZM461 526H831L647 1042L461 526ZM903 1491Q841 1491 802 1528T762 1626Q762 1688 801 1724T903 1761Q964 1761 1003 1724T1043 1626Q1043 1565 1003 1528T903 1491ZM389 1491Q329 1491 290 1528T250 1626Q250 1686 288 1723T389 1761Q451 1761 491 1725T531 1626Q531 1565 491 1528T389 1491Z"  />
<glyph unicode="&#xC5;" horiz-adv-x="1300" d="M524 1376H776L1290 0H1022L911 307H383L272 0H10L524 1376ZM461 526H831L647 1042L461 526ZM645 1450Q548 1450 493 1496T438 1622Q438 1694 493 1739T645 1784Q741 1784 796 1739T852 1622Q852 1543 798 1497T645 1450ZM645 1532Q690 1532 714 1557T739 1620Q739 1657 712 1679T645 1702Q605 1702 579 1680T553 1620Q553 1583 576 1558T645 1532Z"  />
<glyph unicode="&#xC6;" horiz-adv-x="1843" d="M748 1366H1749V1145H1151V803H1622V584H1151V221H1763V0H889V379H469L260 0H-23L748 1366ZM592 600H889V1137L592 600Z"  />
<glyph unicode="&#xC7;" horiz-adv-x="1384" d="M659 -145Q659 -121 672 -91T707 -18Q525 3 382 93T161 331T82 662Q82 870 178 1038T449 1298T846 1391Q978 1391 1104 1361T1319 1278L1219 1055Q1145 1105 1045 1133T836 1161Q693 1161 582 1100T412 930T352 684Q352 546 414 436T586 266T831 205Q939 205 1047 239T1231 330L1337 137Q1252 67 1115 22T829 -25Q805 -81 805 -94Q805 -120 852 -141L895 -160Q985 -202 985 -289Q985 -375 914 -430T737 -485Q679 -485 625 -468T530 -422L580 -307Q611 -333 654 -350T735 -367Q779 -367 805 -351T831 -311Q831 -294 815 -280T745 -241Q659 -202 659 -145Z"  />
<glyph unicode="&#xC8;" horiz-adv-x="1126" d="M397 1782L840 1587L788 1450L326 1593L397 1782ZM170 1366H1032V1145H434V803H905V584H434V221H1047V0H170V1366Z"  />
<glyph unicode="&#xC9;" horiz-adv-x="1126" d="M170 1366H1032V1145H434V803H905V584H434V221H1047V0H170V1366ZM383 1587L826 1782L898 1593L433 1450L383 1587Z"  />
<glyph unicode="&#xCA;" horiz-adv-x="1126" d="M252 1558L510 1784H711L967 1558L836 1470L610 1650L385 1470L252 1558ZM170 1366H1032V1145H434V803H905V584H434V221H1047V0H170V1366Z"  />
<glyph unicode="&#xCB;" horiz-adv-x="1126" d="M170 1366H1032V1145H434V803H905V584H434V221H1047V0H170V1366ZM868 1491Q806 1491 767 1528T727 1626Q727 1688 766 1724T868 1761Q929 1761 968 1724T1008 1626Q1008 1565 968 1528T868 1491ZM354 1491Q294 1491 255 1528T215 1626Q215 1686 253 1723T354 1761Q416 1761 456 1725T496 1626Q496 1565 456 1528T354 1491Z"  />
<glyph unicode="&#xCC;" horiz-adv-x="604" d="M170 1366H434V0H170V1366ZM95 1782L538 1587L486 1450L24 1593L95 1782Z"  />
<glyph unicode="&#xCD;" horiz-adv-x="604" d="M170 1366H434V0H170V1366ZM78 1587L521 1782L593 1593L128 1450L78 1587Z"  />
<glyph unicode="&#xCE;" horiz-adv-x="604" d="M170 1366H434V0H170V1366ZM-52 1558L206 1784H407L663 1558L532 1470L306 1650L81 1470L-52 1558Z"  />
<glyph unicode="&#xCF;" horiz-adv-x="604" d="M170 1366H434V0H170V1366ZM525 1499Q465 1499 428 1534T390 1630Q390 1690 427 1725T525 1761Q587 1761 625 1726T663 1630Q663 1570 625 1535T525 1499ZM89 1499Q29 1499 -8 1534T-46 1630Q-46 1690 -9 1725T89 1761Q151 1761 188 1726T226 1630Q226 1570 189 1535T89 1499Z"  />
<glyph unicode="&#xD0;" horiz-adv-x="1522" d="M53 795H201V1366H686Q911 1366 1085 1285T1347 1055T1436 705Q1436 487 1335 327T1046 84T608 0H201V592H53V795ZM588 221Q864 221 1012 342T1161 692Q1161 907 1029 1026T657 1145H465V795H780V592H465V221H588Z"  />
<glyph unicode="&#xD1;" horiz-adv-x="1530" d="M381 1489L379 1507V1521Q379 1636 437 1701T602 1767Q669 1767 715 1747T797 1702T862 1657T926 1636Q994 1636 994 1743V1763H1151V1732Q1151 1613 1092 1547T924 1481Q821 1481 736 1547Q677 1591 656 1601T611 1612Q575 1612 556 1584T537 1507L538 1493L539 1489H381ZM170 1366H436L1102 403V1366H1360V0H1092L428 956V0H170V1366Z"  />
<glyph unicode="&#xD2;" horiz-adv-x="1640" d="M606 1782L1049 1587L997 1450L535 1593L606 1782ZM78 680Q78 873 173 1039T440 1298T825 1391Q1038 1391 1205 1304T1466 1059T1561 709Q1561 513 1463 341T1192 72T807 -25Q598 -25 432 67T172 322T78 680ZM354 688Q354 558 412 444T574 265T813 199Q949 199 1057 264T1225 444T1286 692Q1286 823 1229 932T1065 1104T821 1167Q684 1167 577 1104T412 930T354 688Z"  />
<glyph unicode="&#xD3;" horiz-adv-x="1640" d="M591 1587L1034 1782L1106 1593L641 1450L591 1587ZM78 680Q78 873 173 1039T440 1298T825 1391Q1038 1391 1205 1304T1466 1059T1561 709Q1561 513 1463 341T1192 72T807 -25Q598 -25 432 67T172 322T78 680ZM354 688Q354 558 412 444T574 265T813 199Q949 199 1057 264T1225 444T1286 692Q1286 823 1229 932T1065 1104T821 1167Q684 1167 577 1104T412 930T354 688Z"  />
<glyph unicode="&#xD4;" horiz-adv-x="1640" d="M461 1558L719 1784H920L1176 1558L1045 1470L819 1650L594 1470L461 1558ZM78 680Q78 873 173 1039T440 1298T825 1391Q1038 1391 1205 1304T1466 1059T1561 709Q1561 513 1463 341T1192 72T807 -25Q598 -25 432 67T172 322T78 680ZM354 688Q354 558 412 444T574 265T813 199Q949 199 1057 264T1225 444T1286 692Q1286 823 1229 932T1065 1104T821 1167Q684 1167 577 1104T412 930T354 688Z"  />
<glyph unicode="&#xD5;" horiz-adv-x="1640" d="M78 680Q78 873 173 1039T440 1298T825 1391Q1038 1391 1205 1304T1466 1059T1561 709Q1561 513 1463 341T1192 72T807 -25Q598 -25 432 67T172 322T78 680ZM354 688Q354 558 412 444T574 265T813 199Q949 199 1057 264T1225 444T1286 692Q1286 823 1229 932T1065 1104T821 1167Q684 1167 577 1104T412 930T354 688ZM436 1489L434 1507V1521Q434 1636 492 1701T657 1767Q724 1767 770 1747T852 1702T917 1657T981 1636Q1049 1636 1049 1743V1763H1206V1732Q1206 1613 1147 1547T979 1481Q876 1481 791 1547Q732 1591 711 1601T666 1612Q630 1612 611 1584T592 1507L593 1493L594 1489H436Z"  />
<glyph unicode="&#xD6;" horiz-adv-x="1640" d="M78 680Q78 873 173 1039T440 1298T825 1391Q1038 1391 1205 1304T1466 1059T1561 709Q1561 513 1463 341T1192 72T807 -25Q598 -25 432 67T172 322T78 680ZM354 688Q354 558 412 444T574 265T813 199Q949 199 1057 264T1225 444T1286 692Q1286 823 1229 932T1065 1104T821 1167Q684 1167 577 1104T412 930T354 688ZM1077 1491Q1015 1491 976 1528T936 1626Q936 1688 975 1724T1077 1761Q1138 1761 1177 1724T1217 1626Q1217 1565 1177 1528T1077 1491ZM563 1491Q503 1491 464 1528T424 1626Q424 1686 462 1723T563 1761Q625 1761 665 1725T705 1626Q705 1565 665 1528T563 1491Z"  />
<glyph unicode="&#xD7;" horiz-adv-x="1065" d="M182 993L532 633L883 993L993 879L643 518L993 160L881 45L532 403L184 45L72 160L420 518L72 879L182 993Z"  />
<glyph unicode="&#xD8;" horiz-adv-x="1640" d="M78 680Q78 873 173 1039T440 1298T825 1391Q1038 1391 1202 1305L1296 1427H1458L1313 1235Q1430 1142 1495 1006T1561 709Q1561 513 1463 341T1192 72T807 -25Q595 -25 426 70L326 -61H162L319 145Q202 244 140 383T78 680ZM1286 692Q1286 786 1253 875T1157 1032L571 264Q676 199 813 199Q949 199 1057 264T1225 444T1286 692ZM354 688Q354 598 383 509T473 348L1055 1110Q957 1167 821 1167Q684 1167 577 1104T412 930T354 688Z"  />
<glyph unicode="&#xD9;" horiz-adv-x="1458" d="M516 1782L959 1587L907 1450L445 1593L516 1782ZM154 1366H418V539Q418 372 497 286T731 199Q879 199 960 286T1042 530V1366H1307V541Q1307 371 1235 242T1029 44T729 -25Q452 -25 303 115T154 512V1366Z"  />
<glyph unicode="&#xDA;" horiz-adv-x="1458" d="M154 1366H418V539Q418 372 497 286T731 199Q879 199 960 286T1042 530V1366H1307V541Q1307 371 1235 242T1029 44T729 -25Q452 -25 303 115T154 512V1366ZM501 1587L944 1782L1016 1593L551 1450L501 1587Z"  />
<glyph unicode="&#xDB;" horiz-adv-x="1458" d="M371 1558L629 1784H830L1086 1558L955 1470L729 1650L504 1470L371 1558ZM154 1366H418V539Q418 372 497 286T731 199Q879 199 960 286T1042 530V1366H1307V541Q1307 371 1235 242T1029 44T729 -25Q452 -25 303 115T154 512V1366Z"  />
<glyph unicode="&#xDC;" horiz-adv-x="1458" d="M154 1366H418V539Q418 372 497 286T731 199Q879 199 960 286T1042 530V1366H1307V541Q1307 371 1235 242T1029 44T729 -25Q452 -25 303 115T154 512V1366ZM987 1491Q925 1491 886 1528T846 1626Q846 1688 885 1724T987 1761Q1048 1761 1087 1724T1127 1626Q1127 1565 1087 1528T987 1491ZM473 1491Q413 1491 374 1528T334 1626Q334 1686 372 1723T473 1761Q535 1761 575 1725T615 1626Q615 1565 575 1528T473 1491Z"  />
<glyph unicode="&#xDD;" horiz-adv-x="1245" d="M492 569L-2 1366H307L623 831L948 1366H1247L756 571V0H492V569ZM395 1587L838 1782L910 1593L445 1450L395 1587Z"  />
<glyph unicode="&#xDE;" horiz-adv-x="1192" d="M170 1366H434V1085H668Q895 1085 1018 985T1141 702Q1141 510 1012 398T668 285H434V0H170V1366ZM627 506Q747 506 806 550T866 688Q866 781 807 823T627 866H434V506H627Z"  />
<glyph unicode="&#xDF;" horiz-adv-x="1223" d="M45 887L190 938V1010Q190 1242 306 1363T637 1485Q818 1485 925 1402T1032 1180Q1032 1062 939 952Q888 891 867 854T846 780Q846 732 881 689T1013 573Q1097 510 1138 441T1180 289Q1180 148 1074 62T793 -25Q726 -25 663 -11T559 27L596 229Q631 202 678 186T772 170Q841 170 878 203T915 287Q915 331 881 369T765 463Q614 563 614 729Q614 794 634 847T700 959Q752 1023 769 1061T786 1145Q786 1214 745 1254T629 1294Q446 1294 446 1018V0H190V750H45V887Z"  />
<glyph unicode="&#xE0;" horiz-adv-x="1008" d="M53 219Q53 508 598 580V612Q598 701 568 733T469 766Q403 766 326 737T174 655L113 836Q193 890 308 923T541 956Q710 956 782 887T854 653V293Q854 244 883 216T958 184L885 -14Q689 -11 625 123Q576 50 500 13T334 -25Q208 -25 131 44T53 219ZM403 162Q496 162 598 283V432Q446 410 380 362T313 240Q313 162 403 162ZM147 1448H388L599 1114L464 1040L147 1448Z"  />
<glyph unicode="&#xE1;" horiz-adv-x="1008" d="M53 219Q53 508 598 580V612Q598 701 568 733T469 766Q403 766 326 737T174 655L113 836Q193 890 308 923T541 956Q710 956 782 887T854 653V293Q854 244 883 216T958 184L885 -14Q689 -11 625 123Q576 50 500 13T334 -25Q208 -25 131 44T53 219ZM403 162Q496 162 598 283V432Q446 410 380 362T313 240Q313 162 403 162ZM350 1114L561 1448H805L487 1040L350 1114Z"  />
<glyph unicode="&#xE2;" horiz-adv-x="1008" d="M53 219Q53 508 598 580V612Q598 701 568 733T469 766Q403 766 326 737T174 655L113 836Q193 890 308 923T541 956Q710 956 782 887T854 653V293Q854 244 883 216T958 184L885 -14Q689 -11 625 123Q576 50 500 13T334 -25Q208 -25 131 44T53 219ZM403 162Q496 162 598 283V432Q446 410 380 362T313 240Q313 162 403 162ZM163 1098L398 1448H556L790 1096L650 1038L476 1282L304 1038L163 1098Z"  />
<glyph unicode="&#xE3;" horiz-adv-x="1008" d="M53 219Q53 508 598 580V612Q598 701 568 733T469 766Q403 766 326 737T174 655L113 836Q193 890 308 923T541 956Q710 956 782 887T854 653V293Q854 244 883 216T958 184L885 -14Q689 -11 625 123Q576 50 500 13T334 -25Q208 -25 131 44T53 219ZM403 162Q496 162 598 283V432Q446 410 380 362T313 240Q313 162 403 162ZM130 1120L128 1139V1151Q128 1273 182 1341T335 1409Q431 1409 509 1331Q561 1279 580 1266T620 1253Q679 1253 679 1370V1395H835V1366Q835 1288 810 1226T737 1133T622 1102Q523 1102 454 1180Q413 1224 391 1240T345 1257Q316 1257 301 1226T286 1139V1120H130Z"  />
<glyph unicode="&#xE4;" horiz-adv-x="1008" d="M53 219Q53 508 598 580V612Q598 701 568 733T469 766Q403 766 326 737T174 655L113 836Q193 890 308 923T541 956Q710 956 782 887T854 653V293Q854 244 883 216T958 184L885 -14Q689 -11 625 123Q576 50 500 13T334 -25Q208 -25 131 44T53 219ZM403 162Q496 162 598 283V432Q446 410 380 362T313 240Q313 162 403 162ZM693 1145Q633 1145 596 1180T558 1276Q558 1336 595 1371T693 1407Q755 1407 793 1372T831 1276Q831 1216 793 1181T693 1145ZM257 1145Q197 1145 160 1180T122 1276Q122 1336 159 1371T257 1407Q319 1407 356 1372T394 1276Q394 1216 357 1181T257 1145Z"  />
<glyph unicode="&#xE5;" horiz-adv-x="1008" d="M53 219Q53 508 598 580V612Q598 701 568 733T469 766Q403 766 326 737T174 655L113 836Q193 890 308 923T541 956Q710 956 782 887T854 653V293Q854 244 883 216T958 184L885 -14Q689 -11 625 123Q576 50 500 13T334 -25Q208 -25 131 44T53 219ZM403 162Q496 162 598 283V432Q446 410 380 362T313 240Q313 162 403 162ZM476 1096Q382 1096 326 1149T269 1282Q269 1361 326 1411T476 1462Q568 1462 625 1412T683 1282Q683 1203 627 1150T476 1096ZM476 1192Q521 1192 545 1219T570 1280Q570 1319 543 1342T476 1366Q436 1366 410 1344T384 1280Q384 1246 407 1219T476 1192Z"  />
<glyph unicode="&#xE6;" horiz-adv-x="1538" d="M113 836Q193 890 305 923T530 956Q723 956 784 838Q893 956 1061 956Q1246 956 1352 838T1460 510L1321 469L858 412Q876 300 947 236T1122 172Q1265 172 1405 287L1473 106Q1398 46 1295 11T1079 -25Q824 -25 698 170Q653 82 558 29T344 -25Q216 -25 135 43T53 219Q53 350 194 432T610 547V598Q610 698 580 732T479 766Q410 766 329 736T174 655L113 836ZM414 162Q502 162 555 228T608 401Q313 371 313 240Q313 162 414 162ZM1042 766Q969 766 919 712T856 561L1184 600Q1179 674 1143 720T1042 766Z"  />
<glyph unicode="&#xE7;" horiz-adv-x="958" d="M410 -145Q410 -121 422 -92T459 -14Q284 15 175 141T66 449Q66 586 132 704T316 889T575 956Q665 956 754 931T907 862L817 676Q772 713 712 736T594 760Q476 760 403 679T330 463Q330 333 399 253T586 172Q651 172 717 198T829 266L907 94Q856 41 769 10T580 -25Q555 -75 555 -94Q555 -120 602 -141L645 -160Q735 -202 735 -289Q735 -375 664 -430T487 -485Q428 -485 372 -468T281 -422L330 -307Q361 -333 404 -350T485 -367Q529 -367 555 -351T582 -311Q582 -294 566 -280T496 -241Q410 -202 410 -145Z"  />
<glyph unicode="&#xE8;" horiz-adv-x="1010" d="M70 461Q70 599 129 713T295 892T532 956Q718 956 824 836T932 500L793 459L332 399Q353 294 421 233T594 172Q737 172 877 287L942 106Q868 45 764 10T551 -25Q406 -25 297 37T129 211T70 461ZM514 766Q436 766 387 707T326 547L655 590Q650 667 615 716T514 766ZM186 1448H427L638 1114L503 1040L186 1448Z"  />
<glyph unicode="&#xE9;" horiz-adv-x="1010" d="M389 1114L600 1448H844L526 1040L389 1114ZM70 461Q70 599 129 713T295 892T532 956Q718 956 824 836T932 500L793 459L332 399Q353 294 421 233T594 172Q737 172 877 287L942 106Q868 45 764 10T551 -25Q406 -25 297 37T129 211T70 461ZM514 766Q436 766 387 707T326 547L655 590Q650 667 615 716T514 766Z"  />
<glyph unicode="&#xEA;" horiz-adv-x="1010" d="M204 1098L439 1448H597L831 1096L691 1038L517 1282L345 1038L204 1098ZM70 461Q70 599 129 713T295 892T532 956Q718 956 824 836T932 500L793 459L332 399Q353 294 421 233T594 172Q737 172 877 287L942 106Q868 45 764 10T551 -25Q406 -25 297 37T129 211T70 461ZM514 766Q436 766 387 707T326 547L655 590Q650 667 615 716T514 766Z"  />
<glyph unicode="&#xEB;" horiz-adv-x="1010" d="M734 1145Q674 1145 637 1180T599 1276Q599 1336 636 1371T734 1407Q796 1407 834 1372T872 1276Q872 1216 834 1181T734 1145ZM298 1145Q238 1145 201 1180T163 1276Q163 1336 200 1371T298 1407Q360 1407 397 1372T435 1276Q435 1216 398 1181T298 1145ZM70 461Q70 599 129 713T295 892T532 956Q718 956 824 836T932 500L793 459L332 399Q353 294 421 233T594 172Q737 172 877 287L942 106Q868 45 764 10T551 -25Q406 -25 297 37T129 211T70 461ZM514 766Q436 766 387 707T326 547L655 590Q650 667 615 716T514 766Z"  />
<glyph unicode="&#xEC;" horiz-adv-x="514" d="M129 932H385V0H129V932ZM-70 1448H171L382 1114L247 1040L-70 1448Z"  />
<glyph unicode="&#xED;" horiz-adv-x="514" d="M134 1114L345 1448H589L271 1040L134 1114ZM129 932H385V0H129V932Z"  />
<glyph unicode="&#xEE;" horiz-adv-x="514" d="M-54 1098L181 1448H339L573 1096L433 1038L259 1282L87 1038L-54 1098ZM129 932H385V0H129V932Z"  />
<glyph unicode="&#xEF;" horiz-adv-x="514" d="M476 1145Q416 1145 379 1180T341 1276Q341 1336 378 1371T476 1407Q538 1407 576 1372T614 1276Q614 1216 576 1181T476 1145ZM40 1145Q-20 1145 -57 1180T-95 1276Q-95 1336 -58 1371T40 1407Q102 1407 139 1372T177 1276Q177 1216 140 1181T40 1145ZM129 932H385V0H129V932Z"  />
<glyph unicode="&#xF0;" horiz-adv-x="1120" d="M182 1130L383 1243Q283 1301 135 1337L182 1522Q413 1479 592 1364L889 1532L956 1401L719 1266Q865 1135 946 959T1028 578Q1028 401 967 263T793 50T530 -25Q395 -25 290 35T127 204T68 444Q68 577 127 696T292 885T524 956Q658 956 725 889Q659 1041 522 1155L252 1001L182 1130ZM319 463Q319 334 379 250T539 166Q657 166 720 266T784 547Q784 646 732 706T584 766Q468 766 394 680T319 463Z"  />
<glyph unicode="&#xF1;" horiz-adv-x="1096" d="M125 911L371 952V780Q446 864 537 910T723 956Q841 956 908 885T975 664V0H721V555Q721 649 700 692T627 735Q579 735 515 696T381 588V0H125V911ZM215 1120L213 1139V1151Q213 1273 267 1341T420 1409Q516 1409 594 1331Q646 1279 665 1266T705 1253Q764 1253 764 1370V1395H920V1366Q920 1288 895 1226T822 1133T707 1102Q608 1102 539 1180Q498 1224 476 1240T430 1257Q401 1257 386 1226T371 1139V1120H215Z"  />
<glyph unicode="&#xF2;" horiz-adv-x="1143" d="M68 463Q68 606 133 722T313 897T575 956Q724 956 838 895T1013 725T1075 485Q1075 340 1008 219T828 37T567 -25Q418 -25 305 37T130 211T68 463ZM332 481Q332 341 398 254T573 166Q675 166 743 247T811 459Q811 595 744 680T571 766Q467 766 400 686T332 481ZM245 1448H486L697 1114L562 1040L245 1448Z"  />
<glyph unicode="&#xF3;" horiz-adv-x="1143" d="M446 1114L657 1448H901L583 1040L446 1114ZM68 463Q68 606 133 722T313 897T575 956Q724 956 838 895T1013 725T1075 485Q1075 340 1008 219T828 37T567 -25Q418 -25 305 37T130 211T68 463ZM332 481Q332 341 398 254T573 166Q675 166 743 247T811 459Q811 595 744 680T571 766Q467 766 400 686T332 481Z"  />
<glyph unicode="&#xF4;" horiz-adv-x="1143" d="M258 1098L493 1448H651L885 1096L745 1038L571 1282L399 1038L258 1098ZM68 463Q68 606 133 722T313 897T575 956Q724 956 838 895T1013 725T1075 485Q1075 340 1008 219T828 37T567 -25Q418 -25 305 37T130 211T68 463ZM332 481Q332 341 398 254T573 166Q675 166 743 247T811 459Q811 595 744 680T571 766Q467 766 400 686T332 481Z"  />
<glyph unicode="&#xF5;" horiz-adv-x="1143" d="M68 463Q68 606 133 722T313 897T575 956Q724 956 838 895T1013 725T1075 485Q1075 340 1008 219T828 37T567 -25Q418 -25 305 37T130 211T68 463ZM332 481Q332 341 398 254T573 166Q675 166 743 247T811 459Q811 595 744 680T571 766Q467 766 400 686T332 481ZM225 1120L223 1139V1151Q223 1273 277 1341T430 1409Q526 1409 604 1331Q656 1279 675 1266T715 1253Q774 1253 774 1370V1395H930V1366Q930 1288 905 1226T832 1133T717 1102Q618 1102 549 1180Q508 1224 486 1240T440 1257Q411 1257 396 1226T381 1139V1120H225Z"  />
<glyph unicode="&#xF6;" horiz-adv-x="1143" d="M788 1145Q728 1145 691 1180T653 1276Q653 1336 690 1371T788 1407Q850 1407 888 1372T926 1276Q926 1216 888 1181T788 1145ZM352 1145Q292 1145 255 1180T217 1276Q217 1336 254 1371T352 1407Q414 1407 451 1372T489 1276Q489 1216 452 1181T352 1145ZM68 463Q68 606 133 722T313 897T575 956Q724 956 838 895T1013 725T1075 485Q1075 340 1008 219T828 37T567 -25Q418 -25 305 37T130 211T68 463ZM332 481Q332 341 398 254T573 166Q675 166 743 247T811 459Q811 595 744 680T571 766Q467 766 400 686T332 481Z"  />
<glyph unicode="&#xF7;" horiz-adv-x="1065" d="M532 758Q476 758 434 799T391 901Q391 961 433 1002T532 1044Q591 1044 633 1002T676 901Q676 843 634 801T532 758ZM74 602H991V436H74V602ZM391 135Q391 196 433 237T532 279Q591 279 633 237T676 135Q676 77 634 36T532 -6Q475 -6 433 35T391 135Z"  />
<glyph unicode="&#xF8;" horiz-adv-x="1143" d="M68 463Q68 606 133 722T313 897T575 956Q715 956 819 905L887 993H1030L915 842Q996 774 1035 680T1075 485Q1075 340 1008 219T828 37T567 -25Q429 -25 315 31L246 -61H100L219 98Q142 167 105 263T68 463ZM811 459Q811 561 768 643L444 205Q497 166 573 166Q675 166 743 247T811 459ZM332 481Q332 377 369 299L690 729Q641 766 571 766Q467 766 400 686T332 481Z"  />
<glyph unicode="&#xF9;" horiz-adv-x="1096" d="M119 932H375V377Q375 272 397 235T471 197Q513 197 568 225T707 324V932H961V285Q961 182 1001 4L756 -18Q737 53 727 139Q563 -25 375 -25Q253 -25 186 46T119 256V932ZM212 1448H453L664 1114L529 1040L212 1448Z"  />
<glyph unicode="&#xFA;" horiz-adv-x="1096" d="M416 1114L627 1448H871L553 1040L416 1114ZM119 932H375V377Q375 272 397 235T471 197Q513 197 568 225T707 324V932H961V285Q961 182 1001 4L756 -18Q737 53 727 139Q563 -25 375 -25Q253 -25 186 46T119 256V932Z"  />
<glyph unicode="&#xFB;" horiz-adv-x="1096" d="M225 1098L460 1448H618L852 1096L712 1038L538 1282L366 1038L225 1098ZM119 932H375V377Q375 272 397 235T471 197Q513 197 568 225T707 324V932H961V285Q961 182 1001 4L756 -18Q737 53 727 139Q563 -25 375 -25Q253 -25 186 46T119 256V932Z"  />
<glyph unicode="&#xFC;" horiz-adv-x="1096" d="M755 1145Q695 1145 658 1180T620 1276Q620 1336 657 1371T755 1407Q817 1407 855 1372T893 1276Q893 1216 855 1181T755 1145ZM319 1145Q259 1145 222 1180T184 1276Q184 1336 221 1371T319 1407Q381 1407 418 1372T456 1276Q456 1216 419 1181T319 1145ZM119 932H375V377Q375 272 397 235T471 197Q513 197 568 225T707 324V932H961V285Q961 182 1001 4L756 -18Q737 53 727 139Q563 -25 375 -25Q253 -25 186 46T119 256V932Z"  />
<glyph unicode="&#xFD;" horiz-adv-x="973" d="M20 -289Q116 -278 205 -212T334 -53L367 25L8 932H274L492 322L705 932H963L575 -68Q508 -243 380 -357T98 -485L20 -289ZM367 1114L578 1448H822L504 1040L367 1114Z"  />
<glyph unicode="&#xFE;" horiz-adv-x="1106" d="M129 1427L385 1468V809Q422 879 488 917T643 956Q758 956 847 897T985 732T1034 496Q1034 350 976 231T809 43T563 -25Q447 -25 385 14V-440L129 -481V1427ZM385 252Q385 209 422 188T520 166Q638 166 704 249T770 479Q770 605 722 680T594 756Q540 756 485 720T385 616V252Z"  />
<glyph unicode="&#xFF;" horiz-adv-x="973" d="M20 -289Q116 -278 205 -212T334 -53L367 25L8 932H274L492 322L705 932H963L575 -68Q508 -243 380 -357T98 -485L20 -289ZM709 1145Q649 1145 612 1180T574 1276Q574 1336 611 1371T709 1407Q771 1407 809 1372T847 1276Q847 1216 809 1181T709 1145ZM273 1145Q213 1145 176 1180T138 1276Q138 1336 175 1371T273 1407Q335 1407 372 1372T410 1276Q410 1216 373 1181T273 1145Z"  />
<glyph unicode="&#x100;" horiz-adv-x="1300" d="M524 1376H776L1290 0H1022L911 307H383L272 0H10L524 1376ZM461 526H831L647 1042L461 526ZM350 1702H938V1550H350V1702Z"  />
<glyph unicode="&#x101;" horiz-adv-x="1008" d="M53 219Q53 508 598 580V612Q598 701 568 733T469 766Q403 766 326 737T174 655L113 836Q193 890 308 923T541 956Q710 956 782 887T854 653V293Q854 244 883 216T958 184L885 -14Q689 -11 625 123Q576 50 500 13T334 -25Q208 -25 131 44T53 219ZM403 162Q496 162 598 283V432Q446 410 380 362T313 240Q313 162 403 162ZM214 1341H740V1182H214V1341Z"  />
<glyph unicode="&#x102;" horiz-adv-x="1300" d="M524 1376H776L1290 0H1022L911 307H383L272 0H10L524 1376ZM461 526H831L647 1042L461 526ZM645 1464Q502 1464 420 1538T338 1735L342 1788H481L480 1765Q480 1696 514 1653T645 1610Q810 1610 810 1766L809 1788H948L952 1735Q952 1611 869 1538T645 1464Z"  />
<glyph unicode="&#x103;" horiz-adv-x="1008" d="M53 219Q53 508 598 580V612Q598 701 568 733T469 766Q403 766 326 737T174 655L113 836Q193 890 308 923T541 956Q710 956 782 887T854 653V293Q854 244 883 216T958 184L885 -14Q689 -11 625 123Q576 50 500 13T334 -25Q208 -25 131 44T53 219ZM403 162Q496 162 598 283V432Q446 410 380 362T313 240Q313 162 403 162ZM476 1110Q341 1110 260 1185T179 1389L183 1444H323V1419Q323 1336 363 1294T476 1251Q552 1251 591 1295T630 1419V1444H769L771 1389Q771 1261 691 1186T476 1110Z"  />
<glyph unicode="&#x104;" horiz-adv-x="1300" d="M524 1376H776L1290 0Q1199 -88 1162 -149T1124 -258Q1124 -326 1201 -326Q1242 -326 1292 -305L1311 -457Q1224 -485 1139 -485Q1042 -485 986 -438T930 -303Q930 -248 956 -195T1041 -73L1102 0H1022L911 307H383L272 0H10L524 1376ZM461 526H831L647 1042L461 526Z"  />
<glyph unicode="&#x105;" horiz-adv-x="1010" d="M53 219Q53 508 598 580V612Q598 701 568 733T469 766Q403 766 326 737T174 655L113 836Q193 890 308 923T541 956Q710 956 782 887T854 653V293Q854 244 883 216T958 184L885 -12L887 -14Q735 -166 735 -258Q735 -326 809 -326Q856 -326 903 -305L922 -457Q834 -485 750 -485Q653 -485 597 -438T541 -303Q541 -245 569 -189T662 -61L727 18Q655 56 625 123Q576 50 500 13T334 -25Q208 -25 131 44T53 219ZM403 162Q496 162 598 283V432Q446 410 380 362T313 240Q313 162 403 162Z"  />
<glyph unicode="&#x106;" horiz-adv-x="1382" d="M80 662Q80 870 176 1038T447 1298T844 1391Q976 1391 1102 1361T1317 1278L1217 1055Q1143 1105 1043 1133T834 1161Q691 1161 580 1101T410 931T350 684Q350 546 412 436T584 266T829 205Q937 205 1045 239T1229 330L1335 137Q1250 64 1109 20T813 -25Q605 -25 436 61T174 303T80 662ZM536 1587L979 1782L1051 1593L586 1450L536 1587Z"  />
<glyph unicode="&#x107;" horiz-adv-x="956" d="M387 1114L598 1448H842L524 1040L387 1114ZM66 449Q66 586 132 704T316 889T575 956Q665 956 754 931T907 862L817 676Q772 713 712 736T594 760Q476 760 403 679T330 463Q330 333 399 253T586 172Q651 172 717 198T829 266L907 94Q851 38 763 7T567 -25Q422 -25 307 36T129 206T66 449Z"  />
<glyph unicode="&#x108;" horiz-adv-x="1382" d="M80 662Q80 870 176 1038T447 1298T844 1391Q976 1391 1102 1361T1317 1278L1217 1055Q1143 1105 1043 1133T834 1161Q691 1161 580 1101T410 931T350 684Q350 546 412 436T584 266T829 205Q937 205 1045 239T1229 330L1335 137Q1250 64 1109 20T813 -25Q605 -25 436 61T174 303T80 662ZM406 1558L664 1784H865L1121 1558L990 1470L764 1650L539 1470L406 1558Z"  />
<glyph unicode="&#x109;" horiz-adv-x="956" d="M202 1098L437 1448H595L829 1096L689 1038L515 1282L343 1038L202 1098ZM66 449Q66 586 132 704T316 889T575 956Q665 956 754 931T907 862L817 676Q772 713 712 736T594 760Q476 760 403 679T330 463Q330 333 399 253T586 172Q651 172 717 198T829 266L907 94Q851 38 763 7T567 -25Q422 -25 307 36T129 206T66 449Z"  />
<glyph unicode="&#x10A;" horiz-adv-x="1382" d="M764 1485Q695 1485 655 1525T615 1626Q615 1690 656 1729T764 1769Q828 1769 871 1730T914 1626Q914 1566 873 1526T764 1485ZM80 662Q80 870 176 1038T447 1298T844 1391Q976 1391 1102 1361T1317 1278L1217 1055Q1143 1105 1043 1133T834 1161Q691 1161 580 1101T410 931T350 684Q350 546 412 436T584 266T829 205Q937 205 1045 239T1229 330L1335 137Q1250 64 1109 20T813 -25Q605 -25 436 61T174 303T80 662Z"  />
<glyph unicode="&#x10B;" horiz-adv-x="956" d="M66 449Q66 586 132 704T316 889T575 956Q665 956 754 931T907 862L817 676Q772 713 712 736T594 760Q476 760 403 679T330 463Q330 333 399 253T586 172Q651 172 717 198T829 266L907 94Q851 38 763 7T567 -25Q422 -25 307 36T129 206T66 449ZM515 1135Q448 1135 407 1175T366 1278Q366 1341 407 1381T515 1421Q581 1421 623 1380T665 1278Q665 1217 623 1176T515 1135Z"  />
<glyph unicode="&#x10C;" horiz-adv-x="1382" d="M80 662Q80 870 176 1038T447 1298T844 1391Q976 1391 1102 1361T1317 1278L1217 1055Q1143 1105 1043 1133T834 1161Q691 1161 580 1101T410 931T350 684Q350 546 412 436T584 266T829 205Q937 205 1045 239T1229 330L1335 137Q1250 64 1109 20T813 -25Q605 -25 436 61T174 303T80 662ZM406 1696L539 1784L764 1603L990 1784L1121 1696L863 1470H662L406 1696Z"  />
<glyph unicode="&#x10D;" horiz-adv-x="956" d="M202 1417L343 1477L515 1231L689 1477L829 1419L595 1067H437L202 1417ZM66 449Q66 586 132 704T316 889T575 956Q665 956 754 931T907 862L817 676Q772 713 712 736T594 760Q476 760 403 679T330 463Q330 333 399 253T586 172Q651 172 717 198T829 266L907 94Q851 38 763 7T567 -25Q422 -25 307 36T129 206T66 449Z"  />
<glyph unicode="&#x10E;" horiz-adv-x="1491" d="M170 1366H655Q880 1366 1054 1285T1316 1055T1405 705Q1405 487 1305 328T1018 84T578 0H170V1366ZM557 221Q833 221 981 342T1130 692Q1130 906 999 1025T627 1145H434V221H557ZM377 1696L510 1784L735 1603L961 1784L1092 1696L834 1470H633L377 1696Z"  />
<glyph unicode="&#x10F;" horiz-adv-x="1110" d="M1403 1530L1255 1106H1108L1159 1509L1403 1530ZM70 438Q70 583 130 702T302 889T559 956Q649 956 721 928V1427L975 1468V285Q975 179 1018 0L780 -14Q762 57 752 121Q666 -25 467 -25Q351 -25 260 35T120 202T70 438ZM522 166Q576 166 627 197T721 289V649Q721 705 685 735T578 766Q463 766 400 686T336 455Q336 320 383 243T522 166Z"  />
<glyph unicode="&#x110;" horiz-adv-x="1522" d="M53 795H201V1366H686Q911 1366 1085 1285T1347 1055T1436 705Q1436 487 1335 327T1046 84T608 0H201V592H53V795ZM588 221Q864 221 1012 342T1161 692Q1161 907 1029 1026T657 1145H465V795H780V592H465V221H588Z"  />
<glyph unicode="&#x111;" horiz-adv-x="1110" d="M438 1204H721V1427L975 1468V1204H1130V1081H975V285Q975 179 1018 0L780 -14Q762 57 752 121Q666 -25 467 -25Q351 -25 260 35T120 202T70 438Q70 583 130 702T302 889T559 956Q649 956 721 928V1081H438V1204ZM522 166Q576 166 627 197T721 289V649Q721 705 685 735T578 766Q463 766 400 686T336 455Q336 320 383 243T522 166Z"  />
<glyph unicode="&#x112;" horiz-adv-x="1126" d="M170 1366H1032V1145H434V803H905V584H434V221H1047V0H170V1366ZM315 1702H903V1550H315V1702Z"  />
<glyph unicode="&#x113;" horiz-adv-x="1010" d="M70 461Q70 599 129 713T295 892T532 956Q718 956 824 836T932 500L793 459L332 399Q353 294 421 233T594 172Q737 172 877 287L942 106Q868 45 764 10T551 -25Q406 -25 297 37T129 211T70 461ZM514 766Q436 766 387 707T326 547L655 590Q650 667 615 716T514 766ZM250 1341H776V1182H250V1341Z"  />
<glyph unicode="&#x114;" horiz-adv-x="1126" d="M170 1366H1032V1145H434V803H905V584H434V221H1047V0H170V1366ZM610 1464Q467 1464 385 1538T303 1735L307 1788H446L445 1765Q445 1696 479 1653T610 1610Q775 1610 775 1766L774 1788H913L917 1735Q917 1611 834 1538T610 1464Z"  />
<glyph unicode="&#x115;" horiz-adv-x="1010" d="M70 461Q70 599 129 713T295 892T532 956Q718 956 824 836T932 500L793 459L332 399Q353 294 421 233T594 172Q737 172 877 287L942 106Q868 45 764 10T551 -25Q406 -25 297 37T129 211T70 461ZM514 766Q436 766 387 707T326 547L655 590Q650 667 615 716T514 766ZM517 1110Q382 1110 301 1185T220 1389L224 1444H364V1419Q364 1336 404 1294T517 1251Q593 1251 632 1295T671 1419V1444H810L812 1389Q812 1261 732 1186T517 1110Z"  />
<glyph unicode="&#x116;" horiz-adv-x="1126" d="M610 1485Q541 1485 501 1525T461 1626Q461 1690 502 1729T610 1769Q674 1769 717 1730T760 1626Q760 1566 719 1526T610 1485ZM170 1366H1032V1145H434V803H905V584H434V221H1047V0H170V1366Z"  />
<glyph unicode="&#x117;" horiz-adv-x="1010" d="M70 461Q70 599 129 713T295 892T532 956Q718 956 824 836T932 500L793 459L332 399Q353 294 421 233T594 172Q737 172 877 287L942 106Q868 45 764 10T551 -25Q406 -25 297 37T129 211T70 461ZM514 766Q436 766 387 707T326 547L655 590Q650 667 615 716T514 766ZM517 1135Q450 1135 409 1175T368 1278Q368 1341 409 1381T517 1421Q583 1421 625 1380T667 1278Q667 1217 625 1176T517 1135Z"  />
<glyph unicode="&#x118;" horiz-adv-x="1126" d="M170 1366H1032V1145H434V803H905V584H434V221H1047V0Q881 -154 881 -258Q881 -326 957 -326Q999 -326 1049 -305L1067 -457Q980 -485 895 -485Q798 -485 742 -438T686 -303Q686 -249 710 -197T798 -73L858 0H170V1366Z"  />
<glyph unicode="&#x119;" horiz-adv-x="1010" d="M70 461Q70 599 129 713T295 892T532 956Q718 956 824 836T932 500L793 459L332 399Q353 294 421 233T594 172Q737 172 877 287L942 106Q890 67 840 41Q748 -27 686 -113T623 -258Q623 -326 698 -326Q746 -326 793 -305L811 -457Q723 -485 639 -485Q540 -485 484 -438T428 -303Q428 -250 452 -198T527 -89L582 -23L567 -25H551Q406 -25 297 37T129 211T70 461ZM514 766Q436 766 387 707T326 547L655 590Q650 667 615 716T514 766Z"  />
<glyph unicode="&#x11A;" horiz-adv-x="1126" d="M170 1366H1032V1145H434V803H905V584H434V221H1047V0H170V1366ZM252 1696L385 1784L610 1603L836 1784L967 1696L709 1470H508L252 1696Z"  />
<glyph unicode="&#x11B;" horiz-adv-x="1010" d="M204 1417L345 1477L517 1231L691 1477L831 1419L597 1067H439L204 1417ZM70 461Q70 599 129 713T295 892T532 956Q718 956 824 836T932 500L793 459L332 399Q353 294 421 233T594 172Q737 172 877 287L942 106Q868 45 764 10T551 -25Q406 -25 297 37T129 211T70 461ZM514 766Q436 766 387 707T326 547L655 590Q650 667 615 716T514 766Z"  />
<glyph unicode="&#x11C;" horiz-adv-x="1448" d="M404 1558L662 1784H863L1119 1558L988 1470L762 1650L537 1470L404 1558ZM78 659Q78 861 174 1030T449 1295T858 1391Q982 1391 1107 1363T1323 1290L1223 1067Q1145 1109 1044 1135T848 1161Q699 1161 586 1100T410 927T348 676Q348 537 413 429T595 263T858 205Q965 205 1075 225V526H801V745H1333V37Q1209 11 1068 -7T836 -25Q621 -25 447 61T175 303T78 659Z"  />
<glyph unicode="&#x11D;" horiz-adv-x="1051" d="M183 1098L418 1448H576L810 1096L670 1038L496 1282L324 1038L183 1098ZM125 162Q125 258 272 344Q181 387 133 462T84 631Q84 775 200 865T494 956Q556 956 637 937Q718 918 766 918H883Q948 918 1008 938L1022 754H922Q886 754 846 760Q907 699 907 604Q907 518 849 449T691 341T479 303H449L420 305Q350 266 350 240Q350 224 381 210T510 169L645 133Q782 96 847 62T949 -20T987 -137Q987 -229 919 -309T731 -437T469 -485Q288 -485 168 -418T47 -246Q47 -106 272 23Q201 49 163 80T125 162ZM272 -199Q272 -250 328 -278T481 -307Q596 -307 673 -271T750 -176Q750 -150 731 -132T668 -95T436 -25L383 -59Q272 -130 272 -199ZM494 473Q571 473 618 516T666 623Q666 689 618 737T496 786Q422 786 374 740T326 627Q326 561 373 517T494 473Z"  />
<glyph unicode="&#x11E;" horiz-adv-x="1448" d="M78 659Q78 861 174 1030T449 1295T858 1391Q982 1391 1107 1363T1323 1290L1223 1067Q1145 1109 1044 1135T848 1161Q699 1161 586 1100T410 927T348 676Q348 537 413 429T595 263T858 205Q965 205 1075 225V526H801V745H1333V37Q1209 11 1068 -7T836 -25Q621 -25 447 61T175 303T78 659ZM762 1464Q619 1464 537 1538T455 1735L459 1788H598L597 1765Q597 1696 631 1653T762 1610Q927 1610 927 1766L926 1788H1065L1069 1735Q1069 1611 986 1538T762 1464Z"  />
<glyph unicode="&#x11F;" horiz-adv-x="1051" d="M125 162Q125 258 272 344Q181 387 133 462T84 631Q84 775 200 865T494 956Q556 956 637 937Q718 918 766 918H883Q948 918 1008 938L1022 754H922Q886 754 846 760Q907 699 907 604Q907 518 849 449T691 341T479 303H449L420 305Q350 266 350 240Q350 224 381 210T510 169L645 133Q782 96 847 62T949 -20T987 -137Q987 -229 919 -309T731 -437T469 -485Q288 -485 168 -418T47 -246Q47 -106 272 23Q201 49 163 80T125 162ZM272 -199Q272 -250 328 -278T481 -307Q596 -307 673 -271T750 -176Q750 -150 731 -132T668 -95T436 -25L383 -59Q272 -130 272 -199ZM494 473Q571 473 618 516T666 623Q666 689 618 737T496 786Q422 786 374 740T326 627Q326 561 373 517T494 473ZM496 1110Q361 1110 280 1185T199 1389L203 1444H343V1419Q343 1336 383 1294T496 1251Q572 1251 611 1295T650 1419V1444H789L791 1389Q791 1261 711 1186T496 1110Z"  />
<glyph unicode="&#x120;" horiz-adv-x="1448" d="M762 1485Q693 1485 653 1525T613 1626Q613 1690 654 1729T762 1769Q826 1769 869 1730T912 1626Q912 1566 871 1526T762 1485ZM78 659Q78 861 174 1030T449 1295T858 1391Q982 1391 1107 1363T1323 1290L1223 1067Q1145 1109 1044 1135T848 1161Q699 1161 586 1100T410 927T348 676Q348 537 413 429T595 263T858 205Q965 205 1075 225V526H801V745H1333V37Q1209 11 1068 -7T836 -25Q621 -25 447 61T175 303T78 659Z"  />
<glyph unicode="&#x121;" horiz-adv-x="1051" d="M125 162Q125 258 272 344Q181 387 133 462T84 631Q84 775 200 865T494 956Q556 956 637 937Q718 918 766 918H883Q948 918 1008 938L1022 754H922Q886 754 846 760Q907 699 907 604Q907 518 849 449T691 341T479 303H449L420 305Q350 266 350 240Q350 224 381 210T510 169L645 133Q782 96 847 62T949 -20T987 -137Q987 -229 919 -309T731 -437T469 -485Q288 -485 168 -418T47 -246Q47 -106 272 23Q201 49 163 80T125 162ZM272 -199Q272 -250 328 -278T481 -307Q596 -307 673 -271T750 -176Q750 -150 731 -132T668 -95T436 -25L383 -59Q272 -130 272 -199ZM494 473Q571 473 618 516T666 623Q666 689 618 737T496 786Q422 786 374 740T326 627Q326 561 373 517T494 473ZM496 1135Q429 1135 388 1175T347 1278Q347 1341 388 1381T496 1421Q562 1421 604 1380T646 1278Q646 1217 604 1176T496 1135Z"  />
<glyph unicode="&#x122;" horiz-adv-x="1448" d="M881 -100Q930 -164 930 -248Q930 -324 876 -392T721 -510L625 -408Q729 -360 729 -260Q729 -164 663 -100H881ZM78 659Q78 861 174 1030T449 1295T858 1391Q982 1391 1107 1363T1323 1290L1223 1067Q1145 1109 1044 1135T848 1161Q699 1161 586 1100T410 927T348 676Q348 537 413 429T595 263T858 205Q965 205 1075 225V526H801V745H1333V37Q1209 11 1068 -7T836 -25Q621 -25 447 61T175 303T78 659Z"  />
<glyph unicode="&#x123;" horiz-adv-x="1051" d="M372 1047Q323 1111 323 1195Q323 1271 377 1339T532 1457L628 1355Q524 1307 524 1207Q524 1111 590 1047H372ZM125 162Q125 258 272 344Q181 387 133 462T84 631Q84 775 200 865T494 956Q556 956 637 937Q718 918 766 918H883Q948 918 1008 938L1022 754H922Q886 754 846 760Q907 699 907 604Q907 518 849 449T691 341T479 303H449L420 305Q350 266 350 240Q350 224 381 210T510 169L645 133Q782 96 847 62T949 -20T987 -137Q987 -229 919 -309T731 -437T469 -485Q288 -485 168 -418T47 -246Q47 -106 272 23Q201 49 163 80T125 162ZM272 -199Q272 -250 328 -278T481 -307Q596 -307 673 -271T750 -176Q750 -150 731 -132T668 -95T436 -25L383 -59Q272 -130 272 -199ZM494 473Q571 473 618 516T666 623Q666 689 618 737T496 786Q422 786 374 740T326 627Q326 561 373 517T494 473Z"  />
<glyph unicode="&#x124;" horiz-adv-x="1563" d="M170 1366H434V807H1128V1366H1391V0H1128V588H434V0H170V1366ZM422 1558L680 1784H881L1137 1558L1006 1470L780 1650L555 1470L422 1558Z"  />
<glyph unicode="&#x125;" horiz-adv-x="1100" d="M-54 1583L181 1933H339L573 1581L433 1523L259 1767L87 1523L-54 1583ZM129 1427L385 1468V784Q544 956 725 956Q845 956 912 885T979 664V0H725V555Q725 649 704 692T631 735Q584 735 518 693T385 580V0H129V1427Z"  />
<glyph unicode="&#x126;" horiz-adv-x="1591" d="M20 1114H182V1366H446V1114H1141V1366H1403V1114H1567V993H1403V0H1141V588H446V0H182V993H20V1114ZM1141 807V993H446V807H1141Z"  />
<glyph unicode="&#x127;" horiz-adv-x="1100" d="M-8 1204H129V1427L385 1468V1204H686V1081H385V784Q544 956 725 956Q845 956 912 885T979 664V0H725V555Q725 649 704 692T631 735Q584 735 518 693T385 580V0H129V1081H-8V1204Z"  />
<glyph unicode="&#x128;" horiz-adv-x="604" d="M170 1366H434V0H170V1366ZM-77 1489L-79 1507V1521Q-79 1636 -21 1701T144 1767Q211 1767 257 1747T339 1702T404 1657T468 1636Q536 1636 536 1743V1763H693V1732Q693 1613 634 1547T466 1481Q363 1481 278 1547Q219 1591 198 1601T153 1612Q117 1612 98 1584T79 1507L80 1493L81 1489H-77Z"  />
<glyph unicode="&#x129;" horiz-adv-x="514" d="M129 932H385V0H129V932ZM-87 1120L-89 1139V1151Q-89 1273 -35 1341T118 1409Q214 1409 292 1331Q344 1279 363 1266T403 1253Q462 1253 462 1370V1395H618V1366Q618 1288 593 1226T520 1133T405 1102Q306 1102 237 1180Q196 1224 174 1240T128 1257Q99 1257 84 1226T69 1139V1120H-87Z"  />
<glyph unicode="&#x12A;" horiz-adv-x="604" d="M170 1366H434V0H170V1366ZM11 1702H599V1550H11V1702Z"  />
<glyph unicode="&#x12B;" horiz-adv-x="514" d="M129 932H385V0H129V932ZM-3 1341H523V1182H-3V1341Z"  />
<glyph unicode="&#x12E;" horiz-adv-x="604" d="M170 1366H434V0Q268 -154 268 -258Q268 -326 345 -326Q386 -326 436 -305L455 -457Q368 -485 283 -485Q184 -485 128 -438T72 -303Q72 -248 97 -195T184 -73L246 0H170V1366Z"  />
<glyph unicode="&#x12F;" horiz-adv-x="514" d="M129 932H385V0Q219 -154 219 -258Q219 -326 296 -326Q337 -326 387 -305L406 -457Q318 -485 233 -485Q134 -485 79 -438T23 -303Q23 -248 48 -195T135 -73L197 0H129V932ZM258 1135Q190 1135 148 1176T106 1278Q106 1339 148 1380T258 1421Q324 1421 366 1380T408 1278Q408 1217 366 1176T258 1135Z"  />
<glyph unicode="&#x130;" horiz-adv-x="604" d="M170 1366H434V0H170V1366ZM306 1485Q237 1485 197 1525T157 1626Q157 1690 198 1729T306 1769Q370 1769 413 1730T456 1626Q456 1566 415 1526T306 1485Z"  />
<glyph unicode="&#x131;" horiz-adv-x="514" d="M129 932H385V0H129V932Z"  />
<glyph unicode="&#x132;" horiz-adv-x="1210" d="M170 1366H434V0H170V1366ZM518 -164Q645 -153 710 -55T776 225V1366H1040V233Q1040 -51 930 -202T600 -385L518 -164Z"  />
<glyph unicode="&#x133;" horiz-adv-x="1030" d="M258 1135Q190 1135 148 1176T106 1278Q106 1339 148 1380T258 1421Q324 1421 366 1380T408 1278Q408 1217 366 1176T258 1135ZM129 932H385V0H129V932ZM770 1135Q702 1135 660 1176T618 1278Q618 1339 660 1380T770 1421Q836 1421 878 1380T920 1278Q920 1217 878 1176T770 1135ZM643 932H899V47Q899 -182 790 -318T471 -485L395 -287Q528 -266 585 -185T643 35V932Z"  />
<glyph unicode="&#x134;" horiz-adv-x="604" d="M-86 -164Q41 -153 106 -55T172 225V1366H436V233Q436 -51 326 -202T-4 -385L-86 -164ZM-52 1558L206 1784H407L663 1558L532 1470L306 1650L81 1470L-52 1558Z"  />
<glyph unicode="&#x135;" horiz-adv-x="514" d="M129 932H385V47Q385 -182 276 -318T-43 -485L-119 -287Q14 -266 71 -185T129 35V932ZM-55 1098L180 1448H338L571 1096L432 1038L258 1282L86 1038L-55 1098Z"  />
<glyph unicode="&#x136;" horiz-adv-x="1274" d="M758 -100Q807 -164 807 -248Q807 -324 753 -392T598 -510L502 -408Q606 -360 606 -260Q606 -164 540 -100H758ZM170 1366H434V825H471L932 1366H1257L694 727L1286 0H952L471 606H434V0H170V1366Z"  />
<glyph unicode="&#x137;" horiz-adv-x="1065" d="M648 -100Q697 -164 697 -248Q697 -324 643 -392T488 -510L392 -408Q496 -360 496 -260Q496 -164 430 -100H648ZM129 1427L385 1468V610H418L723 932H1047L637 524L1065 0H748L418 424H385V0H129V1427Z"  />
<glyph unicode="&#x139;" d="M76 1587L519 1782L591 1593L126 1450L76 1587ZM170 1366H434V221H1053V0H170V1366Z"  />
<glyph unicode="&#x13A;" horiz-adv-x="514" d="M134 1599L345 1933H589L271 1525L134 1599ZM129 1427L385 1468V0H129V1427Z"  />
<glyph unicode="&#x13B;" horiz-adv-x="1085" d="M717 -100Q766 -164 766 -248Q766 -324 712 -392T557 -510L461 -408Q565 -360 565 -260Q565 -164 499 -100H717ZM170 1366H434V221H1053V0H170V1366Z"  />
<glyph unicode="&#x13C;" horiz-adv-x="514" d="M358 -100Q407 -164 407 -248Q407 -324 353 -392T198 -510L102 -408Q206 -360 206 -260Q206 -164 140 -100H358ZM129 1427L385 1468V0H129V1427Z"  />
<glyph unicode="&#x13D;" horiz-adv-x="1100" d="M961 1532L813 1108H666L717 1511L961 1532ZM170 1366H434V221H1053V0H170V1366Z"  />
<glyph unicode="&#x13E;" horiz-adv-x="514" d="M813 1532L665 1108H518L569 1511L813 1532ZM129 1427L385 1468V0H129V1427Z"  />
<glyph unicode="&#x13F;" horiz-adv-x="1155" d="M170 1366H434V221H1053V0H170V1366ZM870 580Q805 580 759 625T712 735Q712 802 758 847T870 893Q936 893 982 847T1028 735Q1028 672 983 626T870 580Z"  />
<glyph unicode="&#x140;" horiz-adv-x="868" d="M129 1427L385 1468V0H129V1427ZM688 580Q623 580 577 625T530 735Q530 802 576 847T688 893Q754 893 800 847T846 735Q846 672 801 626T688 580Z"  />
<glyph unicode="&#x141;" horiz-adv-x="1112" d="M41 625L201 715V1366H465V864L766 1036V864L465 692V221H1081V0H201V545L41 455V625Z"  />
<glyph unicode="&#x142;" horiz-adv-x="586" d="M14 618L170 707V1427L426 1468V852L582 940V768L426 680V0H170V537L14 449V618Z"  />
<glyph unicode="&#x143;" horiz-adv-x="1530" d="M536 1587L979 1782L1051 1593L586 1450L536 1587ZM170 1366H436L1102 403V1366H1360V0H1092L428 956V0H170V1366Z"  />
<glyph unicode="&#x144;" horiz-adv-x="1096" d="M436 1114L647 1448H891L573 1040L436 1114ZM125 911L371 952V780Q446 864 537 910T723 956Q841 956 908 885T975 664V0H721V555Q721 649 700 692T627 735Q579 735 515 696T381 588V0H125V911Z"  />
<glyph unicode="&#x145;" horiz-adv-x="1530" d="M863 -100Q912 -164 912 -248Q912 -324 858 -392T703 -510L607 -408Q711 -360 711 -260Q711 -164 645 -100H863ZM170 1366H436L1102 403V1366H1360V0H1092L428 956V0H170V1366Z"  />
<glyph unicode="&#x146;" horiz-adv-x="1096" d="M644 -100Q693 -164 693 -248Q693 -324 639 -392T484 -510L388 -408Q492 -360 492 -260Q492 -164 426 -100H644ZM125 911L371 952V780Q446 864 537 910T723 956Q841 956 908 885T975 664V0H721V555Q721 649 700 692T627 735Q579 735 515 696T381 588V0H125V911Z"  />
<glyph unicode="&#x147;" horiz-adv-x="1530" d="M170 1366H436L1102 403V1366H1360V0H1092L428 956V0H170V1366ZM406 1696L539 1784L764 1603L990 1784L1121 1696L863 1470H662L406 1696Z"  />
<glyph unicode="&#x148;" horiz-adv-x="1096" d="M246 1417L387 1477L559 1231L733 1477L873 1419L639 1067H481L246 1417ZM125 911L371 952V780Q446 864 537 910T723 956Q841 956 908 885T975 664V0H721V555Q721 649 700 692T627 735Q579 735 515 696T381 588V0H125V911Z"  />
<glyph unicode="&#x149;" horiz-adv-x="1096" d="M262 1497Q311 1433 311 1349Q311 1273 257 1205T102 1087L6 1189Q110 1237 110 1337Q110 1433 44 1497H262ZM125 911L371 952V780Q446 864 537 910T723 956Q841 956 908 885T975 664V0H721V555Q721 649 700 692T627 735Q579 735 515 696T381 588V0H125V911Z"  />
<glyph unicode="&#x14C;" horiz-adv-x="1640" d="M78 680Q78 873 173 1039T440 1298T825 1391Q1038 1391 1205 1304T1466 1059T1561 709Q1561 513 1463 341T1192 72T807 -25Q598 -25 432 67T172 322T78 680ZM354 688Q354 558 412 444T574 265T813 199Q949 199 1057 264T1225 444T1286 692Q1286 823 1229 932T1065 1104T821 1167Q684 1167 577 1104T412 930T354 688ZM524 1702H1112V1550H524V1702Z"  />
<glyph unicode="&#x14D;" horiz-adv-x="1143" d="M309 1341H835V1182H309V1341ZM68 463Q68 606 133 722T313 897T575 956Q724 956 838 895T1013 725T1075 485Q1075 340 1008 219T828 37T567 -25Q418 -25 305 37T130 211T68 463ZM332 481Q332 341 398 254T573 166Q675 166 743 247T811 459Q811 595 744 680T571 766Q467 766 400 686T332 481Z"  />
<glyph unicode="&#x14E;" horiz-adv-x="1640" d="M78 680Q78 873 173 1039T440 1298T825 1391Q1038 1391 1205 1304T1466 1059T1561 709Q1561 513 1463 341T1192 72T807 -25Q598 -25 432 67T172 322T78 680ZM354 688Q354 558 412 444T574 265T813 199Q949 199 1057 264T1225 444T1286 692Q1286 823 1229 932T1065 1104T821 1167Q684 1167 577 1104T412 930T354 688ZM819 1464Q676 1464 594 1538T512 1735L516 1788H655L654 1765Q654 1696 688 1653T819 1610Q984 1610 984 1766L983 1788H1122L1126 1735Q1126 1611 1043 1538T819 1464Z"  />
<glyph unicode="&#x14F;" horiz-adv-x="1143" d="M68 463Q68 606 133 722T313 897T575 956Q724 956 838 895T1013 725T1075 485Q1075 340 1008 219T828 37T567 -25Q418 -25 305 37T130 211T68 463ZM332 481Q332 341 398 254T573 166Q675 166 743 247T811 459Q811 595 744 680T571 766Q467 766 400 686T332 481ZM571 1110Q436 1110 355 1185T274 1389L278 1444H418V1419Q418 1336 458 1294T571 1251Q647 1251 686 1295T725 1419V1444H864L866 1389Q866 1261 786 1186T571 1110Z"  />
<glyph unicode="&#x150;" horiz-adv-x="1640" d="M905 1534L1096 1786H1333L1044 1460L905 1534ZM518 1534L696 1786H934L657 1460L518 1534ZM78 680Q78 873 173 1039T440 1298T825 1391Q1038 1391 1205 1304T1466 1059T1561 709Q1561 513 1463 341T1192 72T807 -25Q598 -25 432 67T172 322T78 680ZM354 688Q354 558 412 444T574 265T813 199Q949 199 1057 264T1225 444T1286 692Q1286 823 1229 932T1065 1104T821 1167Q684 1167 577 1104T412 930T354 688Z"  />
<glyph unicode="&#x151;" horiz-adv-x="1143" d="M636 1114L858 1448H1083L763 1040L636 1114ZM262 1114L473 1448H698L389 1040L262 1114ZM68 463Q68 606 133 722T313 897T575 956Q724 956 838 895T1013 725T1075 485Q1075 340 1008 219T828 37T567 -25Q418 -25 305 37T130 211T68 463ZM332 481Q332 341 398 254T573 166Q675 166 743 247T811 459Q811 595 744 680T571 766Q467 766 400 686T332 481Z"  />
<glyph unicode="&#x152;" horiz-adv-x="2028" d="M78 680Q78 873 173 1039T440 1298T825 1391Q960 1391 1081 1366H1933V1145H1335V803H1806V584H1335V221H1948V0H1071Q935 -25 807 -25Q598 -25 432 67T172 322T78 680ZM354 688Q354 558 412 444T575 265T813 199Q971 199 1071 225V1130Q960 1167 821 1167Q684 1167 577 1104T412 930T354 688Z"  />
<glyph unicode="&#x153;" horiz-adv-x="1747" d="M68 463Q68 606 133 722T313 897T575 956Q811 956 940 788Q1065 956 1270 956Q1456 956 1561 835T1669 500L1530 459L1069 399Q1092 293 1160 233T1331 172Q1474 172 1614 287L1679 106Q1605 45 1501 10T1288 -25Q1063 -25 936 143Q804 -25 567 -25Q418 -25 305 37T130 211T68 463ZM332 481Q332 341 398 254T573 166Q675 166 743 247T811 459Q811 595 744 680T571 766Q467 766 400 686T332 481ZM1251 766Q1175 766 1124 708T1063 549L1393 590Q1388 667 1353 716T1251 766Z"  />
<glyph unicode="&#x154;" horiz-adv-x="1290" d="M170 1366H625Q861 1366 994 1258T1128 958Q1128 837 1067 739T891 582L1276 0H965L629 516H434V0H170V1366ZM584 735Q721 735 786 792T852 946Q852 1145 582 1145H434V735H584ZM391 1587L834 1782L906 1593L441 1450L391 1587Z"  />
<glyph unicode="&#x155;" horiz-adv-x="748" d="M298 1114L509 1448H753L435 1040L298 1114ZM125 911L371 952V760Q436 863 506 909T649 956Q693 956 729 940L688 694Q639 713 600 713Q491 713 381 559V0H125V911Z"  />
<glyph unicode="&#x156;" horiz-adv-x="1288" d="M785 -100Q834 -164 834 -248Q834 -324 780 -392T625 -510L529 -408Q633 -360 633 -260Q633 -164 567 -100H785ZM170 1366H625Q861 1366 994 1258T1128 958Q1128 837 1067 739T891 582L1276 0H965L629 516H434V0H170V1366ZM584 735Q721 735 786 792T852 946Q852 1145 582 1145H434V735H584Z"  />
<glyph unicode="&#x157;" horiz-adv-x="748" d="M352 -100Q401 -164 401 -248Q401 -324 347 -392T192 -510L96 -408Q200 -360 200 -260Q200 -164 134 -100H352ZM125 911L371 952V760Q436 863 506 909T649 956Q693 956 729 940L688 694Q639 713 600 713Q491 713 381 559V0H125V911Z"  />
<glyph unicode="&#x158;" horiz-adv-x="1290" d="M170 1366H625Q861 1366 994 1258T1128 958Q1128 837 1067 739T891 582L1276 0H965L629 516H434V0H170V1366ZM584 735Q721 735 786 792T852 946Q852 1145 582 1145H434V735H584ZM260 1696L393 1784L618 1603L844 1784L975 1696L717 1470H516L260 1696Z"  />
<glyph unicode="&#x159;" horiz-adv-x="748" d="M110 1417L251 1477L423 1231L597 1477L737 1419L503 1067H345L110 1417ZM125 911L371 952V760Q436 863 506 909T649 956Q693 956 729 940L688 694Q639 713 600 713Q491 713 381 559V0H125V911Z"  />
<glyph unicode="&#x15A;" horiz-adv-x="1055" d="M156 324Q213 278 302 242T482 205Q588 205 648 245T709 350Q709 408 662 457T517 556Q369 630 305 670T197 756T127 862T100 999Q100 1108 159 1198T326 1340T571 1391Q653 1391 755 1374T942 1329L899 1092Q821 1123 734 1142T575 1161Q480 1161 424 1124T367 1026Q367 969 412 921T559 823Q701 752 766 712T876 623T946 514T973 371Q973 255 912 165T741 25T498 -25Q386 -25 277 5T80 90L156 324ZM317 1587L760 1782L832 1593L367 1450L317 1587Z"  />
<glyph unicode="&#x15B;" horiz-adv-x="844" d="M303 1114L514 1448H758L440 1040L303 1114ZM119 266Q172 223 243 197T381 170Q455 170 490 192T526 250Q526 283 489 309T307 400Q88 497 88 668Q88 801 190 878T475 956Q553 956 626 942T752 905L698 698Q651 727 590 744T475 762Q342 762 342 688Q342 658 376 632T480 576Q602 524 661 481T749 387T778 272Q778 137 674 56T391 -25Q298 -25 213 -3T66 57L119 266Z"  />
<glyph unicode="&#x15C;" horiz-adv-x="1055" d="M156 324Q213 278 302 242T482 205Q588 205 648 245T709 350Q709 408 662 457T517 556Q369 630 305 670T197 756T127 862T100 999Q100 1108 159 1198T326 1340T571 1391Q653 1391 755 1374T942 1329L899 1092Q821 1123 734 1142T575 1161Q480 1161 424 1124T367 1026Q367 969 412 921T559 823Q701 752 766 712T876 623T946 514T973 371Q973 255 912 165T741 25T498 -25Q386 -25 277 5T80 90L156 324ZM187 1558L445 1784H646L902 1558L771 1470L545 1650L320 1470L187 1558Z"  />
<glyph unicode="&#x15D;" horiz-adv-x="844" d="M118 1098L353 1448H511L745 1096L605 1038L431 1282L259 1038L118 1098ZM119 266Q172 223 243 197T381 170Q455 170 490 192T526 250Q526 283 489 309T307 400Q88 497 88 668Q88 801 190 878T475 956Q553 956 626 942T752 905L698 698Q651 727 590 744T475 762Q342 762 342 688Q342 658 376 632T480 576Q602 524 661 481T749 387T778 272Q778 137 674 56T391 -25Q298 -25 213 -3T66 57L119 266Z"  />
<glyph unicode="&#x15E;" horiz-adv-x="1057" d="M408 -145Q408 -106 453 -23Q353 -17 255 12T80 90L156 324Q213 278 302 242T482 205Q588 205 648 245T709 350Q709 408 662 457T517 556Q369 630 305 670T197 756T127 862T100 999Q100 1108 159 1198T326 1340T571 1391Q653 1391 755 1374T942 1329L899 1092Q821 1123 734 1142T575 1161Q480 1161 424 1124T367 1026Q367 969 412 921T559 823Q701 752 766 712T876 623T946 514T973 371Q973 213 865 108T580 -18Q553 -81 553 -94Q553 -120 600 -141L643 -160Q733 -202 733 -289Q733 -375 662 -430T485 -485Q426 -485 370 -468T279 -422L328 -307Q359 -333 402 -350T483 -367Q527 -367 553 -351T580 -311Q580 -294 564 -280T494 -241Q408 -202 408 -145Z"  />
<glyph unicode="&#x15F;" horiz-adv-x="846" d="M315 -145Q315 -125 323 -104T360 -23Q282 -21 201 1T66 57L119 266Q172 223 243 197T381 170Q455 170 490 192T526 250Q526 283 489 309T307 400Q88 497 88 668Q88 801 190 878T475 956Q553 956 626 942T752 905L698 698Q651 727 590 744T475 762Q342 762 342 688Q342 658 376 632T480 576Q602 524 661 481T749 387T778 272Q778 157 702 80T489 -16Q461 -80 461 -94Q461 -120 508 -141L551 -160Q641 -202 641 -289Q641 -375 570 -430T393 -485Q335 -485 281 -468T186 -422L236 -307Q267 -333 310 -350T391 -367Q435 -367 461 -351T487 -311Q487 -294 471 -280T401 -241Q315 -202 315 -145Z"  />
<glyph unicode="&#x160;" horiz-adv-x="1055" d="M156 324Q213 278 302 242T482 205Q588 205 648 245T709 350Q709 408 662 457T517 556Q369 630 305 670T197 756T127 862T100 999Q100 1108 159 1198T326 1340T571 1391Q653 1391 755 1374T942 1329L899 1092Q821 1123 734 1142T575 1161Q480 1161 424 1124T367 1026Q367 969 412 921T559 823Q701 752 766 712T876 623T946 514T973 371Q973 255 912 165T741 25T498 -25Q386 -25 277 5T80 90L156 324ZM187 1696L320 1784L545 1603L771 1784L902 1696L644 1470H443L187 1696Z"  />
<glyph unicode="&#x161;" horiz-adv-x="844" d="M118 1417L259 1477L431 1231L605 1477L745 1419L511 1067H353L118 1417ZM119 266Q172 223 243 197T381 170Q455 170 490 192T526 250Q526 283 489 309T307 400Q88 497 88 668Q88 801 190 878T475 956Q553 956 626 942T752 905L698 698Q651 727 590 744T475 762Q342 762 342 688Q342 658 376 632T480 576Q602 524 661 481T749 387T778 272Q778 137 674 56T391 -25Q298 -25 213 -3T66 57L119 266Z"  />
<glyph unicode="&#x162;" horiz-adv-x="1231" d="M485 1145H35V1366H1196V1145H748V0H698Q662 -78 662 -94Q662 -120 709 -141L752 -160Q842 -202 842 -289Q842 -373 771 -429T594 -485Q536 -485 482 -468T387 -422L436 -307Q469 -334 511 -350T592 -367Q635 -367 661 -351T688 -311Q688 -294 672 -280T602 -241Q516 -202 516 -145Q516 -124 524 -102T573 0H485V1145Z"  />
<glyph unicode="&#x163;" horiz-adv-x="821" d="M365 -145Q365 -121 377 -91T412 -18Q312 -1 253 68T193 262V750H47V887L201 938V1155L449 1204V932H733V750H449V324Q449 249 473 217T545 184Q608 184 725 264L795 78Q745 42 674 15T537 -20Q510 -77 510 -94Q510 -120 557 -141L600 -160Q690 -202 690 -289Q690 -375 619 -430T442 -485Q383 -485 327 -468T236 -422L285 -307Q316 -333 359 -350T440 -367Q484 -367 510 -351T537 -311Q537 -294 521 -280T451 -241Q365 -202 365 -145Z"  />
<glyph unicode="&#x164;" horiz-adv-x="1231" d="M485 1145H35V1366H1196V1145H748V0H485V1145ZM252 1696L385 1784L610 1603L836 1784L967 1696L709 1470H508L252 1696Z"  />
<glyph unicode="&#x165;" horiz-adv-x="813" d="M887 1532L739 1108H592L643 1511L887 1532ZM188 750H43V887L197 938V1155L444 1204V932H729V750H444V324Q444 184 541 184Q604 184 721 264L791 78Q724 29 642 2T479 -25Q340 -25 264 52T188 262V750Z"  />
<glyph unicode="&#x166;" horiz-adv-x="1231" d="M160 752H485V1145H35V1366H1196V1145H748V752H1075V629H748V0H485V629H160V752Z"  />
<glyph unicode="&#x167;" horiz-adv-x="819" d="M47 590H190V750H45V887L199 938V1155L446 1204V932H731V750H446V590H733V467H446V324Q446 184 543 184Q606 184 723 264L793 78Q726 29 644 2T481 -25Q342 -25 266 52T190 262V467H47V590Z"  />
<glyph unicode="&#x168;" horiz-adv-x="1458" d="M154 1366H418V539Q418 372 497 286T731 199Q879 199 960 286T1042 530V1366H1307V541Q1307 371 1235 242T1029 44T729 -25Q452 -25 303 115T154 512V1366ZM346 1489L344 1507V1521Q344 1636 402 1701T567 1767Q634 1767 680 1747T762 1702T827 1657T891 1636Q959 1636 959 1743V1763H1116V1732Q1116 1613 1057 1547T889 1481Q786 1481 701 1547Q642 1591 621 1601T576 1612Q540 1612 521 1584T502 1507L503 1493L504 1489H346Z"  />
<glyph unicode="&#x169;" horiz-adv-x="1096" d="M119 932H375V377Q375 272 397 235T471 197Q513 197 568 225T707 324V932H961V285Q961 182 1001 4L756 -18Q737 53 727 139Q563 -25 375 -25Q253 -25 186 46T119 256V932ZM192 1120L190 1139V1151Q190 1273 244 1341T397 1409Q493 1409 571 1331Q623 1279 642 1266T682 1253Q741 1253 741 1370V1395H897V1366Q897 1288 872 1226T799 1133T684 1102Q585 1102 516 1180Q475 1224 453 1240T407 1257Q378 1257 363 1226T348 1139V1120H192Z"  />
<glyph unicode="&#x16A;" horiz-adv-x="1458" d="M154 1366H418V539Q418 372 497 286T731 199Q879 199 960 286T1042 530V1366H1307V541Q1307 371 1235 242T1029 44T729 -25Q452 -25 303 115T154 512V1366ZM434 1702H1022V1550H434V1702Z"  />
<glyph unicode="&#x16B;" horiz-adv-x="1096" d="M119 932H375V377Q375 272 397 235T471 197Q513 197 568 225T707 324V932H961V285Q961 182 1001 4L756 -18Q737 53 727 139Q563 -25 375 -25Q253 -25 186 46T119 256V932ZM276 1341H802V1182H276V1341Z"  />
<glyph unicode="&#x16C;" horiz-adv-x="1458" d="M154 1366H418V539Q418 372 497 286T731 199Q879 199 960 286T1042 530V1366H1307V541Q1307 371 1235 242T1029 44T729 -25Q452 -25 303 115T154 512V1366ZM729 1464Q586 1464 504 1538T422 1735L426 1788H565L564 1765Q564 1696 598 1653T729 1610Q894 1610 894 1766L893 1788H1032L1036 1735Q1036 1611 953 1538T729 1464Z"  />
<glyph unicode="&#x16D;" horiz-adv-x="1096" d="M119 932H375V377Q375 272 397 235T471 197Q513 197 568 225T707 324V932H961V285Q961 182 1001 4L756 -18Q737 53 727 139Q563 -25 375 -25Q253 -25 186 46T119 256V932ZM538 1110Q403 1110 322 1185T241 1389L245 1444H385V1419Q385 1336 425 1294T538 1251Q614 1251 653 1295T692 1419V1444H831L833 1389Q833 1261 753 1186T538 1110Z"  />
<glyph unicode="&#x16E;" horiz-adv-x="1458" d="M729 1403Q635 1403 579 1456T522 1589Q522 1668 579 1718T729 1769Q821 1769 878 1719T936 1589Q936 1510 880 1457T729 1403ZM729 1499Q774 1499 798 1526T823 1587Q823 1626 796 1649T729 1673Q689 1673 663 1651T637 1587Q637 1553 660 1526T729 1499ZM154 1366H418V539Q418 372 497 286T731 199Q879 199 960 286T1042 530V1366H1307V541Q1307 371 1235 242T1029 44T729 -25Q452 -25 303 115T154 512V1366Z"  />
<glyph unicode="&#x16F;" horiz-adv-x="1096" d="M538 1096Q444 1096 388 1149T331 1282Q331 1361 388 1411T538 1462Q630 1462 687 1412T745 1282Q745 1203 689 1150T538 1096ZM538 1192Q583 1192 607 1219T632 1280Q632 1319 605 1342T538 1366Q498 1366 472 1344T446 1280Q446 1246 469 1219T538 1192ZM119 932H375V377Q375 272 397 235T471 197Q513 197 568 225T707 324V932H961V285Q961 182 1001 4L756 -18Q737 53 727 139Q563 -25 375 -25Q253 -25 186 46T119 256V932Z"  />
<glyph unicode="&#x170;" horiz-adv-x="1458" d="M815 1534L1006 1786H1243L954 1460L815 1534ZM428 1534L606 1786H844L567 1460L428 1534ZM154 1366H418V539Q418 372 497 286T731 199Q879 199 960 286T1042 530V1366H1307V541Q1307 371 1235 242T1029 44T729 -25Q452 -25 303 115T154 512V1366Z"  />
<glyph unicode="&#x171;" horiz-adv-x="1096" d="M119 932H375V377Q375 272 397 235T471 197Q513 197 568 225T707 324V932H961V285Q961 182 1001 4L756 -18Q737 53 727 139Q563 -25 375 -25Q253 -25 186 46T119 256V932ZM606 1114L828 1448H1053L733 1040L606 1114ZM232 1114L443 1448H668L359 1040L232 1114Z"  />
<glyph unicode="&#x172;" horiz-adv-x="1460" d="M154 1366H418V539Q418 372 497 286T731 199Q879 199 960 286T1042 530V1366H1307V541Q1307 375 1236 246T1028 45Q930 -30 869 -115T807 -258Q807 -326 883 -326Q930 -326 977 -305L995 -457Q908 -485 823 -485Q724 -485 668 -438T612 -303Q612 -203 710 -90L766 -23L748 -25H729Q452 -25 303 115T154 512V1366Z"  />
<glyph unicode="&#x173;" horiz-adv-x="1096" d="M119 932H375V377Q375 272 397 235T471 197Q513 197 568 225T707 324V932H961V285Q961 182 1001 4Q922 -69 879 -138T836 -258Q836 -326 912 -326Q954 -326 1004 -305L1022 -457Q934 -485 850 -485Q751 -485 696 -438T641 -303Q641 -250 665 -199T745 -83L803 -14L756 -18Q737 53 727 139Q563 -25 375 -25Q253 -25 186 46T119 256V932Z"  />
<glyph unicode="&#x174;" horiz-adv-x="1985" d="M633 1558L891 1784H1092L1348 1558L1217 1470L991 1650L766 1470L633 1558ZM37 1366H309L594 365L891 1366H1100L1397 365L1683 1366H1948L1536 -10H1268L991 897L717 -10H446L37 1366Z"  />
<glyph unicode="&#x175;" horiz-adv-x="1571" d="M471 1098L706 1448H864L1098 1096L958 1038L784 1282L612 1038L471 1098ZM27 932H289L467 285L680 932H897L1106 285L1288 932H1544L1241 -6H993L784 602L578 -6H328L27 932Z"  />
<glyph unicode="&#x176;" horiz-adv-x="1245" d="M492 569L-2 1366H307L623 831L948 1366H1247L756 571V0H492V569ZM264 1558L522 1784H723L979 1558L848 1470L622 1650L397 1470L264 1558Z"  />
<glyph unicode="&#x177;" horiz-adv-x="973" d="M20 -289Q116 -278 205 -212T334 -53L367 25L8 932H274L492 322L705 932H963L575 -68Q508 -243 380 -357T98 -485L20 -289ZM179 1098L414 1448H572L806 1096L666 1038L492 1282L320 1038L179 1098Z"  />
<glyph unicode="&#x178;" horiz-adv-x="1245" d="M492 569L-2 1366H307L623 831L948 1366H1247L756 571V0H492V569ZM880 1491Q818 1491 779 1528T739 1626Q739 1688 778 1724T880 1761Q941 1761 980 1724T1020 1626Q1020 1565 980 1528T880 1491ZM366 1491Q306 1491 267 1528T227 1626Q227 1686 265 1723T366 1761Q428 1761 468 1725T508 1626Q508 1565 468 1528T366 1491Z"  />
<glyph unicode="&#x179;" horiz-adv-x="1192" d="M74 160L750 1145H104V1366H1090V1206L424 221H1114V0H74V160ZM389 1587L832 1782L904 1593L439 1450L389 1587Z"  />
<glyph unicode="&#x17A;" horiz-adv-x="922" d="M336 1114L547 1448H791L473 1040L336 1114ZM74 156L500 735H90V932H831V776L397 197H848V0H74V156Z"  />
<glyph unicode="&#x17B;" horiz-adv-x="1192" d="M616 1485Q547 1485 507 1525T467 1626Q467 1690 508 1729T616 1769Q680 1769 723 1730T766 1626Q766 1566 725 1526T616 1485ZM74 160L750 1145H104V1366H1090V1206L424 221H1114V0H74V160Z"  />
<glyph unicode="&#x17C;" horiz-adv-x="922" d="M74 156L500 735H90V932H831V776L397 197H848V0H74V156ZM464 1135Q397 1135 356 1175T315 1278Q315 1341 356 1381T464 1421Q530 1421 572 1380T614 1278Q614 1217 572 1176T464 1135Z"  />
<glyph unicode="&#x17D;" horiz-adv-x="1192" d="M74 160L750 1145H104V1366H1090V1206L424 221H1114V0H74V160ZM258 1696L391 1784L616 1603L842 1784L973 1696L715 1470H514L258 1696Z"  />
<glyph unicode="&#x17E;" horiz-adv-x="922" d="M151 1417L292 1477L464 1231L638 1477L778 1419L544 1067H386L151 1417ZM74 156L500 735H90V932H831V776L397 197H848V0H74V156Z"  />
<glyph unicode="&#x192;" horiz-adv-x="920" d="M47 713H330L350 879Q369 1032 440 1149T623 1328T866 1391Q942 1391 1012 1366L956 1176Q895 1194 842 1194Q743 1194 684 1116T608 896T586 713H877V569H569L514 104Q495 -49 424 -166T241 -345T-2 -408Q-79 -408 -145 -383L-92 -193Q-29 -211 23 -211Q121 -211 180 -132T256 86L313 569H47V713Z"  />
<glyph unicode="&#x218;" horiz-adv-x="1055" d="M604 -100Q653 -164 653 -248Q653 -324 599 -392T444 -510L348 -408Q452 -360 452 -260Q452 -164 386 -100H604ZM156 324Q213 278 302 242T482 205Q588 205 648 245T709 350Q709 408 662 457T517 556Q369 630 305 670T197 756T127 862T100 999Q100 1108 159 1198T326 1340T571 1391Q653 1391 755 1374T942 1329L899 1092Q821 1123 734 1142T575 1161Q480 1161 424 1124T367 1026Q367 969 412 921T559 823Q701 752 766 712T876 623T946 514T973 371Q973 255 912 165T741 25T498 -25Q386 -25 277 5T80 90L156 324Z"  />
<glyph unicode="&#x219;" horiz-adv-x="842" d="M509 -100Q558 -164 558 -248Q558 -324 504 -392T349 -510L253 -408Q357 -360 357 -260Q357 -164 291 -100H509ZM119 266Q172 223 243 197T381 170Q455 170 490 192T526 250Q526 283 489 309T307 400Q88 497 88 668Q88 801 190 878T475 956Q553 956 626 942T752 905L698 698Q651 727 590 744T475 762Q342 762 342 688Q342 658 376 632T480 576Q602 524 661 481T749 387T778 272Q778 137 674 56T391 -25Q298 -25 213 -3T66 57L119 266Z"  />
<glyph unicode="&#x21A;" horiz-adv-x="1231" d="M711 -100Q760 -164 760 -248Q760 -324 706 -392T551 -510L455 -408Q559 -360 559 -260Q559 -164 493 -100H711ZM485 1145H35V1366H1196V1145H748V0H485V1145Z"  />
<glyph unicode="&#x21B;" horiz-adv-x="817" d="M559 -100Q608 -164 608 -248Q608 -324 554 -392T399 -510L303 -408Q407 -360 407 -260Q407 -164 341 -100H559ZM188 750H43V887L197 938V1155L444 1204V932H729V750H444V324Q444 184 541 184Q604 184 721 264L791 78Q724 29 642 2T479 -25Q340 -25 264 52T188 262V750Z"  />
<glyph unicode="&#x2C6;" horiz-adv-x="1044" d="M209 1098L444 1448H602L836 1096L696 1038L522 1282L350 1038L209 1098Z"  />
<glyph unicode="&#x2C7;" horiz-adv-x="1044" d="M209 1417L350 1477L522 1231L696 1477L836 1419L602 1067H444L209 1417Z"  />
<glyph unicode="&#x2D8;" horiz-adv-x="1044" d="M522 1110Q387 1110 306 1185T225 1389L229 1444H369V1419Q369 1336 409 1294T522 1251Q598 1251 637 1295T676 1419V1444H815L817 1389Q817 1261 737 1186T522 1110Z"  />
<glyph unicode="&#x2D9;" horiz-adv-x="1044" d="M522 1135Q455 1135 414 1175T373 1278Q373 1341 414 1381T522 1421Q588 1421 630 1380T672 1278Q672 1217 630 1176T522 1135Z"  />
<glyph unicode="&#x2DA;" horiz-adv-x="1044" d="M522 1096Q428 1096 372 1149T315 1282Q315 1361 372 1411T522 1462Q614 1462 671 1412T729 1282Q729 1203 673 1150T522 1096ZM522 1192Q567 1192 591 1219T616 1280Q616 1319 589 1342T522 1366Q482 1366 456 1344T430 1280Q430 1246 453 1219T522 1192Z"  />
<glyph unicode="&#x2DB;" horiz-adv-x="1044" d="M338 -303Q338 -252 357 -211T405 -130T468 -52T535 33L739 66L754 45Q657 -30 595 -115T532 -258Q532 -326 608 -326Q655 -326 702 -305L721 -457Q634 -485 549 -485Q450 -485 394 -438T338 -303Z"  />
<glyph unicode="&#x2DC;" horiz-adv-x="1044" d="M180 1120L178 1139V1151Q178 1273 232 1341T385 1409Q481 1409 559 1331Q611 1279 630 1266T670 1253Q729 1253 729 1370V1395H885V1366Q885 1288 860 1226T787 1133T672 1102Q573 1102 504 1180Q463 1224 441 1240T395 1257Q366 1257 351 1226T336 1139V1120H180Z"  />
<glyph unicode="&#x2DD;" horiz-adv-x="1044" d="M489 1114L711 1448H936L616 1040L489 1114ZM115 1114L326 1448H551L242 1040L115 1114Z"  />
<glyph unicode="&#x394;" horiz-adv-x="1284" d="M59 70L612 1366H705L1225 70V0H59V70ZM262 154H975L623 1047L262 154Z"  />
<glyph unicode="&#x3A9;" horiz-adv-x="1620" d="M78 201H377Q317 267 263 365T177 568T145 772Q145 941 231 1084T470 1309T805 1391Q990 1391 1142 1309T1380 1083T1466 766Q1466 635 1408 491T1233 201H1544L1524 0H1001L961 98L994 150Q1088 299 1139 447T1190 725Q1190 933 1088 1050T805 1167Q627 1167 525 1050T422 725Q422 592 476 439T649 98L608 0H98L78 201Z"  />
<glyph unicode="&#x3BC;" horiz-adv-x="1204" d="M150 932H406V377Q406 272 428 235T502 197Q550 197 614 233T737 324V932H991V287Q991 227 1000 205T1032 173T1124 164V-14Q1043 -25 995 -25Q886 -25 826 11T748 131Q586 -25 406 -25Q371 -25 340 -18Q345 -101 370 -263Q391 -407 391 -442H129Q150 -242 150 -80V932Z"  />
<glyph unicode="&#x3C0;" horiz-adv-x="1208" d="M78 932H1139V735H940V238Q940 178 949 156T980 125T1073 115V-14Q998 -25 956 -25Q869 -25 820 3T749 81T727 246V735H492V672Q492 443 460 305T363 86T199 -25L86 133Q165 173 208 234T269 384T287 682V735H78V932Z"  />
<glyph unicode="&#x2013;" horiz-adv-x="1053" d="M106 608H946V442H106V608Z"  />
<glyph unicode="&#x2014;" horiz-adv-x="1851" d="M106 608H1745V442H106V608Z"  />
<glyph unicode="&#x2018;" horiz-adv-x="459" d="M197 870Q82 1012 82 1153Q82 1355 303 1530L387 1436Q324 1385 293 1335T262 1225Q262 1175 290 1126T406 981L197 870Z"  />
<glyph unicode="&#x2019;" horiz-adv-x="442" d="M66 965Q131 1016 162 1067T193 1178Q193 1226 166 1275T47 1419L258 1530Q371 1392 371 1249Q371 1045 152 870L66 965Z"  />
<glyph unicode="&#x201A;" horiz-adv-x="496" d="M289 309Q403 170 403 29Q403 -175 182 -348L96 -256Q161 -205 192 -154T223 -43Q223 9 194 59T78 199L289 309Z"  />
<glyph unicode="&#x201C;" horiz-adv-x="850" d="M588 870Q473 1012 473 1153Q473 1355 694 1530L778 1436Q715 1385 684 1335T653 1225Q653 1175 681 1126T797 981L588 870ZM197 870Q82 1012 82 1153Q82 1355 303 1530L387 1436Q324 1385 293 1335T262 1225Q262 1175 290 1126T406 981L197 870Z"  />
<glyph unicode="&#x201D;" horiz-adv-x="834" d="M457 965Q522 1016 553 1067T584 1178Q584 1229 553 1281T440 1419L649 1530Q762 1392 762 1249Q762 1045 543 870L457 965ZM66 965Q131 1016 162 1067T193 1178Q193 1226 166 1275T47 1419L258 1530Q371 1392 371 1249Q371 1045 152 870L66 965Z"  />
<glyph unicode="&#x201E;" horiz-adv-x="887" d="M680 309Q795 169 795 29Q795 -176 573 -348L487 -256Q552 -205 583 -154T614 -43Q614 9 585 59T469 199L680 309ZM289 309Q403 170 403 29Q403 -175 182 -348L96 -256Q161 -205 192 -154T223 -43Q223 9 194 59T78 199L289 309Z"  />
<glyph unicode="&#x2020;" horiz-adv-x="1004" d="M432 776L66 735V950L432 907L393 1366H608L571 907L938 950V735L571 776L600 -285H403L432 776Z"  />
<glyph unicode="&#x2021;" horiz-adv-x="1036" d="M82 346L449 305V776L82 735V950L449 907L410 1366H625L588 907L954 950V735L588 776V305L954 346V131L588 174L625 -285H410L449 174L82 131V346Z"  />
<glyph unicode="&#x2022;" horiz-adv-x="834" d="M418 213Q287 213 197 302T106 524Q106 656 196 746T418 836Q549 836 638 746T727 524Q727 392 638 303T418 213Z"  />
<glyph unicode="&#x2026;" horiz-adv-x="1659" d="M1243 131Q1243 195 1287 243T1399 291Q1465 291 1512 244T1559 131Q1559 67 1512 21T1399 -25Q1334 -25 1289 22T1243 131ZM672 131Q672 195 716 243T827 291Q893 291 940 244T987 131Q987 67 940 21T827 -25Q763 -25 718 22T672 131ZM100 131Q100 196 146 243T258 291Q324 291 370 244T416 131Q416 68 370 22T258 -25Q193 -25 147 21T100 131Z"  />
<glyph unicode="&#x2030;" horiz-adv-x="2331" d="M1210 1397L1313 1327L391 0H242L1210 1397ZM412 721Q268 721 172 815T76 1044Q76 1181 171 1273T412 1366Q556 1366 650 1274T745 1044Q745 909 650 815T412 721ZM412 870Q485 870 534 921T584 1044Q584 1114 535 1165T412 1217Q337 1217 288 1166T238 1044Q238 972 288 921T412 870ZM1597 299Q1597 435 1693 526T1933 618Q2077 618 2172 526T2267 299Q2267 164 2173 70T1933 -25Q1789 -25 1693 69T1597 299ZM834 299Q834 437 930 527T1167 618Q1311 618 1407 527T1503 299Q1503 162 1407 69T1167 -25Q1025 -25 930 68T834 299ZM1759 299Q1759 227 1809 176T1933 125Q2007 125 2056 176T2105 299Q2105 370 2056 420T1933 471Q1860 471 1810 420T1759 299ZM995 299Q995 226 1045 176T1167 125Q1240 125 1290 175T1341 299Q1341 371 1291 421T1167 471Q1095 471 1045 421T995 299Z"  />
<glyph unicode="&#x2039;" horiz-adv-x="643" d="M422 82L181 351Q53 494 33 510V518Q56 537 86 569T422 946L563 905L270 514L563 123L422 82Z"  />
<glyph unicode="&#x203A;" horiz-adv-x="643" d="M80 123L375 514L333 568L80 905L221 946Q506 625 545 582T610 518V510Q591 495 527 423L221 82L80 123Z"  />
<glyph unicode="&#x2044;" horiz-adv-x="301" d="M-326 0L489 1417L625 1360L-158 0H-326Z"  />
<glyph unicode="&#x2074;" horiz-adv-x="754" d="M403 954H45L29 1081L369 1602H588V1098H702V954H588V770H403V954ZM403 1098V1415L195 1098H403Z"  />
<glyph unicode="&#x20AC;" horiz-adv-x="1155" d="M76 483H182Q178 517 178 557L182 641H76V760H207Q262 948 406 1057T745 1167Q825 1167 911 1147T1067 1092L1004 895Q947 930 880 950T750 971Q648 971 577 916T471 760H965L930 641H444L442 607V573Q442 522 449 483H887L852 365H479Q518 272 590 222T758 172Q815 172 885 189T1008 233L1057 51Q995 17 910 -4T739 -25Q540 -25 398 79T203 365H76V483Z"  />
<glyph unicode="&#x2122;" horiz-adv-x="1434" d="M674 1366H868L985 1026L1104 1366H1296L1317 821H1184L1167 1217L1028 821H938L799 1219L786 821H653L674 1366ZM250 1257H72V1366H565V1257H387V821H250V1257Z"  />
<glyph unicode="&#x2126;" horiz-adv-x="1620" d="M78 201H377Q317 267 263 365T177 568T145 772Q145 941 231 1084T470 1309T805 1391Q990 1391 1142 1309T1380 1083T1466 766Q1466 635 1408 491T1233 201H1544L1524 0H1001L961 98L994 150Q1088 299 1139 447T1190 725Q1190 933 1088 1050T805 1167Q627 1167 525 1050T422 725Q422 592 476 439T649 98L608 0H98L78 201Z"  />
<glyph unicode="&#x2202;" horiz-adv-x="1106" d="M68 420Q68 543 122 647T275 811T502 872Q589 872 651 846T743 772Q724 1049 600 1194T266 1339V1532Q490 1532 657 1434T918 1143T1012 696Q1012 492 947 326T765 67T496 -25Q310 -25 189 104T68 420ZM494 166Q554 166 606 213T694 351T741 561Q711 616 660 648T547 680Q449 680 390 601T330 397Q330 296 375 231T494 166Z"  />
<glyph unicode="&#x2206;" horiz-adv-x="1284" d="M59 70L612 1366H705L1225 70V0H59V70ZM262 154H975L623 1047L262 154Z"  />
<glyph unicode="&#x220F;" horiz-adv-x="1583" d="M68 1366H1516V1145H1303V-184H1040V1145H543V-184H281V1145H68V1366Z"  />
<glyph unicode="&#x2211;" horiz-adv-x="1214" d="M522 590L84 1206V1366H1092V1145H426L815 592L426 37H1147V-184H84V-25L522 590Z"  />
<glyph unicode="&#x2212;" horiz-adv-x="1065" d="M74 602H991V436H74V602Z"  />
<glyph unicode="&#x221A;" horiz-adv-x="1217" d="M313 768H29V932H444L657 352L1073 1534H1257L680 -74H627L313 768Z"  />
<glyph unicode="&#x221E;" horiz-adv-x="1667" d="M436 156Q292 156 191 258T90 512Q90 661 190 764T436 868Q534 868 628 811T834 612Q946 753 1042 810T1241 868Q1332 868 1410 822T1532 695T1577 522Q1577 369 1476 263T1231 156Q1132 156 1038 213T834 410Q757 312 700 264T578 186T436 156ZM926 512Q998 408 1079 349T1231 289Q1311 289 1368 352T1425 512Q1425 607 1368 671T1231 735Q1162 735 1082 676T926 512ZM436 289Q506 289 586 348T741 512Q667 616 586 675T436 735Q356 735 299 672T242 512Q242 417 299 353T436 289Z"  />
<glyph unicode="&#x222B;" horiz-adv-x="870" d="M31 -270Q81 -289 127 -289Q225 -289 274 -213T324 8V1022Q324 1256 447 1395T776 1534Q853 1534 926 1509L872 1319Q825 1337 776 1337Q680 1337 630 1262T580 1040V27Q580 -206 456 -345T127 -485Q47 -485 -23 -461L31 -270Z"  />
<glyph unicode="&#x2248;" horiz-adv-x="1065" d="M35 711Q101 777 186 818T346 860Q446 860 546 789Q602 749 638 733T711 717Q833 717 932 823L1024 698Q955 629 871 589T711 549Q611 549 511 621Q455 660 419 676T346 692Q231 692 125 586L35 711ZM35 324Q101 390 186 431T346 473Q446 473 546 402Q602 362 638 346T711 330Q833 330 932 436L1024 311Q955 242 871 202T711 162Q611 162 511 234Q455 273 419 289T346 305Q231 305 125 199L35 324Z"  />
<glyph unicode="&#x2260;" horiz-adv-x="1065" d="M84 764H625L774 1014L877 952L764 764H981V621H680L553 406H981V262H467L313 2L211 63L328 262H84V406H414L541 621H84V764Z"  />
<glyph unicode="&#x2264;" horiz-adv-x="1065" d="M66 752L938 1149L979 985L330 702L979 403L938 242L66 657V752ZM66 164H983V0H66V164Z"  />
<glyph unicode="&#x2265;" horiz-adv-x="1065" d="M86 403L733 702L86 985L127 1149L999 752V657L127 242L86 403ZM82 164H999V0H82V164Z"  />
<glyph unicode="&#x25CA;" horiz-adv-x="1092" d="M61 743L506 1542H588L1030 743L588 -78H506L61 743ZM549 178L842 745L547 1290L250 745L549 178Z"  />
<glyph unicode="&#xE361;" horiz-adv-x="729" d="M244 592Q154 592 97 640T39 766Q39 968 422 1020V1040Q422 1096 403 1116T340 1137Q290 1137 231 1113T123 1053L80 1194Q135 1231 219 1254T393 1278Q512 1278 566 1230T621 1067V815Q621 780 641 759T694 737L643 598Q490 601 444 684Q375 592 244 592ZM299 729Q355 729 422 803V909Q326 894 284 865T242 788Q242 758 258 744T299 729Z"  />
<glyph unicode="&#xE36E;" horiz-adv-x="819" d="M408 592Q246 592 146 687T45 932Q45 1030 89 1109T217 1233T414 1278Q522 1278 603 1235T729 1116T774 948Q774 850 730 768T602 639T408 592ZM412 731Q481 731 524 789T567 930Q567 1021 525 1079T410 1137Q342 1137 297 1083T252 946Q252 850 295 791T412 731Z"  />
<glyph unicode="&#xFB01;" horiz-adv-x="1151" d="M766 760H446V0H190V750H45V887L190 938V995Q190 1149 249 1266T415 1445T659 1507Q738 1507 817 1486T952 1427L862 1247Q815 1276 759 1293T657 1311Q553 1311 500 1234T446 1014V932H1020V0H766V760Z"  />
<glyph unicode="&#xFB02;" horiz-adv-x="1188" d="M803 1276Q718 1311 657 1311Q553 1311 500 1234T446 1014V932H696V750H446V0H190V750H45V887L190 938V995Q190 1149 249 1266T415 1445T659 1507Q719 1507 780 1494T920 1446L1057 1468V0H803V1276Z"  />

</font>
</defs>
</svg>
