<?xml version="1.0" encoding="utf-8"?>
<!-- Generator: Adobe Illustrator 16.0.0, SVG Export Plug-In . SVG Version: 6.00 Build 0)  -->
<!DOCTYPE svg PUBLIC "-//W3C//DTD SVG 1.1//EN" "http://www.w3.org/Graphics/SVG/1.1/DTD/svg11.dtd">
<svg version="1.1" id="Ebene_1" xmlns="http://www.w3.org/2000/svg" xmlns:xlink="http://www.w3.org/1999/xlink" x="0px" y="0px"
	 width="200px" height="200px" viewBox="0 0 200 200" enable-background="new 0 0 200 200" xml:space="preserve">
<path fill="#FFFFFF" d="M156.834,67.092c-3.986,1.768-8.27,2.962-12.766,3.5c4.588-2.75,8.113-7.106,9.772-12.296
	c-4.295,2.547-9.052,4.397-14.114,5.394c-4.055-4.32-9.83-7.019-16.223-7.019c-12.274,0-22.227,9.951-22.227,22.225
	c0,1.742,0.196,3.438,0.576,5.065c-18.473-0.927-34.85-9.775-45.812-23.223c-1.913,3.283-3.009,7.101-3.009,11.174
	c0,7.711,3.924,14.514,9.887,18.5c-3.643-0.116-7.07-1.116-10.066-2.78c-0.002,0.093-0.002,0.186-0.002,0.28
	c0,10.769,7.661,19.751,17.828,21.793c-1.864,0.508-3.828,0.78-5.855,0.78c-1.432,0-2.824-0.141-4.182-0.399
	c2.828,8.829,11.037,15.257,20.763,15.435c-7.606,5.962-17.19,9.516-27.604,9.516c-1.794,0-3.563-0.105-5.302-0.312
	c9.836,6.306,21.519,9.986,34.07,9.986c40.881,0,63.237-33.867,63.237-63.238c0-0.963-0.021-1.922-0.064-2.875
	C150.086,75.464,153.854,71.549,156.834,67.092z"/>
</svg>
