<svg class="svg-map" xmlns="http://www.w3.org/2000/svg" viewBox="0 0 1496.07 866.313">
  <defs>
    <style>
      .svg-map-cls-1 {
        fill: #fff;
      }
    </style>
  </defs>
  <g transform="translate(2208.035 -3008.844)">
    <g transform="translate(-2208.035 3008.844)">
      <g transform="translate(711.227 423.036)">
        <path class="svg-map-cls-1" d="M7.709,44.111H108.051l24.815-24.525V-7.852h52.716V-55.228H159.887v-52.46l-100.537.007L32-81.153H8.043v25.926H-18.819V-8.19H7.709Z" transform="translate(18.819 107.688)"></path>
      </g>
      <g transform="translate(738.088 370.504)">
        <path class="svg-map-cls-1" d="M6.307,21.361,33.658-5.165H110.05V-27.527L85.176-52.149H9.533L-15.4-28.078v49.44Z" transform="translate(15.398 52.149)"></path>
      </g>
      <g transform="translate(475.423 265.425)">
        <path class="svg-map-cls-1" d="M36.519,51.849V4.728H12.261l-27.747-27.5V-79.161H10.592v-47.417h-73.82v26.428H-89.154v46.732h25.926V.852l26.557,26.265-.056,24.732Z" transform="translate(89.154 126.578)"></path>
      </g>
      <g transform="translate(449.291 501.852)">
        <path class="svg-map-cls-1" d="M36.4,7.561H-16.039V-18.458h-22.24L-64.66,7.394H-88.873V132.963H10.306V108.611L36.4,82.428Z" transform="translate(88.873 18.458)"></path>
      </g>
      <g transform="translate(606.669 266.503)">
        <path class="svg-map-cls-1" d="M7.513,51.534H31.5L80.662,100V77.629h26.86V-.095L130.01-21.807H106.938V-49.836l-24.577-24.5H54.994v-26.368H30.043l-25.088-25.1-23.3,23.16v24.4L7.513-52.323Z" transform="translate(18.341 125.809)"></path>
      </g>
      <g transform="translate(524.945 0.033)">
        <path class="svg-map-cls-1" d="M61.364,0,8.795,52.422H-18.819l-25.926-26.3-52.551.116V52.391h-52.511v49.9h29.1v58.275h-26.062v99.268h52.737v58.527H-120.1v48.523l24.477,24.255H-68.1v26.02h20.314V342.251L-73.64,316.326V287.319l28.863-28.694L-17.4,286.017H10.806v26.37H34.921l27.806,27.748v24.78H166.193l28.16,27.874v24.664l46.829-.014V340.017l27.507-27.8h52.687l24.883-24.288V264.115l-24.89-24.767H293.814V209.874H270.55l-26.8-25.814V157.639H191.716V131.33h26.2v-52.6H165.274V26.373L139.006,0Z" transform="translate(149.807)"></path>
      </g>
      <g transform="translate(895.487 317.825)">
        <path class="svg-map-cls-1" d="M28.7,7.7V-18.8H-19.807L-44.063,5.725V86.4l-26,.01v46.906h52.16v27.865L8.175,187.419v24.448H60.954v26.7H81.632V211.714h27.007V187.127l27.223-28h24.348v-51.9h26.726V59.86H160.491V7.7Z" transform="translate(70.066 18.797)"></path>
      </g>
      <g transform="translate(711.492 475.495)">
        <path class="svg-map-cls-1" d="M60.933,0V52.933H8.219v24.2L-19.87,104.9H-124.076l-24.68,25.549v24.144H-99.6v52.28h-25.476v26.38l25.907,26.619h79.012v26.01L6.082,312.112v52.472H58.723V338.235h52.3v52.582h52.441l23.573-23.629V315.2H160.471V283.259h26.563V262.482H139.869v26.1H107.924V234.523L82,208.56V179.748l25.926-27.007v-26.66h28.018l24.761-24.76V78.548H107.924V50.839L81.845,24.6V0Z" transform="translate(148.756)"></path>
      </g>
      <g transform="translate(974.122 130.995)">
        <path class="svg-map-cls-1" d="M105.949,62.211,77.211,33.491V8.982H-29.18V-75.579h53.8V-95.532H-2.269v-56.342H-51.008v27.063h-53.25L-130.416-98.9h-25.93v-26.488h-26.122v-25.961h-52.6v78.382h-23.579v23.918h24.295l28.15,28.016V7.432l-26.757,26.117V55.9h131.79v52.16h26.444v58.475h-26.726v51.9h-27.557l-24.013,24.7v27.885h-27.007v21.3h25.85v26.157h25.27L-102.9,346-77.8,320.906V242.432L-51.313,216H132.06V190l-26.112-26.272Z" transform="translate(258.651 151.875)"></path>
      </g>
      <g transform="translate(423.038 344.14)">
        <path class="svg-map-cls-1" d="M21.142,0H-14.35L-51.613,38.022V75.1l26.253,26.058v76.854H-3.414l26.38-25.852H47.473V77.294L21.142,51.032Z" transform="translate(51.613)"></path>
      </g>
      <g transform="translate(947.803 580.743)">
        <path class="svg-map-cls-1" d="M44.653,7.6H16.22V-18.557H-31.935L-58.325,7.832H-83.086V31.172l-25.926,27.007V82.455l25.926,25.964v50.8h20.834v-26.1H-3.977v31.887H-30.54v20.833H-3.977V212.31l23.542-23.921H45.628V162.373H71.776V36.293Z" transform="translate(109.012 18.557)"></path>
      </g>
      <g transform="translate(1209.147 104.794)">
        <path class="svg-map-cls-1" d="M30.066,0V26.731H3.2V.331H-46.487V76.989H-19.6v31.062H-73.4V181.5H32.992v27.761L60.5,236.712H82.388V210.539h52.477l-.045-52.415h26.272V105.576h52.431V78.994H187.534L161.9,52.876H109.152V26.731H56.175V0Z" transform="translate(73.399)"></path>
      </g>
      <g transform="translate(0 0)">
        <path class="svg-map-cls-1" d="M53.32,0V26.707l26.412,26.57V79.1H27.272v78.753H-24.833V78.731H-52.556v25.854l-24.859,26.826v26.463l25.926,26.313v25.828H-77.684v25.775H-130.17v53.051h26.339v26.339h25.5v52.331H-24.98V341.2H27.548v78.843H1.236V472.3H27.744v52.651h26.1v26.216l52.431,52.6h49.542v-29.22h26.132V475.324l-26.132-.048V417.635H208.6V365.19h30.169l25.843,25.855h22.7V379.894L327.8,338.585h11.9V286.3h25.926V259.869h26.639V155.045h26.062V108.036H290.376V78.345L263.3,52.455H184.936l-25.929-26.3H106.022L79.666,0Z" transform="translate(130.17)"></path>
      </g>
      <g transform="translate(527.834 422.75)">
        <path class="svg-map-cls-1" d="M51.755,52.58l26.271-27.2V-23.025H51.49V-51L.044-101.712H-27.215v-26.652H-47.531v26.671h-78.817V-28.8h52.29V53.922l-26.1,26.181v51.453h23.412l25.926-26.234H2.269L28.526,78.97H51.755Z" transform="translate(126.348 128.364)"></path>
      </g>
      <g transform="translate(291.544 370.747)">
        <path class="svg-map-cls-1" d="M44.224,83.714V-127.509L17.976-153.565v-24.949h-25l-25.843-25.855h-22.31v52.444h-52.783v46.547l26.158.031V4.993h-26.158v36.8h23.548v65.76H47.428L69.79,83.714Z" transform="translate(107.964 204.369)"></path>
      </g>
    </g>
    <g>
      <g transform="translate(-14 74)">
        <g>
          <path class="svg-map-cls-1" d="M106.214,10.886h48.54V-34.7h-48.54Z" transform="translate(-1756.04 3567.906)"></path>
        </g>
        <g transform="translate(-459 169)">
          <g transform="translate(-1157.529 3367.44)">
            <path d="M0,0V5.785H5.4V34.212H0V40H10.965V0Z"></path>
          </g>
          <g transform="translate(-1186.564 3367.44)">
            <path d="M0,0V40H10.965V34.212H5.57V5.785h5.4V0Z"></path>
          </g>
        </g>
      </g>
      <g transform="translate(46 17)">
        <g>
          <path class="svg-map-cls-1" d="M106.214,10.886h48.54V-34.7h-48.54Z" transform="translate(-1756.04 3567.906)"></path>
        </g>
        <g transform="translate(-459 169)">
          <g transform="translate(-1157.529 3367.44)">
            <path d="M0,0V5.785H5.4V34.212H0V40H10.965V0Z"></path>
          </g>
          <g transform="translate(-1186.564 3367.44)">
            <path d="M0,0V40H10.965V34.212H5.57V5.785h5.4V0Z"></path>
          </g>
        </g>
      </g>
      <g transform="translate(76 -39)">
        <g>
          <path class="svg-map-cls-1" d="M106.214,10.886h48.54V-34.7h-48.54Z" transform="translate(-1756.04 3567.906)"></path>
        </g>
        <g transform="translate(-459 169)">
          <g transform="translate(-1157.529 3367.44)">
            <path d="M0,0V5.785H5.4V34.212H0V40H10.965V0Z"></path>
          </g>
          <g transform="translate(-1186.564 3367.44)">
            <path d="M0,0V40H10.965V34.212H5.57V5.785h5.4V0Z"></path>
          </g>
        </g>
      </g>
      <g transform="translate(100 -124)">
        <g>
          <path class="svg-map-cls-1" d="M106.214,10.886h48.54V-34.7h-48.54Z" transform="translate(-1756.04 3567.906)"></path>
        </g>
        <g transform="translate(-459 169)">
          <g transform="translate(-1157.529 3367.44)">
            <path d="M0,0V5.785H5.4V34.212H0V40H10.965V0Z"></path>
          </g>
          <g transform="translate(-1186.564 3367.44)">
            <path d="M0,0V40H10.965V34.212H5.57V5.785h5.4V0Z"></path>
          </g>
        </g>
      </g>
      <g transform="translate(214 -39)">
        <g>
          <path class="svg-map-cls-1" d="M106.214,10.886h48.54V-34.7h-48.54Z" transform="translate(-1756.04 3567.906)"></path>
        </g>
        <g transform="translate(-459 169)">
          <g transform="translate(-1157.529 3367.44)">
            <path d="M0,0V5.785H5.4V34.212H0V40H10.965V0Z"></path>
          </g>
          <g transform="translate(-1186.564 3367.44)">
            <path d="M0,0V40H10.965V34.212H5.57V5.785h5.4V0Z"></path>
          </g>
        </g>
      </g>
      <g transform="translate(448 -91)">
        <g>
          <path class="svg-map-cls-1" d="M106.214,10.886h48.54V-34.7h-48.54Z" transform="translate(-1756.04 3567.906)"></path>
        </g>
        <g transform="translate(-459 169)">
          <g transform="translate(-1157.529 3367.44)">
            <path d="M0,0V5.785H5.4V34.212H0V40H10.965V0Z"></path>
          </g>
          <g transform="translate(-1186.564 3367.44)">
            <path d="M0,0V40H10.965V34.212H5.57V5.785h5.4V0Z"></path>
          </g>
        </g>
      </g>
      <g transform="translate(448 120)">
        <g >
          <path class="svg-map-cls-1" d="M106.214,10.886h48.54V-34.7h-48.54Z" transform="translate(-1756.04 3567.906)"></path>
        </g>
        <g transform="translate(-459 169)">
          <g transform="translate(-1157.529 3367.44)">
            <path d="M0,0V5.785H5.4V34.212H0V40H10.965V0Z"></path>
          </g>
          <g transform="translate(-1186.564 3367.44)">
            <path d="M0,0V40H10.965V34.212H5.57V5.785h5.4V0Z"></path>
          </g>
        </g>
      </g>
      <g transform="translate(-297 -78)">
        <g>
          <path class="svg-map-cls-1" d="M106.214,10.886h48.54V-34.7h-48.54Z" transform="translate(-1756.04 3567.906)"></path>
        </g>
        <g transform="translate(-459 169)">
          <g transform="translate(-1157.529 3367.44)">
            <path d="M0,0V5.785H5.4V34.212H0V40H10.965V0Z"></path>
          </g>
          <g transform="translate(-1186.564 3367.44)">
            <path d="M0,0V40H10.965V34.212H5.57V5.785h5.4V0Z"></path>
          </g>
        </g>
      </g>
      <g transform="translate(-182 -6)">
        <g>
          <path class="svg-map-cls-1" d="M106.214,10.886h48.54V-34.7h-48.54Z" transform="translate(-1756.04 3567.906)"></path>
        </g>
        <g transform="translate(-459 169)">
          <g transform="translate(-1157.529 3367.44)">
            <path d="M0,0V5.785H5.4V34.212H0V40H10.965V0Z"></path>
          </g>
          <g transform="translate(-1186.564 3367.44)">
            <path d="M0,0V40H10.965V34.212H5.57V5.785h5.4V0Z"></path>
          </g>
        </g>
      </g>
      <g transform="translate(-107 -6)">
        <g>
          <path class="svg-map-cls-1" d="M106.214,10.886h48.54V-34.7h-48.54Z" transform="translate(-1756.04 3567.906)"></path>
        </g>
        <g transform="translate(-459 169)">
          <g transform="translate(-1157.529 3367.44)">
            <path d="M0,0V5.785H5.4V34.212H0V40H10.965V0Z"></path>
          </g>
          <g transform="translate(-1186.564 3367.44)">
            <path d="M0,0V40H10.965V34.212H5.57V5.785h5.4V0Z"></path>
          </g>
        </g>
      </g>
      <g transform="translate(-94 -101)">
        <g>
          <path class="svg-map-cls-1" d="M106.214,10.886h48.54V-34.7h-48.54Z" transform="translate(-1756.04 3567.906)"></path>
        </g>
        <g transform="translate(-459 169)">
          <g transform="translate(-1157.529 3367.44)">
            <path d="M0,0V5.785H5.4V34.212H0V40H10.965V0Z"></path>
          </g>
          <g transform="translate(-1186.564 3367.44)">
            <path d="M0,0V40H10.965V34.212H5.57V5.785h5.4V0Z"></path>
          </g>
        </g>
      </g>
    </g>
  </g>
</svg>
